<svg version="1.1" xmlns="http://www.w3.org/2000/svg" xmlns:xlink="http://www.w3.org/1999/xlink" width="68.51269" height="21.6066" viewBox="0,0,68.51269,21.6066"><g transform="translate(-139.24367,-336.4467)"><g data-paper-data="{&quot;isPaintingLayer&quot;:true}" fill-rule="nonzero" stroke-linejoin="miter" stroke-miterlimit="10" stroke-dasharray="" stroke-dashoffset="0" style="mix-blend-mode: normal"><path d="M139.49368,353.81128c0,-4.59082 0,-11.79286 0,-14.10919c0,-1.42354 1.20857,-3.00539 2.70894,-3.00539c6.33093,0 50.01203,0 62.16958,0c1.98892,0 3.13417,1.50606 3.13417,3.65658c0,4.38663 0,11.45476 0,13.89212c0,1.63551 -1.41451,3.5579 -3.8288,3.5579c-12.94338,0 -54.62217,0 -61.12763,0c-1.67433,0 -3.05626,-1.65876 -3.05626,-3.99203z" fill="#8b8483" stroke="#efe7e1" stroke-width="0.5" stroke-linecap="butt"/><path d="M145.15864,351.75h56.68274" fill="none" stroke="#ffffff" stroke-width="2" stroke-linecap="round"/><text transform="translate(151.29652,345.02628) scale(0.14802,0.14802)" font-size="40" xml:space="preserve" fill="#ffffff" fill-rule="nonzero" stroke="#ffffff" stroke-width="0" stroke-linecap="butt" stroke-linejoin="miter" stroke-miterlimit="10" stroke-dasharray="" stroke-dashoffset="0" font-family="Pixel" font-weight="normal" text-anchor="start" style="mix-blend-mode: normal"><tspan x="0" dy="0">TWEAK VSYNC</tspan></text></g></g></svg>