<svg version="1.1" xmlns="http://www.w3.org/2000/svg" xmlns:xlink="http://www.w3.org/1999/xlink" width="64.24384" height="61.13007" viewBox="0,0,64.24384,61.13007"><g transform="translate(-207.87808,-149.43499)"><g data-paper-data="{&quot;isPaintingLayer&quot;:true}" fill-rule="nonzero" stroke-linecap="butt" stroke-linejoin="miter" stroke-miterlimit="10" stroke-dasharray="" stroke-dashoffset="0" style="mix-blend-mode: normal"><path d="M209.12808,201.90741c0,-12.46141 0,-36.93616 0,-43.84799c0,-3.56431 3.97466,-7.37443 7.70224,-7.37443c7.2529,0 33.01036,0 46.17326,0c4.75644,0 7.86834,3.06061 7.86834,7.70661c0,12.39029 0,36.05626 0,43.01754c0,3.77878 -3.33123,7.90592 -8.36661,7.90592c-13.25331,0 -38.31226,0 -45.50889,0c-3.79519,0 -7.86834,-2.92739 -7.86834,-7.40766z" fill="#1d5900" stroke="#ffffff" stroke-width="2.5"/><text transform="translate(212.98964,168.55422) scale(0.30806,0.30806)" font-size="40" xml:space="preserve" fill="#ffffff" fill-rule="nonzero" stroke="none" stroke-width="1" stroke-linecap="butt" stroke-linejoin="miter" stroke-miterlimit="10" stroke-dasharray="" stroke-dashoffset="0" font-family="Sans Serif" font-weight="normal" text-anchor="start" style="mix-blend-mode: normal"><tspan x="0" dy="0">Switch to</tspan></text><text transform="translate(219.00298,183.5542) scale(0.30806,0.30806)" font-size="40" xml:space="preserve" fill="#ffffff" fill-rule="nonzero" stroke="none" stroke-width="1" stroke-linecap="butt" stroke-linejoin="miter" stroke-miterlimit="10" stroke-dasharray="" stroke-dashoffset="0" font-family="Sans Serif" font-weight="normal" text-anchor="start" style="mix-blend-mode: normal"><tspan x="0" dy="0">default</tspan></text><text transform="translate(226.92615,198.5542) scale(0.30806,0.30806)" font-size="40" xml:space="preserve" fill="#ffffff" fill-rule="nonzero" stroke="none" stroke-width="1" stroke-linecap="butt" stroke-linejoin="miter" stroke-miterlimit="10" stroke-dasharray="" stroke-dashoffset="0" font-family="Sans Serif" font-weight="normal" text-anchor="start" style="mix-blend-mode: normal"><tspan x="0" dy="0">keys</tspan></text></g></g></svg>