<svg version="1.1" xmlns="http://www.w3.org/2000/svg" xmlns:xlink="http://www.w3.org/1999/xlink" width="49" height="49" viewBox="0,0,49,49"><g transform="translate(-8.5,-7.5)"><g data-paper-data="{&quot;isPaintingLayer&quot;:true}" fill-rule="nonzero" stroke-width="4" stroke-linejoin="miter" stroke-miterlimit="10" stroke-dasharray="" stroke-dashoffset="0" style="mix-blend-mode: normal"><g><path d="M10.5,47.5c0,-9.45081 0,-25.71765 0,-31c0,-3.26524 3.53021,-7 6.66667,-7c5.36275,0 22.56748,0 32,0c3.79606,0 6.33333,2.39118 6.33333,6c0,9.2571 0,26.52617 0,32c0,3.26524 -2.39468,7 -6,7c-9.06417,0 -25.7805,0 -31.33333,0c-3.51723,0 -7.66667,-2.83954 -7.66667,-7z" fill="#2a7700" stroke="#000000" stroke-linecap="butt"/><g fill="none" stroke="#00ff3a" stroke-linecap="round"><path d="M33,18.125v27.75"/><path d="M18.75,32h28.5"/></g></g></g></g></svg>