<svg version="1.1" xmlns="http://www.w3.org/2000/svg" xmlns:xlink="http://www.w3.org/1999/xlink" width="231" height="343.1" viewBox="0,0,231,343.1"><g transform="translate(-124.5,-9.4)"><g data-paper-data="{&quot;isPaintingLayer&quot;:true}" fill-rule="nonzero" stroke-linecap="butt" stroke-linejoin="miter" stroke-miterlimit="10" stroke-dasharray="" stroke-dashoffset="0" style="mix-blend-mode: normal"><path d="M126.5,329.51955c0,-65.31807 0,-262.78718 0,-298.14332c0,-10.60433 7.10109,-19.87622 15,-19.87622c23.7892,0 145.51873,0 193,0c11.78831,0 19,9.85187 19,20.98046c0,36.66024 0,238.9624 0,300.35179c0,11.16394 -8.72263,17.66775 -18,17.66775c-26.19566,0 -152.48724,0 -195,0c-8.79132,0 -14,-7.79952 -14,-20.98046z" fill="none" stroke="#000000" stroke-width="4"/><path d="M126.5,39.4c0,0 0,-14.13587 0,-19.30444c0,-3.46889 5.4574,-8.69556 11.86126,-8.69556c23.09027,0 161.29041,0 203.13874,0c7.58096,0 12,5.00455 12,8.38445c0,5.16971 0,19.61555 0,19.61555z" fill="#c4c3ff" stroke="#000000" stroke-width="4"/><text transform="translate(137.5,32.65) scale(0.39166,0.39166)" font-size="40" xml:space="preserve" fill="#000000" fill-rule="nonzero" stroke="none" stroke-width="1" stroke-linecap="butt" stroke-linejoin="miter" stroke-miterlimit="10" stroke-dasharray="" stroke-dashoffset="0" font-family="Pixel" font-weight="normal" text-anchor="start" style="mix-blend-mode: normal"><tspan x="0" dy="0">PC</tspan></text><text transform="translate(185.5,32.64999) scale(0.39166,0.39166)" font-size="40" xml:space="preserve" fill="#000000" fill-rule="nonzero" stroke="none" stroke-width="1" stroke-linecap="butt" stroke-linejoin="miter" stroke-miterlimit="10" stroke-dasharray="" stroke-dashoffset="0" font-family="Pixel" font-weight="normal" text-anchor="start" style="mix-blend-mode: normal"><tspan x="0" dy="0">BBC</tspan></text><text transform="translate(250.5,32.64999) scale(0.39166,0.39166)" font-size="40" xml:space="preserve" fill="#000000" fill-rule="nonzero" stroke="none" stroke-width="1" stroke-linecap="butt" stroke-linejoin="miter" stroke-miterlimit="10" stroke-dasharray="" stroke-dashoffset="0" font-family="Pixel" font-weight="normal" text-anchor="start" style="mix-blend-mode: normal"><tspan x="0" dy="0">ACTION</tspan></text></g></g></svg>