<svg version="1.1" xmlns="http://www.w3.org/2000/svg" xmlns:xlink="http://www.w3.org/1999/xlink" width="231" height="341.1" viewBox="0,0,231,341.1"><g transform="translate(-124.5,-9.4)"><g data-paper-data="{&quot;isPaintingLayer&quot;:true}" fill-rule="nonzero" stroke-linecap="butt" stroke-linejoin="miter" stroke-miterlimit="10" stroke-dasharray="" stroke-dashoffset="0" style="mix-blend-mode: normal"><path d="M126.5,330.44788c0,-62.42789 0,-251.15943 0,-284.95114c0,-10.1351 7.10109,-18.99674 15,-18.99674c23.78921,0 145.51874,0 193,0c11.78831,0 19,9.41595 19,20.05212c0,35.03811 0,228.38885 0,287.06189c0,10.66996 -8.72262,16.88599 -18,16.88599c-26.19565,0 -152.48724,0 -195,0c-8.79132,0 -14,-7.45442 -14,-20.05212z" fill="#ffffff" stroke="none" stroke-width="0"/><path d="M126.5,39.40001c0,0 0,-14.13587 0,-19.30444c0,-3.46889 5.4574,-8.69556 11.86126,-8.69556c23.09027,0 161.29041,0 203.13874,0c7.58096,0 12,5.00455 12,8.38445c0,5.16971 0,19.61555 0,19.61555z" fill="#c4c3ff" stroke="#000000" stroke-width="4"/><text transform="translate(137.5,32.65001) scale(0.39166,0.39166)" font-size="40" xml:space="preserve" fill="#000000" fill-rule="nonzero" stroke="none" stroke-width="1" stroke-linecap="butt" stroke-linejoin="miter" stroke-miterlimit="10" stroke-dasharray="" stroke-dashoffset="0" font-family="Pixel" font-weight="normal" text-anchor="start" style="mix-blend-mode: normal"><tspan x="0" dy="0">PC</tspan></text><text transform="translate(185.5,32.64999) scale(0.39166,0.39166)" font-size="40" xml:space="preserve" fill="#000000" fill-rule="nonzero" stroke="none" stroke-width="1" stroke-linecap="butt" stroke-linejoin="miter" stroke-miterlimit="10" stroke-dasharray="" stroke-dashoffset="0" font-family="Pixel" font-weight="normal" text-anchor="start" style="mix-blend-mode: normal"><tspan x="0" dy="0">BBC</tspan></text><text transform="translate(250.5,32.64999) scale(0.39166,0.39166)" font-size="40" xml:space="preserve" fill="#000000" fill-rule="nonzero" stroke="none" stroke-width="1" stroke-linecap="butt" stroke-linejoin="miter" stroke-miterlimit="10" stroke-dasharray="" stroke-dashoffset="0" font-family="Pixel" font-weight="normal" text-anchor="start" style="mix-blend-mode: normal"><tspan x="0" dy="0">ACTION</tspan></text></g></g></svg>