<svg version="1.1" xmlns="http://www.w3.org/2000/svg" xmlns:xlink="http://www.w3.org/1999/xlink" width="84.172" height="43.343" viewBox="0,0,84.172,43.343"><g transform="translate(-198.583,-155.233)"><g data-paper-data="{&quot;isPaintingLayer&quot;:true}" fill-rule="nonzero" stroke-width="1" stroke-linecap="butt" stroke-linejoin="miter" stroke-miterlimit="10" stroke-dasharray="" stroke-dashoffset="0" style="mix-blend-mode: normal"><path d="M282.755,161.17045v32.85395c0,2.50996 -2.327,4.5516 -5.191,4.5516h-73.791c-2.861,0 -5.19,-2.04164 -5.19,-4.5516v-32.85483c0,-2.50996 2.329,-4.5516 5.19,-4.5516h73.791c2.864,0 5.191,2.04252 5.191,4.55248z" fill="#868686" stroke="none"/><path d="M282.755,159.45997v30.5049c0,2.3305 -2.327,4.22616 -5.191,4.22616h-73.791c-2.861,0 -5.19,-1.89566 -5.19,-4.22616v-30.50571c0,-2.3305 2.329,-4.22616 5.19,-4.22616h73.791c2.864,0 5.191,1.89648 5.191,4.22697z" fill="#adadad" stroke="none"/><text transform="translate(203.8806,187.44776) scale(0.33961,0.33961)" font-size="40" xml:space="preserve" fill="#ffffff" fill-rule="nonzero" stroke="none" stroke-width="1" stroke-linecap="butt" stroke-linejoin="miter" stroke-miterlimit="10" stroke-dasharray="" stroke-dashoffset="0" font-family="Sans Serif" font-weight="normal" text-anchor="start" style="mix-blend-mode: normal"><tspan x="0" dy="0">Size:</tspan></text><text transform="translate(209.03928,172.48565) scale(0.36713,0.36713)" font-size="40" xml:space="preserve" fill="#ffffff" fill-rule="nonzero" stroke="#ffffff" stroke-width="1" stroke-linecap="butt" stroke-linejoin="miter" stroke-miterlimit="10" stroke-dasharray="" stroke-dashoffset="0" font-family="&quot;Microsoft YaHei&quot;, &quot;微软雅黑&quot;, STXihei, &quot;华文细黑&quot;" font-weight="normal" text-anchor="start" style="mix-blend-mode: normal"><tspan x="0" dy="0">REBIRTH</tspan></text></g></g></svg>