<svg version="1.1" xmlns="http://www.w3.org/2000/svg" xmlns:xlink="http://www.w3.org/1999/xlink" width="178.0664" height="107.77278" viewBox="0,0,178.0664,107.77278"><g transform="translate(-132.9668,-98.42508)"><g data-paper-data="{&quot;isPaintingLayer&quot;:true}" fill-rule="nonzero" stroke="none" stroke-linecap="butt" stroke-linejoin="miter" stroke-miterlimit="10" stroke-dasharray="" stroke-dashoffset="0" style="mix-blend-mode: normal"><g fill="#0081e3" stroke-width="0"><path d="M287.85557,152.31148c-12.80064,0 -23.17763,-12.06292 -23.17763,-26.9432c0,-14.88028 10.37698,-26.9432 23.17763,-26.9432c12.80064,0 23.17763,12.06292 23.17763,26.9432c0,14.88028 -10.37698,26.9432 -23.17763,26.9432z" data-paper-data="{&quot;index&quot;:null}"/><path d="M156.70599,152.31148c-13.11078,0 -23.73915,-12.06285 -23.73915,-26.9432c0,-14.88033 10.62834,-26.9432 23.73915,-26.9432c13.11078,0 23.73915,12.06285 23.73915,26.9432c0,14.88033 -10.62838,26.9432 -23.73915,26.9432z" data-paper-data="{&quot;index&quot;:null}"/><path d="M287.85557,206.19786c-12.80068,0 -23.17763,-12.06285 -23.17763,-26.9432c0,-14.88033 10.37695,-26.9432 23.17763,-26.9432c12.80068,0 23.17763,12.06285 23.17763,26.9432c0,14.88033 -10.37695,26.9432 -23.17763,26.9432z" data-paper-data="{&quot;index&quot;:null}"/><path d="M156.4252,206.19786c-12.95575,0 -23.45836,-12.06285 -23.45836,-26.9432c0,-14.88033 10.50265,-26.9432 23.45836,-26.9432c12.95575,0 23.45836,12.06285 23.45836,26.9432c0,14.88033 -10.50265,26.9432 -23.45836,26.9432z" data-paper-data="{&quot;index&quot;:null}"/><path d="M159.90942,206.19786v-107.77274h124.29613v107.77274z" data-paper-data="{&quot;index&quot;:null}"/><path d="M132.9668,181.78059v-56.41234h178.06636v56.41234z" data-paper-data="{&quot;index&quot;:null}"/></g><text transform="translate(139.625,187.3125) scale(0.5,0.5)" font-size="40" xml:space="preserve" fill="#ffffff" fill-rule="nonzero" stroke="none" stroke-width="1" stroke-linecap="butt" stroke-linejoin="miter" stroke-miterlimit="10" stroke-dasharray="" stroke-dashoffset="0" font-family="Sans Serif" font-weight="normal" text-anchor="start" style="mix-blend-mode: normal"><tspan x="0" dy="0">❤️+⭐️ for 1K Size</tspan></text></g></g></svg>