<svg version="1.1" xmlns="http://www.w3.org/2000/svg" xmlns:xlink="http://www.w3.org/1999/xlink" width="522.94232" height="412.40657" viewBox="0,0,522.94232,412.40657"><g transform="translate(21.47116,26.20329)"><g data-paper-data="{&quot;isPaintingLayer&quot;:true}" stroke="none" stroke-miterlimit="10" stroke-dasharray="" stroke-dashoffset="0" style="mix-blend-mode: normal"><path d="M-21.47116,386.20329v-412.40657h522.94232v412.40657z" fill="#000000" fill-rule="nonzero" stroke-width="0" stroke-linecap="butt" stroke-linejoin="miter"/><path d="" data-paper-data="{&quot;origPos&quot;:null}" fill="#000000" fill-rule="nonzero" stroke-width="1" stroke-linecap="butt" stroke-linejoin="miter"/><path d="M350.67818,67.94635v-52.80417h69.16102v52.80417z" fill="none" fill-rule="nonzero" stroke-width="0" stroke-linecap="butt" stroke-linejoin="miter"/><g fill="#ffffff" fill-rule="evenodd" stroke-width="1" stroke-linecap="round" stroke-linejoin="round"><path d="M84.92366,70.43258c0,1.91823 -1.3044,3.29934 -3.60625,4.83389c-3.45278,2.37856 -7.90303,3.8364 -13.35074,3.8364c-13.50418,0 -27.0084,-11.20233 -27.0084,-27.39202c0,-16.18969 13.50417,-27.39202 27.0084,-27.39202c5.44771,0 9.89796,1.45784 13.35074,3.8364c2.30184,1.53455 3.60625,2.91566 3.60625,4.83389c0,2.37856 -1.84145,3.75967 -3.83639,3.75967c-1.61131,0 -2.68548,-0.76731 -3.68297,-1.53455c-1.68802,-1.3044 -5.06409,-2.99242 -9.36087,-2.99242c-9.59106,0 -18.41482,8.28666 -18.41482,19.48904c0,11.20233 8.82376,19.48903 18.41482,19.48903c4.29678,0 7.67285,-1.68803 9.36087,-2.99243c0.99749,-0.7673 2.07166,-1.53455 3.68297,-1.53455c1.99493,0 3.83639,1.38113 3.83639,3.75969z"/><path d="M129.6563,58.69314c0,13.73438 -11.43251,20.40978 -20.25627,20.40978c-8.82376,0 -20.17957,-6.67535 -20.17957,-20.40978c0,-13.65765 11.35581,-20.48647 20.17957,-20.48647c8.82376,0 20.25627,6.82882 20.25627,20.48647zM97.27692,58.69314c0,8.67028 6.21501,13.35075 12.1231,13.35075c5.98482,0 12.19981,-4.68042 12.19981,-13.35075c0,-8.74704 -6.21499,-13.42745 -12.19981,-13.42745c-5.9081,0 -12.1231,4.6804 -12.1231,13.42745z"/><path d="M173.9286,56.00763v18.87517c0,2.22513 -1.76475,4.06659 -3.98988,4.06659c-2.22513,0 -4.06659,-1.84145 -4.06659,-4.06659v-18.87517c0,-7.67284 -4.3735,-10.74198 -9.36086,-10.74198c-7.36593,0 -10.58852,6.59862 -11.0489,9.89796v19.71919c0,2.22513 -1.84145,4.06659 -4.06659,4.06659c-2.22513,0 -4.06659,-1.84145 -4.06659,-4.06659v-32.30268c0,-2.30184 1.84146,-4.14334 4.06659,-4.14334c2.22513,0 4.06659,1.84145 4.06659,4.14334v5.06408c0.38362,-2.68547 4.98737,-9.36086 13.73437,-9.36086c7.44264,0 14.73186,4.68041 14.73186,17.72424z"/><path d="M219.73545,56.00763v18.87517c0,2.22513 -1.76474,4.06659 -3.98987,4.06659c-2.22513,0 -4.0666,-1.84145 -4.0666,-4.06659v-18.87517c0,-7.67284 -4.37351,-10.74198 -9.36087,-10.74198c-7.36593,0 -10.5885,6.59862 -11.04889,9.89796v19.71919c0,2.22513 -1.84146,4.06659 -4.06659,4.06659c-2.22513,0 -4.0666,-1.84145 -4.0666,-4.06659v-32.30268c0,-2.30184 1.84146,-4.14334 4.0666,-4.14334c2.22513,0 4.06659,1.84145 4.06659,4.14334v5.06408c0.38362,-2.68547 4.98736,-9.36086 13.73436,-9.36086c7.44264,0 14.73187,4.68041 14.73187,17.72424z"/><path d="M266.53975,57.31203c0,3.14586 -1.76475,4.37351 -5.06408,4.37351l-25.704,-0.07672c0.84402,7.13573 6.4452,10.66526 12.58345,10.66526c3.14586,0 5.29429,-0.76728 7.67285,-2.22512c1.3044,-0.69054 2.14842,-1.22764 3.22258,-1.22764c1.76474,0 2.83896,1.22764 2.83896,2.91566c0,0.99749 -0.38364,2.07166 -2.07166,3.45278c-2.91566,2.37856 -7.13574,3.75968 -11.96963,3.75968c-9.97469,0 -20.63995,-6.36845 -20.63995,-20.25629c0,-13.81113 11.12561,-20.48647 19.87266,-20.48647c8.74705,0 19.25885,6.90554 19.25885,19.10536zM235.77167,55.77744h22.86505c-0.69054,-7.28922 -6.21501,-10.51178 -11.35581,-10.51178c-5.06409,0 -10.8187,3.22256 -11.50924,10.51178z"/><path d="M307.12909,70.04896c0,1.84146 -1.3044,2.83894 -2.14842,3.68296c-3.29934,3.45278 -7.59613,5.21752 -12.89035,5.21752c-9.13067,0 -20.17957,-6.67535 -20.17957,-20.33305c0,-13.73437 11.0489,-20.40976 20.17958,-20.40976c5.29427,0 9.59106,1.76474 12.89036,5.21752c0.84402,0.84402 2.14842,1.84145 2.14842,3.68296c0,1.91823 -1.61132,3.14586 -3.29935,3.14586c-1.53455,0 -2.68547,-0.844 -3.29934,-1.45782c-2.07165,-2.45533 -5.29427,-3.52948 -8.13322,-3.52948c-6.4452,0 -12.43002,4.60369 -12.43002,13.35073c0,8.67029 5.98482,13.27403 12.43002,13.27403c2.83895,0 6.06153,-1.0742 8.13322,-3.52948c0.61382,-0.61382 1.76474,-1.45783 3.29934,-1.45783c1.68803,0 3.29935,1.22764 3.29935,3.14587z"/><path d="M334.98149,74.42245c0,3.14586 -3.60626,4.52698 -7.90304,4.52698c-4.60369,0 -9.13067,-1.61132 -9.13067,-10.43508v-23.32543h-2.91567c-1.99494,0 -3.29934,-1.30441 -3.29934,-3.29934c0,-1.91823 1.3044,-3.22258 3.29934,-3.22258h2.91567v-5.98481c0,-2.14842 1.84146,-3.98988 3.98988,-3.98988c2.22514,0 4.06659,1.84147 4.06659,3.98988v5.98481h5.60119c1.99494,0 3.37605,1.3044 3.37605,3.22258c0,1.99493 -1.38111,3.29934 -3.37605,3.29934h-5.60119v23.40215c0,2.30184 0.92074,3.37606 2.68548,3.37606c0.99749,0 2.14841,-0.30692 2.99243,-0.38363c1.91823,-0.30691 3.29934,0.92073 3.29934,2.83895z"/><path d="M378.71669,57.31203c0,3.14586 -1.76475,4.37351 -5.06409,4.37351l-25.704,-0.07672c0.84402,7.13573 6.4452,10.66526 12.58344,10.66526c3.14587,0 5.29429,-0.76728 7.67285,-2.22512c1.3044,-0.69054 2.14842,-1.22764 3.22258,-1.22764c1.76474,0 2.83895,1.22764 2.83895,2.91566c0,0.99749 -0.38363,2.07166 -2.07165,3.45278c-2.91566,2.37856 -7.13575,3.75968 -11.96964,3.75968c-9.97469,0 -20.63995,-6.36845 -20.63995,-20.25629c0,-13.81113 11.12562,-20.48647 19.87266,-20.48647c8.74705,0 19.25885,6.90554 19.25885,19.10536zM347.9486,55.77744h22.86505c-0.69054,-7.28922 -6.21501,-10.51178 -11.35581,-10.51178c-5.06408,0 -10.81871,3.22256 -11.50924,10.51178z"/><path d="M423.6028,27.84831v47.11125c0,2.22513 -1.91822,4.06658 -4.14335,4.06658c-2.22514,0 -4.06659,-1.84144 -4.06659,-4.06658v-4.14336c-0.53711,3.45278 -5.29427,8.28666 -12.58344,8.28666c-8.51685,0 -18.72175,-6.59864 -18.72175,-20.48649c0,-13.65765 10.28161,-20.40976 18.72175,-20.40976c5.67791,0 10.58851,2.91567 12.58344,7.36594v-3.06916c0,-0.2302 0,-0.53709 0.07672,-0.76729v-13.88785c0,-2.22514 1.84145,-4.06659 3.98987,-4.06659c2.22514,0 4.14335,1.84146 4.14335,4.06659zM415.77649,58.61638c0,-9.59106 -6.4452,-13.42746 -11.66272,-13.42746c-5.60118,0 -11.89291,4.3735 -11.89291,13.42746c0,9.13067 6.29173,13.50418 11.89291,13.50418c5.21751,0 11.66272,-3.98987 11.66272,-13.50418z"/><path d="M442.09435,29.15271v29.38696c0,2.45533 -2.07166,4.52698 -4.45027,4.52698c-2.53204,0 -4.6037,-2.07165 -4.6037,-4.52697v-29.38696c0,-2.45533 2.07166,-4.52697 4.6037,-4.52697c2.37856,0 4.45027,2.07165 4.45027,4.52698zM432.8102,73.96202c0,-2.60876 2.14842,-4.75718 4.83389,-4.75718c2.53205,0 4.6804,2.14843 4.6804,4.75718c0,2.68547 -2.14841,4.83389 -4.6804,4.83389c-2.68547,0 -4.83389,-2.14841 -4.83389,-4.83389z"/></g><g fill-rule="nonzero" stroke-width="1" stroke-linecap="butt" stroke-linejoin="miter"><g><path d="M311.2794,277.99985c0,15.60014 -7.31202,28.77958 -22.45847,31.46927h-114.38147c-15.14641,-2.68964 -22.45847,-15.86912 -22.45847,-31.46927c0,-12.10357 7.31202,-23.13127 17.75787,-27.1658c-0.78343,-1.61382 2.08915,-1.61382 2.08915,-3.49658c0,-5.91729 1.3057,-12.37255 7.05091,-12.37255c0.78343,0 1.3057,0.26898 1.82798,0.26898c-1.04459,-2.15174 1.82798,-2.42071 1.82798,-4.84142c0,-9.41387 4.17833,-18.55882 13.05727,-18.55882c2.61141,0 4.43945,0.5379 7.05091,1.61382v0c0,-15.60014 12.27383,-28.24162 27.15908,-27.97269c15.14641,0 27.15908,12.37255 27.42019,27.70371c9.92348,-4.03454 21.67504,-2.15174 29.7705,6.18627c8.35661,8.33801 7.31202,21.24846 2.87257,31.7382c10.70691,3.76556 21.15272,14.52428 21.41388,26.89683z" data-paper-data="{&quot;origPos&quot;:null}" fill="#00d655"/><path d="M311.01825,272.01755c0,15.60014 -12.27383,27.97269 -27.42019,27.97269h-104.45794c-15.14641,0 -27.42019,-12.37254 -27.15908,-28.24162c0,-12.10357 7.31202,-22.0554 17.75787,-26.08989c-0.78343,-1.61382 -1.30571,-3.2276 -1.30571,-5.1104c0,-5.91729 4.7006,-10.75872 10.4458,-10.75872c0.78343,0 1.30571,0.26898 1.82798,0.26898c-0.78343,-1.88276 -1.30571,-4.03454 -1.30571,-6.45525c0,-9.14489 7.31202,-16.67601 16.191,-16.67601c2.61141,0 4.43945,0.53791 7.05091,1.61382v0c0,-15.60014 12.27383,-28.24162 27.15908,-28.24162c15.14641,0 27.15908,12.37255 27.42019,27.70371c9.92348,-4.03454 21.67504,-2.15174 29.7705,6.18627c8.09546,8.33801 9.92348,20.97948 5.48404,31.46927c10.70691,3.76556 18.5413,13.98632 18.5413,26.35887z" data-paper-data="{&quot;origPos&quot;:null}" fill="#00ff66"/><path d="M283.59778,299.99025h-34.20999l-68.94225,-70.73859c-0.78343,-1.88276 -1.04459,-3.49658 -1.04459,-5.64831c0,-9.14489 7.31202,-16.67601 16.191,-16.67601c2.61141,0 4.43945,0.53791 7.05091,1.61382c0,-15.60014 12.27383,-28.24162 27.15908,-28.5106c15.14641,0 27.15908,12.37255 27.42019,27.70371c9.92348,-4.03454 21.67504,-2.15173 29.77049,6.18627c8.09546,8.60699 9.92348,20.97949 5.48404,31.46927c10.70691,4.03454 18.54131,14.25529 18.54131,26.62784c0,15.60014 -12.27383,27.97269 -27.42019,27.97269z" data-paper-data="{&quot;origPos&quot;:null}" fill="#00ef60"/><g data-paper-data="{&quot;origPos&quot;:null}" fill="none" font-family="sans-serif" font-weight="normal" font-size="12" text-anchor="start"/><g data-paper-data="{&quot;origPos&quot;:null}" fill="none" font-family="sans-serif" font-weight="normal" font-size="12" text-anchor="start"/></g><path d="M265.56549,253.87846l-38.82692,38.82692c-1.57847,1.57812 -3.64684,2.36696 -5.71551,2.36696c-2.06872,0 -4.13739,-0.78884 -5.71546,-2.36696l-20.68625,-20.68624c-3.15664,-3.15619 -3.15619,-8.27404 0,-11.43063c3.15619,-3.15659 8.27398,-3.15659 11.43062,0l14.97114,14.97154l33.11186,-33.11226c3.15619,-3.15659 8.27398,-3.15659 11.43062,0c3.15664,3.15659 3.15664,8.27443 0,11.43062z" fill="#00d655"/><path d="M265.98185,245.55112l-38.82692,38.82692c-1.57847,1.57812 -3.64684,2.36696 -5.71551,2.36696c-2.06872,0 -4.13739,-0.78884 -5.71546,-2.36696l-20.68624,-20.68625c-3.15664,-3.15619 -3.15619,-8.27403 0,-11.43062c3.15619,-3.15659 8.27398,-3.15659 11.43062,0l14.97114,14.97154l33.11185,-33.11226c3.15619,-3.15659 8.27399,-3.15659 11.43063,0c3.15664,3.15659 3.15664,8.27443 0,11.43062z" fill="#ffffff"/></g></g></g></svg>