<svg version="1.1" xmlns="http://www.w3.org/2000/svg" xmlns:xlink="http://www.w3.org/1999/xlink" width="7.63436" height="19.30934" viewBox="0,0,7.63436,19.30934"><defs><linearGradient x1="234.268" y1="188.35587" x2="237.26949" y2="192.98874" gradientUnits="userSpaceOnUse" id="color-1"><stop offset="0" stop-color="#000000"/><stop offset="1" stop-color="#000000" stop-opacity="0"/></linearGradient><linearGradient x1="231.23087" y1="198.73199" x2="235.86374" y2="195.7305" gradientUnits="userSpaceOnUse" id="color-2"><stop offset="0" stop-color="#000000"/><stop offset="1" stop-color="#000000" stop-opacity="0"/></linearGradient><linearGradient x1="241.60699" y1="201.76912" x2="238.6055" y2="197.13625" gradientUnits="userSpaceOnUse" id="color-3"><stop offset="0" stop-color="#ffffff"/><stop offset="1" stop-color="#ffffff" stop-opacity="0"/></linearGradient><linearGradient x1="244.64412" y1="191.393" x2="240.01125" y2="194.39449" gradientUnits="userSpaceOnUse" id="color-4"><stop offset="0" stop-color="#ffffff"/><stop offset="1" stop-color="#ffffff" stop-opacity="0"/></linearGradient><linearGradient x1="235.85481" y1="191.25604" x2="237.55836" y2="193.8855" gradientUnits="userSpaceOnUse" id="color-5"><stop offset="0" stop-color="#000000"/><stop offset="1" stop-color="#000000" stop-opacity="0"/></linearGradient><linearGradient x1="234.13103" y1="197.14518" x2="236.7605" y2="195.44164" gradientUnits="userSpaceOnUse" id="color-6"><stop offset="0" stop-color="#000000"/><stop offset="1" stop-color="#000000" stop-opacity="0"/></linearGradient><linearGradient x1="241.74396" y1="192.97981" x2="239.11449" y2="194.68335" gradientUnits="userSpaceOnUse" id="color-7"><stop offset="0" stop-color="#000000"/><stop offset="1" stop-color="#000000" stop-opacity="0"/></linearGradient><linearGradient x1="240.02018" y1="198.86896" x2="238.31663" y2="196.23949" gradientUnits="userSpaceOnUse" id="color-8"><stop offset="0" stop-color="#000000"/><stop offset="1" stop-color="#000000" stop-opacity="0"/></linearGradient><linearGradient x1="236.8664" y1="193.10489" x2="237.74251" y2="194.45718" gradientUnits="userSpaceOnUse" id="color-9"><stop offset="0" stop-color="#000000"/><stop offset="1" stop-color="#000000" stop-opacity="0"/></linearGradient><linearGradient x1="235.97989" y1="196.13359" x2="237.33218" y2="195.25748" gradientUnits="userSpaceOnUse" id="color-10"><stop offset="0" stop-color="#000000"/><stop offset="1" stop-color="#000000" stop-opacity="0"/></linearGradient><linearGradient x1="239.8951" y1="193.9914" x2="238.54281" y2="194.86751" gradientUnits="userSpaceOnUse" id="color-11"><stop offset="0" stop-color="#ffffff"/><stop offset="1" stop-color="#ffffff" stop-opacity="0"/></linearGradient><linearGradient x1="239.00859" y1="197.0201" x2="238.13248" y2="195.66781" gradientUnits="userSpaceOnUse" id="color-12"><stop offset="0" stop-color="#ffffff"/><stop offset="1" stop-color="#ffffff" stop-opacity="0"/></linearGradient></defs><g transform="translate(-234.12032,-179.57033)"><g data-paper-data="{&quot;isPaintingLayer&quot;:true}" fill-rule="nonzero" stroke-linejoin="miter" stroke-miterlimit="10" stroke-dasharray="" stroke-dashoffset="0" style="mix-blend-mode: normal"><path d="M237.09666,194.87033c0,0 -0.25499,-4.66207 0.23343,-7.0716c0.5106,-2.51894 2.76657,-7.7284 2.76657,-7.7284" fill="none" stroke="#000000" stroke-width="1" stroke-linecap="round"/><g stroke="none" stroke-width="0" stroke-linecap="butt"><g><path d="M234.12032,194.24681l4.63286,-3.00149l3.00149,4.63286l-4.63286,3.00149z" fill="#a2a2a2"/><path d="M234.12032,194.24681l4.63286,-3.00149l3.00149,4.63286l-4.63286,3.00149z" fill="url(#color-1)"/><path d="M237.12181,198.87967l-3.00149,-4.63286l4.63286,-3.00149l3.00149,4.63286z" fill="url(#color-2)"/><path d="M241.75467,195.87818l-4.63286,3.00149l-3.00149,-4.63286l4.63286,-3.00149z" fill="url(#color-3)"/><path d="M238.75318,191.24532l3.00149,4.63286l-4.63286,3.00149l-3.00149,-4.63286z" fill="url(#color-4)"/></g><g><path d="M235.77099,194.59954l2.62946,-1.70355l1.70355,2.62946l-2.62946,1.70355z" fill="#a2a2a2"/><path d="M235.77099,194.59954l2.62946,-1.70355l1.70355,2.62946l-2.62946,1.70355z" fill="url(#color-5)"/><path d="M237.47454,197.229l-1.70355,-2.62946l2.62946,-1.70355l1.70355,2.62946z" fill="url(#color-6)"/><path d="M238.40045,192.89599l1.70355,2.62946l-2.62946,1.70355l-1.70355,-2.62946z" fill="url(#color-7)"/><path d="M240.104,195.52545l-2.62946,1.70355l-1.70355,-2.62946l2.62946,-1.70355z" fill="url(#color-8)"/></g><g><path d="M236.82329,194.82441l1.35229,-0.87611l0.87611,1.35229l-1.35229,0.87611z" fill="#a2a2a2"/><path d="M236.82329,194.82441l1.35229,-0.87611l0.87611,1.35229l-1.35229,0.87611z" fill="url(#color-9)"/><path d="M237.6994,196.1767l-0.87611,-1.35229l1.35229,-0.87611l0.87611,1.35229z" fill="url(#color-10)"/><path d="M238.17559,193.9483l0.87611,1.35229l-1.35229,0.87611l-0.87611,-1.35229z" fill="url(#color-11)"/><path d="M239.0517,195.30059l-1.35229,0.87611l-0.87611,-1.35229l1.35229,-0.87611z" fill="url(#color-12)"/></g></g></g></g></svg>