<svg version="1.1" xmlns="http://www.w3.org/2000/svg" xmlns:xlink="http://www.w3.org/1999/xlink" width="12.26088" height="12.26088" viewBox="0,0,12.26088,12.26088"><defs><linearGradient x1="223.06674" y1="178.74078" x2="235.32761" y2="178.74078" gradientUnits="userSpaceOnUse" id="color-1"><stop offset="0" stop-color="#000000"/><stop offset="1" stop-color="#000000" stop-opacity="0"/></linearGradient><linearGradient x1="238.74078" y1="196.93326" x2="238.74078" y2="184.67239" gradientUnits="userSpaceOnUse" id="color-2"><stop offset="0" stop-color="#000000"/><stop offset="1" stop-color="#000000" stop-opacity="0"/></linearGradient><linearGradient x1="256.93325" y1="181.25922" x2="244.67239" y2="181.25922" gradientUnits="userSpaceOnUse" id="color-3"><stop offset="0" stop-color="#ffffff"/><stop offset="1" stop-color="#ffffff" stop-opacity="0"/></linearGradient><linearGradient x1="241.25923" y1="163.06673" x2="241.25923" y2="175.32761" gradientUnits="userSpaceOnUse" id="color-4"><stop offset="0" stop-color="#ffffff"/><stop offset="1" stop-color="#ffffff" stop-opacity="0"/></linearGradient><linearGradient x1="230.38923" y1="179.28531" x2="237.3481" y2="179.28531" gradientUnits="userSpaceOnUse" id="color-5"><stop offset="0" stop-color="#000000"/><stop offset="1" stop-color="#000000" stop-opacity="0"/></linearGradient><linearGradient x1="239.2853" y1="189.61077" x2="239.2853" y2="182.6519" gradientUnits="userSpaceOnUse" id="color-6"><stop offset="0" stop-color="#000000"/><stop offset="1" stop-color="#000000" stop-opacity="0"/></linearGradient><linearGradient x1="240.7147" y1="170.38923" x2="240.7147" y2="177.3481" gradientUnits="userSpaceOnUse" id="color-7"><stop offset="0" stop-color="#000000"/><stop offset="1" stop-color="#000000" stop-opacity="0"/></linearGradient><linearGradient x1="249.61077" y1="180.7147" x2="242.6519" y2="180.7147" gradientUnits="userSpaceOnUse" id="color-8"><stop offset="0" stop-color="#000000"/><stop offset="1" stop-color="#000000" stop-opacity="0"/></linearGradient><linearGradient x1="235.05732" y1="179.63244" x2="238.63617" y2="179.63244" gradientUnits="userSpaceOnUse" id="color-9"><stop offset="0" stop-color="#000000"/><stop offset="1" stop-color="#000000" stop-opacity="0"/></linearGradient><linearGradient x1="239.63245" y1="184.94268" x2="239.63245" y2="181.36383" gradientUnits="userSpaceOnUse" id="color-10"><stop offset="0" stop-color="#000000"/><stop offset="1" stop-color="#000000" stop-opacity="0"/></linearGradient><linearGradient x1="240.36756" y1="175.05732" x2="240.36756" y2="178.63617" gradientUnits="userSpaceOnUse" id="color-11"><stop offset="0" stop-color="#ffffff"/><stop offset="1" stop-color="#ffffff" stop-opacity="0"/></linearGradient><linearGradient x1="244.94268" y1="180.36756" x2="241.36383" y2="180.36756" gradientUnits="userSpaceOnUse" id="color-12"><stop offset="0" stop-color="#ffffff"/><stop offset="1" stop-color="#ffffff" stop-opacity="0"/></linearGradient></defs><g transform="translate(-233.86955,-173.86955)"><g data-paper-data="{&quot;isPaintingLayer&quot;:true}" fill-rule="nonzero" stroke="none" stroke-width="0" stroke-linecap="butt" stroke-linejoin="miter" stroke-miterlimit="10" stroke-dasharray="" stroke-dashoffset="0" style="mix-blend-mode: normal"><g><g><path d="M233.86956,186.13044v-12.26088h12.26088v12.26088z" fill="#5f5f5f"/><path d="M233.86956,186.13044v-12.26088h12.26088v12.26088z" fill="url(#color-1)"/><path d="M246.13044,186.13044h-12.26088v-12.26088h12.26088z" fill="url(#color-2)"/><path d="M246.13044,173.86956v12.26088h-12.26088v-12.26088z" fill="url(#color-3)"/><path d="M233.86956,173.86956h12.26088v12.26088h-12.26088z" fill="url(#color-4)"/></g><g><path d="M236.52056,183.47944v-6.95887h6.95887v6.95887z" fill="#5f5f5f"/><path d="M236.52056,183.47944v-6.95887h6.95887v6.95887z" fill="url(#color-5)"/><path d="M243.47944,183.47944h-6.95887v-6.95887h6.95887z" fill="url(#color-6)"/><path d="M236.52056,176.52056h6.95887v6.95887h-6.95887z" fill="url(#color-7)"/><path d="M243.47944,176.52056v6.95887h-6.95887v-6.95887z" fill="url(#color-8)"/></g><g><path d="M238.21058,181.78943v-3.57885h3.57885v3.57885z" fill="#5f5f5f"/><path d="M238.21058,181.78943v-3.57885h3.57885v3.57885z" fill="url(#color-9)"/><path d="M241.78943,181.78943h-3.57885v-3.57885h3.57885z" fill="url(#color-10)"/><path d="M238.21058,178.21058h3.57885v3.57885h-3.57885z" fill="url(#color-11)"/><path d="M241.78943,178.21058v3.57885h-3.57885v-3.57885z" fill="url(#color-12)"/></g></g></g></g></svg>