<svg version="1.1" xmlns="http://www.w3.org/2000/svg" xmlns:xlink="http://www.w3.org/1999/xlink" width="8.45105" height="19.91283" viewBox="0,0,8.45105,19.91283"><defs><linearGradient x1="236.20931" y1="169.45735" x2="237.46385" y2="165.91535" gradientUnits="userSpaceOnUse" id="color-1"><stop offset="0" stop-color="#000000"/><stop offset="1" stop-color="#000000" stop-opacity="0"/></linearGradient><linearGradient x1="232.55752" y1="163.06787" x2="236.09952" y2="164.32241" gradientUnits="userSpaceOnUse" id="color-2"><stop offset="0" stop-color="#000000"/><stop offset="1" stop-color="#000000" stop-opacity="0"/></linearGradient><linearGradient x1="242.59879" y1="165.80556" x2="239.05679" y2="164.55102" gradientUnits="userSpaceOnUse" id="color-3"><stop offset="0" stop-color="#000000"/><stop offset="1" stop-color="#000000" stop-opacity="0"/></linearGradient><linearGradient x1="238.94699" y1="159.41609" x2="237.69246" y2="162.95808" gradientUnits="userSpaceOnUse" id="color-4"><stop offset="0" stop-color="#000000"/><stop offset="1" stop-color="#000000" stop-opacity="0"/></linearGradient><linearGradient x1="236.87418" y1="167.01875" x2="237.51937" y2="165.19715" gradientUnits="userSpaceOnUse" id="color-5"><stop offset="0" stop-color="#000000"/><stop offset="1" stop-color="#000000" stop-opacity="0"/></linearGradient><linearGradient x1="234.99611" y1="163.73274" x2="236.81771" y2="164.37793" gradientUnits="userSpaceOnUse" id="color-6"><stop offset="0" stop-color="#000000"/><stop offset="1" stop-color="#000000" stop-opacity="0"/></linearGradient><linearGradient x1="240.1602" y1="165.14068" x2="238.3386" y2="164.4955" gradientUnits="userSpaceOnUse" id="color-7"><stop offset="0" stop-color="#ffffff"/><stop offset="1" stop-color="#ffffff" stop-opacity="0"/></linearGradient><linearGradient x1="238.28213" y1="161.85467" x2="237.63694" y2="163.67628" gradientUnits="userSpaceOnUse" id="color-8"><stop offset="0" stop-color="#ffffff"/><stop offset="1" stop-color="#ffffff" stop-opacity="0"/></linearGradient><linearGradient x1="235.16639" y1="173.28259" x2="237.37676" y2="167.04193" gradientUnits="userSpaceOnUse" id="color-9"><stop offset="0" stop-color="#000000"/><stop offset="1" stop-color="#000000" stop-opacity="0"/></linearGradient><linearGradient x1="228.73228" y1="162.02495" x2="234.97294" y2="164.23532" gradientUnits="userSpaceOnUse" id="color-10"><stop offset="0" stop-color="#000000"/><stop offset="1" stop-color="#000000" stop-opacity="0"/></linearGradient><linearGradient x1="239.98992" y1="155.59084" x2="237.77955" y2="161.83149" gradientUnits="userSpaceOnUse" id="color-11"><stop offset="0" stop-color="#ffffff"/><stop offset="1" stop-color="#ffffff" stop-opacity="0"/></linearGradient><linearGradient x1="246.42403" y1="166.84848" x2="240.18337" y2="164.63811" gradientUnits="userSpaceOnUse" id="color-12"><stop offset="0" stop-color="#ffffff"/><stop offset="1" stop-color="#ffffff" stop-opacity="0"/></linearGradient></defs><g transform="translate(-233.35262,-160.21118)"><g data-paper-data="{&quot;isPaintingLayer&quot;:true}" fill-rule="nonzero" stroke-linejoin="miter" stroke-miterlimit="10" stroke-dasharray="" stroke-dashoffset="0" style="mix-blend-mode: normal"><g data-paper-data="{&quot;index&quot;:null}"><path d="M240.09666,179.62402c0,0 -2.25597,-5.20946 -2.76657,-7.7284c-0.48842,-2.40953 -0.23343,-7.0716 -0.23343,-7.0716" fill="none" stroke="#000000" stroke-width="1" stroke-linecap="round"/><g stroke="none" stroke-width="0" stroke-linecap="butt"><path d="M235.56301,160.2112l6.24067,2.21037l-2.21037,6.24067l-6.24067,-2.21037z" fill="#a2a2a2"/><path d="M235.01765,164.46108l0.76699,0.27166l-0.40749,1.15049l-0.76699,-0.27166z" fill="#dfcbac"/><path d="M236.35787,161.71928l0.76699,0.27166l-0.21665,0.61169l-0.76699,-0.27166z" fill="#dfcbac"/><path d="M234.40887,164.73583l0.76699,0.27166l-0.40749,1.15049l-0.76699,-0.27166z" fill="#dfcbac"/><path d="M238.37587,166.02973l0.91446,0.32389l-0.48584,1.37169l-0.91446,-0.32389z" fill="#dfcbac"/><g><path d="M236.43442,162.03845l3.542,1.25453l-1.25453,3.542l-3.542,-1.25453z" fill="#a2a2a2"/><path d="M236.43442,162.03845l3.542,1.25453l-1.25453,3.542l-3.542,-1.25453z" fill="url(#color-1)"/><path d="M239.97642,163.29298l-1.25453,3.542l-3.542,-1.25453l1.25453,-3.542z" fill="url(#color-2)"/><path d="M235.17989,165.58045l1.25453,-3.542l3.542,1.25453l-1.25453,3.542z" fill="url(#color-3)"/><path d="M238.72189,166.83497l-3.542,-1.25453l1.25453,-3.542l3.542,1.25453z" fill="url(#color-4)"/></g><path d="M237.81997,163.15351l0.52735,0.18678l-0.28017,0.79103l-0.52735,-0.18678z" fill="#dfcbac"/><path d="M237.92065,164.52104l0.91446,0.32389l-0.48584,1.37169l-0.91446,-0.32389z" fill="#dfcbac"/><g><path d="M236.98995,163.20332l1.8216,0.64519l-0.64519,1.8216l-1.8216,-0.64519z" fill="#a2a2a2"/><path d="M236.98995,163.20332l1.8216,0.64519l-0.64519,1.8216l-1.8216,-0.64519z" fill="url(#color-5)"/><path d="M238.81155,163.8485l-0.64519,1.8216l-1.8216,-0.64519l0.64519,-1.8216z" fill="url(#color-6)"/><path d="M236.34476,165.02492l0.64519,-1.8216l1.8216,0.64519l-0.64519,1.8216z" fill="url(#color-7)"/><path d="M238.16636,165.67011l-1.8216,-0.64519l0.64519,-1.8216l1.8216,0.64519z" fill="url(#color-8)"/></g><g><path d="M235.56301,160.21119l6.24067,2.21037l-2.21037,6.24067l-6.24067,-2.21037z" fill="url(#color-9)"/><path d="M241.80368,162.42156l-2.21037,6.24067l-6.24067,-2.21037l2.21037,-6.24067z" fill="url(#color-10)"/><path d="M239.5933,168.66224l-6.24067,-2.21037l2.21037,-6.24067l6.24067,2.21037z" fill="url(#color-11)"/><path d="M233.35264,166.45186l2.21037,-6.24067l6.24067,2.21037l-2.21037,6.24067z" fill="url(#color-12)"/></g></g></g></g></g></svg>