<svg version="1.1" xmlns="http://www.w3.org/2000/svg" xmlns:xlink="http://www.w3.org/1999/xlink" width="6.71788" height="18.19708" viewBox="0,0,6.71788,18.19708"><defs><linearGradient x1="244.33869" y1="193.63331" x2="240.58107" y2="194.42155" gradientUnits="userSpaceOnUse" id="color-1"><stop offset="0" stop-color="#ffffff"/><stop offset="1" stop-color="#ffffff" stop-opacity="0"/></linearGradient><linearGradient x1="239.76999" y1="194.59169" x2="237.64" y2="195.0385" gradientUnits="userSpaceOnUse" id="color-2"><stop offset="0" stop-color="#ffffff"/><stop offset="1" stop-color="#ffffff" stop-opacity="0"/></linearGradient><linearGradient x1="239.92657" y1="193.07028" x2="238.91313" y2="193.28287" gradientUnits="userSpaceOnUse" id="color-3"><stop offset="0" stop-color="#afd89a"/><stop offset="1" stop-color="#a3ca8f"/></linearGradient><linearGradient x1="237.83623" y1="193.77943" x2="236.82279" y2="193.99202" gradientUnits="userSpaceOnUse" id="color-4"><stop offset="0" stop-color="#afd89a"/><stop offset="1" stop-color="#a3ca8f"/></linearGradient><linearGradient x1="238.58463" y1="195.48015" x2="238.16236" y2="195.56873" gradientUnits="userSpaceOnUse" id="color-5"><stop offset="0" stop-color="#afd89a"/><stop offset="1" stop-color="#a3ca8f"/></linearGradient><linearGradient x1="240.74219" y1="195.43355" x2="239.72874" y2="195.64614" gradientUnits="userSpaceOnUse" id="color-6"><stop offset="0" stop-color="#afd89a"/><stop offset="1" stop-color="#a3ca8f"/></linearGradient><linearGradient x1="237.8794" y1="194.81611" x2="237.45714" y2="194.90468" gradientUnits="userSpaceOnUse" id="color-7"><stop offset="0" stop-color="#afd89a"/><stop offset="1" stop-color="#a3ca8f"/></linearGradient><linearGradient x1="238.0259" y1="196.33552" x2="237.60363" y2="196.4241" gradientUnits="userSpaceOnUse" id="color-8"><stop offset="0" stop-color="#afd89a"/><stop offset="1" stop-color="#a3ca8f"/></linearGradient></defs><g transform="translate(-234.8878,-179.57033)"><g data-paper-data="{&quot;isPaintingLayer&quot;:true}" fill-rule="nonzero" stroke-linejoin="miter" stroke-miterlimit="10" stroke-dasharray="" stroke-dashoffset="0" style="mix-blend-mode: normal"><path d="M237.09666,194.87033c0,0 -0.25499,-4.66207 0.23343,-7.0716c0.5106,-2.51894 2.76657,-7.7284 2.76657,-7.7284" fill="none" stroke="#000000" stroke-width="1" stroke-linecap="round"/><g stroke-width="0.5"><path d="M237.78072,192.80679c0,0 1.83028,-0.38394 2.37955,-0.49916c0.29091,-0.06102 0.74713,0.23972 0.8158,0.5671c0.10421,0.49679 0.41085,1.95857 0.60316,2.87534c0.09573,0.45637 -0.24481,0.86327 -0.55147,0.9276c-0.55403,0.11622 -2.33242,0.48927 -2.33242,0.48927z" fill="#afd89a" stroke="none" stroke-linecap="butt"/><path d="M237.78072,192.80679c0,0 1.88342,-0.39508 2.42669,-0.50905c0.27468,-0.05762 0.69999,0.24961 0.76867,0.57699c0.10693,0.50977 0.42701,2.03559 0.61799,2.94605c0.08779,0.41851 -0.34011,0.80944 -0.68414,0.88161c-0.56114,0.11771 -2.21458,0.46455 -2.21458,0.46455z" fill="url(#color-1)" stroke="none" stroke-linecap="butt"/><path d="M234.91823,193.40725l2.66993,-0.56007l0.91463,4.36015l-2.66993,0.56007l0.15473,-0.34617l-0.66892,-0.10038l0.50152,-0.34748l-0.28988,-0.09655l0.27798,-0.24037l-0.51121,-0.12154l0.48711,-0.31171l-0.35511,-0.19327l0.15631,-0.3241l-0.37208,-0.09641l0.50007,-0.50829l-0.50806,-0.15824l0.20191,-0.3382l-0.51942,-0.06726l0.45612,-0.39083l-0.36051,-0.11717l0.20894,-0.28071z" fill="#99be87" stroke="none" stroke-linecap="butt"/><path d="M235.2859,193.33013l2.30227,-0.48295l0.91463,4.36015l-2.30227,0.48295l0.15473,-0.34617l-0.66892,-0.10038l0.50152,-0.34748l-0.28988,-0.09655l0.27798,-0.24037l-0.51121,-0.12154l0.48711,-0.31171l-0.35511,-0.19327l0.15631,-0.3241l-0.37208,-0.09641l0.50007,-0.50829l-0.50806,-0.15824l0.20191,-0.3382l-0.51942,-0.06726l0.45612,-0.39083l-0.36051,-0.11717l0.20894,-0.28071z" fill="#afd89a" stroke="none" stroke-linecap="butt"/><path d="M234.91823,193.40725l2.66993,-0.56007l0.91463,4.36015l-2.66993,0.56007l0.15473,-0.34617l-0.66892,-0.10038l0.50152,-0.34748l-0.28988,-0.09655l0.27798,-0.24037l-0.51121,-0.12154l0.48711,-0.31171l-0.35511,-0.19327l0.15631,-0.3241l-0.37208,-0.09641l0.50007,-0.50829l-0.50806,-0.15824l0.20191,-0.3382l-0.51942,-0.06726l0.45612,-0.39083l-0.36051,-0.11717l0.20894,-0.28071z" fill="url(#color-2)" stroke="none" stroke-linecap="butt"/><path d="M235.27176,193.3331l2.66993,-0.56007l0.91463,4.36015l-2.66993,0.56007l0.15473,-0.34617l-0.66892,-0.10038l0.50152,-0.34748l-0.28988,-0.09655l0.27798,-0.24037l-0.51121,-0.12154l0.48711,-0.31171l-0.35511,-0.19327l0.15631,-0.3241l-0.37208,-0.09641l0.50007,-0.50829l-0.50806,-0.15824l0.20191,-0.3382l-0.51942,-0.06726l0.45612,-0.39083l-0.36051,-0.11717l0.20894,-0.28071z" fill="#a3ca8f" stroke="none" stroke-linecap="butt"/><path d="M235.63942,193.25597l2.30227,-0.48295l0.91463,4.36015l-2.30227,0.48295l0.15473,-0.34617l-0.66892,-0.10038l0.50152,-0.34748l-0.28988,-0.09655l0.27798,-0.24037l-0.51121,-0.12154l0.48711,-0.31171l-0.35511,-0.19327l0.15631,-0.3241l-0.37208,-0.09641l0.50007,-0.50829l-0.50806,-0.15824l0.20191,-0.3382l-0.51942,-0.06726l0.45612,-0.39083l-0.36051,-0.11717l0.20894,-0.28071z" fill="#afd89a" stroke="none" stroke-linecap="butt"/><path d="M239.92657,193.07028l-1.01344,0.21259" fill="none" stroke="url(#color-3)" stroke-linecap="round"/><path d="M236.82279,193.99202l1.01344,-0.21259" fill="none" stroke="url(#color-4)" stroke-linecap="round"/><path d="M238.16236,195.56873l0.42227,-0.08858" fill="none" stroke="url(#color-5)" stroke-linecap="round"/><path d="M240.74219,195.43355l-1.01344,0.21259" fill="none" stroke="url(#color-6)" stroke-linecap="round"/><path d="M237.8794,194.81611l-0.42227,0.08858" fill="none" stroke="url(#color-7)" stroke-linecap="round"/><path d="M237.60363,196.4241l0.42227,-0.08858" fill="none" stroke="url(#color-8)" stroke-linecap="round"/></g></g></g></svg>