<svg version="1.1" xmlns="http://www.w3.org/2000/svg" xmlns:xlink="http://www.w3.org/1999/xlink" width="41.20201" height="18.65849" viewBox="0,0,41.20201,18.65849"><defs><linearGradient x1="257.59022" y1="161.80402" x2="257.59022" y2="166.87942" gradientUnits="userSpaceOnUse" id="color-1"><stop offset="0" stop-color="#c7c7c7"/><stop offset="1" stop-color="#c7c7c7" stop-opacity="0"/></linearGradient><linearGradient x1="257.59022" y1="169.53414" x2="257.59022" y2="164.45874" gradientUnits="userSpaceOnUse" id="color-2"><stop offset="0" stop-color="#ffffff"/><stop offset="1" stop-color="#ffffff" stop-opacity="0"/></linearGradient><linearGradient x1="257.53452" y1="159.52942" x2="257.53452" y2="164.60481" gradientUnits="userSpaceOnUse" id="color-3"><stop offset="0" stop-color="#ffffff"/><stop offset="1" stop-color="#ffffff" stop-opacity="0"/></linearGradient><linearGradient x1="257.53452" y1="171.85537" x2="257.53452" y2="166.77997" gradientUnits="userSpaceOnUse" id="color-4"><stop offset="0" stop-color="#000000"/><stop offset="1" stop-color="#000000" stop-opacity="0"/></linearGradient><linearGradient x1="237.21225" y1="167.04292" x2="237.21225" y2="165.77566" gradientUnits="userSpaceOnUse" id="color-5"><stop offset="0" stop-color="#000000"/><stop offset="1" stop-color="#000000" stop-opacity="0"/></linearGradient><linearGradient x1="237.21225" y1="164.34187" x2="237.21225" y2="165.60914" gradientUnits="userSpaceOnUse" id="color-6"><stop offset="0" stop-color="#ffffff"/><stop offset="1" stop-color="#ffffff" stop-opacity="0"/></linearGradient><linearGradient x1="233.04587" y1="167.61378" x2="233.04587" y2="166.16368" gradientUnits="userSpaceOnUse" id="color-7"><stop offset="0" stop-color="#000000"/><stop offset="1" stop-color="#000000" stop-opacity="0"/></linearGradient><linearGradient x1="233.04587" y1="165.25736" x2="233.04587" y2="163.80725" gradientUnits="userSpaceOnUse" id="color-8"><stop offset="0" stop-color="#ffffff" stop-opacity="0"/><stop offset="1" stop-color="#ffffff"/></linearGradient><linearGradient x1="241.81673" y1="165.68713" x2="240.29411" y2="165.68713" gradientUnits="userSpaceOnUse" id="color-9"><stop offset="0" stop-color="#000000"/><stop offset="1" stop-color="#000000" stop-opacity="0"/></linearGradient><linearGradient x1="241.49102" y1="162.51687" x2="241.49102" y2="166.46989" gradientUnits="userSpaceOnUse" id="color-10"><stop offset="0" stop-color="#464646"/><stop offset="1" stop-color="#464646" stop-opacity="0"/></linearGradient><linearGradient x1="241.49102" y1="168.82671" x2="241.49102" y2="164.87369" gradientUnits="userSpaceOnUse" id="color-11"><stop offset="0" stop-color="#ffffff"/><stop offset="1" stop-color="#ffffff" stop-opacity="0"/></linearGradient><linearGradient x1="241.49102" y1="155.23108" x2="241.49102" y2="163.28725" gradientUnits="userSpaceOnUse" id="color-12"><stop offset="0" stop-color="#ffffff"/><stop offset="1" stop-color="#ffffff" stop-opacity="0"/></linearGradient><linearGradient x1="241.49102" y1="176.15369" x2="241.49102" y2="168.09752" gradientUnits="userSpaceOnUse" id="color-13"><stop offset="0" stop-color="#000000"/><stop offset="1" stop-color="#000000" stop-opacity="0"/></linearGradient></defs><g transform="translate(-232.29587,-161.6643)"><g data-paper-data="{&quot;isPaintingLayer&quot;:true}" fill-rule="nonzero" stroke-linejoin="miter" stroke-miterlimit="10" stroke-dasharray="" stroke-dashoffset="0" style="mix-blend-mode: normal"><g data-paper-data="{&quot;index&quot;:null}"><g><g stroke="none" stroke-width="0" stroke-linecap="butt"><path d="M241.57115,163.1547c0,0 20.44655,0 23.04467,0c0.5288,0 1.42214,0.14024 1.87483,0.27605c1.03153,0.30946 5.17141,1.55142 6.71397,2.0142c0.36381,0.10914 0.39168,0.23576 0.0693,0.33817c-1.52121,0.4832 -5.9574,1.89234 -6.94813,2.20704c-0.38202,0.12134 -1.11019,0.23993 -1.56498,0.23993c-2.43392,0 -23.18967,0 -23.18967,0z" fill="#bfbfbf"/><path d="M273.32963,165.66889c0,0 0.29451,-0.02878 -0.06931,0.08036c-1.54255,0.46277 -5.68244,1.70475 -6.71397,2.0142c-0.45269,0.13581 -1.34602,0.27605 -1.87483,0.27605c-2.59812,0 -23.04467,0 -23.04467,0v-2.36852z" data-paper-data="{&quot;index&quot;:null}" fill="url(#color-1)"/><path d="M241.62687,165.66718v-2.36852c0,0 20.44655,0 23.04467,0c0.5288,0 1.42214,0.14024 1.87483,0.27605c1.03153,0.30946 5.17141,1.55142 6.71397,2.0142c0.36381,0.10914 0.0693,0.08037 0.0693,0.08037z" fill="url(#color-2)"/><path d="M241.57113,163.1547c0,0 20.75576,0 23.18968,0c0.45478,0 1.18297,0.11858 1.56498,0.23993c0.99075,0.31471 5.42694,1.72385 6.94813,2.20705c0.32239,0.1024 0.29451,0.22902 -0.0693,0.33816c-1.54255,0.46277 -5.68244,1.70475 -6.71397,2.0142c-0.45269,0.13581 -1.34602,0.27605 -1.87483,0.27605c-2.59812,0 -23.04467,0 -23.04467,0z" data-paper-data="{&quot;index&quot;:null}" fill="url(#color-3)"/><path d="M241.57115,163.1547c0,0 20.44655,0 23.04467,0c0.5288,0 1.42214,0.14024 1.87483,0.27605c1.03153,0.30946 5.17141,1.55142 6.71397,2.0142c0.36381,0.10914 0.39168,0.23576 0.0693,0.33817c-1.52121,0.4832 -5.9574,1.89234 -6.94813,2.20704c-0.38202,0.12134 -1.11019,0.23993 -1.56498,0.23993c-2.43392,0 -23.18967,0 -23.18967,0z" fill="url(#color-4)"/></g><g fill="none" stroke-width="1" stroke-linecap="round"><path d="M241.09865,165.6924h-7.7728" stroke="#f7b577"/><path d="M241.09865,165.6924h-7.7728" data-paper-data="{&quot;index&quot;:null}" stroke="url(#color-5)"/><path d="M241.09865,165.6924h-7.7728" data-paper-data="{&quot;index&quot;:null}" stroke="url(#color-6)"/></g><path d="M233.04587,165.54002v0.30472" fill="none" stroke="#969696" stroke-width="1.5" stroke-linecap="round"/><path d="M233.04587,165.54002v0.30472" data-paper-data="{&quot;index&quot;:null}" fill="none" stroke="url(#color-7)" stroke-width="1.5" stroke-linecap="round"/><path d="M233.04587,165.54002v0.30472" data-paper-data="{&quot;index&quot;:null}" fill="none" stroke="url(#color-8)" stroke-width="1.5" stroke-linecap="round"/><g stroke="none" stroke-linecap="butt"><path d="M240.29411,165.12521h1.52263v1.12383h-1.52263z" fill="url(#color-9)" stroke-width="2"/><path d="M240.69712,161.6643h1.48233v8.05618h-1.48233z" fill="#a3a3a3" stroke-width="0"/><path d="M240.69712,165.67354h1.48233v3.95301h-1.48233z" data-paper-data="{&quot;index&quot;:null}" fill="url(#color-10)" stroke-width="0"/><path d="M240.69712,161.71705h1.48233v3.95301h-1.48233z" data-paper-data="{&quot;index&quot;:null}" fill="url(#color-11)" stroke-width="0"/><path d="M240.69712,161.6643h1.48233v8.05618h-1.48233z" data-paper-data="{&quot;index&quot;:null}" fill="url(#color-12)" stroke-width="0"/><path d="M240.69712,161.6643h1.48233v8.05618h-1.48233z" data-paper-data="{&quot;index&quot;:null}" fill="url(#color-13)" stroke-width="0"/></g></g><path d="M240.09667,179.82279c0,0 -2.25597,-5.20946 -2.76657,-7.7284c-0.48842,-2.40953 -0.23343,-7.0716 -0.23343,-7.0716" fill="none" stroke="#000000" stroke-width="1" stroke-linecap="round"/></g></g></g></svg>