<svg version="1.1" xmlns="http://www.w3.org/2000/svg" xmlns:xlink="http://www.w3.org/1999/xlink" width="184.78984" height="254.48067" viewBox="0,0,184.78984,254.48067"><defs><linearGradient x1="198.1667" y1="175.66669" x2="229.83335" y2="175.66669" gradientUnits="userSpaceOnUse" id="color-1"><stop offset="0" stop-color="#000000"/><stop offset="1" stop-color="#000000" stop-opacity="0"/></linearGradient><linearGradient x1="281.83333" y1="175.66669" x2="250.1667" y2="175.66669" gradientUnits="userSpaceOnUse" id="color-2"><stop offset="0" stop-color="#ffffff"/><stop offset="1" stop-color="#ffffff" stop-opacity="0"/></linearGradient><linearGradient x1="198.16669" y1="235.72675" x2="229.83334" y2="235.72675" gradientUnits="userSpaceOnUse" id="color-3"><stop offset="0" stop-color="#000000"/><stop offset="1" stop-color="#000000" stop-opacity="0"/></linearGradient><linearGradient x1="281.83333" y1="235.72675" x2="250.16669" y2="235.72675" gradientUnits="userSpaceOnUse" id="color-4"><stop offset="0" stop-color="#ffffff"/><stop offset="1" stop-color="#ffffff" stop-opacity="0"/></linearGradient><linearGradient x1="239.00003" y1="37.06884" x2="239.00003" y2="90.21383" gradientUnits="userSpaceOnUse" id="color-5"><stop offset="0" stop-color="#ffffff"/><stop offset="1" stop-color="#ffffff" stop-opacity="0"/></linearGradient><linearGradient x1="239.00003" y1="101.68503" x2="239.00003" y2="131.8101" gradientUnits="userSpaceOnUse" id="color-6"><stop offset="0" stop-color="#ffffff"/><stop offset="1" stop-color="#ffffff" stop-opacity="0"/></linearGradient><linearGradient x1="218.83423" y1="95.24035" x2="218.83423" y2="109.57369" gradientUnits="userSpaceOnUse" id="color-7"><stop offset="0" stop-color="#afd89a"/><stop offset="1" stop-color="#a3ca8f"/></linearGradient><linearGradient x1="222.50092" y1="125.57369" x2="222.50092" y2="139.90702" gradientUnits="userSpaceOnUse" id="color-8"><stop offset="0" stop-color="#afd89a"/><stop offset="1" stop-color="#a3ca8f"/></linearGradient><linearGradient x1="247.66759" y1="120.26813" x2="247.66759" y2="126.24036" gradientUnits="userSpaceOnUse" id="color-9"><stop offset="0" stop-color="#afd89a"/><stop offset="1" stop-color="#a3ca8f"/></linearGradient><linearGradient x1="253.16759" y1="90.90702" x2="253.16759" y2="105.24036" gradientUnits="userSpaceOnUse" id="color-10"><stop offset="0" stop-color="#afd89a"/><stop offset="1" stop-color="#a3ca8f"/></linearGradient><linearGradient x1="236.66759" y1="127.9348" x2="236.66759" y2="133.90702" gradientUnits="userSpaceOnUse" id="color-11"><stop offset="0" stop-color="#afd89a"/><stop offset="1" stop-color="#a3ca8f"/></linearGradient><linearGradient x1="257.66757" y1="130.26814" x2="257.66757" y2="136.24036" gradientUnits="userSpaceOnUse" id="color-12"><stop offset="0" stop-color="#afd89a"/><stop offset="1" stop-color="#a3ca8f"/></linearGradient><linearGradient x1="239.00001" y1="-26.6549" x2="239.00001" y2="26.49009" gradientUnits="userSpaceOnUse" id="color-13"><stop offset="0" stop-color="#ffffff"/><stop offset="1" stop-color="#ffffff" stop-opacity="0"/></linearGradient><linearGradient x1="239.00001" y1="37.96129" x2="239.00001" y2="68.08636" gradientUnits="userSpaceOnUse" id="color-14"><stop offset="0" stop-color="#ffffff"/><stop offset="1" stop-color="#ffffff" stop-opacity="0"/></linearGradient><linearGradient x1="218.83421" y1="31.51661" x2="218.83421" y2="45.84995" gradientUnits="userSpaceOnUse" id="color-15"><stop offset="0" stop-color="#afd89a"/><stop offset="1" stop-color="#a3ca8f"/></linearGradient><linearGradient x1="222.5009" y1="61.84995" x2="222.5009" y2="76.18328" gradientUnits="userSpaceOnUse" id="color-16"><stop offset="0" stop-color="#afd89a"/><stop offset="1" stop-color="#a3ca8f"/></linearGradient><linearGradient x1="247.66757" y1="56.54439" x2="247.66757" y2="62.51662" gradientUnits="userSpaceOnUse" id="color-17"><stop offset="0" stop-color="#afd89a"/><stop offset="1" stop-color="#a3ca8f"/></linearGradient><linearGradient x1="253.16757" y1="27.18328" x2="253.16757" y2="41.51662" gradientUnits="userSpaceOnUse" id="color-18"><stop offset="0" stop-color="#afd89a"/><stop offset="1" stop-color="#a3ca8f"/></linearGradient><linearGradient x1="236.66757" y1="64.21106" x2="236.66757" y2="70.18328" gradientUnits="userSpaceOnUse" id="color-19"><stop offset="0" stop-color="#afd89a"/><stop offset="1" stop-color="#a3ca8f"/></linearGradient><linearGradient x1="257.66755" y1="66.5444" x2="257.66755" y2="72.51662" gradientUnits="userSpaceOnUse" id="color-20"><stop offset="0" stop-color="#afd89a"/><stop offset="1" stop-color="#a3ca8f"/></linearGradient><linearGradient x1="300.56158" y1="36.73851" x2="300.56158" y2="89.8835" gradientUnits="userSpaceOnUse" id="color-21"><stop offset="0" stop-color="#ffffff"/><stop offset="1" stop-color="#ffffff" stop-opacity="0"/></linearGradient><linearGradient x1="300.56158" y1="101.3547" x2="300.56158" y2="131.47977" gradientUnits="userSpaceOnUse" id="color-22"><stop offset="0" stop-color="#ffffff"/><stop offset="1" stop-color="#ffffff" stop-opacity="0"/></linearGradient><linearGradient x1="280.39578" y1="94.91002" x2="280.39578" y2="109.24336" gradientUnits="userSpaceOnUse" id="color-23"><stop offset="0" stop-color="#afd89a"/><stop offset="1" stop-color="#a3ca8f"/></linearGradient><linearGradient x1="284.06247" y1="125.24336" x2="284.06247" y2="139.57669" gradientUnits="userSpaceOnUse" id="color-24"><stop offset="0" stop-color="#afd89a"/><stop offset="1" stop-color="#a3ca8f"/></linearGradient><linearGradient x1="309.22914" y1="119.9378" x2="309.22914" y2="125.91003" gradientUnits="userSpaceOnUse" id="color-25"><stop offset="0" stop-color="#afd89a"/><stop offset="1" stop-color="#a3ca8f"/></linearGradient><linearGradient x1="314.72914" y1="90.57669" x2="314.72914" y2="104.91003" gradientUnits="userSpaceOnUse" id="color-26"><stop offset="0" stop-color="#afd89a"/><stop offset="1" stop-color="#a3ca8f"/></linearGradient><linearGradient x1="298.22914" y1="127.60447" x2="298.22914" y2="133.57669" gradientUnits="userSpaceOnUse" id="color-27"><stop offset="0" stop-color="#afd89a"/><stop offset="1" stop-color="#a3ca8f"/></linearGradient><linearGradient x1="319.22912" y1="129.93781" x2="319.22912" y2="135.91003" gradientUnits="userSpaceOnUse" id="color-28"><stop offset="0" stop-color="#afd89a"/><stop offset="1" stop-color="#a3ca8f"/></linearGradient><linearGradient x1="300.56156" y1="-26.98524" x2="300.56156" y2="26.15975" gradientUnits="userSpaceOnUse" id="color-29"><stop offset="0" stop-color="#ffffff"/><stop offset="1" stop-color="#ffffff" stop-opacity="0"/></linearGradient><linearGradient x1="300.56156" y1="37.63095" x2="300.56156" y2="67.75602" gradientUnits="userSpaceOnUse" id="color-30"><stop offset="0" stop-color="#ffffff"/><stop offset="1" stop-color="#ffffff" stop-opacity="0"/></linearGradient><linearGradient x1="280.39576" y1="31.18627" x2="280.39576" y2="45.51961" gradientUnits="userSpaceOnUse" id="color-31"><stop offset="0" stop-color="#afd89a"/><stop offset="1" stop-color="#a3ca8f"/></linearGradient><linearGradient x1="284.06245" y1="61.51961" x2="284.06245" y2="75.85294" gradientUnits="userSpaceOnUse" id="color-32"><stop offset="0" stop-color="#afd89a"/><stop offset="1" stop-color="#a3ca8f"/></linearGradient><linearGradient x1="309.22912" y1="56.21405" x2="309.22912" y2="62.18628" gradientUnits="userSpaceOnUse" id="color-33"><stop offset="0" stop-color="#afd89a"/><stop offset="1" stop-color="#a3ca8f"/></linearGradient><linearGradient x1="314.72912" y1="26.85294" x2="314.72912" y2="41.18628" gradientUnits="userSpaceOnUse" id="color-34"><stop offset="0" stop-color="#afd89a"/><stop offset="1" stop-color="#a3ca8f"/></linearGradient><linearGradient x1="298.22912" y1="63.88072" x2="298.22912" y2="69.85294" gradientUnits="userSpaceOnUse" id="color-35"><stop offset="0" stop-color="#afd89a"/><stop offset="1" stop-color="#a3ca8f"/></linearGradient><linearGradient x1="319.2291" y1="66.21406" x2="319.2291" y2="72.18628" gradientUnits="userSpaceOnUse" id="color-36"><stop offset="0" stop-color="#afd89a"/><stop offset="1" stop-color="#a3ca8f"/></linearGradient><linearGradient x1="177.43846" y1="38.24001" x2="177.43846" y2="91.385" gradientUnits="userSpaceOnUse" id="color-37"><stop offset="0" stop-color="#ffffff"/><stop offset="1" stop-color="#ffffff" stop-opacity="0"/></linearGradient><linearGradient x1="177.43846" y1="102.8562" x2="177.43846" y2="132.98127" gradientUnits="userSpaceOnUse" id="color-38"><stop offset="0" stop-color="#ffffff"/><stop offset="1" stop-color="#ffffff" stop-opacity="0"/></linearGradient><linearGradient x1="157.27266" y1="96.41152" x2="157.27266" y2="110.74486" gradientUnits="userSpaceOnUse" id="color-39"><stop offset="0" stop-color="#afd89a"/><stop offset="1" stop-color="#a3ca8f"/></linearGradient><linearGradient x1="160.93935" y1="126.74486" x2="160.93935" y2="141.07819" gradientUnits="userSpaceOnUse" id="color-40"><stop offset="0" stop-color="#afd89a"/><stop offset="1" stop-color="#a3ca8f"/></linearGradient><linearGradient x1="186.10602" y1="121.4393" x2="186.10602" y2="127.41153" gradientUnits="userSpaceOnUse" id="color-41"><stop offset="0" stop-color="#afd89a"/><stop offset="1" stop-color="#a3ca8f"/></linearGradient><linearGradient x1="191.60602" y1="92.07819" x2="191.60602" y2="106.41153" gradientUnits="userSpaceOnUse" id="color-42"><stop offset="0" stop-color="#afd89a"/><stop offset="1" stop-color="#a3ca8f"/></linearGradient><linearGradient x1="175.10602" y1="129.10597" x2="175.10602" y2="135.07819" gradientUnits="userSpaceOnUse" id="color-43"><stop offset="0" stop-color="#afd89a"/><stop offset="1" stop-color="#a3ca8f"/></linearGradient><linearGradient x1="196.106" y1="131.43931" x2="196.106" y2="137.41153" gradientUnits="userSpaceOnUse" id="color-44"><stop offset="0" stop-color="#afd89a"/><stop offset="1" stop-color="#a3ca8f"/></linearGradient><linearGradient x1="177.43844" y1="-25.48374" x2="177.43844" y2="27.66125" gradientUnits="userSpaceOnUse" id="color-45"><stop offset="0" stop-color="#ffffff"/><stop offset="1" stop-color="#ffffff" stop-opacity="0"/></linearGradient><linearGradient x1="177.43844" y1="39.13245" x2="177.43844" y2="69.25752" gradientUnits="userSpaceOnUse" id="color-46"><stop offset="0" stop-color="#ffffff"/><stop offset="1" stop-color="#ffffff" stop-opacity="0"/></linearGradient><linearGradient x1="157.27264" y1="32.68777" x2="157.27264" y2="47.02111" gradientUnits="userSpaceOnUse" id="color-47"><stop offset="0" stop-color="#afd89a"/><stop offset="1" stop-color="#a3ca8f"/></linearGradient><linearGradient x1="160.93933" y1="63.02111" x2="160.93933" y2="77.35444" gradientUnits="userSpaceOnUse" id="color-48"><stop offset="0" stop-color="#afd89a"/><stop offset="1" stop-color="#a3ca8f"/></linearGradient><linearGradient x1="186.106" y1="57.71555" x2="186.106" y2="63.68778" gradientUnits="userSpaceOnUse" id="color-49"><stop offset="0" stop-color="#afd89a"/><stop offset="1" stop-color="#a3ca8f"/></linearGradient><linearGradient x1="191.606" y1="28.35444" x2="191.606" y2="42.68778" gradientUnits="userSpaceOnUse" id="color-50"><stop offset="0" stop-color="#afd89a"/><stop offset="1" stop-color="#a3ca8f"/></linearGradient><linearGradient x1="175.106" y1="65.38222" x2="175.106" y2="71.35444" gradientUnits="userSpaceOnUse" id="color-51"><stop offset="0" stop-color="#afd89a"/><stop offset="1" stop-color="#a3ca8f"/></linearGradient><linearGradient x1="196.10598" y1="67.71556" x2="196.10598" y2="73.68778" gradientUnits="userSpaceOnUse" id="color-52"><stop offset="0" stop-color="#afd89a"/><stop offset="1" stop-color="#a3ca8f"/></linearGradient></defs><g transform="translate(-147.60508,-16.41273)"><g data-paper-data="{&quot;isPaintingLayer&quot;:true}" fill-rule="nonzero" stroke-linejoin="miter" stroke-miterlimit="10" stroke-dasharray="" stroke-dashoffset="0" style="mix-blend-mode: normal"><g><g><path d="M224.1667,210.63337v-61.26667h31.66667v61.26667z" fill="#746040" stroke="none" stroke-width="0" stroke-linecap="butt"/><path d="M228.75002,174.33333v13.33333" fill="none" stroke="#5c4c32" stroke-width="3" stroke-linecap="round"/><path d="M242.25002,189.66668v6.66666" fill="none" stroke="#5c4c32" stroke-width="3" stroke-linecap="round"/><path d="M226.99735,205.73334v4.71667v-6.28334" fill="none" stroke="#5c4c32" stroke-width="3" stroke-linecap="round"/><path d="M227.13335,152.83333v-3.33333v9.83333" fill="none" stroke="#5c4c32" stroke-width="3" stroke-linecap="round"/><path d="M252.58334,161v13.33333" fill="none" stroke="#5c4c32" stroke-width="3" stroke-linecap="round"/><path d="M224.1667,210.63337v-61.26667h31.66667v61.26667z" fill="url(#color-1)" stroke="none" stroke-width="0" stroke-linecap="butt"/><path d="M224.1667,210.63337v-61.26667h31.66667v61.26667z" data-paper-data="{&quot;index&quot;:null}" fill="url(#color-2)" stroke="none" stroke-width="0" stroke-linecap="butt"/><g fill="none" stroke="#000000" stroke-width="0" stroke-linecap="butt"><path d="M209.16669,210.83333v-61.66667h61.66667v61.66667z"/><path d="M209.16669,210.83333v-61.66667h61.66667v61.66667z"/><path d="M270.83333,210.83333h-61.66667v-61.66667h61.66667z"/><path d="M270.83333,149.16667v61.66667h-61.66667v-61.66667z"/><path d="M209.16669,149.16667h61.66667v61.66667h-61.66667z"/></g></g><g><path d="M224.16669,270.69343v-61.26667h31.66667v61.26667z" fill="#746040" stroke="none" stroke-width="0" stroke-linecap="butt"/><path d="M228.75001,247.72672v-13.33333" fill="none" stroke="#5c4c32" stroke-width="3" stroke-linecap="round"/><path d="M242.25001,249.72674v6.66666" fill="none" stroke="#5c4c32" stroke-width="3" stroke-linecap="round"/><path d="M226.99734,264.22673v6.28334v-4.71667" fill="none" stroke="#5c4c32" stroke-width="3" stroke-linecap="round"/><path d="M227.13334,212.89339v-3.33333v9.83333" fill="none" stroke="#5c4c32" stroke-width="3" stroke-linecap="round"/><path d="M252.58333,234.39339v-13.33333" fill="none" stroke="#5c4c32" stroke-width="3" stroke-linecap="round"/><path d="M224.16669,270.69343v-61.26667h31.66667v61.26667z" fill="url(#color-3)" stroke="none" stroke-width="0" stroke-linecap="butt"/><path d="M224.16669,270.69343v-61.26667h31.66667v61.26667z" data-paper-data="{&quot;index&quot;:null}" fill="url(#color-4)" stroke="none" stroke-width="0" stroke-linecap="butt"/><g fill="none" stroke="#000000" stroke-width="0" stroke-linecap="butt"><path d="M209.16668,270.89339v-61.66667h61.66667v61.66667z"/><path d="M209.16668,270.89339v-61.66667h61.66667v61.66667z"/><path d="M270.83333,270.89339h-61.66667v-61.66667h61.66667z"/><path d="M270.83333,209.22673v61.66667h-61.66667v-61.66667z"/><path d="M209.16668,209.22673h61.66667v61.66667h-61.66667z"/></g></g><g><path d="M209.1667,123.56165c0,0 0,-25.88613 0,-33.65463c0,-4.11439 5.37074,-9.44021 10.0009,-9.44021c7.02625,0 27.70045,0 40.66666,0c6.4546,0 10.99911,5.76968 10.99911,10.10689c0,7.83572 0,32.98796 0,32.98796z" fill="#afd89a" stroke="none" stroke-width="0" stroke-linecap="butt"/><path d="M209.1667,123.56165c0,0 0,-26.63762 0,-34.32129c0,-3.88485 5.37074,-8.77355 10.0009,-8.77355c7.20979,0 28.7899,0 41.66665,0c5.91906,0 9.99912,6.90775 9.99912,11.77354c0,7.93633 0,31.3213 0,31.3213z" fill="url(#color-5)" stroke="none" stroke-width="0" stroke-linecap="butt"/><path d="M209.1667,164.04653v-37.7615h61.66667v37.7615l-4.24994,-3.07984l-3.26084,8.77674l-3.28216,-7.78168l-2.13183,3.65272l-2.46642,-4.44884l-3.09926,6.58002l-2.83847,-7.48474l-3.62738,4.26154l-3.94644,-3.03857l-2.36342,4.76659l-5.46484,-8.21893l-3.58754,6.43305l-4.00778,-3.69642l-2.38722,6.8455l-3.99836,-7.28977l-2.61186,4.55089l-3.20904,-3.62828z" fill="#99be87" stroke="none" stroke-width="0" stroke-linecap="butt"/><path d="M209.1667,158.84653v-32.5615h61.66667v32.5615l-4.24994,-3.07983l-3.26084,8.77673l-3.28216,-7.78167l-2.13183,3.65272l-2.46642,-4.44884l-3.09926,6.58002l-2.83847,-7.48474l-3.62738,4.26155l-3.94644,-3.03857l-2.36342,4.76659l-5.46484,-8.21893l-3.58754,6.43305l-4.00778,-3.69642l-2.38722,6.8455l-3.99836,-7.28977l-2.61186,4.55089l-3.20904,-3.62828z" fill="#afd89a" stroke="none" stroke-width="0" stroke-linecap="butt"/><path d="M209.1667,164.04653v-37.7615h61.66667v37.7615l-4.24994,-3.07984l-3.26084,8.77673l-3.28216,-7.78167l-2.13182,3.65272l-2.46642,-4.44884l-3.09926,6.58001l-2.83847,-7.48474l-3.62738,4.26155l-3.94644,-3.03857l-2.36341,4.76659l-5.46484,-8.21893l-3.58754,6.43305l-4.00778,-3.69642l-2.38722,6.8455l-3.99836,-7.28977l-2.61186,4.55089l-3.20904,-3.62828z" fill="url(#color-6)" stroke="none" stroke-width="0" stroke-linecap="butt"/><path d="M209.1667,159.04653v-37.7615h61.66667v37.7615l-4.24994,-3.07984l-3.26084,8.77674l-3.28216,-7.78168l-2.13183,3.65272l-2.46642,-4.44884l-3.09926,6.58002l-2.83847,-7.48474l-3.62738,4.26154l-3.94644,-3.03857l-2.36342,4.76659l-5.46484,-8.21893l-3.58754,6.43305l-4.00778,-3.69642l-2.38722,6.8455l-3.99836,-7.28977l-2.61186,4.55089l-3.20904,-3.62828z" fill="#a3ca8f" stroke="none" stroke-width="0" stroke-linecap="butt"/><path d="M209.1667,153.84653v-32.5615h61.66667v32.5615l-4.24994,-3.07983l-3.26084,8.77673l-3.28216,-7.78167l-2.13183,3.65272l-2.46642,-4.44884l-3.09926,6.58002l-2.83847,-7.48474l-3.62738,4.26155l-3.94644,-3.03857l-2.36342,4.76659l-5.46484,-8.21893l-3.58754,6.43305l-4.00778,-3.69642l-2.38722,6.8455l-3.99836,-7.28977l-2.61186,4.55089l-3.20904,-3.62828z" fill="#afd89a" stroke="none" stroke-width="0" stroke-linecap="butt"/><path d="M218.83423,95.24035v14.33334" fill="none" stroke="url(#color-7)" stroke-width="6" stroke-linecap="round"/><path d="M222.50092,125.57369v14.33334" fill="none" stroke="url(#color-8)" stroke-width="6" stroke-linecap="round"/><path d="M247.66759,126.24035v-5.97222" fill="none" stroke="url(#color-9)" stroke-width="6" stroke-linecap="round"/><path d="M253.16759,90.90702v14.33334" fill="none" stroke="url(#color-10)" stroke-width="6" stroke-linecap="round"/><path d="M236.66759,127.9348v5.97222" fill="none" stroke="url(#color-11)" stroke-width="6" stroke-linecap="round"/><path d="M257.66757,130.26814v5.97222" fill="none" stroke="url(#color-12)" stroke-width="6" stroke-linecap="round"/><g fill="none" stroke="#000000" stroke-width="0" stroke-linecap="butt"><path d="M209.16669,149.27176v-61.66667h61.66667v61.66667z"/><path d="M209.16669,149.27176v-61.66667h61.66667v61.66667z"/><path d="M270.83333,149.27176h-61.66667v-61.66667h61.66667z"/><path d="M270.83333,87.6051v61.66667h-61.66667v-61.66667z"/><path d="M209.16669,87.6051h61.66667v61.66667h-61.66667z"/></g></g><g><path d="M209.16668,59.83791c0,0 0,-25.88613 0,-33.65463c0,-4.11439 5.37074,-9.44021 10.0009,-9.44021c7.02625,0 27.70045,0 40.66666,0c6.4546,0 10.99911,5.76968 10.99911,10.10689c0,7.83572 0,32.98796 0,32.98796z" fill="#afd89a" stroke="none" stroke-width="0" stroke-linecap="butt"/><path d="M209.16668,59.83791c0,0 0,-26.63762 0,-34.32129c0,-3.88485 5.37074,-8.77355 10.0009,-8.77355c7.20979,0 28.7899,0 41.66665,0c5.91906,0 9.99912,6.90775 9.99912,11.77354c0,7.93633 0,31.3213 0,31.3213z" fill="url(#color-13)" stroke="none" stroke-width="0" stroke-linecap="butt"/><path d="M209.16668,100.32279v-37.7615h61.66667v37.7615l-4.24994,-3.07984l-3.26084,8.77674l-3.28216,-7.78168l-2.13183,3.65272l-2.46642,-4.44884l-3.09926,6.58002l-2.83847,-7.48474l-3.62738,4.26154l-3.94644,-3.03857l-2.36342,4.76659l-5.46484,-8.21893l-3.58754,6.43305l-4.00778,-3.69642l-2.38722,6.8455l-3.99836,-7.28977l-2.61186,4.55089l-3.20904,-3.62828z" fill="#99be87" stroke="none" stroke-width="0" stroke-linecap="butt"/><path d="M209.16668,95.12279v-32.5615h61.66667v32.5615l-4.24994,-3.07983l-3.26084,8.77673l-3.28216,-7.78167l-2.13183,3.65272l-2.46642,-4.44884l-3.09926,6.58002l-2.83847,-7.48474l-3.62738,4.26155l-3.94644,-3.03857l-2.36342,4.76659l-5.46484,-8.21893l-3.58754,6.43305l-4.00778,-3.69642l-2.38722,6.8455l-3.99836,-7.28977l-2.61186,4.55089l-3.20904,-3.62828z" fill="#afd89a" stroke="none" stroke-width="0" stroke-linecap="butt"/><path d="M209.16668,100.32279v-37.7615h61.66667v37.7615l-4.24994,-3.07984l-3.26084,8.77673l-3.28216,-7.78167l-2.13182,3.65272l-2.46642,-4.44884l-3.09926,6.58001l-2.83847,-7.48474l-3.62738,4.26155l-3.94644,-3.03857l-2.36341,4.76659l-5.46484,-8.21893l-3.58754,6.43305l-4.00778,-3.69642l-2.38722,6.8455l-3.99836,-7.28977l-2.61186,4.55089l-3.20904,-3.62828z" fill="url(#color-14)" stroke="none" stroke-width="0" stroke-linecap="butt"/><path d="M209.16668,95.32279v-37.7615h61.66667v37.7615l-4.24994,-3.07984l-3.26084,8.77674l-3.28216,-7.78168l-2.13183,3.65272l-2.46642,-4.44884l-3.09926,6.58002l-2.83847,-7.48474l-3.62738,4.26154l-3.94644,-3.03857l-2.36342,4.76659l-5.46484,-8.21893l-3.58754,6.43305l-4.00778,-3.69642l-2.38722,6.8455l-3.99836,-7.28977l-2.61186,4.55089l-3.20904,-3.62828z" fill="#a3ca8f" stroke="none" stroke-width="0" stroke-linecap="butt"/><path d="M209.16668,90.12279v-32.5615h61.66667v32.5615l-4.24994,-3.07983l-3.26084,8.77673l-3.28216,-7.78167l-2.13183,3.65272l-2.46642,-4.44884l-3.09926,6.58002l-2.83847,-7.48474l-3.62738,4.26155l-3.94644,-3.03857l-2.36342,4.76659l-5.46484,-8.21893l-3.58754,6.43305l-4.00778,-3.69642l-2.38722,6.8455l-3.99836,-7.28977l-2.61186,4.55089l-3.20904,-3.62828z" fill="#afd89a" stroke="none" stroke-width="0" stroke-linecap="butt"/><path d="M218.83421,31.51661v14.33334" fill="none" stroke="url(#color-15)" stroke-width="6" stroke-linecap="round"/><path d="M222.5009,61.84995v14.33334" fill="none" stroke="url(#color-16)" stroke-width="6" stroke-linecap="round"/><path d="M247.66757,62.51661v-5.97222" fill="none" stroke="url(#color-17)" stroke-width="6" stroke-linecap="round"/><path d="M253.16757,27.18328v14.33334" fill="none" stroke="url(#color-18)" stroke-width="6" stroke-linecap="round"/><path d="M236.66757,64.21106v5.97222" fill="none" stroke="url(#color-19)" stroke-width="6" stroke-linecap="round"/><path d="M257.66755,66.5444v5.97222" fill="none" stroke="url(#color-20)" stroke-width="6" stroke-linecap="round"/><g fill="none" stroke="#000000" stroke-width="0" stroke-linecap="butt"><path d="M209.16667,85.54802v-61.66667h61.66667v61.66667z"/><path d="M209.16667,85.54802v-61.66667h61.66667v61.66667z"/><path d="M270.83332,85.54802h-61.66667v-61.66667h61.66667z"/><path d="M270.83332,23.88136v61.66667h-61.66667v-61.66667z"/><path d="M209.16667,23.88136h61.66667v61.66667h-61.66667z"/></g></g><g><path d="M270.72825,123.23132c0,0 0,-25.88613 0,-33.65463c0,-4.11439 5.37074,-9.44021 10.0009,-9.44021c7.02625,0 27.70045,0 40.66666,0c6.4546,0 10.99911,5.76968 10.99911,10.10689c0,7.83572 0,32.98796 0,32.98796z" fill="#afd89a" stroke="none" stroke-width="0" stroke-linecap="butt"/><path d="M270.72825,123.23132c0,0 0,-26.63762 0,-34.32129c0,-3.88485 5.37074,-8.77355 10.0009,-8.77355c7.20979,0 28.7899,0 41.66665,0c5.91906,0 9.99912,6.90775 9.99912,11.77354c0,7.93633 0,31.3213 0,31.3213z" fill="url(#color-21)" stroke="none" stroke-width="0" stroke-linecap="butt"/><path d="M270.72825,163.7162v-37.7615h61.66667v37.7615l-4.24994,-3.07984l-3.26084,8.77674l-3.28216,-7.78168l-2.13183,3.65272l-2.46642,-4.44884l-3.09926,6.58002l-2.83847,-7.48474l-3.62738,4.26154l-3.94644,-3.03857l-2.36342,4.76659l-5.46484,-8.21893l-3.58754,6.43305l-4.00778,-3.69642l-2.38722,6.8455l-3.99836,-7.28977l-2.61186,4.55089l-3.20904,-3.62828z" fill="#99be87" stroke="none" stroke-width="0" stroke-linecap="butt"/><path d="M270.72825,158.5162v-32.5615h61.66667v32.5615l-4.24994,-3.07983l-3.26084,8.77673l-3.28216,-7.78167l-2.13183,3.65272l-2.46642,-4.44884l-3.09926,6.58002l-2.83847,-7.48474l-3.62738,4.26155l-3.94644,-3.03857l-2.36342,4.76659l-5.46484,-8.21893l-3.58754,6.43305l-4.00778,-3.69642l-2.38722,6.8455l-3.99836,-7.28977l-2.61186,4.55089l-3.20904,-3.62828z" fill="#afd89a" stroke="none" stroke-width="0" stroke-linecap="butt"/><path d="M270.72825,163.7162v-37.7615h61.66667v37.7615l-4.24994,-3.07984l-3.26084,8.77673l-3.28216,-7.78167l-2.13182,3.65272l-2.46642,-4.44884l-3.09926,6.58001l-2.83847,-7.48474l-3.62738,4.26155l-3.94644,-3.03857l-2.36341,4.76659l-5.46484,-8.21893l-3.58754,6.43305l-4.00778,-3.69642l-2.38722,6.8455l-3.99836,-7.28977l-2.61186,4.55089l-3.20904,-3.62828z" fill="url(#color-22)" stroke="none" stroke-width="0" stroke-linecap="butt"/><path d="M270.72825,158.7162v-37.7615h61.66667v37.7615l-4.24994,-3.07984l-3.26084,8.77674l-3.28216,-7.78168l-2.13183,3.65272l-2.46642,-4.44884l-3.09926,6.58002l-2.83847,-7.48474l-3.62738,4.26154l-3.94644,-3.03857l-2.36342,4.76659l-5.46484,-8.21893l-3.58754,6.43305l-4.00778,-3.69642l-2.38722,6.8455l-3.99836,-7.28977l-2.61186,4.55089l-3.20904,-3.62828z" fill="#a3ca8f" stroke="none" stroke-width="0" stroke-linecap="butt"/><path d="M270.72825,153.5162v-32.5615h61.66667v32.5615l-4.24994,-3.07983l-3.26084,8.77673l-3.28216,-7.78167l-2.13183,3.65272l-2.46642,-4.44884l-3.09926,6.58002l-2.83847,-7.48474l-3.62738,4.26155l-3.94644,-3.03857l-2.36342,4.76659l-5.46484,-8.21893l-3.58754,6.43305l-4.00778,-3.69642l-2.38722,6.8455l-3.99836,-7.28977l-2.61186,4.55089l-3.20904,-3.62828z" fill="#afd89a" stroke="none" stroke-width="0" stroke-linecap="butt"/><path d="M280.39578,94.91002v14.33334" fill="none" stroke="url(#color-23)" stroke-width="6" stroke-linecap="round"/><path d="M284.06247,125.24336v14.33334" fill="none" stroke="url(#color-24)" stroke-width="6" stroke-linecap="round"/><path d="M309.22914,125.91002v-5.97222" fill="none" stroke="url(#color-25)" stroke-width="6" stroke-linecap="round"/><path d="M314.72914,90.57669v14.33334" fill="none" stroke="url(#color-26)" stroke-width="6" stroke-linecap="round"/><path d="M298.22914,127.60447v5.97222" fill="none" stroke="url(#color-27)" stroke-width="6" stroke-linecap="round"/><path d="M319.22912,129.93781v5.97222" fill="none" stroke="url(#color-28)" stroke-width="6" stroke-linecap="round"/><g fill="none" stroke="#000000" stroke-width="0" stroke-linecap="butt"><path d="M270.72824,148.94143v-61.66667h61.66667v61.66667z"/><path d="M270.72824,148.94143v-61.66667h61.66667v61.66667z"/><path d="M332.39489,148.94143h-61.66667v-61.66667h61.66667z"/><path d="M332.39489,87.27477v61.66667h-61.66667v-61.66667z"/><path d="M270.72824,87.27477h61.66667v61.66667h-61.66667z"/></g></g><g><path d="M270.72823,59.50757c0,0 0,-25.88613 0,-33.65463c0,-4.11439 5.37074,-9.44021 10.0009,-9.44021c7.02625,0 27.70045,0 40.66666,0c6.4546,0 10.99911,5.76968 10.99911,10.10689c0,7.83572 0,32.98796 0,32.98796z" fill="#afd89a" stroke="none" stroke-width="0" stroke-linecap="butt"/><path d="M270.72823,59.50757c0,0 0,-26.63762 0,-34.32129c0,-3.88485 5.37074,-8.77355 10.0009,-8.77355c7.20979,0 28.7899,0 41.66665,0c5.91906,0 9.99912,6.90775 9.99912,11.77354c0,7.93633 0,31.3213 0,31.3213z" fill="url(#color-29)" stroke="none" stroke-width="0" stroke-linecap="butt"/><path d="M270.72823,99.99245v-37.7615h61.66667v37.7615l-4.24994,-3.07984l-3.26084,8.77674l-3.28216,-7.78168l-2.13183,3.65272l-2.46642,-4.44884l-3.09926,6.58002l-2.83847,-7.48474l-3.62738,4.26154l-3.94644,-3.03857l-2.36342,4.76659l-5.46484,-8.21893l-3.58754,6.43305l-4.00778,-3.69642l-2.38722,6.8455l-3.99836,-7.28977l-2.61186,4.55089l-3.20904,-3.62828z" fill="#99be87" stroke="none" stroke-width="0" stroke-linecap="butt"/><path d="M270.72823,94.79245v-32.5615h61.66667v32.5615l-4.24994,-3.07983l-3.26084,8.77673l-3.28216,-7.78167l-2.13183,3.65272l-2.46642,-4.44884l-3.09926,6.58002l-2.83847,-7.48474l-3.62738,4.26155l-3.94644,-3.03857l-2.36342,4.76659l-5.46484,-8.21893l-3.58754,6.43305l-4.00778,-3.69642l-2.38722,6.8455l-3.99836,-7.28977l-2.61186,4.55089l-3.20904,-3.62828z" fill="#afd89a" stroke="none" stroke-width="0" stroke-linecap="butt"/><path d="M270.72823,99.99245v-37.7615h61.66667v37.7615l-4.24994,-3.07984l-3.26084,8.77673l-3.28216,-7.78167l-2.13182,3.65272l-2.46642,-4.44884l-3.09926,6.58001l-2.83847,-7.48474l-3.62738,4.26155l-3.94644,-3.03857l-2.36341,4.76659l-5.46484,-8.21893l-3.58754,6.43305l-4.00778,-3.69642l-2.38722,6.8455l-3.99836,-7.28977l-2.61186,4.55089l-3.20904,-3.62828z" fill="url(#color-30)" stroke="none" stroke-width="0" stroke-linecap="butt"/><path d="M270.72823,94.99245v-37.7615h61.66667v37.7615l-4.24994,-3.07984l-3.26084,8.77674l-3.28216,-7.78168l-2.13183,3.65272l-2.46642,-4.44884l-3.09926,6.58002l-2.83847,-7.48474l-3.62738,4.26154l-3.94644,-3.03857l-2.36342,4.76659l-5.46484,-8.21893l-3.58754,6.43305l-4.00778,-3.69642l-2.38722,6.8455l-3.99836,-7.28977l-2.61186,4.55089l-3.20904,-3.62828z" fill="#a3ca8f" stroke="none" stroke-width="0" stroke-linecap="butt"/><path d="M270.72823,89.79245v-32.5615h61.66667v32.5615l-4.24994,-3.07983l-3.26084,8.77673l-3.28216,-7.78167l-2.13183,3.65272l-2.46642,-4.44884l-3.09926,6.58002l-2.83847,-7.48474l-3.62738,4.26155l-3.94644,-3.03857l-2.36342,4.76659l-5.46484,-8.21893l-3.58754,6.43305l-4.00778,-3.69642l-2.38722,6.8455l-3.99836,-7.28977l-2.61186,4.55089l-3.20904,-3.62828z" fill="#afd89a" stroke="none" stroke-width="0" stroke-linecap="butt"/><path d="M280.39576,31.18627v14.33334" fill="none" stroke="url(#color-31)" stroke-width="6" stroke-linecap="round"/><path d="M284.06245,61.51961v14.33334" fill="none" stroke="url(#color-32)" stroke-width="6" stroke-linecap="round"/><path d="M309.22912,62.18627v-5.97222" fill="none" stroke="url(#color-33)" stroke-width="6" stroke-linecap="round"/><path d="M314.72912,26.85294v14.33334" fill="none" stroke="url(#color-34)" stroke-width="6" stroke-linecap="round"/><path d="M298.22912,63.88072v5.97222" fill="none" stroke="url(#color-35)" stroke-width="6" stroke-linecap="round"/><path d="M319.2291,66.21406v5.97222" fill="none" stroke="url(#color-36)" stroke-width="6" stroke-linecap="round"/><g fill="none" stroke="#000000" stroke-width="0" stroke-linecap="butt"><path d="M270.72822,85.21768v-61.66667h61.66667v61.66667z"/><path d="M270.72822,85.21768v-61.66667h61.66667v61.66667z"/><path d="M332.39487,85.21768h-61.66667v-61.66667h61.66667z"/><path d="M332.39487,23.55102v61.66667h-61.66667v-61.66667z"/><path d="M270.72822,23.55102h61.66667v61.66667h-61.66667z"/></g></g><g><path d="M147.60513,124.73282c0,0 0,-25.88613 0,-33.65463c0,-4.11439 5.37074,-9.44021 10.0009,-9.44021c7.02625,0 27.70045,0 40.66666,0c6.4546,0 10.99911,5.76968 10.99911,10.10689c0,7.83572 0,32.98796 0,32.98796z" fill="#afd89a" stroke="none" stroke-width="0" stroke-linecap="butt"/><path d="M147.60513,124.73282c0,0 0,-26.63762 0,-34.32129c0,-3.88485 5.37074,-8.77355 10.0009,-8.77355c7.20979,0 28.7899,0 41.66665,0c5.91906,0 9.99912,6.90775 9.99912,11.77354c0,7.93633 0,31.3213 0,31.3213z" fill="url(#color-37)" stroke="none" stroke-width="0" stroke-linecap="butt"/><path d="M147.60513,165.2177v-37.7615h61.66667v37.7615l-4.24994,-3.07984l-3.26084,8.77674l-3.28216,-7.78168l-2.13183,3.65272l-2.46642,-4.44884l-3.09926,6.58002l-2.83847,-7.48474l-3.62738,4.26154l-3.94644,-3.03857l-2.36342,4.76659l-5.46484,-8.21893l-3.58754,6.43305l-4.00778,-3.69642l-2.38722,6.8455l-3.99836,-7.28977l-2.61186,4.55089l-3.20904,-3.62828z" fill="#99be87" stroke="none" stroke-width="0" stroke-linecap="butt"/><path d="M147.60513,160.0177v-32.5615h61.66667v32.5615l-4.24994,-3.07983l-3.26084,8.77673l-3.28216,-7.78167l-2.13183,3.65272l-2.46642,-4.44884l-3.09926,6.58002l-2.83847,-7.48474l-3.62738,4.26155l-3.94644,-3.03857l-2.36342,4.76659l-5.46484,-8.21893l-3.58754,6.43305l-4.00778,-3.69642l-2.38722,6.8455l-3.99836,-7.28977l-2.61186,4.55089l-3.20904,-3.62828z" fill="#afd89a" stroke="none" stroke-width="0" stroke-linecap="butt"/><path d="M147.60513,165.2177v-37.7615h61.66667v37.7615l-4.24994,-3.07984l-3.26084,8.77673l-3.28216,-7.78167l-2.13182,3.65272l-2.46642,-4.44884l-3.09926,6.58001l-2.83847,-7.48474l-3.62738,4.26155l-3.94644,-3.03857l-2.36341,4.76659l-5.46484,-8.21893l-3.58754,6.43305l-4.00778,-3.69642l-2.38722,6.8455l-3.99836,-7.28977l-2.61186,4.55089l-3.20904,-3.62828z" fill="url(#color-38)" stroke="none" stroke-width="0" stroke-linecap="butt"/><path d="M147.60513,160.2177v-37.7615h61.66667v37.7615l-4.24994,-3.07984l-3.26084,8.77674l-3.28216,-7.78168l-2.13183,3.65272l-2.46642,-4.44884l-3.09926,6.58002l-2.83847,-7.48474l-3.62738,4.26154l-3.94644,-3.03857l-2.36342,4.76659l-5.46484,-8.21893l-3.58754,6.43305l-4.00778,-3.69642l-2.38722,6.8455l-3.99836,-7.28977l-2.61186,4.55089l-3.20904,-3.62828z" fill="#a3ca8f" stroke="none" stroke-width="0" stroke-linecap="butt"/><path d="M147.60513,155.0177v-32.5615h61.66667v32.5615l-4.24994,-3.07983l-3.26084,8.77673l-3.28216,-7.78167l-2.13183,3.65272l-2.46642,-4.44884l-3.09926,6.58002l-2.83847,-7.48474l-3.62738,4.26155l-3.94644,-3.03857l-2.36342,4.76659l-5.46484,-8.21893l-3.58754,6.43305l-4.00778,-3.69642l-2.38722,6.8455l-3.99836,-7.28977l-2.61186,4.55089l-3.20904,-3.62828z" fill="#afd89a" stroke="none" stroke-width="0" stroke-linecap="butt"/><path d="M157.27266,96.41152v14.33334" fill="none" stroke="url(#color-39)" stroke-width="6" stroke-linecap="round"/><path d="M160.93935,126.74486v14.33334" fill="none" stroke="url(#color-40)" stroke-width="6" stroke-linecap="round"/><path d="M186.10602,127.41152v-5.97222" fill="none" stroke="url(#color-41)" stroke-width="6" stroke-linecap="round"/><path d="M191.60602,92.07819v14.33334" fill="none" stroke="url(#color-42)" stroke-width="6" stroke-linecap="round"/><path d="M175.10602,129.10597v5.97222" fill="none" stroke="url(#color-43)" stroke-width="6" stroke-linecap="round"/><path d="M196.106,131.43931v5.97222" fill="none" stroke="url(#color-44)" stroke-width="6" stroke-linecap="round"/><g fill="none" stroke="#000000" stroke-width="0" stroke-linecap="butt"><path d="M147.60512,150.44293v-61.66667h61.66667v61.66667z"/><path d="M147.60512,150.44293v-61.66667h61.66667v61.66667z"/><path d="M209.27177,150.44293h-61.66667v-61.66667h61.66667z"/><path d="M209.27177,88.77627v61.66667h-61.66667v-61.66667z"/><path d="M147.60512,88.77627h61.66667v61.66667h-61.66667z"/></g></g><g><path d="M147.60511,61.00907c0,0 0,-25.88613 0,-33.65463c0,-4.11439 5.37074,-9.44021 10.0009,-9.44021c7.02625,0 27.70045,0 40.66666,0c6.4546,0 10.99911,5.76968 10.99911,10.10689c0,7.83572 0,32.98796 0,32.98796z" fill="#afd89a" stroke="none" stroke-width="0" stroke-linecap="butt"/><path d="M147.60511,61.00907c0,0 0,-26.63762 0,-34.32129c0,-3.88485 5.37074,-8.77355 10.0009,-8.77355c7.20979,0 28.7899,0 41.66665,0c5.91906,0 9.99912,6.90775 9.99912,11.77354c0,7.93633 0,31.3213 0,31.3213z" fill="url(#color-45)" stroke="none" stroke-width="0" stroke-linecap="butt"/><path d="M147.60511,101.49395v-37.7615h61.66667v37.7615l-4.24994,-3.07984l-3.26084,8.77674l-3.28216,-7.78168l-2.13183,3.65272l-2.46642,-4.44884l-3.09926,6.58002l-2.83847,-7.48474l-3.62738,4.26154l-3.94644,-3.03857l-2.36342,4.76659l-5.46484,-8.21893l-3.58754,6.43305l-4.00778,-3.69642l-2.38722,6.8455l-3.99836,-7.28977l-2.61186,4.55089l-3.20904,-3.62828z" fill="#99be87" stroke="none" stroke-width="0" stroke-linecap="butt"/><path d="M147.60511,96.29395v-32.5615h61.66667v32.5615l-4.24994,-3.07983l-3.26084,8.77673l-3.28216,-7.78167l-2.13183,3.65272l-2.46642,-4.44884l-3.09926,6.58002l-2.83847,-7.48474l-3.62738,4.26155l-3.94644,-3.03857l-2.36342,4.76659l-5.46484,-8.21893l-3.58754,6.43305l-4.00778,-3.69642l-2.38722,6.8455l-3.99836,-7.28977l-2.61186,4.55089l-3.20904,-3.62828z" fill="#afd89a" stroke="none" stroke-width="0" stroke-linecap="butt"/><path d="M147.60511,101.49395v-37.7615h61.66667v37.7615l-4.24994,-3.07984l-3.26084,8.77673l-3.28216,-7.78167l-2.13182,3.65272l-2.46642,-4.44884l-3.09926,6.58001l-2.83847,-7.48474l-3.62738,4.26155l-3.94644,-3.03857l-2.36341,4.76659l-5.46484,-8.21893l-3.58754,6.43305l-4.00778,-3.69642l-2.38722,6.8455l-3.99836,-7.28977l-2.61186,4.55089l-3.20904,-3.62828z" fill="url(#color-46)" stroke="none" stroke-width="0" stroke-linecap="butt"/><path d="M147.60511,96.49395v-37.7615h61.66667v37.7615l-4.24994,-3.07984l-3.26084,8.77674l-3.28216,-7.78168l-2.13183,3.65272l-2.46642,-4.44884l-3.09926,6.58002l-2.83847,-7.48474l-3.62738,4.26154l-3.94644,-3.03857l-2.36342,4.76659l-5.46484,-8.21893l-3.58754,6.43305l-4.00778,-3.69642l-2.38722,6.8455l-3.99836,-7.28977l-2.61186,4.55089l-3.20904,-3.62828z" fill="#a3ca8f" stroke="none" stroke-width="0" stroke-linecap="butt"/><path d="M147.60511,91.29395v-32.5615h61.66667v32.5615l-4.24994,-3.07983l-3.26084,8.77673l-3.28216,-7.78167l-2.13183,3.65272l-2.46642,-4.44884l-3.09926,6.58002l-2.83847,-7.48474l-3.62738,4.26155l-3.94644,-3.03857l-2.36342,4.76659l-5.46484,-8.21893l-3.58754,6.43305l-4.00778,-3.69642l-2.38722,6.8455l-3.99836,-7.28977l-2.61186,4.55089l-3.20904,-3.62828z" fill="#afd89a" stroke="none" stroke-width="0" stroke-linecap="butt"/><path d="M157.27264,32.68777v14.33334" fill="none" stroke="url(#color-47)" stroke-width="6" stroke-linecap="round"/><path d="M160.93933,63.02111v14.33334" fill="none" stroke="url(#color-48)" stroke-width="6" stroke-linecap="round"/><path d="M186.106,63.68777v-5.97222" fill="none" stroke="url(#color-49)" stroke-width="6" stroke-linecap="round"/><path d="M191.606,28.35444v14.33334" fill="none" stroke="url(#color-50)" stroke-width="6" stroke-linecap="round"/><path d="M175.106,65.38222v5.97222" fill="none" stroke="url(#color-51)" stroke-width="6" stroke-linecap="round"/><path d="M196.10598,67.71556v5.97222" fill="none" stroke="url(#color-52)" stroke-width="6" stroke-linecap="round"/><g fill="none" stroke="#000000" stroke-width="0" stroke-linecap="butt"><path d="M147.6051,86.71918v-61.66667h61.66667v61.66667z"/><path d="M147.6051,86.71918v-61.66667h61.66667v61.66667z"/><path d="M209.27175,86.71918h-61.66667v-61.66667h61.66667z"/><path d="M209.27175,25.05252v61.66667h-61.66667v-61.66667z"/><path d="M147.6051,25.05252h61.66667v61.66667h-61.66667z"/></g></g></g></g></g></svg>