<svg version="1.1" xmlns="http://www.w3.org/2000/svg" xmlns:xlink="http://www.w3.org/1999/xlink" width="7.49093" height="19.23499" viewBox="0,0,7.49093,19.23499"><defs><linearGradient x1="234.31644" y1="188.30124" x2="237.10487" y2="192.99188" gradientUnits="userSpaceOnUse" id="color-1"><stop offset="0" stop-color="#000000"/><stop offset="1" stop-color="#000000" stop-opacity="0"/></linearGradient><linearGradient x1="230.9212" y1="198.43508" x2="235.61184" y2="195.64665" gradientUnits="userSpaceOnUse" id="color-2"><stop offset="0" stop-color="#000000"/><stop offset="1" stop-color="#000000" stop-opacity="0"/></linearGradient><linearGradient x1="241.05504" y1="201.83031" x2="238.26661" y2="197.13967" gradientUnits="userSpaceOnUse" id="color-3"><stop offset="0" stop-color="#ffffff"/><stop offset="1" stop-color="#ffffff" stop-opacity="0"/></linearGradient><linearGradient x1="244.45028" y1="191.69647" x2="239.75963" y2="194.4849" gradientUnits="userSpaceOnUse" id="color-4"><stop offset="0" stop-color="#ffffff"/><stop offset="1" stop-color="#ffffff" stop-opacity="0"/></linearGradient><linearGradient x1="235.77343" y1="191.22644" x2="237.35606" y2="193.8887" gradientUnits="userSpaceOnUse" id="color-5"><stop offset="0" stop-color="#000000"/><stop offset="1" stop-color="#000000" stop-opacity="0"/></linearGradient><linearGradient x1="233.84641" y1="196.97808" x2="236.50866" y2="195.39546" gradientUnits="userSpaceOnUse" id="color-6"><stop offset="0" stop-color="#000000"/><stop offset="1" stop-color="#000000" stop-opacity="0"/></linearGradient><linearGradient x1="241.52507" y1="193.15347" x2="238.86281" y2="194.73609" gradientUnits="userSpaceOnUse" id="color-7"><stop offset="0" stop-color="#000000"/><stop offset="1" stop-color="#000000" stop-opacity="0"/></linearGradient><linearGradient x1="239.59805" y1="198.90511" x2="238.01542" y2="196.24285" gradientUnits="userSpaceOnUse" id="color-8"><stop offset="0" stop-color="#000000"/><stop offset="1" stop-color="#000000" stop-opacity="0"/></linearGradient><linearGradient x1="236.70227" y1="193.09126" x2="237.51619" y2="194.46042" gradientUnits="userSpaceOnUse" id="color-9"><stop offset="0" stop-color="#000000"/><stop offset="1" stop-color="#000000" stop-opacity="0"/></linearGradient><linearGradient x1="235.71122" y1="196.04925" x2="237.08039" y2="195.23533" gradientUnits="userSpaceOnUse" id="color-10"><stop offset="0" stop-color="#000000"/><stop offset="1" stop-color="#000000" stop-opacity="0"/></linearGradient><linearGradient x1="239.66025" y1="194.08231" x2="238.29109" y2="194.89623" gradientUnits="userSpaceOnUse" id="color-11"><stop offset="0" stop-color="#ffffff"/><stop offset="1" stop-color="#ffffff" stop-opacity="0"/></linearGradient><linearGradient x1="238.66921" y1="197.04029" x2="237.85529" y2="195.67113" gradientUnits="userSpaceOnUse" id="color-12"><stop offset="0" stop-color="#ffffff"/><stop offset="1" stop-color="#ffffff" stop-opacity="0"/></linearGradient><linearGradient x1="239.67356" y1="193.88408" x2="237.94689" y2="194.91053" gradientUnits="userSpaceOnUse" id="color-13"><stop offset="0" stop-color="#000000"/><stop offset="1" stop-color="#000000" stop-opacity="0"/></linearGradient><linearGradient x1="238.72226" y1="194.49077" x2="236.43081" y2="195.85297" gradientUnits="userSpaceOnUse" id="color-14"><stop offset="0" stop-color="#000000" stop-opacity="0"/><stop offset="1" stop-color="#000000"/></linearGradient><linearGradient x1="241.86887" y1="192.4761" x2="239.57743" y2="193.83828" gradientUnits="userSpaceOnUse" id="color-15"><stop offset="0" stop-color="#ffffff"/><stop offset="1" stop-color="#ffffff" stop-opacity="0"/></linearGradient></defs><g transform="translate(-233.9462,-179.57033)"><g data-paper-data="{&quot;isPaintingLayer&quot;:true}" fill-rule="nonzero" stroke-linejoin="miter" stroke-miterlimit="10" stroke-dasharray="" stroke-dashoffset="0" style="mix-blend-mode: normal"><path d="M237.09666,194.87033c0,0 -0.25499,-4.66207 0.23343,-7.0716c0.5106,-2.51894 2.76657,-7.7284 2.76657,-7.7284" fill="none" stroke="#000000" stroke-width="1" stroke-linecap="round"/><g stroke="none" stroke-width="0" stroke-linecap="butt"><g><path d="M233.94621,194.11467l4.69064,-2.78843l2.78843,4.69064l-4.69064,2.78843z" fill="#806947"/><path d="M233.94621,194.11467l4.69064,-2.78843l2.78843,4.69064l-4.69064,2.78843z" fill="url(#color-1)"/><path d="M236.73463,198.80531l-2.78843,-4.69064l4.69064,-2.78843l2.78843,4.69064z" fill="url(#color-2)"/><path d="M241.42527,196.01689l-4.69064,2.78843l-2.78843,-4.69064l4.69064,-2.78843z" fill="url(#color-3)"/><path d="M238.63685,191.32623l2.78843,4.69064l-4.69064,2.78843l-2.78843,-4.69064z" fill="url(#color-4)"/></g><g><path d="M235.5633,194.52595l2.66226,-1.58262l1.58262,2.66226l-2.66226,1.58262z" fill="#806947"/><path d="M235.5633,194.52595l2.66226,-1.58262l1.58262,2.66226l-2.66226,1.58262z" fill="url(#color-5)"/><path d="M237.14592,197.18821l-1.58262,-2.66226l2.66226,-1.58262l1.58262,2.66226z" fill="url(#color-6)"/><path d="M238.22556,192.94333l1.58262,2.66226l-2.66226,1.58262l-1.58262,-2.66226z" fill="url(#color-7)"/><path d="M239.80817,195.60559l-2.66226,1.58262l-1.58262,-2.66226l2.66226,-1.58262z" fill="url(#color-8)"/></g><g><path d="M236.5942,194.78816l1.36916,-0.81392l0.81392,1.36916l-1.36916,0.81392z" fill="#806947"/><path d="M236.5942,194.78816l1.36916,-0.81392l0.81392,1.36916l-1.36916,0.81392z" fill="url(#color-9)"/><path d="M237.40812,196.15732l-0.81392,-1.36916l1.36916,-0.81392l0.81392,1.36916z" fill="url(#color-10)"/><path d="M237.96336,193.97424l0.81392,1.36916l-1.36916,0.81392l-0.81392,-1.36916z" fill="url(#color-11)"/><path d="M238.77728,195.3434l-1.36916,0.81392l-0.81392,-1.36916l1.36916,-0.81392z" fill="url(#color-12)"/></g><path d="M236.55079,192.56203l1.72667,-1.02644l2.7922,4.69699l-1.72667,1.02644z" fill="url(#color-13)"/><g><path d="M236.79058,192.42378l1.85812,-1.10458l2.78843,4.69064l-1.85812,1.10458l0.04209,-0.46254l-0.81504,0.14883l0.44349,-0.60153l-0.37424,0.00301l0.22687,-0.38877l-0.64064,0.06179l0.44097,-0.55435l-0.48818,-0.08321l0.05268,-0.43758l-0.46944,0.03576l0.37806,-0.78733l-0.65154,0.018l0.09995,-0.472l-0.62864,0.12795l0.37369,-0.63376l-0.46426,0.00711l0.13087,-0.40815z" fill="#99be87"/><path d="M237.18611,192.18865l1.46259,-0.86945l2.78843,4.69064l-1.46259,0.86945l0.04209,-0.46254l-0.81504,0.14883l0.44349,-0.60153l-0.37424,0.00301l0.22687,-0.38877l-0.64064,0.06179l0.44097,-0.55435l-0.48818,-0.08321l0.05268,-0.43758l-0.46944,0.03576l0.37806,-0.78733l-0.65154,0.018l0.09995,-0.472l-0.62864,0.12795l0.37369,-0.63376l-0.46426,0.00711l0.13087,-0.40815z" fill="#afd89a"/><path d="M236.79058,192.42378l1.85812,-1.10458l2.78843,4.69064l-1.85812,1.10458l0.04209,-0.46254l-0.81504,0.14883l0.44349,-0.60153l-0.37424,0.00301l0.22687,-0.38877l-0.64064,0.06179l0.44097,-0.55435l-0.48818,-0.08321l0.05268,-0.43758l-0.46944,0.03576l0.37806,-0.78733l-0.65154,0.018l0.09995,-0.472l-0.62864,0.12795l0.37369,-0.63376l-0.46426,0.00711l0.13087,-0.40815z" fill="url(#color-14)"/><path d="M236.79058,192.42378l1.85812,-1.10458l2.78843,4.69064l-1.85812,1.10458l0.04209,-0.46254l-0.81504,0.14883l0.44349,-0.60153l-0.37424,0.00301l0.22687,-0.38877l-0.64064,0.06179l0.44097,-0.55435l-0.48818,-0.08321l0.05268,-0.43758l-0.46944,0.03576l0.37806,-0.78733l-0.65154,0.018l0.09995,-0.472l-0.62864,0.12795l0.37369,-0.63376l-0.46426,0.00711l0.13087,-0.40815z" fill="url(#color-15)"/></g></g></g></g></svg>