<svg version="1.1" xmlns="http://www.w3.org/2000/svg" xmlns:xlink="http://www.w3.org/1999/xlink" width="9.21367" height="18.50263" viewBox="0,0,9.21367,18.50263"><defs><linearGradient x1="237.12189" y1="170.951" x2="238.40068" y2="166.84973" gradientUnits="userSpaceOnUse" id="color-1"><stop offset="0" stop-color="#000000"/><stop offset="1" stop-color="#000000" stop-opacity="0"/></linearGradient><linearGradient x1="240.50058" y1="160.11502" x2="239.22179" y2="164.21629" gradientUnits="userSpaceOnUse" id="color-2"><stop offset="0" stop-color="#ffffff"/><stop offset="1" stop-color="#ffffff" stop-opacity="0"/></linearGradient></defs><g transform="translate(-233.64317,-162.07033)"><g data-paper-data="{&quot;isPaintingLayer&quot;:true}" fill-rule="nonzero" stroke-linejoin="miter" stroke-miterlimit="10" stroke-dasharray="" stroke-dashoffset="0" style="mix-blend-mode: normal"><path d="M240.09667,180.07296c0,0 -2.25597,-5.20946 -2.76657,-7.7284c-0.48842,-2.40953 -0.23343,-7.0716 -0.23343,-7.0716" data-paper-data="{&quot;index&quot;:null}" fill="none" stroke="#000000" stroke-width="1" stroke-linecap="round"/><g data-paper-data="{&quot;index&quot;:null}" stroke-width="0.5"><path d="M234.92197,162.07033l7.93488,2.47412l-1.27879,4.10127l-7.93488,-2.47412z" fill="#746040" stroke="none" stroke-linecap="butt"/><path d="M236.80277,166.50545l1.72685,0.53844" fill="none" stroke="#5c4c32" stroke-linecap="round"/><path d="M236.22548,164.40703l0.86342,0.26922" fill="none" stroke="#5c4c32" stroke-linecap="round"/><path d="M234.59502,166.06613l-0.81378,-0.25374l0.61088,0.19047" fill="none" stroke="#5c4c32" stroke-linecap="round"/><path d="M241.24888,168.1215l0.43171,0.13461l-1.27355,-0.3971" fill="none" stroke="#5c4c32" stroke-linecap="round"/><path d="M241.21892,164.49558l-1.72685,-0.53844" fill="none" stroke="#5c4c32" stroke-linecap="round"/><path d="M234.92197,162.07033l7.93488,2.47412l-1.27879,4.10127l-7.93488,-2.47412z" fill="url(#color-1)" stroke="none" stroke-linecap="butt"/><path d="M234.92197,162.07033l7.93488,2.47412l-1.27879,4.10127l-7.93488,-2.47412z" data-paper-data="{&quot;index&quot;:null}" fill="url(#color-2)" stroke="none" stroke-linecap="butt"/></g></g></g></svg>