<svg version="1.1" xmlns="http://www.w3.org/2000/svg" xmlns:xlink="http://www.w3.org/1999/xlink" width="8.81452" height="18.77693" viewBox="0,0,8.81452,18.77693"><defs><linearGradient x1="239.43671" y1="168.16571" x2="239.2745" y2="168.59544" gradientUnits="userSpaceOnUse" id="color-1"><stop offset="0" stop-color="#000000"/><stop offset="1" stop-color="#000000" stop-opacity="0"/></linearGradient><linearGradient x1="239.38094" y1="169.50079" x2="239.54315" y2="169.07105" gradientUnits="userSpaceOnUse" id="color-2"><stop offset="0" stop-color="#000000"/><stop offset="1" stop-color="#000000" stop-opacity="0"/></linearGradient><linearGradient x1="237.27724" y1="169.15015" x2="237.70699" y2="169.31236" gradientUnits="userSpaceOnUse" id="color-3"><stop offset="0" stop-color="#000000"/><stop offset="1" stop-color="#000000" stop-opacity="0"/></linearGradient><linearGradient x1="238.56424" y1="169.33332" x2="238.13451" y2="169.17111" gradientUnits="userSpaceOnUse" id="color-4"><stop offset="0" stop-color="#000000"/><stop offset="1" stop-color="#000000" stop-opacity="0"/></linearGradient><linearGradient x1="235.86823" y1="166.8196" x2="235.70602" y2="167.24934" gradientUnits="userSpaceOnUse" id="color-5"><stop offset="0" stop-color="#000000"/><stop offset="1" stop-color="#000000" stop-opacity="0"/></linearGradient><linearGradient x1="236.27359" y1="168.32875" x2="236.4358" y2="167.89901" gradientUnits="userSpaceOnUse" id="color-6"><stop offset="0" stop-color="#000000"/><stop offset="1" stop-color="#000000" stop-opacity="0"/></linearGradient><linearGradient x1="238.44139" y1="167.78295" x2="238.27917" y2="168.21269" gradientUnits="userSpaceOnUse" id="color-7"><stop offset="0" stop-color="#000000"/><stop offset="1" stop-color="#000000" stop-opacity="0"/></linearGradient><linearGradient x1="235.35357" y1="167.98059" x2="235.51578" y2="167.55085" gradientUnits="userSpaceOnUse" id="color-8"><stop offset="0" stop-color="#000000"/><stop offset="1" stop-color="#000000" stop-opacity="0"/></linearGradient><linearGradient x1="235.30084" y1="166.46174" x2="235.73058" y2="166.62395" gradientUnits="userSpaceOnUse" id="color-9"><stop offset="0" stop-color="#000000"/><stop offset="1" stop-color="#000000" stop-opacity="0"/></linearGradient><linearGradient x1="236.58784" y1="166.64491" x2="236.15809" y2="166.4827" gradientUnits="userSpaceOnUse" id="color-10"><stop offset="0" stop-color="#000000"/><stop offset="1" stop-color="#000000" stop-opacity="0"/></linearGradient><linearGradient x1="237.37833" y1="165.44723" x2="237.21612" y2="165.87697" gradientUnits="userSpaceOnUse" id="color-11"><stop offset="0" stop-color="#000000"/><stop offset="1" stop-color="#000000" stop-opacity="0"/></linearGradient><linearGradient x1="238.23584" y1="167.12705" x2="238.39805" y2="166.69731" gradientUnits="userSpaceOnUse" id="color-12"><stop offset="0" stop-color="#000000"/><stop offset="1" stop-color="#000000" stop-opacity="0"/></linearGradient><linearGradient x1="236.43113" y1="165.10649" x2="236.26892" y2="165.53623" gradientUnits="userSpaceOnUse" id="color-13"><stop offset="0" stop-color="#000000"/><stop offset="1" stop-color="#000000" stop-opacity="0"/></linearGradient><linearGradient x1="238.8665" y1="167.3512" x2="239.02871" y2="166.92146" gradientUnits="userSpaceOnUse" id="color-14"><stop offset="0" stop-color="#000000"/><stop offset="1" stop-color="#000000" stop-opacity="0"/></linearGradient><linearGradient x1="238.7985" y1="165.83949" x2="239.22824" y2="166.0017" gradientUnits="userSpaceOnUse" id="color-15"><stop offset="0" stop-color="#000000"/><stop offset="1" stop-color="#000000" stop-opacity="0"/></linearGradient><linearGradient x1="240.0855" y1="166.02266" x2="239.65576" y2="165.86045" gradientUnits="userSpaceOnUse" id="color-16"><stop offset="0" stop-color="#000000"/><stop offset="1" stop-color="#000000" stop-opacity="0"/></linearGradient><linearGradient x1="238.03448" y1="163.73712" x2="237.87226" y2="164.16686" gradientUnits="userSpaceOnUse" id="color-17"><stop offset="0" stop-color="#000000"/><stop offset="1" stop-color="#000000" stop-opacity="0"/></linearGradient><linearGradient x1="238.89198" y1="165.41693" x2="239.05419" y2="164.98719" gradientUnits="userSpaceOnUse" id="color-18"><stop offset="0" stop-color="#000000"/><stop offset="1" stop-color="#000000" stop-opacity="0"/></linearGradient><linearGradient x1="239.94032" y1="164.45323" x2="239.7781" y2="164.88297" gradientUnits="userSpaceOnUse" id="color-19"><stop offset="0" stop-color="#000000"/><stop offset="1" stop-color="#000000" stop-opacity="0"/></linearGradient><linearGradient x1="236.53567" y1="164.51359" x2="236.69788" y2="164.08385" gradientUnits="userSpaceOnUse" id="color-20"><stop offset="0" stop-color="#000000"/><stop offset="1" stop-color="#000000" stop-opacity="0"/></linearGradient><linearGradient x1="236.47068" y1="163.01843" x2="236.90043" y2="163.18065" gradientUnits="userSpaceOnUse" id="color-21"><stop offset="0" stop-color="#000000"/><stop offset="1" stop-color="#000000" stop-opacity="0"/></linearGradient><linearGradient x1="237.75768" y1="163.2016" x2="237.32794" y2="163.03939" gradientUnits="userSpaceOnUse" id="color-22"><stop offset="0" stop-color="#000000"/><stop offset="1" stop-color="#000000" stop-opacity="0"/></linearGradient><linearGradient x1="228.72993" y1="163.59886" x2="235.12901" y2="166.01431" gradientUnits="userSpaceOnUse" id="color-23"><stop offset="0" stop-color="#000000"/><stop offset="1" stop-color="#000000" stop-opacity="0"/></linearGradient><linearGradient x1="240.49436" y1="157.19186" x2="238.07892" y2="163.59094" gradientUnits="userSpaceOnUse" id="color-24"><stop offset="0" stop-color="#000000"/><stop offset="1" stop-color="#000000" stop-opacity="0"/></linearGradient><linearGradient x1="246.90136" y1="168.9563" x2="240.50228" y2="166.54086" gradientUnits="userSpaceOnUse" id="color-25"><stop offset="0" stop-color="#ffffff"/><stop offset="1" stop-color="#ffffff" stop-opacity="0"/></linearGradient><linearGradient x1="235.13692" y1="175.3633" x2="237.55237" y2="168.96423" gradientUnits="userSpaceOnUse" id="color-26"><stop offset="0" stop-color="#ffffff"/><stop offset="1" stop-color="#ffffff" stop-opacity="0"/></linearGradient></defs><g transform="translate(-233.40838,-161.87033)"><g data-paper-data="{&quot;isPaintingLayer&quot;:true}" fill-rule="nonzero" stroke-linejoin="miter" stroke-miterlimit="10" stroke-dasharray="" stroke-dashoffset="0" style="mix-blend-mode: normal"><path d="M240.09666,180.14726c0,0 -2.25597,-5.20946 -2.76657,-7.7284c-0.48842,-2.40953 -0.23343,-7.0716 -0.23343,-7.0716" data-paper-data="{&quot;index&quot;:null}" fill="none" stroke="#000000" stroke-width="1" stroke-linecap="round"/><g data-paper-data="{&quot;index&quot;:null}" stroke="none" stroke-width="0" stroke-linecap="butt"><path d="M242.2229,164.28577l-2.41544,6.39908l-6.39908,-2.41544l2.41544,-6.39908z" fill="#f3c886"/><g><g><path d="M240.44481,168.97881l-0.16221,0.42974l-1.90976,-0.72087l0.16221,-0.42974z" fill="#e2b97c"/><path d="M240.2826,169.40855l-1.90976,-0.72087l0.16221,-0.42974l1.90976,0.72087z" fill="url(#color-1)"/><path d="M238.53505,168.25794l1.90976,0.72087l-0.16221,0.42974l-1.90976,-0.72087z" fill="url(#color-2)"/></g><g><path d="M237.94926,168.51586l0.42974,0.16221l-0.48676,1.28955l-0.42974,-0.16221z" fill="#e2b97c"/><path d="M238.379,168.67806l-0.48676,1.28955l-0.42974,-0.16221l0.48676,-1.28955z" fill="url(#color-3)"/><path d="M237.46249,169.80541l0.48676,-1.28955l0.42974,0.16221l-0.48676,1.28955z" fill="url(#color-4)"/></g><g><path d="M238.22942,168.14347l-0.16221,0.42974l-4.15481,-1.56831l0.16221,-0.42974z" fill="#e2b97c"/><path d="M238.06721,168.5732l-4.15481,-1.56831l0.16221,-0.42974l4.15481,1.56831z" fill="url(#color-5)"/><path d="M234.07461,166.57515l4.15481,1.56831l-0.16221,0.42974l-4.15481,-1.56831z" fill="url(#color-6)"/></g><g><path d="M238.55881,168.25985l-0.16221,0.42974l-0.43196,-0.16305l0.16221,-0.42974z" fill="#e2b97c"/><path d="M238.39659,168.68959l-0.43196,-0.16305l0.16221,-0.42974l0.43196,0.16305z" fill="url(#color-7)"/></g><g data-paper-data="{&quot;index&quot;:null}"><path d="M235.3179,167.53454l0.16221,-0.42974l0.44952,0.16968l-0.16221,0.42974z" fill="#e2b97c"/><path d="M235.76742,167.70422l-0.44952,-0.16968l0.16221,-0.42974l0.44952,0.16968z" fill="url(#color-8)"/></g><g><path d="M235.97285,165.82745l0.42974,0.16221l-0.48676,1.28955l-0.42974,-0.16221z" fill="#e2b97c"/><path d="M236.40259,165.98965l-0.48676,1.28955l-0.42974,-0.16221l0.48676,-1.28955z" fill="url(#color-9)"/><path d="M235.48609,167.117l0.48676,-1.28955l0.42974,0.16221l-0.48676,1.28955z" fill="url(#color-10)"/></g><g><path d="M241.0662,167.27186l-0.16221,0.42974l-6.35601,-2.39918l0.16221,-0.42974z" fill="#e2b97c"/><path d="M240.90399,167.70161l-6.35601,-2.39918l0.16221,-0.42974l6.35601,2.39918z" fill="url(#color-11)"/><path d="M234.71019,164.87268l6.35601,2.39918l-0.16221,0.42974l-6.35601,-2.39918z" fill="url(#color-12)"/></g><g data-paper-data="{&quot;index&quot;:null}"><path d="M236.54856,165.5834l-0.16221,0.42974l-0.43196,-0.16305l0.16221,-0.42974z" fill="#e2b97c"/><path d="M236.38634,166.01313l-0.43196,-0.16305l0.16221,-0.42974l0.43196,0.16305z" fill="url(#color-13)"/></g><g data-paper-data="{&quot;index&quot;:null}"><path d="M238.8378,166.90778l0.16221,-0.42974l0.43196,0.16305l-0.16221,0.42974z" fill="#e2b97c"/><path d="M239.26976,167.07084l-0.43196,-0.16305l0.16221,-0.42974l0.43196,0.16305z" fill="url(#color-14)"/></g><g><path d="M239.47051,165.2052l0.42974,0.16221l-0.48676,1.28955l-0.42974,-0.16221z" fill="#e2b97c"/><path d="M239.90025,165.3674l-0.48676,1.28955l-0.42974,-0.16221l0.48676,-1.28955z" fill="url(#color-15)"/><path d="M238.98375,166.49475l0.48676,-1.28955l0.42974,0.16221l-0.48676,1.28955z" fill="url(#color-16)"/></g><g><path d="M241.72233,165.56174l-0.16221,0.42974l-6.35601,-2.39918l0.16221,-0.42974z" fill="#e2b97c"/><path d="M241.56013,165.99149l-6.35601,-2.39918l0.16221,-0.42974l6.35601,2.39918z" fill="url(#color-17)"/><path d="M235.36632,163.16256l6.35601,2.39918l-0.16221,0.42974l-6.35601,-2.39918z" fill="url(#color-18)"/></g><g data-paper-data="{&quot;index&quot;:null}"><path d="M240.05773,164.93013l-0.16221,0.42974l-0.43196,-0.16305l0.16221,-0.42974z" fill="#e2b97c"/><path d="M239.89551,165.35987l-0.43196,-0.16305l0.16221,-0.42974l0.43196,0.16305z" fill="url(#color-19)"/></g><g data-paper-data="{&quot;index&quot;:null}"><path d="M236.50697,164.07018l0.16221,-0.42974l0.43196,0.16305l-0.16221,0.42974z" fill="#e2b97c"/><path d="M236.93893,164.23323l-0.43196,-0.16305l0.16221,-0.42974l0.43196,0.16305z" fill="url(#color-20)"/></g><g><path d="M237.14269,162.38414l0.42974,0.16221l-0.48676,1.28955l-0.42974,-0.16221z" fill="#e2b97c"/><path d="M237.57243,162.54634l-0.48676,1.28955l-0.42974,-0.16221l0.48676,-1.28955z" fill="url(#color-21)"/><path d="M236.65593,163.6737l0.48676,-1.28955l0.42974,0.16221l-0.48676,1.28955z" fill="url(#color-22)"/></g></g><g><path d="M242.2229,164.28577l-2.41544,6.39908l-6.39908,-2.41544l2.41544,-6.39908z" fill="url(#color-23)"/><path d="M239.80746,170.68485l-6.39908,-2.41544l2.41544,-6.39908l6.39908,2.41544z" fill="url(#color-24)"/><path d="M233.40838,168.26941l2.41544,-6.39908l6.39908,2.41544l-2.41544,6.39908z" fill="url(#color-25)"/><path d="M235.82382,161.87033l6.39908,2.41544l-2.41544,6.39908l-6.39908,-2.41544z" fill="url(#color-26)"/></g></g></g></g></svg>