<svg version="1.1" xmlns="http://www.w3.org/2000/svg" xmlns:xlink="http://www.w3.org/1999/xlink" width="12.4604" height="12.47012" viewBox="0,0,12.4604,12.47012"><defs><linearGradient x1="243.97764" y1="177.82972" x2="243.97764" y2="176.99293" gradientUnits="userSpaceOnUse" id="color-1"><stop offset="0" stop-color="#000000"/><stop offset="1" stop-color="#000000" stop-opacity="0"/></linearGradient><linearGradient x1="244.74149" y1="175.51836" x2="244.74149" y2="176.35515" gradientUnits="userSpaceOnUse" id="color-2"><stop offset="0" stop-color="#000000"/><stop offset="1" stop-color="#000000" stop-opacity="0"/></linearGradient><linearGradient x1="240.93043" y1="174.76258" x2="241.76723" y2="174.76258" gradientUnits="userSpaceOnUse" id="color-3"><stop offset="0" stop-color="#000000"/><stop offset="1" stop-color="#000000" stop-opacity="0"/></linearGradient><linearGradient x1="243.2418" y1="175.27837" x2="242.40501" y2="175.27837" gradientUnits="userSpaceOnUse" id="color-4"><stop offset="0" stop-color="#000000"/><stop offset="1" stop-color="#000000" stop-opacity="0"/></linearGradient><linearGradient x1="237.0296" y1="177.82822" x2="237.0296" y2="176.99143" gradientUnits="userSpaceOnUse" id="color-5"><stop offset="0" stop-color="#000000"/><stop offset="1" stop-color="#000000" stop-opacity="0"/></linearGradient><linearGradient x1="238.69139" y1="175.51685" x2="238.69139" y2="176.35365" gradientUnits="userSpaceOnUse" id="color-6"><stop offset="0" stop-color="#000000"/><stop offset="1" stop-color="#000000" stop-opacity="0"/></linearGradient><linearGradient x1="242.03498" y1="177.84175" x2="242.03498" y2="177.00495" gradientUnits="userSpaceOnUse" id="color-7"><stop offset="0" stop-color="#000000"/><stop offset="1" stop-color="#000000" stop-opacity="0"/></linearGradient><linearGradient x1="236.89933" y1="175.51836" x2="236.89933" y2="176.35515" gradientUnits="userSpaceOnUse" id="color-8"><stop offset="0" stop-color="#000000"/><stop offset="1" stop-color="#000000" stop-opacity="0"/></linearGradient><linearGradient x1="235.83232" y1="178.07313" x2="236.66911" y2="178.07313" gradientUnits="userSpaceOnUse" id="color-9"><stop offset="0" stop-color="#000000"/><stop offset="1" stop-color="#000000" stop-opacity="0"/></linearGradient><linearGradient x1="238.14369" y1="178.58891" x2="237.30689" y2="178.58891" gradientUnits="userSpaceOnUse" id="color-10"><stop offset="0" stop-color="#000000"/><stop offset="1" stop-color="#000000" stop-opacity="0"/></linearGradient><linearGradient x1="238.72047" y1="181.13877" x2="238.72047" y2="180.30197" gradientUnits="userSpaceOnUse" id="color-11"><stop offset="0" stop-color="#000000"/><stop offset="1" stop-color="#000000" stop-opacity="0"/></linearGradient><linearGradient x1="241.26268" y1="178.8274" x2="241.26268" y2="179.6642" gradientUnits="userSpaceOnUse" id="color-12"><stop offset="0" stop-color="#000000"/><stop offset="1" stop-color="#000000" stop-opacity="0"/></linearGradient><linearGradient x1="236.88687" y1="181.11014" x2="236.88687" y2="180.27334" gradientUnits="userSpaceOnUse" id="color-13"><stop offset="0" stop-color="#000000"/><stop offset="1" stop-color="#000000" stop-opacity="0"/></linearGradient><linearGradient x1="242.48177" y1="178.8511" x2="242.48177" y2="179.6879" gradientUnits="userSpaceOnUse" id="color-14"><stop offset="0" stop-color="#000000"/><stop offset="1" stop-color="#000000" stop-opacity="0"/></linearGradient><linearGradient x1="241.39332" y1="181.38388" x2="242.23012" y2="181.38388" gradientUnits="userSpaceOnUse" id="color-15"><stop offset="0" stop-color="#000000"/><stop offset="1" stop-color="#000000" stop-opacity="0"/></linearGradient><linearGradient x1="243.70469" y1="181.89967" x2="242.86789" y2="181.89967" gradientUnits="userSpaceOnUse" id="color-16"><stop offset="0" stop-color="#000000"/><stop offset="1" stop-color="#000000" stop-opacity="0"/></linearGradient><linearGradient x1="238.73859" y1="184.47557" x2="238.73859" y2="183.63878" gradientUnits="userSpaceOnUse" id="color-17"><stop offset="0" stop-color="#000000"/><stop offset="1" stop-color="#000000" stop-opacity="0"/></linearGradient><linearGradient x1="241.28079" y1="182.16422" x2="241.28079" y2="183.00101" gradientUnits="userSpaceOnUse" id="color-18"><stop offset="0" stop-color="#000000"/><stop offset="1" stop-color="#000000" stop-opacity="0"/></linearGradient><linearGradient x1="242.44756" y1="184.48117" x2="242.44756" y2="183.64437" gradientUnits="userSpaceOnUse" id="color-19"><stop offset="0" stop-color="#000000"/><stop offset="1" stop-color="#000000" stop-opacity="0"/></linearGradient><linearGradient x1="236.6836" y1="182.18792" x2="236.6836" y2="183.02471" gradientUnits="userSpaceOnUse" id="color-20"><stop offset="0" stop-color="#000000"/><stop offset="1" stop-color="#000000" stop-opacity="0"/></linearGradient><linearGradient x1="235.61094" y1="184.69442" x2="236.44774" y2="184.69442" gradientUnits="userSpaceOnUse" id="color-21"><stop offset="0" stop-color="#000000"/><stop offset="1" stop-color="#000000" stop-opacity="0"/></linearGradient><linearGradient x1="237.9223" y1="185.21021" x2="237.0855" y2="185.21021" gradientUnits="userSpaceOnUse" id="color-22"><stop offset="0" stop-color="#000000"/><stop offset="1" stop-color="#000000" stop-opacity="0"/></linearGradient><linearGradient x1="222.79121" y1="178.72517" x2="235.2516" y2="178.72517" gradientUnits="userSpaceOnUse" id="color-23"><stop offset="0" stop-color="#000000"/><stop offset="1" stop-color="#000000" stop-opacity="0"/></linearGradient><linearGradient x1="238.72029" y1="197.21369" x2="238.72029" y2="184.7533" gradientUnits="userSpaceOnUse" id="color-24"><stop offset="0" stop-color="#000000"/><stop offset="1" stop-color="#000000" stop-opacity="0"/></linearGradient><linearGradient x1="257.20881" y1="181.28459" x2="244.74842" y2="181.28459" gradientUnits="userSpaceOnUse" id="color-25"><stop offset="0" stop-color="#ffffff"/><stop offset="1" stop-color="#ffffff" stop-opacity="0"/></linearGradient><linearGradient x1="241.27973" y1="162.79607" x2="241.27973" y2="175.25646" gradientUnits="userSpaceOnUse" id="color-26"><stop offset="0" stop-color="#ffffff"/><stop offset="1" stop-color="#ffffff" stop-opacity="0"/></linearGradient></defs><g transform="translate(-233.7698,-173.76494)"><g data-paper-data="{&quot;isPaintingLayer&quot;:true}" fill-rule="nonzero" stroke="none" stroke-width="0" stroke-linecap="butt" stroke-linejoin="miter" stroke-miterlimit="10" stroke-dasharray="" stroke-dashoffset="0" style="mix-blend-mode: normal"><g><path d="M233.76982,186.23507v-12.46039h12.46039v12.46039z" fill="#f3c886"/><g><g><path d="M242.50021,177.09244v-0.8368h3.71871v0.8368z" fill="#e2b97c"/><path d="M246.21892,177.09244h-3.71871v-0.8368h3.71871z" fill="url(#color-1)"/><path d="M242.50021,176.25565h3.71871v0.8368h-3.71871z" fill="url(#color-2)"/></g><g><path d="M241.66773,173.76495h0.8368v2.51104h-0.8368z" fill="#e2b97c"/><path d="M241.66773,176.276v-2.51104h0.8368v2.51104z" fill="url(#color-3)"/><path d="M242.50452,173.76495v2.51104h-0.8368v-2.51104z" fill="url(#color-4)"/></g><g><path d="M233.81534,177.09093v-0.8368h8.09032v0.8368z" fill="#e2b97c"/><path d="M241.90565,177.09093h-8.09032v-0.8368h8.09032z" fill="url(#color-5)"/><path d="M233.81534,176.25415h8.09032v0.8368h-8.09032z" fill="url(#color-6)"/></g><g><path d="M241.70081,177.10447v-0.8368h0.84111v0.8368z" fill="#e2b97c"/><path d="M242.54192,177.10447h-0.84111v-0.8368h0.84111z" fill="url(#color-7)"/></g><g data-paper-data="{&quot;index&quot;:null}"><path d="M237.42689,176.25565v0.8368h-0.87532v-0.8368z" fill="#e2b97c"/><path d="M237.42689,177.09244h-0.87532v-0.8368h0.87532z" fill="url(#color-8)"/></g><g><path d="M236.56961,177.0755h0.8368v2.51104h-0.8368z" fill="#e2b97c"/><path d="M236.56961,179.58654v-2.51104h0.8368v2.51104z" fill="url(#color-9)"/><path d="M237.40641,177.0755v2.51104h-0.8368v-2.51104z" fill="url(#color-10)"/></g><g><path d="M233.80332,180.40148v-0.8368h12.37652v0.8368z" fill="#e2b97c"/><path d="M246.17984,180.40148h-12.37652v-0.8368h12.37652z" fill="url(#color-11)"/><path d="M233.80332,179.56468h12.37652v0.8368h-12.37652z" fill="url(#color-12)"/></g><g data-paper-data="{&quot;index&quot;:null}"><path d="M236.5527,180.37286v-0.8368h0.84111v0.8368z" fill="#e2b97c"/><path d="M237.3938,180.37286h-0.84111v-0.8368h0.84111z" fill="url(#color-13)"/></g><g data-paper-data="{&quot;index&quot;:null}"><path d="M242.98871,179.58839v0.8368h-0.84111v-0.8368z" fill="#e2b97c"/><path d="M242.98871,180.42518h-0.84111v-0.8368h0.84111z" fill="url(#color-14)"/></g><g><path d="M242.13061,180.38625h0.8368v2.51104h-0.8368z" fill="#e2b97c"/><path d="M242.13061,182.8973v-2.51104h0.8368v2.51104z" fill="url(#color-15)"/><path d="M242.96741,180.38625v2.51104h-0.8368v-2.51104z" fill="url(#color-16)"/></g><g><path d="M233.82142,183.73829v-0.8368h12.37652v0.8368z" fill="#e2b97c"/><path d="M246.19795,183.73829h-12.37652v-0.8368h12.37652z" fill="url(#color-17)"/><path d="M233.82142,182.9015h12.37652v0.8368h-12.37652z" fill="url(#color-18)"/></g><g data-paper-data="{&quot;index&quot;:null}"><path d="M242.11338,183.74388v-0.8368h0.84111v0.8368z" fill="#e2b97c"/><path d="M242.95448,183.74388h-0.84111v-0.8368h0.84111z" fill="url(#color-19)"/></g><g data-paper-data="{&quot;index&quot;:null}"><path d="M237.19054,182.9252v0.8368h-0.84111v-0.8368z" fill="#e2b97c"/><path d="M237.19054,183.76199h-0.84111v-0.8368h0.84111z" fill="url(#color-20)"/></g><g><path d="M236.34822,183.69679h0.8368v2.51104h-0.8368z" fill="#e2b97c"/><path d="M236.34822,186.20784v-2.51104h0.8368v2.51104z" fill="url(#color-21)"/><path d="M237.18502,183.69679v2.51104h-0.8368v-2.51104z" fill="url(#color-22)"/></g></g><g><path d="M233.76982,186.23507v-12.46039h12.46039v12.46039z" fill="url(#color-23)"/><path d="M246.2302,186.23507h-12.46039v-12.46039h12.46039z" fill="url(#color-24)"/><path d="M246.2302,173.77468v12.46039h-12.46039v-12.46039z" fill="url(#color-25)"/><path d="M233.76982,173.77468h12.46039v12.46039h-12.46039z" fill="url(#color-26)"/></g></g></g></g></svg>