<svg version="1.1" xmlns="http://www.w3.org/2000/svg" xmlns:xlink="http://www.w3.org/1999/xlink" width="8.81453" height="18.77694" viewBox="0,0,8.81453,18.77694"><defs><linearGradient x1="239.43671" y1="192.05188" x2="239.2745" y2="191.62215" gradientUnits="userSpaceOnUse" id="color-1"><stop offset="0" stop-color="#000000"/><stop offset="1" stop-color="#000000" stop-opacity="0"/></linearGradient><linearGradient x1="239.38094" y1="190.7168" x2="239.54315" y2="191.14654" gradientUnits="userSpaceOnUse" id="color-2"><stop offset="0" stop-color="#000000"/><stop offset="1" stop-color="#000000" stop-opacity="0"/></linearGradient><linearGradient x1="237.27724" y1="191.06744" x2="237.70699" y2="190.90523" gradientUnits="userSpaceOnUse" id="color-3"><stop offset="0" stop-color="#000000"/><stop offset="1" stop-color="#000000" stop-opacity="0"/></linearGradient><linearGradient x1="238.56424" y1="190.88427" x2="238.13451" y2="191.04648" gradientUnits="userSpaceOnUse" id="color-4"><stop offset="0" stop-color="#000000"/><stop offset="1" stop-color="#000000" stop-opacity="0"/></linearGradient><linearGradient x1="235.86823" y1="193.39799" x2="235.70602" y2="192.96825" gradientUnits="userSpaceOnUse" id="color-5"><stop offset="0" stop-color="#000000"/><stop offset="1" stop-color="#000000" stop-opacity="0"/></linearGradient><linearGradient x1="236.27359" y1="191.88884" x2="236.4358" y2="192.31858" gradientUnits="userSpaceOnUse" id="color-6"><stop offset="0" stop-color="#000000"/><stop offset="1" stop-color="#000000" stop-opacity="0"/></linearGradient><linearGradient x1="238.44139" y1="192.43464" x2="238.27917" y2="192.0049" gradientUnits="userSpaceOnUse" id="color-7"><stop offset="0" stop-color="#000000"/><stop offset="1" stop-color="#000000" stop-opacity="0"/></linearGradient><linearGradient x1="235.35357" y1="192.237" x2="235.51578" y2="192.66674" gradientUnits="userSpaceOnUse" id="color-8"><stop offset="0" stop-color="#000000"/><stop offset="1" stop-color="#000000" stop-opacity="0"/></linearGradient><linearGradient x1="235.30084" y1="193.75585" x2="235.73058" y2="193.59364" gradientUnits="userSpaceOnUse" id="color-9"><stop offset="0" stop-color="#000000"/><stop offset="1" stop-color="#000000" stop-opacity="0"/></linearGradient><linearGradient x1="236.58784" y1="193.57268" x2="236.15809" y2="193.73489" gradientUnits="userSpaceOnUse" id="color-10"><stop offset="0" stop-color="#000000"/><stop offset="1" stop-color="#000000" stop-opacity="0"/></linearGradient><linearGradient x1="237.37833" y1="194.77036" x2="237.21612" y2="194.34062" gradientUnits="userSpaceOnUse" id="color-11"><stop offset="0" stop-color="#000000"/><stop offset="1" stop-color="#000000" stop-opacity="0"/></linearGradient><linearGradient x1="238.23584" y1="193.09054" x2="238.39805" y2="193.52028" gradientUnits="userSpaceOnUse" id="color-12"><stop offset="0" stop-color="#000000"/><stop offset="1" stop-color="#000000" stop-opacity="0"/></linearGradient><linearGradient x1="236.43113" y1="195.1111" x2="236.26892" y2="194.68136" gradientUnits="userSpaceOnUse" id="color-13"><stop offset="0" stop-color="#000000"/><stop offset="1" stop-color="#000000" stop-opacity="0"/></linearGradient><linearGradient x1="238.8665" y1="192.86639" x2="239.02871" y2="193.29613" gradientUnits="userSpaceOnUse" id="color-14"><stop offset="0" stop-color="#000000"/><stop offset="1" stop-color="#000000" stop-opacity="0"/></linearGradient><linearGradient x1="238.7985" y1="194.3781" x2="239.22824" y2="194.21589" gradientUnits="userSpaceOnUse" id="color-15"><stop offset="0" stop-color="#000000"/><stop offset="1" stop-color="#000000" stop-opacity="0"/></linearGradient><linearGradient x1="240.0855" y1="194.19493" x2="239.65576" y2="194.35714" gradientUnits="userSpaceOnUse" id="color-16"><stop offset="0" stop-color="#000000"/><stop offset="1" stop-color="#000000" stop-opacity="0"/></linearGradient><linearGradient x1="238.03448" y1="196.48047" x2="237.87226" y2="196.05073" gradientUnits="userSpaceOnUse" id="color-17"><stop offset="0" stop-color="#000000"/><stop offset="1" stop-color="#000000" stop-opacity="0"/></linearGradient><linearGradient x1="238.89198" y1="194.80066" x2="239.05419" y2="195.2304" gradientUnits="userSpaceOnUse" id="color-18"><stop offset="0" stop-color="#000000"/><stop offset="1" stop-color="#000000" stop-opacity="0"/></linearGradient><linearGradient x1="239.94032" y1="195.76436" x2="239.7781" y2="195.33462" gradientUnits="userSpaceOnUse" id="color-19"><stop offset="0" stop-color="#000000"/><stop offset="1" stop-color="#000000" stop-opacity="0"/></linearGradient><linearGradient x1="236.53567" y1="195.704" x2="236.69788" y2="196.13374" gradientUnits="userSpaceOnUse" id="color-20"><stop offset="0" stop-color="#000000"/><stop offset="1" stop-color="#000000" stop-opacity="0"/></linearGradient><linearGradient x1="236.47068" y1="197.19916" x2="236.90043" y2="197.03694" gradientUnits="userSpaceOnUse" id="color-21"><stop offset="0" stop-color="#000000"/><stop offset="1" stop-color="#000000" stop-opacity="0"/></linearGradient><linearGradient x1="237.75768" y1="197.01599" x2="237.32794" y2="197.1782" gradientUnits="userSpaceOnUse" id="color-22"><stop offset="0" stop-color="#000000"/><stop offset="1" stop-color="#000000" stop-opacity="0"/></linearGradient><linearGradient x1="228.72993" y1="196.61873" x2="235.12901" y2="194.20328" gradientUnits="userSpaceOnUse" id="color-23"><stop offset="0" stop-color="#000000"/><stop offset="1" stop-color="#000000" stop-opacity="0"/></linearGradient><linearGradient x1="240.49436" y1="203.02573" x2="238.07892" y2="196.62665" gradientUnits="userSpaceOnUse" id="color-24"><stop offset="0" stop-color="#000000"/><stop offset="1" stop-color="#000000" stop-opacity="0"/></linearGradient><linearGradient x1="246.90136" y1="191.26129" x2="240.50228" y2="193.67673" gradientUnits="userSpaceOnUse" id="color-25"><stop offset="0" stop-color="#ffffff"/><stop offset="1" stop-color="#ffffff" stop-opacity="0"/></linearGradient><linearGradient x1="235.13692" y1="184.85429" x2="237.55237" y2="191.25336" gradientUnits="userSpaceOnUse" id="color-26"><stop offset="0" stop-color="#ffffff"/><stop offset="1" stop-color="#ffffff" stop-opacity="0"/></linearGradient></defs><g transform="translate(-233.40838,-179.57033)"><g data-paper-data="{&quot;isPaintingLayer&quot;:true}" fill-rule="nonzero" stroke-linejoin="miter" stroke-miterlimit="10" stroke-dasharray="" stroke-dashoffset="0" style="mix-blend-mode: normal"><path d="M237.09666,194.87033c0,0 -0.25499,-4.66207 0.23343,-7.0716c0.5106,-2.51894 2.76657,-7.7284 2.76657,-7.7284" fill="none" stroke="#000000" stroke-width="1" stroke-linecap="round"/><g stroke="none" stroke-width="0" stroke-linecap="butt"><path d="M235.82382,198.34726l-2.41544,-6.39908l6.39908,-2.41544l2.41544,6.39908z" fill="#f3c886"/><g><g><path d="M238.53505,191.95965l-0.16221,-0.42974l1.90976,-0.72087l0.16221,0.42974z" fill="#e2b97c"/><path d="M240.44481,191.23878l-1.90976,0.72087l-0.16221,-0.42974l1.90976,-0.72087z" fill="url(#color-1)"/><path d="M238.37284,191.52991l1.90976,-0.72087l0.16221,0.42974l-1.90976,0.72087z" fill="url(#color-2)"/></g><g><path d="M237.4625,190.41218l0.42974,-0.16221l0.48676,1.28955l-0.42974,0.16221z" fill="#e2b97c"/><path d="M237.94926,191.70174l-0.48676,-1.28955l0.42974,-0.16221l0.48676,1.28955z" fill="url(#color-3)"/><path d="M237.89223,190.24997l0.48676,1.28955l-0.42974,0.16221l-0.48676,-1.28955z" fill="url(#color-4)"/></g><g><path d="M234.07461,193.64243l-0.16221,-0.42974l4.15481,-1.56831l0.16221,0.42974z" fill="#e2b97c"/><path d="M238.22942,192.07413l-4.15481,1.56831l-0.16221,-0.42974l4.15481,-1.56831z" fill="url(#color-5)"/><path d="M233.9124,193.2127l4.15481,-1.56831l0.16221,0.42974l-4.15481,1.56831z" fill="url(#color-6)"/></g><g><path d="M238.12685,192.12079l-0.16221,-0.42974l0.43196,-0.16305l0.16221,0.42974z" fill="#e2b97c"/><path d="M238.5588,191.95774l-0.43196,0.16305l-0.16221,-0.42974l0.43196,-0.16305z" fill="url(#color-7)"/></g><g data-paper-data="{&quot;index&quot;:null}"><path d="M235.76742,192.51337l0.16221,0.42974l-0.44952,0.16968l-0.16221,-0.42974z" fill="#e2b97c"/><path d="M235.92963,192.94311l-0.44952,0.16968l-0.16221,-0.42974l0.44952,-0.16968z" fill="url(#color-8)"/></g><g><path d="M235.48609,193.10059l0.42974,-0.16221l0.48676,1.28955l-0.42974,0.16221z" fill="#e2b97c"/><path d="M235.97285,194.39015l-0.48676,-1.28955l0.42974,-0.16221l0.48676,1.28955z" fill="url(#color-9)"/><path d="M235.91583,192.93838l0.48676,1.28955l-0.42974,0.16221l-0.48676,-1.28955z" fill="url(#color-10)"/></g><g><path d="M234.71019,195.34491l-0.16221,-0.42974l6.35601,-2.39918l0.16221,0.42974z" fill="#e2b97c"/><path d="M241.0662,192.94572l-6.35601,2.39918l-0.16221,-0.42974l6.35601,-2.39918z" fill="url(#color-11)"/><path d="M234.54798,194.91517l6.35601,-2.39918l0.16221,0.42974l-6.35601,2.39918z" fill="url(#color-12)"/></g><g data-paper-data="{&quot;index&quot;:null}"><path d="M236.1166,194.79724l-0.16221,-0.42974l0.43196,-0.16305l0.16221,0.42974z" fill="#e2b97c"/><path d="M236.54855,194.6342l-0.43196,0.16305l-0.16221,-0.42974l0.43196,-0.16305z" fill="url(#color-13)"/></g><g data-paper-data="{&quot;index&quot;:null}"><path d="M239.26976,193.14676l0.16221,0.42974l-0.43196,0.16305l-0.16221,-0.42974z" fill="#e2b97c"/><path d="M239.43197,193.57649l-0.43196,0.16305l-0.16221,-0.42974l0.43196,-0.16305z" fill="url(#color-14)"/></g><g><path d="M238.98375,193.72284l0.42974,-0.16221l0.48676,1.28955l-0.42974,0.16221z" fill="#e2b97c"/><path d="M239.47051,195.0124l-0.48676,-1.28955l0.42974,-0.16221l0.48676,1.28955z" fill="url(#color-15)"/><path d="M239.41349,193.56063l0.48676,1.28955l-0.42974,0.16221l-0.48676,-1.28955z" fill="url(#color-16)"/></g><g><path d="M235.36632,197.05503l-0.16221,-0.42974l6.35601,-2.39918l0.16221,0.42974z" fill="#e2b97c"/><path d="M241.72234,194.65584l-6.35601,2.39918l-0.16221,-0.42974l6.35601,-2.39918z" fill="url(#color-17)"/><path d="M235.20411,196.62529l6.35601,-2.39918l0.16221,0.42974l-6.35601,2.39918z" fill="url(#color-18)"/></g><g data-paper-data="{&quot;index&quot;:null}"><path d="M239.62577,195.45051l-0.16221,-0.42974l0.43196,-0.16305l0.16221,0.42974z" fill="#e2b97c"/><path d="M240.05772,195.28746l-0.43196,0.16305l-0.16221,-0.42974l0.43196,-0.16305z" fill="url(#color-19)"/></g><g data-paper-data="{&quot;index&quot;:null}"><path d="M236.93893,195.98436l0.16221,0.42974l-0.43196,0.16305l-0.16221,-0.42974z" fill="#e2b97c"/><path d="M237.10114,196.4141l-0.43196,0.16305l-0.16221,-0.42974l0.43196,-0.16305z" fill="url(#color-20)"/></g><g><path d="M236.65593,196.5439l0.42974,-0.16221l0.48676,1.28955l-0.42974,0.16221z" fill="#e2b97c"/><path d="M237.14269,197.83346l-0.48676,-1.28955l0.42974,-0.16221l0.48676,1.28955z" fill="url(#color-21)"/><path d="M237.08567,196.38168l0.48676,1.28955l-0.42974,0.16221l-0.48676,-1.28955z" fill="url(#color-22)"/></g></g><g><path d="M235.82382,198.34726l-2.41544,-6.39908l6.39908,-2.41544l2.41544,6.39908z" fill="url(#color-23)"/><path d="M242.2229,195.93182l-6.39908,2.41544l-2.41544,-6.39908l6.39908,-2.41544z" fill="url(#color-24)"/><path d="M239.80746,189.53274l2.41544,6.39908l-6.39908,2.41544l-2.41544,-6.39908z" fill="url(#color-25)"/><path d="M233.40838,191.94818l6.39908,-2.41544l2.41544,6.39908l-6.39908,2.41544z" fill="url(#color-26)"/></g></g></g></g></svg>