<svg version="1.1" xmlns="http://www.w3.org/2000/svg" xmlns:xlink="http://www.w3.org/1999/xlink" width="12.35191" height="12.35191" viewBox="0,0,12.35191,12.35191"><defs><linearGradient x1="235.85079" y1="182.36909" x2="238.02072" y2="182.36909" gradientUnits="userSpaceOnUse" id="color-1"><stop offset="0" stop-color="#000000" stop-opacity="0"/><stop offset="1" stop-color="#000000"/></linearGradient><linearGradient x1="233.06478" y1="182.42372" x2="235.23471" y2="182.42372" gradientUnits="userSpaceOnUse" id="color-2"><stop offset="0" stop-color="#ffffff"/><stop offset="1" stop-color="#ffffff" stop-opacity="0"/></linearGradient><linearGradient x1="235.72484" y1="179.0884" x2="237.89174" y2="179.0884" gradientUnits="userSpaceOnUse" id="color-3"><stop offset="0" stop-color="#000000" stop-opacity="0"/><stop offset="1" stop-color="#000000"/></linearGradient><linearGradient x1="232.57465" y1="178.97914" x2="234.74154" y2="178.97914" gradientUnits="userSpaceOnUse" id="color-4"><stop offset="0" stop-color="#ffffff"/><stop offset="1" stop-color="#ffffff" stop-opacity="0"/></linearGradient><linearGradient x1="235.57048" y1="179.05699" x2="236.88299" y2="179.05699" gradientUnits="userSpaceOnUse" id="color-5"><stop offset="0" stop-color="#000000" stop-opacity="0"/><stop offset="1" stop-color="#000000"/></linearGradient><linearGradient x1="233.66237" y1="178.99081" x2="234.97488" y2="178.99081" gradientUnits="userSpaceOnUse" id="color-6"><stop offset="0" stop-color="#000000"/><stop offset="1" stop-color="#000000" stop-opacity="0"/></linearGradient><linearGradient x1="235.30908" y1="177.57646" x2="235.30908" y2="178.77868" gradientUnits="userSpaceOnUse" id="color-7"><stop offset="0" stop-color="#000000"/><stop offset="1" stop-color="#000000" stop-opacity="0"/></linearGradient><linearGradient x1="234.70245" y1="179.275" x2="234.70245" y2="180.47722" gradientUnits="userSpaceOnUse" id="color-8"><stop offset="0" stop-color="#000000" stop-opacity="0"/><stop offset="1" stop-color="#000000"/></linearGradient><linearGradient x1="239.95845" y1="181.06482" x2="240.78796" y2="181.06482" gradientUnits="userSpaceOnUse" id="color-9"><stop offset="0" stop-color="#000000"/><stop offset="1" stop-color="#000000" stop-opacity="0"/></linearGradient><linearGradient x1="242.24969" y1="182.78434" x2="241.42018" y2="182.78434" gradientUnits="userSpaceOnUse" id="color-10"><stop offset="0" stop-color="#000000"/><stop offset="1" stop-color="#000000" stop-opacity="0"/></linearGradient><linearGradient x1="237.48902" y1="179.18383" x2="237.2329" y2="179.18383" gradientUnits="userSpaceOnUse" id="color-11"><stop offset="0" stop-color="#000000" stop-opacity="0"/><stop offset="1" stop-color="#000000"/></linearGradient><linearGradient x1="237.86136" y1="179.05577" x2="237.60524" y2="179.05577" gradientUnits="userSpaceOnUse" id="color-12"><stop offset="0" stop-color="#ffffff"/><stop offset="1" stop-color="#ffffff" stop-opacity="0"/></linearGradient><linearGradient x1="236.88925" y1="180.27744" x2="236.88925" y2="181.71102" gradientUnits="userSpaceOnUse" id="color-13"><stop offset="0" stop-color="#000000" stop-opacity="0"/><stop offset="1" stop-color="#000000"/></linearGradient><linearGradient x1="236.8656" y1="178.43684" x2="236.8656" y2="179.87042" gradientUnits="userSpaceOnUse" id="color-14"><stop offset="0" stop-color="#ffffff"/><stop offset="1" stop-color="#ffffff" stop-opacity="0"/></linearGradient><linearGradient x1="238.73996" y1="178.63281" x2="238.73996" y2="177.8033" gradientUnits="userSpaceOnUse" id="color-15"><stop offset="0" stop-color="#000000"/><stop offset="1" stop-color="#000000" stop-opacity="0"/></linearGradient><linearGradient x1="241.26004" y1="176.34157" x2="241.26004" y2="177.17108" gradientUnits="userSpaceOnUse" id="color-16"><stop offset="0" stop-color="#000000"/><stop offset="1" stop-color="#000000" stop-opacity="0"/></linearGradient><linearGradient x1="243.59259" y1="180.37941" x2="243.59259" y2="179.5499" gradientUnits="userSpaceOnUse" id="color-17"><stop offset="0" stop-color="#000000"/><stop offset="1" stop-color="#000000" stop-opacity="0"/></linearGradient><linearGradient x1="243.90061" y1="178.08817" x2="243.90061" y2="178.91768" gradientUnits="userSpaceOnUse" id="color-18"><stop offset="0" stop-color="#000000"/><stop offset="1" stop-color="#000000" stop-opacity="0"/></linearGradient><linearGradient x1="244.25054" y1="180.14246" x2="244.25054" y2="180.97197" gradientUnits="userSpaceOnUse" id="color-19"><stop offset="0" stop-color="#000000"/><stop offset="1" stop-color="#000000" stop-opacity="0"/></linearGradient><linearGradient x1="243.61974" y1="183.58604" x2="243.61974" y2="182.75653" gradientUnits="userSpaceOnUse" id="color-20"><stop offset="0" stop-color="#000000"/><stop offset="1" stop-color="#000000" stop-opacity="0"/></linearGradient><linearGradient x1="243.92776" y1="181.2948" x2="243.92776" y2="182.12431" gradientUnits="userSpaceOnUse" id="color-21"><stop offset="0" stop-color="#000000"/><stop offset="1" stop-color="#000000" stop-opacity="0"/></linearGradient><linearGradient x1="244.27769" y1="182.93884" x2="244.27769" y2="183.76835" gradientUnits="userSpaceOnUse" id="color-22"><stop offset="0" stop-color="#000000"/><stop offset="1" stop-color="#000000" stop-opacity="0"/></linearGradient><linearGradient x1="222.94101" y1="178.73143" x2="235.29292" y2="178.73143" gradientUnits="userSpaceOnUse" id="color-23"><stop offset="0" stop-color="#000000"/><stop offset="1" stop-color="#000000" stop-opacity="0"/></linearGradient><linearGradient x1="238.73143" y1="197.05899" x2="238.73143" y2="184.70708" gradientUnits="userSpaceOnUse" id="color-24"><stop offset="0" stop-color="#000000"/><stop offset="1" stop-color="#000000" stop-opacity="0"/></linearGradient><linearGradient x1="257.05899" y1="181.26857" x2="244.70708" y2="181.26857" gradientUnits="userSpaceOnUse" id="color-25"><stop offset="0" stop-color="#ffffff"/><stop offset="1" stop-color="#ffffff" stop-opacity="0"/></linearGradient><linearGradient x1="241.26857" y1="162.94101" x2="241.26857" y2="175.29292" gradientUnits="userSpaceOnUse" id="color-26"><stop offset="0" stop-color="#ffffff"/><stop offset="1" stop-color="#ffffff" stop-opacity="0"/></linearGradient></defs><g transform="translate(-233.82404,-173.82404)"><g data-paper-data="{&quot;isPaintingLayer&quot;:true}" fill-rule="nonzero" stroke-linejoin="miter" stroke-miterlimit="10" stroke-dasharray="" stroke-dashoffset="0" style="mix-blend-mode: normal"><g><path d="M233.82405,186.17596v-12.35191h12.35191v12.35191z" fill="#d1b487" stroke="none" stroke-width="0" stroke-linecap="butt"/><path d="M235.3077,177.58975v0.71795" fill="none" stroke="#000000" stroke-width="0.5" stroke-linecap="round"/><g stroke="none" stroke-width="0" stroke-linecap="butt"><g><path d="M234.2499,180.04438c0,0 0,-1.38594 0,-1.71167c0,-0.13012 0.14116,-0.27314 0.27314,-0.27314c0.24281,0 1.07087,0 1.54778,0c0.20563,0 0.34597,0.19948 0.34597,0.36418c0,0.34746 0,1.62062 0,1.62062z" fill="#946a49"/><path d="M235.51695,183.99448c-0.37859,-0.8096 -1.26857,-3.97264 -1.26857,-3.97264h2.16993c0,0 0,3.42741 0,4.13956c0,0.24769 -0.19778,0.55445 -0.43814,0.40739c-0.15041,-0.09203 -0.3175,-0.26268 -0.46322,-0.5743z" fill="#e8e8e8"/><path d="M235.51695,183.99448c-0.37859,-0.8096 -1.26857,-3.97264 -1.26857,-3.97264h2.16993c0,0 0,3.42741 0,4.13956c0,0.24769 -0.19778,0.55445 -0.43814,0.40739c-0.15041,-0.09203 -0.3175,-0.26268 -0.46322,-0.5743z" fill="url(#color-1)"/><path d="M235.51695,183.99448c-0.37859,-0.8096 -1.26857,-3.97264 -1.26857,-3.97264h2.16993c0,0 0,3.42741 0,4.13956c0,0.24769 -0.19778,0.55445 -0.43814,0.40739c-0.15041,-0.09203 -0.3175,-0.26268 -0.46322,-0.5743z" fill="url(#color-2)"/><path d="M234.2499,180.04438c0,0 0,-1.38594 0,-1.71167c0,-0.13012 0.14116,-0.27314 0.27314,-0.27314c0.24281,0 1.07087,0 1.54778,0c0.20563,0 0.34597,0.19948 0.34597,0.36418c0,0.34746 0,1.62062 0,1.62062z" fill="url(#color-3)"/><path d="M234.2499,180.04438c0,0 0,-1.38594 0,-1.71167c0,-0.13012 0.14116,-0.27314 0.27314,-0.27314c0.24281,0 1.07087,0 1.54778,0c0.20563,0 0.34597,0.19948 0.34597,0.36418c0,0.34746 0,1.62062 0,1.62062z" fill="url(#color-4)"/></g><g><path d="M234.67709,179.64008c0,0 0,-0.83948 0,-1.03677c0,-0.07881 0.0855,-0.16544 0.16544,-0.16544c0.14707,0 0.64864,0 0.93751,0c0.12455,0 0.20956,0.12082 0.20956,0.22059c0,0.21046 0,0.98163 0,0.98163z" fill="#ffffff"/><g><path d="M234.67709,179.63603c0,0 0,-0.83948 0,-1.03677c0,-0.07881 0.0855,-0.16544 0.16544,-0.16544c0.14707,0 0.64864,0 0.93751,0c0.12455,0 0.20956,0.12082 0.20956,0.22059c0,0.21046 0,0.98163 0,0.98163z" fill="url(#color-5)"/><path d="M234.67709,179.63603c0,0 0,-0.83948 0,-1.03677c0,-0.07881 0.0855,-0.16544 0.16544,-0.16544c0.14707,0 0.64864,0 0.93751,0c0.12455,0 0.20956,0.12082 0.20956,0.22059c0,0.21046 0,0.98163 0,0.98163z" fill="url(#color-6)"/><path d="M234.67709,179.64412c0,0 0,-0.83948 0,-1.03677c0,-0.07881 0.0855,-0.16544 0.16544,-0.16544c0.14707,0 0.64864,0 0.93751,0c0.12455,0 0.20956,0.12083 0.20956,0.22059c0,0.21046 0,0.98163 0,0.98163z" fill="url(#color-7)"/><path d="M234.67709,179.63603c0,0 0,-0.83948 0,-1.03677c0,-0.07881 0.0855,-0.16544 0.16544,-0.16544c0.14707,0 0.64864,0 0.93751,0c0.12455,0 0.20956,0.12083 0.20956,0.22059c0,0.21046 0,0.98163 0,0.98163z" fill="url(#color-8)"/></g></g></g><path d="M237.54265,178.37906v-0.71795" fill="none" stroke="#000000" stroke-width="0.5" stroke-linecap="round"/><g stroke="none" stroke-width="0" stroke-linecap="butt"><path d="M240.68932,177.73891h0.82951v8.37135h-0.82951z" fill="#e2b97c"/><path d="M240.68932,186.11026v-8.37135h0.82951v8.37135z" fill="url(#color-9)"/><path d="M241.51883,177.73891v8.37135h-0.82951v-8.37135z" fill="url(#color-10)"/></g><g stroke="none" stroke-width="0" stroke-linecap="butt"><g data-paper-data="{&quot;index&quot;:null}"><path d="M237.40723,180.30437c0,0 0,-1.49232 0,-1.89959c0,-0.19306 0.01659,-0.29881 0.04089,-0.29881c0.05637,0 0.15425,0 0.18295,0c0.0156,0 0.03228,0.03958 0.03228,0.19209c0,0.38179 0,2.00631 0,2.00631z" fill="#946a49"/><path d="M237.40723,180.30437c0,0 0,-1.49232 0,-1.89959c0,-0.19306 0.01659,-0.29881 0.04089,-0.29881c0.05637,0 0.15425,0 0.18295,0c0.0156,0 0.03228,0.03958 0.03228,0.19209c0,0.38179 0,2.00631 0,2.00631z" fill="url(#color-11)"/><path d="M237.40723,180.30437c0,0 0,-1.49232 0,-1.89959c0,-0.19306 0.01659,-0.29881 0.04089,-0.29881c0.05637,0 0.15425,0 0.18295,0c0.0156,0 0.03228,0.03958 0.03228,0.19209c0,0.38179 0,2.00631 0,2.00631z" fill="url(#color-12)"/></g><g><path d="M237.37454,180.12092c0.35059,-0.25012 0.86691,-0.60332 0.86691,-0.60332c0,0 0.29714,0.76805 -0.02798,1.02805c-0.32512,0.26001 -1.09247,0.04269 -1.40085,0.04269c-0.10726,0 -0.2401,-0.13067 -0.17641,-0.28946c0.03985,-0.09937 0.60339,-0.08169 0.73834,-0.17797z" fill="#e8e8e8"/><path d="M237.37454,180.12092c0.35059,-0.25012 0.86691,-0.60332 0.86691,-0.60332c0,0 0.29714,0.76805 -0.02798,1.02805c-0.32512,0.26001 -1.09247,0.04269 -1.40085,0.04269c-0.10726,0 -0.2401,-0.13067 -0.17641,-0.28946c0.03985,-0.09937 0.60339,-0.08169 0.73834,-0.17797z" fill="url(#color-13)"/><path d="M237.37454,180.12092c0.35059,-0.25012 0.86691,-0.60332 0.86691,-0.60332c0,0 0.29714,0.76805 -0.02798,1.02805c-0.32512,0.26001 -1.09247,0.04269 -1.40085,0.04269c-0.10726,0 -0.2401,-0.13067 -0.17641,-0.28946c0.03985,-0.09937 0.60339,-0.08169 0.73834,-0.17797z" fill="url(#color-14)"/></g></g><g stroke="none" stroke-width="0" stroke-linecap="butt"><path d="M233.86561,177.90194v-0.82951h12.26877v0.82951z" fill="#e2b97c"/><path d="M246.13439,177.90194h-12.26877v-0.82951h12.26877z" fill="url(#color-15)"/><path d="M233.86561,177.07243h12.26877v0.82951h-12.26877z" fill="url(#color-16)"/></g><g stroke="none" stroke-width="0" stroke-linecap="butt"><path d="M242.99682,179.64854v-0.82951h1.49956v0.82951z" fill="#e2b97c"/><path d="M244.49638,179.64854h-1.49956v-0.82951h1.49956z" fill="url(#color-17)"/><path d="M242.99682,178.81903h1.49956v0.82951h-1.49956z" fill="url(#color-18)"/></g><path d="M241.46137,180.87333h4.62777v0.82951h-4.62777z" fill="url(#color-19)" stroke="none" stroke-width="0" stroke-linecap="butt"/><g stroke="none" stroke-width="0" stroke-linecap="butt"><path d="M243.02397,182.85517v-0.82951h1.49957v0.82951z" fill="#e2b97c"/><path d="M244.52353,182.85517h-1.49957v-0.82951h1.49957z" fill="url(#color-20)"/><path d="M243.02397,182.02566h1.49957v0.82951h-1.49957z" fill="url(#color-21)"/></g><path d="M241.48852,183.6697h4.62776v0.82951h-4.62776z" fill="url(#color-22)" stroke="none" stroke-width="0" stroke-linecap="butt"/><path d="M233.82405,174.66471v-0.77174h12.35191v0.77174z" fill="#b69d77" stroke="none" stroke-width="0" stroke-linecap="butt"/><g stroke="none" stroke-width="0" stroke-linecap="butt"><path d="M233.82405,186.17596v-12.35191h12.35191v12.35191z" fill="url(#color-23)"/><path d="M246.17595,186.17596h-12.35191v-12.35191h12.35191z" fill="url(#color-24)"/><path d="M246.17595,173.82404v12.35191h-12.35191v-12.35191z" fill="url(#color-25)"/><path d="M233.82405,173.82404h12.35191v12.35191h-12.35191z" fill="url(#color-26)"/></g></g></g></g></svg>