<svg version="1.1" xmlns="http://www.w3.org/2000/svg" xmlns:xlink="http://www.w3.org/1999/xlink" width="12.65956" height="12.4733" viewBox="0,0,12.65956,12.4733"><defs><linearGradient x1="243.87105" y1="183.86266" x2="240.18485" y2="193.42687" gradientUnits="userSpaceOnUse" id="color-1"><stop offset="0" stop-color="#000000" stop-opacity="0"/><stop offset="1" stop-color="#000000"/></linearGradient><linearGradient x1="247.50463" y1="170.13287" x2="243.81843" y2="179.69708" gradientUnits="userSpaceOnUse" id="color-2"><stop offset="0" stop-color="#ffffff"/><stop offset="1" stop-color="#ffffff" stop-opacity="0"/></linearGradient><linearGradient x1="243.2659" y1="183.26615" x2="240.17727" y2="191.2799" gradientUnits="userSpaceOnUse" id="color-3"><stop offset="0" stop-color="#000000" stop-opacity="0"/><stop offset="1" stop-color="#000000"/></linearGradient><linearGradient x1="246.31044" y1="171.76212" x2="243.22182" y2="179.77586" gradientUnits="userSpaceOnUse" id="color-4"><stop offset="0" stop-color="#000000"/><stop offset="1" stop-color="#000000" stop-opacity="0"/></linearGradient></defs><g transform="translate(-233.67022,-173.76335)"><g data-paper-data="{&quot;isPaintingLayer&quot;:true}" fill-rule="nonzero" stroke="none" stroke-width="0" stroke-linecap="butt" stroke-linejoin="miter" stroke-miterlimit="10" stroke-dasharray="" stroke-dashoffset="0" style="mix-blend-mode: normal"><path d="M233.92524,179.82211c0.51237,-1.3294 1.38453,-3.59229 1.66923,-4.33099c0.40593,-1.05323 2.17964,-2.06159 3.31966,-1.62222c2.27546,0.87698 1.81621,0.95988 5.9142,2.53929c1.42283,0.5484 1.8357,2.228 1.23312,3.79147c-0.64418,1.67142 -1.39394,3.61671 -1.7388,4.51142c-0.36105,0.93684 -1.60358,1.86911 -2.81961,1.40043c-3.9537,-1.52384 -3.93071,-1.77481 -6.2751,-2.6784c-1.14001,-0.43937 -2.00965,-1.77676 -1.30269,-3.61104z" fill="#dddddd"/><path d="M233.92524,179.82211c0.51237,-1.3294 1.38453,-3.59229 1.66923,-4.33096c0.40593,-1.05323 2.17964,-2.06163 3.31966,-1.62222c2.27546,0.87698 1.81621,0.95984 5.9142,2.53929c1.42286,0.5484 1.8357,2.228 1.23312,3.79147c-0.64419,1.67142 -1.39394,3.61671 -1.7388,4.51142c-0.36105,0.93684 -1.60358,1.86911 -2.81961,1.40043c-3.9537,-1.52384 -3.93071,-1.77481 -6.2751,-2.6784c-1.14001,-0.43937 -2.00965,-1.77675 -1.30269,-3.61103z" fill="url(#color-1)"/><path d="M233.92524,179.82211c0.51237,-1.3294 1.38453,-3.59229 1.66923,-4.33096c0.40593,-1.05323 2.17964,-2.06163 3.31966,-1.62222c2.27546,0.87698 1.81621,0.95984 5.9142,2.53929c1.42286,0.5484 1.8357,2.228 1.23312,3.79147c-0.64419,1.67142 -1.39394,3.61671 -1.7388,4.51142c-0.36105,0.93684 -1.60358,1.86911 -2.81961,1.40043c-3.9537,-1.52384 -3.93071,-1.77481 -6.2751,-2.6784c-1.14001,-0.43937 -2.00965,-1.77675 -1.30269,-3.61103z" fill="url(#color-2)"/><path d="M234.93243,179.88061c0.42932,-1.1139 1.16008,-3.00994 1.39863,-3.62889c0.34013,-0.88249 1.82629,-1.7274 2.7815,-1.35924c1.90657,0.7348 1.52179,0.80428 4.95544,2.12764c1.19219,0.45949 1.53812,1.8668 1.03321,3.17682c-0.53975,1.40047 -1.16796,3.0304 -1.45692,3.78006c-0.30251,0.78496 -1.34362,1.5661 -2.36251,1.1734c-3.31277,-1.2768 -3.2935,-1.48708 -5.25784,-2.2442c-0.9552,-0.36813 -1.68386,-1.48872 -1.09151,-3.02565z" fill="#dddddd"/><path d="M234.93243,179.88061c0.42932,-1.1139 1.16008,-3.00994 1.39863,-3.62886c0.34013,-0.88249 1.82629,-1.72743 2.7815,-1.35924c1.90657,0.7348 1.52179,0.80424 4.95544,2.12764c1.1922,0.45949 1.53812,1.86681 1.03321,3.17682c-0.53975,1.40047 -1.16796,3.03039 -1.45692,3.78005c-0.30251,0.78496 -1.34362,1.56611 -2.36251,1.17341c-3.31277,-1.2768 -3.2935,-1.4871 -5.25784,-2.24421c-0.9552,-0.36813 -1.68386,-1.48871 -1.09151,-3.02563z" fill="url(#color-3)"/><path d="M234.93243,179.88061c0.42932,-1.1139 1.16008,-3.00994 1.39863,-3.62886c0.34013,-0.88249 1.82629,-1.72743 2.7815,-1.35924c1.90657,0.7348 1.52179,0.80424 4.95544,2.12764c1.1922,0.45949 1.53812,1.86681 1.03321,3.17682c-0.53975,1.40047 -1.16796,3.03039 -1.45692,3.78005c-0.30251,0.78496 -1.34362,1.56611 -2.36251,1.17341c-3.31277,-1.2768 -3.2935,-1.4871 -5.25784,-2.24421c-0.9552,-0.36813 -1.68386,-1.48871 -1.09151,-3.02563z" fill="url(#color-4)"/></g></g></svg>