<svg version="1.1" xmlns="http://www.w3.org/2000/svg" xmlns:xlink="http://www.w3.org/1999/xlink" width="7.4366" height="10.93553" viewBox="0,0,7.4366,10.93553"><defs><linearGradient x1="240.01527" y1="180.87686" x2="241.10617" y2="180.87686" gradientUnits="userSpaceOnUse" id="color-1"><stop offset="0" stop-color="#000000" stop-opacity="0"/><stop offset="1" stop-color="#000000"/></linearGradient><linearGradient x1="238.42935" y1="181.42231" x2="239.52024" y2="181.42231" gradientUnits="userSpaceOnUse" id="color-2"><stop offset="0" stop-color="#ffffff"/><stop offset="1" stop-color="#ffffff" stop-opacity="0"/></linearGradient><linearGradient x1="242.56986" y1="176.21886" x2="242.56986" y2="170.1128" gradientUnits="userSpaceOnUse" id="color-3"><stop offset="0" stop-color="#000000" stop-opacity="0"/><stop offset="1" stop-color="#000000"/></linearGradient><linearGradient x1="242.67061" y1="184.05852" x2="242.67061" y2="177.95247" gradientUnits="userSpaceOnUse" id="color-4"><stop offset="0" stop-color="#ffffff"/><stop offset="1" stop-color="#ffffff" stop-opacity="0"/></linearGradient></defs><g transform="translate(-236.2817,-174.53223)"><g data-paper-data="{&quot;isPaintingLayer&quot;:true}" fill-rule="nonzero" stroke="none" stroke-width="0" stroke-linecap="butt" stroke-linejoin="miter" stroke-miterlimit="10" stroke-dasharray="" stroke-dashoffset="0" style="mix-blend-mode: normal"><g><g data-paper-data="{&quot;index&quot;:null}"><path d="M240.36363,176.10414c0,0 0,6.35623 0,8.0909c0,0.8223 -0.07065,1.27273 -0.17417,1.27273c-0.24009,0 -0.65698,0 -0.77922,0c-0.06644,0 -0.13751,-0.16858 -0.13751,-0.81817c0,-1.62616 0,-8.54546 0,-8.54546z" fill="#946a49"/><path d="M240.36363,176.10414c0,0 0,6.35623 0,8.0909c0,0.8223 -0.07065,1.27273 -0.17417,1.27273c-0.24009,0 -0.65698,0 -0.77922,0c-0.06644,0 -0.13751,-0.16858 -0.13751,-0.81817c0,-1.62616 0,-8.54546 0,-8.54546z" fill="url(#color-1)"/><path d="M240.36363,176.10414c0,0 0,6.35623 0,8.0909c0,0.8223 -0.07065,1.27273 -0.17417,1.27273c-0.24009,0 -0.65698,0 -0.77922,0c-0.06644,0 -0.13751,-0.16858 -0.13751,-0.81817c0,-1.62616 0,-8.54546 0,-8.54546z" fill="url(#color-2)"/></g><g><path d="M240.50287,176.88553c-1.49324,1.06534 -3.6924,2.5697 -3.6924,2.5697c0,0 -1.26559,-3.27134 0.11917,-4.37879c1.38477,-1.10745 4.65313,-0.18182 5.96663,-0.18182c0.45684,0 1.02264,0.55654 0.75139,1.23289c-0.16974,0.42325 -2.57003,0.34796 -3.14479,0.75802z" fill="#e8e8e8"/><path d="M240.50287,176.88553c-1.49324,1.06534 -3.6924,2.5697 -3.6924,2.5697c0,0 -1.26559,-3.27134 0.11917,-4.37879c1.38477,-1.10745 4.65313,-0.18182 5.96663,-0.18182c0.45684,0 1.02264,0.55654 0.75139,1.23289c-0.16974,0.42325 -2.57003,0.34796 -3.14479,0.75802z" fill="url(#color-3)"/><path d="M240.50287,176.88553c-1.49324,1.06534 -3.6924,2.5697 -3.6924,2.5697c0,0 -1.26559,-3.27134 0.11917,-4.37879c1.38477,-1.10745 4.65313,-0.18182 5.96663,-0.18182c0.45684,0 1.02264,0.55654 0.75139,1.23289c-0.16974,0.42325 -2.57003,0.34796 -3.14479,0.75802z" fill="url(#color-4)"/></g></g></g></g></svg>