<svg version="1.1" xmlns="http://www.w3.org/2000/svg" xmlns:xlink="http://www.w3.org/1999/xlink" width="14.36256" height="14.36256" viewBox="0,0,14.36256,14.36256"><defs><linearGradient x1="242.85609" y1="179.84062" x2="241.09611" y2="178.08064" gradientUnits="userSpaceOnUse" id="color-1"><stop offset="0" stop-color="#c7c7c7"/><stop offset="1" stop-color="#c7c7c7" stop-opacity="0"/></linearGradient><linearGradient x1="240.17553" y1="177.16007" x2="241.93552" y2="178.92005" gradientUnits="userSpaceOnUse" id="color-2"><stop offset="0" stop-color="#ffffff"/><stop offset="1" stop-color="#ffffff" stop-opacity="0"/></linearGradient><linearGradient x1="243.62553" y1="180.64869" x2="241.86555" y2="178.88872" gradientUnits="userSpaceOnUse" id="color-3"><stop offset="0" stop-color="#ffffff"/><stop offset="1" stop-color="#ffffff" stop-opacity="0"/></linearGradient><linearGradient x1="239.35129" y1="176.37446" x2="241.11128" y2="178.13444" gradientUnits="userSpaceOnUse" id="color-4"><stop offset="0" stop-color="#000000"/><stop offset="1" stop-color="#000000" stop-opacity="0"/></linearGradient><linearGradient x1="233.97299" y1="185.09036" x2="234.41243" y2="185.5298" gradientUnits="userSpaceOnUse" id="color-5"><stop offset="0" stop-color="#000000"/><stop offset="1" stop-color="#000000" stop-opacity="0"/></linearGradient><linearGradient x1="234.90963" y1="186.02699" x2="234.47019" y2="185.58755" gradientUnits="userSpaceOnUse" id="color-6"><stop offset="0" stop-color="#ffffff"/><stop offset="1" stop-color="#ffffff" stop-opacity="0"/></linearGradient><linearGradient x1="232.33027" y1="186.33716" x2="232.83313" y2="186.84002" gradientUnits="userSpaceOnUse" id="color-7"><stop offset="0" stop-color="#000000"/><stop offset="1" stop-color="#000000" stop-opacity="0"/></linearGradient><linearGradient x1="233.14741" y1="187.1543" x2="233.65026" y2="187.65715" gradientUnits="userSpaceOnUse" id="color-8"><stop offset="0" stop-color="#ffffff" stop-opacity="0"/><stop offset="1" stop-color="#ffffff"/></linearGradient><linearGradient x1="236.03982" y1="183.96383" x2="235.51182" y2="184.49181" gradientUnits="userSpaceOnUse" id="color-9"><stop offset="0" stop-color="#000000"/><stop offset="1" stop-color="#000000" stop-opacity="0"/></linearGradient><linearGradient x1="237.02622" y1="185.17611" x2="235.65544" y2="183.80533" gradientUnits="userSpaceOnUse" id="color-10"><stop offset="0" stop-color="#464646"/><stop offset="1" stop-color="#464646" stop-opacity="0"/></linearGradient><linearGradient x1="234.83816" y1="182.98806" x2="236.20894" y2="184.35884" gradientUnits="userSpaceOnUse" id="color-11"><stop offset="0" stop-color="#ffffff"/><stop offset="1" stop-color="#ffffff" stop-opacity="0"/></linearGradient><linearGradient x1="239.55269" y1="187.70258" x2="236.75907" y2="184.90897" gradientUnits="userSpaceOnUse" id="color-12"><stop offset="0" stop-color="#ffffff"/><stop offset="1" stop-color="#ffffff" stop-opacity="0"/></linearGradient><linearGradient x1="232.29741" y1="180.4473" x2="235.09103" y2="183.24092" gradientUnits="userSpaceOnUse" id="color-13"><stop offset="0" stop-color="#000000"/><stop offset="1" stop-color="#000000" stop-opacity="0"/></linearGradient></defs><g transform="translate(-232.69372,-172.94372)"><g data-paper-data="{&quot;isPaintingLayer&quot;:true}" fill-rule="nonzero" stroke-width="0.5" stroke-linejoin="miter" stroke-miterlimit="10" stroke-dasharray="" stroke-dashoffset="0" style="mix-blend-mode: normal"><g><g stroke="none" stroke-linecap="butt"><path d="M235.07285,183.16716c0,0 7.19742,-7.19742 8.04142,-8.04142c0.1577,-0.1577 0.45133,-0.36909 0.62588,-0.45949c0.45269,-0.23443 2.47965,-1.28411 3.17471,-1.64405c0.1473,-0.07628 0.18154,-0.02271 0.09323,0.1413c-0.37444,0.69538 -1.37934,2.56164 -1.62973,3.02664c-0.10988,0.20408 -0.37103,0.56248 -0.5544,0.74585c-0.90094,0.90094 -7.99114,7.99114 -7.99114,7.99114z" fill="#bfbfbf"/><path d="M235.97958,184.03526l-0.82132,-0.82132c0,0 7.09019,-7.09019 7.99114,-7.99114c0.18338,-0.18338 0.54178,-0.44452 0.74585,-0.5544c0.46501,-0.2504 2.33126,-1.2553 3.02664,-1.62973c0.164,-0.08831 0.05191,0.00383 0.05191,0.00383z" data-paper-data="{&quot;index&quot;:null}" fill="url(#color-1)"/><path d="M246.97366,173.04237c0,0 0.09215,-0.11211 0.00383,0.05191c-0.37444,0.69538 -1.37934,2.56163 -1.62973,3.02664c-0.10988,0.20408 -0.37103,0.56248 -0.5544,0.74586c-0.90094,0.90094 -7.99114,7.99114 -7.99114,7.99114l-0.82133,-0.82133z" fill="url(#color-2)"/><path d="M235.07285,183.16716c0,0 7.09019,-7.09019 7.99114,-7.99114c0.18338,-0.18338 0.54178,-0.44452 0.74585,-0.5544c0.46501,-0.2504 2.33126,-1.25529 3.02664,-1.62973c0.164,-0.08831 0.21758,-0.05407 0.1413,0.09323c-0.35994,0.69506 -1.40962,2.72204 -1.64405,3.17471c-0.09039,0.17455 -0.30178,0.46817 -0.45949,0.62588c-0.844,0.844 -8.04142,8.04142 -8.04142,8.04142z" data-paper-data="{&quot;index&quot;:null}" fill="url(#color-3)"/><path d="M235.07285,183.16716c0,0 7.19742,-7.19742 8.04142,-8.04142c0.1577,-0.1577 0.45133,-0.36909 0.62588,-0.45949c0.45269,-0.23443 2.47965,-1.28411 3.17471,-1.64405c0.1473,-0.07628 0.18154,-0.02271 0.09323,0.1413c-0.37444,0.69538 -1.37934,2.56164 -1.62973,3.02664c-0.10988,0.20408 -0.37103,0.56248 -0.5544,0.74585c-0.90094,0.90094 -7.99114,7.99114 -7.99114,7.99114z" fill="url(#color-4)"/></g><g fill="none" stroke-linecap="round"><g><path d="M235.78899,184.21099l-2.69535,2.69535" stroke="#f7b577"/><path d="M235.78899,184.21099l-2.69535,2.69535" data-paper-data="{&quot;index&quot;:null}" stroke="url(#color-5)"/><path d="M235.78899,184.21099l-2.69535,2.69535" data-paper-data="{&quot;index&quot;:null}" stroke="url(#color-6)"/></g><path d="M232.94372,186.95061l0.10567,0.10567" stroke="#969696"/><path d="M232.94372,186.95061l0.10567,0.10567" data-paper-data="{&quot;index&quot;:null}" stroke="url(#color-7)"/><path d="M232.94372,186.95061l0.10567,0.10567" data-paper-data="{&quot;index&quot;:null}" stroke="url(#color-8)"/></g><g stroke="none" stroke-linecap="butt"><path d="M235.31697,184.29696l0.528,-0.528l0.38971,0.38971l-0.528,0.528z" fill="url(#color-9)"/><path d="M234.25294,182.95343l0.51402,-0.51402l2.79362,2.79362l-0.51402,0.51402z" fill="#a3a3a3"/><path d="M234.28552,182.986l0.51402,-0.51402l1.37078,1.37078l-0.51402,0.51402z" data-paper-data="{&quot;index&quot;:null}" fill="url(#color-10)"/><path d="M235.6575,184.35798l0.51402,-0.51402l1.37078,1.37078l-0.51402,0.51402z" data-paper-data="{&quot;index&quot;:null}" fill="url(#color-11)"/><path d="M234.25294,182.95343l0.51402,-0.51402l2.79362,2.79362l-0.51402,0.51402z" data-paper-data="{&quot;index&quot;:null}" fill="url(#color-12)"/><path d="M234.25294,182.95343l0.51402,-0.51402l2.79362,2.79362l-0.51402,0.51402z" data-paper-data="{&quot;index&quot;:null}" fill="url(#color-13)"/></g></g></g></g></svg>