<svg version="1.1" xmlns="http://www.w3.org/2000/svg" xmlns:xlink="http://www.w3.org/1999/xlink" width="559.05405" height="249.6745" viewBox="0,0,559.05405,249.6745"><g transform="translate(27.4883,-110.25)"><g data-paper-data="{&quot;isPaintingLayer&quot;:true}" fill-rule="nonzero" stroke-linejoin="miter" stroke-miterlimit="10" stroke-dasharray="" stroke-dashoffset="0" style="mix-blend-mode: normal"><path d="M489.71764,276.50942c0.55466,0.05109 2.33731,0.37952 2.33731,2.49059c0,2.5 -2.5,2.5 -2.5,2.5l-1.78624,-0.35627c-3.07835,-1.94235 -7.15814,-2.57308 -10.40744,-0.51218c-1.23766,0.78501 -2.11149,2.13404 -3.45526,2.71913c-0.94979,0.41355 -2.07486,0.02535 -3.10472,0.13716c-2.68954,0.29199 -5.2804,1.51073 -7.77357,2.46705c-6.92835,0.08999 -14.26137,0.67509 -21.16089,0.03802c-2.95638,-0.27297 -5.75178,-1.49984 -8.67491,-2.01941c-3.25682,-0.57888 -8.92543,-0.6004 -12.1642,-0.01861c-4.64754,0.83484 -8.02959,3.9701 -12.97277,4.04511c0,0 -2.5,0 -2.5,-2.5c0,-2.5 2.5,-2.5 2.5,-2.5c4.38427,0.09755 7.79936,-3.17961 12.02723,-3.95489c3.72046,-0.68223 10.09798,-0.65203 13.8358,-0.01861c2.81239,0.47659 5.48377,1.72849 8.32509,1.98059c6.51113,0.5777 13.29663,-0.07876 19.83911,0.03802c2.62745,-1.10995 5.34893,-2.27201 8.22643,-2.53295c0.63083,-0.05721 1.32488,0.41256 1.89528,0.13716c1.0258,-0.49527 1.56728,-1.69594 2.54474,-2.28087c4.82678,-2.88848 10.23996,-2.38384 14.96901,0.14097z" fill="#66c7ff" stroke="none" stroke-width="0.5" stroke-linecap="butt"/><path d="M386.95508,195.27301c-0.60634,2.42535 -3.0317,1.81902 -3.0317,1.81902l-2.18009,-0.72436c-4.75286,-3.39817 -9.07477,-7.33711 -13.50721,-11.13619c0,0 -1.89814,-1.62698 -0.27116,-3.52512c1.62698,-1.89814 3.52512,-0.27116 3.52512,-0.27116c4.31917,3.70229 8.52507,7.5569 13.15945,10.86381l0.48658,-0.05769c0,0 2.42536,0.60634 1.81902,3.0317z" fill="#704bba" stroke="none" stroke-width="0.5" stroke-linecap="butt"/><path d="M483.05495,257c0,2.5 -2.5,2.5 -2.5,2.5h-2c-8.74205,-0.00014 -17.58159,0.12921 -26.27385,1.16064c-7.74228,0.9187 -15.40629,2.82599 -23.22615,2.83936c-6.16753,0 -12.84258,0.5977 -18.90045,-0.53228c-4.81393,-0.89795 -9.98207,-5.64863 -15.12678,-4.51283c-0.74658,0.16483 -1.37911,0.67781 -2.11288,0.89258c-0.6428,0.18814 -1.44917,-0.09387 -1.98569,0.30704c-0.29312,0.21903 0.10167,0.72613 0.11363,1.09184c0.01659,0.50696 0.01217,5.37286 0.01217,5.75365c0,0 0,2.5 -2.5,2.5c-0.69209,0 -1.19258,-0.1916 -1.55452,-0.4687c-0.88072,0.03331 -1.60745,-0.45117 -1.60745,-0.45117l-0.11485,-0.08013c-0.5004,0 -0.94523,0 -1.22319,0c0,0 -2.5,0 -2.5,-2.5c0,-0.30284 0.03669,-0.56901 0.10117,-0.80293c-0.21596,-0.20697 -0.44387,-0.39985 -0.69072,-0.57045c-1.96075,-1.35512 -5.47803,-1.12517 -7.68567,-1.12662c-2.73969,-0.0018 -5.57533,-0.26837 -8.21237,-1.10364c-3.49993,-1.10859 -5.15766,-3.07025 -7.28763,-5.89636c0,0 -0.26587,-0.35449 -0.42451,-0.87693c-1.0755,-0.69838 -1.07549,-2.12307 -1.07549,-2.12307v-3c0,-5.97635 -0.58194,-12.30008 0.01217,-18.24634c0.32486,-3.25144 1.39592,-5.43337 2.71655,-8.29829c1.19519,-2.59278 1.60717,-5.59731 1.7278,-8.49528c-0.46072,-0.3633 -0.83715,-0.95696 -0.83715,-1.92704c0,-1.45712 0.84929,-2.06497 1.55784,-2.31853c0.25128,-0.27416 0.59582,-0.50594 1.06819,-0.62614c0.37885,-0.86569 0.80101,-1.6895 1.56264,-2.18496c1.9051,-1.23934 4.84093,0.08392 6.91988,-0.34109c1.4199,-0.29029 2.73086,-0.97396 4.1144,-1.40549c1.20801,-0.37678 2.64659,-0.25672 3.65706,-1.01843c0.7468,-0.56295 0.54771,-1.82989 1.1114,-2.57614c0.74217,-0.98253 2.24588,-1.36212 2.72141,-2.49794c0.32985,-0.78787 0.11793,-1.66954 -0.04967,-2.54354c-1.22005,0.05886 -2.5026,0.26073 -3.48618,-0.37913c-0.02083,-0.01355 -0.04142,-0.02733 -0.06177,-0.04131c2.07388,-0.94756 3.76747,-2.5832 4.78884,-4.61496c2.8252,-0.18452 5.77705,0.02217 8.59927,0.02965c4.81311,0.01275 8.85057,1.38542 13.57682,1.50231c0.9796,0.02423 1.96296,-0.07943 2.9397,-0.00081c0.57463,0.04626 1.24383,0.74006 1.68867,0.37338c0.86359,-0.71185 0.53351,-2.44133 1.5015,-3.00301c1.37257,-0.79643 6.95272,-0.0957 8.42138,-0.34109c1.42946,-0.23884 2.74292,-0.93699 4.11439,-1.40549c10.00554,-3.26562 21.86444,-1.6298 32.3221,-1.6298c3.15096,0 8.397,0.75188 11.49303,0.05446c1.45727,-0.32827 2.71116,-1.25516 4.07269,-1.86968c5.63844,-2.54486 10.87504,-5.1554 16.18107,-8.33902l1.01998,-1.12554c0,0 1.76777,-1.76776 3.53553,0c1.76776,1.76776 0,3.53554 0,3.53554l-1.98303,1.87747c-5.47251,3.2835 -10.8744,6.05747 -16.72286,8.62061c-1.68503,0.73848 -3.26965,1.7919 -5.06543,2.19171c-0.29336,0.06531 -6.77468,0.05446 -8.02649,0.05446c-7.50751,0 -15.01501,0 -22.52252,0c-4.69702,0 -8.23125,-0.16117 -12.72295,1.37321c-3.14797,1.02744 -6.49261,1.80086 -9.79958,1.6298c-0.57572,-0.02978 -1.24383,-0.74006 -1.68867,-0.37338c-0.86359,0.71185 -0.53351,2.44133 -1.5015,3.00301c-1.24939,0.72495 -2.87468,0.30057 -4.31733,0.37337c-5.73086,0.28918 -10.83934,-1.51784 -16.51652,-1.5015c-1.64311,0.00473 -3.30484,0.05033 -4.96398,0.06499c0.08033,1.49653 0.3241,3.02658 -0.20711,4.39773c-0.57871,1.49373 -2.32668,2.22413 -3.28459,3.50807c-0.78075,1.04647 -0.84584,2.64816 -1.89161,3.42986c-1.52398,1.13915 -3.55585,1.35668 -5.35194,1.98458c-4.21875,1.47483 -4.33823,1.89504 -8.29807,1.6298c-0.5752,-0.03853 -1.21964,-0.70855 -1.68867,-0.37338c-0.56328,0.40252 -0.3865,1.3296 -0.57976,1.99441l-0.38352,0.14181c-0.07766,2.64589 -0.34471,5.272 -1.05717,7.84879c-1.0047,3.63376 -3.04596,6.2842 -3.42842,10.10467c-0.57817,5.77555 0.01217,11.9468 0.01217,17.75366v2.5074c0.31941,0.25182 0.5,0.4926 0.5,0.4926c0.60875,0.81627 1.97041,2.80198 2.87623,3.41289c4.21317,2.84151 10.60188,0.94755 15.22641,2.16082c2.24408,0.58875 4.23074,1.99088 5.99395,3.56392c-0.03587,-2.23787 0.16305,-4.54542 1.30444,-5.79214c0.98064,-1.07113 2.66863,-1.14693 4.0143,-1.69296c3.79952,-1.54173 7.76881,-1.42123 11.67124,-0.01722c2.69884,0.97099 5.19225,2.88735 8.08911,3.39697c5.81642,1.02323 12.18207,0.46772 18.09954,0.46772c7.60855,0.0144 15.10303,-1.91298 22.63779,-2.80462c8.88855,-1.05185 17.923,-1.19523 26.86221,-1.19538h2c0,0 2.5,0 2.5,2.5z" fill="#9966ff" stroke="none" stroke-width="0.5" stroke-linecap="butt"/><path d="M23.52973,144l22,53" fill="none" stroke="#000000" stroke-width="2" stroke-linecap="round"/><text transform="translate(-6.47027,132) scale(0.5,0.5)" font-size="40" xml:space="preserve" fill="#9966ff" fill-rule="nonzero" stroke="none" stroke-width="1" stroke-linecap="butt" stroke-linejoin="miter" stroke-miterlimit="10" stroke-dasharray="" stroke-dashoffset="0" font-family="Sans Serif" font-weight="normal" text-anchor="start" style="mix-blend-mode: normal"><tspan x="0" dy="0">surface</tspan></text><path d="M381.19639,170.33334l-7.66667,16" fill="none" stroke="#000000" stroke-width="2" stroke-linecap="round"/><text transform="translate(372.52973,164.66667) scale(0.5,0.5)" font-size="40" xml:space="preserve" fill="#704bba" fill-rule="nonzero" stroke="none" stroke-width="1" stroke-linecap="butt" stroke-linejoin="miter" stroke-miterlimit="10" stroke-dasharray="" stroke-dashoffset="0" font-family="Sans Serif" font-weight="normal" text-anchor="start" style="mix-blend-mode: normal"><tspan x="0" dy="0">cave entry</tspan></text><path d="M451.55495,282.5l6,-9.5" fill="none" stroke="#000000" stroke-width="2" stroke-linecap="round"/><text transform="translate(460.05495,276.359) scale(0.42555,0.42555)" font-size="40" xml:space="preserve" fill="#9966ff" fill-rule="nonzero" stroke="none" stroke-width="1" stroke-linecap="butt" stroke-linejoin="miter" stroke-miterlimit="10" stroke-dasharray="" stroke-dashoffset="0" font-family="Sans Serif" font-weight="normal" text-anchor="start" style="mix-blend-mode: normal"><tspan x="0" dy="0">lake</tspan></text><path d="M238.77973,305l-39.5,-32.5" fill="none" stroke="#000000" stroke-width="2" stroke-linecap="round"/><text transform="translate(117.77973,264.5) scale(0.5,0.5)" font-size="40" xml:space="preserve" fill="#9966ff" fill-rule="nonzero" stroke="none" stroke-width="1" stroke-linecap="butt" stroke-linejoin="miter" stroke-miterlimit="10" stroke-dasharray="" stroke-dashoffset="0" font-family="Sans Serif" font-weight="normal" text-anchor="start" style="mix-blend-mode: normal"><tspan x="0" dy="0">mineshaft</tspan></text><path d="M218.01171,233.71225l0.20943,0.12829c1.13004,-0.36534 2.21896,-0.89889 3.39011,-1.09601c0.87997,-0.14811 1.81849,0.32193 2.676,0.07499c1.93108,-0.5561 3.90415,-3.94692 4.68361,-5.0512c2.62743,-3.72232 4.7765,-7.63181 6.79506,-11.65445c0.50907,-1.01448 0.50546,-2.26113 1.11916,-3.21595c3.7706,-5.86642 11.16575,-9.98712 18.36339,-11.52294c-3.02824,-2.95771 -5.43325,-6.60884 -8.38692,-9.67866l-1.05927,-0.11236c-1.91638,0.6222 -3.73495,1.57947 -5.40382,2.70842c-2.14513,1.42611 -4.73683,2.16507 -6.73224,3.79407c-1.82295,1.4882 -2.2156,4.23671 -3.88674,5.89357c-2.06294,2.04531 -5.06645,3.01127 -7.51295,4.39451c-1.74492,0.98656 -3.09226,2.55257 -4.67847,3.77812c-3.47364,2.68383 -7.8618,5.46438 -11.79218,7.42669c-2.37488,1.1857 -5.18512,1.40824 -7.46983,2.75954c-2.57758,1.52452 -4.21143,5.10951 -6.6333,7.12346c0.44034,0.12359 0.87933,0.25342 1.31682,0.39023c-0.63931,1.31765 -0.99784,2.7968 -0.99784,4.35969c0,0.19136 0.00537,0.38146 0.01598,0.57016c-1.72863,-0.52639 -3.53435,-0.82808 -5.32144,-1.08889c-4.46225,-0.65122 -8.7084,-2.25545 -13.095,-3.01355c-2.90214,-0.50155 -6.07763,0.47973 -9,0c-2.36339,-0.38797 -4.52395,-1.72821 -6.905,-1.98645c-3.21268,-0.34844 -6.46302,0.01873 -9.69454,0.01873c-3.11557,0 -7.43785,-0.56134 -10.59954,-0.03228c-2.07928,0.34793 -3.92033,1.65445 -6,2c-3.32697,0.5528 -5.50503,-0.16993 -8.77612,0.95307c-3.11744,0.58113 -6.35303,0.70001 -9.35783,1.71358c-2.69835,0.9102 -5.06173,2.83806 -7.86605,3.33335c-0.98628,0.1742 -2.01652,-0.16266 -3.00465,0.00075c-2.76114,0.45662 -5.37226,1.67364 -8.14946,2.01936c-1.93372,0.24072 -3.92571,-0.35196 -5.84589,-0.02011c-4.05911,0.7015 -7.92218,2.30249 -11.99227,2.99873c-3.64596,0.62369 -7.06909,0.90921 -10.70922,1.93385c-2.96023,0.83325 -7.74929,0.33466 -10.46722,1.7752c-0.80569,0.42703 -1.12337,1.50282 -1.91742,1.95113c-1.20091,0.67801 -2.60925,0.89406 -3.91387,1.34109c-3.5624,0 -5.56358,1.4106 -9,2c-3.94326,0.67633 -8.05595,0.36403 -12,1c-1.70974,0.27569 -3.19749,1.30008 -4.74787,1.96214c-2.71518,1.15945 -5.63756,1.76079 -8.42084,2.74564c-0.37976,0.13438 -0.84635,0.38555 -0.92205,0.78121c-0.19101,0.9983 0.17695,2.02697 0.1903,3.04329c0.01435,1.09234 -0.32456,2.20494 -0.10727,3.27554c0.98629,4.85955 8.76835,-0.32502 11.20681,-0.74326c1.99841,-0.34276 4.07646,-0.35882 6,-1c7.00976,-0.05142 13.83329,-0.04651 20.70591,0.98645c5.48596,0.82454 11.50532,4.05994 16.65125,6.17157c0.13553,0.05561 8.25887,4.12146 8.35762,4.18307c0.55387,0.34561 5.46067,4.22388 6.78405,4.88084c1.01666,0.5047 2.24453,0.53209 3.21595,1.11916c0.69872,0.42226 0.85747,1.59237 1.64238,1.81693c2.25803,0.646 4.69467,-0.1903 7.04329,-0.1903c0,0 1.20218,0 1.93924,0.83365c0.69012,-0.20044 1.32808,-0.07285 1.32808,-0.07285l2.72208,0.55509c3.20774,1.2831 6.32849,1.44346 9.62408,2.54044c3.73339,1.24271 7.84637,3.35761 11.20208,5.38541c4.87505,4.84205 11.3924,8.45529 18.30822,9.49468c4.09821,0.61593 8.56843,-0.20868 12.62602,0.52094c3.56689,0.64139 6.84747,2.66749 10.04766,4.17263c3.09126,1.4539 6.62683,0.69686 9.50029,2.79797c0.85467,0.62495 1.31952,1.6562 1.97928,2.48429c0,0 0.83637,1.11515 0.42735,2.30459c1.05536,0.70958 2.25338,1.2233 3.54199,1.4891c-0.30711,0.63542 -0.93193,1.2818 -2.20313,1.2818c-0.77788,0 -1.31372,-0.24204 -1.68284,-0.57549c-18.5308,0 -37.06159,0 -55.59238,0h-2c0,0 -0.10309,0 -0.26741,-0.02094c0.00048,0.19029 0.00123,0.38048 0.00226,0.5706c-0.32984,-0.03285 -0.66439,-0.04966 -1.00287,-0.04966c-1.41891,0 -2.76881,0.29552 -3.99149,0.82837c-0.00419,-0.46175 -0.00692,-0.92396 -0.00799,-1.38666c-6.02418,-1.25596 -12.87667,-3.00564 -17.54172,-6.73149c-4.13957,-3.30617 -6.54042,-10.23669 -11.61996,-12.49624c-10.28439,-4.57486 -22.93538,-4.78918 -33.94776,-6.2124c-3.71184,-0.00203 -6.69936,-0.09531 -10.17872,0.89478c-0.62532,0.17794 -1.40333,-0.12341 -1.93406,0.25211c-4.10232,2.90265 -3.72527,9.10769 -8.29482,11.14995c-4.53645,2.02746 -9.63558,-0.41803 -14.03652,-1.36035c-4.47526,-0.95824 -8.37347,-1.43807 -12.94698,-1.43807h-0.5c0,0 -2.5,0 -2.5,-2.5c0,-2.5 2.5,-2.5 2.5,-2.5h0.5c4.92212,0 9.25151,0.53226 14.05302,1.56194c3.48867,0.74814 7.29737,2.68775 10.96349,1.63964c1.64209,-0.46946 0.50169,-1.17837 1.20123,-2.722c0.97371,-2.14864 4.82098,-6.95761 6.50395,-8.12804c0.86363,-0.60062 2.0615,-0.43535 3.06595,-0.74789c4.05619,-1.26211 7.65183,-1.10766 11.92815,-1.0915c11.60228,1.48095 25.20737,1.6888 35.94537,6.77388c5.57721,2.64114 7.89767,9.39369 12.43578,13.03162c4.65851,3.73445 12.16731,5.08569 17.89336,6.23091c0,0 0.0408,0.00815 0.1108,0.02763c0.72717,-0.57618 1.66693,-0.57618 1.66693,-0.57618c14.26574,0 29.69959,0 44.51612,0c-0.17739,-0.06643 -0.35336,-0.1387 -0.52754,-0.21774c-2.8804,-1.30701 -5.76166,-3.23866 -8.95234,-3.82737c-3.93675,-0.72637 -8.37187,0.14873 -12.37398,-0.47906c-7.69579,-1.20718 -15.25496,-5.02866 -20.69178,-10.50532c-2.92563,-1.73769 -6.5813,-3.54065 -9.79792,-4.61459c-3.16298,-1.05603 -6.26591,-1.21556 -9.37592,-2.45956l-2.27792,-0.44491c0,0 -0.84979,-0.16996 -1.44864,-0.81007c-0.46115,0.14637 -0.83809,0.14637 -0.83809,0.14637c-1.87688,0 -8.17819,0.03193 -8.95671,-0.1903c-1.0299,-0.29399 -1.43755,-1.6348 -2.35762,-2.18307c-0.83616,-0.49826 -1.91465,-0.44316 -2.78405,-0.88084c-5.22156,-2.62865 -9.31925,-6.67187 -14.85833,-8.93609c-2.67058,-1.09166 -5.49241,-1.8145 -8.10196,-3.04492c-3.3237,-1.56714 -3.70973,-2.30914 -7.24679,-2.78351c-6.44271,-0.86406 -12.73106,-0.95469 -19.29409,-1.01355c-1.92354,0.64118 -3.99824,0.67743 -6,1c-4.72881,0.76201 -9.12716,5.26183 -13.91794,1.51905c-1.35053,-1.05509 -2.33542,-2.63574 -2.87525,-4.26231c-0.49617,-1.49504 -0.12078,-3.14929 -0.10727,-4.72446c0.01418,-1.65339 -0.42346,-3.42139 0.1903,-4.95671c1.53034,-3.82812 4.35575,-3.35554 7.54053,-4.42202c3.39628,-1.13731 6.79307,-3.47893 10.36872,-4.08899c1.97151,-0.33637 4.02921,0.34059 6,0c1.99797,-0.34529 3.99824,-0.67743 6,-1c3.25448,-0.52443 5.56232,-2 9,-2c1.58004,-0.49906 2.6741,-1.99242 4.16871,-2.70778c3.69533,-1.76869 7.68585,-1.10776 11.53278,-2.2248c3.8069,-1.10542 7.46559,-1.44423 11.29078,-2.06615c2.08341,-0.33873 3.92735,-1.64445 6.00773,-2.00127c4.03372,-0.69185 8.07506,-0.51595 12.15411,-1.02011c2.67846,-0.33105 5.18938,-1.5312 7.85054,-1.98064c0.98451,-0.16627 2.00863,0.15336 2.99535,0.00075c2.19881,-0.34008 5.42396,-2.58769 7.07822,-3.13879c0.2763,-0.09205 8.95462,-1.6777 9.6979,-1.81428c3.34331,-1.08572 5.91836,-0.49381 9.22388,-1.04693c2.07928,-0.34793 3.92033,-1.65445 6,-2c3.44067,-0.57169 7.97659,-0.03228 11.40046,-0.03228c0.40244,0 10.08836,-0.00588 10.30546,0.01873c2.44274,0.27697 4.67131,1.60192 7.095,2.01355c2.90519,0.4934 6.07497,-0.47176 9,0c1.04064,0.16784 1.96025,0.82671 3,1c2.04284,0.34047 4.0921,0.64655 6.13326,0.98745c0.2977,-2.01973 2.46628,-2.01973 2.46628,-2.01973c4.24198,0.39508 6.2075,-5.51914 9.68567,-7.62663c2.3818,-1.44318 5.32486,-1.70728 7.81494,-2.95437c5.96531,-2.98757 10.5861,-7.81679 16.24457,-11.08128c0.98775,-0.56986 5.32567,-2.43027 6.48705,-3.60549c1.72506,-1.74563 2.2398,-4.52112 4.11326,-6.10643c2.13669,-1.80805 4.94101,-2.65006 7.26776,-4.20593c1.51937,-1.00063 3.12949,-1.88982 4.80718,-2.60543c-0.31148,-0.25805 -0.64198,-0.48706 -1.0074,-0.66313c-1.55564,-0.74955 -3.45169,0.14093 -5.17849,0.14093c-4.27891,0 -7.58124,-0.49357 -11.43763,1.43463c-4.89959,0 -7.40696,3.53358 -12.01201,4.5045c-1.45853,0.30751 -3.00003,-0.24429 -4.47177,-0.00797c-0.65401,0.10502 -1.1349,0.68415 -1.71626,1.00161c-4.5804,2.50116 -8.1862,6.0244 -13.09453,7.94693c-3.51994,1.37871 -7.87038,1.59719 -11.57915,2.36344c-3.32991,0.68798 -6.57532,1.8237 -9.94776,2.25764c-0.19101,0.02458 -8.93835,0.01873 -9.31447,0.01873c-6.1396,0 -12.27898,0.00813 -18.41847,-0.03228c-1.5015,-0.5005 -2.94434,-1.23523 -4.5045,-1.50151c-3.84962,-0.65702 -7.13778,0.73789 -10.91315,-0.94029c-1.5145,-0.6732 -2.76068,-1.87919 -4.29615,-2.50309c-2.80239,-1.13869 -5.93915,-1.53918 -8.52653,-3.10617c-1.25884,-0.76238 -2.24443,-1.99882 -3.6152,-2.53445c-0.83208,-0.32513 -1.80276,0.24899 -2.679,0.07498c-1.55241,-0.30828 -2.95456,-1.18109 -4.50451,-1.5015c-3.41984,-0.70697 -8.16974,0.03228 -11.61155,0.03228c-5.11989,0 -11.08937,-0.89019 -16.11606,-0.03228c-1.56016,0.26628 -2.95252,1.19107 -4.5045,1.5015c-0.92477,0.18498 -1.91205,-0.25479 -2.82908,-0.0346c-2.17644,0.5226 -3.98727,2.03619 -6.00601,3.00301c-1.55947,0.01153 -3.13869,-0.21302 -4.67843,0.0346c-3.95459,0.63598 -7.54003,3.39703 -11.23744,4.68422c-1.4372,0.50034 -3.10837,0.30718 -4.44778,1.02956c-1.33118,0.71795 -1.90386,2.50544 -3.27804,3.1372c-2.9586,1.3602 -7.78889,-0.49786 -10.89284,0.12342c-3.50795,0.70215 -7.00781,3.61871 -10.51051,4.5045c-1.02671,0.25965 -2.13845,-0.17308 -3.17693,0.03459c-1.55199,0.31036 -2.9424,1.24687 -4.5045,1.5015c-5.32495,0.86799 -11.50701,0.03228 -16.91697,0.03228c0,0 -2.5,0 -2.5,-2.5c0,-2.5 2.5,-2.5 2.5,-2.5c5.11989,0 11.08937,0.89019 16.11606,0.03229c1.56016,-0.26628 2.95252,-1.19107 4.50451,-1.50151c0.92477,-0.18498 1.9134,0.26033 2.82908,0.0346c3.494,-0.86134 6.96944,-3.79672 10.51051,-4.5045c0.04139,-0.00827 6.95581,-0.10932 8.08189,-0.06688c0.68456,0.0258 1.44886,0.52548 2.0463,0.1903c1.15084,-0.64566 1.56409,-2.24694 2.72796,-2.8688c1.59815,-0.85389 3.54583,-0.79031 5.25364,-1.39579c5.9253,-2.10076 9.85215,-4.92034 16.42475,-4.86784c10.98954,-5.82889 23.36826,-4.57138 35.60442,-4.57138c2.47084,0 4.98682,-0.43818 7.41246,0.03229c1.55376,0.30136 2.95291,1.18916 4.5045,1.5015c1.08747,0.21891 2.29158,-0.32301 3.32701,0.07499c2.77512,1.06673 4.86319,3.56779 7.66636,4.55848c1.59071,0.56219 3.34524,0.60036 4.90835,1.23527c1.55275,0.6307 2.8358,1.8022 4.3481,2.52454c2.98978,1.42804 6.67523,0.10961 9.78021,0.61574c1.56211,0.25463 3.00301,1.001 4.50451,1.5015c5.87244,-0.04619 11.74497,-0.03228 17.61756,-0.03228c2.90119,0 5.82683,0.39471 8.70355,0.01873c3.23748,-0.42314 6.34931,-1.53063 9.54672,-2.19162c3.50738,-0.72508 7.64438,-0.91027 10.96842,-2.1963c5.41521,-2.09509 9.37552,-7.92395 15.21924,-9.06948c1.48417,-0.29094 3.05075,0.27087 4.53724,-0.00796c3.09673,-0.58088 5.91384,-3.70182 9.00901,-4.5045c0.96895,-0.25128 2.002,0 3.003,0c4.13493,-2.06746 8.03854,-1.56838 12.58639,-1.56838c0.81725,0 6.42353,-0.0368 6.83353,0.14093c7.93096,3.43803 11.23497,12.19154 17.59073,17.3164c2.02234,1.63068 6.18237,0.56069 8.60878,0.56069c3.66867,0 7.33733,0 11.006,0c2.64647,0 5.34413,0.58629 7.93913,0.06688c2.3811,-0.4766 4.45338,-1.96076 6.76756,-2.69651c0.35217,-0.36298 5.00796,-5.19728 5.68233,-5.76801c1.86536,-1.57869 4.24108,-2.56758 5.87624,-4.38364c1.63516,-1.81606 2.74133,-4.06664 4.38364,-5.87624c1.91148,-2.10618 4.15654,-3.89683 6.03182,-6.03531c3.99695,-4.55793 7.15498,-12.33521 13.23356,-14.26256c2.58936,-0.82102 5.43238,-0.08364 8.14878,-0.08364c3.66364,0 7.34465,-0.08232 11.00601,0c1.15619,0.02599 2.44631,-0.35862 3.46422,0.1903c1.69074,0.91175 2.72677,2.71335 4.2019,3.94375c2.58743,2.15817 5.32441,4.14719 7.77282,6.46188c1.30052,1.24726 2.77749,2.33343 3.90157,3.74178c0.84298,1.05617 1.16422,2.46789 1.6536,3.75347c-0.07292,0.03696 -0.14532,0.07478 -0.2172,0.11346c0.78614,1.38511 -0.34766,2.74567 -0.34766,2.74567c-1.64715,1.97658 -3.32012,4.62527 -5.27712,6.28345c-3.44887,2.92224 -8.13455,4.81689 -12.27605,6.58372c0.22697,0.93383 -0.21465,1.81707 -0.21465,1.81707c-1.30556,2.60215 -3.82288,5.35467 -4.26834,8.28242c-0.53012,3.4842 0.03228,7.57417 0.03228,11.09955c0,4.47405 -0.44999,9.12315 0.45145,13.50971l0.04855,1.49029c0,0 0,2.5 -2.5,2.5c-0.96929,0 -1.56277,-0.37581 -1.92615,-0.83602c-1.8419,0.31837 -3.65452,0.81765 -5.47122,1.26229c-1.83083,0.4481 -3.77947,0.16971 -5.62986,0.52861c-2.56442,0.4974 -6.76947,2.28959 -8.82763,3.92753c-2.81029,2.23651 -0.02142,5.09308 -1.33544,8.07429c-1.66823,3.78483 -5.63353,3.97486 -8.85299,5.35299c-4.37279,1.87183 -7.86428,2.72099 -12.50601,3.64934c-2.90362,0.48394 -5.82389,0.90486 -8.61322,1.89651c-1.30425,0.46368 -2.48409,1.29067 -3.83481,1.59339c-4.66818,1.04622 -10.00001,-0.44921 -14.75632,0.03889c-6.57046,0.67428 -12.47995,2.51216 -19.24634,2.51216l-0.70943,0.37171c0,0 -0.93622,0.31207 -1.82829,-0.04413c-1.1904,0.63657 -2.23195,1.60177 -3.39795,2.29905c-1.04951,0.62761 -4.37367,1.08492 -5.32756,2.39086c-0.57531,0.78764 -0.35032,1.96531 -0.86014,2.79684c-0.59298,0.96718 -1.55666,1.65123 -2.35886,2.45344c-1.07108,1.07108 -2.32497,2.03364 -3.69213,2.7322c5.33186,-0.00489 10.61366,-0.52089 15.71493,1.12833l0.70776,0.34534c6.00437,-0.32502 11.41308,-3.39664 17.54547,-3.96511c11.27911,-1.04557 22.83994,-0.50852 34.2062,-0.50852c5.50909,0 11.27291,0.48174 16.75366,0.01216c3.82909,-0.32806 6.94104,-2.44898 10.95254,-2.00365c1.32918,0.14756 2.73744,0.17885 3.93775,0.76856c2.98763,1.46783 4.66882,6.4918 8.02338,7.31363c1.64457,0.4029 3.39381,-0.24307 5.07901,-0.07855c3.44945,0.33675 6.75552,0.48784 10.25365,0.48784c0.50148,0 7.1241,-0.00966 7.40046,0.03228c3.53091,0.53582 6.43105,1.98753 10.09954,1.96772h0.5c0,0 0.12851,0 0.32727,0.02914c0.13961,-0.019 0.2887,-0.02914 0.44795,-0.02914c2.5,0 2.5,2.5 2.5,2.5c-0.02401,3.32522 -0.30936,7.75669 -2.51571,10.52072c-2.92364,3.66262 -8.1294,3.06639 -12.23795,3.46712c-2.88506,0.28139 -5.64983,1.27987 -8.56912,1.50588c-8.2822,0.64119 -16.86331,0.00629 -25.17722,0.00629c-3.43511,-0.00588 -8.37411,0.18363 -11.66733,-0.59071c-2.36178,-0.55533 -4.31207,-2.27337 -6.61561,-3.03505c-5.39682,-1.78449 -11.15,-3.29465 -16.71698,-4.42473c-4.05782,-0.82373 -8.09794,-0.16803 -12.1773,-0.45579c-11.22246,-0.79165 -22.54582,-0.49371 -33.82278,-0.49371c-4.33334,0 -8.66666,0 -13,0h-1.14818c-0.49104,1.22436 -1.94083,1.46598 -1.94083,1.46598c-4.00427,0.64591 -7.26759,2.61424 -11.08675,3.89424c-10.96485,3.67488 -21.46925,8.15639 -31.88367,12.96681c-0.28741,0.26796 -0.67896,0.48033 -1.21239,0.56164c-0.46714,0.21702 -0.93412,0.43466 -1.40099,0.65289c0.12846,-0.21526 0.24906,-0.43576 0.3614,-0.6611c-1.9548,-0.3341 -1.9548,-2.45595 -1.9548,-2.45595c0,-4.06439 -0.69741,-9.42352 0.04511,-13.47277c0.30938,-1.68717 1.667,-3.06665 1.96536,-4.7558c0.20973,-1.18738 -1.11052,-2.137 -1.59981,-2.8986c-3.70264,-5.76331 -6.76229,-9.81877 -13.0675,-12.70999c-0.12592,-0.04131 -0.25192,-0.09492 -0.37525,-0.16358c-0.29135,-0.01045 -2.4679,-0.16657 -2.4679,-2.49925c0,-2.5 2.5,-2.5 2.5,-2.5l1.25456,0.17079c3.59435,-1.03108 7.60892,-1.21081 10.98533,-2.66989c1.10282,-0.47657 1.88894,-1.53931 2.99872,-1.99944c1.49502,-0.61985 3.10584,-0.95203 4.70593,-1.19498c0.85108,-0.12923 1.7613,0.3515 2.581,0.08854c2.45798,-0.78852 4.13526,-3.09114 6.22446,-4.60727c1.12392,-0.81562 2.62558,-1.24198 3.41729,-2.38287c0.75149,-1.08291 0.23267,-2.71644 0.90721,-3.84888c0.7597,-1.27541 1.87922,-2.43813 3.21879,-3.07795c1.07072,-0.51141 2.38775,0.04837 3.55625,-0.15802c1.03802,-0.18334 1.95936,-0.83216 3,-1c4.96246,-0.80036 10.7734,-0.04773 15.80091,0c2.46192,0.79669 5.04346,1.21599 7.46691,2.12301c1.34274,0.50254 4.64052,2.62342 6.53309,2.87699c2.44137,0.3271 4.56463,-0.39278 7,0c2.35235,0.37939 4.6443,1.05756 6.96773,1.58733l-0.26693,-0.32904c-1.05215,-3.15644 -2.11487,-5.71706 -2.02102,-9.06611c-3.57801,-5.09155 -9.46726,-4.89325 -14.9083,-3.32416c-2.11831,0.61088 -4.50547,0.57345 -6.38464,1.72633c-0.91293,0.56008 -1.35506,1.80624 -2.35762,2.18307c-4.11148,1.54538 -10.141,-0.36588 -13.91342,-2c-1.24655,-0.53997 -2.29233,-1.57838 -3.61767,-1.87658c-2.54509,-0.57263 -5.25181,0.45719 -7.82607,0.0346c-0.06765,-0.01111 -0.13526,-0.02264 -0.20283,-0.03459c0.91072,-1.40459 1.47857,-3.05211 1.58504,-4.82402c1.30873,0.1266 2.64519,-0.03793 3.97471,-0.14748c0.72127,-0.96163 2.04354,-0.96163 2.04354,-0.96163zM261.01171,205.71225c-6.77649,-0.08415 -16.19986,3.91609 -19.87337,9.81433c-0.51458,0.82622 -0.44689,1.91278 -0.88084,2.78405c-2.74122,5.50373 -5.96303,12.38237 -10.52775,16.71776c-1.57546,1.4963 -2.97673,2.07795 -4.41667,2.4056c2.21033,0.80534 4.25512,1.1951 6.69863,1.27827c0.68365,0.02327 1.41748,0.46649 2.04329,0.1903c0.7469,-0.32963 0.93857,-1.40321 1.64238,-1.81693c1.64532,-0.96715 5.88918,-1.78471 7.61536,-2.27367c5.8876,-1.66775 13.70138,-2.2676 18.46674,2.63253c1.12029,1.15197 1.74998,2.69554 2.62496,4.04331c0.07787,3.45191 0.89464,5.68089 1.97898,8.93389l0.39606,0.0228c0,0 1.15572,1.15572 0.66374,2.53269c2.43999,-0.01262 5.04756,-0.26492 7.09552,-0.26492c7.03494,0 12.5938,0.49185 18.61325,-3.58013l2.38675,-0.41987c0,0 2.36804,0 2.49473,2.3047c0.75233,-0.18414 1.51595,-0.34605 2.29556,-0.47599c4.34499,-0.869 7.41843,-1.60189 11.49399,-3.35066c0.81838,-0.35116 5.71475,-1.21001 6.14701,-2.64701c0.61174,-2.03365 -0.77255,-4.37407 -0.04937,-6.37081c0.50767,-1.40171 1.62851,-2.53295 2.71393,-3.5549c2.35228,-2.21475 8.00541,-4.42478 11.17237,-5.07247c1.76049,-0.36005 3.6293,-0.02593 5.37014,-0.47139c1.90046,-0.4863 3.80803,-0.97686 5.73976,-1.31704c-0.53265,-4.85359 -0.13713,-9.90192 -0.13713,-14.75668c0,-2.74123 -0.44258,-6.21292 0.03228,-8.90045c0.56802,-3.21478 2.53279,-5.76462 4.09893,-8.53297c-0.04325,-0.05685 -0.08595,-0.11674 -0.12801,-0.17983c-1.38675,-2.08013 0.69338,-3.46688 0.69338,-3.46688l2.40195,-1.55107c3.74344,-1.60433 8.19248,-3.25982 11.34136,-5.91939c1.54715,-1.30673 2.88622,-3.36952 4.19073,-5.05227c-0.19243,-0.35595 -0.41879,-0.70761 -0.69768,-1.05236c-0.96319,-1.19064 -2.2387,-2.09038 -3.35805,-3.13557c-2.38092,-2.26054 -5.11157,-4.12445 -7.58031,-6.28874c-1.06378,-0.93259 -1.69088,-2.34436 -2.86916,-3.12731c-0.43378,-0.28824 -1.03021,0.17518 -1.5508,0.1903c-1.66596,0.04839 -3.33333,0 -5,0c-3.88396,0 -9.20124,-1.03472 -12.87223,-0.08365c-2.71699,0.70391 -3.0872,2.92807 -4.62924,5.06529c-1.92326,2.66558 -3.99247,5.22922 -6.16123,7.69918c-1.85951,2.11775 -4.08151,3.89401 -5.98019,5.97671c-1.72555,1.89279 -2.89433,4.248 -4.62537,6.13577c-1.73104,1.88777 -4.17893,2.97281 -6.13577,4.62538c-2.2643,1.91222 -4.20903,4.17362 -6.32968,6.24399c-2.79899,0.96976 -5.34268,2.7289 -8.24746,3.3095c-6.20856,1.24095 -13.73317,0.06688 -20.0939,0.06688c-2.09934,0 -4.42538,0.30412 -6.63813,0.1426c-0.72155,0.54712 -1.62945,0.54712 -1.62945,0.54712zM254.13828,255.67997c-2.29925,-0.39736 -4.69235,0.34522 -7,0c-3.50114,-0.52376 -4.13004,-1.86907 -7.46691,-3.12301c-2.12098,-0.79703 -4.39132,-1.13763 -6.53309,-1.87699c-4.51223,0.05603 -9.77185,-0.76512 -14.19909,0c-1.0387,0.17951 -1.95829,0.83888 -3,1c-0.80669,0.12477 -1.64945,-0.3462 -2.44375,-0.15802c-1.75419,0.41559 -0.81051,3.61753 -1.874,5.07317c-1.14805,1.57137 -3.04131,2.42916 -4.58271,3.61713c-0.95734,0.73783 -6.33668,4.90083 -7.77554,5.39273c-2.13605,0.73025 -4.65114,-0.02536 -6.71308,0.89356c-1.09819,0.48942 -1.8926,1.5354 -3.00128,2.00056c-2.037,0.85467 -4.23891,1.29738 -6.44879,1.72306c3.97243,2.93822 6.81921,6.6405 9.77803,11.32951c1.58364,2.5097 2.63551,2.55476 2.40019,6.1014c-0.12414,1.87091 -1.70313,3.39872 -2.03464,5.2442c-0.44549,2.48003 -0.2776,5.56567 -0.11574,8.44736c9.63915,-4.43624 19.53185,-8.34709 29.60282,-11.70486c3.96793,-1.32295 7.34065,-3.22301 11.44833,-4.02081c0.50463,-1.61897 2.37591,-1.61897 2.37591,-1.61897c4.33334,0 10.66666,0 15,0c11.3937,0 22.83829,-0.31422 34.17722,0.50629c4.3118,0.31201 8.52045,-0.30475 12.8227,0.54421c5.74788,1.13423 11.72721,2.70995 17.28302,4.57527c2.2244,0.74683 4.09519,2.44991 6.38439,2.96495c1.14176,0.25689 2.34164,-0.15368 3.50989,-0.08443c2.27621,0.13495 4.54258,0.49803 6.82278,0.49371c8.19637,0 16.65786,0.62976 24.82278,0.00629c2.86872,-0.21906 5.58808,-1.2036 8.43088,-1.49412c1.99558,-0.20394 7.47093,0.47036 8.76205,-1.53288c0.92844,-1.44053 1.29045,-3.25978 1.42036,-5.03413c-3.37126,-0.26882 -6.2559,-1.45258 -9.61174,-1.97743c-2.17345,-0.33993 -4.39967,0.03228 -6.59955,0.03228c-3.65524,0 -7.13735,-0.1418 -10.74634,-0.51216c-1.64578,-0.1689 -4.48255,0.33621 -5.92099,-0.07855c-4.29804,-1.2393 -5.45979,-5.86958 -8.97662,-7.68637c-3.5544,-1.83619 -8.64603,1.4357 -12.1097,1.76492c-5.62712,0.53485 -11.58537,0.01216 -17.24635,0.01216c-11.23598,0 -22.64273,-0.50074 -33.7938,0.49148c-3.45782,0.30768 -7.2284,1.4055 -10.50326,2.40766c-1.27871,0.3913 -2.3851,1.30788 -3.70027,1.5498c-0.59252,0.10899 -1.1922,0.14367 -1.79516,0.14432c-1.1448,0.85818 -2.57555,0.14281 -2.57555,0.14281l-0.4583,-0.23685c-0.05792,-0.00006 -0.11581,0.00019 -0.17366,0.00078c0,0 -1.29356,0 -2.01971,-0.93048c-5.22373,-1.42334 -10.83951,-0.06135 -16.23029,-0.56952c-1.6008,-0.1509 -3.82635,0.57124 -4.76777,-0.73224c-1.21687,-1.68484 -1.17277,-4.36221 -0.26033,-6.22954c0.92243,-1.88778 5.04003,-1.66794 6.71377,-2.66485c1.29104,-0.76897 2.42843,-1.89094 3.1877,-3.1877c0.57263,-0.978 0.40702,-2.33868 1.13986,-3.20316c1.63514,-1.92885 4.50621,-2.30469 6.67244,-3.60914c0.80767,-0.48636 1.18709,-1.52243 2,-2c1.07412,-0.63101 2.34918,-0.83006 3.52376,-1.24509c0,0 1.09476,-0.36492 2.04464,0.14488l0.99593,-0.27317c0.91092,0 1.80538,-0.03556 2.68754,-0.0985c-1.10309,-0.27141 -2.20944,-0.52804 -3.32899,-0.72153z" fill="#9966ff" stroke="none" stroke-width="0.5" stroke-linecap="butt"/><path d="M154.1707,333.68844c0.2848,-0.1424 0.55147,-0.23039 0.8,-0.27552c-0.13279,-0.51336 -0.30533,-1.01072 -0.51414,-1.48861c4.46137,-0.00986 9.09221,-0.3852 13.52937,0.00872c1.98147,0.17591 3.80101,1.23043 5.76657,1.53659c4.35346,0.67811 10.23985,0.38649 14.53694,-0.49656c0,0 0.39101,-0.07821 0.89195,-0.01598l0.88326,-0.40852c2.68947,-0.45166 4.0887,-2.1073 6.77792,-2.94491c2.60046,-0.80996 5.60401,-1.21257 8.10048,-2.34277c2.53354,-1.14698 4.94872,-3.23528 7.50098,-4.50049c3.26006,-1.61608 6.60392,-1.97567 10.08952,-2.70541c3.24804,-0.68 5.96962,-2.32418 8.90336,-3.79104c0,0 0.21381,-0.1069 0.54225,-0.18848c0.41674,-0.54101 0.95775,-0.81152 0.95775,-0.81152l2.11803,-0.76393c3.5,0 7,0 10.5,0c4.03539,0 7.72832,0.70409 11.7062,1.00852c8.19058,0.62682 16.5645,0.49148 24.7938,0.49148c4.1028,0 9.56043,0.79623 13.59955,0.03228c2.08927,-0.39516 4.07727,-1.32474 6.19425,-1.52376c3.48097,-0.32725 7.22116,-0.00852 10.7062,-0.00852c0.23876,0 8.60159,-0.01101 8.90046,0.03228c3.54769,0.5138 6.65873,2.65879 10.30575,2.97624c5.29839,0.46119 10.35195,-0.52405 15.54746,-0.99635c7.43363,-0.67577 15.28286,-0.01216 22.74634,-0.01216c0,0 1.25489,0 1.98651,0.88907c0.63349,-0.03981 1.37565,0.17056 2.0243,1.03544c1.5,2 -0.5,3.5 -0.5,3.5c-2.06256,1.24043 -1.97833,4.24123 -1.53228,6.59954c0.35345,1.86876 0.7498,3.74164 1.37831,5.53668c0.54037,1.54328 2.29482,2.9195 2.93623,4.34336c1.12383,2.49474 1.99511,5.53503 2.53506,8.30597c0.18378,0.20591 0.81151,0.9863 0.72861,1.95633c1.26961,0.00294 2.53909,0.00479 3.80842,0.00479c4.8515,0 10.36497,0.67745 15.17897,0.02209c1.64209,-0.22355 3.15546,-1.07497 4.79587,-1.31053c3.3571,-0.48209 7.23957,-0.31463 10.81187,-0.24052c-1.08303,-1.56628 -2.42001,-3.18316 -4.16149,-3.93543c-2.25913,-0.97589 -5.23607,-0.99991 -7.5,-2c-0.82281,-0.36348 -1.37866,-1.18227 -2.18063,-1.58967c-2.12916,-1.08164 -5.0427,-0.60672 -6.81643,-2.20583c-2.98048,-2.68703 -1.03486,-7.64668 -4.9728,-8.03531c0,0 -2.45145,-0.4903 -1.96116,-2.94175c0.09089,-0.45445 0.24917,-0.80779 0.44674,-1.08192c0.04504,-0.47972 0.19091,-0.82508 0.19091,-0.82508l1.43297,-3.35961c0.89911,-4.34528 2.19812,-6.94678 4.13038,-10.77852c1.10066,-2.18263 3.75361,-4.53703 4.3065,-6.96348c0.2093,-0.91855 -0.19032,-1.89694 -0.0346,-2.82608c0.44145,-2.63396 1.77797,-5.12125 1.97989,-7.84589c0.16666,-2.24892 0.10375,-4.53075 0.53638,-6.74394c0,0 0.49029,-2.45145 2.94174,-1.96116c0.45932,0.09186 0.81537,0.25258 1.09072,0.45312c3.13529,0.061 4.18203,-0.33034 7.07349,2.12414c3.11937,2.64794 4.58283,8.73269 8.48944,10.65127c1.56725,0.7697 3.52317,0.27065 5.16739,0.85823c10.50856,3.75533 22.69648,5.91007 33.92239,6.76055c6.67529,0.8198 13.05811,1.10414 19.76626,1.10414h2c0,0 2.5,0 2.5,2.5c0,2.5 -2.5,2.5 -2.5,2.5h-2c-6.86791,0 -13.42937,-0.28782 -20.26319,-1.12889c-11.54476,-0.90085 -24.2682,-3.00928 -35.04815,-7.00642c-2.12266,-0.78707 -3.58941,-0.00854 -5.83261,-1.14177c-5.24914,-2.65177 -6.83042,-11.77938 -12.70386,-12.21087c-0.06933,1.24253 -0.06581,2.49527 -0.16436,3.73429c-0.22618,2.84372 -1.56637,5.41593 -2.02012,8.15411c-0.17297,1.04381 0.23766,2.15152 -0.03459,3.17392c-0.85067,3.19452 -3.28235,5.18748 -4.69351,8.03652c-1.79616,3.62637 -3.03922,5.91377 -3.83078,10.02729l-1.04384,2.49255c1.17746,0.36537 1.83715,1.00414 2.94423,3.31027c0.74197,1.54556 -0.11344,3.91798 1.21907,4.99673c0.43288,0.35044 1.13391,-0.07239 1.6688,0.08281c1.54566,0.44848 3.07116,0.9999 4.51477,1.71137c0.68828,0.33921 1.11905,1.09672 1.81937,1.41033c2.23377,1.00026 5.25747,0.98368 7.5,2c3.1313,1.41911 5.21528,4.18158 7.0597,6.89551l0.65594,1.26872c0,0 0.06881,0.13763 0.13815,0.36167c6.21178,-0.00459 12.4237,-0.01505 18.63524,0.03381c5.02474,-1.71324 9.24792,-2.32602 14.46182,-2.9311c2.77292,-0.3218 5.44404,-1.31391 8.22147,-1.59417c3.92756,-0.39632 8.04571,0.55178 11.94624,0.00722c1.637,-0.22854 3.17221,-0.98018 4.80941,-1.20724c5.82716,-0.80818 11.93221,0.51253 17.71311,-0.29426c1.62221,-0.2264 3.14869,-0.93461 4.76488,-1.2006c2.29669,-0.37799 4.72564,0.33347 6.97821,-0.25275c1.08308,-0.28187 1.90211,-1.3002 3.00301,-1.5015c4.75381,-0.86924 10.75971,-0.06688 15.5894,-0.06688h3.003c0,0 2.5,0 2.5,2.5c0,2.5 -2.5,2.5 -2.5,2.5h-3.003c-4.40427,0 -10.10349,-0.90447 -14.44063,-0.06687c-1.09885,0.21221 -1.91508,1.23899 -3.003,1.5015c-2.38216,0.57479 -4.92807,-0.08312 -7.34439,0.32489c-1.67174,0.28228 -3.25625,0.9989 -4.93654,1.22476c-5.77362,0.77607 -11.83097,-0.53719 -17.63051,0.28339c-1.66389,0.23543 -3.22651,0.99437 -4.89201,1.21812c-3.96146,0.5322 -8.10426,-0.39675 -12.07779,0.00722c-2.74392,0.27896 -5.38198,1.26208 -8.12126,1.58349c-5.21341,0.61172 -9.18422,1.2486 -14.24049,2.90024c-7.64088,0.05028 -15.28194,0.03241 -22.92298,0.03228c-3.86805,-0.00007 -8.5133,-0.40274 -12.3386,0.161c-1.65819,0.24437 -3.19061,1.09969 -4.85237,1.31842c-5.04122,0.66357 -10.7609,0.02208 -15.84206,0.02208c-12.62163,0 -25.25379,-0.14783 -37.87222,0.16344c-10.92254,2.95774 -22.81128,0.8165 -34.0616,1.33423c-4.51711,0.20788 -8.99832,1.23872 -13.51351,1.50151c-16.44184,0.95691 -33.2157,0.00383 -49.6878,0.00383c-31.2012,0 -62.4024,0 -93.6036,0c-16.01602,0 -32.03203,0 -48.04804,0c-4.83483,0 -9.66967,0 -14.5045,0c-2.85452,0 -5.75465,-0.54883 -8.56346,-0.04003c-1.40413,0.25435 -2.60144,1.26687 -4.00901,1.5015c-1.65882,0.27651 -3.38402,-0.25477 -5.0451,0.00774c-1.56332,0.24707 -2.9424,1.24687 -4.5045,1.5015c-3.74044,0.60971 -8.10505,0.03228 -11.91697,0.03228c-27.69269,0 -55.38538,0 -83.07808,0c0,0 -2.5,0 -2.5,-2.5c0,-2.5 2.5,-2.5 2.5,-2.5c19.25407,0 38.50813,0 57.7622,0c-0.12993,-0.12255 -0.26304,-0.24408 -0.4002,-0.36404c-1.80135,-1.57544 -3.01019,-1.78222 -4.44909,-4.01241c-1.09511,-1.69733 -0.97164,-3.92274 -1.36779,-5.90346c-0.5717,-2.8585 -1.04511,-4.94049 -1.04511,-7.97277v-0.95114c-2.74331,-1.28733 -5.52482,-1.40083 -8.22481,-2.86944c-2.7531,-1.4975 -4.2978,-3.73452 -7.62194,-4.20358c-2.58209,-0.36435 -5.53743,0.02416 -8.15325,0.02416h-2.5c0,0 -2.5,0 -2.5,-2.5c0,-2.5 2.5,-2.5 2.5,-2.5h2.5c2.81286,0 6.08328,-0.42641 8.84675,0.02416c4.13946,0.67492 5.99648,2.86223 9.37806,4.79642c2.57065,1.47036 5.64634,1.59542 8.39322,2.94335c0,0 1.46676,0.73338 1.43042,2.20014c0.95154,0.72292 0.95154,2.03593 0.95154,2.03593v1c0,2.92124 0.40214,4.26348 0.95489,7.02723c0.43246,2.16226 -0.60384,2.35033 0.63221,4.09654c0.85182,1.20339 2.49072,2.05948 3.5509,2.98759c0.7736,0.67723 2.91419,3.23398 4.08646,3.4959c3.83536,0.85696 7.27635,-0.50313 10.68852,-1.85857c5.4303,-3.09222 11.05811,-4.29294 17.034,-5.68676c3.5886,-0.837 6.87739,-2.592 10.46399,-3.49155c6.43161,-1.61309 13.12679,-1.62661 19.56763,-3.01541c2.27715,-0.491 4.49246,-1.36914 6.81519,-1.54646c1.04109,-0.07948 2.11541,0.29733 3.13182,0.05836c1.08836,-0.25588 1.91242,-1.2408 3,-1.5c0.83665,-0.1994 1.7069,-0.13419 2.57438,-0.09085c-0.00014,-1.04044 -0.00898,-2.07845 -0.02423,-3.11472c1.09607,0.41284 2.28377,0.63869 3.52423,0.63869c1.58982,0 3.09299,-0.37099 4.42766,-1.03114c2.52993,-0.63015 4.9886,-1.08434 7.66313,-1.46257c2.50646,-0.00496 5.01292,-0.00756 7.51939,-0.00875c-0.16653,0.38088 -0.31003,0.77413 -0.42872,1.178c0.13503,0.04911 0.21359,0.08839 0.21359,0.08839c1.15122,0.5973 2.43593,0.98797 3.45366,1.7919c1.3819,1.0916 3.19851,4.54096 5.21888,5.07246c0.86506,0.22757 1.80183,-0.24156 2.6822,-0.08318c1.59249,0.28648 11.31836,3.91411 7.02723,-0.54511l-1.23607,-2.38197c0,0 -1.11803,-2.23607 1.11803,-3.3541zM160.21052,339.30405c0.18462,1.97213 0.06022,4.2372 -1.10565,5.83849c-0.83646,1.14885 -2.66831,1.03448 -4.06979,1.26979c-3.45794,0.58061 -5.59661,-0.95938 -8.71911,-1.53294c-1.08808,-0.19987 -2.26549,0.25813 -3.3178,-0.08318c-3.84513,-1.24714 -5.78115,-5.45311 -9.32746,-7.13564c0,0 -0.50755,-0.25377 -0.91812,-0.76132c-1.26905,0.01448 -2.53457,0.02177 -3.79563,0.01896c-3.1796,0.45948 -5.99369,1.05177 -9.08819,1.93591l-2.59874,0.52184c0,0 -0.32319,0.06464 -0.75835,0.02962c0.00003,0.00629 0.00005,0.0126 0.00005,0.01892c0,2.5 -2.5,2.5 -2.5,2.5c-1.86986,-0.05156 -3.60142,1.01922 -5.42562,1.43312c-1.25758,0.28534 -2.5825,-0.04128 -3.86818,0.05836c-2.98874,0.23163 -2.98296,0.77143 -6.18481,1.45354c-6.4032,1.36411 -13.04358,1.39317 -19.43236,2.98459c-3.62041,0.90183 -6.9044,2.64684 -10.53601,3.50845c-4.10248,0.97332 -8.01089,1.79947 -11.80779,3.3146c0.44429,0 0.88857,0 1.33286,0c3.53807,0 7.65021,0.6238 11.11606,0.03229c1.56016,-0.26628 2.94116,-1.25463 4.50451,-1.5015c1.63142,-0.25762 3.32573,0.27923 4.9549,0.00774c1.40758,-0.23456 2.60268,-1.25952 4.00901,-1.5015c0.30317,-0.05217 8.89473,-0.04003 9.45457,-0.04003c4.83483,0 9.66967,0 14.5045,0c16.01601,0 32.03203,0 48.04805,0c31.2012,0 62.4024,0 93.6036,0c16.3786,0 33.06352,0.95803 49.4113,0.00383c4.5156,-0.26357 8.99478,-1.29091 13.51351,-1.5015c11.08285,-0.5165 22.85897,1.64278 33.60647,-1.28806c9.82165,-0.31082 19.65615,-0.27357 29.48633,-0.23865l-0.20281,-0.31428c-0.4054,-2.59896 -1.27862,-5.51396 -2.31628,-7.89058c-0.74347,-1.70281 -2.4133,-2.91618 -3.06377,-4.65665c-1.04181,-2.78758 -1.64341,-6.40101 -1.65396,-9.36378c-0.00527,-1.47862 -0.10174,-3.3653 0.31803,-4.95062c-6.4844,-0.11746 -13.19896,-0.56638 -19.5825,0.01395c-5.47854,0.49806 -10.87143,1.52834 -16.45254,1.00365c-3.7864,-0.35597 -7.04597,-2.5116 -10.69425,-3.02376c-2.67365,-0.37534 -5.39968,0.03228 -8.09955,0.03228c-3.35527,0 -6.94074,-0.30038 -10.2938,-0.00852c-3.09487,0.26938 -5.55311,1.49377 -8.7062,1.50852c-12.1776,0.05697 -24.58076,0.42842 -36.7062,-0.50852c-3.8587,-0.29816 -7.38521,-0.99148 -11.2938,-0.99148c-3.5,0 -7,0 -10.5,0l0.11803,0.23607c0,0 -0.21381,0.1069 -0.54225,0.18848c-0.41674,0.54101 -0.95775,0.81152 -0.95775,0.81152c-3.34687,1.67343 -6.39543,3.3995 -10.09664,4.20896c-3.06166,0.66958 -6.044,0.84698 -8.91048,2.29459c-2.54423,1.28487 -4.95681,3.3401 -7.49902,4.49951c-2.74233,1.25068 -6.01478,1.83245 -8.89952,2.65723c-2.77715,0.79402 -4.27693,2.40467 -7.22208,3.05509l-1.37226,0.78462c0,0 -1.28323,0.64162 -2.39153,-0.01937c-4.61652,0.68747 -10.10138,0.82868 -14.47449,0.1627c-1.79075,-0.27271 -3.42731,-1.32522 -5.23343,-1.46341c-3.04977,-0.23334 -6.12808,-0.3528 -9.22179,-0.40001c0.65152,0.91803 1.75466,1.67584 1.85878,2.78807z" fill="#9966ff" stroke="none" stroke-width="0.5" stroke-linecap="butt"/><path d="M91.96388,342.48625c-1.56174,1.95217 -3.51391,0.39044 -3.51391,0.39044l-1.76578,-1.59311c-3.34927,0.16815 -6.41562,1.9047 -9.83982,1.05022c-1.12632,-0.28107 -3.33881,-2.259 -4.80544,-2.4544c-0.21173,-0.02821 -0.4241,-0.04702 -0.63696,-0.05863c-0.44827,1.31456 -1.97928,1.56973 -1.97928,1.56973l-3,0.5c0,0 -0.37468,0.06245 -0.85628,-0.00739c-0.01115,0.00874 -0.02248,0.01731 -0.034,0.0257c-0.90788,0.66089 -2.0615,0.89127 -3.09224,1.3369c0,0 -0.59235,0.23694 -1.29828,0.17219c-0.08239,0.00661 -0.1302,0.00661 -0.1302,0.00661l-3.81823,-0.13769c-3.01606,-2.26063 -3.98739,-3.49205 -7.65454,-4.40742c-3.30334,-0.82455 -7.41626,1.41572 -10.53127,1.99275c-3.61491,0.66962 -5.55756,0.54942 -8.99596,0.55236c0,0 -2.5,0 -2.5,-2.5c0,-2.5 2.5,-2.5 2.5,-2.5c2.87949,0.00265 5.02172,0.11467 7.95441,-0.44268c3.93697,-0.7482 8.36332,-3.00329 12.51836,-2.01222c4.8601,1.15924 5.06807,1.85286 8.34546,4.59259l2.18176,-0.1377c0,0 0.01358,0 0.03874,0.001c2.84812,-1.18394 2.81973,-3.11732 6.71492,-3.48883c3.94307,-0.37608 5.14281,-0.32703 8.35725,1.24822c0.73311,0.35926 1.27721,1.08672 2.05643,1.33033c1.52044,0.47535 4.42327,-0.95173 5.48592,-1.06655c1.54955,-0.16743 3.11618,0.07784 4.67427,0.11676l3.23422,2.4069c0,0 1.95217,1.56174 0.39043,3.51391z" fill="#ffa566" stroke="none" stroke-width="0.5" stroke-linecap="butt"/><text transform="translate(52.01171,324.79951) scale(0.20748,0.20747)" font-size="40" xml:space="preserve" fill="#9966ff" fill-rule="nonzero" stroke="none" stroke-width="1" stroke-linecap="butt" stroke-linejoin="miter" stroke-miterlimit="10" stroke-dasharray="" stroke-dashoffset="0" font-family="Sans Serif" font-weight="normal" text-anchor="start" style="mix-blend-mode: normal"><tspan x="0" dy="0">Lava</tspan></text><path d="M57.01171,328.92451l-2.5,8.5" fill="none" stroke="#000000" stroke-width="0.5" stroke-linecap="round"/><path d="M46.51171,325.92451c0,2.5 -2.5,2.5 -2.5,2.5l-1.20943,-0.12829c-6.18779,2.05259 -12.41303,3.41777 -18.84336,4.58797c0,0 -2.45967,0.44721 -2.90689,-2.01246c-0.44721,-2.45967 2.01246,-2.90689 2.01246,-2.90689c6.19559,-1.12543 12.20067,-2.41607 18.15664,-4.41203l2.79057,-0.12829c0,0 2.5,0 2.5,2.5z" fill="#989898" stroke="none" stroke-width="0.5" stroke-linecap="butt"/><path d="M112.01171,336.92451c0,2.5 -2.5,2.5 -2.5,2.5l-2.49029,-0.04855c-4.0015,-0.88371 -6.09657,-3.16553 -9.40468,-5.37683c-3.23078,-2.1596 -5.7371,-2.86943 -9.59532,-3.62317c0,0 -2.45145,-0.49029 -1.96116,-2.94174c0.49029,-2.45145 2.94174,-1.96116 2.94174,-1.96116c4.46174,0.91057 7.62741,1.86452 11.40468,4.37683c2.60946,1.73559 4.4632,4.09717 7.59532,4.62317l1.50971,-0.04855c0,0 2.5,0 2.5,2.5z" fill="#989898" stroke="none" stroke-width="0.5" stroke-linecap="butt"/><path d="M36.51171,326.42451l15.5,-19.5" fill="none" stroke="#000000" stroke-width="0.5" stroke-linecap="round"/><path d="M89.51171,327.92451l-24,-24.5" fill="none" stroke="#000000" stroke-width="0.5" stroke-linecap="round"/><text transform="translate(39.51171,299.67451) scale(0.13164,0.13164)" font-size="40" xml:space="preserve" fill="#9966ff" fill-rule="nonzero" stroke="none" stroke-width="1" stroke-linecap="butt" stroke-linejoin="miter" stroke-miterlimit="10" stroke-dasharray="" stroke-dashoffset="0" font-family="Sans Serif" font-weight="normal" text-anchor="start" style="mix-blend-mode: normal"><tspan x="0" dy="0">old stone bridge</tspan></text><path d="M250.01171,193.21225l16,-37" fill="none" stroke="#000000" stroke-width="0.5" stroke-linecap="round"/><text transform="translate(270.01171,148.71225) scale(0.19664,0.19664)" font-size="40" xml:space="preserve" fill="#9966ff" fill-rule="nonzero" stroke="none" stroke-width="1" stroke-linecap="butt" stroke-linejoin="miter" stroke-miterlimit="10" stroke-dasharray="" stroke-dashoffset="0" font-family="Sans Serif" font-weight="normal" text-anchor="start" style="mix-blend-mode: normal"><tspan x="0" dy="0">old mineshaft entry</tspan></text></g></g></svg>