<svg version="1.1" xmlns="http://www.w3.org/2000/svg" xmlns:xlink="http://www.w3.org/1999/xlink" width="12.0931" height="12.0407" viewBox="0,0,12.0931,12.0407"><defs><linearGradient x1="225.49908" y1="179.62499" x2="237.25885" y2="179.62499" gradientUnits="userSpaceOnUse" id="color-1"><stop offset="0" stop-color="#000000"/><stop offset="1" stop-color="#000000" stop-opacity="0"/></linearGradient><linearGradient x1="254.50092" y1="179.62499" x2="242.74115" y2="179.62499" gradientUnits="userSpaceOnUse" id="color-2"><stop offset="0" stop-color="#ffffff"/><stop offset="1" stop-color="#ffffff" stop-opacity="0"/></linearGradient><linearGradient x1="239.17895" y1="181.14796" x2="239.17895" y2="193.27198" gradientUnits="userSpaceOnUse" id="color-3"><stop offset="0" stop-color="#000000" stop-opacity="0"/><stop offset="1" stop-color="#000000"/></linearGradient><linearGradient x1="239.76541" y1="164.99931" x2="239.76541" y2="177.12332" gradientUnits="userSpaceOnUse" id="color-4"><stop offset="0" stop-color="#ffffff"/><stop offset="1" stop-color="#ffffff" stop-opacity="0"/></linearGradient><linearGradient x1="226.62942" y1="179.95833" x2="237.47252" y2="179.95833" gradientUnits="userSpaceOnUse" id="color-5"><stop offset="0" stop-color="#000000"/><stop offset="1" stop-color="#000000" stop-opacity="0"/></linearGradient><linearGradient x1="253.37057" y1="179.95833" x2="242.52748" y2="179.95833" gradientUnits="userSpaceOnUse" id="color-6"><stop offset="0" stop-color="#000000"/><stop offset="1" stop-color="#000000" stop-opacity="0"/></linearGradient><linearGradient x1="239.24295" y1="181.388" x2="239.24295" y2="192.10593" gradientUnits="userSpaceOnUse" id="color-7"><stop offset="0" stop-color="#000000" stop-opacity="0"/><stop offset="1" stop-color="#000000"/></linearGradient><linearGradient x1="239.7837" y1="167.02886" x2="239.7837" y2="177.74679" gradientUnits="userSpaceOnUse" id="color-8"><stop offset="0" stop-color="#000000"/><stop offset="1" stop-color="#000000" stop-opacity="0"/></linearGradient><linearGradient x1="226.62943" y1="179.87501" x2="237.47253" y2="179.87501" gradientUnits="userSpaceOnUse" id="color-9"><stop offset="0" stop-color="#000000"/><stop offset="1" stop-color="#000000" stop-opacity="0"/></linearGradient><linearGradient x1="253.37058" y1="179.87501" x2="242.52749" y2="179.87501" gradientUnits="userSpaceOnUse" id="color-10"><stop offset="0" stop-color="#ffffff"/><stop offset="1" stop-color="#ffffff" stop-opacity="0"/></linearGradient><linearGradient x1="239.24296" y1="181.22135" x2="239.24296" y2="191.93928" gradientUnits="userSpaceOnUse" id="color-11"><stop offset="0" stop-color="#000000" stop-opacity="0"/><stop offset="1" stop-color="#000000"/></linearGradient><linearGradient x1="239.78371" y1="166.94554" x2="239.78371" y2="177.66347" gradientUnits="userSpaceOnUse" id="color-12"><stop offset="0" stop-color="#ffffff"/><stop offset="1" stop-color="#ffffff" stop-opacity="0"/></linearGradient></defs><g transform="translate(-233.95345,-173.97965)"><g data-paper-data="{&quot;isPaintingLayer&quot;:true}" fill-rule="nonzero" stroke="none" stroke-width="0" stroke-linecap="butt" stroke-linejoin="round" stroke-miterlimit="10" stroke-dasharray="" stroke-dashoffset="0" style="mix-blend-mode: normal"><g><path d="M239.99999,175.54459c0.49292,-1.16906 1.55678,-1.56494 2.79283,-1.56494c1.70406,0 3.25373,1.53974 3.25373,3.43692c0,3.73636 -6.04656,8.60377 -6.04656,8.60377c0,0 -6.04654,-4.82756 -6.04654,-8.6871c0,-1.89717 1.54967,-3.35359 3.25373,-3.35359c1.23606,0 2.29992,0.39588 2.79282,1.56494z" fill="#d4d4d4"/><path d="M239.99999,175.54459c0.49292,-1.16906 1.55678,-1.56494 2.79283,-1.56494c1.70406,0 3.25373,1.53973 3.25373,3.43692c0,3.73636 -6.04656,8.60377 -6.04656,8.60377c0,0 -6.04654,-4.82756 -6.04654,-8.6871c0,-1.89717 1.54967,-3.35359 3.25373,-3.35359c1.23606,0 2.29992,0.39588 2.79282,1.56494z" fill="url(#color-1)"/><path d="M242.79282,173.97966c1.70406,0 3.25373,1.53973 3.25373,3.43692c0,3.85954 -6.04654,8.60377 -6.04654,8.60377c0,0 -6.04656,-4.95074 -6.04656,-8.6871c0,-1.89717 1.54967,-3.35359 3.25373,-3.35359c1.23605,0 2.29991,0.39588 2.79283,1.56494c0.4929,-1.16906 1.55675,-1.56494 2.79282,-1.56494z" data-paper-data="{&quot;index&quot;:null}" fill="url(#color-2)"/><path d="M239.99999,175.54459c0.49292,-1.16906 1.55678,-1.56494 2.79283,-1.56494c1.70406,0 3.25373,1.53973 3.25373,3.43692c0,3.73636 -6.04656,8.60377 -6.04656,8.60377c0,0 -6.04654,-4.82756 -6.04654,-8.6871c0,-1.89717 1.54967,-3.35359 3.25373,-3.35359c1.23606,0 2.29992,0.39588 2.79282,1.56494z" fill="url(#color-3)"/><path d="M239.99999,175.54459c0.49292,-1.16906 1.55678,-1.56494 2.79283,-1.56494c1.70406,0 3.25373,1.53973 3.25373,3.43692c0,3.73636 -6.04656,8.60377 -6.04656,8.60377c0,0 -6.04654,-4.82756 -6.04654,-8.6871c0,-1.89717 1.54967,-3.35359 3.25373,-3.35359c1.23606,0 2.29992,0.39588 2.79282,1.56494z" fill="url(#color-4)"/></g><g><path d="M239.99999,176.35116c0.4545,-1.03348 1.43543,-1.75179 2.57513,-1.75179c1.57123,0 2.84643,1.36117 2.84643,3.03832c0,3.30303 -5.42156,7.67961 -5.42156,7.67961c0,0 -5.42154,-4.26768 -5.42154,-7.67961c0,-1.67715 1.2752,-3.03832 2.84643,-3.03832c1.13971,0 2.12064,0.71831 2.57512,1.75179z" fill="#b1b1b1"/><path d="M239.99999,176.35116c0.4545,-1.03348 1.43543,-1.75179 2.57513,-1.75179c1.57123,0 2.84643,1.36116 2.84643,3.03832c0,3.30303 -5.42156,7.67961 -5.42156,7.67961c0,0 -5.42154,-4.26768 -5.42154,-7.67961c0,-1.67715 1.2752,-3.03832 2.84643,-3.03832c1.13971,0 2.12064,0.71831 2.57512,1.75179z" fill="url(#color-5)"/><path d="M242.57512,174.59937c1.57123,0 2.84643,1.36116 2.84643,3.03832c0,3.41193 -5.42154,7.67961 -5.42154,7.67961c0,0 -5.42156,-4.37658 -5.42156,-7.67961c0,-1.67715 1.2752,-3.03832 2.84643,-3.03832c1.1397,0 2.12063,0.71831 2.57513,1.75179c0.45448,-1.03348 1.4354,-1.75179 2.57512,-1.75179z" data-paper-data="{&quot;index&quot;:null}" fill="url(#color-6)"/><path d="M239.99999,176.43449c0.4545,-1.03348 1.43543,-1.75179 2.57513,-1.75179c1.57123,0 2.84643,1.36116 2.84643,3.03832c0,3.30303 -5.42156,7.67961 -5.42156,7.67961c0,0 -5.42154,-4.26768 -5.42154,-7.67961c0,-1.67715 1.2752,-3.03832 2.84643,-3.03832c1.13971,0 2.12064,0.71831 2.57512,1.75179z" fill="url(#color-7)"/><path d="M239.99999,176.35116c0.4545,-1.03348 1.43543,-1.75179 2.57513,-1.75179c1.57123,0 2.84643,1.36116 2.84643,3.03832c0,3.30303 -5.42156,7.67961 -5.42156,7.67961c0,0 -5.42154,-4.26768 -5.42154,-7.67961c0,-1.67715 1.2752,-3.03832 2.84643,-3.03832c1.13971,0 2.12064,0.71831 2.57512,1.75179z" fill="url(#color-8)"/></g><g><path d="M240,176.26784c0.4545,-1.03348 1.43543,-1.75179 2.57513,-1.75179c1.57123,0 2.84643,1.36117 2.84643,3.03832c0,3.30303 -5.42156,7.67961 -5.42156,7.67961c0,0 -5.42154,-4.26768 -5.42154,-7.67961c0,-1.67715 1.2752,-3.03832 2.84643,-3.03832c1.13971,0 2.12064,0.71831 2.57512,1.75179z" fill="#ff3e3e"/><path d="M240,176.26784c0.4545,-1.03348 1.43543,-1.75179 2.57513,-1.75179c1.57123,0 2.84643,1.36116 2.84643,3.03832c0,3.30303 -5.42156,7.67961 -5.42156,7.67961c0,0 -5.42154,-4.26768 -5.42154,-7.67961c0,-1.67715 1.2752,-3.03832 2.84643,-3.03832c1.13971,0 2.12064,0.71831 2.57512,1.75179z" fill="url(#color-9)"/><path d="M242.57513,174.51605c1.57123,0 2.84643,1.36116 2.84643,3.03832c0,3.41193 -5.42154,7.67961 -5.42154,7.67961c0,0 -5.42156,-4.37658 -5.42156,-7.67961c0,-1.67715 1.2752,-3.03832 2.84643,-3.03832c1.1397,0 2.12063,0.71831 2.57513,1.75179c0.45448,-1.03348 1.4354,-1.75179 2.57512,-1.75179z" data-paper-data="{&quot;index&quot;:null}" fill="url(#color-10)"/><path d="M240,176.26784c0.4545,-1.03348 1.43543,-1.75179 2.57513,-1.75179c1.57123,0 2.84643,1.36116 2.84643,3.03832c0,3.30303 -5.42156,7.67961 -5.42156,7.67961c0,0 -5.42154,-4.26768 -5.42154,-7.67961c0,-1.67715 1.2752,-3.03832 2.84643,-3.03832c1.13971,0 2.12064,0.71831 2.57512,1.75179z" fill="url(#color-11)"/><path d="M240,176.26784c0.4545,-1.03348 1.43543,-1.75179 2.57513,-1.75179c1.57123,0 2.84643,1.36116 2.84643,3.03832c0,3.30303 -5.42156,7.67961 -5.42156,7.67961c0,0 -5.42154,-4.26768 -5.42154,-7.67961c0,-1.67715 1.2752,-3.03832 2.84643,-3.03832c1.13971,0 2.12064,0.71831 2.57512,1.75179z" fill="url(#color-12)"/></g></g></g></svg>