<svg version="1.1" xmlns="http://www.w3.org/2000/svg" xmlns:xlink="http://www.w3.org/1999/xlink" width="160.83335" height="160.83335" viewBox="0,0,160.83335,160.83335"><g transform="translate(-159.58333,-99.58333)"><g data-paper-data="{&quot;isPaintingLayer&quot;:true}" fill="#000000" fill-rule="nonzero" stroke="none" stroke-width="0" stroke-linecap="butt" stroke-linejoin="miter" stroke-miterlimit="10" stroke-dasharray="" stroke-dashoffset="0" style="mix-blend-mode: normal"><g><g><path d="M159.58334,260.41666v-160.83333h160.83333v160.83333z"/><path d="M159.58334,260.41666v-160.83333h160.83333v160.83333z"/><path d="M320.41666,260.41666h-160.83333v-160.83333h160.83333z"/><path d="M320.41666,99.58334v160.83333h-160.83333v-160.83333z"/><path d="M159.58334,99.58334h160.83333v160.83333h-160.83333z"/></g><g><path d="M194.35812,225.64188v-91.28378h91.28378v91.28378z"/><path d="M194.35812,225.64188v-91.28378h91.28378v91.28378z"/><path d="M285.64188,225.64188h-91.28378v-91.28378h91.28378z"/><path d="M194.35812,134.3581h91.28378v91.28378h-91.28378z"/><path d="M285.64188,134.3581v91.28378h-91.28378v-91.28378z"/></g><g><path d="M216.52703,203.47295v-46.94594h46.94594v46.94594z"/><path d="M216.52703,203.47295v-46.94594h46.94594v46.94594z"/><path d="M263.47297,203.47295h-46.94594v-46.94594h46.94594z"/><path d="M216.52703,156.52701h46.94594v46.94594h-46.94594z"/><path d="M263.47297,156.52701v46.94594h-46.94594v-46.94594z"/></g></g></g></g></svg>