<svg version="1.1" xmlns="http://www.w3.org/2000/svg" xmlns:xlink="http://www.w3.org/1999/xlink" width="17.11835" height="17.1048" viewBox="0,0,17.11835,17.1048"><defs><linearGradient x1="234.91734" y1="181.90552" x2="236.40481" y2="183.39299" gradientUnits="userSpaceOnUse" id="color-1"><stop offset="0" stop-color="#000000"/><stop offset="1" stop-color="#000000" stop-opacity="0"/></linearGradient><linearGradient x1="238.08774" y1="185.07591" x2="236.60027" y2="183.58845" gradientUnits="userSpaceOnUse" id="color-2"><stop offset="0" stop-color="#ffffff"/><stop offset="1" stop-color="#ffffff" stop-opacity="0"/></linearGradient><linearGradient x1="241.94307" y1="178.07705" x2="240.7072" y2="179.31292" gradientUnits="userSpaceOnUse" id="color-3"><stop offset="0" stop-color="#000000"/><stop offset="1" stop-color="#000000" stop-opacity="0"/></linearGradient><linearGradient x1="245.76972" y1="184.30213" x2="246.98268" y2="183.08917" gradientUnits="userSpaceOnUse" id="color-4"><stop offset="0" stop-color="#ffffff"/><stop offset="1" stop-color="#ffffff" stop-opacity="0"/></linearGradient><linearGradient x1="247.61713" y1="182.45472" x2="246.40416" y2="183.66769" gradientUnits="userSpaceOnUse" id="color-5"><stop offset="0" stop-color="#c7c7c7"/><stop offset="1" stop-color="#c7c7c7" stop-opacity="0"/></linearGradient><linearGradient x1="248.20072" y1="181.9511" x2="246.98776" y2="183.16407" gradientUnits="userSpaceOnUse" id="color-6"><stop offset="0" stop-color="#ffffff"/><stop offset="1" stop-color="#ffffff" stop-opacity="0"/></linearGradient><linearGradient x1="245.25495" y1="184.89687" x2="246.46792" y2="183.68391" gradientUnits="userSpaceOnUse" id="color-7"><stop offset="0" stop-color="#000000"/><stop offset="1" stop-color="#000000" stop-opacity="0"/></linearGradient><linearGradient x1="235.70466" y1="174.20999" x2="236.91762" y2="172.99703" gradientUnits="userSpaceOnUse" id="color-8"><stop offset="0" stop-color="#ffffff"/><stop offset="1" stop-color="#ffffff" stop-opacity="0"/></linearGradient><linearGradient x1="237.55207" y1="172.36258" x2="236.33911" y2="173.57554" gradientUnits="userSpaceOnUse" id="color-9"><stop offset="0" stop-color="#c7c7c7"/><stop offset="1" stop-color="#c7c7c7" stop-opacity="0"/></linearGradient><linearGradient x1="238.05569" y1="171.77898" x2="236.84273" y2="172.99194" gradientUnits="userSpaceOnUse" id="color-10"><stop offset="0" stop-color="#ffffff"/><stop offset="1" stop-color="#ffffff" stop-opacity="0"/></linearGradient><linearGradient x1="235.10992" y1="174.72475" x2="236.32289" y2="173.51179" gradientUnits="userSpaceOnUse" id="color-11"><stop offset="0" stop-color="#000000"/><stop offset="1" stop-color="#000000" stop-opacity="0"/></linearGradient></defs><g transform="translate(-230.94083,-171.9476)"><g data-paper-data="{&quot;isPaintingLayer&quot;:true}" fill-rule="nonzero" stroke-linejoin="miter" stroke-miterlimit="10" stroke-dasharray="" stroke-dashoffset="0" style="mix-blend-mode: normal"><g><g data-paper-data="{&quot;index&quot;:null}" fill="none" stroke-width="2" stroke-linecap="round"><path d="M241.06424,178.92901l-9.1234,9.1234" stroke="#f7b577"/><path d="M241.06424,178.92901l-9.1234,9.1234" data-paper-data="{&quot;index&quot;:null}" stroke="url(#color-1)"/><path d="M241.06424,178.92901l-9.1234,9.1234" data-paper-data="{&quot;index&quot;:null}" stroke="url(#color-2)"/></g><path d="M240.3848,178.99052l1.23587,-1.23587l0.6448,0.6448l-1.23587,1.23587z" fill="url(#color-3)" stroke="none" stroke-width="0" stroke-linecap="butt"/><g stroke="none" stroke-width="0" stroke-linecap="butt"><g><g><path d="M241.04992,178.95903c0,0 1.63136,1.63136 -0.11577,-0.11577c-0.32645,-0.32645 -0.82081,-0.87749 -1.06604,-1.18071c-0.63596,-0.78638 -3.48359,-4.30755 -4.46005,-5.51497c-0.20694,-0.25589 -0.15667,-0.26614 0.13057,-0.03107c1.21788,0.99668 4.48639,3.67156 5.3008,4.33806c0.35741,0.29249 1.03218,0.90023 1.41176,1.27982c1.86499,1.86499 0.01167,0.01167 0.01167,0.01167z" fill="#f3c886"/><path d="M235.39529,172.08039c0,0 -0.21828,-0.20452 0.06896,0.03054c1.21788,0.99668 4.48639,3.67156 5.3008,4.33806c0.35741,0.29249 1.03218,0.90023 1.41176,1.27982c1.86499,1.86499 0.01167,0.01167 0.01167,0.01167l-0.56605,0.56605z" fill="url(#color-4)"/><path d="M241.62153,178.30745l-0.56605,0.56605c0,0 1.85331,1.85331 -0.01167,-0.01167c-0.37959,-0.37959 -0.98732,-1.05436 -1.27982,-1.41176c-0.66649,-0.81441 -3.34138,-4.08292 -4.33806,-5.3008c-0.23507,-0.28724 -0.03054,-0.06896 -0.03054,-0.06896z" data-paper-data="{&quot;index&quot;:null}" fill="url(#color-5)"/></g><path d="M241.04992,178.95903c0,0 1.85331,1.85331 -0.01167,-0.01167c-0.37959,-0.37959 -0.98732,-1.05436 -1.27982,-1.41176c-0.66649,-0.81441 -3.34137,-4.08292 -4.33806,-5.3008c-0.23507,-0.28724 -0.22482,-0.33751 0.03107,-0.13057c1.20742,0.97647 4.72859,3.82409 5.51497,4.46005c0.30322,0.24521 0.85426,0.73958 1.18071,1.06604c1.74712,1.74712 0.11577,0.11577 0.11577,0.11577z" data-paper-data="{&quot;index&quot;:null}" fill="url(#color-6)"/><path d="M241.04992,178.95903c0,0 1.63136,1.63136 -0.11577,-0.11577c-0.32645,-0.32645 -0.82081,-0.87749 -1.06604,-1.18071c-0.63596,-0.78638 -3.48359,-4.30755 -4.46005,-5.51497c-0.20694,-0.25589 -0.15667,-0.26614 0.13057,-0.03107c1.21788,0.99668 4.48639,3.67156 5.3008,4.33806c0.35741,0.29249 1.03218,0.90023 1.41176,1.27982c1.86499,1.86499 0.01167,0.01167 0.01167,0.01167z" fill="url(#color-7)"/></g><g data-paper-data="{&quot;index&quot;:null}"><g><path d="M242.26073,177.71682c0,0 -1.85331,-1.85331 0.01168,0.01168c0.37959,0.37959 0.98732,1.05435 1.27982,1.41176c0.66649,0.81441 3.34138,4.08292 4.33806,5.3008c0.23507,0.28724 0.22482,0.33751 -0.03107,0.13057c-1.20743,-0.97646 -4.72859,-3.82409 -5.51497,-4.46005c-0.30322,-0.24522 -0.85426,-0.73958 -1.18071,-1.06604c-1.74713,-1.74713 -0.11577,-0.11577 -0.11577,-0.11577z" fill="#f3c886"/><path d="M241.70026,178.35726l0.56605,-0.56605c0,0 -1.85331,-1.85331 0.01167,0.01167c0.37959,0.37959 0.98732,1.05435 1.27982,1.41177c0.66649,0.81441 3.34138,4.08292 4.33806,5.3008c0.23507,0.28724 0.03054,0.06896 0.03054,0.06896z" fill="url(#color-8)"/><path d="M247.92649,184.58432c0,0 0.21828,0.20453 -0.06896,-0.03054c-1.21787,-0.99668 -4.48639,-3.67156 -5.3008,-4.33806c-0.35741,-0.2925 -1.03218,-0.90023 -1.41177,-1.27982c-1.86499,-1.86499 -0.01167,-0.01167 -0.01167,-0.01167l0.56605,-0.56605z" data-paper-data="{&quot;index&quot;:null}" fill="url(#color-9)"/></g><path d="M242.26072,177.71681c0,0 -1.63136,-1.63136 0.11577,0.11577c0.32646,0.32646 0.82082,0.8775 1.06603,1.18071c0.63596,0.78638 3.48359,4.30755 4.46005,5.51498c0.20694,0.25589 0.15667,0.26614 -0.13057,0.03107c-1.21787,-0.99668 -4.48639,-3.67156 -5.3008,-4.33806c-0.35741,-0.2925 -1.03217,-0.90023 -1.41176,-1.27982c-1.86499,-1.86499 -0.01168,-0.01168 -0.01168,-0.01168z" data-paper-data="{&quot;index&quot;:null}" fill="url(#color-10)"/><path d="M242.26073,177.71682c0,0 -1.85331,-1.85331 0.01168,0.01168c0.37959,0.37959 0.98732,1.05435 1.27982,1.41176c0.66649,0.81441 3.34138,4.08292 4.33806,5.3008c0.23507,0.28724 0.22482,0.33751 -0.03107,0.13057c-1.20743,-0.97646 -4.72859,-3.82409 -5.51497,-4.46005c-0.30322,-0.24522 -0.85426,-0.73958 -1.18071,-1.06604c-1.74713,-1.74713 -0.11577,-0.11577 -0.11577,-0.11577z" fill="url(#color-11)"/></g></g></g></g></g></svg>