<svg version="1.1" xmlns="http://www.w3.org/2000/svg" xmlns:xlink="http://www.w3.org/1999/xlink" width="61.6667" height="89.27662" viewBox="0,0,61.6667,89.27662"><defs><linearGradient x1="239.00002" y1="98.63041" x2="239.00002" y2="151.7754" gradientUnits="userSpaceOnUse" id="color-1"><stop offset="0" stop-color="#ffffff"/><stop offset="1" stop-color="#ffffff" stop-opacity="0"/></linearGradient><linearGradient x1="239.00002" y1="163.2466" x2="239.00002" y2="193.37167" gradientUnits="userSpaceOnUse" id="color-2"><stop offset="0" stop-color="#ffffff"/><stop offset="1" stop-color="#ffffff" stop-opacity="0"/></linearGradient><linearGradient x1="218.83422" y1="156.80192" x2="218.83422" y2="171.13526" gradientUnits="userSpaceOnUse" id="color-3"><stop offset="0" stop-color="#afd89a"/><stop offset="1" stop-color="#a3ca8f"/></linearGradient><linearGradient x1="222.50091" y1="187.13526" x2="222.50091" y2="201.46859" gradientUnits="userSpaceOnUse" id="color-4"><stop offset="0" stop-color="#afd89a"/><stop offset="1" stop-color="#a3ca8f"/></linearGradient><linearGradient x1="247.66758" y1="181.8297" x2="247.66758" y2="187.80193" gradientUnits="userSpaceOnUse" id="color-5"><stop offset="0" stop-color="#afd89a"/><stop offset="1" stop-color="#a3ca8f"/></linearGradient><linearGradient x1="253.16758" y1="152.46859" x2="253.16758" y2="166.80193" gradientUnits="userSpaceOnUse" id="color-6"><stop offset="0" stop-color="#afd89a"/><stop offset="1" stop-color="#a3ca8f"/></linearGradient><linearGradient x1="236.66758" y1="189.49637" x2="236.66758" y2="195.46859" gradientUnits="userSpaceOnUse" id="color-7"><stop offset="0" stop-color="#afd89a"/><stop offset="1" stop-color="#a3ca8f"/></linearGradient><linearGradient x1="257.66756" y1="191.82971" x2="257.66756" y2="197.80193" gradientUnits="userSpaceOnUse" id="color-8"><stop offset="0" stop-color="#afd89a"/><stop offset="1" stop-color="#a3ca8f"/></linearGradient></defs><g transform="translate(-209.16665,-142.02838)"><g data-paper-data="{&quot;isPaintingLayer&quot;:true}" fill-rule="nonzero" stroke-linejoin="miter" stroke-miterlimit="10" stroke-dasharray="" stroke-dashoffset="0" style="mix-blend-mode: normal"><path d="M209.16669,185.12322c0,0 0,-25.88613 0,-33.65463c0,-4.11439 5.37074,-9.44021 10.0009,-9.44021c7.02625,0 27.70045,0 40.66666,0c6.4546,0 10.99911,5.76968 10.99911,10.10689c0,7.83572 0,32.98796 0,32.98796z" fill="#afd89a" stroke="none" stroke-width="0" stroke-linecap="butt"/><path d="M209.16669,185.12322c0,0 0,-26.63762 0,-34.32129c0,-3.88485 5.37074,-8.77355 10.0009,-8.77355c7.20979,0 28.7899,0 41.66665,0c5.91906,0 9.99912,6.90775 9.99912,11.77354c0,7.93633 0,31.3213 0,31.3213z" fill="url(#color-1)" stroke="none" stroke-width="0" stroke-linecap="butt"/><path d="M209.16669,225.6081v-37.7615h61.66667v37.7615l-4.24994,-3.07984l-3.26084,8.77674l-3.28216,-7.78168l-2.13183,3.65272l-2.46642,-4.44884l-3.09926,6.58002l-2.83847,-7.48474l-3.62738,4.26154l-3.94644,-3.03857l-2.36342,4.76659l-5.46484,-8.21893l-3.58754,6.43305l-4.00778,-3.69642l-2.38722,6.8455l-3.99836,-7.28977l-2.61186,4.55089l-3.20904,-3.62828z" fill="#99be87" stroke="none" stroke-width="0" stroke-linecap="butt"/><path d="M209.16669,220.4081v-32.5615h61.66667v32.5615l-4.24994,-3.07983l-3.26084,8.77673l-3.28216,-7.78167l-2.13183,3.65272l-2.46642,-4.44884l-3.09926,6.58002l-2.83847,-7.48474l-3.62738,4.26155l-3.94644,-3.03857l-2.36342,4.76659l-5.46484,-8.21893l-3.58754,6.43305l-4.00778,-3.69642l-2.38722,6.8455l-3.99836,-7.28977l-2.61186,4.55089l-3.20904,-3.62828z" fill="#afd89a" stroke="none" stroke-width="0" stroke-linecap="butt"/><path d="M209.16669,225.6081v-37.7615h61.66667v37.7615l-4.24994,-3.07984l-3.26084,8.77673l-3.28216,-7.78167l-2.13182,3.65272l-2.46642,-4.44884l-3.09926,6.58001l-2.83847,-7.48474l-3.62738,4.26155l-3.94644,-3.03857l-2.36341,4.76659l-5.46484,-8.21893l-3.58754,6.43305l-4.00778,-3.69642l-2.38722,6.8455l-3.99836,-7.28977l-2.61186,4.55089l-3.20904,-3.62828z" fill="url(#color-2)" stroke="none" stroke-width="0" stroke-linecap="butt"/><path d="M209.16669,220.6081v-37.7615h61.66667v37.7615l-4.24994,-3.07984l-3.26084,8.77674l-3.28216,-7.78168l-2.13183,3.65272l-2.46642,-4.44884l-3.09926,6.58002l-2.83847,-7.48474l-3.62738,4.26154l-3.94644,-3.03857l-2.36342,4.76659l-5.46484,-8.21893l-3.58754,6.43305l-4.00778,-3.69642l-2.38722,6.8455l-3.99836,-7.28977l-2.61186,4.55089l-3.20904,-3.62828z" fill="#a3ca8f" stroke="none" stroke-width="0" stroke-linecap="butt"/><path d="M209.16669,215.4081v-32.5615h61.66667v32.5615l-4.24994,-3.07983l-3.26084,8.77673l-3.28216,-7.78167l-2.13183,3.65272l-2.46642,-4.44884l-3.09926,6.58002l-2.83847,-7.48474l-3.62738,4.26155l-3.94644,-3.03857l-2.36342,4.76659l-5.46484,-8.21893l-3.58754,6.43305l-4.00778,-3.69642l-2.38722,6.8455l-3.99836,-7.28977l-2.61186,4.55089l-3.20904,-3.62828z" fill="#afd89a" stroke="none" stroke-width="0" stroke-linecap="butt"/><path d="M218.83422,156.80192v14.33334" fill="none" stroke="url(#color-3)" stroke-width="6" stroke-linecap="round"/><path d="M222.50091,187.13526v14.33334" fill="none" stroke="url(#color-4)" stroke-width="6" stroke-linecap="round"/><path d="M247.66758,181.8297v5.97222" fill="none" stroke="url(#color-5)" stroke-width="6" stroke-linecap="round"/><path d="M253.16758,152.46859v14.33334" fill="none" stroke="url(#color-6)" stroke-width="6" stroke-linecap="round"/><path d="M236.66758,189.49637v5.97222" fill="none" stroke="url(#color-7)" stroke-width="6" stroke-linecap="round"/><path d="M257.66756,197.80193v-5.97222" fill="none" stroke="url(#color-8)" stroke-width="6" stroke-linecap="round"/><g fill="none" stroke="#000000" stroke-width="0" stroke-linecap="butt"><path d="M209.16668,210.83333v-61.66667h61.66667v61.66667z"/><path d="M209.16668,210.83333v-61.66667h61.66667v61.66667z"/><path d="M270.83333,210.83333h-61.66667v-61.66667h61.66667z"/><path d="M270.83333,149.16667v61.66667h-61.66667v-61.66667z"/><path d="M209.16668,149.16667h61.66667v61.66667h-61.66667z"/></g></g></g></svg>