<svg version="1.1" xmlns="http://www.w3.org/2000/svg" xmlns:xlink="http://www.w3.org/1999/xlink" width="8.45104" height="19.91282" viewBox="0,0,8.45104,19.91282"><defs><linearGradient x1="236.20931" y1="190.237" x2="237.46385" y2="193.779" gradientUnits="userSpaceOnUse" id="color-1"><stop offset="0" stop-color="#000000"/><stop offset="1" stop-color="#000000" stop-opacity="0"/></linearGradient><linearGradient x1="232.55752" y1="196.62647" x2="236.09952" y2="195.37194" gradientUnits="userSpaceOnUse" id="color-2"><stop offset="0" stop-color="#000000"/><stop offset="1" stop-color="#000000" stop-opacity="0"/></linearGradient><linearGradient x1="242.59879" y1="193.88879" x2="239.05679" y2="195.14333" gradientUnits="userSpaceOnUse" id="color-3"><stop offset="0" stop-color="#000000"/><stop offset="1" stop-color="#000000" stop-opacity="0"/></linearGradient><linearGradient x1="238.94699" y1="200.27826" x2="237.69246" y2="196.73627" gradientUnits="userSpaceOnUse" id="color-4"><stop offset="0" stop-color="#000000"/><stop offset="1" stop-color="#000000" stop-opacity="0"/></linearGradient><linearGradient x1="236.87418" y1="192.6756" x2="237.51937" y2="194.4972" gradientUnits="userSpaceOnUse" id="color-5"><stop offset="0" stop-color="#000000"/><stop offset="1" stop-color="#000000" stop-opacity="0"/></linearGradient><linearGradient x1="234.99611" y1="195.96161" x2="236.81771" y2="195.31642" gradientUnits="userSpaceOnUse" id="color-6"><stop offset="0" stop-color="#000000"/><stop offset="1" stop-color="#000000" stop-opacity="0"/></linearGradient><linearGradient x1="240.1602" y1="194.55366" x2="238.3386" y2="195.19885" gradientUnits="userSpaceOnUse" id="color-7"><stop offset="0" stop-color="#ffffff"/><stop offset="1" stop-color="#ffffff" stop-opacity="0"/></linearGradient><linearGradient x1="238.28213" y1="197.83967" x2="237.63694" y2="196.01807" gradientUnits="userSpaceOnUse" id="color-8"><stop offset="0" stop-color="#ffffff"/><stop offset="1" stop-color="#ffffff" stop-opacity="0"/></linearGradient><linearGradient x1="235.16639" y1="186.41176" x2="237.37676" y2="192.65242" gradientUnits="userSpaceOnUse" id="color-9"><stop offset="0" stop-color="#000000"/><stop offset="1" stop-color="#000000" stop-opacity="0"/></linearGradient><linearGradient x1="228.73228" y1="197.6694" x2="234.97294" y2="195.45903" gradientUnits="userSpaceOnUse" id="color-10"><stop offset="0" stop-color="#000000"/><stop offset="1" stop-color="#000000" stop-opacity="0"/></linearGradient><linearGradient x1="239.98992" y1="204.10351" x2="237.77955" y2="197.86285" gradientUnits="userSpaceOnUse" id="color-11"><stop offset="0" stop-color="#ffffff"/><stop offset="1" stop-color="#ffffff" stop-opacity="0"/></linearGradient><linearGradient x1="246.42403" y1="192.84587" x2="240.18337" y2="195.05624" gradientUnits="userSpaceOnUse" id="color-12"><stop offset="0" stop-color="#ffffff"/><stop offset="1" stop-color="#ffffff" stop-opacity="0"/></linearGradient></defs><g transform="translate(-233.35264,-179.57033)"><g data-paper-data="{&quot;isPaintingLayer&quot;:true}" fill-rule="nonzero" stroke-linejoin="miter" stroke-miterlimit="10" stroke-dasharray="" stroke-dashoffset="0" style="mix-blend-mode: normal"><path d="M237.09666,194.87033c0,0 -0.25499,-4.66207 0.23343,-7.0716c0.5106,-2.51894 2.76657,-7.7284 2.76657,-7.7284" fill="none" stroke="#000000" stroke-width="1" stroke-linecap="round"/><g stroke="none" stroke-width="0" stroke-linecap="butt"><path d="M233.35264,193.24248l6.24067,-2.21037l2.21037,6.24067l-6.24067,2.21037z" fill="#a2a2a2"/><path d="M234.61016,194.08278l0.76699,-0.27166l0.40749,1.15049l-0.76699,0.27166z" fill="#dfcbac"/><path d="M236.14122,197.36338l0.76699,-0.27166l0.21665,0.61169l-0.76699,0.27166z" fill="#dfcbac"/><path d="M234.00138,193.80803l0.76699,-0.27166l0.40749,1.15049l-0.76699,0.27166z" fill="#dfcbac"/><path d="M237.89003,192.29292l0.91446,-0.32389l0.48584,1.37169l-0.91446,0.32389z" fill="#dfcbac"/><g><path d="M235.17989,194.1139l3.542,-1.25453l1.25453,3.542l-3.542,1.25453z" fill="#a2a2a2"/><path d="M235.17989,194.1139l3.542,-1.25453l1.25453,3.542l-3.542,1.25453z" fill="url(#color-1)"/><path d="M236.43442,197.6559l-1.25453,-3.542l3.542,-1.25453l1.25453,3.542z" fill="url(#color-2)"/><path d="M238.72189,192.85937l1.25453,3.542l-3.542,1.25453l-1.25453,-3.542z" fill="url(#color-3)"/><path d="M239.97642,196.40137l-3.542,1.25453l-1.25453,-3.542l3.542,-1.25453z" fill="url(#color-4)"/></g><path d="M237.5398,195.74981l0.52735,-0.18678l0.28017,0.79103l-0.52735,0.18678z" fill="#dfcbac"/><path d="M237.43481,193.80161l0.91446,-0.32389l0.48584,1.37169l-0.91446,0.32389z" fill="#dfcbac"/><g><path d="M236.34476,194.66943l1.8216,-0.64519l0.64519,1.8216l-1.8216,0.64519z" fill="#a2a2a2"/><path d="M236.34476,194.66943l1.8216,-0.64519l0.64519,1.8216l-1.8216,0.64519z" fill="url(#color-5)"/><path d="M236.98995,196.49103l-0.64519,-1.8216l1.8216,-0.64519l0.64519,1.8216z" fill="url(#color-6)"/><path d="M238.16636,194.02424l0.64519,1.8216l-1.8216,0.64519l-0.64519,-1.8216z" fill="url(#color-7)"/><path d="M238.81155,195.84584l-1.8216,0.64519l-0.64519,-1.8216l1.8216,-0.64519z" fill="url(#color-8)"/></g><g><path d="M233.35264,193.24249l6.24067,-2.21037l2.21037,6.24067l-6.24067,2.21037z" fill="url(#color-9)"/><path d="M235.56301,199.48315l-2.21037,-6.24067l6.24067,-2.21037l2.21037,6.24067z" fill="url(#color-10)"/><path d="M241.80367,197.27278l-6.24067,2.21037l-2.21037,-6.24067l6.24067,-2.21037z" fill="url(#color-11)"/><path d="M239.59331,191.03212l2.21037,6.24067l-6.24067,2.21037l-2.21037,-6.24067z" fill="url(#color-12)"/></g></g></g></g></svg>