<svg version="1.1" xmlns="http://www.w3.org/2000/svg" xmlns:xlink="http://www.w3.org/1999/xlink" width="70.3598" height="64.16191" viewBox="0,0,70.3598,64.16191"><defs><linearGradient x1="238.46088" y1="224.28256" x2="238.46088" y2="192.22319" gradientUnits="userSpaceOnUse" id="color-1"><stop offset="0" stop-color="#1a1a1a"/><stop offset="1" stop-color="#1a1a1a" stop-opacity="0"/></linearGradient><linearGradient x1="233.57992" y1="184.58892" x2="212.17467" y2="184.58892" gradientUnits="userSpaceOnUse" id="color-2"><stop offset="0" stop-color="#1a1a1a" stop-opacity="0"/><stop offset="1" stop-color="#1a1a1a"/></linearGradient><linearGradient x1="240" y1="164.83568" x2="240" y2="178.43568" gradientUnits="userSpaceOnUse" id="color-3"><stop offset="0" stop-color="#000000"/><stop offset="1" stop-color="#000000" stop-opacity="0"/></linearGradient><linearGradient x1="184.42032" y1="162.48048" x2="226.07969" y2="162.48048" gradientUnits="userSpaceOnUse" id="color-4"><stop offset="0" stop-color="#1a1a1a"/><stop offset="1" stop-color="#1a1a1a" stop-opacity="0"/></linearGradient><linearGradient x1="236" y1="168.82301" x2="236" y2="196.63794" gradientUnits="userSpaceOnUse" id="color-5"><stop offset="0" stop-color="#1a1a1a" stop-opacity="0"/><stop offset="1" stop-color="#1a1a1a"/></linearGradient><linearGradient x1="242.63334" y1="157.77214" x2="242.63334" y2="163.02214" gradientUnits="userSpaceOnUse" id="color-6"><stop offset="0" stop-color="#000000"/><stop offset="1" stop-color="#151515"/></linearGradient><linearGradient x1="243.53334" y1="158.14714" x2="243.53334" y2="160.74714" gradientUnits="userSpaceOnUse" id="color-7"><stop offset="0" stop-color="#292929"/><stop offset="1" stop-color="#313131"/></linearGradient><linearGradient x1="251.03334" y1="157.93881" x2="251.03334" y2="163.18881" gradientUnits="userSpaceOnUse" id="color-8"><stop offset="0" stop-color="#000000"/><stop offset="1" stop-color="#151515"/></linearGradient><linearGradient x1="250.13334" y1="158.31381" x2="250.13334" y2="160.91381" gradientUnits="userSpaceOnUse" id="color-9"><stop offset="0" stop-color="#292929"/><stop offset="1" stop-color="#313131"/></linearGradient><linearGradient x1="263.22155" y1="196.36126" x2="262.00023" y2="187.69692" gradientUnits="userSpaceOnUse" id="color-10"><stop offset="0" stop-color="#c7c7c7"/><stop offset="1" stop-color="#c7c7c7" stop-opacity="0"/></linearGradient><linearGradient x1="261.36142" y1="183.16496" x2="262.58273" y2="191.82931" gradientUnits="userSpaceOnUse" id="color-11"><stop offset="0" stop-color="#ffffff"/><stop offset="1" stop-color="#ffffff" stop-opacity="0"/></linearGradient><linearGradient x1="263.67379" y1="200.25771" x2="262.45248" y2="191.59337" gradientUnits="userSpaceOnUse" id="color-12"><stop offset="0" stop-color="#ffffff"/><stop offset="1" stop-color="#ffffff" stop-opacity="0"/></linearGradient><linearGradient x1="260.70775" y1="179.21573" x2="261.92906" y2="187.88008" gradientUnits="userSpaceOnUse" id="color-13"><stop offset="0" stop-color="#000000"/><stop offset="1" stop-color="#000000" stop-opacity="0"/></linearGradient><linearGradient x1="227.17303" y1="192.32142" x2="227.47798" y2="194.48481" gradientUnits="userSpaceOnUse" id="color-14"><stop offset="0" stop-color="#000000"/><stop offset="1" stop-color="#000000" stop-opacity="0"/></linearGradient><linearGradient x1="227.823" y1="196.93247" x2="227.51805" y2="194.76909" gradientUnits="userSpaceOnUse" id="color-15"><stop offset="0" stop-color="#ffffff"/><stop offset="1" stop-color="#ffffff" stop-opacity="0"/></linearGradient><linearGradient x1="219.92313" y1="192.34945" x2="220.27207" y2="194.82498" gradientUnits="userSpaceOnUse" id="color-16"><stop offset="0" stop-color="#000000"/><stop offset="1" stop-color="#000000" stop-opacity="0"/></linearGradient><linearGradient x1="220.49016" y1="196.37218" x2="220.83911" y2="198.84771" gradientUnits="userSpaceOnUse" id="color-17"><stop offset="0" stop-color="#ffffff" stop-opacity="0"/><stop offset="1" stop-color="#ffffff"/></linearGradient><linearGradient x1="235.35973" y1="193.52795" x2="232.76042" y2="193.89434" gradientUnits="userSpaceOnUse" id="color-18"><stop offset="0" stop-color="#000000"/><stop offset="1" stop-color="#000000" stop-opacity="0"/></linearGradient><linearGradient x1="235.56659" y1="199.01836" x2="234.61535" y2="192.27005" gradientUnits="userSpaceOnUse" id="color-19"><stop offset="0" stop-color="#464646"/><stop offset="1" stop-color="#464646" stop-opacity="0"/></linearGradient><linearGradient x1="234.04821" y1="188.24663" x2="234.99944" y2="194.99495" gradientUnits="userSpaceOnUse" id="color-20"><stop offset="0" stop-color="#ffffff"/><stop offset="1" stop-color="#ffffff" stop-opacity="0"/></linearGradient><linearGradient x1="237.31979" y1="211.45615" x2="235.3812" y2="197.70322" gradientUnits="userSpaceOnUse" id="color-21"><stop offset="0" stop-color="#ffffff"/><stop offset="1" stop-color="#ffffff" stop-opacity="0"/></linearGradient><linearGradient x1="232.28509" y1="175.73853" x2="234.22368" y2="189.49146" gradientUnits="userSpaceOnUse" id="color-22"><stop offset="0" stop-color="#000000"/><stop offset="1" stop-color="#000000" stop-opacity="0"/></linearGradient></defs><g transform="translate(-219.09882,-146.57301)"><g data-paper-data="{&quot;isPaintingLayer&quot;:true}" fill-rule="nonzero" stroke-linejoin="miter" stroke-miterlimit="10" stroke-dasharray="" stroke-dashoffset="0" style="mix-blend-mode: normal"><path d="M242.80602,196.51264c0,0 3.26163,4.33547 4.22004,6.70755c0.8836,2.18695 1.32424,7.01473 1.32424,7.01473" fill="none" stroke="#000000" stroke-width="1" stroke-linecap="round"/><path d="M237.57006,196.57698c0,0 -1.21453,5.28767 -2.41129,7.54889c-1.10335,2.08474 -4.51183,5.53203 -4.51183,5.53203" fill="none" stroke="#000000" stroke-width="1" stroke-linecap="round"/><path d="M256.76367,193.73932c0,0 -3.07098,-3.51696 -4.16943,-5.71646c-1.14832,-2.29938 -2.57753,-7.79349 -2.57753,-7.79349" fill="none" stroke="#000000" stroke-width="1" stroke-linecap="round"/><g data-paper-data="{&quot;index&quot;:null}" stroke="none" stroke-width="1" stroke-linecap="butt"><g><path d="M250.70262,195.41934c0,1.17359 -0.94744,2.12103 -2.11713,2.12103c-3.85997,0 -13.31103,0 -17.16709,0c-1.16968,0 -2.12103,-0.94745 -2.12103,-2.12103c0,-3.85606 0,-23.96125 0,-27.82121c0,-1.16969 0.95134,-2.11714 2.12103,-2.11714c3.85606,0 13.30713,0 17.16709,0c1.16968,0 2.11713,0.94744 2.11713,2.11714c0,3.85997 0,23.96514 0,27.82121z" fill="#ffffff"/><path d="M250.70263,195.41933c0,1.17359 -0.94744,2.12103 -2.11713,2.12103c-3.85997,0 -13.31103,0 -17.16709,0c-1.16968,0 -2.12103,-0.94745 -2.12103,-2.12103c0,-3.85606 0,-23.96125 0,-27.82121c0,-1.16969 0.95134,-2.11714 2.12103,-2.11714c3.85606,0 13.30713,0 17.16709,0c1.16968,0 2.11713,0.94744 2.11713,2.11714c0,3.85997 0,23.96514 0,27.82121z" fill="url(#color-1)"/><path d="M250.70263,195.41933c0,1.17359 -0.94744,2.12103 -2.11713,2.12103c-3.85997,0 -13.31103,0 -17.16709,0c-1.16968,0 -2.12103,-0.94745 -2.12103,-2.12103c0,-3.85606 0,-23.96125 0,-27.82121c0,-1.16969 0.95134,-2.11714 2.12103,-2.11714c3.85606,0 13.30713,0 17.16709,0c1.16968,0 2.11713,0.94744 2.11713,2.11714c0,3.85997 0,23.96514 0,27.82121z" fill="url(#color-2)"/></g><g fill="none" font-family="sans-serif" font-weight="normal" font-size="12" text-anchor="start"><g/><g data-paper-data="{&quot;index&quot;:null}"/></g></g><path d="M229.3,178.43568v-13.6h21.4v13.6z" fill="url(#color-3)" stroke="none" stroke-width="0" stroke-linecap="butt"/><g><g stroke="none" stroke-width="1" stroke-linecap="butt"><path d="M258.07858,146.57302c1.51995,0 2.7511,1.23115 2.7511,2.75109c0,5.01581 0,17.29694 0,22.30768c0,1.51995 -1.23115,2.75616 -2.7511,2.75616c-5.0158,0 -31.14137,0 -36.15211,0c-1.525,0 -2.75616,-1.23622 -2.75616,-2.75616c0,-5.01074 0,-17.29187 0,-22.30768c0,-1.51995 1.23115,-2.75109 2.75616,-2.75109c5.01074,0 31.13629,0 36.15211,0z" fill="#ffffff"/><path d="M258.07859,146.57301c1.51995,0 2.7511,1.23115 2.7511,2.75109c0,5.01581 0,17.29694 0,22.30768c0,1.51995 -1.23115,2.75616 -2.7511,2.75616c-5.0158,0 -31.14137,0 -36.15211,0c-1.525,0 -2.75616,-1.23622 -2.75616,-2.75616c0,-5.01074 0,-17.29187 0,-22.30768c0,-1.51995 1.23115,-2.75109 2.75616,-2.75109c5.01074,0 31.13629,0 36.15211,0z" fill="url(#color-4)"/><path d="M258.07859,146.57301c1.51995,0 2.7511,1.23115 2.7511,2.75109c0,5.01581 0,17.29694 0,22.30768c0,1.51995 -1.23115,2.75616 -2.7511,2.75616c-5.0158,0 -31.14137,0 -36.15211,0c-1.525,0 -2.75616,-1.23622 -2.75616,-2.75616c0,-5.01074 0,-17.29187 0,-22.30768c0,-1.51995 1.23115,-2.75109 2.75616,-2.75109c5.01074,0 31.13629,0 36.15211,0z" fill="url(#color-5)"/></g><g fill="none" stroke-linecap="round"><g><path d="M242.63334,157.77214v5.25" stroke="url(#color-6)" stroke-width="3.5"/><path d="M243.53334,158.14714v2.6" stroke="url(#color-7)" stroke-width="1.5"/></g><g data-paper-data="{&quot;index&quot;:null}"><path d="M251.03334,157.93881v5.25" stroke="url(#color-8)" stroke-width="3.5"/><path d="M250.13334,160.91381v-2.6" stroke="url(#color-9)" stroke-width="1.5"/></g></g></g><g><g stroke="none" stroke-width="0" stroke-linecap="butt"><path d="M234.32857,189.24588c0,0 35.43277,-4.99454 39.5878,-5.58023c0.77637,-0.10944 2.048,-0.08223 2.72935,0.03299c1.76705,0.29883 9.6793,1.63692 12.39245,2.09577c0.57499,0.09725 0.55787,0.32011 -0.03695,0.59397c-2.52199,1.1612 -9.29045,4.2776 -10.97694,5.0541c-0.74013,0.34078 -2.23142,0.79515 -3.13415,0.9224c-4.43533,0.6252 -39.34025,5.54534 -39.34025,5.54534z" fill="#bfbfbf"/><path d="M235.03948,193.6012l-0.56995,-4.04336c0,0 34.90492,-4.92014 39.34025,-5.54534c0.90275,-0.12725 2.46152,-0.1028 3.26701,0.0201c1.83542,0.28006 9.2016,1.40406 11.94631,1.82288c0.64734,0.09877 0.13766,0.12052 0.13766,0.12052z" data-paper-data="{&quot;index&quot;:null}" fill="url(#color-10)"/><path d="M289.16066,185.97534c0,0 0.49584,-0.11999 -0.09898,0.15387c-2.52199,1.1612 -9.29045,4.27759 -10.97694,5.0541c-0.74013,0.34078 -2.23142,0.79516 -3.13415,0.92241c-4.43533,0.6252 -39.34025,5.54534 -39.34025,5.54534l-0.56995,-4.04337z" fill="url(#color-11)"/><path d="M234.32857,189.24588c0,0 34.90492,-4.92014 39.34025,-5.54534c0.90275,-0.12725 2.46152,-0.1028 3.26701,0.0201c1.83542,0.28006 9.2016,1.40407 11.94631,1.82288c0.64734,0.09877 0.7254,0.30822 0.19969,0.56061c-2.4806,1.19094 -9.71468,4.66404 -11.33027,5.43968c-0.62294,0.29908 -1.8375,0.67673 -2.61389,0.78617c-4.15502,0.58569 -39.5878,5.58023 -39.5878,5.58023z" data-paper-data="{&quot;index&quot;:null}" fill="url(#color-12)"/><path d="M234.32857,189.24588c0,0 35.43277,-4.99454 39.5878,-5.58023c0.77637,-0.10944 2.048,-0.08223 2.72935,0.03299c1.76705,0.29883 9.6793,1.63692 12.39245,2.09577c0.57499,0.09725 0.55787,0.32011 -0.03695,0.59397c-2.52199,1.1612 -9.29045,4.2776 -10.97694,5.0541c-0.74013,0.34078 -2.23142,0.79515 -3.13415,0.9224c-4.43533,0.6252 -39.34025,5.54534 -39.34025,5.54534z" fill="url(#color-13)"/></g><g fill="none" stroke-linecap="round"><g stroke-width="2"><path d="M234.13261,193.69174l-13.26917,1.8704" stroke="#f7b577"/><path d="M234.13261,193.69174l-13.26917,1.8704" data-paper-data="{&quot;index&quot;:null}" stroke="url(#color-14)"/><path d="M234.13261,193.69174l-13.26917,1.8704" data-paper-data="{&quot;index&quot;:null}" stroke="url(#color-15)"/></g><path d="M220.34882,195.36943l0.07333,0.52021" stroke="#969696" stroke-width="2.5"/><path d="M220.34882,195.36943l0.07333,0.52021" data-paper-data="{&quot;index&quot;:null}" stroke="url(#color-16)" stroke-width="2.5"/><path d="M220.34882,195.36943l0.07333,0.52021" data-paper-data="{&quot;index&quot;:null}" stroke="url(#color-17)" stroke-width="2.5"/></g><g stroke="none" stroke-linecap="butt"><path d="M232.62521,192.93508l2.5993,-0.36639l0.27043,1.91853l-2.5993,0.36639z" fill="url(#color-18)" stroke-width="2"/><path d="M232.47785,186.91191l2.53053,-0.3567l1.93859,13.75293l-2.53053,0.3567z" fill="#a3a3a3" stroke-width="0"/><path d="M232.50045,187.07226l2.53053,-0.3567l0.95123,6.74831l-2.53053,0.3567z" data-paper-data="{&quot;index&quot;:null}" fill="url(#color-19)" stroke-width="0"/><path d="M233.45252,193.82651l2.53053,-0.3567l0.95123,6.74831l-2.53053,0.3567z" data-paper-data="{&quot;index&quot;:null}" fill="url(#color-20)" stroke-width="0"/><path d="M232.47785,186.91191l2.53053,-0.3567l1.93859,13.75293l-2.53053,0.3567z" data-paper-data="{&quot;index&quot;:null}" fill="url(#color-21)" stroke-width="0"/><path d="M232.47785,186.91191l2.53053,-0.3567l1.93859,13.75293l-2.53053,0.3567z" data-paper-data="{&quot;index&quot;:null}" fill="url(#color-22)" stroke-width="0"/></g></g><path d="M227.25432,194.87033c0,0 -0.25499,-4.66207 0.23343,-7.0716c0.5106,-2.51894 2.76657,-7.7284 2.76657,-7.7284" fill="none" stroke="#000000" stroke-width="1" stroke-linecap="round"/></g></g></svg>