<svg version="1.1" xmlns="http://www.w3.org/2000/svg" xmlns:xlink="http://www.w3.org/1999/xlink" width="31.30205" height="31.30205" viewBox="0,0,31.30205,31.30205"><defs><linearGradient x1="240" y1="218.96787" x2="240" y2="187.66582" gradientUnits="userSpaceOnUse" id="color-1"><stop offset="0" stop-color="#000000"/><stop offset="1" stop-color="#000000" stop-opacity="0"/></linearGradient><linearGradient x1="201.03214" y1="180" x2="232.33419" y2="180" gradientUnits="userSpaceOnUse" id="color-2"><stop offset="0" stop-color="#000000"/><stop offset="1" stop-color="#000000" stop-opacity="0"/></linearGradient><linearGradient x1="278.96787" y1="180" x2="247.66581" y2="180" gradientUnits="userSpaceOnUse" id="color-3"><stop offset="0" stop-color="#ffffff"/><stop offset="1" stop-color="#ffffff" stop-opacity="0"/></linearGradient><linearGradient x1="240" y1="141.03214" x2="240" y2="172.33419" gradientUnits="userSpaceOnUse" id="color-4"><stop offset="0" stop-color="#ffffff"/><stop offset="1" stop-color="#ffffff" stop-opacity="0"/></linearGradient><linearGradient x1="240" y1="141.03214" x2="240" y2="172.33419" gradientUnits="userSpaceOnUse" id="color-5"><stop offset="0" stop-color="#ffffff"/><stop offset="1" stop-color="#ffffff" stop-opacity="0"/></linearGradient><linearGradient x1="278.96786" y1="180" x2="247.66581" y2="180" gradientUnits="userSpaceOnUse" id="color-6"><stop offset="0" stop-color="#ffffff"/><stop offset="1" stop-color="#ffffff" stop-opacity="0"/></linearGradient><linearGradient x1="201.03214" y1="180" x2="232.33419" y2="180" gradientUnits="userSpaceOnUse" id="color-7"><stop offset="0" stop-color="#000000"/><stop offset="1" stop-color="#000000" stop-opacity="0"/></linearGradient><linearGradient x1="240" y1="218.96786" x2="240" y2="187.66581" gradientUnits="userSpaceOnUse" id="color-8"><stop offset="0" stop-color="#000000"/><stop offset="1" stop-color="#000000" stop-opacity="0"/></linearGradient><linearGradient x1="240" y1="210.79718" x2="240" y2="186.05846" gradientUnits="userSpaceOnUse" id="color-9"><stop offset="0" stop-color="#000000"/><stop offset="1" stop-color="#000000" stop-opacity="0"/></linearGradient><linearGradient x1="209.20282" y1="180" x2="233.94154" y2="180" gradientUnits="userSpaceOnUse" id="color-10"><stop offset="0" stop-color="#000000"/><stop offset="1" stop-color="#000000" stop-opacity="0"/></linearGradient><linearGradient x1="240" y1="149.20282" x2="240" y2="173.94154" gradientUnits="userSpaceOnUse" id="color-11"><stop offset="0" stop-color="#000000"/><stop offset="1" stop-color="#000000" stop-opacity="0"/></linearGradient><linearGradient x1="270.79718" y1="180" x2="246.05846" y2="180" gradientUnits="userSpaceOnUse" id="color-12"><stop offset="0" stop-color="#000000"/><stop offset="1" stop-color="#000000" stop-opacity="0"/></linearGradient></defs><g transform="translate(-224.34898,-164.34898)"><g data-paper-data="{&quot;isPaintingLayer&quot;:true}" fill-rule="nonzero" stroke="none" stroke-width="0" stroke-linecap="butt" stroke-linejoin="miter" stroke-miterlimit="10" stroke-dasharray="" stroke-dashoffset="0" style="mix-blend-mode: normal"><g><g><path d="M224.34898,195.65102v-31.30205h31.30205v31.30205z" fill="#b3b3b3"/><path d="M255.65102,195.65102h-31.30205v-31.30205h31.30205z" fill="url(#color-1)"/><path d="M224.34898,195.65102v-31.30205h31.30205v31.30205z" fill="url(#color-2)"/><path d="M255.65102,164.34898v31.30205h-31.30205v-31.30205z" fill="url(#color-3)"/><path d="M224.34898,164.34898h31.30205v31.30205h-31.30205z" fill="url(#color-4)"/></g><g data-paper-data="{&quot;index&quot;:null}"><path d="M255.65102,164.34898v31.30205l-31.30205,-31.30205z" fill="#c9c9c9"/><path d="M224.34898,164.34898h31.30205v31.30205z" fill="url(#color-5)"/><path d="M255.65102,164.34898v31.30205l-31.30205,-31.30205z" fill="url(#color-6)"/><path d="M224.34898,164.34898h31.30205v31.30205z" fill="url(#color-7)"/><path d="M255.65102,195.65102l-31.30205,-31.30205h31.30205z" fill="url(#color-8)"/></g><g><path d="M227.63064,192.36936v-24.73871h24.73871v24.73871z" fill="#a2a2a2"/><path d="M252.36936,192.36936h-24.73871v-24.73871h24.73871z" fill="url(#color-9)"/><path d="M227.63064,192.36936v-24.73871h24.73871v24.73871z" fill="url(#color-10)"/><path d="M227.63064,167.63064h24.73871v24.73871h-24.73871z" fill="url(#color-11)"/><path d="M252.36936,167.63064v24.73871h-24.73871v-24.73871z" fill="url(#color-12)"/></g></g></g></g></svg>