<svg version="1.1" xmlns="http://www.w3.org/2000/svg" xmlns:xlink="http://www.w3.org/1999/xlink" width="40.46978" height="18.64826" viewBox="0,0,40.46978,18.64826"><defs><linearGradient x1="237.21826" y1="167.42992" x2="237.21826" y2="166.18559" gradientUnits="userSpaceOnUse" id="color-1"><stop offset="0" stop-color="#000000"/><stop offset="1" stop-color="#000000" stop-opacity="0"/></linearGradient><linearGradient x1="237.21826" y1="164.77776" x2="237.21826" y2="166.02207" gradientUnits="userSpaceOnUse" id="color-2"><stop offset="0" stop-color="#ffffff"/><stop offset="1" stop-color="#ffffff" stop-opacity="0"/></linearGradient><linearGradient x1="257.22737" y1="169.87604" x2="257.22737" y2="164.89252" gradientUnits="userSpaceOnUse" id="color-3"><stop offset="0" stop-color="#ffffff"/><stop offset="1" stop-color="#ffffff" stop-opacity="0"/></linearGradient><linearGradient x1="257.22737" y1="162.28585" x2="257.22737" y2="167.26936" gradientUnits="userSpaceOnUse" id="color-4"><stop offset="0" stop-color="#c7c7c7"/><stop offset="1" stop-color="#c7c7c7" stop-opacity="0"/></linearGradient><linearGradient x1="257.17268" y1="160.05242" x2="257.17268" y2="165.03594" gradientUnits="userSpaceOnUse" id="color-5"><stop offset="0" stop-color="#ffffff"/><stop offset="1" stop-color="#ffffff" stop-opacity="0"/></linearGradient><linearGradient x1="257.17268" y1="172.15524" x2="257.17268" y2="167.17173" gradientUnits="userSpaceOnUse" id="color-6"><stop offset="0" stop-color="#000000"/><stop offset="1" stop-color="#000000" stop-opacity="0"/></linearGradient><linearGradient x1="241.73939" y1="166.09866" x2="240.24434" y2="166.09866" gradientUnits="userSpaceOnUse" id="color-7"><stop offset="0" stop-color="#000000"/><stop offset="1" stop-color="#000000" stop-opacity="0"/></linearGradient><linearGradient x1="241.41958" y1="169.18142" x2="241.41958" y2="165.29996" gradientUnits="userSpaceOnUse" id="color-8"><stop offset="0" stop-color="#ffffff"/><stop offset="1" stop-color="#ffffff" stop-opacity="0"/></linearGradient><linearGradient x1="241.4196" y1="162.98579" x2="241.4196" y2="166.86725" gradientUnits="userSpaceOnUse" id="color-9"><stop offset="0" stop-color="#464646"/><stop offset="1" stop-color="#464646" stop-opacity="0"/></linearGradient><linearGradient x1="241.41958" y1="155.83189" x2="241.41958" y2="163.74223" gradientUnits="userSpaceOnUse" id="color-10"><stop offset="0" stop-color="#ffffff"/><stop offset="1" stop-color="#ffffff" stop-opacity="0"/></linearGradient><linearGradient x1="241.41958" y1="176.37577" x2="241.41958" y2="168.46542" gradientUnits="userSpaceOnUse" id="color-11"><stop offset="0" stop-color="#000000"/><stop offset="1" stop-color="#000000" stop-opacity="0"/></linearGradient><linearGradient x1="233.12732" y1="167.99045" x2="233.12732" y2="166.56659" gradientUnits="userSpaceOnUse" id="color-12"><stop offset="0" stop-color="#000000"/><stop offset="1" stop-color="#000000" stop-opacity="0"/></linearGradient><linearGradient x1="233.12732" y1="165.67667" x2="233.12732" y2="164.25281" gradientUnits="userSpaceOnUse" id="color-13"><stop offset="0" stop-color="#ffffff" stop-opacity="0"/><stop offset="1" stop-color="#ffffff"/></linearGradient></defs><g transform="translate(-232.37731,-162.14866)"><g data-paper-data="{&quot;isPaintingLayer&quot;:true}" fill-rule="nonzero" stroke-linejoin="miter" stroke-miterlimit="10" stroke-dasharray="" stroke-dashoffset="0" style="mix-blend-mode: normal"><g data-paper-data="{&quot;index&quot;:null}"><g><g data-paper-data="{&quot;index&quot;:null}" fill="none" stroke-width="1" stroke-linecap="round"><path d="M241.03433,166.10383h-7.6321" stroke="#f7b577"/><path d="M241.03433,166.10383h-7.6321" data-paper-data="{&quot;index&quot;:null}" stroke="url(#color-1)"/><path d="M241.03433,166.10383h-7.6321" data-paper-data="{&quot;index&quot;:null}" stroke="url(#color-2)"/></g><g stroke="none" stroke-width="0" stroke-linecap="butt"><g><path d="M241.49828,163.61207c0,0 20.07645,0 22.62753,0c0.51923,0 1.39639,0.13771 1.84089,0.27105c1.01286,0.30385 5.07781,1.52335 6.59244,1.97773c0.35723,0.10716 0.38459,0.23149 0.06805,0.33204c-1.49365,0.47447 -5.84955,1.85809 -6.82235,2.1671c-0.37511,0.11916 -1.0901,0.23559 -1.53665,0.23559c-2.38988,0 -22.76993,0 -22.76993,0z" fill="#f3c886"/><path d="M241.55297,166.07908v-2.32565c0,0 20.07645,0 22.62753,0c0.51923,0 1.39639,0.13771 1.84089,0.27105c1.01286,0.30385 5.07781,1.52334 6.59244,1.97773c0.35723,0.10717 0.06805,0.07891 0.06805,0.07891z" fill="url(#color-3)"/><path d="M272.68188,166.08075c0,0 0.28918,-0.02826 -0.06805,0.07891c-1.51463,0.45439 -5.57958,1.67388 -6.59244,1.97773c-0.4445,0.13334 -1.32165,0.27105 -1.84089,0.27105c-2.5511,0 -22.62753,0 -22.62753,0v-2.32564z" data-paper-data="{&quot;index&quot;:null}" fill="url(#color-4)"/></g><path d="M241.49825,163.61207c0,0 20.38006,0 22.76992,0c0.44656,0 1.16155,0.11644 1.53665,0.23559c0.9728,0.30901 5.32871,1.69265 6.82236,2.1671c0.31655,0.10055 0.28917,0.22487 -0.06806,0.33204c-1.51463,0.45439 -5.57958,1.67388 -6.59244,1.97774c-0.4445,0.13334 -1.32165,0.27105 -1.84089,0.27105c-2.5511,0 -22.62753,0 -22.62753,0z" data-paper-data="{&quot;index&quot;:null}" fill="url(#color-5)"/><path d="M241.49828,163.61207c0,0 20.07645,0 22.62753,0c0.51923,0 1.39639,0.13771 1.84089,0.27105c1.01286,0.30385 5.07781,1.52335 6.59244,1.97773c0.35723,0.10716 0.38459,0.23149 0.06805,0.33204c-1.49365,0.47447 -5.84955,1.85809 -6.82235,2.1671c-0.37511,0.11916 -1.0901,0.23559 -1.53665,0.23559c-2.38988,0 -22.76993,0 -22.76993,0z" fill="url(#color-6)"/></g><path d="M240.24434,165.54691h1.49505v1.10349h-1.49505z" fill="url(#color-7)" stroke="none" stroke-width="2" stroke-linecap="butt"/><g stroke="none" stroke-width="0" stroke-linecap="butt"><path d="M240.64006,162.14866h1.45551v7.91034h-1.45551z" fill="#e2b97c"/><path d="M240.64006,162.20044h1.45551v3.88146h-1.45551z" data-paper-data="{&quot;index&quot;:null}" fill="url(#color-8)"/><path d="M240.64006,166.08531h1.45551v3.88146h-1.45551z" data-paper-data="{&quot;index&quot;:null}" fill="url(#color-9)"/><path d="M240.64006,162.14866h1.45551v7.91034h-1.45551z" data-paper-data="{&quot;index&quot;:null}" fill="url(#color-10)"/><path d="M240.64006,162.14866h1.45551v7.91034h-1.45551z" data-paper-data="{&quot;index&quot;:null}" fill="url(#color-11)"/></g><g fill="none" stroke-width="1.5" stroke-linecap="round"><path d="M233.12732,166.25344v-0.29921" stroke="#d5af77"/><path d="M233.12732,166.25344v-0.29921" data-paper-data="{&quot;index&quot;:null}" stroke="url(#color-12)"/><path d="M233.12732,166.25344v-0.29921" data-paper-data="{&quot;index&quot;:null}" stroke="url(#color-13)"/></g></g><path d="M240.09667,180.29692c0,0 -2.25597,-5.20946 -2.76657,-7.7284c-0.48842,-2.40953 -0.23343,-7.0716 -0.23343,-7.0716" fill="none" stroke="#000000" stroke-width="1" stroke-linecap="round"/></g></g></g></svg>