<svg version="1.1" xmlns="http://www.w3.org/2000/svg" xmlns:xlink="http://www.w3.org/1999/xlink" width="9.21367" height="18.50263" viewBox="0,0,9.21367,18.50263"><defs><linearGradient x1="237.12188" y1="189.19229" x2="238.40067" y2="193.29356" gradientUnits="userSpaceOnUse" id="color-1"><stop offset="0" stop-color="#000000"/><stop offset="1" stop-color="#000000" stop-opacity="0"/></linearGradient><linearGradient x1="240.50057" y1="200.02827" x2="239.22178" y2="195.927" gradientUnits="userSpaceOnUse" id="color-2"><stop offset="0" stop-color="#ffffff"/><stop offset="1" stop-color="#ffffff" stop-opacity="0"/></linearGradient></defs><g transform="translate(-233.64316,-179.57033)"><g data-paper-data="{&quot;isPaintingLayer&quot;:true}" fill-rule="nonzero" stroke-linejoin="miter" stroke-miterlimit="10" stroke-dasharray="" stroke-dashoffset="0" style="mix-blend-mode: normal"><path d="M237.09666,194.87033c0,0 -0.25499,-4.66207 0.23343,-7.0716c0.5106,-2.51894 2.76657,-7.7284 2.76657,-7.7284" fill="none" stroke="#000000" stroke-width="1" stroke-linecap="round"/><g stroke-width="0.5"><path d="M233.64317,193.97169l7.93488,-2.47412l1.27879,4.10127l-7.93488,2.47412z" fill="#746040" stroke="none" stroke-linecap="butt"/><path d="M236.80276,193.63784l1.72685,-0.53844" fill="none" stroke="#5c4c32" stroke-linecap="round"/><path d="M236.22547,195.73626l0.86342,-0.26922" fill="none" stroke="#5c4c32" stroke-linecap="round"/><path d="M234.39211,194.14043l-0.61088,0.19047l0.81378,-0.25374" fill="none" stroke="#5c4c32" stroke-linecap="round"/><path d="M240.40703,192.28428l1.27355,-0.3971l-0.43171,0.13461" fill="none" stroke="#5c4c32" stroke-linecap="round"/><path d="M239.49206,196.18615l1.72685,-0.53844" fill="none" stroke="#5c4c32" stroke-linecap="round"/><path d="M233.64317,193.97169l7.93488,-2.47412l1.27879,4.10127l-7.93488,2.47412z" fill="url(#color-1)" stroke="none" stroke-linecap="butt"/><path d="M233.64317,193.97169l7.93488,-2.47412l1.27879,4.10127l-7.93488,2.47412z" data-paper-data="{&quot;index&quot;:null}" fill="url(#color-2)" stroke="none" stroke-linecap="butt"/></g></g></g></svg>