<svg version="1.1" xmlns="http://www.w3.org/2000/svg" xmlns:xlink="http://www.w3.org/1999/xlink" width="20.05798" height="27.34307" viewBox="0,0,20.05798,27.34307"><defs><linearGradient x1="242.87267" y1="168.35802" x2="242.87267" y2="165.54115" gradientUnits="userSpaceOnUse" id="color-1"><stop offset="0" stop-color="#000000"/><stop offset="1" stop-color="#000000" stop-opacity="0"/></linearGradient><linearGradient x1="242.87267" y1="162.35414" x2="242.87267" y2="165.171" gradientUnits="userSpaceOnUse" id="color-2"><stop offset="0" stop-color="#ffffff"/><stop offset="1" stop-color="#ffffff" stop-opacity="0"/></linearGradient><linearGradient x1="253.15015" y1="165.33064" x2="250.80973" y2="165.33064" gradientUnits="userSpaceOnUse" id="color-3"><stop offset="0" stop-color="#000000"/><stop offset="1" stop-color="#000000" stop-opacity="0"/></linearGradient><linearGradient x1="250.87914" y1="155.81299" x2="253.17617" y2="155.81299" gradientUnits="userSpaceOnUse" id="color-4"><stop offset="0" stop-color="#ffffff"/><stop offset="1" stop-color="#ffffff" stop-opacity="0"/></linearGradient><linearGradient x1="254.37765" y1="155.81299" x2="252.08062" y2="155.81299" gradientUnits="userSpaceOnUse" id="color-5"><stop offset="0" stop-color="#c7c7c7"/><stop offset="1" stop-color="#c7c7c7" stop-opacity="0"/></linearGradient><linearGradient x1="255.40709" y1="155.73727" x2="253.11006" y2="155.73727" gradientUnits="userSpaceOnUse" id="color-6"><stop offset="0" stop-color="#ffffff"/><stop offset="1" stop-color="#ffffff" stop-opacity="0"/></linearGradient><linearGradient x1="249.8286" y1="155.73727" x2="252.12562" y2="155.73727" gradientUnits="userSpaceOnUse" id="color-7"><stop offset="0" stop-color="#000000"/><stop offset="1" stop-color="#000000" stop-opacity="0"/></linearGradient><linearGradient x1="250.90479" y1="174.89917" x2="253.20182" y2="174.89917" gradientUnits="userSpaceOnUse" id="color-8"><stop offset="0" stop-color="#ffffff"/><stop offset="1" stop-color="#ffffff" stop-opacity="0"/></linearGradient><linearGradient x1="254.4033" y1="174.89917" x2="252.10627" y2="174.89917" gradientUnits="userSpaceOnUse" id="color-9"><stop offset="0" stop-color="#c7c7c7"/><stop offset="1" stop-color="#c7c7c7" stop-opacity="0"/></linearGradient><linearGradient x1="255.43274" y1="174.9749" x2="253.13572" y2="174.9749" gradientUnits="userSpaceOnUse" id="color-10"><stop offset="0" stop-color="#ffffff"/><stop offset="1" stop-color="#ffffff" stop-opacity="0"/></linearGradient><linearGradient x1="249.85425" y1="174.9749" x2="252.15127" y2="174.9749" gradientUnits="userSpaceOnUse" id="color-11"><stop offset="0" stop-color="#000000"/><stop offset="1" stop-color="#000000" stop-opacity="0"/></linearGradient></defs><g transform="translate(-233.73403,-153.2749)"><g data-paper-data="{&quot;isPaintingLayer&quot;:true}" fill-rule="nonzero" stroke-width="1" stroke-linejoin="miter" stroke-miterlimit="10" stroke-dasharray="" stroke-dashoffset="0" style="mix-blend-mode: normal"><g data-paper-data="{&quot;index&quot;:null}"><g data-paper-data="{&quot;index&quot;:null}" fill="none" stroke-linecap="round"><path d="M251.51131,165.35608h-17.27728" stroke="#f7b577"/><path d="M251.51131,165.35608h-17.27728" data-paper-data="{&quot;index&quot;:null}" stroke="url(#color-1)"/><path d="M251.51131,165.35608h-17.27728" data-paper-data="{&quot;index&quot;:null}" stroke="url(#color-2)"/></g><path d="M250.80973,164.7201h2.34042v1.22108h-2.34042z" fill="url(#color-3)" stroke="none" stroke-linecap="butt"/><g stroke="none" stroke-linecap="butt"><g><g><path d="M253.76636,165.34123c0,0 0,-3.50968 0,0.02211c0,0.71883 -0.06347,1.93319 -0.12493,2.54856c-0.14005,1.40222 -0.70214,7.02983 -0.91159,9.12672c-0.0494,0.49455 -0.1067,0.53244 -0.15305,0.09421c-0.21869,-2.06786 -0.85645,-8.09824 -0.99887,-9.44501c-0.05491,-0.5193 -0.10858,-1.50916 -0.10858,-2.12737c0,-3.30859 0,-0.21923 0,-0.21923z" fill="#f3c886"/><path d="M252.62925,165.41694h1.07194c0,0 0,-3.50968 0,0.02211c0,0.71883 -0.06347,1.93319 -0.12494,2.54857c-0.14005,1.40222 -0.70214,7.02982 -0.91159,9.12671c-0.0494,0.49455 -0.03637,0.09421 -0.03637,0.09421z" fill="url(#color-4)"/><path d="M252.62848,177.20854c0,0 0.01302,0.40035 -0.03637,-0.09421c-0.20944,-2.09689 -0.77154,-7.72449 -0.91159,-9.12671c-0.06146,-0.61538 -0.12493,-1.82973 -0.12493,-2.54857c0,-3.53179 0,-0.0221 0,-0.0221h1.07194z" data-paper-data="{&quot;index&quot;:null}" fill="url(#color-5)"/></g><path d="M253.76636,165.34119c0,0 0,-3.08935 0,0.21923c0,0.61822 -0.05366,1.60808 -0.10859,2.12737c-0.14243,1.34677 -0.78019,7.37716 -0.99887,9.44502c-0.04635,0.43823 -0.10365,0.40035 -0.15304,-0.09421c-0.20944,-2.09689 -0.77154,-7.72449 -0.91159,-9.12671c-0.06146,-0.61538 -0.12493,-1.82973 -0.12493,-2.54857c0,-3.53179 0,-0.0221 0,-0.0221z" data-paper-data="{&quot;index&quot;:null}" fill="url(#color-6)"/><path d="M253.76636,165.34123c0,0 0,-3.50968 0,0.02211c0,0.71883 -0.06347,1.93319 -0.12493,2.54856c-0.14005,1.40222 -0.70214,7.02983 -0.91159,9.12672c-0.0494,0.49455 -0.1067,0.53244 -0.15305,0.09421c-0.21869,-2.06786 -0.85645,-8.09824 -0.99887,-9.44501c-0.05491,-0.5193 -0.10858,-1.50916 -0.10858,-2.12737c0,-3.30859 0,-0.21923 0,-0.21923z" fill="url(#color-7)"/></g><g data-paper-data="{&quot;index&quot;:null}"><g><path d="M251.49498,165.37096c0,0 0,3.08936 0,-0.21923c0,-0.61821 0.05367,-1.60807 0.10859,-2.12737c0.14243,-1.34677 0.78018,-7.37716 0.99887,-9.44502c0.04635,-0.43823 0.10365,-0.40035 0.15304,0.09421c0.20944,2.09689 0.77154,7.7245 0.91159,9.12672c0.06146,0.61538 0.12493,1.82973 0.12493,2.54857c0,3.53179 0,0.02211 0,0.02211z" fill="#f3c886"/><path d="M252.65396,153.50362c0,0 -0.01302,-0.40035 0.03637,0.09421c0.20944,2.09689 0.77153,7.72449 0.91159,9.12671c0.06146,0.61538 0.12494,1.82974 0.12494,2.54857c0,3.53179 0,0.02211 0,0.02211h-1.07194z" fill="url(#color-8)"/><path d="M252.65318,165.29523h-1.07194c0,0 0,3.50968 0,-0.02211c0,-0.71884 0.06347,-1.9332 0.12493,-2.54857c0.14005,-1.40222 0.70215,-7.02982 0.91159,-9.12671c0.0494,-0.49456 0.03637,-0.09421 0.03637,-0.09421z" data-paper-data="{&quot;index&quot;:null}" fill="url(#color-9)"/></g><path d="M251.49498,165.37096c0,0 0,3.50968 0,-0.02211c0,-0.71884 0.06347,-1.93319 0.12493,-2.54857c0.14005,-1.40222 0.70215,-7.02982 0.91159,-9.12671c0.0494,-0.49456 0.1067,-0.53245 0.15305,-0.09422c0.21869,2.06785 0.85645,8.09825 0.99887,9.44502c0.05491,0.51929 0.10858,1.50914 0.10858,2.12736c0,3.30858 0,0.21923 0,0.21923z" data-paper-data="{&quot;index&quot;:null}" fill="url(#color-10)"/><path d="M251.49498,165.37096c0,0 0,3.08936 0,-0.21923c0,-0.61821 0.05367,-1.60807 0.10859,-2.12737c0.14243,-1.34677 0.78018,-7.37716 0.99887,-9.44502c0.04635,-0.43823 0.10365,-0.40035 0.15304,0.09421c0.20944,2.09689 0.77154,7.7245 0.91159,9.12672c0.06146,0.61538 0.12493,1.82973 0.12493,2.54857c0,3.53179 0,0.02211 0,0.02211z" fill="url(#color-11)"/></g></g></g><path d="M240.09667,180.11797c0,0 -2.25597,-5.20946 -2.76657,-7.7284c-0.48842,-2.40953 -0.23343,-7.0716 -0.23343,-7.0716" data-paper-data="{&quot;index&quot;:null}" fill="none" stroke="#000000" stroke-linecap="round"/></g></g></svg>