<svg version="1.1" xmlns="http://www.w3.org/2000/svg" xmlns:xlink="http://www.w3.org/1999/xlink" width="38.87836" height="32.53521" viewBox="0,0,38.87836,32.53521"><defs><linearGradient x1="235.15333" y1="181.84111" x2="239.70121" y2="181.84111" gradientUnits="userSpaceOnUse" id="color-1"><stop offset="0" stop-color="#000000"/><stop offset="1" stop-color="#000000" stop-opacity="0"/></linearGradient><linearGradient x1="244.84668" y1="181.84111" x2="240.29882" y2="181.84111" gradientUnits="userSpaceOnUse" id="color-2"><stop offset="0" stop-color="#ffffff"/><stop offset="1" stop-color="#ffffff" stop-opacity="0"/></linearGradient><linearGradient x1="240.04108" y1="165.24798" x2="240.04108" y2="169.02661" gradientUnits="userSpaceOnUse" id="color-3"><stop offset="0" stop-color="#000000"/><stop offset="1" stop-color="#000000" stop-opacity="0"/></linearGradient><linearGradient x1="255.40745" y1="168.91455" x2="255.40745" y2="165.20597" gradientUnits="userSpaceOnUse" id="color-4"><stop offset="0" stop-color="#ffffff"/><stop offset="1" stop-color="#ffffff" stop-opacity="0"/></linearGradient><linearGradient x1="255.40745" y1="163.26617" x2="255.40745" y2="166.97475" gradientUnits="userSpaceOnUse" id="color-5"><stop offset="0" stop-color="#c7c7c7"/><stop offset="1" stop-color="#c7c7c7" stop-opacity="0"/></linearGradient><linearGradient x1="255.52971" y1="161.60411" x2="255.52971" y2="165.3127" gradientUnits="userSpaceOnUse" id="color-6"><stop offset="0" stop-color="#ffffff"/><stop offset="1" stop-color="#ffffff" stop-opacity="0"/></linearGradient><linearGradient x1="255.52971" y1="170.61067" x2="255.52971" y2="166.90209" gradientUnits="userSpaceOnUse" id="color-7"><stop offset="0" stop-color="#000000"/><stop offset="1" stop-color="#000000" stop-opacity="0"/></linearGradient><linearGradient x1="224.46042" y1="168.92126" x2="224.46042" y2="165.21268" gradientUnits="userSpaceOnUse" id="color-8"><stop offset="0" stop-color="#ffffff"/><stop offset="1" stop-color="#ffffff" stop-opacity="0"/></linearGradient><linearGradient x1="224.46042" y1="163.27288" x2="224.46042" y2="166.98146" gradientUnits="userSpaceOnUse" id="color-9"><stop offset="0" stop-color="#c7c7c7"/><stop offset="1" stop-color="#c7c7c7" stop-opacity="0"/></linearGradient><linearGradient x1="224.33816" y1="161.61082" x2="224.33816" y2="165.31941" gradientUnits="userSpaceOnUse" id="color-10"><stop offset="0" stop-color="#ffffff"/><stop offset="1" stop-color="#ffffff" stop-opacity="0"/></linearGradient><linearGradient x1="224.33816" y1="170.61738" x2="224.33816" y2="166.9088" gradientUnits="userSpaceOnUse" id="color-11"><stop offset="0" stop-color="#000000"/><stop offset="1" stop-color="#000000" stop-opacity="0"/></linearGradient></defs><g transform="translate(-220.49475,-164.2531)"><g data-paper-data="{&quot;isPaintingLayer&quot;:true}" fill-rule="nonzero" stroke-linejoin="miter" stroke-miterlimit="10" stroke-dasharray="" stroke-dashoffset="0" style="mix-blend-mode: normal"><g><g><g data-paper-data="{&quot;index&quot;:null}" fill="none" stroke-width="2" stroke-linecap="round"><path d="M240,195.78831v-27.89441" stroke="#f7b577"/><path d="M240,195.78831v-27.89441" data-paper-data="{&quot;index&quot;:null}" stroke="url(#color-1)"/><path d="M240,195.78831v-27.89441" data-paper-data="{&quot;index&quot;:null}" stroke="url(#color-2)"/></g><path d="M239.05535,169.02661v-3.77863h1.97146v3.77863z" fill="url(#color-3)" stroke="none" stroke-width="0" stroke-linecap="butt"/></g><g stroke="none" stroke-width="0" stroke-linecap="butt"><path d="M240.02401,167.96168c0,0 4.98781,0 -0.35395,0c-0.99812,0 -2.59625,-0.08665 -3.43467,-0.17531c-2.17438,-0.22995 -11.91053,-1.25961 -15.24911,-1.61269c-0.70754,-0.07483 -0.64635,-0.16735 0.15211,-0.2471c3.38546,-0.33815 12.4713,-1.24565 14.7352,-1.47177c0.99353,-0.09924 2.95414,-0.20171 4.1147,-0.20171c5.70212,0 0.03569,0 0.03569,0z" fill="#c2c2c2"/><path d="M220.86404,166.0905c0,0 -0.64635,0.02103 0.15211,-0.05872c3.38546,-0.33815 12.4713,-1.24565 14.7352,-1.47177c0.99353,-0.09924 2.95414,-0.20171 4.1147,-0.20171c5.70212,0 0.03569,0 0.03569,0v1.73067z" fill="url(#color-4)"/><path d="M239.90175,166.09175v1.73067c0,0 5.66643,0 -0.03569,0c-1.16058,0 -3.12117,-0.10248 -4.1147,-0.20171c-2.2639,-0.22612 -11.34974,-1.13362 -14.7352,-1.47177c-0.79847,-0.07975 -0.15211,-0.05872 -0.15211,-0.05872z" data-paper-data="{&quot;index&quot;:null}" fill="url(#color-5)"/><path d="M240.02401,167.96168c0,0 5.66643,0 -0.03569,0c-1.16058,0 -3.12117,-0.10248 -4.1147,-0.20171c-2.2639,-0.22612 -11.34974,-1.13363 -14.7352,-1.47177c-0.79847,-0.07975 -0.85965,-0.17227 -0.15211,-0.2471c3.33858,-0.35307 13.07473,-1.38274 15.24911,-1.61269c0.8384,-0.08867 2.43654,-0.17531 3.43467,-0.17531c5.34175,0 0.35395,0 0.35395,0z" data-paper-data="{&quot;index&quot;:null}" fill="url(#color-6)"/><path d="M240.02401,167.96168c0,0 4.98781,0 -0.35395,0c-0.99812,0 -2.59625,-0.08665 -3.43467,-0.17531c-2.17438,-0.22995 -11.91053,-1.25961 -15.24911,-1.61269c-0.70754,-0.07483 -0.64635,-0.16735 0.15211,-0.2471c3.38546,-0.33815 12.4713,-1.24565 14.7352,-1.47177c0.99353,-0.09924 2.95414,-0.20171 4.1147,-0.20171c5.70212,0 0.03569,0 0.03569,0z" fill="url(#color-7)"/></g><g data-paper-data="{&quot;index&quot;:null}" stroke="none" stroke-width="0" stroke-linecap="butt"><path d="M239.84389,164.25981c0,0 -5.66643,0 0.03569,0c1.16056,0 3.12117,0.10247 4.1147,0.20171c2.2639,0.22612 11.34974,1.13362 14.7352,1.47177c0.79846,0.07975 0.85965,0.17227 0.15211,0.2471c-3.33858,0.35308 -13.07473,1.38274 -15.24911,1.61269c-0.83842,0.08866 -2.43655,0.17531 -3.43467,0.17531c-5.34176,0 -0.35395,0 -0.35395,0z" fill="#c2c2c2"/><path d="M239.96613,166.09568v-1.73067c0,0 -5.66643,0 0.03569,0c1.16056,0 3.12117,0.10247 4.1147,0.20171c2.2639,0.22612 11.34974,1.13362 14.7352,1.47177c0.79846,0.07975 0.15211,0.05872 0.15211,0.05872z" fill="url(#color-8)"/><path d="M259.00382,166.09693c0,0 0.64636,-0.02103 -0.15211,0.05872c-3.38546,0.33815 -12.4713,1.24565 -14.7352,1.47177c-0.99353,0.09923 -2.95412,0.20171 -4.1147,0.20171c-5.70212,0 -0.03569,0 -0.03569,0v-1.73067z" data-paper-data="{&quot;index&quot;:null}" fill="url(#color-9)"/><path d="M239.84383,164.25981c0,0 -4.9878,0 0.35395,0c0.99813,0 2.59627,0.08664 3.43467,0.17531c2.17438,0.22995 11.91053,1.25962 15.24911,1.61269c0.70754,0.07483 0.64636,0.16735 -0.15211,0.2471c-3.38546,0.33814 -12.4713,1.24565 -14.7352,1.47177c-0.99353,0.09923 -2.95412,0.20171 -4.1147,0.20171c-5.70212,0 -0.03569,0 -0.03569,0z" data-paper-data="{&quot;index&quot;:null}" fill="url(#color-10)"/><path d="M239.84389,164.25981c0,0 -5.66643,0 0.03569,0c1.16056,0 3.12117,0.10247 4.1147,0.20171c2.2639,0.22612 11.34974,1.13362 14.7352,1.47177c0.79846,0.07975 0.85965,0.17227 0.15211,0.2471c-3.33858,0.35308 -13.07473,1.38274 -15.24911,1.61269c-0.83842,0.08866 -2.43655,0.17531 -3.43467,0.17531c-5.34176,0 -0.35395,0 -0.35395,0z" fill="url(#color-11)"/></g></g></g></g></svg>