<svg version="1.1" xmlns="http://www.w3.org/2000/svg" xmlns:xlink="http://www.w3.org/1999/xlink" width="7.49093" height="19.23499" viewBox="0,0,7.49093,19.23499"><defs><linearGradient x1="234.31644" y1="172.37441" x2="237.10487" y2="167.68377" gradientUnits="userSpaceOnUse" id="color-1"><stop offset="0" stop-color="#000000"/><stop offset="1" stop-color="#000000" stop-opacity="0"/></linearGradient><linearGradient x1="230.9212" y1="162.24057" x2="235.61184" y2="165.029" gradientUnits="userSpaceOnUse" id="color-2"><stop offset="0" stop-color="#000000"/><stop offset="1" stop-color="#000000" stop-opacity="0"/></linearGradient><linearGradient x1="241.05504" y1="158.84534" x2="238.26661" y2="163.53598" gradientUnits="userSpaceOnUse" id="color-3"><stop offset="0" stop-color="#ffffff"/><stop offset="1" stop-color="#ffffff" stop-opacity="0"/></linearGradient><linearGradient x1="244.45028" y1="168.97918" x2="239.75963" y2="166.19075" gradientUnits="userSpaceOnUse" id="color-4"><stop offset="0" stop-color="#ffffff"/><stop offset="1" stop-color="#ffffff" stop-opacity="0"/></linearGradient><linearGradient x1="235.77343" y1="169.44921" x2="237.35606" y2="166.78695" gradientUnits="userSpaceOnUse" id="color-5"><stop offset="0" stop-color="#000000"/><stop offset="1" stop-color="#000000" stop-opacity="0"/></linearGradient><linearGradient x1="233.84641" y1="163.69757" x2="236.50866" y2="165.28019" gradientUnits="userSpaceOnUse" id="color-6"><stop offset="0" stop-color="#000000"/><stop offset="1" stop-color="#000000" stop-opacity="0"/></linearGradient><linearGradient x1="241.52507" y1="167.52218" x2="238.86281" y2="165.93956" gradientUnits="userSpaceOnUse" id="color-7"><stop offset="0" stop-color="#000000"/><stop offset="1" stop-color="#000000" stop-opacity="0"/></linearGradient><linearGradient x1="239.59805" y1="161.77054" x2="238.01542" y2="164.4328" gradientUnits="userSpaceOnUse" id="color-8"><stop offset="0" stop-color="#000000"/><stop offset="1" stop-color="#000000" stop-opacity="0"/></linearGradient><linearGradient x1="236.70227" y1="167.58439" x2="237.51619" y2="166.21523" gradientUnits="userSpaceOnUse" id="color-9"><stop offset="0" stop-color="#000000"/><stop offset="1" stop-color="#000000" stop-opacity="0"/></linearGradient><linearGradient x1="235.71122" y1="164.6264" x2="237.08039" y2="165.44032" gradientUnits="userSpaceOnUse" id="color-10"><stop offset="0" stop-color="#000000"/><stop offset="1" stop-color="#000000" stop-opacity="0"/></linearGradient><linearGradient x1="239.66025" y1="166.59334" x2="238.29109" y2="165.77942" gradientUnits="userSpaceOnUse" id="color-11"><stop offset="0" stop-color="#ffffff"/><stop offset="1" stop-color="#ffffff" stop-opacity="0"/></linearGradient><linearGradient x1="238.66921" y1="163.63536" x2="237.85529" y2="165.00452" gradientUnits="userSpaceOnUse" id="color-12"><stop offset="0" stop-color="#ffffff"/><stop offset="1" stop-color="#ffffff" stop-opacity="0"/></linearGradient><linearGradient x1="239.67356" y1="166.79157" x2="237.94689" y2="165.76512" gradientUnits="userSpaceOnUse" id="color-13"><stop offset="0" stop-color="#000000"/><stop offset="1" stop-color="#000000" stop-opacity="0"/></linearGradient><linearGradient x1="238.72226" y1="166.18488" x2="236.43081" y2="164.82268" gradientUnits="userSpaceOnUse" id="color-14"><stop offset="0" stop-color="#000000" stop-opacity="0"/><stop offset="1" stop-color="#000000"/></linearGradient><linearGradient x1="241.86887" y1="168.19955" x2="239.57743" y2="166.83737" gradientUnits="userSpaceOnUse" id="color-15"><stop offset="0" stop-color="#ffffff"/><stop offset="1" stop-color="#ffffff" stop-opacity="0"/></linearGradient></defs><g transform="translate(-233.9462,-161.87033)"><g data-paper-data="{&quot;isPaintingLayer&quot;:true}" fill-rule="nonzero" stroke-linejoin="miter" stroke-miterlimit="10" stroke-dasharray="" stroke-dashoffset="0" style="mix-blend-mode: normal"><path d="M240.09666,180.60532c0,0 -2.25597,-5.20946 -2.76657,-7.7284c-0.48842,-2.40953 -0.23343,-7.0716 -0.23343,-7.0716" data-paper-data="{&quot;index&quot;:null}" fill="none" stroke="#000000" stroke-width="1" stroke-linecap="round"/><g data-paper-data="{&quot;index&quot;:null}" stroke="none" stroke-width="0" stroke-linecap="butt"><g><path d="M236.73464,161.87034l4.69064,2.78843l-2.78843,4.69064l-4.69064,-2.78843z" fill="#806947"/><path d="M236.73464,161.87034l4.69064,2.78843l-2.78843,4.69064l-4.69064,-2.78843z" fill="url(#color-1)"/><path d="M241.42527,164.65877l-2.78843,4.69064l-4.69064,-2.78843l2.78843,-4.69064z" fill="url(#color-2)"/><path d="M238.63684,169.3494l-4.69064,-2.78843l2.78843,-4.69064l4.69064,2.78843z" fill="url(#color-3)"/><path d="M233.94621,166.56099l2.78843,-4.69064l4.69064,2.78843l-2.78843,4.69064z" fill="url(#color-4)"/></g><g><path d="M237.14592,163.48744l2.66226,1.58262l-1.58262,2.66226l-2.66226,-1.58262z" fill="#806947"/><path d="M237.14592,163.48744l2.66226,1.58262l-1.58262,2.66226l-2.66226,-1.58262z" fill="url(#color-5)"/><path d="M239.80818,165.07006l-1.58262,2.66226l-2.66226,-1.58262l1.58262,-2.66226z" fill="url(#color-6)"/><path d="M235.5633,166.1497l1.58262,-2.66226l2.66226,1.58262l-1.58262,2.66226z" fill="url(#color-7)"/><path d="M238.22555,167.73232l-2.66226,-1.58262l1.58262,-2.66226l2.66226,1.58262z" fill="url(#color-8)"/></g><g><path d="M237.40812,164.51833l1.36916,0.81392l-0.81392,1.36916l-1.36916,-0.81392z" fill="#806947"/><path d="M237.40812,164.51833l1.36916,0.81392l-0.81392,1.36916l-1.36916,-0.81392z" fill="url(#color-9)"/><path d="M238.77728,165.33225l-0.81392,1.36916l-1.36916,-0.81392l0.81392,-1.36916z" fill="url(#color-10)"/><path d="M236.5942,165.88749l0.81392,-1.36916l1.36916,0.81392l-0.81392,1.36916z" fill="url(#color-11)"/><path d="M237.96336,166.70141l-1.36916,-0.81392l0.81392,-1.36916l1.36916,0.81392z" fill="url(#color-12)"/></g><path d="M239.34299,163.41663l1.72667,1.02644l-2.7922,4.69699l-1.72667,-1.02644z" fill="url(#color-13)"/><g><path d="M237.2357,167.988l-0.13087,-0.40815l0.46426,0.00711l-0.37369,-0.63376l0.62864,0.12795l-0.09995,-0.472l0.65154,0.018l-0.37806,-0.78733l0.46944,0.03576l-0.05268,-0.43758l0.48818,-0.08321l-0.44097,-0.55435l0.64064,0.06179l-0.22687,-0.38877l0.37424,0.00301l-0.44349,-0.60153l0.81504,0.14883l-0.04209,-0.46254l1.85812,1.10458l-2.78843,4.69064l-1.85812,-1.10458z" fill="#99be87"/><path d="M237.63123,168.22313l-0.13087,-0.40815l0.46426,0.00711l-0.37369,-0.63376l0.62864,0.12795l-0.09995,-0.472l0.65154,0.018l-0.37806,-0.78733l0.46944,0.03576l-0.05268,-0.43758l0.48818,-0.08321l-0.44097,-0.55435l0.64064,0.06179l-0.22687,-0.38877l0.37424,0.00301l-0.44349,-0.60153l0.81504,0.14883l-0.04209,-0.46254l1.46259,0.86945l-2.78843,4.69064l-1.46259,-0.86945z" fill="#afd89a"/><path d="M237.2357,167.988l-0.13087,-0.40815l0.46426,0.00711l-0.37369,-0.63376l0.62864,0.12795l-0.09995,-0.472l0.65154,0.018l-0.37806,-0.78733l0.46944,0.03576l-0.05268,-0.43758l0.48818,-0.08321l-0.44097,-0.55435l0.64064,0.06179l-0.22687,-0.38877l0.37424,0.00301l-0.44349,-0.60153l0.81504,0.14883l-0.04209,-0.46254l1.85812,1.10458l-2.78843,4.69064l-1.85812,-1.10458z" fill="url(#color-14)"/><path d="M237.2357,167.988l-0.13087,-0.40815l0.46426,0.00711l-0.37369,-0.63376l0.62864,0.12795l-0.09995,-0.472l0.65154,0.018l-0.37806,-0.78733l0.46944,0.03576l-0.05268,-0.43758l0.48818,-0.08321l-0.44097,-0.55435l0.64064,0.06179l-0.22687,-0.38877l0.37424,0.00301l-0.44349,-0.60153l0.81504,0.14883l-0.04209,-0.46254l1.85812,1.10458l-2.78843,4.69064l-1.85812,-1.10458z" fill="url(#color-15)"/></g></g></g></g></svg>