<svg version="1.1" xmlns="http://www.w3.org/2000/svg" xmlns:xlink="http://www.w3.org/1999/xlink" width="61.66667" height="61.66667" viewBox="0,0,61.66667,61.66667"><defs><linearGradient x1="154.83333" y1="173.66667" x2="216.5" y2="173.66667" gradientUnits="userSpaceOnUse" id="color-1"><stop offset="0" stop-color="#000000"/><stop offset="1" stop-color="#000000" stop-opacity="0"/></linearGradient><linearGradient x1="233.66667" y1="265.16667" x2="233.66667" y2="203.5" gradientUnits="userSpaceOnUse" id="color-2"><stop offset="0" stop-color="#000000"/><stop offset="1" stop-color="#000000" stop-opacity="0"/></linearGradient><linearGradient x1="325.16667" y1="186.33334" x2="263.5" y2="186.33334" gradientUnits="userSpaceOnUse" id="color-3"><stop offset="0" stop-color="#ffffff"/><stop offset="1" stop-color="#ffffff" stop-opacity="0"/></linearGradient><linearGradient x1="246.33334" y1="94.83333" x2="246.33334" y2="156.5" gradientUnits="userSpaceOnUse" id="color-4"><stop offset="0" stop-color="#ffffff"/><stop offset="1" stop-color="#ffffff" stop-opacity="0"/></linearGradient><linearGradient x1="191.66216" y1="176.40541" x2="226.66216" y2="176.40541" gradientUnits="userSpaceOnUse" id="color-5"><stop offset="0" stop-color="#000000"/><stop offset="1" stop-color="#000000" stop-opacity="0"/></linearGradient><linearGradient x1="236.40541" y1="228.33784" x2="236.40541" y2="193.33784" gradientUnits="userSpaceOnUse" id="color-6"><stop offset="0" stop-color="#000000"/><stop offset="1" stop-color="#000000" stop-opacity="0"/></linearGradient><linearGradient x1="243.5946" y1="131.66216" x2="243.5946" y2="166.66216" gradientUnits="userSpaceOnUse" id="color-7"><stop offset="0" stop-color="#000000"/><stop offset="1" stop-color="#000000" stop-opacity="0"/></linearGradient><linearGradient x1="288.33784" y1="183.5946" x2="253.33784" y2="183.5946" gradientUnits="userSpaceOnUse" id="color-8"><stop offset="0" stop-color="#000000"/><stop offset="1" stop-color="#000000" stop-opacity="0"/></linearGradient><linearGradient x1="215.14054" y1="178.15135" x2="233.14054" y2="178.15135" gradientUnits="userSpaceOnUse" id="color-9"><stop offset="0" stop-color="#000000"/><stop offset="1" stop-color="#000000" stop-opacity="0"/></linearGradient><linearGradient x1="238.15135" y1="204.85946" x2="238.15135" y2="186.85946" gradientUnits="userSpaceOnUse" id="color-10"><stop offset="0" stop-color="#000000"/><stop offset="1" stop-color="#000000" stop-opacity="0"/></linearGradient><linearGradient x1="241.84865" y1="155.14054" x2="241.84865" y2="173.14054" gradientUnits="userSpaceOnUse" id="color-11"><stop offset="0" stop-color="#ffffff"/><stop offset="1" stop-color="#ffffff" stop-opacity="0"/></linearGradient><linearGradient x1="264.85946" y1="181.84865" x2="246.85946" y2="181.84865" gradientUnits="userSpaceOnUse" id="color-12"><stop offset="0" stop-color="#ffffff"/><stop offset="1" stop-color="#ffffff" stop-opacity="0"/></linearGradient></defs><g transform="translate(-209.16666,-149.16666)"><g data-paper-data="{&quot;isPaintingLayer&quot;:true}" fill-rule="nonzero" stroke="none" stroke-width="0" stroke-linecap="butt" stroke-linejoin="miter" stroke-miterlimit="10" stroke-dasharray="" stroke-dashoffset="0" style="mix-blend-mode: normal"><g><g><path d="M209.16667,210.83334v-61.66667h61.66667v61.66667z" fill="#806947"/><path d="M209.16667,210.83334v-61.66667h61.66667v61.66667z" fill="url(#color-1)"/><path d="M270.83333,210.83334h-61.66667v-61.66667h61.66667z" fill="url(#color-2)"/><path d="M270.83333,149.16667v61.66667h-61.66667v-61.66667z" fill="url(#color-3)"/><path d="M209.16667,149.16667h61.66667v61.66667h-61.66667z" fill="url(#color-4)"/></g><g><path d="M222.5,197.5v-35h35v35z" fill="#806947"/><path d="M222.5,197.5v-35h35v35z" fill="url(#color-5)"/><path d="M257.5,197.5h-35v-35h35z" fill="url(#color-6)"/><path d="M222.5,162.5h35v35h-35z" fill="url(#color-7)"/><path d="M257.5,162.5v35h-35v-35z" fill="url(#color-8)"/></g><g><path d="M231,189v-18h18v18z" fill="#806947"/><path d="M231,189v-18h18v18z" fill="url(#color-9)"/><path d="M249,189h-18v-18h18z" fill="url(#color-10)"/><path d="M231,171h18v18h-18z" fill="url(#color-11)"/><path d="M249,171v18h-18v-18z" fill="url(#color-12)"/></g></g></g></g></svg>