<svg version="1.1" xmlns="http://www.w3.org/2000/svg" xmlns:xlink="http://www.w3.org/1999/xlink" width="10.83333" height="32.68828" viewBox="0,0,10.83333,32.68828"><defs><linearGradient x1="242.58333" y1="185.17101" x2="253.41666" y2="185.17101" gradientUnits="userSpaceOnUse" id="color-1"><stop offset="0" stop-color="#000000" stop-opacity="0"/><stop offset="1" stop-color="#000000"/></linearGradient><linearGradient x1="228.67425" y1="185.44374" x2="239.50757" y2="185.44374" gradientUnits="userSpaceOnUse" id="color-2"><stop offset="0" stop-color="#ffffff"/><stop offset="1" stop-color="#ffffff" stop-opacity="0"/></linearGradient><linearGradient x1="241.95454" y1="168.79222" x2="252.77273" y2="168.79222" gradientUnits="userSpaceOnUse" id="color-3"><stop offset="0" stop-color="#000000" stop-opacity="0"/><stop offset="1" stop-color="#000000"/></linearGradient><linearGradient x1="226.22727" y1="168.24677" x2="237.04545" y2="168.24677" gradientUnits="userSpaceOnUse" id="color-4"><stop offset="0" stop-color="#ffffff"/><stop offset="1" stop-color="#ffffff" stop-opacity="0"/></linearGradient><linearGradient x1="241.18389" y1="168.6354" x2="247.73658" y2="168.6354" gradientUnits="userSpaceOnUse" id="color-5"><stop offset="0" stop-color="#000000" stop-opacity="0"/><stop offset="1" stop-color="#000000"/></linearGradient><linearGradient x1="231.65771" y1="168.30501" x2="238.21039" y2="168.30501" gradientUnits="userSpaceOnUse" id="color-6"><stop offset="0" stop-color="#000000"/><stop offset="1" stop-color="#000000" stop-opacity="0"/></linearGradient><linearGradient x1="239.87886" y1="161.24389" x2="239.87886" y2="167.24593" gradientUnits="userSpaceOnUse" id="color-7"><stop offset="0" stop-color="#000000"/><stop offset="1" stop-color="#000000" stop-opacity="0"/></linearGradient><linearGradient x1="236.8503" y1="169.72384" x2="236.8503" y2="175.72588" gradientUnits="userSpaceOnUse" id="color-8"><stop offset="0" stop-color="#000000" stop-opacity="0"/><stop offset="1" stop-color="#000000"/></linearGradient></defs><g transform="translate(-234.58333,-163.65586)"><g data-paper-data="{&quot;isPaintingLayer&quot;:true}" fill-rule="nonzero" stroke="none" stroke-width="0" stroke-linecap="butt" stroke-linejoin="miter" stroke-miterlimit="10" stroke-dasharray="" stroke-dashoffset="0" style="mix-blend-mode: normal"><g><g><path d="M234.59091,173.56495c0,0 0,-6.9193 0,-8.54546c0,-0.6496 0.70476,-1.36363 1.36363,-1.36363c1.21221,0 5.34632,0 7.72727,0c1.0266,0 1.72727,0.99588 1.72727,1.81818c0,1.73467 0,8.0909 0,8.0909z" fill="#946a49"/><path d="M240.91666,193.28576c-1.89011,-4.04192 -6.33333,-19.83334 -6.33333,-19.83334h10.83333c0,0 0,17.11128 0,20.66667c0,1.23658 -0.98741,2.76808 -2.18739,2.03386c-0.75092,-0.45946 -1.58509,-1.31142 -2.31261,-2.8672z" fill="#e8e8e8"/><path d="M240.91666,193.28576c-1.89011,-4.04192 -6.33333,-19.83334 -6.33333,-19.83334h10.83333c0,0 0,17.11128 0,20.66667c0,1.23658 -0.98741,2.76808 -2.18739,2.03386c-0.75092,-0.45946 -1.58509,-1.31142 -2.31261,-2.8672z" fill="url(#color-1)"/><path d="M240.91666,193.28576c-1.89011,-4.04192 -6.33333,-19.83334 -6.33333,-19.83334h10.83333c0,0 0,17.11128 0,20.66667c0,1.23658 -0.98741,2.76808 -2.18739,2.03386c-0.75092,-0.45946 -1.58509,-1.31142 -2.31261,-2.8672z" fill="url(#color-2)"/><path d="M234.59091,173.56495c0,0 0,-6.9193 0,-8.54546c0,-0.6496 0.70476,-1.36363 1.36363,-1.36363c1.21221,0 5.34632,0 7.72727,0c1.0266,0 1.72727,0.99588 1.72727,1.81818c0,1.73467 0,8.0909 0,8.0909z" fill="url(#color-3)"/><path d="M234.59091,173.56495c0,0 0,-6.9193 0,-8.54546c0,-0.6496 0.70476,-1.36363 1.36363,-1.36363c1.21221,0 5.34632,0 7.72727,0c1.0266,0 1.72727,0.99588 1.72727,1.81818c0,1.73467 0,8.0909 0,8.0909z" fill="url(#color-4)"/></g><g><path d="M236.72366,171.54647c0,0 0,-4.19109 0,-5.17608c0,-0.39347 0.42688,-0.82596 0.82597,-0.82596c0.73425,0 3.23832,0 4.68049,0c0.62183,0 1.04623,0.60321 1.04623,1.10129c0,1.0507 0,4.90075 0,4.90075z" fill="#ffffff"/><g><path d="M236.72365,171.52629c0,0 0,-4.19109 0,-5.17608c0,-0.39347 0.42688,-0.82596 0.82597,-0.82596c0.73425,0 3.23832,0 4.68049,0c0.62183,0 1.04623,0.60321 1.04623,1.10129c0,1.0507 0,4.90075 0,4.90075z" fill="url(#color-5)"/><path d="M236.72365,171.52629c0,0 0,-4.19109 0,-5.17608c0,-0.39347 0.42688,-0.82596 0.82597,-0.82596c0.73425,0 3.23832,0 4.68049,0c0.62183,0 1.04623,0.60321 1.04623,1.10129c0,1.0507 0,4.90075 0,4.90075z" fill="url(#color-6)"/><path d="M236.72365,171.56667c0,0 0,-4.19109 0,-5.17608c0,-0.39347 0.42688,-0.82596 0.82596,-0.82596c0.73425,0 3.23833,0 4.6805,0c0.62183,0 1.04622,0.60322 1.04622,1.1013c0,1.0507 0,4.90075 0,4.90075z" fill="url(#color-7)"/><path d="M236.72365,171.52629c0,0 0,-4.19109 0,-5.17608c0,-0.39347 0.42688,-0.82597 0.82596,-0.82597c0.73425,0 3.23833,0 4.6805,0c0.62183,0 1.04622,0.60322 1.04622,1.10129c0,1.0507 0,4.90075 0,4.90075z" fill="url(#color-8)"/></g></g></g></g></g></svg>