<svg version="1.1" xmlns="http://www.w3.org/2000/svg" xmlns:xlink="http://www.w3.org/1999/xlink" width="12.65956" height="12.4733" viewBox="0,0,12.65956,12.4733"><defs><linearGradient x1="243.87105" y1="183.86266" x2="240.18485" y2="193.42687" gradientUnits="userSpaceOnUse" id="color-1"><stop offset="0" stop-color="#000000" stop-opacity="0"/><stop offset="1" stop-color="#000000"/></linearGradient><linearGradient x1="247.50463" y1="170.13287" x2="243.81843" y2="179.69708" gradientUnits="userSpaceOnUse" id="color-2"><stop offset="0" stop-color="#ffffff"/><stop offset="1" stop-color="#ffffff" stop-opacity="0"/></linearGradient><linearGradient x1="243.2659" y1="183.26615" x2="240.17727" y2="191.2799" gradientUnits="userSpaceOnUse" id="color-3"><stop offset="0" stop-color="#000000" stop-opacity="0"/><stop offset="1" stop-color="#000000"/></linearGradient><linearGradient x1="246.31044" y1="171.76212" x2="243.22182" y2="179.77586" gradientUnits="userSpaceOnUse" id="color-4"><stop offset="0" stop-color="#000000"/><stop offset="1" stop-color="#000000" stop-opacity="0"/></linearGradient><linearGradient x1="243.44619" y1="183.52482" x2="240.16455" y2="192.03936" gradientUnits="userSpaceOnUse" id="color-5"><stop offset="0" stop-color="#000000" stop-opacity="0"/><stop offset="1" stop-color="#000000"/></linearGradient><linearGradient x1="246.68098" y1="171.30188" x2="243.39934" y2="179.81643" gradientUnits="userSpaceOnUse" id="color-6"><stop offset="0" stop-color="#ffffff"/><stop offset="1" stop-color="#ffffff" stop-opacity="0"/></linearGradient><linearGradient x1="231.5664" y1="178.87619" x2="228.28475" y2="187.39075" gradientUnits="userSpaceOnUse" id="color-7"><stop offset="0" stop-color="#000000" stop-opacity="0"/><stop offset="1" stop-color="#000000"/></linearGradient><linearGradient x1="234.80119" y1="166.65323" x2="231.51954" y2="175.1678" gradientUnits="userSpaceOnUse" id="color-8"><stop offset="0" stop-color="#ffffff"/><stop offset="1" stop-color="#ffffff" stop-opacity="0"/></linearGradient><linearGradient x1="234.46623" y1="178.38069" x2="233.17177" y2="181.73928" gradientUnits="userSpaceOnUse" id="color-9"><stop offset="0" stop-color="#000000" stop-opacity="0"/><stop offset="1" stop-color="#000000"/></linearGradient><linearGradient x1="235.74219" y1="173.55933" x2="234.44774" y2="176.91792" gradientUnits="userSpaceOnUse" id="color-10"><stop offset="0" stop-color="#ffffff"/><stop offset="1" stop-color="#ffffff" stop-opacity="0"/></linearGradient></defs><g transform="translate(-233.67022,-173.76335)"><g data-paper-data="{&quot;isPaintingLayer&quot;:true}" fill-rule="nonzero" stroke="none" stroke-width="0" stroke-linecap="butt" stroke-linejoin="miter" stroke-miterlimit="10" stroke-dasharray="" stroke-dashoffset="0" style="mix-blend-mode: normal"><g><path d="M233.92524,179.82211c0.51237,-1.3294 1.38453,-3.59229 1.66923,-4.33099c0.40593,-1.05323 2.17964,-2.06159 3.31966,-1.62222c2.27546,0.87698 1.81621,0.95988 5.9142,2.53929c1.42283,0.5484 1.8357,2.228 1.23312,3.79147c-0.64418,1.67142 -1.39394,3.61671 -1.7388,4.51142c-0.36105,0.93684 -1.60358,1.86911 -2.81961,1.40043c-3.9537,-1.52384 -3.93071,-1.77481 -6.2751,-2.6784c-1.14001,-0.43937 -2.00965,-1.77676 -1.30269,-3.61104z" fill="#dddddd"/><path d="M233.92524,179.82211c0.51237,-1.3294 1.38453,-3.59229 1.66923,-4.33096c0.40593,-1.05323 2.17964,-2.06163 3.31966,-1.62222c2.27546,0.87698 1.81621,0.95984 5.9142,2.53929c1.42286,0.5484 1.8357,2.228 1.23312,3.79147c-0.64419,1.67142 -1.39394,3.61671 -1.7388,4.51142c-0.36105,0.93684 -1.60358,1.86911 -2.81961,1.40043c-3.9537,-1.52384 -3.93071,-1.77481 -6.2751,-2.6784c-1.14001,-0.43937 -2.00965,-1.77675 -1.30269,-3.61103z" fill="url(#color-1)"/><path d="M233.92524,179.82211c0.51237,-1.3294 1.38453,-3.59229 1.66923,-4.33096c0.40593,-1.05323 2.17964,-2.06163 3.31966,-1.62222c2.27546,0.87698 1.81621,0.95984 5.9142,2.53929c1.42286,0.5484 1.8357,2.228 1.23312,3.79147c-0.64419,1.67142 -1.39394,3.61671 -1.7388,4.51142c-0.36105,0.93684 -1.60358,1.86911 -2.81961,1.40043c-3.9537,-1.52384 -3.93071,-1.77481 -6.2751,-2.6784c-1.14001,-0.43937 -2.00965,-1.77675 -1.30269,-3.61103z" fill="url(#color-2)"/><path d="M234.93243,179.88061c0.42932,-1.1139 1.16008,-3.00994 1.39863,-3.62889c0.34013,-0.88249 1.82629,-1.7274 2.7815,-1.35924c1.90657,0.7348 1.52179,0.80428 4.95544,2.12764c1.19219,0.45949 1.53812,1.8668 1.03321,3.17682c-0.53975,1.40047 -1.16796,3.0304 -1.45692,3.78006c-0.30251,0.78496 -1.34362,1.5661 -2.36251,1.1734c-3.31277,-1.2768 -3.2935,-1.48708 -5.25784,-2.2442c-0.9552,-0.36813 -1.68386,-1.48872 -1.09151,-3.02565z" fill="#dddddd"/><path d="M234.93243,179.88061c0.42932,-1.1139 1.16008,-3.00994 1.39863,-3.62886c0.34013,-0.88249 1.82629,-1.72743 2.7815,-1.35924c1.90657,0.7348 1.52179,0.80424 4.95544,2.12764c1.1922,0.45949 1.53812,1.86681 1.03321,3.17682c-0.53975,1.40047 -1.16796,3.03039 -1.45692,3.78005c-0.30251,0.78496 -1.34362,1.56611 -2.36251,1.17341c-3.31277,-1.2768 -3.2935,-1.4871 -5.25784,-2.24421c-0.9552,-0.36813 -1.68386,-1.48871 -1.09151,-3.02563z" fill="url(#color-3)"/><path d="M234.93243,179.88061c0.42932,-1.1139 1.16008,-3.00994 1.39863,-3.62886c0.34013,-0.88249 1.82629,-1.72743 2.7815,-1.35924c1.90657,0.7348 1.52179,0.80424 4.95544,2.12764c1.1922,0.45949 1.53812,1.86681 1.03321,3.17682c-0.53975,1.40047 -1.16796,3.03039 -1.45692,3.78005c-0.30251,0.78496 -1.34362,1.56611 -2.36251,1.17341c-3.31277,-1.2768 -3.2935,-1.4871 -5.25784,-2.24421c-0.9552,-0.36813 -1.68386,-1.48871 -1.09151,-3.02563z" fill="url(#color-4)"/></g><g><g><path d="M234.59193,179.92773c0.45615,-1.1835 1.23257,-3.19804 1.48603,-3.85565c0.36137,-0.93763 1.94043,-1.83534 2.95533,-1.4442c2.02574,0.78073 1.61687,0.85455 5.2651,2.2606c1.26668,0.4882 1.63423,1.98348 1.09779,3.37537c-0.57348,1.48796 -1.24097,3.21977 -1.54795,4.01628c-0.32144,0.834 -1.42759,1.664 -2.51017,1.24673c-3.5198,-1.35658 -3.49931,-1.58003 -5.58642,-2.38445c-1.0149,-0.39115 -1.78908,-1.58175 -1.15971,-3.21472z" fill="#c4ad75"/><path d="M234.59193,179.92773c0.45615,-1.1835 1.23257,-3.19804 1.48603,-3.85564c0.36137,-0.93763 1.94043,-1.83537 2.95533,-1.4442c2.02574,0.78073 1.61687,0.85451 5.2651,2.2606c1.26669,0.4882 1.63423,1.98348 1.09779,3.37537c-0.5735,1.48796 -1.24097,3.21977 -1.54795,4.01628c-0.32144,0.834 -1.42759,1.664 -2.51017,1.24673c-3.5198,-1.35658 -3.49931,-1.58003 -5.58642,-2.38445c-1.0149,-0.39115 -1.78908,-1.58175 -1.15971,-3.21472z" fill="url(#color-5)"/><path d="M234.59193,179.92773c0.45615,-1.1835 1.23257,-3.19804 1.48603,-3.85564c0.36137,-0.93763 1.94043,-1.83537 2.95533,-1.4442c2.02574,0.78073 1.61687,0.85451 5.2651,2.2606c1.26669,0.4882 1.63423,1.98348 1.09779,3.37537c-0.5735,1.48796 -1.24097,3.21977 -1.54795,4.01628c-0.32144,0.834 -1.42759,1.664 -2.51017,1.24673c-3.5198,-1.35658 -3.49931,-1.58003 -5.58642,-2.38445c-1.0149,-0.39115 -1.78908,-1.58175 -1.15971,-3.21472z" fill="url(#color-6)"/></g><path d="M234.59193,179.75554c0.45615,-1.1835 1.23257,-3.19803 1.48603,-3.85564c0.36137,-0.93763 1.94043,-1.83537 2.95533,-1.44422c2.02574,0.78075 -2.51523,-0.86718 1.13301,0.5389c1.26668,0.4882 1.63422,1.98348 1.09779,3.37537c-0.5735,1.48796 -1.24097,3.21977 -1.54795,4.01628c-0.32145,0.834 -1.42756,1.664 -2.51017,1.24673c-3.5198,-1.35658 0.63279,0.14169 -1.4543,-0.66274c-1.0149,-0.39115 -1.78908,-1.58175 -1.15971,-3.21471z" fill="#c47676"/><path d="M234.59193,179.75554c0.45615,-1.1835 1.23257,-3.19803 1.48603,-3.85564c0.36137,-0.93763 1.94043,-1.83534 2.95533,-1.4442c2.02574,0.78075 -2.51526,-0.86721 1.133,0.53889c1.26668,0.4882 1.63423,1.98348 1.09779,3.37538c-0.5735,1.48796 -1.24097,3.21977 -1.54795,4.01628c-0.32145,0.834 -1.42756,1.664 -2.51017,1.24673c-3.5198,-1.35658 0.6328,0.14169 -1.4543,-0.66274c-1.0149,-0.39115 -1.78908,-1.58175 -1.15971,-3.21471z" fill="url(#color-7)"/><path d="M234.59193,179.75554c0.45615,-1.1835 1.23257,-3.19803 1.48603,-3.85564c0.36137,-0.93763 1.94043,-1.83534 2.95533,-1.4442c2.02574,0.78075 -2.51526,-0.86721 1.133,0.53889c1.26668,0.4882 1.63423,1.98348 1.09779,3.37538c-0.5735,1.48796 -1.24097,3.21977 -1.54795,4.01628c-0.32145,0.834 -1.42756,1.664 -2.51017,1.24673c-3.5198,-1.35658 0.6328,0.14169 -1.4543,-0.66274c-1.0149,-0.39115 -1.78908,-1.58175 -1.15971,-3.21471z" fill="url(#color-8)"/><path d="M235.65965,178.72754c0.17993,-0.46682 0.48619,-1.26145 0.58616,-1.52087c0.14256,-0.36983 0.76541,-0.72396 1.16573,-0.56967c0.79904,0.30796 -0.99213,-0.34207 0.44693,0.21256c0.49963,0.19259 0.64464,0.78238 0.433,1.33141c-0.22621,0.58694 -0.48949,1.27007 -0.6106,1.58424c-0.12681,0.32898 -0.56312,0.65637 -0.99015,0.49178c-1.38839,-0.53512 0.24961,0.05589 -0.57366,-0.26142c-0.40033,-0.15429 -0.70572,-0.62394 -0.45744,-1.26805z" fill="#e78b8b"/><path d="M235.65965,178.72754c0.17993,-0.46682 0.48619,-1.26145 0.58616,-1.52087c0.14256,-0.36983 0.76541,-0.72396 1.16573,-0.56967c0.79904,0.30796 -0.99213,-0.34207 0.44691,0.21256c0.49963,0.19259 0.64464,0.78238 0.43303,1.33141c-0.22621,0.58694 -0.48949,1.27003 -0.6106,1.58424c-0.12681,0.32898 -0.56312,0.65637 -0.99015,0.49178c-1.38839,-0.53512 0.24961,0.05589 -0.57366,-0.26142c-0.40033,-0.15429 -0.70572,-0.62394 -0.45744,-1.26805z" fill="url(#color-9)"/><path d="M235.65965,178.72754c0.17993,-0.46682 0.48619,-1.26145 0.58616,-1.52087c0.14256,-0.36983 0.76541,-0.72396 1.16573,-0.56967c0.79904,0.30796 -0.99213,-0.34207 0.44691,0.21256c0.49963,0.19259 0.64464,0.78238 0.43303,1.33141c-0.22621,0.58694 -0.48949,1.27003 -0.6106,1.58424c-0.12681,0.32898 -0.56312,0.65637 -0.99015,0.49178c-1.38839,-0.53512 0.24961,0.05589 -0.57366,-0.26142c-0.40033,-0.15429 -0.70572,-0.62394 -0.45744,-1.26805z" fill="url(#color-10)"/></g></g></g></svg>