<svg version="1.1" xmlns="http://www.w3.org/2000/svg" xmlns:xlink="http://www.w3.org/1999/xlink" width="61.75" height="61.82244" viewBox="0,0,61.75,61.82244"><defs><linearGradient x1="154.83334" y1="173.66667" x2="216.50002" y2="173.66667" gradientUnits="userSpaceOnUse" id="color-1"><stop offset="0" stop-color="#000000"/><stop offset="1" stop-color="#000000" stop-opacity="0"/></linearGradient><linearGradient x1="233.66669" y1="265.16665" x2="233.66669" y2="203.5" gradientUnits="userSpaceOnUse" id="color-2"><stop offset="0" stop-color="#000000"/><stop offset="1" stop-color="#000000" stop-opacity="0"/></linearGradient><linearGradient x1="325.16667" y1="186.33333" x2="263.50002" y2="186.33333" gradientUnits="userSpaceOnUse" id="color-3"><stop offset="0" stop-color="#ffffff"/><stop offset="1" stop-color="#ffffff" stop-opacity="0"/></linearGradient><linearGradient x1="246.33335" y1="94.83333" x2="246.33335" y2="156.49997" gradientUnits="userSpaceOnUse" id="color-4"><stop offset="0" stop-color="#ffffff"/><stop offset="1" stop-color="#ffffff" stop-opacity="0"/></linearGradient><linearGradient x1="191.66217" y1="176.40543" x2="226.66217" y2="176.40543" gradientUnits="userSpaceOnUse" id="color-5"><stop offset="0" stop-color="#000000"/><stop offset="1" stop-color="#000000" stop-opacity="0"/></linearGradient><linearGradient x1="236.40542" y1="228.33786" x2="236.40542" y2="193.33786" gradientUnits="userSpaceOnUse" id="color-6"><stop offset="0" stop-color="#000000"/><stop offset="1" stop-color="#000000" stop-opacity="0"/></linearGradient><linearGradient x1="243.59461" y1="131.66216" x2="243.59461" y2="166.66216" gradientUnits="userSpaceOnUse" id="color-7"><stop offset="0" stop-color="#000000"/><stop offset="1" stop-color="#000000" stop-opacity="0"/></linearGradient><linearGradient x1="288.33785" y1="183.59462" x2="253.33785" y2="183.59462" gradientUnits="userSpaceOnUse" id="color-8"><stop offset="0" stop-color="#000000"/><stop offset="1" stop-color="#000000" stop-opacity="0"/></linearGradient><linearGradient x1="215.14055" y1="178.15137" x2="233.14055" y2="178.15137" gradientUnits="userSpaceOnUse" id="color-9"><stop offset="0" stop-color="#000000"/><stop offset="1" stop-color="#000000" stop-opacity="0"/></linearGradient><linearGradient x1="238.15136" y1="204.85947" x2="238.15136" y2="186.85947" gradientUnits="userSpaceOnUse" id="color-10"><stop offset="0" stop-color="#000000"/><stop offset="1" stop-color="#000000" stop-opacity="0"/></linearGradient><linearGradient x1="241.84866" y1="155.14055" x2="241.84866" y2="173.14056" gradientUnits="userSpaceOnUse" id="color-11"><stop offset="0" stop-color="#ffffff"/><stop offset="1" stop-color="#ffffff" stop-opacity="0"/></linearGradient><linearGradient x1="264.85947" y1="181.84867" x2="246.85947" y2="181.84867" gradientUnits="userSpaceOnUse" id="color-12"><stop offset="0" stop-color="#ffffff"/><stop offset="1" stop-color="#ffffff" stop-opacity="0"/></linearGradient><linearGradient x1="240" y1="153.86667" x2="240" y2="176.56668" gradientUnits="userSpaceOnUse" id="color-13"><stop offset="0" stop-color="#000000"/><stop offset="1" stop-color="#000000" stop-opacity="0"/></linearGradient><linearGradient x1="240.4" y1="166.61092" x2="240.4" y2="196.73599" gradientUnits="userSpaceOnUse" id="color-14"><stop offset="0" stop-color="#000000" stop-opacity="0"/><stop offset="1" stop-color="#000000"/></linearGradient><linearGradient x1="239" y1="124.41092" x2="239" y2="154.53599" gradientUnits="userSpaceOnUse" id="color-15"><stop offset="0" stop-color="#ffffff"/><stop offset="1" stop-color="#ffffff" stop-opacity="0"/></linearGradient></defs><g transform="translate(-209.125,-149.01092)"><g data-paper-data="{&quot;isPaintingLayer&quot;:true}" fill-rule="nonzero" stroke="none" stroke-width="0" stroke-linecap="butt" stroke-linejoin="miter" stroke-miterlimit="10" stroke-dasharray="" stroke-dashoffset="0" style="mix-blend-mode: normal"><path d="M209.16669,210.83336v-61.66667h61.66667v61.66667z" fill="#806947"/><g><path d="M209.16669,210.83333v-61.66667h61.66667v61.66667z" fill="url(#color-1)"/><path d="M270.83332,210.83333h-61.66667v-61.66667h61.66667z" fill="url(#color-2)"/><path d="M270.83332,149.16667v61.66667h-61.66667v-61.66667z" fill="url(#color-3)"/><path d="M209.16669,149.16667h61.66667v61.66667h-61.66667z" fill="url(#color-4)"/></g><g><path d="M222.50001,197.50002v-35h35v35z" fill="#806947"/><path d="M222.50001,197.50002v-35h35v35z" fill="url(#color-5)"/><path d="M257.50001,197.50002h-35v-35h35z" fill="url(#color-6)"/><path d="M222.50001,162.5h35v35h-35z" fill="url(#color-7)"/><path d="M257.50001,162.5v35h-35v-35z" fill="url(#color-8)"/></g><g><path d="M231.00001,189.00002v-18h18v18z" fill="#806947"/><path d="M231.00001,189.00002v-18h18v18z" fill="url(#color-9)"/><path d="M249.00001,189.00002h-18v-18h18z" fill="url(#color-10)"/><path d="M231.00001,171.00002h18v18h-18z" fill="url(#color-11)"/><path d="M249.00001,171.00002v18h-18v-18z" fill="url(#color-12)"/></g><path d="M209.125,176.56668v-22.70001h61.75v22.70001z" fill="url(#color-13)"/><g><path d="M209.16667,173.43909v-24.42817h61.66667v24.42817l-4.24994,-3.07984l-3.26084,8.77674l-3.28216,-7.78168l-2.13183,3.65272l-2.46642,-4.44884l-3.09926,6.58002l-2.83847,-7.48474l-3.62738,4.26154l-3.94644,-3.03857l-2.36342,4.76659l-5.46484,-8.21893l-3.58754,6.43305l-4.00778,-3.69642l-2.38722,6.8455l-3.99836,-7.28977l-2.61186,4.55089l-3.20904,-3.62828z" fill="#99be87"/><path d="M209.16667,168.23909v-19.22817h61.66667v19.22817l-4.24994,-3.07983l-3.26084,8.77673l-3.28216,-7.78167l-2.13183,3.65272l-2.46642,-4.44884l-3.09926,6.58002l-2.83847,-7.48474l-3.62738,4.26155l-3.94644,-3.03857l-2.36342,4.76659l-5.46484,-8.21893l-3.58754,6.43305l-4.00778,-3.69642l-2.38722,6.8455l-3.99836,-7.28977l-2.61186,4.55089l-3.20904,-3.62828z" fill="#afd89a"/><path d="M209.16667,173.43909v-24.42817h61.66667v24.42817l-4.24994,-3.07984l-3.26084,8.77674l-3.28216,-7.78168l-2.13183,3.65272l-2.46642,-4.44884l-3.09926,6.58002l-2.83847,-7.48474l-3.62738,4.26154l-3.94644,-3.03857l-2.36342,4.76659l-5.46484,-8.21893l-3.58754,6.43305l-4.00778,-3.69642l-2.38722,6.8455l-3.99836,-7.28977l-2.61186,4.55089l-3.20904,-3.62828z" fill="url(#color-14)"/><path d="M209.16667,173.43909v-24.42817h61.66667v24.42817l-4.24994,-3.07984l-3.26084,8.77673l-3.28216,-7.78167l-2.13182,3.65272l-2.46642,-4.44884l-3.09926,6.58001l-2.83847,-7.48474l-3.62738,4.26155l-3.94644,-3.03857l-2.36341,4.76659l-5.46484,-8.21893l-3.58754,6.43305l-4.00778,-3.69642l-2.38722,6.8455l-3.99836,-7.28977l-2.61186,4.55089l-3.20904,-3.62828z" fill="url(#color-15)"/></g></g></g></svg>