<svg version="1.1" xmlns="http://www.w3.org/2000/svg" xmlns:xlink="http://www.w3.org/1999/xlink" width="13.16702" height="12.9733" viewBox="0,0,13.16702,12.9733"><defs><linearGradient x1="244.02622" y1="184.01749" x2="240.19226" y2="193.96509" gradientUnits="userSpaceOnUse" id="color-1"><stop offset="0" stop-color="#000000" stop-opacity="0"/><stop offset="1" stop-color="#000000"/></linearGradient><linearGradient x1="247.80546" y1="169.73733" x2="243.97149" y2="179.68493" gradientUnits="userSpaceOnUse" id="color-2"><stop offset="0" stop-color="#ffffff"/><stop offset="1" stop-color="#ffffff" stop-opacity="0"/></linearGradient><linearGradient x1="243.39682" y1="183.39707" x2="240.18438" y2="191.73205" gradientUnits="userSpaceOnUse" id="color-3"><stop offset="0" stop-color="#000000" stop-opacity="0"/><stop offset="1" stop-color="#000000"/></linearGradient><linearGradient x1="246.5634" y1="171.43189" x2="243.35097" y2="179.76687" gradientUnits="userSpaceOnUse" id="color-4"><stop offset="0" stop-color="#000000"/><stop offset="1" stop-color="#000000" stop-opacity="0"/></linearGradient></defs><g transform="translate(-233.41649,-173.51334)"><g data-paper-data="{&quot;isPaintingLayer&quot;:true}" fill-rule="nonzero" stroke="none" stroke-width="0" stroke-linecap="butt" stroke-linejoin="miter" stroke-miterlimit="10" stroke-dasharray="" stroke-dashoffset="0" style="mix-blend-mode: normal"><g><path d="M233.68173,179.81497c0.53291,-1.38269 1.44003,-3.73629 1.73614,-4.5046c0.4222,-1.09545 2.26701,-2.14423 3.45273,-1.68725c2.36667,0.91213 1.88901,0.99836 6.15127,2.64108c1.47987,0.57038 1.90929,2.31731 1.28255,3.94345c-0.67,1.73842 -1.44982,3.76169 -1.8085,4.69226c-0.37552,0.97439 -1.66786,1.94403 -2.93264,1.45657c-4.11219,-1.58492 -4.08827,-1.84595 -6.52664,-2.78577c-1.18571,-0.45698 -2.09021,-1.84798 -1.35491,-3.75579z" fill="#dddddd"/><path d="M233.68173,179.81497c0.53291,-1.38269 1.44003,-3.73629 1.73614,-4.50457c0.4222,-1.09545 2.26701,-2.14427 3.45273,-1.68725c2.36667,0.91213 1.88901,0.99832 6.15127,2.64108c1.4799,0.57038 1.90929,2.31731 1.28255,3.94345c-0.67001,1.73842 -1.44982,3.76169 -1.8085,4.69226c-0.37552,0.97439 -1.66786,1.94403 -2.93264,1.45657c-4.11219,-1.58492 -4.08827,-1.84595 -6.52664,-2.78577c-1.18571,-0.45698 -2.09021,-1.84797 -1.35491,-3.75578z" fill="url(#color-1)"/><path d="M233.68173,179.81497c0.53291,-1.38269 1.44003,-3.73629 1.73614,-4.50457c0.4222,-1.09545 2.26701,-2.14427 3.45273,-1.68725c2.36667,0.91213 1.88901,0.99832 6.15127,2.64108c1.4799,0.57038 1.90929,2.31731 1.28255,3.94345c-0.67001,1.73842 -1.44982,3.76169 -1.8085,4.69226c-0.37552,0.97439 -1.66786,1.94403 -2.93264,1.45657c-4.11219,-1.58492 -4.08827,-1.84595 -6.52664,-2.78577c-1.18571,-0.45698 -2.09021,-1.84797 -1.35491,-3.75578z" fill="url(#color-2)"/><path d="M234.72929,179.87582c0.44653,-1.15855 1.20658,-3.1306 1.45469,-3.77436c0.35376,-0.91787 1.8995,-1.79664 2.893,-1.41373c1.983,0.76426 1.58279,0.83652 5.15408,2.21293c1.23998,0.47791 1.59978,1.94163 1.07463,3.30417c-0.56139,1.45661 -1.21478,3.15188 -1.51532,3.93159c-0.31464,0.81643 -1.39748,1.62888 -2.45721,1.22044c-3.44556,-1.32798 -3.42552,-1.54669 -5.4686,-2.33416c-0.99349,-0.38289 -1.75136,-1.5484 -1.13526,-3.14694z" fill="#dddddd"/><path d="M234.72929,179.87582c0.44653,-1.15855 1.20658,-3.1306 1.45469,-3.77432c0.35376,-0.91787 1.8995,-1.79667 2.893,-1.41373c1.983,0.76426 1.58279,0.83648 5.15408,2.21293c1.23999,0.47791 1.59978,1.94164 1.07463,3.30417c-0.56139,1.45661 -1.21478,3.15187 -1.51532,3.93158c-0.31464,0.81643 -1.39748,1.62889 -2.45721,1.22045c-3.44556,-1.32798 -3.42552,-1.54671 -5.4686,-2.33417c-0.99349,-0.38289 -1.75136,-1.54839 -1.13526,-3.14691z" fill="url(#color-3)"/><path d="M234.72929,179.87582c0.44653,-1.15855 1.20658,-3.1306 1.45469,-3.77432c0.35376,-0.91787 1.8995,-1.79667 2.893,-1.41373c1.983,0.76426 1.58279,0.83648 5.15408,2.21293c1.23999,0.47791 1.59978,1.94164 1.07463,3.30417c-0.56139,1.45661 -1.21478,3.15187 -1.51532,3.93158c-0.31464,0.81643 -1.39748,1.62889 -2.45721,1.22045c-3.44556,-1.32798 -3.42552,-1.54671 -5.4686,-2.33417c-0.99349,-0.38289 -1.75136,-1.54839 -1.13526,-3.14691z" fill="url(#color-4)"/></g></g></g></svg>