<svg version="1.1" xmlns="http://www.w3.org/2000/svg" xmlns:xlink="http://www.w3.org/1999/xlink" width="17.1586" height="17.20428" viewBox="0,0,17.1586,17.20428"><defs><linearGradient x1="234.9156" y1="181.91729" x2="236.41226" y2="183.41395" gradientUnits="userSpaceOnUse" id="color-1"><stop offset="0" stop-color="#000000"/><stop offset="1" stop-color="#000000" stop-opacity="0"/></linearGradient><linearGradient x1="238.10558" y1="185.10727" x2="236.60893" y2="183.61061" gradientUnits="userSpaceOnUse" id="color-2"><stop offset="0" stop-color="#ffffff"/><stop offset="1" stop-color="#ffffff" stop-opacity="0"/></linearGradient><linearGradient x1="241.98474" y1="178.06517" x2="240.74123" y2="179.30868" gradientUnits="userSpaceOnUse" id="color-3"><stop offset="0" stop-color="#000000"/><stop offset="1" stop-color="#000000" stop-opacity="0"/></linearGradient><linearGradient x1="245.83502" y1="184.32871" x2="247.05547" y2="183.10826" gradientUnits="userSpaceOnUse" id="color-4"><stop offset="0" stop-color="#ffffff"/><stop offset="1" stop-color="#ffffff" stop-opacity="0"/></linearGradient><linearGradient x1="247.69384" y1="182.46989" x2="246.47339" y2="183.69034" gradientUnits="userSpaceOnUse" id="color-5"><stop offset="0" stop-color="#c7c7c7"/><stop offset="1" stop-color="#c7c7c7" stop-opacity="0"/></linearGradient><linearGradient x1="248.28104" y1="181.96316" x2="247.06058" y2="183.18361" gradientUnits="userSpaceOnUse" id="color-6"><stop offset="0" stop-color="#ffffff"/><stop offset="1" stop-color="#ffffff" stop-opacity="0"/></linearGradient><linearGradient x1="245.31708" y1="184.92712" x2="246.53753" y2="183.70667" gradientUnits="userSpaceOnUse" id="color-7"><stop offset="0" stop-color="#000000"/><stop offset="1" stop-color="#000000" stop-opacity="0"/></linearGradient><linearGradient x1="235.64846" y1="174.14657" x2="236.86892" y2="172.92612" gradientUnits="userSpaceOnUse" id="color-8"><stop offset="0" stop-color="#ffffff"/><stop offset="1" stop-color="#ffffff" stop-opacity="0"/></linearGradient><linearGradient x1="237.50729" y1="172.28775" x2="236.28683" y2="173.5082" gradientUnits="userSpaceOnUse" id="color-9"><stop offset="0" stop-color="#c7c7c7"/><stop offset="1" stop-color="#c7c7c7" stop-opacity="0"/></linearGradient><linearGradient x1="238.01402" y1="171.70055" x2="236.79356" y2="172.92101" gradientUnits="userSpaceOnUse" id="color-10"><stop offset="0" stop-color="#ffffff"/><stop offset="1" stop-color="#ffffff" stop-opacity="0"/></linearGradient><linearGradient x1="235.05005" y1="174.66451" x2="236.27051" y2="173.44406" gradientUnits="userSpaceOnUse" id="color-11"><stop offset="0" stop-color="#000000"/><stop offset="1" stop-color="#000000" stop-opacity="0"/></linearGradient></defs><g transform="translate(-230.9207,-171.89786)"><g data-paper-data="{&quot;isPaintingLayer&quot;:true}" fill-rule="nonzero" stroke-linejoin="miter" stroke-miterlimit="10" stroke-dasharray="" stroke-dashoffset="0" style="mix-blend-mode: normal"><g><g><g data-paper-data="{&quot;index&quot;:null}" fill="none" stroke-width="2" stroke-linecap="round"><path d="M241.10047,178.92239l-9.17976,9.17976" stroke="#f7b577"/><path d="M241.10047,178.92239l-9.17976,9.17976" data-paper-data="{&quot;index&quot;:null}" stroke="url(#color-1)"/><path d="M241.10047,178.92239l-9.17976,9.17976" data-paper-data="{&quot;index&quot;:null}" stroke="url(#color-2)"/></g><path d="M240.41683,178.98428l1.24351,-1.24351l0.64879,0.64879l-1.24351,1.24351z" fill="url(#color-3)" stroke="none" stroke-width="0" stroke-linecap="butt"/></g><g stroke="none" stroke-width="0" stroke-linecap="butt"><path d="M241.08607,178.9526c0,0 1.64144,1.64144 -0.11648,-0.11648c-0.32847,-0.32847 -0.82588,-0.88291 -1.07262,-1.18801c-0.63989,-0.79124 -3.50511,-4.33416 -4.4876,-5.54904c-0.20822,-0.25747 -0.15763,-0.26778 0.13138,-0.03126c1.2254,1.00284 4.51411,3.69425 5.33355,4.36486c0.35962,0.2943 1.03856,0.9058 1.42049,1.28772c1.87651,1.87651 0.01175,0.01175 0.01175,0.01175z" fill="#c2c2c2"/><path d="M235.39651,172.03147c0,0 -0.21963,-0.20579 0.06938,0.03073c1.2254,1.00284 4.51411,3.69425 5.33355,4.36486c0.35962,0.2943 1.03856,0.9058 1.42049,1.28772c1.87651,1.87651 0.01175,0.01175 0.01175,0.01175l-0.56955,0.56955z" fill="url(#color-4)"/><path d="M241.66121,178.29699l-0.56955,0.56955c0,0 1.86476,1.86476 -0.01175,-0.01175c-0.38193,-0.38193 -0.99342,-1.06087 -1.28772,-1.42049c-0.67061,-0.81944 -3.36202,-4.10814 -4.36486,-5.33355c-0.23652,-0.28901 -0.03073,-0.06938 -0.03073,-0.06938z" data-paper-data="{&quot;index&quot;:null}" fill="url(#color-5)"/><path d="M241.08607,178.9526c0,0 1.86476,1.86476 -0.01175,-0.01175c-0.38193,-0.38193 -0.99342,-1.06087 -1.28772,-1.42049c-0.67061,-0.81944 -3.36202,-4.10815 -4.36486,-5.33355c-0.23652,-0.28901 -0.22621,-0.33959 0.03126,-0.13138c1.21488,0.9825 4.7578,3.84771 5.54904,4.4876c0.30509,0.24673 0.85953,0.74415 1.18801,1.07262c1.75791,1.75791 0.11648,0.11648 0.11648,0.11648z" data-paper-data="{&quot;index&quot;:null}" fill="url(#color-6)"/><path d="M241.08607,178.9526c0,0 1.64144,1.64144 -0.11648,-0.11648c-0.32847,-0.32847 -0.82588,-0.88291 -1.07262,-1.18801c-0.63989,-0.79124 -3.50511,-4.33416 -4.4876,-5.54904c-0.20822,-0.25747 -0.15763,-0.26778 0.13138,-0.03126c1.2254,1.00284 4.51411,3.69425 5.33355,4.36486c0.35962,0.2943 1.03856,0.9058 1.42049,1.28772c1.87651,1.87651 0.01175,0.01175 0.01175,0.01175z" fill="url(#color-7)"/></g><g data-paper-data="{&quot;index&quot;:null}" stroke="none" stroke-width="0" stroke-linecap="butt"><path d="M242.24504,177.67508c0,0 -1.86476,-1.86476 0.01175,0.01175c0.38193,0.38193 0.99342,1.06087 1.28772,1.42049c0.67061,0.81944 3.36202,4.10814 4.36486,5.33355c0.23652,0.28901 0.22621,0.33959 -0.03126,0.13138c-1.21489,-0.9825 -4.7578,-3.84771 -5.54904,-4.4876c-0.30509,-0.24674 -0.85954,-0.74415 -1.18801,-1.07262c-1.75792,-1.75792 -0.11648,-0.11648 -0.11648,-0.11648z" fill="#c2c2c2"/><path d="M241.6811,178.31947l0.56955,-0.56955c0,0 -1.86476,-1.86476 0.01175,0.01175c0.38193,0.38193 0.99342,1.06087 1.28772,1.42049c0.67061,0.81944 3.36202,4.10814 4.36486,5.33355c0.23652,0.28901 0.03073,0.06938 0.03073,0.06938z" fill="url(#color-8)"/><path d="M247.9458,184.58499c0,0 0.21963,0.20579 -0.06938,-0.03073c-1.2254,-1.00284 -4.51411,-3.69425 -5.33355,-4.36486c-0.35962,-0.2943 -1.03855,-0.90579 -1.42049,-1.28772c-1.87651,-1.87651 -0.01175,-0.01175 -0.01175,-0.01175l0.56955,-0.56955z" data-paper-data="{&quot;index&quot;:null}" fill="url(#color-9)"/><path d="M242.24502,177.67506c0,0 -1.64143,-1.64143 0.11648,0.11648c0.32847,0.32847 0.82589,0.88292 1.07262,1.18801c0.63989,0.79124 3.5051,4.33416 4.4876,5.54904c0.20822,0.25747 0.15764,0.26778 -0.13138,0.03126c-1.2254,-1.00284 -4.51411,-3.69425 -5.33355,-4.36486c-0.35962,-0.2943 -1.03855,-0.90579 -1.42049,-1.28772c-1.87651,-1.87651 -0.01175,-0.01175 -0.01175,-0.01175z" data-paper-data="{&quot;index&quot;:null}" fill="url(#color-10)"/><path d="M242.24504,177.67508c0,0 -1.86476,-1.86476 0.01175,0.01175c0.38193,0.38193 0.99342,1.06087 1.28772,1.42049c0.67061,0.81944 3.36202,4.10814 4.36486,5.33355c0.23652,0.28901 0.22621,0.33959 -0.03126,0.13138c-1.21489,-0.9825 -4.7578,-3.84771 -5.54904,-4.4876c-0.30509,-0.24674 -0.85954,-0.74415 -1.18801,-1.07262c-1.75792,-1.75792 -0.11648,-0.11648 -0.11648,-0.11648z" fill="url(#color-11)"/></g></g></g></g></svg>