<svg version="1.1" xmlns="http://www.w3.org/2000/svg" xmlns:xlink="http://www.w3.org/1999/xlink" width="97.99642" height="142.54964" viewBox="0,0,97.99642,142.54964"><defs><radialGradient cx="342" cy="206" r="15.77703" gradientUnits="userSpaceOnUse" id="color-1"><stop offset="0" stop-color="#32ff00"/><stop offset="1" stop-color="#1dec37"/></radialGradient><radialGradient cx="395" cy="108" r="15.77703" gradientUnits="userSpaceOnUse" id="color-2"><stop offset="0" stop-color="#32ff00"/><stop offset="1" stop-color="#1dec37"/></radialGradient></defs><g transform="translate(-319.50179,-85.72518)"><g data-paper-data="{&quot;isPaintingLayer&quot;:true}" fill-rule="nonzero" stroke="#ffffff" stroke-width="3" stroke-linejoin="miter" stroke-miterlimit="10" stroke-dasharray="" stroke-dashoffset="0" style="mix-blend-mode: normal"><path d="M357.77703,206c0,8.62072 -7.06362,15.60919 -15.77703,15.60919c-8.71341,0 -15.77703,-6.98847 -15.77703,-15.60919c0,-8.62072 7.06362,-15.60919 15.77703,-15.60919c8.71341,0 15.77703,6.98847 15.77703,15.60919z" fill="url(#color-1)" stroke-linecap="butt"/><path d="M334.92533,209.34394l7.59233,-6.68787l6.55701,6.68787" fill="none" stroke-linecap="round"/><path d="M362.99821,206c0,11.47362 -9.40122,20.77482 -20.99821,20.77482c-11.59699,0 -20.99821,-9.30121 -20.99821,-20.77482c0,-11.47362 9.40122,-20.77482 20.99821,-20.77482c11.59699,0 20.99821,9.30121 20.99821,20.77482z" fill="none" stroke-linecap="butt"/><path d="M410.77703,108c0,8.62072 -7.06362,15.60919 -15.77703,15.60919c-8.71341,0 -15.77703,-6.98847 -15.77703,-15.60919c0,-8.62072 7.06362,-15.60919 15.77703,-15.60919c8.71341,0 15.77703,6.98847 15.77703,15.60919z" fill="url(#color-2)" stroke-linecap="butt"/><path d="M387.92533,111.34394l7.59233,-6.68787l6.55701,6.68787" fill="none" stroke-linecap="round"/><path d="M415.99821,108c0,11.47362 -9.40122,20.77482 -20.99821,20.77482c-11.59699,0 -20.99821,-9.30121 -20.99821,-20.77482c0,-11.47362 9.40122,-20.77482 20.99821,-20.77482c11.59699,0 20.99821,9.30121 20.99821,20.77482z" fill="none" stroke-linecap="butt"/></g></g></svg>