<svg version="1.1" xmlns="http://www.w3.org/2000/svg" xmlns:xlink="http://www.w3.org/1999/xlink" width="455.16974" height="179.45587" viewBox="0,0,455.16974,179.45587"><g transform="translate(2.82723,-105.80199)"><g data-paper-data="{&quot;isPaintingLayer&quot;:true}" fill-rule="nonzero" stroke="#000000" stroke-linecap="round" stroke-linejoin="miter" stroke-miterlimit="10" stroke-dasharray="" stroke-dashoffset="0" style="mix-blend-mode: normal"><path d="M-0.34022,108.61826l36.82604,-0.29639l-18.13316,35.41612z" data-paper-data="{&quot;index&quot;:null}" fill="#9a9a9a" stroke-width="3"/><path d="M17.68964,109.54067l16.99731,-0.13673l-16.3565,31.92797z" data-paper-data="{&quot;index&quot;:null}" fill="#808080" stroke-width="0"/><path d="M-0.34022,108.61826l36.82604,-0.29639l-18.13316,35.41612z" data-paper-data="{&quot;index&quot;:null}" fill="none" stroke-width="3"/><path d="M40.2744,108.61826l36.82604,-0.29639l-18.13316,35.41612z" data-paper-data="{&quot;index&quot;:null}" fill="#9a9a9a" stroke-width="3"/><path d="M58.30428,109.54066l16.9973,-0.13672l-16.3565,31.92797z" data-paper-data="{&quot;index&quot;:null}" fill="#808080" stroke-width="0"/><path d="M40.2744,108.61826l36.82604,-0.29639l-18.13316,35.41612z" data-paper-data="{&quot;index&quot;:null}" fill="none" stroke-width="3"/><path d="M79.4385,108.61826l36.82604,-0.29639l-18.13316,35.41612z" data-paper-data="{&quot;index&quot;:null}" fill="#9a9a9a" stroke-width="3"/><path d="M97.46838,109.54066l16.9973,-0.13672l-16.3565,31.92797z" data-paper-data="{&quot;index&quot;:null}" fill="#808080" stroke-width="0"/><path d="M79.4385,108.61826l36.82604,-0.29639l-18.13316,35.41612z" data-paper-data="{&quot;index&quot;:null}" fill="none" stroke-width="3"/><path d="M120.05311,108.61826l36.82604,-0.29639l-18.13316,35.41612z" data-paper-data="{&quot;index&quot;:null}" fill="#9a9a9a" stroke-width="3"/><path d="M138.08299,109.54066l16.9973,-0.13672l-16.3565,31.92797z" data-paper-data="{&quot;index&quot;:null}" fill="#808080" stroke-width="0"/><path d="M120.05311,108.61826l36.82604,-0.29639l-18.13316,35.41612z" data-paper-data="{&quot;index&quot;:null}" fill="none" stroke-width="3"/><path d="M157.65978,107.61826l36.82604,-0.29639l-18.13316,35.41612z" data-paper-data="{&quot;index&quot;:null}" fill="#9a9a9a" stroke-width="3"/><path d="M175.68965,108.54067l16.99731,-0.13673l-16.3565,31.92797z" data-paper-data="{&quot;index&quot;:null}" fill="#808080" stroke-width="0"/><path d="M157.65978,107.61826l36.82604,-0.29639l-18.13316,35.41612z" data-paper-data="{&quot;index&quot;:null}" fill="none" stroke-width="3"/><path d="M198.2744,107.61826l36.82604,-0.29639l-18.13316,35.41612z" data-paper-data="{&quot;index&quot;:null}" fill="#9a9a9a" stroke-width="3"/><path d="M216.30428,108.54066l16.9973,-0.13672l-16.3565,31.92797z" data-paper-data="{&quot;index&quot;:null}" fill="#808080" stroke-width="0"/><path d="M198.2744,107.61826l36.82604,-0.29639l-18.13316,35.41612z" data-paper-data="{&quot;index&quot;:null}" fill="none" stroke-width="3"/><path d="M237.4385,107.61826l36.82604,-0.29639l-18.13316,35.41612z" data-paper-data="{&quot;index&quot;:null}" fill="#9a9a9a" stroke-width="3"/><path d="M255.46838,108.54066l16.9973,-0.13672l-16.3565,31.92797z" data-paper-data="{&quot;index&quot;:null}" fill="#808080" stroke-width="0"/><path d="M237.4385,107.61826l36.82604,-0.29639l-18.13316,35.41612z" data-paper-data="{&quot;index&quot;:null}" fill="none" stroke-width="3"/><path d="M278.05311,107.61826l36.82604,-0.29639l-18.13316,35.41612z" data-paper-data="{&quot;index&quot;:null}" fill="#9a9a9a" stroke-width="3"/><path d="M296.08299,108.54066l16.9973,-0.13672l-16.3565,31.92797z" data-paper-data="{&quot;index&quot;:null}" fill="#808080" stroke-width="0"/><path d="M278.05311,107.61826l36.82604,-0.29639l-18.13316,35.41612z" data-paper-data="{&quot;index&quot;:null}" fill="none" stroke-width="3"/><path d="M318.05311,108.61825l36.82604,-0.29639l-18.13316,35.41612z" data-paper-data="{&quot;index&quot;:null}" fill="#9a9a9a" stroke-width="3"/><path d="M336.08299,109.54066l16.9973,-0.13672l-16.3565,31.92797z" data-paper-data="{&quot;index&quot;:null}" fill="#808080" stroke-width="0"/><path d="M318.05311,108.61825l36.82604,-0.29639l-18.13316,35.41612z" data-paper-data="{&quot;index&quot;:null}" fill="none" stroke-width="3"/><path d="M393.74599,248.32187l18.13316,35.41612l-36.82604,-0.29639z" data-paper-data="{&quot;index&quot;:null}" fill="#9a9a9a" stroke-width="3"/><path d="M393.72379,250.72794l16.3565,31.92797l-16.9973,-0.13672z" data-paper-data="{&quot;index&quot;:null}" fill="#808080" stroke-width="0"/><path d="M393.74599,248.32187l18.13316,35.41612l-36.82604,-0.29639z" data-paper-data="{&quot;index&quot;:null}" fill="none" stroke-width="3"/><path d="M431.74599,248.32187l18.13316,35.41612l-36.82604,-0.29639z" data-paper-data="{&quot;index&quot;:null}" fill="#9a9a9a" stroke-width="3"/><path d="M431.72379,250.72795l16.3565,31.92797l-16.9973,-0.13672z" data-paper-data="{&quot;index&quot;:null}" fill="#808080" stroke-width="0"/><path d="M431.74599,248.32187l18.13316,35.41612l-36.82604,-0.29639z" data-paper-data="{&quot;index&quot;:null}" fill="none" stroke-width="3"/></g></g></svg>