<svg version="1.1" xmlns="http://www.w3.org/2000/svg" xmlns:xlink="http://www.w3.org/1999/xlink" width="178.59031" height="7.88858" viewBox="0,0,178.59031,7.88858"><g transform="translate(-124.42857,-274.62628)"><g data-paper-data="{&quot;isPaintingLayer&quot;:true}" fill="#ffec1f" fill-rule="nonzero" stroke-width="0" stroke-linecap="butt" stroke-linejoin="miter" stroke-miterlimit="10" stroke-dasharray="" stroke-dashoffset="0" style="mix-blend-mode: normal"><g><path d="M128.40692,282.01486v-7.38858h34.33518v7.38858z" stroke="#000000"/><path d="M131.69297,278.32057c0,2.03018 -1.62619,3.67596 -3.6322,3.67596c-2.00601,0 -3.6322,-1.64579 -3.6322,-3.67596c0,-2.03018 1.62619,-3.67596 3.6322,-3.67596c2.00601,0 3.6322,1.64579 3.6322,3.67596z" stroke="none"/><path d="M166.57143,278.32057c0,2.03018 -1.6262,3.67596 -3.6322,3.67596c-2.00601,0 -3.6322,-1.64578 -3.6322,-3.67596c0,-2.03018 1.6262,-3.67596 3.6322,-3.67596c2.00601,0 3.6322,1.64578 3.6322,3.67596z" stroke="none"/></g><g><path d="M264.85437,282.51486v-7.38858h34.33518v7.38858z" stroke="#000000"/><path d="M268.14042,278.82057c0,2.03018 -1.62619,3.67596 -3.6322,3.67596c-2.00601,0 -3.6322,-1.64579 -3.6322,-3.67596c0,-2.03018 1.62619,-3.67596 3.6322,-3.67596c2.00601,0 3.6322,1.64579 3.6322,3.67596z" stroke="none"/><path d="M303.01888,278.82057c0,2.03018 -1.6262,3.67596 -3.6322,3.67596c-2.00601,0 -3.6322,-1.64578 -3.6322,-3.67596c0,-2.03018 1.6262,-3.67596 3.6322,-3.67596c2.00601,0 3.6322,1.64578 3.6322,3.67596z" stroke="none"/></g></g></g></svg>