<svg version="1.1" xmlns="http://www.w3.org/2000/svg" xmlns:xlink="http://www.w3.org/1999/xlink" width="42.14286" height="7.38858" viewBox="0,0,42.14286,7.38858"><g transform="translate(-229.56428,-220.77809)"><g data-paper-data="{&quot;isPaintingLayer&quot;:true}" fill="#ffec1f" fill-rule="nonzero" stroke-width="0" stroke-linecap="butt" stroke-linejoin="miter" stroke-miterlimit="10" stroke-dasharray="" stroke-dashoffset="0" style="mix-blend-mode: normal"><path d="M233.54263,228.16667v-7.38858h34.33518v7.38858z" stroke="#000000"/><path d="M236.82868,224.47238c0,2.03018 -1.62619,3.67596 -3.6322,3.67596c-2.00601,0 -3.6322,-1.64579 -3.6322,-3.67596c0,-2.03018 1.62619,-3.67596 3.6322,-3.67596c2.00601,0 3.6322,1.64579 3.6322,3.67596z" stroke="none"/><path d="M271.70714,224.47238c0,2.03018 -1.6262,3.67596 -3.6322,3.67596c-2.00601,0 -3.6322,-1.64578 -3.6322,-3.67596c0,-2.03018 1.6262,-3.67596 3.6322,-3.67596c2.00601,0 3.6322,1.64578 3.6322,3.67596z" stroke="none"/></g></g></svg>