<svg version="1.1" xmlns="http://www.w3.org/2000/svg" xmlns:xlink="http://www.w3.org/1999/xlink" width="44.99642" height="44.54964" viewBox="0,0,44.99642,44.54964"><defs><radialGradient cx="148" cy="136.66667" r="15.77703" gradientUnits="userSpaceOnUse" id="color-1"><stop offset="0" stop-color="#32ff00"/><stop offset="1" stop-color="#1dec37"/></radialGradient></defs><g transform="translate(-125.50179,-114.39185)"><g data-paper-data="{&quot;isPaintingLayer&quot;:true}" fill-rule="nonzero" stroke="#ffffff" stroke-width="3" stroke-linejoin="miter" stroke-miterlimit="10" stroke-dasharray="" stroke-dashoffset="0" style="mix-blend-mode: normal"><path d="M163.77703,136.66667c0,8.62072 -7.06362,15.60919 -15.77703,15.60919c-8.71341,0 -15.77703,-6.98847 -15.77703,-15.60919c0,-8.62072 7.06362,-15.60919 15.77703,-15.60919c8.71341,0 15.77703,6.98847 15.77703,15.60919z" fill="url(#color-1)" stroke-linecap="butt"/><path d="M140.92533,140.01061l7.59233,-6.68787l6.55701,6.68787" fill="none" stroke-linecap="round"/><path d="M168.99821,136.66667c0,11.47362 -9.40122,20.77482 -20.99821,20.77482c-11.59699,0 -20.99821,-9.30121 -20.99821,-20.77482c0,-11.47362 9.40122,-20.77482 20.99821,-20.77482c11.59699,0 20.99821,9.30121 20.99821,20.77482z" fill="none" stroke-linecap="butt"/></g></g></svg>