<svg version="1.1" xmlns="http://www.w3.org/2000/svg" xmlns:xlink="http://www.w3.org/1999/xlink" width="124.22995" height="214.10029" viewBox="0,0,124.22995,214.10029"><g transform="translate(-130.96067,-68.12044)"><g data-paper-data="{&quot;isPaintingLayer&quot;:true}" fill="#ffec1f" fill-rule="nonzero" stroke-width="0" stroke-linecap="butt" stroke-linejoin="miter" stroke-miterlimit="10" stroke-dasharray="" stroke-dashoffset="0" style="mix-blend-mode: normal"><g><path d="M217.02611,282.22073v-7.38858h34.33518v7.38858z" stroke="#000000"/><path d="M220.31216,278.52644c0,2.03018 -1.62619,3.67596 -3.6322,3.67596c-2.00601,0 -3.6322,-1.64579 -3.6322,-3.67596c0,-2.03018 1.62619,-3.67596 3.6322,-3.67596c2.00601,0 3.6322,1.64579 3.6322,3.67596z" stroke="none"/><path d="M255.19062,278.52644c0,2.03018 -1.6262,3.67596 -3.6322,3.67596c-2.00601,0 -3.6322,-1.64578 -3.6322,-3.67596c0,-2.03018 1.6262,-3.67596 3.6322,-3.67596c2.00601,0 3.6322,1.64578 3.6322,3.67596z" stroke="none"/></g><g><path d="M134.93902,75.50902v-7.38858h34.33518v7.38858z" stroke="#000000"/><path d="M138.22507,71.81473c0,2.03018 -1.62619,3.67596 -3.6322,3.67596c-2.00601,0 -3.6322,-1.64579 -3.6322,-3.67596c0,-2.03018 1.62619,-3.67596 3.6322,-3.67596c2.00601,0 3.6322,1.64579 3.6322,3.67596z" stroke="none"/><path d="M173.10353,71.81473c0,2.03018 -1.6262,3.67596 -3.6322,3.67596c-2.00601,0 -3.6322,-1.64578 -3.6322,-3.67596c0,-2.03018 1.6262,-3.67596 3.6322,-3.67596c2.00601,0 3.6322,1.64578 3.6322,3.67596z" stroke="none"/></g></g></g></svg>