<svg version="1.1" xmlns="http://www.w3.org/2000/svg" xmlns:xlink="http://www.w3.org/1999/xlink" width="421.60554" height="242.98435" viewBox="0,0,421.60554,242.98435"><g transform="translate(26.18362,-40.81204)"><g data-paper-data="{&quot;isPaintingLayer&quot;:true}" fill-rule="nonzero" stroke="#000000" stroke-linecap="round" stroke-linejoin="miter" stroke-miterlimit="10" stroke-dasharray="" stroke-dashoffset="0" style="mix-blend-mode: normal"><g><g><path d="M393.89051,190.68143l0.02967,44.50913l-38.16477,-22.14873z" data-paper-data="{&quot;index&quot;:null}" fill="#9a9a9a" stroke-width="3"/><path d="M392.75033,212.46587l0.0136,20.54349l-34.40582,-19.97849z" data-paper-data="{&quot;index&quot;:null}" fill="#808080" stroke-width="0"/><path d="M393.89051,190.68143l0.02967,44.50913l-38.16477,-22.14873z" data-paper-data="{&quot;index&quot;:null}" fill="none" stroke-width="3"/></g><g><path d="M393.89051,236.68143l0.02967,44.50913l-38.16477,-22.14873z" data-paper-data="{&quot;index&quot;:null}" fill="#9a9a9a" stroke-width="3"/><path d="M392.75033,258.46587l0.0136,20.54349l-34.40583,-19.97849z" data-paper-data="{&quot;index&quot;:null}" fill="#808080" stroke-width="0"/><path d="M393.89051,236.68143l0.02967,44.50913l-38.16477,-22.14873z" data-paper-data="{&quot;index&quot;:null}" fill="none" stroke-width="3"/></g></g><g><g><path d="M393.89051,98.68143l0.02967,44.50913l-38.16477,-22.14874z" data-paper-data="{&quot;index&quot;:null}" fill="#9a9a9a" stroke-width="3"/><path d="M392.75033,120.46587l0.0136,20.54348l-34.40582,-19.97848z" data-paper-data="{&quot;index&quot;:null}" fill="#808080" stroke-width="0"/><path d="M393.89051,98.68143l0.02967,44.50913l-38.16477,-22.14874z" data-paper-data="{&quot;index&quot;:null}" fill="none" stroke-width="3"/></g><g><path d="M393.89051,144.68143l0.02967,44.50913l-38.16477,-22.14873z" data-paper-data="{&quot;index&quot;:null}" fill="#9a9a9a" stroke-width="3"/><path d="M392.75033,166.46587l0.0136,20.54349l-34.40582,-19.97849z" data-paper-data="{&quot;index&quot;:null}" fill="#808080" stroke-width="0"/><path d="M393.89051,144.68143l0.02967,44.50913l-38.16477,-22.14873z" data-paper-data="{&quot;index&quot;:null}" fill="none" stroke-width="3"/></g></g><g data-paper-data="{&quot;index&quot;:null}"><g><path d="M103.92018,94.51929l-38.16477,22.14874l0.02967,-44.50913z" data-paper-data="{&quot;index&quot;:null}" fill="#9a9a9a" stroke-width="3"/><path d="M101.31748,94.50835l-34.40582,19.97848l0.0136,-20.54348z" data-paper-data="{&quot;index&quot;:null}" fill="#808080" stroke-width="0"/><path d="M103.92018,94.51929l-38.16477,22.14874l0.02967,-44.50913z" data-paper-data="{&quot;index&quot;:null}" fill="none" stroke-width="3"/></g><g><path d="M103.92018,140.5193l-38.16477,22.14873l0.02967,-44.50913z" data-paper-data="{&quot;index&quot;:null}" fill="#9a9a9a" stroke-width="3"/><path d="M101.31748,140.50835l-34.40582,19.97849l0.0136,-20.54349z" data-paper-data="{&quot;index&quot;:null}" fill="#808080" stroke-width="0"/><path d="M103.92018,140.5193l-38.16477,22.14873l0.02967,-44.50913z" data-paper-data="{&quot;index&quot;:null}" fill="none" stroke-width="3"/></g></g><g data-paper-data="{&quot;index&quot;:null}"><g><path d="M65.34697,71.15289l0.02967,44.50913l-38.16477,-22.14874z" data-paper-data="{&quot;index&quot;:null}" fill="#9a9a9a" stroke-width="3"/><path d="M64.20679,92.93734l0.0136,20.54348l-34.40582,-19.97848z" data-paper-data="{&quot;index&quot;:null}" fill="#808080" stroke-width="0"/><path d="M65.34697,71.15289l0.02967,44.50913l-38.16477,-22.14874z" data-paper-data="{&quot;index&quot;:null}" fill="none" stroke-width="3"/></g><g><path d="M65.34697,117.15289l0.02967,44.50913l-38.16477,-22.14873z" data-paper-data="{&quot;index&quot;:null}" fill="#9a9a9a" stroke-width="3"/><path d="M64.20679,138.93734l0.0136,20.54349l-34.40582,-19.97849z" data-paper-data="{&quot;index&quot;:null}" fill="#808080" stroke-width="0"/><path d="M65.34697,117.15289l0.02967,44.50913l-38.16477,-22.14873z" data-paper-data="{&quot;index&quot;:null}" fill="none" stroke-width="3"/></g></g><g data-paper-data="{&quot;index&quot;:null}"><g><path d="M29.8361,92.50728l-38.16477,22.14874l0.02967,-44.50913z" data-paper-data="{&quot;index&quot;:null}" fill="#9a9a9a" stroke-width="3"/><path d="M27.2334,92.49634l-34.40582,19.97848l0.0136,-20.54348z" data-paper-data="{&quot;index&quot;:null}" fill="#808080" stroke-width="0"/><path d="M29.8361,92.50728l-38.16477,22.14874l0.02967,-44.50913z" data-paper-data="{&quot;index&quot;:null}" fill="none" stroke-width="3"/></g><g><path d="M29.8361,138.50729l-38.16477,22.14873l0.02967,-44.50913z" data-paper-data="{&quot;index&quot;:null}" fill="#9a9a9a" stroke-width="3"/><path d="M27.2334,138.49634l-34.40582,19.97849l0.0136,-20.54349z" data-paper-data="{&quot;index&quot;:null}" fill="#808080" stroke-width="0"/><path d="M29.8361,138.50729l-38.16477,22.14873l0.02967,-44.50913z" data-paper-data="{&quot;index&quot;:null}" fill="none" stroke-width="3"/></g></g><g data-paper-data="{&quot;index&quot;:null}"><g><path d="M-0.57024,43.20678l22.04142,27.75175l-44.50887,-0.11232z" data-paper-data="{&quot;index&quot;:null}" fill="#9a9a9a" stroke-width="3"/><path d="M-0.5885,45.09624l19.88173,25.01843l-20.54336,-0.05178z" data-paper-data="{&quot;index&quot;:null}" fill="#808080" stroke-width="0"/><path d="M-0.57024,43.20678l22.04142,27.75175l-44.50887,-0.11232z" data-paper-data="{&quot;index&quot;:null}" fill="none" stroke-width="3"/></g><g><path d="M45.42959,43.3006l22.04141,27.75175l-44.50887,-0.11232z" data-paper-data="{&quot;index&quot;:null}" fill="#9a9a9a" stroke-width="3"/><path d="M45.41132,45.19007l19.88174,25.01843l-20.54337,-0.05178z" data-paper-data="{&quot;index&quot;:null}" fill="#808080" stroke-width="0"/><path d="M45.42959,43.3006l22.04141,27.75175l-44.50887,-0.11232z" data-paper-data="{&quot;index&quot;:null}" fill="none" stroke-width="3"/></g></g></g></g></svg>