<svg version="1.1" xmlns="http://www.w3.org/2000/svg" xmlns:xlink="http://www.w3.org/1999/xlink" width="492.41206" height="216.46675" viewBox="0,0,492.41206,216.46675"><g transform="translate(68.46161,-67.32964)"><g data-paper-data="{&quot;isPaintingLayer&quot;:true}" fill-rule="nonzero" stroke="#000000" stroke-linecap="round" stroke-linejoin="miter" stroke-miterlimit="10" stroke-dasharray="" stroke-dashoffset="0" style="mix-blend-mode: normal"><g><g><path d="M422.41904,190.68143l0.02967,44.50913l-38.16477,-22.14873z" data-paper-data="{&quot;index&quot;:null}" fill="#9a9a9a" stroke-width="3"/><path d="M421.27886,212.46587l0.0136,20.54349l-34.40582,-19.97849z" data-paper-data="{&quot;index&quot;:null}" fill="#808080" stroke-width="0"/><path d="M422.41904,190.68143l0.02967,44.50913l-38.16477,-22.14873z" data-paper-data="{&quot;index&quot;:null}" fill="none" stroke-width="3"/></g><g><path d="M422.41904,236.68143l0.02967,44.50913l-38.16477,-22.14873z" data-paper-data="{&quot;index&quot;:null}" fill="#9a9a9a" stroke-width="3"/><path d="M421.27886,258.46587l0.0136,20.54349l-34.40583,-19.97849z" data-paper-data="{&quot;index&quot;:null}" fill="#808080" stroke-width="0"/><path d="M422.41904,236.68143l0.02967,44.50913l-38.16477,-22.14873z" data-paper-data="{&quot;index&quot;:null}" fill="none" stroke-width="3"/></g></g><g><g><path d="M422.41904,98.68143l0.02967,44.50913l-38.16477,-22.14874z" data-paper-data="{&quot;index&quot;:null}" fill="#9a9a9a" stroke-width="3"/><path d="M421.27886,120.46587l0.0136,20.54348l-34.40582,-19.97848z" data-paper-data="{&quot;index&quot;:null}" fill="#808080" stroke-width="0"/><path d="M422.41904,98.68143l0.02967,44.50913l-38.16477,-22.14874z" data-paper-data="{&quot;index&quot;:null}" fill="none" stroke-width="3"/></g><g><path d="M422.41904,144.68143l0.02967,44.50913l-38.16477,-22.14873z" data-paper-data="{&quot;index&quot;:null}" fill="#9a9a9a" stroke-width="3"/><path d="M421.27886,166.46587l0.0136,20.54349l-34.40582,-19.97849z" data-paper-data="{&quot;index&quot;:null}" fill="#808080" stroke-width="0"/><path d="M422.41904,144.68143l0.02967,44.50913l-38.16477,-22.14873z" data-paper-data="{&quot;index&quot;:null}" fill="none" stroke-width="3"/></g></g><path d="M26.12135,68.88506l44.50914,-0.00745l-22.16794,39.1518z" data-paper-data="{&quot;index&quot;:null}" fill="#9a9a9a" stroke-width="3"/><path d="M47.90522,70.06631l20.54349,-0.00335l-19.99581,35.29562z" data-paper-data="{&quot;index&quot;:null}" fill="#808080" stroke-width="0"/><path d="M26.12135,68.88506l44.50914,-0.00745l-22.16794,39.1518z" data-paper-data="{&quot;index&quot;:null}" fill="none" stroke-width="3"/><path d="M72.12135,68.90882l44.50914,-0.00745l-22.16794,39.1518z" data-paper-data="{&quot;index&quot;:null}" fill="#9a9a9a" stroke-width="3"/><path d="M93.90521,70.09009l20.54349,-0.00335l-19.99581,35.29564z" data-paper-data="{&quot;index&quot;:null}" fill="#808080" stroke-width="0"/><path d="M72.12135,68.90882l44.50914,-0.00745l-22.16794,39.1518z" data-paper-data="{&quot;index&quot;:null}" fill="none" stroke-width="3"/><path d="M-65.87864,68.83752l44.50914,-0.00745l-22.16795,39.1518z" data-paper-data="{&quot;index&quot;:null}" fill="#9a9a9a" stroke-width="3"/><path d="M-44.09477,70.01879l20.54348,-0.00335l-19.9958,35.29562z" data-paper-data="{&quot;index&quot;:null}" fill="#808080" stroke-width="0"/><path d="M-65.87864,68.83752l44.50914,-0.00745l-22.16795,39.1518z" data-paper-data="{&quot;index&quot;:null}" fill="none" stroke-width="3"/><path d="M-19.87864,68.86129l44.50914,-0.00745l-22.16794,39.1518z" data-paper-data="{&quot;index&quot;:null}" fill="#9a9a9a" stroke-width="3"/><path d="M1.90522,70.04255l20.54349,-0.00335l-19.99581,35.29562z" data-paper-data="{&quot;index&quot;:null}" fill="#808080" stroke-width="0"/><path d="M-19.87864,68.86129l44.50914,-0.00745l-22.16794,39.1518z" data-paper-data="{&quot;index&quot;:null}" fill="none" stroke-width="3"/><path d="M25.46255,70.87761l22.16794,39.1518l-44.50914,-0.00745z" data-paper-data="{&quot;index&quot;:null}" fill="#9a9a9a" stroke-width="3"/><path d="M25.45291,73.54842l19.99581,35.29563l-20.54349,-0.00335z" data-paper-data="{&quot;index&quot;:null}" fill="#808080" stroke-width="0"/><path d="M25.46255,70.87761l22.16794,39.1518l-44.50914,-0.00745z" data-paper-data="{&quot;index&quot;:null}" fill="none" stroke-width="3"/><path d="M71.46255,70.85385l22.16794,39.1518l-44.50914,-0.00745z" data-paper-data="{&quot;index&quot;:null}" fill="#9a9a9a" stroke-width="3"/><path d="M71.4529,73.52464l19.99581,35.29564l-20.54349,-0.00335z" data-paper-data="{&quot;index&quot;:null}" fill="#808080" stroke-width="0"/><path d="M71.46255,70.85385l22.16794,39.1518l-44.50914,-0.00745z" data-paper-data="{&quot;index&quot;:null}" fill="none" stroke-width="3"/><path d="M-20.53743,70.90137l22.16794,39.1518l-44.50914,-0.00745z" data-paper-data="{&quot;index&quot;:null}" fill="#9a9a9a" stroke-width="3"/><path d="M-20.5471,73.57219l19.99581,35.29563l-20.54349,-0.00335z" data-paper-data="{&quot;index&quot;:null}" fill="#808080" stroke-width="0"/><path d="M-20.53743,70.90137l22.16794,39.1518l-44.50914,-0.00745z" data-paper-data="{&quot;index&quot;:null}" fill="none" stroke-width="3"/></g></g></svg>