<svg version="1.1" xmlns="http://www.w3.org/2000/svg" xmlns:xlink="http://www.w3.org/1999/xlink" width="347.71756" height="81.84341" viewBox="0,0,347.71756,81.84341"><g transform="translate(-126.04882,-47.08528)"><g data-paper-data="{&quot;isPaintingLayer&quot;:true}" fill-rule="nonzero" stroke="#000000" stroke-linecap="round" stroke-linejoin="miter" stroke-miterlimit="10" stroke-dasharray="" stroke-dashoffset="0" style="mix-blend-mode: normal"><path d="M128.67854,88.00435l44.50734,-0.40028l-21.83018,38.34787z" data-paper-data="{&quot;index&quot;:null}" fill="#9a9a9a" stroke-width="3"/><path d="M150.47172,88.96309l20.54266,-0.18466l-19.69131,34.57099z" data-paper-data="{&quot;index&quot;:null}" fill="#808080" stroke-width="0"/><path d="M128.67854,88.00435l44.50734,-0.40028l-21.83018,38.34787z" data-paper-data="{&quot;index&quot;:null}" fill="none" stroke-width="3"/><path d="M214.67854,66.00435l44.50734,-0.40028l-21.83018,38.34787z" data-paper-data="{&quot;index&quot;:null}" fill="#9a9a9a" stroke-width="3"/><path d="M236.47172,66.9631l20.54266,-0.18466l-19.69131,34.57099z" data-paper-data="{&quot;index&quot;:null}" fill="#808080" stroke-width="0"/><path d="M214.67854,66.00435l44.50734,-0.40028l-21.83018,38.34787z" data-paper-data="{&quot;index&quot;:null}" fill="none" stroke-width="3"/><path d="M375.67854,48.83734l44.50734,-0.23327l-21.83018,22.34787z" data-paper-data="{&quot;index&quot;:null}" fill="#9a9a9a" stroke-width="3"/><path d="M397.47172,49.39607l20.54266,-0.10761l-19.69131,20.14683z" data-paper-data="{&quot;index&quot;:null}" fill="#808080" stroke-width="0"/><path d="M375.67854,48.83734l44.50734,-0.23327l-21.83018,22.34787z" data-paper-data="{&quot;index&quot;:null}" fill="none" stroke-width="3"/><path d="M425.67854,48.83734l44.50734,-0.23327l-21.83018,22.34787z" data-paper-data="{&quot;index&quot;:null}" fill="#9a9a9a" stroke-width="3"/><path d="M447.47172,49.39607l20.54266,-0.10762l-19.69131,20.14683z" data-paper-data="{&quot;index&quot;:null}" fill="#808080" stroke-width="0"/><path d="M425.67854,48.83734l44.50734,-0.23327l-21.83018,22.34787z" data-paper-data="{&quot;index&quot;:null}" fill="none" stroke-width="3"/></g></g></svg>