<svg version="1.1" xmlns="http://www.w3.org/2000/svg" xmlns:xlink="http://www.w3.org/1999/xlink" width="162.16974" height="40.17696" viewBox="0,0,162.16974,40.17696"><g transform="translate(-157.17276,-247.0809)"><g data-paper-data="{&quot;isPaintingLayer&quot;:true}" fill-rule="nonzero" stroke="#000000" stroke-linecap="round" stroke-linejoin="miter" stroke-miterlimit="10" stroke-dasharray="" stroke-dashoffset="0" style="mix-blend-mode: normal"><g><path d="M178.35265,250.32187l18.13316,35.41612l-36.82604,-0.29639z" fill="#9a9a9a" stroke-width="3"/><path d="M178.33045,252.72795l16.3565,31.92797l-16.99731,-0.13673z" fill="#808080" stroke-width="0"/><path d="M178.35265,250.32187l18.13316,35.41612l-36.82604,-0.29639z" fill="none" stroke-width="3"/><path d="M218.96727,250.32187l18.13316,35.41612l-36.82604,-0.29639z" fill="#9a9a9a" stroke-width="3"/><path d="M218.94507,252.72795l16.3565,31.92797l-16.9973,-0.13672z" fill="#808080" stroke-width="0"/><path d="M218.96727,250.32187l18.13316,35.41612l-36.82604,-0.29639z" fill="none" stroke-width="3"/><path d="M258.13137,250.32187l18.13316,35.41612l-36.82604,-0.29639z" fill="#9a9a9a" stroke-width="3"/><path d="M258.10917,252.72795l16.3565,31.92797l-16.9973,-0.13672z" fill="#808080" stroke-width="0"/><path d="M258.13137,250.32187l18.13316,35.41612l-36.82604,-0.29639z" fill="none" stroke-width="3"/><path d="M298.74598,250.32187l18.13316,35.41612l-36.82604,-0.29639z" fill="#9a9a9a" stroke-width="3"/><path d="M298.72378,252.72795l16.3565,31.92797l-16.9973,-0.13672z" fill="#808080" stroke-width="0"/><path d="M298.74598,250.32187l18.13316,35.41612l-36.82604,-0.29639z" fill="none" stroke-width="3"/></g></g></g></svg>