<svg version="1.1" xmlns="http://www.w3.org/2000/svg" xmlns:xlink="http://www.w3.org/1999/xlink" width="48.82756" height="198.62405" viewBox="0,0,48.82756,198.62405"><g transform="translate(-399.51495,-81.08091)"><g data-paper-data="{&quot;isPaintingLayer&quot;:true}" fill-rule="nonzero" stroke="#000000" stroke-linecap="round" stroke-linejoin="miter" stroke-miterlimit="10" stroke-dasharray="" stroke-dashoffset="0" style="mix-blend-mode: normal"><g><path d="M427.74599,84.32187l18.13316,35.41612l-36.82604,-0.29639z" data-paper-data="{&quot;index&quot;:null}" fill="#9a9a9a" stroke-width="3"/><path d="M427.72379,86.72794l16.3565,31.92797l-16.9973,-0.13672z" data-paper-data="{&quot;index&quot;:null}" fill="#808080" stroke-width="0"/><path d="M427.74599,84.32187l18.13316,35.41612l-36.82604,-0.29639z" data-paper-data="{&quot;index&quot;:null}" fill="none" stroke-width="3"/></g><g><path d="M402.75599,258.95963l35.19907,-18.55096l0.13939,36.82697z" data-paper-data="{&quot;index&quot;:null}" fill="#9a9a9a" stroke-width="3"/><path d="M405.16216,258.95335l31.73219,-16.73315l0.06442,16.99773z" data-paper-data="{&quot;index&quot;:null}" fill="#808080" stroke-width="0"/><path d="M402.75599,258.95963l35.19907,-18.55096l0.13939,36.82697z" data-paper-data="{&quot;index&quot;:null}" fill="none" stroke-width="3"/></g><g><path d="M402.756,220.95963l35.19907,-18.55097l0.13939,36.82697z" data-paper-data="{&quot;index&quot;:null}" fill="#9a9a9a" stroke-width="3"/><path d="M405.16216,220.95335l31.73219,-16.73315l0.06442,16.99773z" data-paper-data="{&quot;index&quot;:null}" fill="#808080" stroke-width="0"/><path d="M402.756,220.95963l35.19907,-18.55097l0.13939,36.82697z" data-paper-data="{&quot;index&quot;:null}" fill="none" stroke-width="3"/></g><g><path d="M402.756,184.95963l35.19907,-18.55097l0.13939,36.82697z" data-paper-data="{&quot;index&quot;:null}" fill="#9a9a9a" stroke-width="3"/><path d="M405.16216,184.95335l31.73219,-16.73315l0.06442,16.99773z" data-paper-data="{&quot;index&quot;:null}" fill="#808080" stroke-width="0"/><path d="M402.756,184.95963l35.19907,-18.55097l0.13939,36.82697z" data-paper-data="{&quot;index&quot;:null}" fill="none" stroke-width="3"/></g></g></g></svg>