<svg version="1.1" xmlns="http://www.w3.org/2000/svg" xmlns:xlink="http://www.w3.org/1999/xlink" width="306.56089" height="236.49039" viewBox="0,0,306.56089,236.49039"><g transform="translate(-172.12724,-51.0019)"><g data-paper-data="{&quot;isPaintingLayer&quot;:true}" fill-rule="nonzero" stroke="#000000" stroke-linecap="round" stroke-linejoin="miter" stroke-miterlimit="10" stroke-dasharray="" stroke-dashoffset="0" style="mix-blend-mode: normal"><g><path d="M346.90975,119.89874l18.30922,35.32542l-36.82706,-0.11308z" data-paper-data="{&quot;index&quot;:null}" fill="#9a9a9a" stroke-width="3"/><path d="M346.89953,122.3049l16.51522,31.84616l-16.99777,-0.05211z" data-paper-data="{&quot;index&quot;:null}" fill="#808080" stroke-width="0"/><path d="M346.90975,119.89874l18.30922,35.32542l-36.82706,-0.11308z" data-paper-data="{&quot;index&quot;:null}" fill="none" stroke-width="3"/></g><g><path d="M384.90885,120.15926l18.30923,35.32542l-36.82706,-0.11308z" data-paper-data="{&quot;index&quot;:null}" fill="#9a9a9a" stroke-width="3"/><path d="M384.89864,122.5654l16.51522,31.84616l-16.99777,-0.05211z" data-paper-data="{&quot;index&quot;:null}" fill="#808080" stroke-width="0"/><path d="M384.90885,120.15926l18.30923,35.32542l-36.82706,-0.11308z" data-paper-data="{&quot;index&quot;:null}" fill="none" stroke-width="3"/></g><g><path d="M420.90801,120.40605l18.30923,35.32542l-36.82706,-0.11308z" data-paper-data="{&quot;index&quot;:null}" fill="#9a9a9a" stroke-width="3"/><path d="M420.89779,122.8122l16.51522,31.84616l-16.99777,-0.05211z" data-paper-data="{&quot;index&quot;:null}" fill="#808080" stroke-width="0"/><path d="M420.90801,120.40605l18.30923,35.32542l-36.82706,-0.11308z" data-paper-data="{&quot;index&quot;:null}" fill="none" stroke-width="3"/></g><g><path d="M318.03078,54.24295l4.91792,9.48852l-9.89187,-0.03037z" data-paper-data="{&quot;index&quot;:null}" fill="#9a9a9a" stroke-width="3"/><path d="M318.02804,54.88925l4.43604,8.55398l-4.56566,-0.014z" data-paper-data="{&quot;index&quot;:null}" fill="#808080" stroke-width="0"/><path d="M318.03078,54.24295l4.91792,9.48852l-9.89187,-0.03037z" data-paper-data="{&quot;index&quot;:null}" fill="none" stroke-width="3"/></g><g><path d="M457.90801,120.40605l18.30923,35.32542l-36.82706,-0.11308z" data-paper-data="{&quot;index&quot;:null}" fill="#9a9a9a" stroke-width="3"/><path d="M457.89779,122.8122l16.51522,31.84616l-16.99777,-0.05211z" data-paper-data="{&quot;index&quot;:null}" fill="#808080" stroke-width="0"/><path d="M457.90801,120.40605l18.30923,35.32542l-36.82706,-0.11308z" data-paper-data="{&quot;index&quot;:null}" fill="none" stroke-width="3"/></g><g><path d="M205.90976,250.39875l18.30922,35.32542l-36.82706,-0.11308z" data-paper-data="{&quot;index&quot;:null}" fill="#9a9a9a" stroke-width="3"/><path d="M205.89954,252.80491l16.51522,31.84616l-16.99777,-0.05211z" data-paper-data="{&quot;index&quot;:null}" fill="#808080" stroke-width="0"/><path d="M205.90976,250.39875l18.30922,35.32542l-36.82706,-0.11308z" data-paper-data="{&quot;index&quot;:null}" fill="none" stroke-width="3"/></g><g><path d="M243.90886,250.65927l18.30923,35.32542l-36.82706,-0.11308z" data-paper-data="{&quot;index&quot;:null}" fill="#9a9a9a" stroke-width="3"/><path d="M243.89865,253.06541l16.51522,31.84616l-16.99777,-0.05211z" data-paper-data="{&quot;index&quot;:null}" fill="#808080" stroke-width="0"/><path d="M243.90886,250.65927l18.30923,35.32542l-36.82706,-0.11308z" data-paper-data="{&quot;index&quot;:null}" fill="none" stroke-width="3"/></g><g><path d="M240.14224,206.16469l35.38019,-18.20318l-0.22356,36.82656z" data-paper-data="{&quot;index&quot;:null}" fill="#9a9a9a" stroke-width="3"/><path d="M242.54834,206.18212l31.89556,-16.41961l-0.1031,16.99754z" data-paper-data="{&quot;index&quot;:null}" fill="#808080" stroke-width="0"/><path d="M240.14224,206.16469l35.38019,-18.20318l-0.22356,36.82656z" data-paper-data="{&quot;index&quot;:null}" fill="none" stroke-width="3"/></g><g data-paper-data="{&quot;index&quot;:null}"><path d="M173.86579,161.28807l-0.22355,-36.82656l35.38019,18.20318z" data-paper-data="{&quot;index&quot;:null}" fill="#9a9a9a" stroke-width="3"/><path d="M174.82387,143.26005l-0.1031,-16.99754l31.89556,16.41961z" data-paper-data="{&quot;index&quot;:null}" fill="#808080" stroke-width="0"/><path d="M173.86579,161.28807l-0.22355,-36.82656l35.38019,18.20318z" data-paper-data="{&quot;index&quot;:null}" fill="none" stroke-width="3"/></g></g></g></svg>