<svg version="1.1" xmlns="http://www.w3.org/2000/svg" xmlns:xlink="http://www.w3.org/1999/xlink" width="70.51851" height="69.69999" viewBox="0,0,70.51851,69.69999"><g transform="translate(-204.74074,-145.15001)"><g data-paper-data="{&quot;isPaintingLayer&quot;:true}" fill="#000000" fill-rule="nonzero" stroke="none" stroke-width="0" stroke-linecap="butt" stroke-linejoin="miter" stroke-miterlimit="10" stroke-dasharray="" stroke-dashoffset="0" style="mix-blend-mode: normal"><g><path d="M204.84568,197.22037v-34.94444h70.30864v34.94444z"/><path d="M256.79013,214.85h-33.26543v-69.67901h33.26543z"/><path d="M204.74074,164.35371c0,-10.60591 8.59779,-19.2037 19.2037,-19.2037c10.60591,0 19.2037,8.59779 19.2037,19.2037c0,10.60591 -8.59779,19.2037 -19.2037,19.2037c-10.60591,0 -19.2037,-8.59779 -19.2037,-19.2037z"/><path d="M236.85186,164.35371c0,-10.60591 8.59779,-19.2037 19.2037,-19.2037c10.60591,0 19.2037,8.59779 19.2037,19.2037c0,10.60591 -8.59779,19.2037 -19.2037,19.2037c-10.60591,0 -19.2037,-8.59779 -19.2037,-19.2037z"/><path d="M236.74692,195.62531c0,-10.60591 8.59779,-19.2037 19.2037,-19.2037c10.60591,0 19.2037,8.59779 19.2037,19.2037c0,10.60591 -8.59779,19.2037 -19.2037,19.2037c-10.60591,0 -19.2037,-8.59779 -19.2037,-19.2037z"/><path d="M204.84568,195.62531c0,-10.60591 8.59779,-19.2037 19.2037,-19.2037c10.60591,0 19.2037,8.59779 19.2037,19.2037c0,10.60591 -8.59779,19.2037 -19.2037,19.2037c-10.60591,0 -19.2037,-8.59779 -19.2037,-19.2037z"/></g></g></g></svg>