<svg version="1.1" xmlns="http://www.w3.org/2000/svg" xmlns:xlink="http://www.w3.org/1999/xlink" width="125.82545" height="116.82544" viewBox="0,0,125.82545,116.82544"><defs><radialGradient cx="240" cy="180" r="46.96149" gradientUnits="userSpaceOnUse" id="color-1"><stop offset="0" stop-color="#8295ab"/><stop offset="1" stop-color="#8295ab" stop-opacity="0"/></radialGradient><radialGradient cx="240" cy="180" r="62.82384" gradientUnits="userSpaceOnUse" id="color-2"><stop offset="0" stop-color="#738dab"/><stop offset="1" stop-color="#738dab" stop-opacity="0"/></radialGradient><radialGradient cx="240" cy="180" r="57.21231" gradientUnits="userSpaceOnUse" id="color-3"><stop offset="0" stop-color="#738dab"/><stop offset="1" stop-color="#738dab" stop-opacity="0"/></radialGradient><radialGradient cx="240" cy="180.00001" r="70.31135" gradientUnits="userSpaceOnUse" id="color-4"><stop offset="0" stop-color="#738dab"/><stop offset="1" stop-color="#738dab" stop-opacity="0"/></radialGradient><radialGradient cx="240" cy="180.00001" r="57.21231" gradientUnits="userSpaceOnUse" id="color-5"><stop offset="0" stop-color="#738dab"/><stop offset="1" stop-color="#738dab" stop-opacity="0"/></radialGradient><radialGradient cx="240.23147" cy="181.9032" r="26.5" gradientUnits="userSpaceOnUse" id="color-6"><stop offset="0" stop-color="#585858"/><stop offset="1" stop-color="#343434"/></radialGradient></defs><g transform="translate(-177.08728,-121.58728)"><g data-paper-data="{&quot;isPaintingLayer&quot;:true}" fill-rule="nonzero" stroke-linecap="butt" stroke-linejoin="miter" stroke-miterlimit="10" stroke-dasharray="" stroke-dashoffset="0" style="mix-blend-mode: normal"><path d="M194.08035,170.16293c5.43286,-25.36072 30.396,-41.51544 55.75672,-36.08258c25.36072,5.43286 41.51544,30.396 36.08258,55.75672c-5.43286,25.36072 -30.396,41.51544 -55.75672,36.08258c-25.36072,-5.43286 -41.51544,-30.396 -36.08258,-55.75672z" fill="url(#color-1)" stroke="none" stroke-width="0"/><path d="M177.27256,191.28543l-0.18529,-21.19503l62.91572,9.90637l62.72444,-11.2822l0.18529,21.19503l-62.90962,-9.90004z" fill="url(#color-2)" stroke="none" stroke-width="0"/><path d="M198.33733,237.62268l-15.13378,-14.84051l56.79654,-42.78682l41.66259,-57.61803l15.13379,14.84051l-56.78724,42.78647z" fill="url(#color-3)" stroke="none" stroke-width="0"/><path d="M251.28543,238.24069l-21.19503,0.17203l9.90636,-58.4155l-11.28219,-58.23791l21.19503,-0.17203l-9.90004,58.40984z" fill="url(#color-4)" stroke="none" stroke-width="0"/><path d="M297.62268,221.66267l-14.84051,15.13379l-42.78682,-56.79655l-57.61803,-41.66259l14.84052,-15.13379l42.78646,56.78724z" fill="url(#color-5)" stroke="none" stroke-width="0"/><path d="M254.83184,135.71368c1.18013,2.93033 -1.09684,5.12007 -1.09684,5.12007l-0.6574,0.61552c-1.09187,1.12476 -1.98895,2.83962 -2.45536,4.58786c0,0 -1.0728,3.52753 -3.40226,2.55883c-2.32946,-0.96869 -1.25666,-4.49622 -1.25666,-4.49622c0.987,-3.02333 2.52072,-5.90513 4.35142,-8.09057l1.06,-1.03609c0,0 2.27697,-2.18974 3.45709,0.74059z" fill="#ce995d" stroke="none" stroke-width="0.5"/><path d="M214.31937,176.35222c3.06572,-14.31086 17.15222,-23.42684 31.46307,-20.36111c14.31086,3.06572 23.42684,17.15222 20.36111,31.46307c-3.06572,14.31086 -17.15222,23.42684 -31.46307,20.36111c-14.31086,-3.06572 -23.42684,-17.15222 -20.36111,-31.46307z" fill="url(#color-6)" stroke="#000000" stroke-width="2"/><path d="M258.83805,189.61928c-2.49061,-0.21642 -2.27419,-2.70704 -2.27419,-2.70704l0.22761,-2.60814c0.06622,-2.1164 0.65793,-5.77331 -0.28833,-7.87908c-1.23225,-2.74225 -3.59427,-4.99797 -5.01766,-7.68942c0,0 -1.16265,-2.21319 1.05054,-3.37585c2.21319,-1.16265 3.37585,1.05054 3.37585,1.05054c1.48366,2.84639 3.97808,5.19307 5.22692,8.14106c1.26114,2.97699 0.74027,6.95089 0.64398,10.04723l-0.2377,2.74652c0,0 -0.21642,2.49061 -2.70704,2.27419z" fill="#939393" stroke="none" stroke-width="0.5"/><path d="M242.10398,154.8622l1.88524,-8.80033l8.14845,1.74559l-1.88524,8.80033z" fill="#505050" stroke="#000000" stroke-width="2"/></g></g></svg>