<svg version="1.1" xmlns="http://www.w3.org/2000/svg" xmlns:xlink="http://www.w3.org/1999/xlink" width="522.94232" height="412.40657" viewBox="0,0,522.94232,412.40657"><g transform="translate(21.47116,26.20328)"><g data-paper-data="{&quot;isPaintingLayer&quot;:true}" stroke="none" stroke-miterlimit="10" stroke-dasharray="" stroke-dashoffset="0" style="mix-blend-mode: normal"><path d="M-21.47116,386.20329v-412.40657h522.94232v412.40657z" fill="#000000" fill-rule="nonzero" stroke-width="0" stroke-linecap="butt" stroke-linejoin="miter"/><path d="" data-paper-data="{&quot;origPos&quot;:null}" fill="#000000" fill-rule="nonzero" stroke-width="1" stroke-linecap="butt" stroke-linejoin="miter"/><g fill-rule="nonzero" stroke-width="1" stroke-linecap="butt" stroke-linejoin="miter"><path d="M313.29492,278.87644c0,15.93231 -7.46771,29.39236 -22.93667,32.13933h-116.81692c-15.46891,-2.74691 -22.93667,-16.20702 -22.93667,-32.13933c0,-12.36128 7.46771,-23.62378 18.13598,-27.74423c-0.80012,-1.64819 2.13363,-1.64819 2.13363,-3.57103c0,-6.04329 1.33351,-12.63598 7.20104,-12.63598c0.80012,0 1.33351,0.27471 1.8669,0.27471c-1.06684,-2.19755 1.8669,-2.47226 1.8669,-4.94451c0,-9.61432 4.2673,-18.95398 13.33529,-18.95398c2.66702,0 4.53397,0.54936 7.20104,1.64819v0c0,-15.93231 12.53517,-28.84295 27.73736,-28.56829c15.46891,0 27.73736,12.63598 28.00403,28.29359c10.13478,-4.12044 22.13655,-2.19755 30.40438,6.31799c8.53455,8.51554 7.46771,21.70089 2.93374,32.41398c10.93489,3.84574 21.60311,14.83353 21.86983,27.46952z" data-paper-data="{&quot;origPos&quot;:null}" fill="#007af4"/><path d="M313.0282,272.76676c0,15.93231 -12.53517,28.56829 -28.00403,28.56829h-106.6821c-15.46891,0 -28.00403,-12.63598 -27.73736,-28.84295c0,-12.36128 7.46771,-22.52501 18.13598,-26.6454c-0.80012,-1.64819 -1.33351,-3.29633 -1.33351,-5.21922c0,-6.04329 4.80069,-10.9878 10.66822,-10.9878c0.80012,0 1.33351,0.27471 1.8669,0.27471c-0.80012,-1.92284 -1.33351,-4.12044 -1.33351,-6.5927c0,-9.33961 7.46771,-17.03109 16.53575,-17.03109c2.66702,0 4.53397,0.54936 7.20104,1.64819v0c0,-15.93231 12.53517,-28.84295 27.73736,-28.84295c15.46891,0 27.73736,12.63598 28.00403,28.29359c10.13478,-4.12044 22.13655,-2.19755 30.40438,6.31799c8.26783,8.51554 10.13478,21.42619 5.60081,32.13933c10.93489,3.84574 18.93609,14.28412 18.93609,26.92011z" data-paper-data="{&quot;origPos&quot;:null}" fill="#00a6f9"/><path d="M285.02393,301.33505h-34.9384l-70.41019,-72.24478c-0.80012,-1.92284 -1.06684,-3.57103 -1.06684,-5.76858c0,-9.33961 7.46771,-17.03109 16.53575,-17.03109c2.66702,0 4.53397,0.54936 7.20104,1.64819c0,-15.93231 12.53517,-28.84295 27.73736,-29.11766c15.46891,0 27.73736,12.63598 28.00403,28.29359c10.13478,-4.12044 22.13655,-2.19755 30.40438,6.31799c8.26783,8.79025 10.13478,21.42619 5.60081,32.13933c10.93489,4.12044 18.93609,14.55883 18.93609,27.19481c0,15.93231 -12.53517,28.56829 -28.00403,28.56829z" data-paper-data="{&quot;origPos&quot;:null}" fill="#0093f7"/><g data-paper-data="{&quot;origPos&quot;:null}" fill="#007af4"><path d="M231.68311,232.93596l24.5369,25.27197c2.93374,3.02162 2.93374,7.96613 0,10.98785c-2.93374,3.02162 -7.73443,3.02162 -10.66822,0l-13.86868,-14.00947l-13.60196,14.00947c-2.93374,3.02162 -7.73443,3.02162 -10.66822,0c-2.93374,-3.02162 -2.93374,-7.96613 0,-10.9878z"/><path d="M231.68311,243.92375c4.26725,0 8.00115,3.57103 8.00115,7.96613v35.71036c0,4.3951 -3.73386,7.96613 -8.00115,7.96613c-4.26725,0 -8.00115,-3.57103 -8.00115,-7.96613v-35.71036c0,-4.3951 3.73386,-7.96613 8.00115,-7.96613z"/></g><g data-paper-data="{&quot;origPos&quot;:null}" fill="#ffffff"><path d="M231.68311,230.01422c3.12155,-0.10964 5.92207,3.25262 5.92207,3.25262l18.61483,19.17246c2.93374,3.02162 2.93374,7.96613 0,10.98785c-2.93374,3.02162 -7.73443,3.02162 -10.66822,0l-13.86868,-14.00947l-13.60196,14.00947c-2.93374,3.02162 -7.73443,3.02162 -10.66822,0c-2.93374,-3.02162 -2.93374,-7.96613 0,-10.98785l18.00122,-18.74422c0,0 3.14746,-3.57117 6.26896,-3.68086z" data-paper-data="{&quot;origPos&quot;:null}"/><path d="M231.68311,238.42988c4.26725,0 8.00115,3.57103 8.00115,7.96613v35.71036c0,4.3951 -3.73386,7.96613 -8.00115,7.96613c-4.26725,0 -8.00115,-3.57103 -8.00115,-7.96613v-35.71036c0,-4.66981 3.73386,-7.96613 8.00115,-7.96613z"/></g></g><path d="M348.94355,68.8736v-52.80417h69.16102v52.80417z" data-paper-data="{&quot;origPos&quot;:null}" fill="none" fill-rule="nonzero" stroke-width="0" stroke-linecap="butt" stroke-linejoin="miter"/><g fill="#ffffff" fill-rule="evenodd" stroke-width="1" stroke-linecap="round" stroke-linejoin="round"><path d="M130.37833,52.17435c0,1.11424 -0.75769,1.91651 -2.09479,2.80801c-2.00566,1.38167 -4.5907,2.22849 -7.75516,2.22849c-7.84431,0 -15.68862,-6.50729 -15.68862,-15.91156c0,-9.40426 7.84431,-15.91148 15.68862,-15.91148c3.16445,0 5.74952,0.84684 7.75516,2.22849c1.3371,0.89139 2.09479,1.69365 2.09479,2.8079c0,1.38167 -1.06967,2.18394 -2.22849,2.18394c-0.93597,0 -1.55995,-0.44571 -2.13936,-0.89139c-0.98054,-0.75769 -2.94163,-1.73823 -5.43754,-1.73823c-5.57125,0 -10.69678,4.81356 -10.69678,11.32077c0,6.50721 5.12554,11.32077 10.69678,11.32077c2.49592,0 4.457,-0.98054 5.43754,-1.73823c0.57941,-0.44571 1.2034,-0.89139 2.13936,-0.89139c1.15882,0 2.22849,0.80226 2.22849,2.18394z"/><path d="M157.20982,45.35513c0,7.97801 -6.64091,11.85569 -11.76683,11.85569c-5.12554,0 -11.7219,-3.87767 -11.7219,-11.85569c0,-7.93346 6.59636,-11.90018 11.7219,-11.90018c5.12592,0 11.76683,3.96672 11.76683,11.90018zM138.40091,45.35513c0,5.03641 3.61016,7.75516 7.04205,7.75516c3.47684,0 7.087,-2.71877 7.087,-7.75516c0,-5.08096 -3.61016,-7.79973 -7.087,-7.79973c-3.43188,0 -7.04205,2.71877 -7.04205,7.79973z"/><path d="M182.92669,43.7952v10.9643c0,1.29252 -1.02512,2.36222 -2.31764,2.36222c-1.29252,0 -2.36222,-1.06967 -2.36222,-2.36222v-10.9643c0,-4.457 -2.54049,-6.23978 -5.43754,-6.23978c-4.27872,0 -6.15066,3.83302 -6.41806,5.74952v11.45458c0,1.29252 -1.06967,2.36222 -2.36222,2.36222c-1.29252,0 -2.36222,-1.06967 -2.36222,-2.36222v-18.76403c0,-1.3371 1.06967,-2.40677 2.36222,-2.40677c1.29252,0 2.36222,1.06967 2.36222,2.40677v2.94163c0.22285,-1.55995 2.89705,-5.43754 7.97801,-5.43754c4.32327,0 8.55742,2.71877 8.55742,10.29565z"/><path d="M209.53492,43.7952v10.9643c0,1.29252 -1.02512,2.36222 -2.31764,2.36222c-1.29252,0 -2.36222,-1.06967 -2.36222,-2.36222v-10.9643c0,-4.457 -2.54049,-6.23978 -5.43754,-6.23978c-4.27872,0 -6.15066,3.83302 -6.41806,5.74952v11.45458c0,1.29252 -1.06967,2.36222 -2.36222,2.36222c-1.29252,0 -2.36222,-1.06967 -2.36222,-2.36222v-18.76403c0,-1.3371 1.06967,-2.40677 2.36222,-2.40677c1.29252,0 2.36222,1.06967 2.36222,2.40677v2.94163c0.22285,-1.55995 2.89705,-5.43754 7.97801,-5.43754c4.32327,0 8.55742,2.71877 8.55742,10.29565z"/><path d="M236.72259,44.55286c0,1.82736 -1.02512,2.54049 -2.94163,2.54049l-14.93093,-0.04458c0.49026,4.145 3.74386,6.19523 7.30948,6.19523c1.82736,0 3.07533,-0.44571 4.457,-1.29252c0.75769,-0.40113 1.24795,-0.71311 1.87193,-0.71311c1.02512,0 1.64908,0.71311 1.64908,1.69365c0,0.57941 -0.22285,1.2034 -1.2034,2.00574c-1.69365,1.38167 -4.145,2.18394 -6.95292,2.18394c-5.7941,0 -11.98931,-3.6994 -11.98931,-11.76656c0,-8.02259 6.46264,-11.90018 11.54363,-11.90018c5.08096,0 11.18704,4.01129 11.18704,11.09792zM218.85006,43.66147h13.28186c-0.40113,-4.23415 -3.61016,-6.10608 -6.59636,-6.10608c-2.94163,0 -6.28436,1.87193 -6.68549,6.10608z"/><path d="M260.74581,51.95149c0,1.06967 -0.75769,1.64908 -1.24795,2.13936c-1.91651,2.00574 -4.41243,3.03086 -7.48775,3.03086c-5.30382,0 -11.7219,-3.87767 -11.7219,-11.81114c0,-7.97801 6.41806,-11.8556 11.7219,-11.8556c3.07533,0 5.57125,1.02512 7.48775,3.03075c0.49026,0.49026 1.24795,1.06967 1.24795,2.13936c0,1.11424 -0.93597,1.82736 -1.91651,1.82736c-0.89139,0 -1.55995,-0.49026 -1.91651,-0.84684c-1.2034,-1.42625 -3.07533,-2.05021 -4.72441,-2.05021c-3.74386,0 -7.22032,2.6742 -7.22032,7.75516c0,5.03641 3.47646,7.71061 7.22032,7.71061c1.64908,0 3.52104,-0.62399 4.72441,-2.05021c0.35656,-0.35656 1.02512,-0.84684 1.91651,-0.84684c0.98054,0 1.91651,0.71311 1.91651,1.82736z"/><path d="M276.92469,54.49207c0,1.82736 -2.09479,2.62962 -4.5907,2.62962c-2.6742,0 -5.30382,-0.93597 -5.30382,-6.06161v-13.54926h-1.69365c-1.15882,0 -1.91651,-0.75769 -1.91651,-1.91651c0,-1.11424 0.75769,-1.87193 1.91651,-1.87193h1.69365v-3.47646c0,-1.24795 1.06967,-2.31764 2.31764,-2.31764c1.29252,0 2.36222,1.06967 2.36222,2.31764v3.47646h3.25361c1.15882,0 1.96108,0.75769 1.96108,1.87193c0,1.15882 -0.80226,1.91651 -1.96108,1.91651h-3.25361v13.59383c0,1.3371 0.53483,1.96108 1.55995,1.96108c0.57941,0 1.24795,-0.17828 1.73823,-0.22285c1.11424,-0.17828 1.91651,0.53483 1.91651,1.64919z"/><path d="M280.93598,26.99228c0,-1.29252 1.11424,-2.36222 2.40677,-2.36222c1.29252,0 2.40677,1.06967 2.40677,2.36222c0,1.29252 -1.11424,2.36222 -2.40677,2.36222c-1.29252,0 -2.40677,-1.06967 -2.40677,-2.36222zM285.70496,35.99544v18.76403c0,1.3371 -1.06967,2.40677 -2.36222,2.40677c-1.29252,0 -2.36222,-1.06967 -2.36222,-2.40677v-18.76403c0,-1.3371 1.06967,-2.40677 2.36222,-2.40677c1.29252,0 2.36222,1.06967 2.36222,2.40677z"/><path d="M312.3578,43.7952v10.9643c0,1.29252 -1.02512,2.36222 -2.31764,2.36222c-1.29252,0 -2.36222,-1.06967 -2.36222,-2.36222v-10.9643c0,-4.457 -2.54049,-6.23978 -5.43754,-6.23978c-4.27872,0 -6.15066,3.83302 -6.41806,5.74952v11.45458c0,1.29252 -1.06967,2.36222 -2.36222,2.36222c-1.29252,0 -2.36222,-1.06967 -2.36222,-2.36222v-18.76403c0,-1.3371 1.06967,-2.40677 2.36222,-2.40677c1.29252,0 2.36222,1.06967 2.36222,2.40677v2.94163c0.22285,-1.55995 2.89705,-5.43754 7.97801,-5.43754c4.32327,0 8.55742,2.71877 8.55742,10.29565z"/><path d="M339.7683,54.80405c0,0.1337 0,0.31198 -0.04458,0.44571v1.2034c0,7.30948 -6.59636,9.58254 -11.32077,9.58254c-2.85247,0 -5.08096,-0.80226 -6.10608,-1.3371c-0.93597,-0.40113 -1.4708,-1.11424 -1.4708,-2.00566c0,-1.06967 0.84684,-1.87193 1.87193,-1.87193c0.26743,0 0.62399,0.04458 1.11424,0.22285c0.98054,0.40113 2.62962,0.93597 4.67986,0.93597c3.87759,0 6.50721,-2.00566 6.50721,-5.52667v-4.05595c-0.31198,2.00566 -3.07533,4.81364 -7.30948,4.81364c-4.94726,0 -10.87506,-3.8331 -10.87506,-11.90026c0,-7.93346 5.97238,-11.8556 10.87506,-11.8556c3.29818,0 6.15066,1.69365 7.30948,4.27872v-1.78281c0,-1.29252 1.06967,-2.36222 2.36222,-2.36222c1.29252,0 2.40677,1.06967 2.40677,2.36222zM335.22217,45.31058c0,-5.57125 -3.74386,-7.79973 -6.77464,-7.79973c-3.25361,0 -6.90834,2.54049 -6.90834,7.79973c0,5.30382 3.65474,7.84431 6.90834,7.84431c3.03075,0 6.77464,-2.31764 6.77464,-7.84431z"/><path d="M344.2253,54.22456c0,-1.51538 1.24795,-2.76335 2.8079,-2.76335c1.4708,0 2.71877,1.24795 2.71877,2.76335c0,1.56003 -1.24795,2.80801 -2.71877,2.80801c-1.55995,0 -2.8079,-1.24795 -2.8079,-2.80801z"/><path d="M353.31755,54.22456c0,-1.51538 1.24795,-2.76335 2.8079,-2.76335c1.4708,0 2.71877,1.24795 2.71877,2.76335c0,1.56003 -1.24795,2.80801 -2.71877,2.80801c-1.55995,0 -2.8079,-1.24795 -2.8079,-2.80801z"/><path d="M362.40984,54.22456c0,-1.51538 1.24795,-2.76335 2.8079,-2.76335c1.4708,0 2.71877,1.24795 2.71877,2.76335c0,1.56003 -1.24795,2.80801 -2.71877,2.80801c-1.55995,0 -2.8079,-1.24795 -2.8079,-2.80801z"/></g></g></g></svg>