<svg version="1.1" xmlns="http://www.w3.org/2000/svg" xmlns:xlink="http://www.w3.org/1999/xlink" width="186.83035" height="49.74754" viewBox="0,0,186.83035,49.74754"><g transform="translate(-146.58482,-155.12623)"><g data-paper-data="{&quot;isPaintingLayer&quot;:true}" fill-rule="nonzero" stroke="none" stroke-width="1" stroke-linecap="butt" stroke-linejoin="miter" stroke-miterlimit="10" stroke-dasharray="" stroke-dashoffset="0" style="mix-blend-mode: normal"><path d="M333.14191,163.16683v36.63194c0,2.79859 -3.26648,5.075 -7.28676,5.075h-103.58272c-4.01608,0 -7.28537,-2.27641 -7.28537,-5.075v-36.63291c0,-2.79859 3.26929,-5.075 7.28537,-5.075h103.58272c4.02029,0 7.28676,2.2774 7.28676,5.07598z" fill="#58bd00"/><path d="M265.70737,163.16683v36.63194c0,2.79859 -3.26648,5.075 -7.28676,5.075h-103.58271c-4.01608,0 -7.28537,-2.27641 -7.28537,-5.075v-36.63291c0,-2.79859 3.26931,-5.075 7.28537,-5.075h103.58271c4.02027,0 7.28676,2.2774 7.28676,5.07598z" fill="#58bd00"/><path d="M333.41517,160.2022v36.63194c0,2.79859 -3.26648,5.075 -7.28676,5.075h-103.58273c-4.01608,0 -7.28537,-2.27641 -7.28537,-5.075v-36.63291c0,-2.79859 3.26929,-5.075 7.28537,-5.075h103.58273c4.02029,0 7.28676,2.2774 7.28676,5.07598z" fill="#77ff00"/><path d="M264.73967,160.2022v36.63194c0,2.79859 -3.26648,5.075 -7.28676,5.075h-103.58271c-4.01608,0 -7.28537,-2.27641 -7.28537,-5.075v-36.63291c0,-2.79859 3.26931,-5.075 7.28537,-5.075h103.58273c4.02029,0 7.28676,2.2774 7.28676,5.07598z" fill="#77ff00"/><text transform="translate(182.64263,186.29724) scale(0.52477,0.52477)" font-size="40" xml:space="preserve" fill="#ffffff" fill-rule="nonzero" stroke="none" stroke-width="1" stroke-linecap="butt" stroke-linejoin="miter" stroke-miterlimit="10" stroke-dasharray="" stroke-dashoffset="0" font-family="Sans Serif" font-weight="normal" text-anchor="start" style="mix-blend-mode: normal"><tspan x="0" dy="0">Multiplayer</tspan></text></g></g></svg>