<svg version="1.1" xmlns="http://www.w3.org/2000/svg" xmlns:xlink="http://www.w3.org/1999/xlink" width="89.03856" height="89.03856" viewBox="0,0,89.03856,89.03856"><g transform="translate(-195.48072,-135.48072)"><g data-paper-data="{&quot;isPaintingLayer&quot;:true}" fill-rule="nonzero" stroke-linecap="butt" stroke-linejoin="miter" stroke-miterlimit="10" stroke-dasharray="" stroke-dashoffset="0" style="mix-blend-mode: normal"><path d="M216.75563,179.97899c0.01161,-12.83751 10.42787,-23.23497 23.2654,-23.22336c12.83751,0.01161 23.23497,10.42787 23.22336,23.26541c-0.01161,12.83751 -10.42787,23.23497 -23.2654,23.22336c-12.83751,-0.01161 -23.23497,-10.42787 -23.22336,-23.2654z" data-paper-data="{&quot;index&quot;:null}" fill="#fe00ff" stroke="none" stroke-width="NaN"/><g data-paper-data="{&quot;index&quot;:null}" stroke-width="0.5"><path d="M229.59444,195.43048c-3.4353,0.0031 -6.22272,-2.77927 -6.22582,-6.21457c-0.0031,-3.4353 2.77927,-6.22273 6.21458,-6.22583c3.43531,-0.0031 6.22273,2.77927 6.22582,6.21458c0.0031,3.4353 -2.77927,6.22273 -6.21458,6.22583z" data-paper-data="{&quot;index&quot;:null}" fill="#ffffff" stroke="#000000"/><path d="M231.5337,190.37479c-1.28825,0.00116 -2.33353,-1.0422 -2.33468,-2.33046c-0.00116,-1.28825 1.0422,-2.33355 2.33045,-2.3347c1.28825,-0.00116 2.33353,1.04223 2.33468,2.33048c0.00116,1.28825 -1.0422,2.33353 -2.33045,2.33468z" data-paper-data="{&quot;index&quot;:null}" fill="#000000" stroke="none"/></g><g data-paper-data="{&quot;index&quot;:null}" stroke-width="0.5"><path d="M236.28981,169.02281c-0.0031,3.4353 -2.79053,6.21767 -6.22583,6.21457c-3.43531,-0.0031 -6.21768,-2.79052 -6.21455,-6.22583c0.0031,-3.4353 2.79052,-6.21767 6.22582,-6.21457c3.4353,0.0031 6.21768,2.79052 6.21456,6.22583z" data-paper-data="{&quot;index&quot;:null}" fill="#ffffff" stroke="#000000"/><path d="M234.34492,170.18733c-0.00116,1.28825 -1.04644,2.33166 -2.33469,2.33048c-1.28825,-0.00116 -2.33161,-1.04646 -2.33046,-2.33471c0.00116,-1.28825 1.04644,-2.3316 2.33469,-2.33045c1.28825,0.00116 2.33161,1.04643 2.33046,2.33468z" data-paper-data="{&quot;index&quot;:null}" fill="#000000" stroke="none"/></g><path d="M242.87456,179.97113c0,-6.28268 -0.05738,-12.46788 3.91329,-12.46788c3.97064,0 10.46573,6.1852 10.46573,12.46788c0,6.28268 -7.76918,13.01391 -11.73982,13.01391c-3.97064,0 -2.6392,-6.73123 -2.6392,-13.01391z" fill="#ff0000" stroke="#000000" stroke-width="0.5"/><path d="M195.48074,179.95974c0.02224,-24.58729 19.9722,-44.50123 44.55953,-44.47899c24.58729,0.02223 44.50123,19.9722 44.479,44.55953c-0.02224,24.58729 -19.97219,44.50123 -44.55952,44.479c-24.58729,-0.02223 -44.50123,-19.97219 -44.479,-44.55953z" data-paper-data="{&quot;index&quot;:null}" fill="#fe00ff" stroke="none" stroke-width="NaN"/><path d="M220.07053,209.55351c-6.57954,0.00594 -11.9182,-5.32305 -11.92414,-11.90259c-0.00594,-6.57954 5.32306,-11.91822 11.9026,-11.92416c6.57954,-0.00594 11.91819,5.32305 11.92413,11.90259c0.00594,6.57954 -5.32305,11.91822 -11.90259,11.92416z" data-paper-data="{&quot;index&quot;:null}" fill="#ffffff" stroke="#000000" stroke-width="2"/><path d="M223.78474,199.87051c-2.46736,0.00221 -4.46934,-1.99608 -4.47155,-4.46345c-0.00221,-2.46736 1.99609,-4.46939 4.46345,-4.4716c2.46736,-0.00221 4.46934,1.99616 4.47155,4.4635c0.00221,2.46736 -1.99609,4.46934 -4.46345,4.47155z" data-paper-data="{&quot;index&quot;:null}" fill="#000000" stroke="none" stroke-width="0.5"/><path d="M232.89395,158.9757c-0.00594,6.57954 -5.34459,11.90854 -11.92413,11.90259c-6.57954,-0.00594 -11.90853,-5.34459 -11.90255,-11.92414c0.00594,-6.57954 5.34459,-11.90853 11.92413,-11.90259c6.57954,0.00594 11.90853,5.34459 11.90255,11.92413z" data-paper-data="{&quot;index&quot;:null}" fill="#ffffff" stroke="#000000" stroke-width="2"/><path d="M229.16897,161.20605c-0.00221,2.46736 -2.00421,4.46576 -4.47155,4.46349c-2.46736,-0.00221 -4.46565,-2.00423 -4.46344,-4.4716c0.00221,-2.46736 2.00421,-4.46566 4.47154,-4.46345c2.46736,0.00221 4.46566,2.00419 4.46345,4.47155z" data-paper-data="{&quot;index&quot;:null}" fill="#000000" stroke="none" stroke-width="0.5"/><path d="M245.50556,179.94469c0,-12.03303 -0.1099,-23.87934 7.49499,-23.87934c7.60485,0 20.04469,11.84634 20.04469,23.87935c0,12.03303 -14.88006,24.92516 -22.48491,24.92516c-7.60485,0 -5.05477,-12.89213 -5.05477,-24.92516z" fill="#ff0000" stroke="#000000" stroke-width="2"/></g></g></svg>