<svg version="1.1" xmlns="http://www.w3.org/2000/svg" xmlns:xlink="http://www.w3.org/1999/xlink" width="720" height="482.46246" viewBox="0,0,720,482.46246"><defs><radialGradient cx="240" cy="180" r="43" gradientUnits="userSpaceOnUse" id="color-1"><stop offset="0" stop-color="#c7933e"/><stop offset="1" stop-color="#9f5a25"/></radialGradient></defs><g transform="translate(120,39.96996)"><g data-paper-data="{&quot;isPaintingLayer&quot;:true}" fill-rule="nonzero" stroke="none" stroke-linecap="butt" stroke-linejoin="miter" stroke-miterlimit="10" stroke-dasharray="" stroke-dashoffset="0" style="mix-blend-mode: normal"><path d="M-120,442.4925v-482.46246h720v482.46246z" fill="none" stroke-width="0"/><g><path d="M197,180c0,-23.74824 19.25176,-43 43,-43c23.74824,0 43,19.25176 43,43c0,23.74824 -19.25176,43 -43,43c-23.74824,0 -43,-19.25176 -43,-43z" fill="url(#color-1)" stroke-width="0"/><path d="M260.88405,171.18551c-1.07027,-2.172 -1.42944,-4.42454 -0.0197,-6.26824c1.21992,-1.59545 4.02902,-1.15349 5.98478,-0.69669c2.60223,0.60779 4.90442,4.52003 4.99277,7.76782c0.36868,1.29271 0.51483,2.90765 -0.27958,3.96391c-0.65774,0.87454 -1.68021,1.32519 -2.74045,1.73193c-0.20039,0.12025 -0.41246,0.2316 -0.63645,0.33318c-0.19235,0.08723 -0.38723,0.13046 -0.58342,0.13757c-0.30113,0.12411 -0.59492,0.25676 -0.87345,0.40714c-0.22314,-0.22308 -0.49017,-0.48908 -0.7874,-0.79163c-1.86374,-0.11859 -3.27703,-1.52624 -4.12069,-3.3416c-0.15613,-0.25786 -0.27531,-0.53229 -0.33758,-0.83227c-0.06783,-0.1935 -0.12967,-0.38981 -0.18541,-0.58804c-0.21848,-0.56875 -0.36083,-1.16799 -0.41009,-1.78082c-0.00113,-0.01405 -0.00223,-0.02814 -0.00333,-0.04226z" fill="#693b22" stroke-width="0.5"/><path d="M245.85437,202.34375h0.47975l-0.1877,-1.10857c1.10011,-0.7736 2.20023,-1.5472 3.30034,-2.32079c0,0 1.92936,-1.15761 3.08697,0.77175c0.79819,1.33032 0.12874,2.29373 -0.36391,2.76374c0.11874,0.27399 0.18455,0.57625 0.18455,0.89388c0,0.74548 -0.36255,1.40628 -0.92095,1.81571l-1.96087,1.47065c-0.37912,0.2908 -0.85346,0.46364 -1.36818,0.46364c-1.24264,0 -2.25,-1.00736 -2.25,-2.25z" fill="#693b22" stroke-width="0.5"/><path d="M241.85437,175.84375h-0.59499l0.17029,1.3156c-0.20167,0.04475 -0.40903,0.10818 -0.62042,0.1849l-0.55393,1.6618c-0.28275,0.91941 -1.1388,1.58771 -2.15094,1.58771c-0.89342,0 -1.66521,-0.52071 -2.02845,-1.2752l-0.15694,-0.30938c-0.28393,-0.06877 -0.54501,-0.21274 -0.77627,-0.45485c-1.14672,-1.2005 -1.06118,-3.57353 -0.19369,-5.2623c0.14166,-1.26576 0.35192,-2.5017 1.05047,-3.52524c0.72037,-1.05552 2.44242,-0.75288 3.66362,-1.12933c0,0 2.2063,-0.44126 2.64756,1.76504c0.07637,0.38184 0.07344,0.71082 0.01636,0.9938c0.32909,0.39125 0.52733,0.8962 0.52733,1.44746c0,0.7801 -0.39701,1.46749 -1,1.87112z" fill="#693b22" stroke-width="0.5"/><path d="M241.25768,145.60033c0.03951,0.01585 0.07903,0.03171 0.11854,0.04756l0.00414,-0.03732l4.44549,0.49394c1.13868,0.11126 2.02851,1.07133 2.02851,2.23924c0,1.10599 -0.79799,2.0256 -1.84961,2.21448l-0.72361,0.14472c-0.00286,0.12077 -0.01523,0.23918 -0.03639,0.35452c0.06951,0.22555 0.10962,0.48586 0.10962,0.78627c0,2.25 -2.25,2.25 -2.25,2.25l-2.59099,-0.65901l-1.16968,-1.16968l-1.10323,-0.20059c-0.99488,-0.16178 -1.77079,-0.976 -1.87435,-1.98926c-0.57879,-0.07324 -2.01176,-0.43586 -2.01176,-2.23146c0,-2.25 2.25,-2.25 2.25,-2.25c0.48576,0.00295 0.9713,0.02605 1.45596,0.06622c0.17422,-0.04326 0.35645,-0.06622 0.54404,-0.06622c0.00106,0 0.00213,0 0.00319,0l2.52705,0.00306l-0.00005,0.03613z" fill="#693b22" stroke-width="0.5"/><path d="M252.85629,181.97163c1.87212,-1.24807 3.12019,0.62404 3.12019,0.62404l-0.2098,0.2638l2.49998,0.83333c0.9194,0.28276 1.58771,1.13881 1.58771,2.15095c0,1.24264 -1.00736,2.25 -2.25,2.25c-0.16715,0 -0.33005,-0.01823 -0.48682,-0.05281l-2.45444,-0.49089l-0.46468,-0.46991l-0.30557,-0.10186c0,0 -1.40095,-0.46698 -1.55461,-1.77927l-0.106,-0.10719c0,0 -1.24807,-1.87212 0.62404,-3.12019z" fill="#693b22" stroke-width="0.5"/><path d="M219.67067,197.6914c1.69673,-1.26324 3.77522,-1.50359 5.26701,-0.71149l0.9986,-0.28531c0.21107,-0.06554 0.43546,-0.10085 0.66809,-0.10085c1.24264,0 2.25,1.00736 2.25,2.25c0,0.31343 -0.06409,0.6119 -0.17988,0.883l-0.98105,2.45263l-0.31507,-0.12602l-0.16373,0.86187c-0.31185,0.13852 -0.61815,0.3002 -0.9221,0.47171c-1.81924,3.4218 -7.37787,3.44239 -9.91562,0.89849c-1.27032,-1.27339 -1.00027,-3.90831 0.01065,-5.39602c0.48171,-0.70891 1.80784,-1.0444 3.2831,-1.19801z" fill="#693b22" stroke-width="0.5"/><path d="M213.25069,168.9156c-0.74267,-2.07039 -0.31079,-4.36381 2.33268,-6.07686c1.822,-1.18071 7.69437,0.89296 8.16866,3.33414c0.05328,0.2742 0.08174,0.55525 0.08742,0.83958c2.00522,1.06239 2.88207,2.95397 -0.3086,7.07131c-0.78788,1.01671 -2.4036,0.56933 -3.81582,0.1278c-0.33389,0.00194 -0.69171,-0.12388 -1.05795,-0.32182c-1.14784,-0.32223 -2.28899,-0.9868 -3.24731,-1.85724c-0.81107,-0.34353 -1.44588,-0.84294 -1.7168,-1.50175c-0.19325,-0.46993 -0.34803,-1.0286 -0.44226,-1.61516z" fill="#693b22" stroke-width="0.5"/><path d="M271.35437,195.84375c0,-1.02847 0.4701,-1.58683 0.98055,-1.88996c0.41197,-0.52371 1.05143,-0.86004 1.76945,-0.86004c1.24264,0 2.25,1.00736 2.25,2.25v0.99694l0.33907,0.3387l-0.33907,0.84768v0.31669c0,0 0,1.33458 -1.02783,1.94806c-0.41273,0.49036 -1.03107,0.80194 -1.72217,0.80194c-1.24264,0 -2.25,-1.00736 -2.25,-2.25c0,-0.14062 0.0129,-0.27823 0.03758,-0.41171l0.1731,-1.03859c-0.13033,-0.27967 -0.21068,-0.62452 -0.21068,-1.0497z" fill="#693b22" stroke-width="0.5"/><path d="M271.42115,189.6955l-0.05132,-0.01711c-0.03481,-0.0116 -0.06909,-0.02282 -0.1029,-0.03365c-0.33493,0.02934 -0.64656,0.06358 -0.76672,0.06358c0,0 -0.25,0 -0.25,-0.25c0,-0.0156 0.00097,-0.03023 0.0028,-0.04394c-0.12191,-0.01453 -0.24662,-0.02467 -0.37792,-0.03102c-0.25859,0.9389 -0.50353,1.86084 -0.76512,2.75139c-0.37019,1.26026 -0.72301,2.93178 -1.72264,3.87175c0.00305,0.00603 0.00601,0.01232 0.00886,0.01888c0.09961,0.2293 -0.12969,0.32891 -0.12969,0.32891l-0.5715,0.24826c-0.03183,0.01469 -0.06728,0.02289 -0.10465,0.02289c-0.13807,0 -0.25,-0.11193 -0.25,-0.25c0,-0.07312 0.03139,-0.1389 0.08143,-0.18462l0.36737,-0.33785l0.00334,0.00363l0.00892,-0.01419c1.12038,-0.76719 1.46565,-2.61212 1.82884,-3.84857c0.25161,-0.85658 0.48935,-1.746 0.73915,-2.6531c-0.0605,-0.03219 -0.11917,-0.09463 -0.11917,-0.21574c0,-0.23753 0.22568,-0.24938 0.2482,-0.24997c0.46538,-1.6679 0.98577,-3.38623 1.71936,-5.06249c-0.77136,0.80741 -1.54398,1.83092 -2.04308,2.32744c-0.52294,0.4925 -0.12812,0.7008 -0.44053,1.2832c-0.32541,0.60663 -1.21162,0.76774 -1.69075,1.18475l-0.04764,0.04063c0,0 -0.19023,0.16222 -0.35244,-0.02801c-0.16222,-0.19023 0.02801,-0.35244 0.02801,-0.35244l0.04764,-0.04063c1.08835,-0.91251 1.21652,-1.52362 2.10308,-2.44196c0.86318,-0.85871 2.52331,-3.22948 3.68814,-3.55117c1.75295,-0.48411 3.21505,0.59934 4.55571,-1.63186c0.28421,-0.46265 0.5767,-0.91648 0.87562,-1.36348c-0.03386,-0.05853 -0.05004,-0.14093 0.01098,-0.24263c0.0691,-0.11517 0.16296,-0.13134 0.23502,-0.12164c1.30888,-1.91986 2.72921,-3.72176 4.11268,-5.5664c0,0 0.15,-0.2 0.35,-0.05c0.2,0.15 0.05,0.35 0.05,0.35c-1.36811,1.82414 -2.77201,3.60449 -4.06766,5.50094c1.27862,0.73798 2.12286,1.02321 3.70868,1.07301l0.49879,0.01566c0.13489,0.00365 0.24311,0.11414 0.24311,0.24991c0,0.09921 -0.05779,0.18493 -0.14155,0.22532l-0.44099,0.22403l-0.04687,-0.09226c-0.5991,0.29281 -1.21119,0.36602 -1.80649,0.75475c-1.09238,0.71332 -2.14949,3.80525 -2.78832,5.07521l-0.46586,0.04931c0,0 -0.22587,-0.10715 -0.11872,-0.33303c0.06164,-0.12993 0.16257,-0.14966 0.23718,-0.14298c0.82624,-1.7162 1.97281,-4.87717 3.8926,-5.59124c-1.13967,-0.13399 -1.9656,-0.46496 -3.05207,-1.09262c-0.29354,0.43925 -0.58082,0.88523 -0.86012,1.33987c-1.45118,2.3197 -3.02377,1.2686 -4.84179,1.85015c-0.34904,0.11165 -0.74973,0.42382 -1.16005,0.82284c0.03317,0.00008 0.07034,0.00765 0.11166,0.02601c0.22845,0.10153 0.12692,0.32999 0.12692,0.32999c-0.73719,1.65868 -1.25586,3.3501 -1.7169,4.99758c0.46536,0.03112 0.87236,0.11064 1.34928,0.25938c0.52088,-0.03479 1.09179,-0.046 1.29302,0.11112c0.53533,0.41797 0.06375,1.93579 0.85839,2.20782c1.75453,0.60062 2.31823,-2.41139 3.49889,-1.80434c0.40771,0.28943 0.81542,0.57887 1.22313,0.8683l0.2988,0.0108c0,0 0.24781,0.03305 0.21475,0.28086c-0.03305,0.24781 -0.28086,0.21475 -0.28086,0.21475l-0.52212,-0.0987c-0.40771,-0.28943 -0.81542,-0.57887 -1.22313,-0.8683c-0.29501,-0.40451 -0.66972,1.02407 -1.21084,1.3733c-0.27966,0.18049 -1.85242,0.60185 -2.16055,0.49638c-1.06849,-0.36577 -0.46217,-1.8636 -1.00416,-2.28676c-0.07277,-0.05682 -0.33664,-0.05974 -0.64549,-0.04277c-0.09841,0.14333 -0.27971,0.08289 -0.27971,0.08289z" fill="#683a21" stroke-width="0.5"/><path d="M246.00721,183.0741c-0.23035,-0.09716 -0.13318,-0.32751 -0.13318,-0.32751l0.04071,-0.09652c0.19059,-0.40197 1.03539,-0.23928 1.1556,-0.66759c0.16103,-0.57372 -0.71178,-1.04666 -0.70565,-1.64252c0.2219,-2.04298 3.0594,-0.69883 4.03266,-2.13637c0.38392,-0.56706 -0.04298,-3.11062 -0.04298,-3.85984c0,0 0,-0.25 0.25,-0.25c0.25,0 0.25,0.25 0.25,0.25c0,0.88864 0.44636,3.41738 -0.04298,4.14016c-0.70569,1.04233 -4.16449,0.70126 -3.94672,1.8612c-0.00652,0.63363 0.85831,1.1624 0.68707,1.77249c-0.14363,0.51171 -0.96547,0.112 -1.17631,0.7268l-0.04071,0.09652c0,0 -0.09716,0.23035 -0.32751,0.13318z" fill="#683a21" stroke-width="0.5"/><path d="M244.87064,165.93247c-0.08872,-0.23373 0.145,-0.32245 0.145,-0.32245l0.25476,-0.09671c0.99821,-0.37893 3.19617,-1.59906 3.77199,-2.47374c-0.85632,0.00343 -1.88564,-0.0288 -2.07338,-0.29361c-0.35435,-0.49982 0.67072,-1.23104 -0.24497,-1.67044c-0.91064,-0.43697 -2.31755,0.61192 -3.09083,0.90862c-0.63431,0.24338 -3.82812,1.02404 -4.16614,-0.17823c-0.11226,-0.39926 3.3062,-3.48818 2.6373,-3.21216c0,0 -0.25,0 -0.25,-0.25c0,-0.25 0.25,-0.25 0.25,-0.25c2.5305,0.421 -2.29665,3.07645 -2.15596,3.57683c0.11633,0.41374 0.85823,0.08722 1.27487,0.19271c0.14596,0.03696 0.71239,0.19949 0.88923,0.17668c0.41771,-0.05388 0.94702,-0.37125 1.3416,-0.52264c0.9509,-0.36485 2.37422,-1.41868 3.48469,-0.89334c0.54172,0.25627 0.58783,0.6445 0.53179,1.00562c0.06529,-0.03586 0.13379,-0.03586 0.13379,-0.03586c1.58784,0 2.11835,0.38905 2.04383,0.93896c0.25879,-0.00099 0.45778,-0.00098 0.53446,0.00374l0.49725,0.03066c0.09256,0.00495 0.17174,0.06025 0.21067,0.139c0.01793,-0.02517 0.0431,-0.0496 0.07766,-0.07204c0.20968,-0.13613 0.34582,0.07355 0.34582,0.07355l0.06319,0.09733c0.39172,0.90244 -0.21768,0.97449 -0.91909,0.90643l-0.48204,0.04893c-0.00939,0.00107 -0.01895,0.00162 -0.02863,0.00162c-0.13807,0 -0.25,-0.11193 -0.25,-0.25c0,-0.07067 0.02932,-0.13449 0.07646,-0.17996l0.30953,-0.29934c-0.14338,-0.00395 -0.36908,-0.00018 -0.63537,0.00322c-0.6768,1.10325 -2.84763,2.50738 -4.00026,2.94493l-0.25476,0.09671c0,0 -0.23373,0.08872 -0.32245,-0.145zM247.60437,162.09375c0,0 -0.14202,0 -0.21198,-0.10705c-0.04952,0.20102 -0.08613,0.37043 -0.01548,0.47008c0.05329,0.07517 0.99826,0.08022 1.78374,0.07788c-0.1013,-0.26858 -0.55974,-0.44092 -1.55628,-0.44092zM250.95787,163.07721l-0.06319,-0.09733c0,0 -0.00746,-0.01149 -0.01619,-0.03083c-0.0109,0.01744 -0.02389,0.03344 -0.03862,0.04765l-0.26858,0.25974c0.37853,-0.0523 0.73156,0.05638 0.38659,-0.17923z" fill="#683a21" stroke-width="0.5"/><path d="M213.92079,158.51345c-0.1697,-0.18358 0.01389,-0.35328 0.01389,-0.35328l0.17741,-0.16399c0.53092,-0.46774 0.82994,-0.42877 1.51508,-0.48077c0.55167,-0.04187 1.31281,-0.14486 2.17272,-0.24782c-0.03784,-0.09724 -0.07077,-0.19651 -0.0998,-0.29712l-0.03772,0.01761l-0.20933,-0.44825c-0.01646,-0.03334 -0.02572,-0.07087 -0.02572,-0.11057c0,-0.13807 0.11193,-0.25 0.25,-0.25c0.07675,0 0.14542,0.03459 0.19128,0.08902l0.32341,0.37912c0.14754,0.17335 0.28085,0.34911 0.40731,0.52898c2.17959,-0.23349 4.73539,-0.36111 6.14271,0.45953c-0.73634,-0.9211 -1.48557,-1.69824 -2.39923,-2.4928c-1.11306,-0.96797 -0.50652,-1.4463 0.82657,-1.53521c2.10386,-0.14032 4.31062,0.98961 6.435,0.98584c0,0 0.25,0 0.25,0.25c0,0.25 -0.25,0.25 -0.25,0.25c-1.95599,-0.0032 -4.03792,-0.57214 -5.96627,-0.9076c-0.17445,-0.03035 -1.62899,0.10598 -1.64126,0.16391c-0.0547,0.25826 0.47486,0.24253 0.67406,0.41577c0.9737,0.84677 1.77154,1.68137 2.55646,2.67734c0.3769,-0.16832 0.65105,-0.31271 0.74937,-0.4067c0.67173,-0.64208 0.48794,-1.46386 1.46784,-2.11091c0.46619,0.39006 1.97006,2.43608 2.47042,2.4963c0.06782,0.00816 2.27445,-1.37081 2.27715,-1.38323c0.06343,-0.2913 -1.05713,-1.45183 -1.08777,-1.44488c0,0 -0.25,0 -0.25,-0.25c0,-0.25 0.25,-0.25 0.25,-0.25c0.33067,0.03578 1.7202,1.39054 1.57633,2.05127c-0.06199,0.28467 -1.13406,0.7912 -1.3884,0.94854c-1.73174,1.07127 -2.7751,-0.00413 -3.87598,-1.66879c-0.45019,0.53731 -0.64052,1.5396 -1.09409,1.97315c-0.12041,0.11509 -0.40235,0.27309 -0.78174,0.45077l0.1914,0.25026c0.03312,0.04241 0.05286,0.09578 0.05286,0.15375c0,0.13807 -0.11193,0.25 -0.25,0.25c-0.02586,0 -0.05081,-0.00393 -0.07428,-0.01122l-0.47518,-0.13586l0.00133,-0.00466c-0.18334,-0.0114 -0.3655,-0.02343 -0.54662,-0.03595c-0.00337,0.00132 -0.00674,0.00264 -0.01011,0.00396c1.09099,1.13765 2.31201,2.87825 3.56973,3.48147l-0.13115,-0.37396c0,0 -0.08273,-0.23591 0.15318,-0.31865c0.23591,-0.08273 0.31865,0.15318 0.31865,0.15318l0.32124,0.91601c0.01035,0.02743 0.01601,0.05717 0.01601,0.08822c0,0.13807 -0.11193,0.25 -0.25,0.25c-0.03805,0 -0.07412,-0.0085 -0.10641,-0.02371l-0.45202,-0.20067c-1.42653,-0.63329 -2.74471,-2.57353 -3.94151,-3.77034c0,0 -0.00275,-0.00275 -0.00721,-0.0079c-1.42143,0.5255 -3.01398,0.99595 -3.46447,0.93544c-0.50329,-0.06759 -1.35979,-0.94275 -1.77148,-1.24414c-0.05838,-0.08948 -0.11579,-0.17816 -0.17312,-0.266c-0.9203,-0.01673 -1.86165,0.00132 -2.84631,0.07605c-0.5549,0.04211 -0.81241,-0.04696 -1.21352,0.34937l-0.17741,0.16399c0,0 -0.18358,0.1697 -0.35328,-0.01389zM220.52246,158.95252c0.30928,0.04154 1.50386,-0.30787 2.70044,-0.72811c-1.36507,-0.10682 -2.69105,-0.22069 -4.05204,-0.26872c0.37164,0.30604 1.01713,0.95191 1.3516,0.99683z" fill="#683a21" stroke-width="0.5"/><path d="M259.38503,156.96371c-0.11996,-0.21934 0.09939,-0.3393 0.09939,-0.3393l0.09443,-0.05165c0.23679,-0.1295 0.48634,-0.2495 0.75092,-0.30274c-1.45588,-0.86921 -1.01212,-2.31071 -1.2736,-3.58872c0.34801,1.28556 1.00472,2.54886 1.7664,3.67323c-0.32177,0.23743 -0.65297,0.46504 -1.00381,0.65691l-0.09443,0.05165c0,0 -0.21934,0.11996 -0.3393,-0.09939zM258.98441,152.39707c-0.03899,-0.12757 -0.08736,-0.25287 -0.14789,-0.3751c-0.7756,0.27206 -1.55651,0.55611 -2.17539,0.45823l0.08335,0.12392c0.02801,0.04039 0.04443,0.08943 0.04443,0.14231c0,0.13807 -0.11193,0.25 -0.25,0.25c-0.03967,0 -0.07718,-0.00924 -0.1105,-0.02568l-0.44831,-0.20919l0.02177,-0.04665c-0.46828,-0.15756 -0.89999,-0.36314 -1.38107,-0.58762l0.22458,0.2829c0,0 -0.06645,0.24101 -0.30745,0.17456c-0.24101,-0.06645 -0.17456,-0.30745 -0.17456,-0.30745l0.46886,-0.60311c0.39547,0.18453 0.90595,0.32434 1.2527,0.60623l-0.05016,-0.05766c0.74797,-0.19462 1.46599,-0.46548 2.19024,-0.69311c-0.13709,-0.06817 -0.25638,-0.14839 -0.30163,-0.28465c-0.11614,-0.3497 0.11101,-1.07857 0.38208,-1.74967c-0.79509,-0.31315 -1.2501,-0.68558 -1.65621,-1.80258c-0.09242,-0.2542 -0.2142,-2.58581 -0.84013,-2.13013c-0.07952,0.05789 -0.01165,1.4489 -0.38342,1.822l-0.14997,0.14117c0,0 -0.18204,0.17135 -0.35339,-0.01069c-0.17135,-0.18204 0.01069,-0.35339 0.01069,-0.35339l0.14997,-0.14117c0.53671,-0.45942 -0.04682,-1.51368 0.43184,-1.86214c0.10665,-0.07764 1.21307,0.21335 1.30267,0.32558c0.60209,0.75416 -0.14702,2.53846 0.82727,3.29233c0.18996,0.14698 0.49813,0.25064 0.822,0.33635c0.16367,-0.37365 0.32228,-0.69732 0.41398,-0.88072c0,0 0.1118,-0.22361 0.33541,-0.1118c0.22361,0.1118 0.1118,0.33541 0.1118,0.33541c-0.12934,0.25868 -0.23335,0.52247 -0.31411,0.79016c0.16888,0.04022 0.32507,0.07937 0.4518,0.12161c1.58111,0.52704 3.16409,1.04879 4.74342,1.58114c0.21875,0.07374 1.5721,0.36491 1.71851,0.21851c0.2357,-0.2357 -0.2357,-0.7643 0,-1c0.09115,-0.09115 1.00172,-0.07322 1.17678,-0.07322c0,0 0.25,0 0.25,0.25c0,0.25 -0.25,0.25 -0.25,0.25c-0.27549,0 -0.62842,-0.26802 -0.82322,-0.07322c-0.2357,0.2357 0.2357,0.7643 0,1c-1.03858,1.03858 -5.80978,-1.29092 -6.97359,-1.67886c-0.14416,-0.04805 -0.28036,-0.09276 -0.40929,-0.13576c-0.10943,0.54064 -0.13157,1.09403 -0.0829,1.65073c0.58018,-0.15529 1.17047,-0.26289 1.78901,-0.26289c0,0 0.25,0 0.25,0.25c0,0.25 -0.25,0.25 -0.25,0.25c-0.50999,0 -1.10326,0.19577 -1.70251,0.40533c0.02394,0.13272 0.05153,0.26543 0.08255,0.39799zM259.05617,152.68131c-0.02562,-0.09464 -0.04957,-0.1894 -0.07176,-0.28424c0.02861,0.09362 0.05216,0.18847 0.07176,0.28424z" fill="#683a21" stroke-width="0.5"/><path d="M233.51904,204.07874c-0.23499,-0.08533 -0.14966,-0.32032 -0.14966,-0.32032c0.22754,-0.62663 0.58701,-1.61659 0.81455,-2.24323c0.24299,-0.66917 0.43902,-1.88873 0.89808,-2.42681c0.14503,-0.16999 0.39562,-0.24428 0.66013,-0.29781l-0.17638,-0.17205l0.01991,-0.02041c-1.05863,-0.75817 -1.95372,-1.63866 -3.15331,-2.29131l-0.43473,-0.23652c-0.0802,-0.04163 -0.13499,-0.12543 -0.13499,-0.22203c0,-0.13807 0.11193,-0.25 0.25,-0.25c0.03808,0 0.07416,0.00851 0.10646,0.02374l0.45197,0.20079l-0.01599,0.03599l0.01623,0.00883c0.06197,0.03372 0.1271,0.06839 0.19486,0.10407c0.79265,0.22929 1.88291,0.60187 2.78046,1.01633c-0.02431,-0.2188 -0.04862,-0.4376 -0.07293,-0.6564c-0.33368,-3.00312 -0.71933,-5.96469 -0.71933,-8.98785c0,0 0,-0.25 0.25,-0.25c0.25,0 0.25,0.25 0.25,0.25c0,3.00449 0.38464,5.94792 0.71628,8.93264c0.03614,0.32524 0.07228,0.65048 0.10841,0.97572c0.65839,0.35374 1.11478,0.72165 1.09143,1.04629c-0.03679,0.51163 -1.52121,0.77824 -1.8081,1.11451c-0.40883,0.4792 -0.58927,1.66925 -0.80848,2.27294c-0.22754,0.62663 -0.45508,1.25327 -0.68262,1.8799l-0.13193,0.36333c0,0 -0.08533,0.23499 -0.32032,0.14966zM236.77178,198.26254c0.00962,-0.1338 -0.1989,-0.28572 -0.53043,-0.4498c0.01672,0.15047 0.03344,0.30095 0.05016,0.45142l0.04504,0.40538c0.23969,-0.06834 0.41864,-0.17631 0.43523,-0.407zM235.14553,197.35551c0.24841,0.21225 0.46298,0.44172 0.61859,0.6899c-0.01731,-0.1558 -0.03462,-0.3116 -0.05193,-0.46741c-0.17742,-0.07267 -0.36862,-0.14698 -0.56666,-0.22249z" fill="#683a21" stroke-width="0.5"/><path d="M204.85691,186.8793c-0.03555,-0.24746 0.21191,-0.28301 0.21191,-0.28301l0.30233,-0.04343c1.14364,-0.1643 2.37934,-0.49525 3.52943,-0.37292c2.31931,0.25547 4.63861,0.51095 6.95792,0.76642c0.64073,0.07058 1.63697,0.01356 2.32278,0.25207c-1.24721,-1.40641 -2.62615,-3.51341 -4.18467,-4.60469h-0.39224c-0.13807,0 -0.25,-0.11193 -0.25,-0.25c0,-0.13807 0.11193,-0.25 0.25,-0.25c2.66667,0 5.83333,0 8.5,0c0,0 0.25,0 0.25,0.25c0,0.25 -0.25,0.25 -0.25,0.25c-2.49621,0 -4.99242,0 -7.48863,0c1.39931,0.88919 3.29766,3.56828 4.04599,4.39144l0.33575,0.36933c0.04074,0.04448 0.0656,0.10374 0.0656,0.16881c0,0.13807 -0.11193,0.25 -0.25,0.25c-0.01048,0 -0.02082,-0.00065 -0.03096,-0.0019l-0.49341,-0.05435l0.00251,-0.02281c-3.04848,0.14827 -6.45853,-0.68833 -9.4454,-1.01734c-1.09887,-0.12576 -2.30962,0.21367 -3.40358,0.37084l-0.30233,0.04343c0,0 -0.24746,0.03555 -0.28301,-0.21191z" fill="#683a21" stroke-width="0.5"/><path d="M259.95017,213.04053c-0.19678,-0.1542 -0.04258,-0.35098 -0.04258,-0.35098c0.2056,-0.26237 0.69742,-0.89001 0.90302,-1.15238c0.2547,-0.32503 1.45533,-1.44971 1.43861,-1.84144c-0.01389,-0.32547 -0.75496,-0.83603 -0.83652,-1.18947c-0.15455,-0.66972 0.55604,-1.25019 0.23071,-1.88519c-0.49007,-0.95655 -1.73208,-1.31393 -1.78905,-2.27732c0,0 0,-0.25 0.25,-0.25c0.25,0 0.25,0.25 0.25,0.25c-0.05492,0.54217 1.39956,1.31609 1.73981,2.06096c0.36574,0.80068 -0.37281,1.27257 -0.19507,1.98576c0.10935,0.4388 0.84048,0.80926 0.84992,1.29164c0.01201,0.61355 -1.17979,1.69758 -1.54486,2.16346c-0.2056,0.26237 -0.4112,0.52475 -0.6168,0.78712l-0.28622,0.36526c0,0 -0.1542,0.19678 -0.35098,0.04258z" fill="#683a21" stroke-width="0.5"/><path d="M231.0625,188.15625c0,-0.13807 0.11193,-0.25 0.25,-0.25c0.13807,0 0.25,0.11193 0.25,0.25c0,0.13807 -0.11193,0.25 -0.25,0.25c-0.13807,0 -0.25,-0.11193 -0.25,-0.25z" fill="#683a21" stroke-width="0.5"/></g></g></g></svg>