<svg version="1.1" xmlns="http://www.w3.org/2000/svg" xmlns:xlink="http://www.w3.org/1999/xlink" width="495.4955" height="394.89489" viewBox="0,0,495.4955,394.89489"><g transform="translate(5.30781,22.70268)"><g data-paper-data="{&quot;isPaintingLayer&quot;:true}" fill-rule="nonzero" stroke-linecap="butt" stroke-linejoin="miter" stroke-miterlimit="10" stroke-dasharray="" stroke-dashoffset="0" style="mix-blend-mode: normal"><path d="M230.33073,179.99127c0.00483,-5.34019 4.33782,-9.66536 9.67802,-9.66053c5.34019,0.00483 9.66536,4.33782 9.66053,9.67802c-0.00483,5.34019 -4.33782,9.66536 -9.67802,9.66053c-5.34019,-0.00483 -9.66536,-4.33782 -9.66053,-9.67802z" data-paper-data="{&quot;index&quot;:null}" fill="#fe00ff" stroke="none" stroke-width="NaN"/><g data-paper-data="{&quot;index&quot;:null}" stroke-width="0.5"><path d="M235.67146,186.41884c-1.42903,0.00129 -2.58855,-1.15613 -2.58984,-2.58516c-0.00129,-1.42903 1.15613,-2.58855 2.58516,-2.58984c1.42903,-0.00129 2.58855,1.15613 2.58984,2.58516c0.00129,1.42903 -1.15613,2.58855 -2.58516,2.58984z" data-paper-data="{&quot;index&quot;:null}" fill="#ffffff" stroke="#000000"/><path d="M236.47816,184.31576c-0.53589,0.00048 -0.97071,-0.43354 -0.97119,-0.96943c-0.00048,-0.53589 0.43354,-0.97072 0.96943,-0.9712c0.53589,-0.00048 0.97071,0.43355 0.97119,0.96944c0.00048,0.53589 -0.43354,0.97071 -0.96943,0.97119z" data-paper-data="{&quot;index&quot;:null}" fill="#000000" stroke="none"/></g><g data-paper-data="{&quot;index&quot;:null}" stroke-width="0.5"><path d="M238.45662,175.43369c-0.00129,1.42903 -1.16081,2.58645 -2.58984,2.58516c-1.42903,-0.00129 -2.58645,-1.16081 -2.58515,-2.58984c0.00129,-1.42903 1.16081,-2.58645 2.58984,-2.58516c1.42903,0.00129 2.58645,1.16081 2.58515,2.58984z" data-paper-data="{&quot;index&quot;:null}" fill="#ffffff" stroke="#000000"/><path d="M237.64758,175.91811c-0.00048,0.53589 -0.4353,0.96993 -0.97119,0.96944c-0.53589,-0.00048 -0.96991,-0.43531 -0.96943,-0.9712c0.00048,-0.53589 0.4353,-0.96991 0.97119,-0.96943c0.53589,0.00048 0.96991,0.4353 0.96943,0.97119z" data-paper-data="{&quot;index&quot;:null}" fill="#000000" stroke="none"/></g><path d="M241.19577,179.98801c0,-2.61349 -0.02387,-5.18643 1.62786,-5.18643c1.65172,0 4.35357,2.57294 4.35357,5.18643c0,2.61349 -3.23185,5.41357 -4.88357,5.41357c-1.65172,0 -1.09786,-2.80008 -1.09786,-5.41357z" fill="#ff0000" stroke="#000000" stroke-width="0.5"/><path d="M221.48073,179.98327c0.00925,-10.2279 8.3081,-18.51177 18.53602,-18.50252c10.2279,0.00925 18.51177,8.3081 18.50252,18.53602c-0.00925,10.2279 -8.3081,18.51177 -18.53602,18.50252c-10.2279,-0.00925 -18.51177,-8.3081 -18.50252,-18.53602z" data-paper-data="{&quot;index&quot;:null}" fill="#03ff00" stroke="none" stroke-width="NaN"/><path d="M231.70967,192.29379c-2.73698,0.00247 -4.95777,-2.2143 -4.96024,-4.95128c-0.00247,-2.73698 2.2143,-4.95778 4.95128,-4.96025c2.73698,-0.00247 4.95777,2.2143 4.96024,4.95128c0.00247,2.73698 -2.2143,4.95778 -4.95128,4.96025z" data-paper-data="{&quot;index&quot;:null}" fill="#ffffff" stroke="#000000" stroke-width="1"/><path d="M233.25472,188.26581c-1.02638,0.00092 -1.85917,-0.83034 -1.86009,-1.85672c-0.00092,-1.02638 0.83034,-1.85919 1.85672,-1.86011c1.02638,-0.00092 1.85917,0.83037 1.86009,1.85674c0.00092,1.02638 -0.83034,1.85917 -1.85672,1.86009z" data-paper-data="{&quot;index&quot;:null}" fill="#000000" stroke="none" stroke-width="0.5"/><path d="M237.044,171.25426c-0.00247,2.73698 -2.22326,4.95375 -4.96024,4.95128c-2.73698,-0.00247 -4.95375,-2.22326 -4.95126,-4.96024c0.00247,-2.73698 2.22326,-4.95375 4.96024,-4.95128c2.73698,0.00247 4.95375,2.22326 4.95126,4.96024z" data-paper-data="{&quot;index&quot;:null}" fill="#ffffff" stroke="#000000" stroke-width="1"/><path d="M235.49447,172.18205c-0.00092,1.02638 -0.83372,1.85768 -1.86009,1.85674c-1.02638,-0.00092 -1.85764,-0.83373 -1.85672,-1.86011c0.00092,-1.02638 0.83372,-1.85764 1.86009,-1.85672c1.02638,0.00092 1.85764,0.83371 1.85672,1.86009z" data-paper-data="{&quot;index&quot;:null}" fill="#000000" stroke="none" stroke-width="0.5"/><path d="M242.29022,179.97701c0,-5.00554 -0.04572,-9.93341 3.11779,-9.93341c3.16349,0 8.33826,4.92788 8.33826,9.93341c0,5.00554 -6.18986,10.36845 -9.35335,10.36845c-3.16349,0 -2.1027,-5.36291 -2.1027,-10.36845z" fill="#ff0000" stroke="#000000" stroke-width="1"/><path d="M-5.30781,372.19221v-394.89489h495.4955v394.89489z" fill="none" stroke="none" stroke-width="0"/></g></g></svg>