<svg version="1.1" xmlns="http://www.w3.org/2000/svg" xmlns:xlink="http://www.w3.org/1999/xlink" width="522.94232" height="412.40657" viewBox="0,0,522.94232,412.40657"><g transform="translate(21.47115,26.20327)"><g data-paper-data="{&quot;isPaintingLayer&quot;:true}" stroke="none" stroke-miterlimit="10" stroke-dasharray="" stroke-dashoffset="0" style="mix-blend-mode: normal"><path d="M-21.47115,386.2033v-412.40657h522.94232v412.40657z" fill="#000000" fill-rule="nonzero" stroke-width="0" stroke-linecap="butt" stroke-linejoin="miter"/><g fill-rule="nonzero" stroke-linecap="butt" stroke-linejoin="miter"><path d="M325.68239,278.64195c0,15.82001 -7.50782,28.69047 -23.32783,31.37188h-119.32041c-15.82001,-2.68136 -23.32783,-15.55187 -23.32783,-31.64001c0,-12.0661 7.77596,-22.79156 18.50137,-26.81356c-0.80446,-1.60882 2.41323,-1.60887 2.41323,-3.48582c0,-6.16714 1.34068,-12.60241 7.50782,-12.60241c0.53632,0 1.34068,0.26814 1.87696,0.26814c-0.80446,-1.87696 2.14509,-2.41318 2.14509,-4.82641c0,-9.38473 4.29023,-18.76951 13.67496,-18.76951c2.68136,0 4.82646,0.53627 7.50782,1.60882v0c0,-15.82001 12.60237,-28.42233 28.42233,-28.42233c15.55187,0 27.8861,12.33423 27.8861,28.15424c10.45732,-4.29023 22.7916,-2.14509 31.10374,6.16714c8.58032,8.58037 7.77596,21.71906 2.94946,32.17633c11.26173,4.02209 22.25528,14.47932 21.98715,26.81356z" data-paper-data="{&quot;origPos&quot;:null}" fill="#c40e0e" stroke-width="1"/><path d="M325.95049,273.29153c0,15.82001 -12.87051,29.22678 -28.42233,29.22678h-109.13123c-15.82001,0 -28.69047,-13.40678 -28.69047,-29.22678c0,-12.33428 7.77596,-23.32783 18.76946,-27.34988c-0.80446,-1.60882 -1.34068,-3.21759 -1.34068,-5.09455c0,-6.16714 4.82641,-10.9936 10.9936,-10.9936c0.53632,0 1.34073,0.26814 1.877,0.26814c-0.80446,-2.14509 -1.34073,-4.29023 -1.34073,-6.70341c0,-9.38473 7.776,-16.89255 17.16074,-16.89255c2.68136,0 4.82641,0.53627 7.50782,1.60887c0,-15.82001 12.60241,-28.69051 28.42238,-28.69051c15.55187,0 27.88606,12.60237 27.88606,28.15424c10.45732,-4.29023 22.79156,-2.14509 31.10374,6.16714c8.58032,8.58037 10.72551,21.45087 5.89896,31.90815c11.26173,4.02209 19.30583,15.28369 19.30583,27.61792z" data-paper-data="{&quot;origPos&quot;:null}" fill="#e83838" stroke-width="1"/><path d="M297.52816,302.51836h-35.93024l-71.86035,-72.39662c-0.80446,-1.87696 -1.07259,-4.55832 -1.07259,-6.70341c0,-9.38473 7.77596,-16.8926 17.16069,-16.8926c2.68136,0 4.82646,0.53627 7.50782,1.60887c0,-15.82001 12.60237,-28.69047 28.42233,-28.69047c15.55187,0 27.8861,12.60241 27.8861,27.8861c10.45732,-4.02209 22.7916,-1.87696 31.10374,6.43528c8.58032,8.8485 10.72546,21.71896 5.89896,32.17633c11.26173,4.02209 19.30578,14.74741 19.30578,27.34988c0,15.82001 -12.87051,29.22678 -28.42233,29.22678z" data-paper-data="{&quot;origPos&quot;:null}" fill="#d91c1c" stroke-width="1"/><g data-paper-data="{&quot;origPos&quot;:null}" fill="#c40e0e" stroke-width="1"><path d="M258.64841,286.96644c-1.87696,0 -4.02205,-0.80446 -5.63082,-2.41323l-31.63997,-31.63997c-2.94946,-2.9495 -2.94946,-8.04409 0,-10.9936c2.94946,-2.9495 8.04409,-2.9495 10.9936,0l31.9081,31.63997c2.94946,2.9495 2.94946,8.04409 0,10.9936c-1.60882,1.60882 -3.48573,2.41323 -5.63082,2.41323z" data-paper-data="{&quot;origPos&quot;:null}"/><path d="M266.42428,247.28233c0,1.87696 -0.80446,4.02205 -2.41323,5.63082l-31.64001,31.64001c-2.94946,2.9495 -8.04409,2.9495 -10.99364,0c-2.94946,-2.9495 -2.94946,-8.04409 0,-10.9936l31.90815,-31.9081c2.94946,-2.9495 8.04409,-2.9495 10.9936,0c1.60882,1.60882 2.14509,3.75386 2.14509,5.63077z" data-paper-data="{&quot;origPos&quot;:null}"/></g><g data-paper-data="{&quot;origPos&quot;:null}" fill="#ffffff" stroke-width="1"><path d="M258.64841,281.33553c-1.87696,0 -4.02205,-0.80446 -5.63082,-2.41323l-31.63997,-31.63997c-2.94946,-2.9495 -2.94946,-8.04409 0,-10.9936c2.94946,-2.9495 8.04409,-2.9495 10.9936,0l31.9081,31.90815c2.94946,2.9495 2.94946,8.04409 0,10.9936c-1.60882,1.34068 -3.48573,2.14509 -5.63082,2.14509z"/><path d="M266.42428,241.91965c0,1.87696 -0.80446,4.02205 -2.41323,5.63082l-31.64001,31.63997c-2.94946,2.9495 -8.04409,2.9495 -10.99364,0c-2.94946,-2.9495 -2.94946,-8.04409 0,-10.9936l31.90815,-31.90815c2.94946,-2.9495 8.04409,-2.9495 10.9936,0c1.60882,1.60882 2.14509,3.48577 2.14509,5.63082z"/></g><path d="M122.04438,320.10927v-174.47441h223.13733v174.47441z" data-paper-data="{&quot;origPos&quot;:null}" fill="none" stroke-width="0"/></g><path d="" data-paper-data="{&quot;origPos&quot;:null}" fill="#000000" fill-rule="nonzero" stroke-width="1" stroke-linecap="butt" stroke-linejoin="miter"/><path d="M55.83655,64.93945c0,1.32433 -0.90054,2.27785 -2.48972,3.33729c-2.3838,1.64219 -5.45624,2.64869 -9.21731,2.64869c-9.32323,0 -18.64646,-7.73302 -18.64646,-18.91131c0,-11.1773 9.32323,-18.91032 18.64646,-18.91032c3.76107,0 6.83359,1.00547 9.21731,2.64763c1.58918,1.06047 2.48972,2.01296 2.48972,3.33832c0,1.64116 -1.27135,2.59465 -2.64865,2.59465c-1.11242,0 -1.85403,-0.5297 -2.54266,-1.05841c-1.16539,-0.90054 -3.49622,-2.06697 -6.4627,-2.06697c-6.62164,0 -12.71353,5.72109 -12.71353,13.45511c0,7.73508 6.0919,13.45511 12.71353,13.45511c2.96648,0 5.29727,-1.16543 6.4627,-2.06594c0.68863,-0.52974 1.43024,-1.05948 2.54266,-1.05948c1.3773,0 2.64865,0.95348 2.64865,2.59568z" fill="#ffffff" fill-rule="evenodd" stroke-width="1" stroke-linecap="round" stroke-linejoin="round"/><path d="M63.67656,70.82046c-1.53624,0 -2.80755,-1.27234 -2.80755,-2.80755v-32.47344c0,-1.53517 1.27135,-2.80755 2.80755,-2.80755c1.53624,0 2.80755,1.27238 2.80755,2.80755v32.47348c0,1.53521 -1.27135,2.80755 -2.80755,2.80755z" fill="#ffffff" fill-rule="evenodd" stroke-width="1" stroke-linecap="round" stroke-linejoin="round"/><path d="M99.69813,56.83455c0,9.48315 -7.89299,14.0908 -13.98492,14.0908c-6.0919,0 -13.93191,-4.60765 -13.93191,-14.0908c0,-9.42919 7.84001,-14.14378 13.93191,-14.14378c6.0919,0 13.98492,4.71459 13.98492,14.14378zM77.3435,56.83455c0,5.98594 4.29085,9.21731 8.36975,9.21731c4.13184,0 8.42269,-3.23137 8.42269,-9.21731c0,-6.03888 -4.29081,-9.27029 -8.42269,-9.27029c-4.07894,0 -8.36975,3.23133 -8.36975,9.27029z" fill="#ffffff" fill-rule="evenodd" stroke-width="1" stroke-linecap="round" stroke-linejoin="round"/><path d="M104.9954,58.68965v-13.03235c0,-1.53521 1.21837,-2.80755 2.75461,-2.80755c1.53624,0 2.80755,1.27238 2.80755,2.80755v13.03235c0,5.29727 3.0195,7.4152 6.4627,7.4152c5.0854,0 7.31027,-4.55463 7.62814,-6.83351v-13.61404c0,-1.53521 1.27135,-2.80755 2.80755,-2.80755c1.53624,0 2.80755,1.27238 2.80755,2.80755v22.30161c0,1.58918 -1.27131,2.86156 -2.80755,2.86156c-1.53624,0 -2.80755,-1.27238 -2.80755,-2.86156v-3.49622c-0.26489,1.85509 -3.44324,6.4627 -9.4822,6.4627c-5.13841,0 -10.1708,-3.23137 -10.1708,-12.23574z" fill="#ffffff" fill-rule="evenodd" stroke-width="1" stroke-linecap="round" stroke-linejoin="round"/><path d="M162.84187,35.53944v32.52539c0,1.53723 -1.32429,2.80755 -2.86053,2.80755c-1.53624,0 -2.80759,-1.27036 -2.80759,-2.80755v-2.8595c-0.37081,2.3838 -3.65508,5.72006 -8.68754,5.72006c-5.87995,0 -12.92541,-4.55467 -12.92541,-14.14378c0,-9.42919 7.09836,-14.0908 12.92541,-14.0908c3.92004,0 7.31023,2.01399 8.68754,5.0854v-2.11892c0,-0.1579 0,-0.36974 0.05302,-0.52871v-9.58911c0,-1.53517 1.27135,-2.80755 2.75461,-2.80755c1.53624,0 2.86053,1.27238 2.86053,2.80755zM157.4386,56.78165c0,-6.62164 -4.4497,-9.26922 -8.05188,-9.26922c-3.86703,0 -8.21081,3.01946 -8.21081,9.26922c0,6.30377 4.34379,9.32323 8.21081,9.32323c3.60214,0 8.05188,-2.75457 8.05188,-9.32323z" fill="#ffffff" fill-rule="evenodd" stroke-width="1" stroke-linecap="round" stroke-linejoin="round"/><path d="M205.43214,38.50699h-15.73296v11.60005h12.87239c1.3773,0 2.54274,1.05944 2.54274,2.43773c0,1.3773 -1.16539,2.43579 -2.54274,2.43579h-12.87239v12.92537c0,1.58918 -1.27131,2.96648 -2.80755,2.96648c-1.58918,0 -2.91354,-1.3773 -2.91354,-2.96648v-31.30698c0,-1.80109 1.32433,-3.12435 3.12542,-3.12435h18.32863c1.3773,0 2.54266,1.11143 2.54266,2.48873c0,1.43028 -1.16536,2.54373 -2.54266,2.54373z" fill="#ffffff" fill-rule="evenodd" stroke-width="1" stroke-linecap="round" stroke-linejoin="round"/><path d="M213.00726,58.68965v-13.03235c0,-1.53521 1.21837,-2.80755 2.75461,-2.80755c1.53624,0 2.80763,1.27238 2.80763,2.80755v13.03235c0,5.29727 3.01942,7.4152 6.46267,7.4152c5.0854,0 7.31027,-4.55463 7.62814,-6.83351v-13.61404c0,-1.53521 1.27135,-2.80755 2.80755,-2.80755c1.53624,0 2.80755,1.27238 2.80755,2.80755v22.30161c0,1.58918 -1.27135,2.86156 -2.80755,2.86156c-1.53624,0 -2.80755,-1.27238 -2.80755,-2.86156v-3.49622c-0.26489,1.85509 -3.44324,6.4627 -9.4822,6.4627c-5.13841,0 -10.1708,-3.23137 -10.1708,-12.23574z" fill="#ffffff" fill-rule="evenodd" stroke-width="1" stroke-linecap="round" stroke-linejoin="round"/><path d="M247.43965,70.82046c-1.53624,0 -2.80755,-1.27234 -2.80755,-2.80755v-32.47344c0,-1.53517 1.27135,-2.80755 2.80755,-2.80755c1.53624,0 2.80759,1.27238 2.80759,2.80755v32.47348c0,1.53521 -1.27135,2.80755 -2.80759,2.80755z" fill="#ffffff" fill-rule="evenodd" stroke-width="1" stroke-linecap="round" stroke-linejoin="round"/><path d="M259.41154,70.82046c-1.53624,0 -2.80759,-1.27234 -2.80759,-2.80755v-32.47344c0,-1.53517 1.27135,-2.80755 2.80759,-2.80755c1.53624,0 2.80759,1.27238 2.80759,2.80755v32.47348c0,1.53521 -1.27135,2.80755 -2.80759,2.80755z" fill="#ffffff" fill-rule="evenodd" stroke-width="1" stroke-linecap="round" stroke-linejoin="round"/><path d="M325.70744,52.47156c0,11.17829 -9.1643,18.91135 -18.43455,18.91135c-9.27025,0 -18.43459,-7.73302 -18.43459,-18.91131c0,-11.1773 9.16434,-18.91036 18.43459,-18.91036c9.27025,0 18.43455,7.73306 18.43455,18.91036zM294.82425,52.47156c0,8.05188 5.98594,13.45511 12.44865,13.45511c6.4627,0 12.44865,-5.40323 12.44865,-13.45511c0,-8.05188 -5.93296,-13.50808 -12.44865,-13.50808c-6.4627,0 -12.44865,5.4562 -12.44865,13.50808z" fill="#ffffff" fill-rule="evenodd" stroke-width="1" stroke-linecap="round" stroke-linejoin="round"/><path d="M345.4664,68.15153c0,2.17193 -2.48972,3.12644 -5.45624,3.12644c-3.17839,0 -6.30377,-1.11345 -6.30377,-7.20431v-16.10479h-2.01292c-1.3773,0 -2.27781,-0.90051 -2.27781,-2.27781c0,-1.32433 0.90051,-2.22487 2.27785,-2.22487h2.01292v-4.13188c0,-1.48322 1.27139,-2.75358 2.75461,-2.75358c1.53624,0 2.80755,1.27036 2.80755,2.75358v4.13188h3.86703c1.3773,0 2.33086,0.90054 2.33086,2.22487c0,1.3773 -0.95352,2.27785 -2.33086,2.27785h-3.86703v16.15678c0,1.58918 0.63569,2.33083 1.85407,2.33083c0.68863,0 1.48322,-0.21191 2.06594,-0.26489c1.32433,-0.21191 2.27785,0.63566 2.27785,1.95998z" fill="#ffffff" fill-rule="evenodd" stroke-width="1" stroke-linecap="round" stroke-linejoin="round"/><path d="M375.50203,55.43903v13.03033c0,1.53624 -1.21837,2.80858 -2.75461,2.80858c-1.53624,0 -2.80755,-1.27234 -2.80755,-2.80858v-13.03033c0,-5.29834 -3.01946,-7.41722 -6.4627,-7.41722c-5.0854,0 -7.31027,4.5557 -7.6281,6.83454v13.61301c0,1.53624 -1.27135,2.80858 -2.80759,2.80858c-1.53624,0 -2.80755,-1.27234 -2.80755,-2.80858v-32.47138c0,-1.53727 1.27131,-2.80862 2.80755,-2.80862c1.53624,0 2.80759,1.27135 2.80759,2.80862v13.66603c0.26489,-1.85304 3.44324,-6.46171 9.48213,-6.46171c5.13838,0 10.1708,3.23038 10.1708,12.23681z" fill="#ffffff" fill-rule="evenodd" stroke-width="1" stroke-linecap="round" stroke-linejoin="round"/><path d="M407.81551,56.33858c0,2.17193 -1.21837,3.01946 -3.49622,3.01946l-17.74595,-0.05298c0.58275,4.92647 4.4497,7.36424 8.68757,7.36424c2.17186,0 3.65515,-0.53073 5.29731,-1.53727c0.90051,-0.47573 1.48326,-0.84753 2.22487,-0.84753c1.21837,0 1.95998,0.84757 1.95998,2.01296c0,0.68867 -0.26489,1.43024 -1.43028,2.38476c-2.01292,1.64116 -4.9265,2.59568 -8.26379,2.59568c-6.88645,0 -14.2497,-4.39779 -14.2497,-13.98587c0,-9.53514 7.68108,-14.14378 13.71996,-14.14378c6.03896,0 13.29621,4.76757 13.29621,13.19026zM386.57337,55.27907h15.78597c-0.47672,-5.03143 -4.29085,-7.25729 -7.84001,-7.25729c-3.49622,0 -7.4692,2.22586 -7.94593,7.25729z" fill="#ffffff" fill-rule="evenodd" stroke-width="1" stroke-linecap="round" stroke-linejoin="round"/><path d="M430.38197,45.79797c0,1.58819 -1.21841,2.64763 -3.60214,2.64763c-4.66162,0 -7.68108,3.60218 -8.05188,6.41075v13.61301c0,1.53624 -1.27135,2.80858 -2.80755,2.80858c-1.53624,0 -2.80755,-1.27234 -2.80755,-2.80858v-22.30161c0,-1.58918 1.27135,-2.86057 2.80755,-2.86057c1.53624,0 2.80755,1.27139 2.80755,2.86057v3.49622c0.26489,-1.85304 3.60218,-6.46171 8.79353,-6.46171c1.85407,0 2.86053,1.1644 2.86053,2.59568z" fill="#ffffff" fill-rule="evenodd" stroke-width="1" stroke-linecap="round" stroke-linejoin="round"/><path d="M453.10737,47.2802c0.31783,0.47676 0.74165,1.05944 0.74165,1.96101c0,1.3233 -1.00646,2.11793 -2.27785,2.11793c-0.84757,0 -1.64216,-0.37081 -2.43674,-1.43028c-1.05948,-1.32433 -2.54274,-2.22487 -4.71459,-2.22487c-2.64862,0 -4.23783,1.32433 -4.23783,3.23137c0,1.32536 0.74165,2.59568 3.54924,3.3903l3.28431,0.90051c4.50272,1.21944 7.89299,3.23236 7.89299,7.68108c0,5.56216 -5.24433,8.37078 -10.75347,8.37078c-4.60868,0 -7.83997,-2.01296 -9.21731,-4.18489c-0.26489,-0.37183 -1.11245,-1.43024 -1.11245,-2.70262c0,-1.11242 0.68863,-2.27785 2.17189,-2.27785c1.21837,0 1.85407,0.74165 2.3838,1.53727c1.32433,2.22384 3.49626,2.96545 5.77407,2.96545c3.0724,0 5.19139,-1.27135 5.19139,-3.39027c0,-1.58819 -1.11249,-2.75358 -3.76111,-3.49622l-3.5492,-0.95352c-5.13841,-1.43024 -7.36325,-4.18485 -7.36325,-7.78703c0,-4.97944 4.50268,-7.84001 9.6411,-7.84001c3.81405,0 7.0984,1.53624 8.79353,4.13188z" fill="#ffffff" fill-rule="evenodd" stroke-width="1" stroke-linecap="round" stroke-linejoin="round"/><path d="M117.59997,91.64606c0,0.42378 -0.21191,0.79459 -0.37081,1.27238l-7.4692,21.77089c-0.47672,1.3773 -1.48322,2.11991 -2.64862,2.11991c-1.21837,0 -2.17186,-0.7426 -2.75461,-2.11991l-7.15134,-17.4811l-7.20431,17.4811c-0.5297,1.3773 -1.5362,2.11991 -2.70159,2.11991c-1.21837,0 -2.17193,-0.7426 -2.64869,-2.11991l-7.46916,-21.77085c-0.15893,-0.47779 -0.37081,-0.84856 -0.37081,-1.27238c0,-1.48322 1.16539,-2.64869 2.64862,-2.64869c1.0065,0 2.0659,0.63573 2.3838,1.53624l5.82701,18.01077l6.9924,-17.79893c0.42375,-1.11242 1.32433,-1.74811 2.54266,-1.74811c1.21837,0 2.06598,0.63569 2.5427,1.74811l6.9924,17.79893l5.82701,-18.01077c0.26489,-0.95348 1.3773,-1.53624 2.3838,-1.53624c1.48322,0 2.64865,1.16543 2.64865,2.64869z" fill="#ffffff" fill-rule="evenodd" stroke-width="1" stroke-linecap="round" stroke-linejoin="round"/><path d="M149.22482,102.98225c0,9.4822 -7.89295,14.0908 -13.98485,14.0908c-6.0919,0 -13.93187,-4.6086 -13.93187,-14.0908c0,-9.42919 7.83997,-14.14378 13.93187,-14.14378c6.0919,0 13.98485,4.71459 13.98485,14.14378zM126.87026,102.98225c0,5.98594 4.29085,9.21728 8.36975,9.21728c4.13184,0 8.42269,-3.23133 8.42269,-9.21728c0,-6.03789 -4.29085,-9.27029 -8.42269,-9.27029c-4.07894,0 -8.36975,3.2324 -8.36975,9.27029z" fill="#ffffff" fill-rule="evenodd" stroke-width="1" stroke-linecap="round" stroke-linejoin="round"/><path d="M179.79022,101.12925v13.03033c0,1.5362 -1.21837,2.80862 -2.75461,2.80862c-1.53624,0 -2.80755,-1.27234 -2.80755,-2.80862v-13.03033c0,-5.29834 -3.0195,-7.41722 -6.4627,-7.41722c-5.0854,0 -7.31027,4.55566 -7.62814,6.83454v13.61301c0,1.5362 -1.27131,2.80862 -2.80755,2.80862c-1.53624,0 -2.80755,-1.27234 -2.80755,-2.80862v-22.30161c0,-1.58918 1.27135,-2.86057 2.80755,-2.86057c1.53624,0 2.80755,1.27139 2.80755,2.86057v3.49622c0.26489,-1.85304 3.44324,-6.46171 9.4822,-6.46171c5.13841,0 10.1708,3.23038 10.1708,12.23681z" fill="#ffffff" fill-rule="evenodd" stroke-width="1" stroke-linecap="round" stroke-linejoin="round"/><path d="M184.76971,90.05685l2.75457,-8.21081c0.58275,-1.58819 1.48326,-2.22483 2.9135,-2.22483h1.74811c1.80109,0 2.06594,0.95352 1.16543,2.70163l-4.18489,8.31673c-0.68863,1.3773 -1.74811,1.64219 -2.80755,1.64219h-0.31783c-1.32433,0 -1.74807,-0.95253 -1.27135,-2.22487z" fill="#ffffff" fill-rule="evenodd" stroke-width="1" stroke-linecap="round" stroke-linejoin="round"/><path d="M212.5805,113.84172c0,2.17189 -2.48972,3.12644 -5.4562,3.12644c-3.17839,0 -6.30377,-1.11345 -6.30377,-7.20431v-16.10483h-2.013c-1.3773,0 -2.27781,-0.90051 -2.27781,-2.27781c0,-1.32433 0.90051,-2.22487 2.27785,-2.22487h2.013v-4.13188c0,-1.48322 1.27135,-2.75358 2.75461,-2.75358c1.53624,0 2.80755,1.27036 2.80755,2.75358v4.13188h3.86703c1.3773,0 2.33079,0.90051 2.33079,2.22487c0,1.3773 -0.95348,2.27785 -2.33079,2.27785h-3.86703v16.15678c0,1.58918 0.63569,2.33083 1.85407,2.33083c0.68863,0 1.48322,-0.21191 2.06598,-0.26489c1.32433,-0.21187 2.27785,0.63566 2.27785,1.96002z" fill="#ffffff" fill-rule="evenodd" stroke-width="1" stroke-linecap="round" stroke-linejoin="round"/><path d="M250.42778,92.3084c0.31783,0.47573 0.74165,1.05845 0.74165,1.95895c0,1.32433 -1.0065,2.11995 -2.27785,2.11995c-0.84757,0 -1.64216,-0.37183 -2.43674,-1.43024c-1.05948,-1.32536 -2.54274,-2.2259 -4.71459,-2.2259c-2.64862,0 -4.23783,1.32536 -4.23783,3.23137c0,1.32536 0.74165,2.59564 3.5492,3.39027l3.28435,0.90054c4.50272,1.21837 7.89295,3.23137 7.89295,7.6821c0,5.56113 -5.24429,8.36872 -10.75351,8.36872c-4.60868,0 -7.83997,-2.01296 -9.21731,-4.18485c-0.26489,-0.36978 -1.11242,-1.43024 -1.11242,-2.70163c0,-1.11242 0.68863,-2.27678 2.17186,-2.27678c1.21837,0 1.85407,0.74161 2.3838,1.53517c1.32433,2.22483 3.49622,2.96751 5.77407,2.96751c3.0724,0 5.19135,-1.27238 5.19135,-3.39129c0,-1.58918 -1.11242,-2.75461 -3.76107,-3.49515l-3.5492,-0.95459c-5.13838,-1.43024 -7.36329,-4.18489 -7.36329,-7.78703c0,-4.97944 4.50272,-7.83997 9.6411,-7.83997c3.81405,0 7.09832,1.53624 8.79349,4.13294z" fill="#ffffff" fill-rule="evenodd" stroke-width="1" stroke-linecap="round" stroke-linejoin="round"/><path d="M283.21802,101.36575c0,2.17292 -1.21837,3.01942 -3.49618,3.01942l-17.74595,-0.05294c0.58275,4.92647 4.4497,7.36321 8.68754,7.36321c2.17186,0 3.65512,-0.52867 5.29731,-1.53517c0.90051,-0.47783 1.48322,-0.84757 2.22483,-0.84757c1.21837,0 1.96002,0.84757 1.96002,2.01292c0,0.6876 -0.26485,1.43028 -1.43028,2.38278c-2.01292,1.64318 -4.92654,2.59568 -8.26383,2.59568c-6.88645,0 -14.2497,-4.39574 -14.2497,-13.98488c0,-9.53514 7.68108,-14.14378 13.71996,-14.14378c6.03896,0 13.29621,4.76757 13.29621,13.1903zM261.97589,100.30631h15.7859c-0.47672,-5.03246 -4.29077,-7.25626 -7.83997,-7.25626c-3.49622,0 -7.4692,2.22384 -7.94593,7.25626z" fill="#ffffff" fill-rule="evenodd" stroke-width="1" stroke-linecap="round" stroke-linejoin="round"/><path d="M314.47206,101.36575c0,2.17292 -1.21837,3.01942 -3.49622,3.01942l-17.74595,-0.05294c0.58275,4.92647 4.44967,7.36321 8.6875,7.36321c2.17186,0 3.65512,-0.52867 5.29731,-1.53517c0.90051,-0.47783 1.48326,-0.84757 2.22487,-0.84757c1.21837,0 1.95998,0.84757 1.95998,2.01292c0,0.6876 -0.26485,1.43028 -1.43028,2.38278c-2.01292,1.64318 -4.9265,2.59568 -8.26379,2.59568c-6.88645,0 -14.2497,-4.39574 -14.2497,-13.98488c0,-9.53514 7.68108,-14.14378 13.71996,-14.14378c6.03896,0 13.29621,4.76757 13.29621,13.1903zM293.22993,100.30631h15.7859c-0.47672,-5.03246 -4.29077,-7.25626 -7.84001,-7.25626c-3.49622,0 -7.46916,2.22384 -7.94593,7.25626z" fill="#ffffff" fill-rule="evenodd" stroke-width="1" stroke-linecap="round" stroke-linejoin="round"/><path d="M359.39312,90.87815c0,0.52875 -0.15893,0.89952 -0.31783,1.27032l-14.14378,32.31348c-0.58275,1.32536 -1.58918,1.90704 -2.64862,1.90704c-1.48322,0 -2.48972,-1.16437 -2.48972,-2.5427c0,-0.5297 0.15893,-0.90054 0.31783,-1.27032l3.28431,-7.57615l-10.11782,-22.83132c-0.15893,-0.37081 -0.31783,-0.74161 -0.31783,-1.27032c0,-1.3773 1.11245,-2.54373 2.59568,-2.54373c1.05948,0 2.0659,0.58272 2.64862,1.90704l7.94596,18.4886l7.99894,-18.4886c0.58275,-1.32433 1.58918,-1.90704 2.64862,-1.90704c1.48322,0 2.59568,1.16642 2.59568,2.54373z" fill="#ffffff" fill-rule="evenodd" stroke-width="1" stroke-linecap="round" stroke-linejoin="round"/><path d="M391.01797,102.31927c0,9.4822 -7.89295,14.0908 -13.98485,14.0908c-6.0919,0 -13.93191,-4.6086 -13.93191,-14.0908c0,-9.42816 7.84001,-14.14378 13.93191,-14.14378c6.0919,0 13.98485,4.71562 13.98485,14.14378zM368.66337,102.31927c0,5.98594 4.29081,9.21728 8.36975,9.21728c4.13184,0 8.42272,-3.23133 8.42272,-9.21728c0,-6.03888 -4.29085,-9.26926 -8.42272,-9.26926c-4.07894,0 -8.36975,3.23034 -8.36975,9.26926z" fill="#ffffff" fill-rule="evenodd" stroke-width="1" stroke-linecap="round" stroke-linejoin="round"/><path d="M396.31527,104.17433v-13.03239c0,-1.53624 1.21837,-2.80755 2.75461,-2.80755c1.53624,0 2.80759,1.27135 2.80759,2.80755v13.03239c0,5.29624 3.01946,7.4152 6.46267,7.4152c5.0854,0 7.31023,-4.55467 7.6281,-6.83248v-13.61507c0,-1.53624 1.27135,-2.80755 2.80759,-2.80755c1.53624,0 2.80755,1.27135 2.80755,2.80755v22.30161c0,1.58918 -1.27131,2.86057 -2.80755,2.86057c-1.53624,0 -2.80759,-1.27139 -2.80759,-2.86057v-3.49519c-0.26489,1.85304 -3.44321,6.46164 -9.48213,6.46164c-5.13841,0 -10.1708,-3.2303 -10.1708,-12.23571z" fill="#ffffff" fill-rule="evenodd" stroke-width="1" stroke-linecap="round" stroke-linejoin="round"/><path d="M273.62057,67.18277c0,1.6457 -1.33412,2.97978 -2.97978,2.97978c-1.64566,0 -2.97982,-1.33412 -2.97982,-2.97978c0,-1.6457 1.33412,-2.97978 2.97982,-2.97978c1.64566,0 2.97978,1.33408 2.97978,2.97978z" fill="#ffffff" fill-rule="nonzero" stroke-width="0" stroke-linecap="butt" stroke-linejoin="miter"/><path d="M431.62057,112.84944c0,1.6457 -1.33412,2.97978 -2.97978,2.97978c-1.64566,0 -2.97982,-1.33412 -2.97982,-2.97978c0,-1.6457 1.33412,-2.97978 2.97982,-2.97978c1.64566,0 2.97978,1.33408 2.97978,2.97978z" fill="#ffffff" fill-rule="nonzero" stroke-width="0" stroke-linecap="butt" stroke-linejoin="miter"/></g></g></svg>