<svg version="1.1" xmlns="http://www.w3.org/2000/svg" xmlns:xlink="http://www.w3.org/1999/xlink" width="146.74021" height="49.74754" viewBox="0,0,146.74021,49.74754"><g transform="translate(-166.6299,-155.12623)"><g data-paper-data="{&quot;isPaintingLayer&quot;:true}" fill-rule="nonzero" stroke="none" stroke-width="1" stroke-linecap="butt" stroke-linejoin="miter" stroke-miterlimit="10" stroke-dasharray="" stroke-dashoffset="0" style="mix-blend-mode: normal"><path d="M313.1363,163.16683v36.63194c0,2.79859 -2.79471,5.075 -6.23434,5.075h-88.62236c-3.43604,0 -6.23315,-2.27641 -6.23315,-5.075v-36.63291c0,-2.79859 2.79711,-5.075 6.23315,-5.075h88.62236c3.43964,0 6.23434,2.2774 6.23434,5.07598z" fill="#58bd00"/><path d="M267.77671,163.16683v36.63194c0,2.79859 -2.79471,5.075 -6.23434,5.075h-88.62235c-3.43604,0 -6.23315,-2.27641 -6.23315,-5.075v-36.63291c0,-2.79859 2.79712,-5.075 6.23315,-5.075h88.62235c3.43963,0 6.23434,2.2774 6.23434,5.07598z" fill="#58bd00"/><path d="M313.3701,160.2022v36.63194c0,2.79859 -2.79471,5.075 -6.23434,5.075h-88.62236c-3.43604,0 -6.23315,-2.27641 -6.23315,-5.075v-36.63291c0,-2.79859 2.79711,-5.075 6.23315,-5.075h88.62236c3.43964,0 6.23434,2.2774 6.23434,5.07598z" fill="#77ff00"/><path d="M267.71974,160.2022v36.63194c0,2.79859 -2.79471,5.075 -6.23434,5.075h-88.62235c-3.43604,0 -6.23315,-2.27641 -6.23315,-5.075v-36.63291c0,-2.79859 2.79712,-5.075 6.23315,-5.075h88.62236c3.43964,0 6.23434,2.2774 6.23434,5.07598z" fill="#77ff00"/><text transform="translate(216.12204,187.21752) scale(0.60146,0.60146)" font-size="40" xml:space="preserve" fill="#ffffff" fill-rule="nonzero" stroke="none" stroke-width="1" stroke-linecap="butt" stroke-linejoin="miter" stroke-miterlimit="10" stroke-dasharray="" stroke-dashoffset="0" font-family="Sans Serif" font-weight="normal" text-anchor="start" style="mix-blend-mode: normal"><tspan x="0" dy="0">Play</tspan></text></g></g></svg>