<svg version="1.1" xmlns="http://www.w3.org/2000/svg" xmlns:xlink="http://www.w3.org/1999/xlink" width="189.65615" height="189.65614" viewBox="0,0,189.65615,189.65614"><defs><radialGradient cx="240" cy="180.00001" r="94.82807" gradientUnits="userSpaceOnUse" id="color-1"><stop offset="0" stop-color="#00ff51"/><stop offset="1" stop-color="#00ff51" stop-opacity="0"/></radialGradient><radialGradient cx="240.00001" cy="180.00001" r="77.1604" gradientUnits="userSpaceOnUse" id="color-2"><stop offset="0" stop-color="#00ff51"/><stop offset="1" stop-color="#00ff51" stop-opacity="0"/></radialGradient><radialGradient cx="240" cy="180.00001" r="94.82807" gradientUnits="userSpaceOnUse" id="color-3"><stop offset="0" stop-color="#00ff51"/><stop offset="1" stop-color="#00ff51" stop-opacity="0"/></radialGradient><radialGradient cx="240" cy="180.00001" r="77.1604" gradientUnits="userSpaceOnUse" id="color-4"><stop offset="0" stop-color="#00ff51"/><stop offset="1" stop-color="#00ff51" stop-opacity="0"/></radialGradient></defs><g transform="translate(-145.17193,-85.17193)"><g data-paper-data="{&quot;isPaintingLayer&quot;:true}" fill-rule="nonzero" stroke="none" stroke-width="0" stroke-linecap="butt" stroke-linejoin="miter" stroke-miterlimit="10" stroke-dasharray="" stroke-dashoffset="0" style="mix-blend-mode: normal"><g><path d="M145.17193,194.29322v-28.58642l94.83264,14.2889l94.82351,-14.2889v28.58642l-94.82351,-14.28027z" fill="url(#color-1)"/><path d="M183.05326,257.1604l-20.21365,-20.21365l77.16057,-56.95302l56.94657,-77.15412l20.21366,20.21365l-77.14803,56.95267z" fill="url(#color-2)"/><path d="M254.29321,274.82807h-28.58642l14.28889,-94.83263l-14.28889,-94.82351h28.58642l-14.28027,94.82351z" fill="url(#color-3)"/><path d="M317.1604,236.94675l-20.21365,20.21366l-56.95302,-77.16058l-77.15413,-56.94657l20.21366,-20.21365l56.95266,77.14802z" fill="url(#color-4)"/></g></g></g></svg>