<svg version="1.1" xmlns="http://www.w3.org/2000/svg" xmlns:xlink="http://www.w3.org/1999/xlink" width="7.74092" height="20.05013" viewBox="0,0,7.74092,20.05013"><defs><linearGradient x1="234.45921" y1="189.01013" x2="237.54982" y2="193.66044" gradientUnits="userSpaceOnUse" id="color-1"><stop offset="0" stop-color="#000000"/><stop offset="1" stop-color="#000000" stop-opacity="0"/></linearGradient><linearGradient x1="231.51013" y1="199.54078" x2="236.16044" y2="196.45017" gradientUnits="userSpaceOnUse" id="color-2"><stop offset="0" stop-color="#000000"/><stop offset="1" stop-color="#000000" stop-opacity="0"/></linearGradient><linearGradient x1="242.04078" y1="202.48986" x2="238.95017" y2="197.83955" gradientUnits="userSpaceOnUse" id="color-3"><stop offset="0" stop-color="#ffffff"/><stop offset="1" stop-color="#ffffff" stop-opacity="0"/></linearGradient><linearGradient x1="244.98986" y1="191.95921" x2="240.33955" y2="195.04982" gradientUnits="userSpaceOnUse" id="color-4"><stop offset="0" stop-color="#ffffff"/><stop offset="1" stop-color="#ffffff" stop-opacity="0"/></linearGradient><linearGradient x1="236.09847" y1="191.92467" x2="237.8526" y2="194.56403" gradientUnits="userSpaceOnUse" id="color-5"><stop offset="0" stop-color="#000000"/><stop offset="1" stop-color="#000000" stop-opacity="0"/></linearGradient><linearGradient x1="234.42467" y1="197.90152" x2="237.06403" y2="196.14739" gradientUnits="userSpaceOnUse" id="color-6"><stop offset="0" stop-color="#000000"/><stop offset="1" stop-color="#000000" stop-opacity="0"/></linearGradient><linearGradient x1="242.07532" y1="193.59847" x2="239.43596" y2="195.3526" gradientUnits="userSpaceOnUse" id="color-7"><stop offset="0" stop-color="#000000"/><stop offset="1" stop-color="#000000" stop-opacity="0"/></linearGradient><linearGradient x1="240.40152" y1="199.57532" x2="238.64739" y2="196.93596" gradientUnits="userSpaceOnUse" id="color-8"><stop offset="0" stop-color="#000000"/><stop offset="1" stop-color="#000000" stop-opacity="0"/></linearGradient><linearGradient x1="237.14349" y1="193.78269" x2="238.04562" y2="195.14007" gradientUnits="userSpaceOnUse" id="color-9"><stop offset="0" stop-color="#000000"/><stop offset="1" stop-color="#000000" stop-opacity="0"/></linearGradient><linearGradient x1="236.28269" y1="196.8565" x2="237.64007" y2="195.95437" gradientUnits="userSpaceOnUse" id="color-10"><stop offset="0" stop-color="#000000"/><stop offset="1" stop-color="#000000" stop-opacity="0"/></linearGradient><linearGradient x1="240.2173" y1="194.64349" x2="238.85992" y2="195.54562" gradientUnits="userSpaceOnUse" id="color-11"><stop offset="0" stop-color="#ffffff"/><stop offset="1" stop-color="#ffffff" stop-opacity="0"/></linearGradient><linearGradient x1="239.3565" y1="197.7173" x2="238.45437" y2="196.35992" gradientUnits="userSpaceOnUse" id="color-12"><stop offset="0" stop-color="#ffffff"/><stop offset="1" stop-color="#ffffff" stop-opacity="0"/></linearGradient></defs><g transform="translate(-234.37953,-179.57033)"><g data-paper-data="{&quot;isPaintingLayer&quot;:true}" fill-rule="nonzero" stroke-linejoin="miter" stroke-miterlimit="10" stroke-dasharray="" stroke-dashoffset="0" style="mix-blend-mode: normal"><path d="M237.09666,194.87033c0,0 -0.25499,-4.66207 0.23343,-7.0716c0.5106,-2.51894 2.76657,-7.7284 2.76657,-7.7284" fill="none" stroke="#000000" stroke-width="1" stroke-linecap="round"/><g stroke="none" stroke-width="0" stroke-linecap="butt"><g><path d="M234.37954,194.97015l4.65031,-3.09061l3.09061,4.65031l-4.65031,3.09061z" fill="#806947"/><path d="M234.37954,194.97015l4.65031,-3.09061l3.09061,4.65031l-4.65031,3.09061z" fill="url(#color-1)"/><path d="M237.47015,199.62045l-3.09061,-4.65031l4.65031,-3.09061l3.09061,4.65031z" fill="url(#color-2)"/><path d="M242.12045,196.52984l-4.65031,3.09061l-3.09061,-4.65031l4.65031,-3.09061z" fill="url(#color-3)"/><path d="M239.02984,191.87954l3.09061,4.65031l-4.65031,3.09061l-3.09061,-4.65031z" fill="url(#color-4)"/></g><g><path d="M236.05325,195.30738l2.63936,-1.75413l1.75413,2.63936l-2.63936,1.75413z" fill="#806947"/><path d="M236.05325,195.30738l2.63936,-1.75413l1.75413,2.63936l-2.63936,1.75413z" fill="url(#color-5)"/><path d="M237.80738,197.94674l-1.75413,-2.63936l2.63936,-1.75413l1.75413,2.63936z" fill="url(#color-6)"/><path d="M238.69261,193.55325l1.75413,2.63936l-2.63936,1.75413l-1.75413,-2.63936z" fill="url(#color-7)"/><path d="M240.44674,196.19261l-2.63936,1.75413l-1.75413,-2.63936l2.63936,-1.75413z" fill="url(#color-8)"/></g><g><path d="M237.12024,195.52236l1.35738,-0.90212l0.90212,1.35738l-1.35738,0.90212z" fill="#806947"/><path d="M237.12024,195.52236l1.35738,-0.90212l0.90212,1.35738l-1.35738,0.90212z" fill="url(#color-9)"/><path d="M238.02236,196.87975l-0.90212,-1.35738l1.35738,-0.90212l0.90212,1.35738z" fill="url(#color-10)"/><path d="M238.47763,194.62024l0.90212,1.35738l-1.35738,0.90212l-0.90212,-1.35738z" fill="url(#color-11)"/><path d="M239.37975,195.97763l-1.35738,0.90212l-0.90212,-1.35738l1.35738,-0.90212z" fill="url(#color-12)"/></g></g></g></g></svg>