<svg version="1.1" xmlns="http://www.w3.org/2000/svg" xmlns:xlink="http://www.w3.org/1999/xlink" width="61.66673" height="61.66668" viewBox="0,0,61.66673,61.66668"><defs><linearGradient x1="191.66219" y1="176.40544" x2="226.66219" y2="176.40544" gradientUnits="userSpaceOnUse" id="color-1"><stop offset="0" stop-color="#000000"/><stop offset="1" stop-color="#000000" stop-opacity="0"/></linearGradient><linearGradient x1="236.40542" y1="228.33787" x2="236.40542" y2="193.33787" gradientUnits="userSpaceOnUse" id="color-2"><stop offset="0" stop-color="#000000"/><stop offset="1" stop-color="#000000" stop-opacity="0"/></linearGradient><linearGradient x1="243.59462" y1="131.66216" x2="243.59462" y2="166.66216" gradientUnits="userSpaceOnUse" id="color-3"><stop offset="0" stop-color="#000000"/><stop offset="1" stop-color="#000000" stop-opacity="0"/></linearGradient><linearGradient x1="288.33786" y1="183.59462" x2="253.33787" y2="183.59462" gradientUnits="userSpaceOnUse" id="color-4"><stop offset="0" stop-color="#000000"/><stop offset="1" stop-color="#000000" stop-opacity="0"/></linearGradient><linearGradient x1="215.14056" y1="178.15137" x2="233.14056" y2="178.15137" gradientUnits="userSpaceOnUse" id="color-5"><stop offset="0" stop-color="#000000"/><stop offset="1" stop-color="#000000" stop-opacity="0"/></linearGradient><linearGradient x1="238.15138" y1="204.85948" x2="238.15138" y2="186.85948" gradientUnits="userSpaceOnUse" id="color-6"><stop offset="0" stop-color="#000000"/><stop offset="1" stop-color="#000000" stop-opacity="0"/></linearGradient><linearGradient x1="241.84869" y1="155.14056" x2="241.84869" y2="173.14056" gradientUnits="userSpaceOnUse" id="color-7"><stop offset="0" stop-color="#ffffff"/><stop offset="1" stop-color="#ffffff" stop-opacity="0"/></linearGradient><linearGradient x1="264.85947" y1="181.84868" x2="246.85948" y2="181.84868" gradientUnits="userSpaceOnUse" id="color-8"><stop offset="0" stop-color="#ffffff"/><stop offset="1" stop-color="#ffffff" stop-opacity="0"/></linearGradient><linearGradient x1="154.83336" y1="173.6667" x2="216.50005" y2="173.6667" gradientUnits="userSpaceOnUse" id="color-9"><stop offset="0" stop-color="#000000"/><stop offset="1" stop-color="#000000" stop-opacity="0"/></linearGradient><linearGradient x1="233.66673" y1="265.16668" x2="233.66673" y2="203.50004" gradientUnits="userSpaceOnUse" id="color-10"><stop offset="0" stop-color="#000000"/><stop offset="1" stop-color="#000000" stop-opacity="0"/></linearGradient><linearGradient x1="325.16668" y1="186.33337" x2="263.50005" y2="186.33337" gradientUnits="userSpaceOnUse" id="color-11"><stop offset="0" stop-color="#ffffff"/><stop offset="1" stop-color="#ffffff" stop-opacity="0"/></linearGradient><linearGradient x1="246.3334" y1="94.83335" x2="246.3334" y2="156.5" gradientUnits="userSpaceOnUse" id="color-12"><stop offset="0" stop-color="#ffffff"/><stop offset="1" stop-color="#ffffff" stop-opacity="0"/></linearGradient></defs><g transform="translate(-209.16666,-149.16669)"><g data-paper-data="{&quot;isPaintingLayer&quot;:true}" fill-rule="nonzero" stroke="none" stroke-width="0" stroke-linecap="butt" stroke-linejoin="miter" stroke-miterlimit="10" stroke-dasharray="" stroke-dashoffset="0" style="mix-blend-mode: normal"><path d="M209.16669,210.83337v-61.66667h61.66667v61.66667z" fill="#a2a2a2"/><path d="M220.4551,202.40541v-7.57894h11.36843v7.57894z" fill="#dfcbac"/><path d="M254.01992,199.16467v-7.57894h6.04436v7.57894z" fill="#dfcbac"/><path d="M216.14954,206.89615v-7.57894h11.36843v7.57894z" fill="#dfcbac"/><path d="M214.93977,168.04218v-9.03615h13.55422v9.03615z" fill="#dfcbac"/><g><path d="M222.50003,197.50003v-35h35v35z" fill="#a2a2a2"/><path d="M222.50003,197.50003v-35h35v35z" fill="url(#color-1)"/><path d="M257.50003,197.50003h-35v-35h35z" fill="url(#color-2)"/><path d="M222.50003,162.5h35v35h-35z" fill="url(#color-3)"/><path d="M257.50003,162.5v35h-35v-35z" fill="url(#color-4)"/></g><path d="M244.20206,181.86732v-5.21101h7.81651v5.21101z" fill="#dfcbac"/><path d="M226.77037,176.7307v-9.03615h13.55422v9.03615z" fill="#dfcbac"/><g><path d="M231.00004,189.00003v-18h18v18z" fill="#a2a2a2"/><path d="M231.00004,189.00003v-18h18v18z" fill="url(#color-5)"/><path d="M249.00004,189.00003h-18v-18h18z" fill="url(#color-6)"/><path d="M231.00004,171.00003h18v18h-18z" fill="url(#color-7)"/><path d="M249.00004,171.00003v18h-18v-18z" fill="url(#color-8)"/></g><g><path d="M209.16673,210.83337v-61.66667h61.66667v61.66667z" fill="url(#color-9)"/><path d="M270.83333,210.83337h-61.66667v-61.66667h61.66667z" fill="url(#color-10)"/><path d="M270.83333,149.1667v61.66667h-61.66667v-61.66667z" fill="url(#color-11)"/><path d="M209.16673,149.1667h61.66667v61.66667h-61.66667z" fill="url(#color-12)"/></g></g></g></svg>