<svg version="1.1" xmlns="http://www.w3.org/2000/svg" xmlns:xlink="http://www.w3.org/1999/xlink" width="61.66668" height="61.71483" viewBox="0,0,61.66668,61.71483"><defs><linearGradient x1="259.68538" y1="169.25922" x2="259.68538" y2="165.1179" gradientUnits="userSpaceOnUse" id="color-1"><stop offset="0" stop-color="#000000"/><stop offset="1" stop-color="#000000" stop-opacity="0"/></linearGradient><linearGradient x1="263.46566" y1="157.82024" x2="263.46566" y2="161.96155" gradientUnits="userSpaceOnUse" id="color-2"><stop offset="0" stop-color="#000000"/><stop offset="1" stop-color="#000000" stop-opacity="0"/></linearGradient><linearGradient x1="244.6047" y1="154.07988" x2="248.74602" y2="154.07988" gradientUnits="userSpaceOnUse" id="color-3"><stop offset="0" stop-color="#000000"/><stop offset="1" stop-color="#000000" stop-opacity="0"/></linearGradient><linearGradient x1="256.04367" y1="156.6325" x2="251.90236" y2="156.6325" gradientUnits="userSpaceOnUse" id="color-4"><stop offset="0" stop-color="#000000"/><stop offset="1" stop-color="#000000" stop-opacity="0"/></linearGradient><linearGradient x1="225.2994" y1="169.25178" x2="225.2994" y2="165.11046" gradientUnits="userSpaceOnUse" id="color-5"><stop offset="0" stop-color="#000000"/><stop offset="1" stop-color="#000000" stop-opacity="0"/></linearGradient><linearGradient x1="233.52365" y1="157.8128" x2="233.52365" y2="161.95411" gradientUnits="userSpaceOnUse" id="color-6"><stop offset="0" stop-color="#000000"/><stop offset="1" stop-color="#000000" stop-opacity="0"/></linearGradient><linearGradient x1="250.07109" y1="169.31874" x2="250.07109" y2="165.17743" gradientUnits="userSpaceOnUse" id="color-7"><stop offset="0" stop-color="#000000"/><stop offset="1" stop-color="#000000" stop-opacity="0"/></linearGradient><linearGradient x1="224.65472" y1="157.82024" x2="224.65472" y2="161.96155" gradientUnits="userSpaceOnUse" id="color-8"><stop offset="0" stop-color="#000000"/><stop offset="1" stop-color="#000000" stop-opacity="0"/></linearGradient><linearGradient x1="219.37404" y1="170.46381" x2="223.51536" y2="170.46381" gradientUnits="userSpaceOnUse" id="color-9"><stop offset="0" stop-color="#000000"/><stop offset="1" stop-color="#000000" stop-opacity="0"/></linearGradient><linearGradient x1="230.81302" y1="173.01643" x2="226.67171" y2="173.01643" gradientUnits="userSpaceOnUse" id="color-10"><stop offset="0" stop-color="#000000"/><stop offset="1" stop-color="#000000" stop-opacity="0"/></linearGradient><linearGradient x1="233.66755" y1="185.63571" x2="233.66755" y2="181.49439" gradientUnits="userSpaceOnUse" id="color-11"><stop offset="0" stop-color="#000000"/><stop offset="1" stop-color="#000000" stop-opacity="0"/></linearGradient><linearGradient x1="246.24897" y1="174.19673" x2="246.24897" y2="178.33804" gradientUnits="userSpaceOnUse" id="color-12"><stop offset="0" stop-color="#000000"/><stop offset="1" stop-color="#000000" stop-opacity="0"/></linearGradient><linearGradient x1="224.593" y1="185.49404" x2="224.593" y2="181.35273" gradientUnits="userSpaceOnUse" id="color-13"><stop offset="0" stop-color="#000000"/><stop offset="1" stop-color="#000000" stop-opacity="0"/></linearGradient><linearGradient x1="252.28224" y1="174.31403" x2="252.28224" y2="178.45534" gradientUnits="userSpaceOnUse" id="color-14"><stop offset="0" stop-color="#000000"/><stop offset="1" stop-color="#000000" stop-opacity="0"/></linearGradient><linearGradient x1="246.89554" y1="186.84881" x2="251.03685" y2="186.84881" gradientUnits="userSpaceOnUse" id="color-15"><stop offset="0" stop-color="#000000"/><stop offset="1" stop-color="#000000" stop-opacity="0"/></linearGradient><linearGradient x1="258.33451" y1="189.40143" x2="254.1932" y2="189.40143" gradientUnits="userSpaceOnUse" id="color-16"><stop offset="0" stop-color="#000000"/><stop offset="1" stop-color="#000000" stop-opacity="0"/></linearGradient><linearGradient x1="233.75719" y1="202.14965" x2="233.75719" y2="198.00834" gradientUnits="userSpaceOnUse" id="color-17"><stop offset="0" stop-color="#000000"/><stop offset="1" stop-color="#000000" stop-opacity="0"/></linearGradient><linearGradient x1="246.33861" y1="190.71068" x2="246.33861" y2="194.85199" gradientUnits="userSpaceOnUse" id="color-18"><stop offset="0" stop-color="#000000"/><stop offset="1" stop-color="#000000" stop-opacity="0"/></linearGradient><linearGradient x1="252.11292" y1="202.17731" x2="252.11292" y2="198.036" gradientUnits="userSpaceOnUse" id="color-19"><stop offset="0" stop-color="#000000"/><stop offset="1" stop-color="#000000" stop-opacity="0"/></linearGradient><linearGradient x1="223.58702" y1="190.82797" x2="223.58702" y2="194.96929" gradientUnits="userSpaceOnUse" id="color-20"><stop offset="0" stop-color="#000000"/><stop offset="1" stop-color="#000000" stop-opacity="0"/></linearGradient><linearGradient x1="218.27842" y1="203.23274" x2="222.41974" y2="203.23274" gradientUnits="userSpaceOnUse" id="color-21"><stop offset="0" stop-color="#000000"/><stop offset="1" stop-color="#000000" stop-opacity="0"/></linearGradient><linearGradient x1="229.7174" y1="205.78536" x2="225.57609" y2="205.78536" gradientUnits="userSpaceOnUse" id="color-22"><stop offset="0" stop-color="#000000"/><stop offset="1" stop-color="#000000" stop-opacity="0"/></linearGradient><linearGradient x1="154.83333" y1="173.69074" x2="216.5" y2="173.69074" gradientUnits="userSpaceOnUse" id="color-23"><stop offset="0" stop-color="#000000"/><stop offset="1" stop-color="#000000" stop-opacity="0"/></linearGradient><linearGradient x1="233.66667" y1="265.19074" x2="233.66667" y2="203.52407" gradientUnits="userSpaceOnUse" id="color-24"><stop offset="0" stop-color="#000000"/><stop offset="1" stop-color="#000000" stop-opacity="0"/></linearGradient><linearGradient x1="325.16667" y1="186.35741" x2="263.5" y2="186.35741" gradientUnits="userSpaceOnUse" id="color-25"><stop offset="0" stop-color="#ffffff"/><stop offset="1" stop-color="#ffffff" stop-opacity="0"/></linearGradient><linearGradient x1="246.33334" y1="94.8574" x2="246.33334" y2="156.52407" gradientUnits="userSpaceOnUse" id="color-26"><stop offset="0" stop-color="#ffffff"/><stop offset="1" stop-color="#ffffff" stop-opacity="0"/></linearGradient></defs><g transform="translate(-209.16666,-149.14259)"><g data-paper-data="{&quot;isPaintingLayer&quot;:true}" fill-rule="nonzero" stroke="none" stroke-width="0" stroke-linecap="butt" stroke-linejoin="miter" stroke-miterlimit="10" stroke-dasharray="" stroke-dashoffset="0" style="mix-blend-mode: normal"><g><path d="M209.16667,210.85741v-61.66667h61.66667v61.66667z" fill="#f3c886"/><g><g><path d="M252.37353,165.61038v-4.14131h18.40399v4.14131z" fill="#e2b97c"/><path d="M270.77751,165.61038h-18.40399v-4.14131h18.40399z" fill="url(#color-1)"/><path d="M252.37353,161.46907h18.40399v4.14131h-18.40399z" fill="url(#color-2)"/></g><g><path d="M248.25354,149.14259h4.14131v12.42721h-4.14131z" fill="#e2b97c"/><path d="M248.25354,161.56979v-12.42721h4.14131v12.42721z" fill="url(#color-3)"/><path d="M252.39484,149.14259v12.42721h-4.14131v-12.42721z" fill="url(#color-4)"/></g><g><path d="M209.39198,165.60294v-4.14131h40.03909v4.14131z" fill="#e2b97c"/><path d="M249.43106,165.60294h-40.03909v-4.14131h40.03909z" fill="url(#color-5)"/><path d="M209.39198,161.46163h40.03909v4.14131h-40.03909z" fill="url(#color-6)"/></g><g><path d="M248.41728,165.66991v-4.14131h4.16264v4.14131z" fill="#e2b97c"/><path d="M252.57992,165.66991h-4.16264v-4.14131h4.16264z" fill="url(#color-7)"/></g><g data-paper-data="{&quot;index&quot;:null}"><path d="M227.26561,161.46907v4.14131h-4.33197v-4.14131z" fill="#e2b97c"/><path d="M227.26561,165.61038h-4.33197v-4.14131h4.33197z" fill="url(#color-8)"/></g><g><path d="M223.02288,165.52652h4.14131v12.4272h-4.14131z" fill="#e2b97c"/><path d="M223.02288,177.95372v-12.4272h4.14131v12.4272z" fill="url(#color-9)"/><path d="M227.16419,165.52652v12.4272h-4.14131v-12.4272z" fill="url(#color-10)"/></g><g><path d="M209.33245,181.98687v-4.14131h61.25162v4.14131z" fill="#e2b97c"/><path d="M270.58407,181.98687h-61.25162v-4.14131h61.25162z" fill="url(#color-11)"/><path d="M209.33245,177.84556h61.25162v4.14131h-61.25162z" fill="url(#color-12)"/></g><g data-paper-data="{&quot;index&quot;:null}"><path d="M222.93919,181.84521v-4.14131h4.16264v4.14131z" fill="#e2b97c"/><path d="M227.10183,181.84521h-4.16264v-4.14131h4.16264z" fill="url(#color-13)"/></g><g data-paper-data="{&quot;index&quot;:null}"><path d="M254.79108,177.96286v4.14131h-4.16264v-4.14131z" fill="#e2b97c"/><path d="M254.79108,182.10417h-4.16264v-4.14131h4.16264z" fill="url(#color-14)"/></g><g><path d="M250.54437,181.91152h4.14131v12.42721h-4.14131z" fill="#e2b97c"/><path d="M250.54437,194.33872v-12.42721h4.14131v12.42721z" fill="url(#color-15)"/><path d="M254.68568,181.91152v12.42721h-4.14131v-12.42721z" fill="url(#color-16)"/></g><g><path d="M209.42209,198.50082v-4.14131h61.25162v4.14131z" fill="#e2b97c"/><path d="M270.67371,198.50082h-61.25162v-4.14131h61.25162z" fill="url(#color-17)"/><path d="M209.42209,194.35951h61.25162v4.14131h-61.25162z" fill="url(#color-18)"/></g><g data-paper-data="{&quot;index&quot;:null}"><path d="M250.45911,198.52848v-4.14131h4.16264v4.14131z" fill="#e2b97c"/><path d="M254.62175,198.52848h-4.16264v-4.14131h4.16264z" fill="url(#color-19)"/></g><g data-paper-data="{&quot;index&quot;:null}"><path d="M226.09586,194.47681v4.14131h-4.16264v-4.14131z" fill="#e2b97c"/><path d="M226.09586,198.61812h-4.16264v-4.14131h4.16264z" fill="url(#color-20)"/></g><g><path d="M221.92726,198.29545h4.14131v12.42721h-4.14131z" fill="#e2b97c"/><path d="M221.92726,210.72265v-12.42721h4.14131v12.42721z" fill="url(#color-21)"/><path d="M226.06857,198.29545v12.42721h-4.14131v-12.42721z" fill="url(#color-22)"/></g></g><g><path d="M209.16667,210.85741v-61.66667h61.66667v61.66667z" fill="url(#color-23)"/><path d="M270.83333,210.85741h-61.66667v-61.66667h61.66667z" fill="url(#color-24)"/><path d="M270.83333,149.19074v61.66667h-61.66667v-61.66667z" fill="url(#color-25)"/><path d="M209.16667,149.19074h61.66667v61.66667h-61.66667z" fill="url(#color-26)"/></g></g></g></g></svg>