<svg version="1.1" xmlns="http://www.w3.org/2000/svg" xmlns:xlink="http://www.w3.org/1999/xlink" width="11.95697" height="17.31044" viewBox="0,0,11.95697,17.31044"><defs><linearGradient x1="239.80611" y1="162.93006" x2="239.80611" y2="173.2347" gradientUnits="userSpaceOnUse" id="color-1"><stop offset="0" stop-color="#ffffff"/><stop offset="1" stop-color="#ffffff" stop-opacity="0"/></linearGradient><linearGradient x1="239.80611" y1="175.45893" x2="239.80611" y2="181.30008" gradientUnits="userSpaceOnUse" id="color-2"><stop offset="0" stop-color="#ffffff"/><stop offset="1" stop-color="#ffffff" stop-opacity="0"/></linearGradient><linearGradient x1="235.89603" y1="174.20933" x2="235.89603" y2="176.98852" gradientUnits="userSpaceOnUse" id="color-3"><stop offset="0" stop-color="#afd89a"/><stop offset="1" stop-color="#a3ca8f"/></linearGradient><linearGradient x1="236.60699" y1="180.09086" x2="236.60699" y2="182.87005" gradientUnits="userSpaceOnUse" id="color-4"><stop offset="0" stop-color="#afd89a"/><stop offset="1" stop-color="#a3ca8f"/></linearGradient><linearGradient x1="241.48672" y1="179.06213" x2="241.48672" y2="180.22013" gradientUnits="userSpaceOnUse" id="color-5"><stop offset="0" stop-color="#afd89a"/><stop offset="1" stop-color="#a3ca8f"/></linearGradient><linearGradient x1="242.55316" y1="173.36911" x2="242.55316" y2="176.1483" gradientUnits="userSpaceOnUse" id="color-6"><stop offset="0" stop-color="#afd89a"/><stop offset="1" stop-color="#a3ca8f"/></linearGradient><linearGradient x1="239.35386" y1="180.54868" x2="239.35386" y2="181.70667" gradientUnits="userSpaceOnUse" id="color-7"><stop offset="0" stop-color="#afd89a"/><stop offset="1" stop-color="#a3ca8f"/></linearGradient><linearGradient x1="243.42569" y1="181.0011" x2="243.42569" y2="182.1591" gradientUnits="userSpaceOnUse" id="color-8"><stop offset="0" stop-color="#afd89a"/><stop offset="1" stop-color="#a3ca8f"/></linearGradient></defs><g transform="translate(-234.02152,-171.34478)"><g data-paper-data="{&quot;isPaintingLayer&quot;:true}" fill-rule="nonzero" stroke-width="1.5" stroke-linejoin="miter" stroke-miterlimit="10" stroke-dasharray="" stroke-dashoffset="0" style="mix-blend-mode: normal"><g><path d="M234.02153,179.70074c0,0 0,-5.01924 0,-6.52552c0,-0.79777 1.04137,-1.83043 1.93914,-1.83043c1.36237,0 5.37103,0 7.88513,0c1.25153,0 2.13269,1.11872 2.13269,1.95969c0,1.51932 0,6.39626 0,6.39626z" fill="#afd89a" stroke="none" stroke-linecap="butt"/><path d="M234.02153,179.70074c0,0 0,-5.16495 0,-6.65479c0,-0.75326 1.04137,-1.70116 1.93914,-1.70116c1.39795,0 5.58227,0 8.07903,0c1.14769,0 1.9388,1.33939 1.9388,2.28285c0,1.53883 0,6.0731 0,6.0731z" fill="url(#color-1)" stroke="none" stroke-linecap="butt"/><path d="M234.02153,187.55062v-7.32183h11.95697v7.32183l-0.82405,-0.59717l-0.63227,1.70178l-0.6364,-1.50884l-0.41335,0.70825l-0.47823,-0.86262l-0.60094,1.27584l-0.55037,-1.45127l-0.70334,0.8263l-0.7652,-0.58917l-0.45826,0.92423l-1.05961,-1.59362l-0.69561,1.24735l-0.7771,-0.71672l-0.46287,1.32732l-0.77527,-1.41346l-0.50643,0.8824l-0.62222,-0.70351z" fill="#99be87" stroke="none" stroke-linecap="butt"/><path d="M234.02153,186.54236v-6.31357h11.95697v6.31357l-0.82405,-0.59717l-0.63227,1.70178l-0.6364,-1.50884l-0.41335,0.70825l-0.47823,-0.86262l-0.60094,1.27584l-0.55037,-1.45127l-0.70334,0.8263l-0.7652,-0.58917l-0.45826,0.92423l-1.05961,-1.59362l-0.69561,1.24735l-0.7771,-0.71672l-0.46287,1.32732l-0.77527,-1.41346l-0.50643,0.8824l-0.62222,-0.70351z" fill="#afd89a" stroke="none" stroke-linecap="butt"/><path d="M234.02153,187.55062v-7.32183h11.95697v7.32183l-0.82405,-0.59717l-0.63227,1.70178l-0.6364,-1.50884l-0.41335,0.70825l-0.47823,-0.86262l-0.60094,1.27584l-0.55037,-1.45127l-0.70334,0.8263l-0.7652,-0.58917l-0.45826,0.92423l-1.05961,-1.59362l-0.69561,1.24735l-0.7771,-0.71672l-0.46287,1.32732l-0.77527,-1.41346l-0.50643,0.8824l-0.62222,-0.70351z" fill="url(#color-2)" stroke="none" stroke-linecap="butt"/><path d="M234.02153,186.58114v-7.32183h11.95697v7.32183l-0.82405,-0.59717l-0.63227,1.70178l-0.6364,-1.50884l-0.41335,0.70825l-0.47823,-0.86262l-0.60094,1.27584l-0.55037,-1.45127l-0.70334,0.8263l-0.7652,-0.58917l-0.45826,0.92423l-1.05961,-1.59362l-0.69561,1.24735l-0.7771,-0.71672l-0.46287,1.32732l-0.77527,-1.41346l-0.50643,0.8824l-0.62222,-0.70351z" fill="#a3ca8f" stroke="none" stroke-linecap="butt"/><path d="M234.02153,185.57288v-6.31357h11.95697v6.31357l-0.82405,-0.59717l-0.63227,1.70178l-0.6364,-1.50884l-0.41335,0.70825l-0.47823,-0.86262l-0.60094,1.27584l-0.55037,-1.45127l-0.70334,0.8263l-0.7652,-0.58917l-0.45826,0.92423l-1.05961,-1.59362l-0.69561,1.24735l-0.7771,-0.71672l-0.46287,1.32732l-0.77527,-1.41346l-0.50643,0.8824l-0.62222,-0.70351z" fill="#afd89a" stroke="none" stroke-linecap="butt"/><path d="M235.89603,174.20933v2.77919" fill="none" stroke="url(#color-3)" stroke-linecap="round"/><path d="M236.60699,182.87005v-2.77919" fill="none" stroke="url(#color-4)" stroke-linecap="round"/><path d="M241.48672,180.22012v-1.15799" fill="none" stroke="url(#color-5)" stroke-linecap="round"/><path d="M242.55316,173.36911v2.77919" fill="none" stroke="url(#color-6)" stroke-linecap="round"/><path d="M239.35386,180.54868v1.15799" fill="none" stroke="url(#color-7)" stroke-linecap="round"/><path d="M243.42569,182.1591v-1.15799" fill="none" stroke="url(#color-8)" stroke-linecap="round"/></g></g></g></svg>