<svg version="1.1" xmlns="http://www.w3.org/2000/svg" xmlns:xlink="http://www.w3.org/1999/xlink" width="19.94457" height="27.30477" viewBox="0,0,19.94457,27.30477"><defs><linearGradient x1="242.95895" y1="168.37219" x2="242.95895" y2="165.56797" gradientUnits="userSpaceOnUse" id="color-1"><stop offset="0" stop-color="#000000"/><stop offset="1" stop-color="#000000" stop-opacity="0"/></linearGradient><linearGradient x1="242.95895" y1="162.39528" x2="242.95895" y2="165.19948" gradientUnits="userSpaceOnUse" id="color-2"><stop offset="0" stop-color="#ffffff"/><stop offset="1" stop-color="#ffffff" stop-opacity="0"/></linearGradient><linearGradient x1="253.19026" y1="165.35841" x2="250.86036" y2="165.35841" gradientUnits="userSpaceOnUse" id="color-3"><stop offset="0" stop-color="#000000"/><stop offset="1" stop-color="#000000" stop-opacity="0"/></linearGradient><linearGradient x1="250.92945" y1="155.88351" x2="253.21616" y2="155.88351" gradientUnits="userSpaceOnUse" id="color-4"><stop offset="0" stop-color="#ffffff"/><stop offset="1" stop-color="#ffffff" stop-opacity="0"/></linearGradient><linearGradient x1="254.41224" y1="155.88351" x2="252.12553" y2="155.88351" gradientUnits="userSpaceOnUse" id="color-5"><stop offset="0" stop-color="#c7c7c7"/><stop offset="1" stop-color="#c7c7c7" stop-opacity="0"/></linearGradient><linearGradient x1="255.43707" y1="155.80813" x2="253.15035" y2="155.80813" gradientUnits="userSpaceOnUse" id="color-6"><stop offset="0" stop-color="#ffffff"/><stop offset="1" stop-color="#ffffff" stop-opacity="0"/></linearGradient><linearGradient x1="249.88363" y1="155.80813" x2="252.17033" y2="155.80813" gradientUnits="userSpaceOnUse" id="color-7"><stop offset="0" stop-color="#000000"/><stop offset="1" stop-color="#000000" stop-opacity="0"/></linearGradient><linearGradient x1="250.92532" y1="174.96543" x2="253.21202" y2="174.96543" gradientUnits="userSpaceOnUse" id="color-8"><stop offset="0" stop-color="#ffffff"/><stop offset="1" stop-color="#ffffff" stop-opacity="0"/></linearGradient><linearGradient x1="254.4081" y1="174.96543" x2="252.1214" y2="174.96543" gradientUnits="userSpaceOnUse" id="color-9"><stop offset="0" stop-color="#c7c7c7"/><stop offset="1" stop-color="#c7c7c7" stop-opacity="0"/></linearGradient><linearGradient x1="255.43293" y1="175.04082" x2="253.14621" y2="175.04082" gradientUnits="userSpaceOnUse" id="color-10"><stop offset="0" stop-color="#ffffff"/><stop offset="1" stop-color="#ffffff" stop-opacity="0"/></linearGradient><linearGradient x1="249.87949" y1="175.04082" x2="252.1662" y2="175.04082" gradientUnits="userSpaceOnUse" id="color-11"><stop offset="0" stop-color="#000000"/><stop offset="1" stop-color="#000000" stop-opacity="0"/></linearGradient></defs><g transform="translate(-233.85912,-153.43828)"><g data-paper-data="{&quot;isPaintingLayer&quot;:true}" fill-rule="nonzero" stroke-width="1" stroke-linejoin="miter" stroke-miterlimit="10" stroke-dasharray="" stroke-dashoffset="0" style="mix-blend-mode: normal"><g><g><g data-paper-data="{&quot;index&quot;:null}" fill="none" stroke-linecap="round"><path d="M251.55879,165.38374h-17.19967" stroke="#f7b577"/><path d="M251.55879,165.38374h-17.19967" data-paper-data="{&quot;index&quot;:null}" stroke="url(#color-1)"/><path d="M251.55879,165.38374h-17.19967" data-paper-data="{&quot;index&quot;:null}" stroke="url(#color-2)"/></g><path d="M250.86036,164.75061h2.3299v1.2156h-2.3299z" fill="url(#color-3)" stroke="none" stroke-linecap="butt"/></g><g stroke="none" stroke-linecap="butt"><path d="M253.80369,165.36896c0,0 0,-3.49391 0,0.02201c0,0.7156 -0.06318,1.92451 -0.12437,2.53712c-0.13942,1.39592 -0.69899,6.99824 -0.90749,9.08571c-0.04917,0.49233 -0.10622,0.53006 -0.15236,0.09379c-0.21771,-2.05857 -0.85259,-8.06187 -0.99438,-9.40259c-0.05467,-0.51697 -0.1081,-1.50238 -0.1081,-2.11782c0,-3.29373 0,-0.21825 0,-0.21825z" fill="#c2c2c2"/><path d="M252.6717,165.44433h1.06713c0,0 0,-3.49391 0,0.02201c0,0.7156 -0.06318,1.92451 -0.12437,2.53712c-0.13942,1.39592 -0.69899,6.99824 -0.90749,9.08571c-0.04918,0.49233 -0.03621,0.09379 -0.03621,0.09379z" fill="url(#color-4)"/><path d="M252.67093,177.18295c0,0 0.01296,0.39855 -0.03621,-0.09379c-0.2085,-2.08747 -0.76806,-7.68979 -0.90749,-9.08571c-0.06118,-0.61261 -0.12437,-1.82151 -0.12437,-2.53712c0,-3.51593 0,-0.02201 0,-0.02201h1.06713z" data-paper-data="{&quot;index&quot;:null}" fill="url(#color-5)"/><path d="M253.80369,165.3689c0,0 0,-3.07547 0,0.21825c0,0.61545 -0.05343,1.60086 -0.1081,2.11782c-0.14178,1.34072 -0.77668,7.34402 -0.99438,9.40259c-0.04614,0.43627 -0.10319,0.39855 -0.15236,-0.09379c-0.20849,-2.08747 -0.76806,-7.68979 -0.90749,-9.08571c-0.06118,-0.61261 -0.12437,-1.82151 -0.12437,-2.53712c0,-3.51593 0,-0.02201 0,-0.02201z" data-paper-data="{&quot;index&quot;:null}" fill="url(#color-6)"/><path d="M253.80369,165.36896c0,0 0,-3.49391 0,0.02201c0,0.7156 -0.06318,1.92451 -0.12437,2.53712c-0.13942,1.39592 -0.69899,6.99824 -0.90749,9.08571c-0.04917,0.49233 -0.10622,0.53006 -0.15236,0.09379c-0.21771,-2.05857 -0.85259,-8.06187 -0.99438,-9.40259c-0.05467,-0.51697 -0.1081,-1.50238 -0.1081,-2.11782c0,-3.29373 0,-0.21825 0,-0.21825z" fill="url(#color-7)"/></g><g data-paper-data="{&quot;index&quot;:null}" stroke="none" stroke-linecap="butt"><path d="M251.51286,165.48002c0,0 0,3.07548 0,-0.21825c0,-0.61545 0.05343,-1.60085 0.1081,-2.11782c0.14178,-1.34072 0.77667,-7.34402 0.99438,-9.40259c0.04614,-0.43627 0.10319,-0.39854 0.15236,0.09379c0.2085,2.08747 0.76806,7.68979 0.90749,9.08571c0.06119,0.61261 0.12437,1.82152 0.12437,2.53712c0,3.51593 0,0.02201 0,0.02201z" fill="#c2c2c2"/><path d="M252.66663,153.66599c0,0 -0.01296,-0.39854 0.03621,0.09379c0.2085,2.08747 0.76806,7.68979 0.90749,9.08571c0.06119,0.61261 0.12437,1.82152 0.12437,2.53712c0,3.51593 0,0.02201 0,0.02201h-1.06713z" fill="url(#color-8)"/><path d="M252.66586,165.40463h-1.06713c0,0 0,3.49391 0,-0.02201c0,-0.71561 0.06318,-1.92451 0.12437,-2.53712c0.13942,-1.39592 0.69899,-6.99824 0.90749,-9.08571c0.04918,-0.49234 0.03621,-0.09379 0.03621,-0.09379z" data-paper-data="{&quot;index&quot;:null}" fill="url(#color-9)"/><path d="M251.51286,165.48c0,0 0,3.49391 0,-0.02201c0,-0.71561 0.06318,-1.92451 0.12437,-2.53712c0.13942,-1.39592 0.69899,-6.99824 0.90749,-9.08571c0.04917,-0.49234 0.10622,-0.53006 0.15236,-0.09379c0.2177,2.05857 0.85259,8.06187 0.99438,9.40259c0.05468,0.51696 0.1081,1.50237 0.1081,2.11782c0,3.29372 0,0.21825 0,0.21825z" data-paper-data="{&quot;index&quot;:null}" fill="url(#color-10)"/><path d="M251.51286,165.48002c0,0 0,3.07548 0,-0.21825c0,-0.61545 0.05343,-1.60085 0.1081,-2.11782c0.14178,-1.34072 0.77667,-7.34402 0.99438,-9.40259c0.04614,-0.43627 0.10319,-0.39854 0.15236,0.09379c0.2085,2.08747 0.76806,7.68979 0.90749,9.08571c0.06119,0.61261 0.12437,1.82152 0.12437,2.53712c0,3.51593 0,0.02201 0,0.02201z" fill="url(#color-11)"/></g></g><path d="M240.09667,180.24305c0,0 -2.25597,-5.20946 -2.76657,-7.7284c-0.48842,-2.40953 -0.23343,-7.0716 -0.23343,-7.0716" fill="none" stroke="#000000" stroke-linecap="round"/></g></g></svg>