<svg version="1.1" xmlns="http://www.w3.org/2000/svg" xmlns:xlink="http://www.w3.org/1999/xlink" width="13.88889" height="70.98954" viewBox="0,0,13.88889,70.98954"><defs><linearGradient x1="237.67167" y1="207.68692" x2="239.85645" y2="207.68692" gradientUnits="userSpaceOnUse" id="color-1"><stop offset="0" stop-color="#000000"/><stop offset="1" stop-color="#000000" stop-opacity="0"/></linearGradient><linearGradient x1="242.32831" y1="207.68692" x2="240.14354" y2="207.68692" gradientUnits="userSpaceOnUse" id="color-2"><stop offset="0" stop-color="#ffffff"/><stop offset="1" stop-color="#ffffff" stop-opacity="0"/></linearGradient><linearGradient x1="233.37681" y1="172.55516" x2="242.12681" y2="172.55516" gradientUnits="userSpaceOnUse" id="color-3"><stop offset="0" stop-color="#ffffff"/><stop offset="1" stop-color="#ffffff" stop-opacity="0"/></linearGradient><linearGradient x1="246.70357" y1="172.55516" x2="237.95357" y2="172.55516" gradientUnits="userSpaceOnUse" id="color-4"><stop offset="0" stop-color="#c7c7c7"/><stop offset="1" stop-color="#c7c7c7" stop-opacity="0"/></linearGradient><linearGradient x1="250.625" y1="172.6512" x2="241.875" y2="172.6512" gradientUnits="userSpaceOnUse" id="color-5"><stop offset="0" stop-color="#ffffff"/><stop offset="1" stop-color="#ffffff" stop-opacity="0"/></linearGradient><linearGradient x1="229.375" y1="172.6512" x2="238.125" y2="172.6512" gradientUnits="userSpaceOnUse" id="color-6"><stop offset="0" stop-color="#000000"/><stop offset="1" stop-color="#000000" stop-opacity="0"/></linearGradient><linearGradient x1="240.00908" y1="199.74877" x2="240.00908" y2="202.37377" gradientUnits="userSpaceOnUse" id="color-7"><stop offset="0" stop-color="#000000"/><stop offset="1" stop-color="#000000" stop-opacity="0"/></linearGradient><linearGradient x1="234.5964" y1="200.31029" x2="241.41143" y2="200.31029" gradientUnits="userSpaceOnUse" id="color-8"><stop offset="0" stop-color="#ffffff"/><stop offset="1" stop-color="#ffffff" stop-opacity="0"/></linearGradient><linearGradient x1="245.47462" y1="200.31028" x2="238.65959" y2="200.31028" gradientUnits="userSpaceOnUse" id="color-9"><stop offset="0" stop-color="#464646"/><stop offset="1" stop-color="#464646" stop-opacity="0"/></linearGradient><linearGradient x1="258.03536" y1="200.31029" x2="244.14647" y2="200.31029" gradientUnits="userSpaceOnUse" id="color-10"><stop offset="0" stop-color="#ffffff"/><stop offset="1" stop-color="#ffffff" stop-opacity="0"/></linearGradient><linearGradient x1="221.96465" y1="200.31029" x2="235.85354" y2="200.31029" gradientUnits="userSpaceOnUse" id="color-11"><stop offset="0" stop-color="#000000"/><stop offset="1" stop-color="#000000" stop-opacity="0"/></linearGradient><linearGradient x1="236.6875" y1="214.86977" x2="239.1875" y2="214.86977" gradientUnits="userSpaceOnUse" id="color-12"><stop offset="0" stop-color="#000000"/><stop offset="1" stop-color="#000000" stop-opacity="0"/></linearGradient><linearGradient x1="240.75" y1="214.86977" x2="243.25" y2="214.86977" gradientUnits="userSpaceOnUse" id="color-13"><stop offset="0" stop-color="#ffffff" stop-opacity="0"/><stop offset="1" stop-color="#ffffff"/></linearGradient></defs><g transform="translate(-233.05555,-145.13023)"><g data-paper-data="{&quot;isPaintingLayer&quot;:true}" fill-rule="nonzero" stroke-linejoin="miter" stroke-miterlimit="10" stroke-dasharray="" stroke-dashoffset="0" style="mix-blend-mode: normal"><g><g><g data-paper-data="{&quot;index&quot;:null}" fill="none" stroke-width="2" stroke-linecap="round"><path d="M239.99999,200.98674v13.40035" stroke="#f7b577"/><path d="M239.99999,200.98674v13.40035" data-paper-data="{&quot;index&quot;:null}" stroke="url(#color-1)"/><path d="M239.99999,200.98674v13.40035" data-paper-data="{&quot;index&quot;:null}" stroke="url(#color-2)"/></g><g stroke="none" stroke-width="0" stroke-linecap="butt"><g><path d="M235.625,200.17215c0,0 0,-35.78305 0,-39.97916c0,-0.78405 0.20443,-2.03943 0.41363,-2.69803c0.54255,-1.70804 2.97192,-9.35607 3.80497,-11.97862c0.17655,-0.55579 0.39484,-0.50773 0.583,0.11949c0.79782,2.65938 2.93898,9.79657 3.47248,11.57493c0.23414,0.78045 0.47591,2.32056 0.47591,3.23222c0,4.47918 0,39.72916 0,39.72916z" fill="#f3c886"/><path d="M240.03986,145.42031c0,0 -0.04961,-0.50773 0.13855,0.11949c0.79782,2.65938 2.93897,9.79657 3.47248,11.57493c0.23414,0.78045 0.47592,2.32056 0.47592,3.23222c0,4.47918 0,39.72916 0,39.72916h-4.08334z" fill="url(#color-3)"/><path d="M240.03691,200.07611h-4.08333c0,0 0,-35.24998 0,-39.72916c0,-0.91167 0.24178,-2.45177 0.47591,-3.23222c0.5335,-1.77836 2.67466,-8.91555 3.47248,-11.57493c0.18816,-0.62722 0.13855,-0.11949 0.13855,-0.11949z" data-paper-data="{&quot;index&quot;:null}" fill="url(#color-4)"/></g><path d="M235.625,200.17215c0,0 0,-35.24998 0,-39.72916c0,-0.91167 0.24178,-2.45177 0.47591,-3.23222c0.5335,-1.77836 2.67467,-8.91555 3.47248,-11.57493c0.18816,-0.62722 0.40645,-0.67528 0.583,-0.11949c0.83304,2.62255 3.26242,10.27058 3.80497,11.97862c0.2092,0.65859 0.41363,1.91397 0.41363,2.69803c0,4.1961 0,39.97916 0,39.97916z" data-paper-data="{&quot;index&quot;:null}" fill="url(#color-5)"/><path d="M235.625,200.17215c0,0 0,-35.78305 0,-39.97916c0,-0.78405 0.20443,-2.03943 0.41363,-2.69803c0.54255,-1.70804 2.97192,-9.35607 3.80497,-11.97862c0.17655,-0.55579 0.39484,-0.50773 0.583,0.11949c0.79782,2.65938 2.93898,9.79657 3.47248,11.57493c0.23414,0.78045 0.47591,2.32056 0.47591,3.23222c0,4.47918 0,39.72916 0,39.72916z" fill="url(#color-6)"/></g><path d="M239.04033,202.37377v-2.625h1.9375v2.625z" fill="url(#color-7)" stroke="none" stroke-width="2" stroke-linecap="butt"/><g stroke="none" stroke-width="0" stroke-linecap="butt"><path d="M233.05556,201.67898v-2.55555h13.88889v2.55555z" fill="#e2b97c"/><path d="M240.03851,201.67898v-2.55555h6.81502v2.55555z" data-paper-data="{&quot;index&quot;:null}" fill="url(#color-8)"/><path d="M233.21749,201.67898v-2.55555h6.81502v2.55555z" data-paper-data="{&quot;index&quot;:null}" fill="url(#color-9)"/><path d="M233.05556,201.67898v-2.55555h13.88889v2.55555z" data-paper-data="{&quot;index&quot;:null}" fill="url(#color-10)"/><path d="M233.05556,201.67898v-2.55555h13.88889v2.55555z" data-paper-data="{&quot;index&quot;:null}" fill="url(#color-11)"/></g></g><g fill="none" stroke-width="2.5" stroke-linecap="round"><path d="M239.73733,214.86977h0.52535" stroke="#d5af77"/><path d="M239.73733,214.86977h0.52535" data-paper-data="{&quot;index&quot;:null}" stroke="url(#color-12)"/><path d="M239.73733,214.86977h0.52535" data-paper-data="{&quot;index&quot;:null}" stroke="url(#color-13)"/></g></g></g></g></svg>