<svg version="1.1" xmlns="http://www.w3.org/2000/svg" xmlns:xlink="http://www.w3.org/1999/xlink" width="12.03381" height="12.04793" viewBox="0,0,12.03381,12.04793"><defs><linearGradient x1="223.40276" y1="178.78094" x2="235.42033" y2="178.78094" gradientUnits="userSpaceOnUse" id="color-1"><stop offset="0" stop-color="#000000"/><stop offset="1" stop-color="#000000" stop-opacity="0"/></linearGradient><linearGradient x1="238.76577" y1="196.61242" x2="238.76577" y2="184.59485" gradientUnits="userSpaceOnUse" id="color-2"><stop offset="0" stop-color="#000000"/><stop offset="1" stop-color="#000000" stop-opacity="0"/></linearGradient><linearGradient x1="256.59724" y1="181.24942" x2="244.57967" y2="181.24942" gradientUnits="userSpaceOnUse" id="color-3"><stop offset="0" stop-color="#ffffff"/><stop offset="1" stop-color="#ffffff" stop-opacity="0"/></linearGradient><linearGradient x1="241.23424" y1="163.41793" x2="241.23424" y2="175.43551" gradientUnits="userSpaceOnUse" id="color-4"><stop offset="0" stop-color="#ffffff"/><stop offset="1" stop-color="#ffffff" stop-opacity="0"/></linearGradient><linearGradient x1="230.57995" y1="179.31466" x2="237.40073" y2="179.31466" gradientUnits="userSpaceOnUse" id="color-5"><stop offset="0" stop-color="#000000"/><stop offset="1" stop-color="#000000" stop-opacity="0"/></linearGradient><linearGradient x1="239.29949" y1="189.43523" x2="239.29949" y2="182.61445" gradientUnits="userSpaceOnUse" id="color-6"><stop offset="0" stop-color="#000000"/><stop offset="1" stop-color="#000000" stop-opacity="0"/></linearGradient><linearGradient x1="240.70052" y1="170.59512" x2="240.70052" y2="177.4159" gradientUnits="userSpaceOnUse" id="color-7"><stop offset="0" stop-color="#000000"/><stop offset="1" stop-color="#000000" stop-opacity="0"/></linearGradient><linearGradient x1="249.42006" y1="180.71569" x2="242.59927" y2="180.71569" gradientUnits="userSpaceOnUse" id="color-8"><stop offset="0" stop-color="#000000"/><stop offset="1" stop-color="#000000" stop-opacity="0"/></linearGradient><linearGradient x1="235.1554" y1="179.65491" x2="238.66323" y2="179.65491" gradientUnits="userSpaceOnUse" id="color-9"><stop offset="0" stop-color="#000000"/><stop offset="1" stop-color="#000000" stop-opacity="0"/></linearGradient><linearGradient x1="239.63974" y1="184.85978" x2="239.63974" y2="181.35194" gradientUnits="userSpaceOnUse" id="color-10"><stop offset="0" stop-color="#000000"/><stop offset="1" stop-color="#000000" stop-opacity="0"/></linearGradient><linearGradient x1="240.36027" y1="175.17058" x2="240.36027" y2="178.67841" gradientUnits="userSpaceOnUse" id="color-11"><stop offset="0" stop-color="#ffffff"/><stop offset="1" stop-color="#ffffff" stop-opacity="0"/></linearGradient><linearGradient x1="244.8446" y1="180.37544" x2="241.33677" y2="180.37544" gradientUnits="userSpaceOnUse" id="color-12"><stop offset="0" stop-color="#ffffff"/><stop offset="1" stop-color="#ffffff" stop-opacity="0"/></linearGradient><linearGradient x1="240" y1="174.92232" x2="240" y2="179.34609" gradientUnits="userSpaceOnUse" id="color-13"><stop offset="0" stop-color="#000000"/><stop offset="1" stop-color="#000000" stop-opacity="0"/></linearGradient><linearGradient x1="240.07795" y1="177.40592" x2="240.07795" y2="183.27668" gradientUnits="userSpaceOnUse" id="color-14"><stop offset="0" stop-color="#000000" stop-opacity="0"/><stop offset="1" stop-color="#000000"/></linearGradient><linearGradient x1="239.80512" y1="169.182" x2="239.80512" y2="175.05276" gradientUnits="userSpaceOnUse" id="color-15"><stop offset="0" stop-color="#ffffff"/><stop offset="1" stop-color="#ffffff" stop-opacity="0"/></linearGradient></defs><g transform="translate(-233.98308,-173.97602)"><g data-paper-data="{&quot;isPaintingLayer&quot;:true}" fill-rule="nonzero" stroke="none" stroke-width="0" stroke-linecap="butt" stroke-linejoin="miter" stroke-miterlimit="10" stroke-dasharray="" stroke-dashoffset="0" style="mix-blend-mode: normal"><g><g><path d="M233.99122,186.02396v-12.01757h12.01757v12.01757z" fill="#806947"/><path d="M233.99122,186.02396v-12.01757h12.01757v12.01757z" fill="url(#color-1)"/><path d="M246.00879,186.02396h-12.01757v-12.01757h12.01757z" fill="url(#color-2)"/><path d="M246.00879,174.00639v12.01757h-12.01757v-12.01757z" fill="url(#color-3)"/><path d="M233.99122,174.00639h12.01757v12.01757h-12.01757z" fill="url(#color-4)"/></g><g><path d="M236.58961,183.42557v-6.82078h6.82078v6.82078z" fill="#806947"/><path d="M236.58961,183.42557v-6.82078h6.82078v6.82078z" fill="url(#color-5)"/><path d="M243.41039,183.42557h-6.82078v-6.82078h6.82078z" fill="url(#color-6)"/><path d="M236.58961,176.60478h6.82078v6.82078h-6.82078z" fill="url(#color-7)"/><path d="M243.41039,176.60478v6.82078h-6.82078v-6.82078z" fill="url(#color-8)"/></g><g><path d="M238.24609,181.76909v-3.50783h3.50783v3.50783z" fill="#806947"/><path d="M238.24609,181.76909v-3.50783h3.50783v3.50783z" fill="url(#color-9)"/><path d="M241.75392,181.76909h-3.50783v-3.50783h3.50783z" fill="url(#color-10)"/><path d="M238.24609,178.26126h3.50783v3.50783h-3.50783z" fill="url(#color-11)"/><path d="M241.75392,178.26126v3.50783h-3.50783v-3.50783z" fill="url(#color-12)"/></g><path d="M233.98309,179.34609v-4.42377h12.03381v4.42377z" fill="url(#color-13)"/><g><path d="M233.99121,178.73659v-4.76055h12.01757v4.76055l-0.82823,-0.6002l-0.63547,1.71041l-0.63963,-1.51649l-0.41545,0.71184l-0.48065,-0.86699l-0.60398,1.28231l-0.55316,-1.45862l-0.7069,0.83049l-0.76908,-0.59216l-0.46058,0.92891l-1.06499,-1.6017l-0.69914,1.25367l-0.78103,-0.72036l-0.46522,1.33405l-0.7792,-1.42063l-0.509,0.88688l-0.62538,-0.70708z" fill="#99be87"/><path d="M233.99121,177.72321v-3.74718h12.01757v3.74718l-0.82823,-0.6002l-0.63547,1.71041l-0.63963,-1.51649l-0.41545,0.71184l-0.48065,-0.86699l-0.60398,1.28231l-0.55316,-1.45862l-0.7069,0.83049l-0.76908,-0.59216l-0.46058,0.92891l-1.06499,-1.6017l-0.69914,1.25367l-0.78103,-0.72036l-0.46522,1.33405l-0.7792,-1.42063l-0.509,0.88688l-0.62538,-0.70708z" fill="#afd89a"/><path d="M233.99121,178.73659v-4.76055h12.01757v4.76055l-0.82823,-0.6002l-0.63547,1.71041l-0.63963,-1.51649l-0.41545,0.71184l-0.48065,-0.86699l-0.60398,1.28231l-0.55316,-1.45862l-0.7069,0.83049l-0.76908,-0.59216l-0.46058,0.92891l-1.06499,-1.6017l-0.69914,1.25367l-0.78103,-0.72036l-0.46522,1.33405l-0.7792,-1.42063l-0.509,0.88688l-0.62538,-0.70708z" fill="url(#color-14)"/><path d="M233.99121,178.73659v-4.76055h12.01757v4.76055l-0.82823,-0.6002l-0.63547,1.71041l-0.63963,-1.51649l-0.41545,0.71184l-0.48065,-0.86699l-0.60398,1.28231l-0.55316,-1.45862l-0.7069,0.83049l-0.76908,-0.59216l-0.46058,0.92891l-1.06499,-1.6017l-0.69914,1.25367l-0.78103,-0.72036l-0.46522,1.33405l-0.7792,-1.42063l-0.509,0.88688l-0.62538,-0.70708z" fill="url(#color-15)"/></g></g></g></g></svg>