<svg version="1.1" xmlns="http://www.w3.org/2000/svg" xmlns:xlink="http://www.w3.org/1999/xlink" width="7.63435" height="19.30934" viewBox="0,0,7.63435,19.30934"><defs><linearGradient x1="234.268" y1="172.19413" x2="237.26949" y2="167.56126" gradientUnits="userSpaceOnUse" id="color-1"><stop offset="0" stop-color="#000000"/><stop offset="1" stop-color="#000000" stop-opacity="0"/></linearGradient><linearGradient x1="231.23087" y1="161.81801" x2="235.86374" y2="164.8195" gradientUnits="userSpaceOnUse" id="color-2"><stop offset="0" stop-color="#000000"/><stop offset="1" stop-color="#000000" stop-opacity="0"/></linearGradient><linearGradient x1="241.60699" y1="158.78088" x2="238.6055" y2="163.41375" gradientUnits="userSpaceOnUse" id="color-3"><stop offset="0" stop-color="#ffffff"/><stop offset="1" stop-color="#ffffff" stop-opacity="0"/></linearGradient><linearGradient x1="244.64412" y1="169.157" x2="240.01125" y2="166.15551" gradientUnits="userSpaceOnUse" id="color-4"><stop offset="0" stop-color="#ffffff"/><stop offset="1" stop-color="#ffffff" stop-opacity="0"/></linearGradient><linearGradient x1="235.85481" y1="169.29396" x2="237.55836" y2="166.6645" gradientUnits="userSpaceOnUse" id="color-5"><stop offset="0" stop-color="#000000"/><stop offset="1" stop-color="#000000" stop-opacity="0"/></linearGradient><linearGradient x1="234.13103" y1="163.40482" x2="236.7605" y2="165.10836" gradientUnits="userSpaceOnUse" id="color-6"><stop offset="0" stop-color="#000000"/><stop offset="1" stop-color="#000000" stop-opacity="0"/></linearGradient><linearGradient x1="241.74396" y1="167.57019" x2="239.11449" y2="165.86665" gradientUnits="userSpaceOnUse" id="color-7"><stop offset="0" stop-color="#000000"/><stop offset="1" stop-color="#000000" stop-opacity="0"/></linearGradient><linearGradient x1="240.02018" y1="161.68104" x2="238.31663" y2="164.31051" gradientUnits="userSpaceOnUse" id="color-8"><stop offset="0" stop-color="#000000"/><stop offset="1" stop-color="#000000" stop-opacity="0"/></linearGradient><linearGradient x1="236.8664" y1="167.44511" x2="237.74251" y2="166.09282" gradientUnits="userSpaceOnUse" id="color-9"><stop offset="0" stop-color="#000000"/><stop offset="1" stop-color="#000000" stop-opacity="0"/></linearGradient><linearGradient x1="235.97989" y1="164.41641" x2="237.33218" y2="165.29252" gradientUnits="userSpaceOnUse" id="color-10"><stop offset="0" stop-color="#000000"/><stop offset="1" stop-color="#000000" stop-opacity="0"/></linearGradient><linearGradient x1="239.8951" y1="166.5586" x2="238.54281" y2="165.68249" gradientUnits="userSpaceOnUse" id="color-11"><stop offset="0" stop-color="#ffffff"/><stop offset="1" stop-color="#ffffff" stop-opacity="0"/></linearGradient><linearGradient x1="239.00859" y1="163.5299" x2="238.13248" y2="164.88219" gradientUnits="userSpaceOnUse" id="color-12"><stop offset="0" stop-color="#ffffff"/><stop offset="1" stop-color="#ffffff" stop-opacity="0"/></linearGradient></defs><g transform="translate(-234.12032,-161.67033)"><g data-paper-data="{&quot;isPaintingLayer&quot;:true}" fill-rule="nonzero" stroke-linejoin="miter" stroke-miterlimit="10" stroke-dasharray="" stroke-dashoffset="0" style="mix-blend-mode: normal"><path d="M240.09666,180.47967c0,0 -2.25597,-5.20946 -2.76657,-7.7284c-0.48842,-2.40953 -0.23343,-7.0716 -0.23343,-7.0716" data-paper-data="{&quot;index&quot;:null}" fill="none" stroke="#000000" stroke-width="1" stroke-linecap="round"/><g data-paper-data="{&quot;index&quot;:null}" stroke="none" stroke-width="0" stroke-linecap="butt"><g><path d="M237.12181,161.67033l4.63286,3.00149l-3.00149,4.63286l-4.63286,-3.00149z" fill="#a2a2a2"/><path d="M237.12181,161.67033l4.63286,3.00149l-3.00149,4.63286l-4.63286,-3.00149z" fill="url(#color-1)"/><path d="M241.75467,164.67182l-3.00149,4.63286l-4.63286,-3.00149l3.00149,-4.63286z" fill="url(#color-2)"/><path d="M238.75318,169.30468l-4.63286,-3.00149l3.00149,-4.63286l4.63286,3.00149z" fill="url(#color-3)"/><path d="M234.12032,166.30319l3.00149,-4.63286l4.63286,3.00149l-3.00149,4.63286z" fill="url(#color-4)"/></g><g><path d="M237.47454,163.321l2.62946,1.70355l-1.70355,2.62946l-2.62946,-1.70355z" fill="#a2a2a2"/><path d="M237.47454,163.321l2.62946,1.70355l-1.70355,2.62946l-2.62946,-1.70355z" fill="url(#color-5)"/><path d="M240.104,165.02455l-1.70355,2.62946l-2.62946,-1.70355l1.70355,-2.62946z" fill="url(#color-6)"/><path d="M235.77099,165.95046l1.70355,-2.62946l2.62946,1.70355l-1.70355,2.62946z" fill="url(#color-7)"/><path d="M238.40045,167.65401l-2.62946,-1.70355l1.70355,-2.62946l2.62946,1.70355z" fill="url(#color-8)"/></g><g><path d="M237.6994,164.3733l1.35229,0.87611l-0.87611,1.35229l-1.35229,-0.87611z" fill="#a2a2a2"/><path d="M237.6994,164.3733l1.35229,0.87611l-0.87611,1.35229l-1.35229,-0.87611z" fill="url(#color-9)"/><path d="M239.05169,165.24941l-0.87611,1.35229l-1.35229,-0.87611l0.87611,-1.35229z" fill="url(#color-10)"/><path d="M236.8233,165.72559l0.87611,-1.35229l1.35229,0.87611l-0.87611,1.35229z" fill="url(#color-11)"/><path d="M238.17559,166.6017l-1.35229,-0.87611l0.87611,-1.35229l1.35229,0.87611z" fill="url(#color-12)"/></g></g></g></g></svg>