<svg version="1.1" xmlns="http://www.w3.org/2000/svg" xmlns:xlink="http://www.w3.org/1999/xlink" width="6.85095" height="19.35514" viewBox="0,0,6.85095,19.35514"><defs><linearGradient x1="235.27347" y1="188.56279" x2="237.24824" y2="193.43896" gradientUnits="userSpaceOnUse" id="color-1"><stop offset="0" stop-color="#000000"/><stop offset="1" stop-color="#000000" stop-opacity="0"/></linearGradient><linearGradient x1="230.56279" y1="197.72652" x2="235.43896" y2="195.75175" gradientUnits="userSpaceOnUse" id="color-2"><stop offset="0" stop-color="#000000"/><stop offset="1" stop-color="#000000" stop-opacity="0"/></linearGradient><linearGradient x1="239.72652" y1="202.4372" x2="237.75175" y2="197.56103" gradientUnits="userSpaceOnUse" id="color-3"><stop offset="0" stop-color="#ffffff"/><stop offset="1" stop-color="#ffffff" stop-opacity="0"/></linearGradient><linearGradient x1="244.43721" y1="193.27347" x2="239.56103" y2="195.24824" gradientUnits="userSpaceOnUse" id="color-4"><stop offset="0" stop-color="#ffffff"/><stop offset="1" stop-color="#ffffff" stop-opacity="0"/></linearGradient><linearGradient x1="236.23629" y1="191.56266" x2="237.35711" y2="194.33022" gradientUnits="userSpaceOnUse" id="color-5"><stop offset="0" stop-color="#000000"/><stop offset="1" stop-color="#000000" stop-opacity="0"/></linearGradient><linearGradient x1="233.56266" y1="196.7637" x2="236.33022" y2="195.64288" gradientUnits="userSpaceOnUse" id="color-6"><stop offset="0" stop-color="#000000"/><stop offset="1" stop-color="#000000" stop-opacity="0"/></linearGradient><linearGradient x1="241.43733" y1="194.23629" x2="238.66977" y2="195.35711" gradientUnits="userSpaceOnUse" id="color-7"><stop offset="0" stop-color="#000000"/><stop offset="1" stop-color="#000000" stop-opacity="0"/></linearGradient><linearGradient x1="238.7637" y1="199.43733" x2="237.64288" y2="196.66977" gradientUnits="userSpaceOnUse" id="color-8"><stop offset="0" stop-color="#000000"/><stop offset="1" stop-color="#000000" stop-opacity="0"/></linearGradient><linearGradient x1="236.85009" y1="193.47508" x2="237.42651" y2="194.8984" gradientUnits="userSpaceOnUse" id="color-9"><stop offset="0" stop-color="#000000"/><stop offset="1" stop-color="#000000" stop-opacity="0"/></linearGradient><linearGradient x1="235.47508" y1="196.1499" x2="236.8984" y2="195.57348" gradientUnits="userSpaceOnUse" id="color-10"><stop offset="0" stop-color="#000000"/><stop offset="1" stop-color="#000000" stop-opacity="0"/></linearGradient><linearGradient x1="239.52491" y1="194.85009" x2="238.10159" y2="195.42651" gradientUnits="userSpaceOnUse" id="color-11"><stop offset="0" stop-color="#ffffff"/><stop offset="1" stop-color="#ffffff" stop-opacity="0"/></linearGradient><linearGradient x1="238.1499" y1="197.52491" x2="237.57348" y2="196.10159" gradientUnits="userSpaceOnUse" id="color-12"><stop offset="0" stop-color="#ffffff"/><stop offset="1" stop-color="#ffffff" stop-opacity="0"/></linearGradient></defs><g transform="translate(-234.07452,-179.57033)"><g data-paper-data="{&quot;isPaintingLayer&quot;:true}" fill-rule="nonzero" stroke-linejoin="miter" stroke-miterlimit="10" stroke-dasharray="" stroke-dashoffset="0" style="mix-blend-mode: normal"><path d="M237.09666,194.87033c0,0 -0.25499,-4.66207 0.23343,-7.0716c0.5106,-2.51894 2.76657,-7.7284 2.76657,-7.7284" fill="none" stroke="#000000" stroke-width="1" stroke-linecap="round"/><g stroke="none" stroke-width="0" stroke-linecap="butt"><g><path d="M234.07452,194.04929l4.87618,-1.97478l1.97478,4.87618l-4.87618,1.97478z" fill="#5f5f5f"/><path d="M234.07452,194.04929l4.87618,-1.97478l1.97478,4.87618l-4.87618,1.97478z" fill="url(#color-1)"/><path d="M236.04929,198.92547l-1.97478,-4.87618l4.87618,-1.97478l1.97478,4.87618z" fill="url(#color-2)"/><path d="M240.92547,196.9507l-4.87618,1.97478l-1.97478,-4.87618l4.87618,-1.97478z" fill="url(#color-3)"/><path d="M238.9507,192.07452l1.97478,4.87618l-4.87618,1.97478l-1.97478,-4.87618z" fill="url(#color-4)"/></g><g><path d="M235.5558,194.67662l2.76756,-1.12082l1.12082,2.76756l-2.76756,1.12082z" fill="#5f5f5f"/><path d="M235.5558,194.67662l2.76756,-1.12082l1.12082,2.76756l-2.76756,1.12082z" fill="url(#color-5)"/><path d="M236.67662,197.44419l-1.12082,-2.76756l2.76756,-1.12082l1.12082,2.76756z" fill="url(#color-6)"/><path d="M238.32337,193.5558l1.12082,2.76756l-2.76756,1.12082l-1.12082,-2.76756z" fill="url(#color-7)"/><path d="M239.44419,196.32337l-2.76756,1.12082l-1.12082,-2.76756l2.76756,-1.12082z" fill="url(#color-8)"/></g><g><path d="M236.50013,195.07655l1.42332,-0.57642l0.57642,1.42332l-1.42332,0.57642z" fill="#5f5f5f"/><path d="M236.50013,195.07655l1.42332,-0.57642l0.57642,1.42332l-1.42332,0.57642z" fill="url(#color-9)"/><path d="M237.07655,196.49987l-0.57642,-1.42332l1.42332,-0.57642l0.57642,1.42332z" fill="url(#color-10)"/><path d="M237.92344,194.50013l0.57642,1.42332l-1.42332,0.57642l-0.57642,-1.42332z" fill="url(#color-11)"/><path d="M238.49986,195.92345l-1.42332,0.57642l-0.57642,-1.42332l1.42332,-0.57642z" fill="url(#color-12)"/></g></g></g></g></svg>