<svg version="1.1" xmlns="http://www.w3.org/2000/svg" xmlns:xlink="http://www.w3.org/1999/xlink" width="12.0931" height="12.0407" viewBox="0,0,12.0931,12.0407"><defs><linearGradient x1="225.49909" y1="179.62499" x2="237.25886" y2="179.62499" gradientUnits="userSpaceOnUse" id="color-1"><stop offset="0" stop-color="#000000"/><stop offset="1" stop-color="#000000" stop-opacity="0"/></linearGradient><linearGradient x1="254.50093" y1="179.62499" x2="242.74116" y2="179.62499" gradientUnits="userSpaceOnUse" id="color-2"><stop offset="0" stop-color="#ffffff"/><stop offset="1" stop-color="#ffffff" stop-opacity="0"/></linearGradient><linearGradient x1="239.17896" y1="181.14796" x2="239.17896" y2="193.27198" gradientUnits="userSpaceOnUse" id="color-3"><stop offset="0" stop-color="#000000" stop-opacity="0"/><stop offset="1" stop-color="#000000"/></linearGradient><linearGradient x1="239.76542" y1="164.99931" x2="239.76542" y2="177.12332" gradientUnits="userSpaceOnUse" id="color-4"><stop offset="0" stop-color="#ffffff"/><stop offset="1" stop-color="#ffffff" stop-opacity="0"/></linearGradient><linearGradient x1="226.62942" y1="179.95833" x2="237.47252" y2="179.95833" gradientUnits="userSpaceOnUse" id="color-5"><stop offset="0" stop-color="#000000"/><stop offset="1" stop-color="#000000" stop-opacity="0"/></linearGradient><linearGradient x1="253.37057" y1="179.95833" x2="242.52748" y2="179.95833" gradientUnits="userSpaceOnUse" id="color-6"><stop offset="0" stop-color="#000000"/><stop offset="1" stop-color="#000000" stop-opacity="0"/></linearGradient><linearGradient x1="239.24295" y1="181.388" x2="239.24295" y2="192.10593" gradientUnits="userSpaceOnUse" id="color-7"><stop offset="0" stop-color="#000000" stop-opacity="0"/><stop offset="1" stop-color="#000000"/></linearGradient><linearGradient x1="239.7837" y1="167.02886" x2="239.7837" y2="177.74679" gradientUnits="userSpaceOnUse" id="color-8"><stop offset="0" stop-color="#000000"/><stop offset="1" stop-color="#000000" stop-opacity="0"/></linearGradient><linearGradient x1="226.54609" y1="180" x2="237.38919" y2="180" gradientUnits="userSpaceOnUse" id="color-9"><stop offset="0" stop-color="#000000"/><stop offset="1" stop-color="#000000" stop-opacity="0"/></linearGradient><linearGradient x1="226.54609" y1="180" x2="237.38919" y2="180" gradientUnits="userSpaceOnUse" id="color-10"><stop offset="0" stop-color="#000000"/><stop offset="1" stop-color="#000000" stop-opacity="0"/></linearGradient><linearGradient x1="253.28724" y1="180" x2="242.44415" y2="180" gradientUnits="userSpaceOnUse" id="color-11"><stop offset="0" stop-color="#ffffff"/><stop offset="1" stop-color="#ffffff" stop-opacity="0"/></linearGradient><linearGradient x1="253.28724" y1="180" x2="242.44415" y2="180" gradientUnits="userSpaceOnUse" id="color-12"><stop offset="0" stop-color="#ffffff"/><stop offset="1" stop-color="#ffffff" stop-opacity="0"/></linearGradient><linearGradient x1="239.15962" y1="181.34634" x2="239.15962" y2="192.06426" gradientUnits="userSpaceOnUse" id="color-13"><stop offset="0" stop-color="#000000" stop-opacity="0"/><stop offset="1" stop-color="#000000"/></linearGradient><linearGradient x1="239.15962" y1="181.34634" x2="239.15962" y2="192.06426" gradientUnits="userSpaceOnUse" id="color-14"><stop offset="0" stop-color="#000000" stop-opacity="0"/><stop offset="1" stop-color="#000000"/></linearGradient><linearGradient x1="239.70037" y1="167.07052" x2="239.70037" y2="177.78845" gradientUnits="userSpaceOnUse" id="color-15"><stop offset="0" stop-color="#ffffff"/><stop offset="1" stop-color="#ffffff" stop-opacity="0"/></linearGradient><linearGradient x1="239.70037" y1="167.07052" x2="239.70037" y2="177.78845" gradientUnits="userSpaceOnUse" id="color-16"><stop offset="0" stop-color="#ffffff"/><stop offset="1" stop-color="#ffffff" stop-opacity="0"/></linearGradient></defs><g transform="translate(-233.95345,-173.97964)"><g data-paper-data="{&quot;isPaintingLayer&quot;:true}" fill-rule="nonzero" stroke="none" stroke-width="0" stroke-linecap="butt" stroke-miterlimit="10" stroke-dasharray="" stroke-dashoffset="0" style="mix-blend-mode: normal"><g stroke-linejoin="round"><path d="M240,175.54459c0.49292,-1.16906 1.55678,-1.56494 2.79283,-1.56494c1.70406,0 3.25373,1.53974 3.25373,3.43692c0,3.73636 -6.04656,8.60377 -6.04656,8.60377c0,0 -6.04654,-4.82756 -6.04654,-8.6871c0,-1.89717 1.54967,-3.35359 3.25373,-3.35359c1.23606,0 2.29992,0.39588 2.79282,1.56494z" fill="#d4d4d4"/><path d="M240,175.54459c0.49292,-1.16906 1.55678,-1.56494 2.79283,-1.56494c1.70406,0 3.25373,1.53973 3.25373,3.43692c0,3.73636 -6.04656,8.60377 -6.04656,8.60377c0,0 -6.04654,-4.82756 -6.04654,-8.6871c0,-1.89717 1.54967,-3.35359 3.25373,-3.35359c1.23606,0 2.29992,0.39588 2.79282,1.56494z" fill="url(#color-1)"/><path d="M242.79283,173.97966c1.70406,0 3.25373,1.53973 3.25373,3.43692c0,3.85954 -6.04654,8.60377 -6.04654,8.60377c0,0 -6.04656,-4.95074 -6.04656,-8.6871c0,-1.89717 1.54967,-3.35359 3.25373,-3.35359c1.23605,0 2.29991,0.39588 2.79283,1.56494c0.4929,-1.16906 1.55675,-1.56494 2.79282,-1.56494z" data-paper-data="{&quot;index&quot;:null}" fill="url(#color-2)"/><path d="M240,175.54459c0.49292,-1.16906 1.55678,-1.56494 2.79283,-1.56494c1.70406,0 3.25373,1.53973 3.25373,3.43692c0,3.73636 -6.04656,8.60377 -6.04656,8.60377c0,0 -6.04654,-4.82756 -6.04654,-8.6871c0,-1.89717 1.54967,-3.35359 3.25373,-3.35359c1.23606,0 2.29992,0.39588 2.79282,1.56494z" fill="url(#color-3)"/><path d="M240,175.54459c0.49292,-1.16906 1.55678,-1.56494 2.79283,-1.56494c1.70406,0 3.25373,1.53973 3.25373,3.43692c0,3.73636 -6.04656,8.60377 -6.04656,8.60377c0,0 -6.04654,-4.82756 -6.04654,-8.6871c0,-1.89717 1.54967,-3.35359 3.25373,-3.35359c1.23606,0 2.29992,0.39588 2.79282,1.56494z" fill="url(#color-4)"/></g><g stroke-linejoin="round"><path d="M239.99999,176.35116c0.4545,-1.03348 1.43543,-1.75179 2.57513,-1.75179c1.57123,0 2.84643,1.36117 2.84643,3.03832c0,3.30303 -5.42156,7.67961 -5.42156,7.67961c0,0 -5.42154,-4.26768 -5.42154,-7.67961c0,-1.67715 1.2752,-3.03832 2.84643,-3.03832c1.13971,0 2.12064,0.71831 2.57512,1.75179z" fill="#b1b1b1"/><path d="M239.99999,176.35116c0.4545,-1.03348 1.43543,-1.75179 2.57513,-1.75179c1.57123,0 2.84643,1.36116 2.84643,3.03832c0,3.30303 -5.42156,7.67961 -5.42156,7.67961c0,0 -5.42154,-4.26768 -5.42154,-7.67961c0,-1.67715 1.2752,-3.03832 2.84643,-3.03832c1.13971,0 2.12064,0.71831 2.57512,1.75179z" fill="url(#color-5)"/><path d="M242.57512,174.59937c1.57123,0 2.84643,1.36116 2.84643,3.03832c0,3.41193 -5.42154,7.67961 -5.42154,7.67961c0,0 -5.42156,-4.37658 -5.42156,-7.67961c0,-1.67715 1.2752,-3.03832 2.84643,-3.03832c1.1397,0 2.12063,0.71831 2.57513,1.75179c0.45448,-1.03348 1.4354,-1.75179 2.57512,-1.75179z" data-paper-data="{&quot;index&quot;:null}" fill="url(#color-6)"/><path d="M239.99999,176.43449c0.4545,-1.03348 1.43543,-1.75179 2.57513,-1.75179c1.57123,0 2.84643,1.36116 2.84643,3.03832c0,3.30303 -5.42156,7.67961 -5.42156,7.67961c0,0 -5.42154,-4.26768 -5.42154,-7.67961c0,-1.67715 1.2752,-3.03832 2.84643,-3.03832c1.13971,0 2.12064,0.71831 2.57512,1.75179z" fill="url(#color-7)"/><path d="M239.99999,176.35116c0.4545,-1.03348 1.43543,-1.75179 2.57513,-1.75179c1.57123,0 2.84643,1.36116 2.84643,3.03832c0,3.30303 -5.42156,7.67961 -5.42156,7.67961c0,0 -5.42154,-4.26768 -5.42154,-7.67961c0,-1.67715 1.2752,-3.03832 2.84643,-3.03832c1.13971,0 2.12064,0.71831 2.57512,1.75179z" fill="url(#color-8)"/></g><g stroke-linejoin="miter"><path d="M239.91666,185.35897c0,0 -5.42154,-4.26768 -5.42154,-7.67961c0,-1.67715 1.2752,-3.03832 2.84643,-3.03832c1.13971,0 2.12063,0.7183 2.57512,1.75178c0.01119,-0.02545 0.02271,-0.05072 0.03454,-0.07578c-0.0462,1.89436 -0.27113,3.24349 0.5336,5.04711c0.14217,0.31863 -0.34308,0.61021 -0.47053,0.93501c-0.42425,1.08114 -0.10983,1.68521 0.12708,2.68989c0.0116,0.0492 0.01929,0.10354 0.02384,0.16217c-0.15787,0.13458 -0.24852,0.20776 -0.24852,0.20776z" fill="#ff3e3e"/><path d="" fill="#ff3e3e"/><path d="M239.91666,185.35897c0,0 -5.42154,-4.26768 -5.42154,-7.67961c0,-1.67715 1.2752,-3.03832 2.84643,-3.03832c1.13971,0 2.12063,0.7183 2.57512,1.75178c0.01119,-0.02545 0.02271,-0.05072 0.03454,-0.07578c-0.0462,1.89436 -0.27113,3.24349 0.5336,5.04711c0.14217,0.31863 -0.34308,0.61021 -0.47053,0.93501c-0.42425,1.08114 -0.10983,1.68521 0.12708,2.68989c0.0116,0.0492 0.01929,0.10354 0.02384,0.16217c-0.15787,0.13458 -0.24852,0.20776 -0.24852,0.20776z" fill="url(#color-9)"/><path d="" fill="url(#color-10)"/><path d="M239.91668,185.35897c0,0 -5.42156,-4.37658 -5.42156,-7.67961c0,-1.67715 1.2752,-3.03832 2.84643,-3.03832c1.1397,0 2.12063,0.71831 2.57513,1.75179c0.01119,-0.02544 0.0227,-0.0507 0.03452,-0.07575c-0.04621,1.89434 -0.27112,3.24346 0.5336,5.04706c0.14217,0.31863 -0.34308,0.61021 -0.47053,0.93501c-0.42425,1.08114 -0.10983,1.68521 0.12708,2.68989c0.0119,0.05045 0.01968,0.10631 0.02418,0.16665c-0.15806,0.13182 -0.24884,0.20327 -0.24884,0.20327z" data-paper-data="{&quot;index&quot;:null}" fill="url(#color-11)"/><path d="" data-paper-data="{&quot;index&quot;:null}" fill="url(#color-12)"/><path d="M239.91666,185.35897c0,0 -5.42154,-4.26768 -5.42154,-7.67961c0,-1.67715 1.2752,-3.03832 2.84643,-3.03832c1.13971,0 2.12063,0.7183 2.57512,1.75178c0.01119,-0.02545 0.02271,-0.05072 0.03454,-0.07578c-0.0462,1.89436 -0.27113,3.24349 0.5336,5.04711c0.14217,0.31863 -0.34308,0.61021 -0.47053,0.93501c-0.42425,1.08114 -0.10983,1.68521 0.12708,2.68989c0.0116,0.0492 0.01929,0.10354 0.02384,0.16217c-0.15787,0.13458 -0.24852,0.20776 -0.24852,0.20776z" fill="url(#color-13)"/><path d="" fill="url(#color-14)"/><path d="M239.91666,185.35897c0,0 -5.42154,-4.26768 -5.42154,-7.67961c0,-1.67715 1.2752,-3.03832 2.84643,-3.03832c1.13971,0 2.12063,0.7183 2.57512,1.75178c0.01119,-0.02545 0.02271,-0.05072 0.03454,-0.07578c-0.0462,1.89436 -0.27113,3.24349 0.5336,5.04711c0.14217,0.31863 -0.34308,0.61021 -0.47053,0.93501c-0.42425,1.08114 -0.10983,1.68521 0.12708,2.68989c0.0116,0.0492 0.01929,0.10354 0.02384,0.16217c-0.15787,0.13458 -0.24852,0.20776 -0.24852,0.20776z" fill="url(#color-15)"/><path d="" fill="url(#color-16)"/></g></g></g></svg>