<svg version="1.1" xmlns="http://www.w3.org/2000/svg" xmlns:xlink="http://www.w3.org/1999/xlink" width="12.39279" height="12.39278" viewBox="0,0,12.39279,12.39278"><defs><linearGradient x1="230.28584" y1="179.27762" x2="237.31958" y2="179.27762" gradientUnits="userSpaceOnUse" id="color-1"><stop offset="0" stop-color="#000000"/><stop offset="1" stop-color="#000000" stop-opacity="0"/></linearGradient><linearGradient x1="239.27762" y1="189.71417" x2="239.27762" y2="182.68043" gradientUnits="userSpaceOnUse" id="color-2"><stop offset="0" stop-color="#000000"/><stop offset="1" stop-color="#000000" stop-opacity="0"/></linearGradient><linearGradient x1="240.72239" y1="170.28584" x2="240.72239" y2="177.31957" gradientUnits="userSpaceOnUse" id="color-3"><stop offset="0" stop-color="#000000"/><stop offset="1" stop-color="#000000" stop-opacity="0"/></linearGradient><linearGradient x1="249.71416" y1="180.72239" x2="242.68043" y2="180.72239" gradientUnits="userSpaceOnUse" id="color-4"><stop offset="0" stop-color="#000000"/><stop offset="1" stop-color="#000000" stop-opacity="0"/></linearGradient><linearGradient x1="235.00415" y1="179.62849" x2="238.6215" y2="179.62849" gradientUnits="userSpaceOnUse" id="color-5"><stop offset="0" stop-color="#000000"/><stop offset="1" stop-color="#000000" stop-opacity="0"/></linearGradient><linearGradient x1="239.62849" y1="184.99586" x2="239.62849" y2="181.37851" gradientUnits="userSpaceOnUse" id="color-6"><stop offset="0" stop-color="#000000"/><stop offset="1" stop-color="#000000" stop-opacity="0"/></linearGradient><linearGradient x1="240.37152" y1="175.00414" x2="240.37152" y2="178.6215" gradientUnits="userSpaceOnUse" id="color-7"><stop offset="0" stop-color="#ffffff"/><stop offset="1" stop-color="#ffffff" stop-opacity="0"/></linearGradient><linearGradient x1="244.99586" y1="180.37151" x2="241.37851" y2="180.37151" gradientUnits="userSpaceOnUse" id="color-8"><stop offset="0" stop-color="#ffffff"/><stop offset="1" stop-color="#ffffff" stop-opacity="0"/></linearGradient><linearGradient x1="222.88458" y1="178.72723" x2="235.27735" y2="178.72723" gradientUnits="userSpaceOnUse" id="color-9"><stop offset="0" stop-color="#000000"/><stop offset="1" stop-color="#000000" stop-opacity="0"/></linearGradient><linearGradient x1="238.72724" y1="197.11543" x2="238.72724" y2="184.72266" gradientUnits="userSpaceOnUse" id="color-10"><stop offset="0" stop-color="#000000"/><stop offset="1" stop-color="#000000" stop-opacity="0"/></linearGradient><linearGradient x1="257.11543" y1="181.27278" x2="244.72266" y2="181.27278" gradientUnits="userSpaceOnUse" id="color-11"><stop offset="0" stop-color="#ffffff"/><stop offset="1" stop-color="#ffffff" stop-opacity="0"/></linearGradient><linearGradient x1="241.27279" y1="162.88457" x2="241.27279" y2="175.27735" gradientUnits="userSpaceOnUse" id="color-12"><stop offset="0" stop-color="#ffffff"/><stop offset="1" stop-color="#ffffff" stop-opacity="0"/></linearGradient></defs><g transform="translate(-233.80361,-173.80361)"><g data-paper-data="{&quot;isPaintingLayer&quot;:true}" fill-rule="nonzero" stroke="none" stroke-width="0" stroke-linecap="butt" stroke-linejoin="miter" stroke-miterlimit="10" stroke-dasharray="" stroke-dashoffset="0" style="mix-blend-mode: normal"><g><path d="M233.80361,186.19639v-12.39278h12.39278v12.39278z" fill="#a2a2a2"/><path d="M236.07218,184.50268v-1.5231h2.28465v1.5231z" fill="#dfcbac"/><path d="M242.8175,183.8514v-1.52309h1.2147v1.52309z" fill="#dfcbac"/><path d="M235.20692,185.40515v-1.52309h2.28464v1.52309z" fill="#dfcbac"/><path d="M234.9638,177.59691v-1.81594h2.72392v1.81594z" fill="#dfcbac"/><g><path d="M236.48314,183.51687v-7.03374h7.03374v7.03374z" fill="#a2a2a2"/><path d="M236.48314,183.51687v-7.03374h7.03374v7.03374z" fill="url(#color-1)"/><path d="M243.51687,183.51687h-7.03374v-7.03374h7.03374z" fill="url(#color-2)"/><path d="M236.48314,176.48313h7.03374v7.03374h-7.03374z" fill="url(#color-3)"/><path d="M243.51687,176.48313v7.03374h-7.03374v-7.03374z" fill="url(#color-4)"/></g><path d="M240.84446,180.37527v-1.04723h1.57084v1.04723z" fill="#dfcbac"/><path d="M237.34132,179.34299v-1.81593h2.72392v1.81593z" fill="#dfcbac"/><g><path d="M238.19133,181.80868v-3.61735h3.61735v3.61735z" fill="#a2a2a2"/><path d="M238.19133,181.80868v-3.61735h3.61735v3.61735z" fill="url(#color-5)"/><path d="M241.80868,181.80868h-3.61735v-3.61735h3.61735z" fill="url(#color-6)"/><path d="M238.19133,178.19133h3.61735v3.61735h-3.61735z" fill="url(#color-7)"/><path d="M241.80868,178.19133v3.61735h-3.61735v-3.61735z" fill="url(#color-8)"/></g><g><path d="M233.80362,186.19639v-12.39278h12.39278v12.39278z" fill="url(#color-9)"/><path d="M246.19639,186.19639h-12.39277v-12.39278h12.39278z" fill="url(#color-10)"/><path d="M246.19639,173.80361v12.39278h-12.39277v-12.39278z" fill="url(#color-11)"/><path d="M233.80362,173.80361h12.39278v12.39278h-12.39277z" fill="url(#color-12)"/></g></g></g></g></svg>