<svg version="1.1" xmlns="http://www.w3.org/2000/svg" xmlns:xlink="http://www.w3.org/1999/xlink" width="9.07821" height="20.34377" viewBox="0,0,9.07821,20.34377"><defs><linearGradient x1="236.16426" y1="166.19728" x2="236.58426" y2="165.02246" gradientUnits="userSpaceOnUse" id="color-1"><stop offset="0" stop-color="#000000" stop-opacity="0"/><stop offset="1" stop-color="#000000"/></linearGradient><linearGradient x1="235.59543" y1="167.69506" x2="236.01543" y2="166.52025" gradientUnits="userSpaceOnUse" id="color-2"><stop offset="0" stop-color="#ffffff"/><stop offset="1" stop-color="#ffffff" stop-opacity="0"/></linearGradient><linearGradient x1="237.91606" y1="166.90047" x2="238.33548" y2="165.7273" gradientUnits="userSpaceOnUse" id="color-3"><stop offset="0" stop-color="#000000" stop-opacity="0"/><stop offset="1" stop-color="#000000"/></linearGradient><linearGradient x1="237.36547" y1="168.62715" x2="237.78489" y2="167.45398" gradientUnits="userSpaceOnUse" id="color-4"><stop offset="0" stop-color="#ffffff"/><stop offset="1" stop-color="#ffffff" stop-opacity="0"/></linearGradient><linearGradient x1="237.90319" y1="166.99012" x2="238.15724" y2="166.27952" gradientUnits="userSpaceOnUse" id="color-5"><stop offset="0" stop-color="#000000" stop-opacity="0"/><stop offset="1" stop-color="#000000"/></linearGradient><linearGradient x1="237.56969" y1="168.03599" x2="237.82374" y2="167.32539" gradientUnits="userSpaceOnUse" id="color-6"><stop offset="0" stop-color="#000000"/><stop offset="1" stop-color="#000000" stop-opacity="0"/></linearGradient><linearGradient x1="238.65416" y1="167.41821" x2="238.00327" y2="167.18551" gradientUnits="userSpaceOnUse" id="color-7"><stop offset="0" stop-color="#000000"/><stop offset="1" stop-color="#000000" stop-opacity="0"/></linearGradient><linearGradient x1="237.61714" y1="167.41788" x2="236.96625" y2="167.18518" gradientUnits="userSpaceOnUse" id="color-8"><stop offset="0" stop-color="#000000" stop-opacity="0"/><stop offset="1" stop-color="#000000"/></linearGradient><linearGradient x1="237.66546" y1="164.22582" x2="237.82602" y2="163.77672" gradientUnits="userSpaceOnUse" id="color-9"><stop offset="0" stop-color="#000000"/><stop offset="1" stop-color="#000000" stop-opacity="0"/></linearGradient><linearGradient x1="237.17799" y1="162.6525" x2="237.01743" y2="163.1016" gradientUnits="userSpaceOnUse" id="color-10"><stop offset="0" stop-color="#000000"/><stop offset="1" stop-color="#000000" stop-opacity="0"/></linearGradient><linearGradient x1="238.20587" y1="165.92686" x2="238.15629" y2="166.06552" gradientUnits="userSpaceOnUse" id="color-11"><stop offset="0" stop-color="#000000" stop-opacity="0"/><stop offset="1" stop-color="#000000"/></linearGradient><linearGradient x1="238.34727" y1="165.75006" x2="238.29769" y2="165.88872" gradientUnits="userSpaceOnUse" id="color-12"><stop offset="0" stop-color="#ffffff"/><stop offset="1" stop-color="#ffffff" stop-opacity="0"/></linearGradient><linearGradient x1="237.49769" y1="166.0399" x2="236.72154" y2="165.76242" gradientUnits="userSpaceOnUse" id="color-13"><stop offset="0" stop-color="#000000" stop-opacity="0"/><stop offset="1" stop-color="#000000"/></linearGradient><linearGradient x1="238.48962" y1="166.40897" x2="237.71347" y2="166.13149" gradientUnits="userSpaceOnUse" id="color-14"><stop offset="0" stop-color="#ffffff"/><stop offset="1" stop-color="#ffffff" stop-opacity="0"/></linearGradient><linearGradient x1="238.74632" y1="165.35625" x2="239.19542" y2="165.51681" gradientUnits="userSpaceOnUse" id="color-15"><stop offset="0" stop-color="#000000"/><stop offset="1" stop-color="#000000" stop-opacity="0"/></linearGradient><linearGradient x1="240.47459" y1="164.43535" x2="240.02549" y2="164.27479" gradientUnits="userSpaceOnUse" id="color-16"><stop offset="0" stop-color="#000000"/><stop offset="1" stop-color="#000000" stop-opacity="0"/></linearGradient><linearGradient x1="238.73996" y1="162.39094" x2="239.18906" y2="162.5515" gradientUnits="userSpaceOnUse" id="color-17"><stop offset="0" stop-color="#000000"/><stop offset="1" stop-color="#000000" stop-opacity="0"/></linearGradient><linearGradient x1="240.04007" y1="162.66766" x2="239.59097" y2="162.5071" gradientUnits="userSpaceOnUse" id="color-18"><stop offset="0" stop-color="#000000"/><stop offset="1" stop-color="#000000" stop-opacity="0"/></linearGradient><linearGradient x1="238.9956" y1="162.08058" x2="238.5465" y2="161.92003" gradientUnits="userSpaceOnUse" id="color-19"><stop offset="0" stop-color="#000000"/><stop offset="1" stop-color="#000000" stop-opacity="0"/></linearGradient><linearGradient x1="237.00913" y1="161.75557" x2="237.45823" y2="161.91613" gradientUnits="userSpaceOnUse" id="color-20"><stop offset="0" stop-color="#000000"/><stop offset="1" stop-color="#000000" stop-opacity="0"/></linearGradient><linearGradient x1="238.30924" y1="162.0323" x2="237.86014" y2="161.87174" gradientUnits="userSpaceOnUse" id="color-21"><stop offset="0" stop-color="#000000"/><stop offset="1" stop-color="#000000" stop-opacity="0"/></linearGradient><linearGradient x1="237.48688" y1="161.52462" x2="237.03778" y2="161.36407" gradientUnits="userSpaceOnUse" id="color-22"><stop offset="0" stop-color="#000000"/><stop offset="1" stop-color="#000000" stop-opacity="0"/></linearGradient><linearGradient x1="235.63492" y1="173.8908" x2="238.02573" y2="167.20341" gradientUnits="userSpaceOnUse" id="color-23"><stop offset="0" stop-color="#000000"/><stop offset="1" stop-color="#000000" stop-opacity="0"/></linearGradient><linearGradient x1="228.76863" y1="161.79434" x2="235.45602" y2="164.18515" gradientUnits="userSpaceOnUse" id="color-24"><stop offset="0" stop-color="#000000"/><stop offset="1" stop-color="#000000" stop-opacity="0"/></linearGradient><linearGradient x1="240.86509" y1="154.92805" x2="238.47428" y2="161.61544" gradientUnits="userSpaceOnUse" id="color-25"><stop offset="0" stop-color="#ffffff"/><stop offset="1" stop-color="#ffffff" stop-opacity="0"/></linearGradient><linearGradient x1="247.73138" y1="167.02451" x2="241.04399" y2="164.6337" gradientUnits="userSpaceOnUse" id="color-26"><stop offset="0" stop-color="#ffffff"/><stop offset="1" stop-color="#ffffff" stop-opacity="0"/></linearGradient></defs><g transform="translate(-233.7109,-159.87033)"><g data-paper-data="{&quot;isPaintingLayer&quot;:true}" fill-rule="nonzero" stroke-linejoin="miter" stroke-miterlimit="10" stroke-dasharray="" stroke-dashoffset="0" style="mix-blend-mode: normal"><path d="M240.09666,179.7141c0,0 -2.25597,-5.20946 -2.76657,-7.7284c-0.48842,-2.40953 -0.23343,-7.0716 -0.23343,-7.0716" data-paper-data="{&quot;index&quot;:null}" fill="none" stroke="#000000" stroke-width="1" stroke-linecap="round"/><g data-paper-data="{&quot;index&quot;:null}"><path d="M236.1017,159.87033l6.68739,2.3908l-2.3908,6.68739l-6.68739,-2.3908z" fill="#d1b487" stroke="none" stroke-width="0" stroke-linecap="butt"/><path d="M238.258,167.27742l0.3887,0.13896" fill="none" stroke="#000000" stroke-width="0.5" stroke-linecap="round"/><g stroke="none" stroke-width="0" stroke-linecap="butt"><g><path d="M237.53243,166.34081c0,0 0.68929,0.24643 0.87741,0.31368c0.08917,0.03188 0.17,0.14647 0.1302,0.2578c-0.09231,0.2582 -0.25258,0.70652 -0.29958,0.83798c-0.02555,0.07145 -0.1303,0.1202 -0.20075,0.09501c-0.17635,-0.06305 -0.92671,-0.33131 -0.92671,-0.33131z" fill="#946a49"/><path d="M235.21964,166.06342c-0.14051,-0.13921 -0.20056,-0.2627 -0.22127,-0.36195c-0.03309,-0.1586 0.17127,-0.2063 0.30537,-0.15836c0.38556,0.13784 2.24118,0.80124 2.24118,0.80124l-0.42001,1.17481c0,0 -1.54023,-1.09408 -1.90527,-1.45575z" fill="#e8e8e8"/><path d="M235.21964,166.06342c-0.14051,-0.13921 -0.20056,-0.2627 -0.22127,-0.36195c-0.03309,-0.1586 0.17127,-0.2063 0.30537,-0.15836c0.38556,0.13784 2.24118,0.80124 2.24118,0.80124l-0.42001,1.17481c0,0 -1.54023,-1.09408 -1.90527,-1.45575z" fill="url(#color-1)"/><path d="M235.21964,166.06342c-0.14051,-0.13921 -0.20056,-0.2627 -0.22127,-0.36195c-0.03309,-0.1586 0.17127,-0.2063 0.30537,-0.15836c0.38556,0.13784 2.24118,0.80124 2.24118,0.80124l-0.42001,1.17481c0,0 -1.54023,-1.09408 -1.90527,-1.45575z" fill="url(#color-2)"/><path d="M237.53243,166.34081c0,0 0.68929,0.24643 0.87741,0.31368c0.08917,0.03188 0.17,0.14647 0.1302,0.2578c-0.09231,0.2582 -0.25258,0.70652 -0.29958,0.83798c-0.02555,0.07145 -0.1303,0.1202 -0.20075,0.09501c-0.17635,-0.06305 -0.92671,-0.33131 -0.92671,-0.33131z" fill="url(#color-3)"/><path d="M237.53243,166.34081c0,0 0.68929,0.24643 0.87741,0.31368c0.08917,0.03188 0.17,0.14647 0.1302,0.2578c-0.09231,0.2582 -0.25258,0.70652 -0.29958,0.83798c-0.02555,0.07145 -0.1303,0.1202 -0.20075,0.09501c-0.17635,-0.06305 -0.92671,-0.33131 -0.92671,-0.33131z" fill="url(#color-4)"/></g><g><path d="M237.66861,166.65034c0,0 0.41752,0.14926 0.53146,0.19c0.05402,0.01931 0.10298,0.08872 0.07887,0.15615c-0.05591,0.15639 -0.15299,0.42795 -0.18146,0.50757c-0.01547,0.04328 -0.07892,0.0728 -0.12159,0.05755c-0.10681,-0.03818 -0.56131,-0.20067 -0.56131,-0.20067z" fill="#ffffff"/><g><path d="M237.6708,166.65113c0,0 0.41752,0.14926 0.53146,0.19c0.05402,0.01931 0.10298,0.08872 0.07887,0.15615c-0.05591,0.15639 -0.15299,0.42795 -0.18146,0.50757c-0.01547,0.04328 -0.07892,0.0728 -0.12159,0.05755c-0.10681,-0.03818 -0.56131,-0.20067 -0.56131,-0.20067z" fill="url(#color-5)"/><path d="M237.6708,166.65113c0,0 0.41752,0.14926 0.53146,0.19c0.05402,0.01931 0.10298,0.08872 0.07887,0.15615c-0.05591,0.15639 -0.15299,0.42795 -0.18146,0.50757c-0.01547,0.04328 -0.07892,0.0728 -0.12159,0.05755c-0.10681,-0.03818 -0.56131,-0.20067 -0.56131,-0.20067z" fill="url(#color-6)"/><path d="M237.66642,166.64956c0,0 0.41752,0.14926 0.53146,0.19c0.05401,0.01931 0.10298,0.08872 0.07887,0.15615c-0.05591,0.15639 -0.15299,0.42795 -0.18146,0.50757c-0.01547,0.04328 -0.07892,0.0728 -0.12159,0.05755c-0.10681,-0.03818 -0.56131,-0.20067 -0.56131,-0.20067z" fill="url(#color-7)"/><path d="M237.6708,166.65113c0,0 0.41752,0.14926 0.53146,0.19c0.05401,0.01931 0.10298,0.08872 0.07887,0.15615c-0.05591,0.15639 -0.15299,0.42795 -0.18146,0.50757c-0.01547,0.04328 -0.07892,0.0728 -0.12159,0.05755c-0.10681,-0.03818 -0.56131,-0.20067 -0.56131,-0.20067z" fill="url(#color-8)"/></g></g></g><path d="M238.65195,166.05359l0.3887,0.13896" fill="none" stroke="#000000" stroke-width="0.5" stroke-linecap="round"/><g stroke="none" stroke-width="0" stroke-linecap="butt"><path d="M235.07529,162.85353l0.16056,-0.4491l4.5323,1.62034l-0.16056,0.4491z" fill="#e2b97c"/><path d="M235.23586,162.40444l4.5323,1.62034l-0.16056,0.4491l-4.5323,-1.62034z" fill="url(#color-9)"/><path d="M239.60759,164.47387l-4.5323,-1.62034l0.16056,-0.4491l4.5323,1.62034z" fill="url(#color-10)"/></g><g stroke="none" stroke-width="0" stroke-linecap="butt"><g data-paper-data="{&quot;index&quot;:null}"><path d="M237.63294,165.61558c0,0 0.87953,0.31444 1.08623,0.38834c0.08257,0.02952 0.10077,0.04621 0.09775,0.05466c-0.00555,0.01554 -0.0245,0.06853 -0.03541,0.09905c-0.0047,0.01316 -0.06517,0.00167 -0.16969,-0.0357c-0.2205,-0.07883 -1.02845,-0.36768 -1.02845,-0.36768z" fill="#946a49"/><path d="M237.63294,165.61558c0,0 0.87953,0.31444 1.08623,0.38834c0.08257,0.02952 0.10077,0.04621 0.09775,0.05466c-0.00555,0.01554 -0.0245,0.06853 -0.03541,0.09905c-0.0047,0.01316 -0.06517,0.00167 -0.16969,-0.0357c-0.2205,-0.07883 -1.02845,-0.36768 -1.02845,-0.36768z" fill="url(#color-11)"/><path d="M237.63294,165.61558c0,0 0.87953,0.31444 1.08623,0.38834c0.08257,0.02952 0.10077,0.04621 0.09775,0.05466c-0.00555,0.01554 -0.0245,0.06853 -0.03541,0.09905c-0.0047,0.01316 -0.06517,0.00167 -0.16969,-0.0357c-0.2205,-0.07883 -1.02845,-0.36768 -1.02845,-0.36768z" fill="url(#color-12)"/></g><g><path d="M237.67637,165.80747c-0.07825,0.05442 -0.17776,0.36295 -0.23927,0.36529c-0.0983,0.00374 -0.14333,-0.09347 -0.12257,-0.15154c0.05969,-0.16696 0.09056,-0.62448 0.29426,-0.75017c0.2037,-0.1257 0.56201,0.18384 0.56201,0.18384c0,0 -0.29116,0.21117 -0.49444,0.35257z" fill="#e8e8e8"/><path d="M237.67637,165.80747c-0.07825,0.05442 -0.17776,0.36295 -0.23927,0.36529c-0.0983,0.00374 -0.14333,-0.09347 -0.12257,-0.15154c0.05969,-0.16696 0.09056,-0.62448 0.29426,-0.75017c0.2037,-0.1257 0.56201,0.18384 0.56201,0.18384c0,0 -0.29116,0.21117 -0.49444,0.35257z" fill="url(#color-13)"/><path d="M237.67637,165.80747c-0.07825,0.05442 -0.17776,0.36295 -0.23927,0.36529c-0.0983,0.00374 -0.14333,-0.09347 -0.12257,-0.15154c0.05969,-0.16696 0.09056,-0.62448 0.29426,-0.75017c0.2037,-0.1257 0.56201,0.18384 0.56201,0.18384c0,0 -0.29116,0.21117 -0.49444,0.35257z" fill="url(#color-14)"/></g></g><g stroke="none" stroke-width="0" stroke-linecap="butt"><path d="M240.57326,161.49433l0.4491,0.16056l-2.37471,6.64238l-0.4491,-0.16056z" fill="#e2b97c"/><path d="M241.02236,161.65489l-2.37471,6.64238l-0.4491,-0.16056l2.37471,-6.64238z" fill="url(#color-15)"/><path d="M238.19855,168.13671l2.37471,-6.64238l0.4491,0.16056l-2.37471,6.64238z" fill="url(#color-16)"/></g><g stroke="none" stroke-width="0" stroke-linecap="butt"><path d="M239.31059,162.04309l0.4491,0.16056l-0.29025,0.81187l-0.4491,-0.16056z" fill="#e2b97c"/><path d="M239.7597,162.20365l-0.29025,0.81187l-0.4491,-0.16056l0.29025,-0.81187z" fill="url(#color-17)"/><path d="M239.02035,162.85496l0.29025,-0.81187l0.4491,0.16056l-0.29025,0.81187z" fill="url(#color-18)"/></g><path d="M237.61094,163.28863l0.89574,-2.5055l0.4491,0.16056l-0.89574,2.5055z" fill="url(#color-19)" stroke="none" stroke-width="0" stroke-linecap="butt"/><g stroke="none" stroke-width="0" stroke-linecap="butt"><path d="M237.57976,161.40771l0.4491,0.16056l-0.29025,0.81188l-0.4491,-0.16056z" fill="#e2b97c"/><path d="M238.02886,161.56828l-0.29025,0.81188l-0.4491,-0.16056l0.29025,-0.81188z" fill="url(#color-20)"/><path d="M237.28951,162.21959l0.29025,-0.81188l0.4491,0.16056l-0.29025,0.81188z" fill="url(#color-21)"/></g><path d="M236.10222,162.73267l0.89574,-2.5055l0.4491,0.16056l-0.89574,2.5055z" fill="url(#color-22)" stroke="none" stroke-width="0" stroke-linecap="butt"/><path d="M242.33396,162.09841l0.41782,0.14938l-2.3908,6.68739l-0.41782,-0.14938z" fill="#b69d77" stroke="none" stroke-width="0" stroke-linecap="butt"/><g stroke="none" stroke-width="0" stroke-linecap="butt"><path d="M236.1017,159.87033l6.68739,2.3908l-2.3908,6.68739l-6.68739,-2.3908z" fill="url(#color-23)"/><path d="M242.7891,162.26113l-2.3908,6.68739l-6.68739,-2.3908l2.3908,-6.68739z" fill="url(#color-24)"/><path d="M240.39831,168.94852l-6.68739,-2.3908l2.3908,-6.68739l6.68739,2.3908z" fill="url(#color-25)"/><path d="M233.71091,166.55772l2.3908,-6.68739l6.68739,2.3908l-2.3908,6.68739z" fill="url(#color-26)"/></g></g></g></g></svg>