<svg version="1.1" xmlns="http://www.w3.org/2000/svg" xmlns:xlink="http://www.w3.org/1999/xlink" width="66.47451" height="141.34817" viewBox="0,0,66.47451,141.34817"><defs><linearGradient x1="240" y1="355.96402" x2="240" y2="214.61591" gradientUnits="userSpaceOnUse" id="color-1"><stop offset="0" stop-color="#000000"/><stop offset="1" stop-color="#000000" stop-opacity="0"/></linearGradient><linearGradient x1="157.24605" y1="180" x2="223.72054" y2="180" gradientUnits="userSpaceOnUse" id="color-2"><stop offset="0" stop-color="#000000"/><stop offset="1" stop-color="#000000" stop-opacity="0"/></linearGradient><linearGradient x1="322.75397" y1="180" x2="256.27948" y2="180" gradientUnits="userSpaceOnUse" id="color-3"><stop offset="0" stop-color="#ffffff"/><stop offset="1" stop-color="#ffffff" stop-opacity="0"/></linearGradient><linearGradient x1="240" y1="4.03604" x2="240" y2="145.38415" gradientUnits="userSpaceOnUse" id="color-4"><stop offset="0" stop-color="#ffffff"/><stop offset="1" stop-color="#ffffff" stop-opacity="0"/></linearGradient><linearGradient x1="240" y1="4.03604" x2="240" y2="145.38415" gradientUnits="userSpaceOnUse" id="color-5"><stop offset="0" stop-color="#ffffff"/><stop offset="1" stop-color="#ffffff" stop-opacity="0"/></linearGradient><linearGradient x1="322.75396" y1="180" x2="256.27948" y2="180" gradientUnits="userSpaceOnUse" id="color-6"><stop offset="0" stop-color="#ffffff"/><stop offset="1" stop-color="#ffffff" stop-opacity="0"/></linearGradient><linearGradient x1="157.24605" y1="180" x2="223.72054" y2="180" gradientUnits="userSpaceOnUse" id="color-7"><stop offset="0" stop-color="#000000"/><stop offset="1" stop-color="#000000" stop-opacity="0"/></linearGradient><linearGradient x1="240" y1="355.96398" x2="240" y2="214.61587" gradientUnits="userSpaceOnUse" id="color-8"><stop offset="0" stop-color="#000000"/><stop offset="1" stop-color="#000000" stop-opacity="0"/></linearGradient><linearGradient x1="174.5977" y1="147.57078" x2="227.13398" y2="147.57078" gradientUnits="userSpaceOnUse" id="color-9"><stop offset="0" stop-color="#000000"/><stop offset="1" stop-color="#000000" stop-opacity="0"/></linearGradient><linearGradient x1="305.4023" y1="147.57081" x2="252.86602" y2="147.57081" gradientUnits="userSpaceOnUse" id="color-10"><stop offset="0" stop-color="#000000"/><stop offset="1" stop-color="#000000" stop-opacity="0"/></linearGradient><linearGradient x1="174.5977" y1="211.44398" x2="227.13398" y2="211.44398" gradientUnits="userSpaceOnUse" id="color-11"><stop offset="0" stop-color="#000000"/><stop offset="1" stop-color="#000000" stop-opacity="0"/></linearGradient><linearGradient x1="305.4023" y1="211.444" x2="252.86602" y2="211.444" gradientUnits="userSpaceOnUse" id="color-12"><stop offset="0" stop-color="#000000"/><stop offset="1" stop-color="#000000" stop-opacity="0"/></linearGradient><linearGradient x1="239.99999" y1="278.54882" x2="239.99999" y2="231.13231" gradientUnits="userSpaceOnUse" id="color-13"><stop offset="0" stop-color="#000000"/><stop offset="1" stop-color="#000000" stop-opacity="0"/></linearGradient><linearGradient x1="240" y1="80.46598" x2="240" y2="127.88249" gradientUnits="userSpaceOnUse" id="color-14"><stop offset="0" stop-color="#000000"/><stop offset="1" stop-color="#000000" stop-opacity="0"/></linearGradient></defs><g transform="translate(-206.76275,-109.32592)"><g data-paper-data="{&quot;isPaintingLayer&quot;:true}" fill-rule="nonzero" stroke="none" stroke-width="0" stroke-linecap="butt" stroke-linejoin="miter" stroke-miterlimit="10" stroke-dasharray="" stroke-dashoffset="0" style="mix-blend-mode: normal"><g><g><g><path d="M206.76277,250.67403v-141.34811h66.47448v141.34811z" fill="#b3b3b3"/><path d="M273.23723,250.67403h-66.47448v-141.34811h66.47448z" fill="url(#color-1)"/><path d="M206.76277,250.67403v-141.34811h66.47448v141.34811z" fill="url(#color-2)"/><path d="M273.23723,109.32597v141.34811h-66.47448v-141.34811z" fill="url(#color-3)"/><path d="M206.76277,109.32597h66.47448v141.34811h-66.47448z" fill="url(#color-4)"/></g><g data-paper-data="{&quot;index&quot;:null}"><path d="M273.23723,109.32597v141.34811l-66.47448,-141.34811z" fill="#c9c9c9"/><path d="M206.76277,109.32597h66.47448v141.34811z" fill="url(#color-5)"/><path d="M273.23723,109.32597v141.34811l-66.47448,-141.34811z" fill="url(#color-6)"/><path d="M206.76277,109.32597h66.47448v141.34811z" fill="url(#color-7)"/><path d="M273.23723,250.67403l-66.47448,-141.34811h66.47448z" fill="url(#color-8)"/></g></g><g><g><path d="M213.73186,179.50338v-63.86511h52.53627v63.86511z" fill="#a2a2a2"/><path d="M213.73187,179.50336v-63.86511h52.53627v63.86511z" fill="url(#color-9)"/><path d="M266.26813,115.63824v63.86511h-52.53627v-63.86511z" fill="url(#color-10)"/></g><g><path d="M213.73186,243.37657v-63.86511h52.53627v63.86511z" fill="#a2a2a2"/><path d="M213.73187,243.37655v-63.86511h52.53627v63.86511z" fill="url(#color-11)"/><path d="M266.26813,179.51143v63.86511h-52.53627v-63.86511z" fill="url(#color-12)"/></g><path d="M266.26813,243.22837h-52.53627v-47.41649h52.53627z" fill="url(#color-13)"/><path d="M213.73187,115.78645h52.53627v47.41649h-52.53627z" fill="url(#color-14)"/></g></g></g></g></svg>