<svg version="1.1" xmlns="http://www.w3.org/2000/svg" xmlns:xlink="http://www.w3.org/1999/xlink" width="40.46978" height="18.64826" viewBox="0,0,40.46978,18.64826"><defs><linearGradient x1="237.21826" y1="192.93733" x2="237.21826" y2="194.18166" gradientUnits="userSpaceOnUse" id="color-1"><stop offset="0" stop-color="#000000"/><stop offset="1" stop-color="#000000" stop-opacity="0"/></linearGradient><linearGradient x1="237.21826" y1="195.58949" x2="237.21826" y2="194.34518" gradientUnits="userSpaceOnUse" id="color-2"><stop offset="0" stop-color="#ffffff"/><stop offset="1" stop-color="#ffffff" stop-opacity="0"/></linearGradient><linearGradient x1="257.22737" y1="190.49122" x2="257.22737" y2="195.47473" gradientUnits="userSpaceOnUse" id="color-3"><stop offset="0" stop-color="#ffffff"/><stop offset="1" stop-color="#ffffff" stop-opacity="0"/></linearGradient><linearGradient x1="257.22737" y1="198.0814" x2="257.22737" y2="193.09789" gradientUnits="userSpaceOnUse" id="color-4"><stop offset="0" stop-color="#c7c7c7"/><stop offset="1" stop-color="#c7c7c7" stop-opacity="0"/></linearGradient><linearGradient x1="257.17267" y1="200.31483" x2="257.17267" y2="195.33132" gradientUnits="userSpaceOnUse" id="color-5"><stop offset="0" stop-color="#ffffff"/><stop offset="1" stop-color="#ffffff" stop-opacity="0"/></linearGradient><linearGradient x1="257.17267" y1="188.21201" x2="257.17267" y2="193.19552" gradientUnits="userSpaceOnUse" id="color-6"><stop offset="0" stop-color="#000000"/><stop offset="1" stop-color="#000000" stop-opacity="0"/></linearGradient><linearGradient x1="241.73939" y1="194.26859" x2="240.24434" y2="194.26859" gradientUnits="userSpaceOnUse" id="color-7"><stop offset="0" stop-color="#000000"/><stop offset="1" stop-color="#000000" stop-opacity="0"/></linearGradient><linearGradient x1="241.41958" y1="191.18583" x2="241.41958" y2="195.06729" gradientUnits="userSpaceOnUse" id="color-8"><stop offset="0" stop-color="#ffffff"/><stop offset="1" stop-color="#ffffff" stop-opacity="0"/></linearGradient><linearGradient x1="241.41959" y1="197.38146" x2="241.41959" y2="193.5" gradientUnits="userSpaceOnUse" id="color-9"><stop offset="0" stop-color="#464646"/><stop offset="1" stop-color="#464646" stop-opacity="0"/></linearGradient><linearGradient x1="241.41958" y1="204.53536" x2="241.41958" y2="196.62502" gradientUnits="userSpaceOnUse" id="color-10"><stop offset="0" stop-color="#ffffff"/><stop offset="1" stop-color="#ffffff" stop-opacity="0"/></linearGradient><linearGradient x1="241.41958" y1="183.99148" x2="241.41958" y2="191.90183" gradientUnits="userSpaceOnUse" id="color-11"><stop offset="0" stop-color="#000000"/><stop offset="1" stop-color="#000000" stop-opacity="0"/></linearGradient><linearGradient x1="233.12732" y1="192.3768" x2="233.12732" y2="193.80067" gradientUnits="userSpaceOnUse" id="color-12"><stop offset="0" stop-color="#000000"/><stop offset="1" stop-color="#000000" stop-opacity="0"/></linearGradient><linearGradient x1="233.12732" y1="194.69058" x2="233.12732" y2="196.11444" gradientUnits="userSpaceOnUse" id="color-13"><stop offset="0" stop-color="#ffffff" stop-opacity="0"/><stop offset="1" stop-color="#ffffff"/></linearGradient></defs><g transform="translate(-232.37732,-179.57033)"><g data-paper-data="{&quot;isPaintingLayer&quot;:true}" fill-rule="nonzero" stroke-linejoin="miter" stroke-miterlimit="10" stroke-dasharray="" stroke-dashoffset="0" style="mix-blend-mode: normal"><g><g data-paper-data="{&quot;index&quot;:null}" fill="none" stroke-width="1" stroke-linecap="round"><path d="M233.40222,194.26342h7.6321" stroke="#f7b577"/><path d="M233.40222,194.26342h7.6321" data-paper-data="{&quot;index&quot;:null}" stroke="url(#color-1)"/><path d="M233.40222,194.26342h7.6321" data-paper-data="{&quot;index&quot;:null}" stroke="url(#color-2)"/></g><g stroke="none" stroke-width="0" stroke-linecap="butt"><g><path d="M241.49826,191.77166c0,0 20.38005,0 22.76992,0c0.44655,0 1.16154,0.11643 1.53665,0.23559c0.9728,0.309 5.3287,1.69264 6.82236,2.1671c0.31654,0.10055 0.28917,0.22488 -0.06805,0.33204c-1.51463,0.45439 -5.57958,1.67388 -6.59244,1.97773c-0.4445,0.13335 -1.32166,0.27105 -1.84089,0.27105c-2.55109,0 -22.62754,0 -22.62754,0z" fill="#f3c886"/><path d="M272.68188,194.28613c0,0 0.28917,-0.02826 -0.06805,0.07891c-1.51463,0.45439 -5.57958,1.67388 -6.59244,1.97773c-0.4445,0.13335 -1.32166,0.27105 -1.84089,0.27105c-2.55109,0 -22.62754,0 -22.62754,0v-2.32565z" fill="url(#color-3)"/><path d="M241.55297,194.28445v-2.32564c0,0 20.07643,0 22.62754,0c0.51924,0 1.39639,0.13771 1.84089,0.27105c1.01286,0.30385 5.07781,1.52334 6.59244,1.97773c0.35722,0.10717 0.06805,0.07891 0.06805,0.07891z" data-paper-data="{&quot;index&quot;:null}" fill="url(#color-4)"/></g><path d="M241.49826,191.77166c0,0 20.07643,0 22.62754,0c0.51924,0 1.39639,0.13771 1.84089,0.27105c1.01286,0.30385 5.07781,1.52334 6.59244,1.97773c0.35722,0.10717 0.38461,0.23149 0.06805,0.33204c-1.49366,0.47445 -5.84955,1.85809 -6.82236,2.1671c-0.3751,0.11915 -1.09009,0.23559 -1.53665,0.23559c-2.38986,0 -22.76992,0 -22.76992,0z" data-paper-data="{&quot;index&quot;:null}" fill="url(#color-5)"/><path d="M241.49826,191.77166c0,0 20.38005,0 22.76992,0c0.44655,0 1.16154,0.11643 1.53665,0.23559c0.9728,0.309 5.3287,1.69264 6.82236,2.1671c0.31654,0.10055 0.28917,0.22488 -0.06805,0.33204c-1.51463,0.45439 -5.57958,1.67388 -6.59244,1.97773c-0.4445,0.13335 -1.32166,0.27105 -1.84089,0.27105c-2.55109,0 -22.62754,0 -22.62754,0z" fill="url(#color-6)"/></g><path d="M240.24434,193.71685h1.49505v1.10349h-1.49505z" fill="url(#color-7)" stroke="none" stroke-width="2" stroke-linecap="butt"/><g stroke="none" stroke-width="0" stroke-linecap="butt"><path d="M240.64005,190.30825h1.4555v7.91034h-1.4555z" fill="#e2b97c"/><path d="M240.64005,194.28535h1.4555v3.88146h-1.4555z" data-paper-data="{&quot;index&quot;:null}" fill="url(#color-8)"/><path d="M240.64005,190.40048h1.4555v3.88146h-1.4555z" data-paper-data="{&quot;index&quot;:null}" fill="url(#color-9)"/><path d="M240.64005,190.30825h1.4555v7.91034h-1.4555z" data-paper-data="{&quot;index&quot;:null}" fill="url(#color-10)"/><path d="M240.64005,190.30825h1.4555v7.91034h-1.4555z" data-paper-data="{&quot;index&quot;:null}" fill="url(#color-11)"/></g><g fill="none" stroke-width="1.5" stroke-linecap="round"><path d="M233.12732,194.11381v0.29921" stroke="#d5af77"/><path d="M233.12732,194.11381v0.29921" data-paper-data="{&quot;index&quot;:null}" stroke="url(#color-12)"/><path d="M233.12732,194.11381v0.29921" data-paper-data="{&quot;index&quot;:null}" stroke="url(#color-13)"/></g></g><path d="M237.09667,194.87033c0,0 -0.25499,-4.66207 0.23343,-7.0716c0.5106,-2.51894 2.76657,-7.7284 2.76657,-7.7284" fill="none" stroke="#000000" stroke-width="1" stroke-linecap="round"/></g></g></svg>