<svg version="1.1" xmlns="http://www.w3.org/2000/svg" xmlns:xlink="http://www.w3.org/1999/xlink" width="12.39518" height="12.39518" viewBox="0,0,12.39518,12.39518"><defs><linearGradient x1="222.88126" y1="178.72698" x2="235.27643" y2="178.72698" gradientUnits="userSpaceOnUse" id="color-1"><stop offset="0" stop-color="#000000"/><stop offset="1" stop-color="#000000" stop-opacity="0"/></linearGradient><linearGradient x1="238.72698" y1="197.11874" x2="238.72698" y2="184.72357" gradientUnits="userSpaceOnUse" id="color-2"><stop offset="0" stop-color="#000000"/><stop offset="1" stop-color="#000000" stop-opacity="0"/></linearGradient><linearGradient x1="257.11874" y1="181.27302" x2="244.72357" y2="181.27302" gradientUnits="userSpaceOnUse" id="color-3"><stop offset="0" stop-color="#ffffff"/><stop offset="1" stop-color="#ffffff" stop-opacity="0"/></linearGradient><linearGradient x1="241.27302" y1="162.88125" x2="241.27302" y2="175.27643" gradientUnits="userSpaceOnUse" id="color-4"><stop offset="0" stop-color="#ffffff"/><stop offset="1" stop-color="#ffffff" stop-opacity="0"/></linearGradient><linearGradient x1="230.28396" y1="179.27748" x2="237.31906" y2="179.27748" gradientUnits="userSpaceOnUse" id="color-5"><stop offset="0" stop-color="#000000"/><stop offset="1" stop-color="#000000" stop-opacity="0"/></linearGradient><linearGradient x1="239.27748" y1="189.71605" x2="239.27748" y2="182.68095" gradientUnits="userSpaceOnUse" id="color-6"><stop offset="0" stop-color="#000000"/><stop offset="1" stop-color="#000000" stop-opacity="0"/></linearGradient><linearGradient x1="240.72252" y1="170.28395" x2="240.72252" y2="177.31905" gradientUnits="userSpaceOnUse" id="color-7"><stop offset="0" stop-color="#000000"/><stop offset="1" stop-color="#000000" stop-opacity="0"/></linearGradient><linearGradient x1="249.71604" y1="180.72253" x2="242.68094" y2="180.72253" gradientUnits="userSpaceOnUse" id="color-8"><stop offset="0" stop-color="#000000"/><stop offset="1" stop-color="#000000" stop-opacity="0"/></linearGradient><linearGradient x1="235.00318" y1="179.62842" x2="238.62123" y2="179.62842" gradientUnits="userSpaceOnUse" id="color-9"><stop offset="0" stop-color="#000000"/><stop offset="1" stop-color="#000000" stop-opacity="0"/></linearGradient><linearGradient x1="239.62842" y1="184.99682" x2="239.62842" y2="181.37877" gradientUnits="userSpaceOnUse" id="color-10"><stop offset="0" stop-color="#000000"/><stop offset="1" stop-color="#000000" stop-opacity="0"/></linearGradient><linearGradient x1="240.37158" y1="175.00318" x2="240.37158" y2="178.62123" gradientUnits="userSpaceOnUse" id="color-11"><stop offset="0" stop-color="#ffffff"/><stop offset="1" stop-color="#ffffff" stop-opacity="0"/></linearGradient><linearGradient x1="244.99682" y1="180.37159" x2="241.37877" y2="180.37159" gradientUnits="userSpaceOnUse" id="color-12"><stop offset="0" stop-color="#ffffff"/><stop offset="1" stop-color="#ffffff" stop-opacity="0"/></linearGradient></defs><g transform="translate(-233.8024,-173.8024)"><g data-paper-data="{&quot;isPaintingLayer&quot;:true}" fill-rule="nonzero" stroke="none" stroke-width="0" stroke-linecap="butt" stroke-linejoin="miter" stroke-miterlimit="10" stroke-dasharray="" stroke-dashoffset="0" style="mix-blend-mode: normal"><g><g><path d="M233.80241,186.19759v-12.39518h12.39518v12.39518z" fill="#a2a2a2"/><path d="M233.80241,186.19759v-12.39518h12.39518v12.39518z" fill="url(#color-1)"/><path d="M246.19759,186.19759h-12.39518v-12.39518h12.39518z" fill="url(#color-2)"/><path d="M246.19759,173.80241v12.39518h-12.39518v-12.39518z" fill="url(#color-3)"/><path d="M233.80241,173.80241h12.39518v12.39518h-12.39518z" fill="url(#color-4)"/></g><g><path d="M236.48245,183.51755v-7.0351h7.0351v7.0351z" fill="#a2a2a2"/><path d="M236.48245,183.51755v-7.0351h7.0351v7.0351z" fill="url(#color-5)"/><path d="M243.51755,183.51755h-7.0351v-7.0351h7.0351z" fill="url(#color-6)"/><path d="M236.48245,176.48245h7.0351v7.0351h-7.0351z" fill="url(#color-7)"/><path d="M243.51755,176.48245v7.0351h-7.0351v-7.0351z" fill="url(#color-8)"/></g><g><path d="M238.19098,181.80903v-3.61805h3.61805v3.61805z" fill="#a2a2a2"/><path d="M238.19098,181.80903v-3.61805h3.61805v3.61805z" fill="url(#color-9)"/><path d="M241.80903,181.80903h-3.61805v-3.61805h3.61805z" fill="url(#color-10)"/><path d="M238.19098,178.19098h3.61805v3.61805h-3.61805z" fill="url(#color-11)"/><path d="M241.80903,178.19098v3.61805h-3.61805v-3.61805z" fill="url(#color-12)"/></g></g></g></g></svg>