<svg version="1.1" xmlns="http://www.w3.org/2000/svg" xmlns:xlink="http://www.w3.org/1999/xlink" width="41.20201" height="18.65849" viewBox="0,0,41.20201,18.65849"><defs><linearGradient x1="257.59022" y1="198.0891" x2="257.59022" y2="193.0137" gradientUnits="userSpaceOnUse" id="color-1"><stop offset="0" stop-color="#c7c7c7"/><stop offset="1" stop-color="#c7c7c7" stop-opacity="0"/></linearGradient><linearGradient x1="257.59022" y1="190.35898" x2="257.59022" y2="195.43437" gradientUnits="userSpaceOnUse" id="color-2"><stop offset="0" stop-color="#ffffff"/><stop offset="1" stop-color="#ffffff" stop-opacity="0"/></linearGradient><linearGradient x1="257.53452" y1="200.3637" x2="257.53452" y2="195.28831" gradientUnits="userSpaceOnUse" id="color-3"><stop offset="0" stop-color="#ffffff"/><stop offset="1" stop-color="#ffffff" stop-opacity="0"/></linearGradient><linearGradient x1="257.53452" y1="188.03775" x2="257.53452" y2="193.11315" gradientUnits="userSpaceOnUse" id="color-4"><stop offset="0" stop-color="#000000"/><stop offset="1" stop-color="#000000" stop-opacity="0"/></linearGradient><linearGradient x1="237.21225" y1="192.85019" x2="237.21225" y2="194.11746" gradientUnits="userSpaceOnUse" id="color-5"><stop offset="0" stop-color="#000000"/><stop offset="1" stop-color="#000000" stop-opacity="0"/></linearGradient><linearGradient x1="237.21225" y1="195.55125" x2="237.21225" y2="194.28398" gradientUnits="userSpaceOnUse" id="color-6"><stop offset="0" stop-color="#ffffff"/><stop offset="1" stop-color="#ffffff" stop-opacity="0"/></linearGradient><linearGradient x1="233.04587" y1="192.27934" x2="233.04587" y2="193.72944" gradientUnits="userSpaceOnUse" id="color-7"><stop offset="0" stop-color="#000000"/><stop offset="1" stop-color="#000000" stop-opacity="0"/></linearGradient><linearGradient x1="233.04587" y1="194.63576" x2="233.04587" y2="196.08587" gradientUnits="userSpaceOnUse" id="color-8"><stop offset="0" stop-color="#ffffff" stop-opacity="0"/><stop offset="1" stop-color="#ffffff"/></linearGradient><linearGradient x1="241.81673" y1="194.20599" x2="240.29411" y2="194.20599" gradientUnits="userSpaceOnUse" id="color-9"><stop offset="0" stop-color="#000000"/><stop offset="1" stop-color="#000000" stop-opacity="0"/></linearGradient><linearGradient x1="241.49102" y1="197.37625" x2="241.49102" y2="193.42323" gradientUnits="userSpaceOnUse" id="color-10"><stop offset="0" stop-color="#464646"/><stop offset="1" stop-color="#464646" stop-opacity="0"/></linearGradient><linearGradient x1="241.49102" y1="191.0664" x2="241.49102" y2="195.01942" gradientUnits="userSpaceOnUse" id="color-11"><stop offset="0" stop-color="#ffffff"/><stop offset="1" stop-color="#ffffff" stop-opacity="0"/></linearGradient><linearGradient x1="241.49102" y1="204.66204" x2="241.49102" y2="196.60586" gradientUnits="userSpaceOnUse" id="color-12"><stop offset="0" stop-color="#ffffff"/><stop offset="1" stop-color="#ffffff" stop-opacity="0"/></linearGradient><linearGradient x1="241.49102" y1="183.73943" x2="241.49102" y2="191.7956" gradientUnits="userSpaceOnUse" id="color-13"><stop offset="0" stop-color="#000000"/><stop offset="1" stop-color="#000000" stop-opacity="0"/></linearGradient></defs><g transform="translate(-232.29587,-179.57033)"><g data-paper-data="{&quot;isPaintingLayer&quot;:true}" fill-rule="nonzero" stroke-linejoin="miter" stroke-miterlimit="10" stroke-dasharray="" stroke-dashoffset="0" style="mix-blend-mode: normal"><g><g><g stroke="none" stroke-width="0" stroke-linecap="butt"><path d="M241.57114,191.66304c0,0 20.75576,0 23.18968,0c0.45478,0 1.18295,0.11858 1.56497,0.23993c0.99073,0.3147 5.42693,1.72385 6.94813,2.20705c0.32238,0.10241 0.2945,0.22902 -0.0693,0.33816c-1.54256,0.46277 -5.68244,1.70473 -6.71397,2.0142c-0.45269,0.13581 -1.34603,0.27605 -1.87483,0.27605c-2.59812,0 -23.04467,0 -23.04467,0z" fill="#bfbfbf"/><path d="M241.62685,194.22214v-2.36852c0,0 20.44655,0 23.04467,0c0.52881,0 1.42214,0.14024 1.87483,0.27605c1.03153,0.30945 5.17141,1.55142 6.71397,2.0142c0.36382,0.10914 0.0693,0.08036 0.0693,0.08036z" data-paper-data="{&quot;index&quot;:null}" fill="url(#color-1)"/><path d="M273.32964,194.22385c0,0 0.2945,-0.02878 -0.0693,0.08036c-1.54256,0.46277 -5.68244,1.70473 -6.71397,2.0142c-0.45269,0.13581 -1.34603,0.27605 -1.87483,0.27605c-2.59812,0 -23.04467,0 -23.04467,0v-2.36852z" fill="url(#color-2)"/><path d="M241.57114,191.66304c0,0 20.44655,0 23.04467,0c0.52881,0 1.42214,0.14024 1.87483,0.27605c1.03153,0.30945 5.17141,1.55142 6.71397,2.0142c0.36382,0.10914 0.3917,0.23576 0.0693,0.33816c-1.52119,0.4832 -5.95739,1.89234 -6.94813,2.20705c-0.38201,0.12135 -1.11019,0.23993 -1.56497,0.23993c-2.43392,0 -23.18968,0 -23.18968,0z" data-paper-data="{&quot;index&quot;:null}" fill="url(#color-3)"/><path d="M241.57114,191.66304c0,0 20.75576,0 23.18968,0c0.45478,0 1.18295,0.11858 1.56497,0.23993c0.99073,0.3147 5.42693,1.72385 6.94813,2.20705c0.32238,0.10241 0.2945,0.22902 -0.0693,0.33816c-1.54256,0.46277 -5.68244,1.70473 -6.71397,2.0142c-0.45269,0.13581 -1.34603,0.27605 -1.87483,0.27605c-2.59812,0 -23.04467,0 -23.04467,0z" fill="url(#color-4)"/></g><g fill="none" stroke-width="1" stroke-linecap="round"><path d="M241.09865,194.20072h-7.7728" stroke="#f7b577"/><path d="M241.09865,194.20072h-7.7728" data-paper-data="{&quot;index&quot;:null}" stroke="url(#color-5)"/><path d="M241.09865,194.20072h-7.7728" data-paper-data="{&quot;index&quot;:null}" stroke="url(#color-6)"/></g><path d="M233.04587,194.04837v0.30472" fill="none" stroke="#969696" stroke-width="1.5" stroke-linecap="round"/><path d="M233.04587,194.04837v0.30472" data-paper-data="{&quot;index&quot;:null}" fill="none" stroke="url(#color-7)" stroke-width="1.5" stroke-linecap="round"/><path d="M233.04587,194.04837v0.30472" data-paper-data="{&quot;index&quot;:null}" fill="none" stroke="url(#color-8)" stroke-width="1.5" stroke-linecap="round"/><g stroke="none" stroke-linecap="butt"><path d="M240.29411,193.64407h1.52262v1.12383h-1.52262z" fill="url(#color-9)" stroke-width="2"/><path d="M240.69711,190.17265h1.48233v8.05617h-1.48233z" fill="#a3a3a3" stroke-width="0"/><path d="M240.69711,190.26657h1.48233v3.95301h-1.48233z" data-paper-data="{&quot;index&quot;:null}" fill="url(#color-10)" stroke-width="0"/><path d="M240.69711,194.22306h1.48233v3.95301h-1.48233z" data-paper-data="{&quot;index&quot;:null}" fill="url(#color-11)" stroke-width="0"/><path d="M240.69711,190.17265h1.48233v8.05617h-1.48233z" data-paper-data="{&quot;index&quot;:null}" fill="url(#color-12)" stroke-width="0"/><path d="M240.69711,190.17265h1.48233v8.05617h-1.48233z" data-paper-data="{&quot;index&quot;:null}" fill="url(#color-13)" stroke-width="0"/></g></g><path d="M237.09667,194.87033c0,0 -0.25499,-4.66207 0.23343,-7.0716c0.5106,-2.51894 2.76657,-7.7284 2.76657,-7.7284" fill="none" stroke="#000000" stroke-width="1" stroke-linecap="round"/></g></g></g></svg>