<svg version="1.1" xmlns="http://www.w3.org/2000/svg" xmlns:xlink="http://www.w3.org/1999/xlink" width="13.16702" height="12.9733" viewBox="0,0,13.16702,12.9733"><defs><linearGradient x1="244.02622" y1="184.01749" x2="240.19226" y2="193.96509" gradientUnits="userSpaceOnUse" id="color-1"><stop offset="0" stop-color="#000000" stop-opacity="0"/><stop offset="1" stop-color="#000000"/></linearGradient><linearGradient x1="247.80546" y1="169.73733" x2="243.97149" y2="179.68493" gradientUnits="userSpaceOnUse" id="color-2"><stop offset="0" stop-color="#ffffff"/><stop offset="1" stop-color="#ffffff" stop-opacity="0"/></linearGradient><linearGradient x1="243.39682" y1="183.39707" x2="240.18438" y2="191.73205" gradientUnits="userSpaceOnUse" id="color-3"><stop offset="0" stop-color="#000000" stop-opacity="0"/><stop offset="1" stop-color="#000000"/></linearGradient><linearGradient x1="246.5634" y1="171.43189" x2="243.35097" y2="179.76687" gradientUnits="userSpaceOnUse" id="color-4"><stop offset="0" stop-color="#000000"/><stop offset="1" stop-color="#000000" stop-opacity="0"/></linearGradient><linearGradient x1="243.58433" y1="183.66611" x2="240.17115" y2="192.52196" gradientUnits="userSpaceOnUse" id="color-5"><stop offset="0" stop-color="#000000" stop-opacity="0"/><stop offset="1" stop-color="#000000"/></linearGradient><linearGradient x1="246.94879" y1="170.9532" x2="243.53561" y2="179.80906" gradientUnits="userSpaceOnUse" id="color-6"><stop offset="0" stop-color="#ffffff"/><stop offset="1" stop-color="#ffffff" stop-opacity="0"/></linearGradient><linearGradient x1="231.22833" y1="178.83113" x2="227.81514" y2="187.68701" gradientUnits="userSpaceOnUse" id="color-7"><stop offset="0" stop-color="#000000" stop-opacity="0"/><stop offset="1" stop-color="#000000"/></linearGradient><linearGradient x1="234.59279" y1="166.11821" x2="231.1796" y2="174.97409" gradientUnits="userSpaceOnUse" id="color-8"><stop offset="0" stop-color="#ffffff"/><stop offset="1" stop-color="#ffffff" stop-opacity="0"/></linearGradient><linearGradient x1="234.24441" y1="178.31577" x2="232.89806" y2="181.80899" gradientUnits="userSpaceOnUse" id="color-9"><stop offset="0" stop-color="#000000" stop-opacity="0"/><stop offset="1" stop-color="#000000"/></linearGradient><linearGradient x1="235.57151" y1="173.30114" x2="234.22517" y2="176.79436" gradientUnits="userSpaceOnUse" id="color-10"><stop offset="0" stop-color="#ffffff"/><stop offset="1" stop-color="#ffffff" stop-opacity="0"/></linearGradient></defs><g transform="translate(-233.41649,-173.51335)"><g data-paper-data="{&quot;isPaintingLayer&quot;:true}" fill-rule="nonzero" stroke="none" stroke-width="0" stroke-linecap="butt" stroke-linejoin="miter" stroke-miterlimit="10" stroke-dasharray="" stroke-dashoffset="0" style="mix-blend-mode: normal"><g><path d="M233.68173,179.81497c0.53291,-1.38269 1.44003,-3.73629 1.73614,-4.5046c0.4222,-1.09545 2.26701,-2.14423 3.45273,-1.68725c2.36667,0.91213 1.88901,0.99836 6.15127,2.64108c1.47987,0.57038 1.90929,2.31731 1.28255,3.94345c-0.67,1.73842 -1.44982,3.76169 -1.8085,4.69226c-0.37552,0.97439 -1.66786,1.94403 -2.93264,1.45657c-4.11219,-1.58492 -4.08827,-1.84595 -6.52664,-2.78577c-1.18571,-0.45698 -2.09021,-1.84798 -1.35491,-3.75579z" fill="#dddddd"/><path d="M233.68173,179.81497c0.53291,-1.38269 1.44003,-3.73629 1.73614,-4.50457c0.4222,-1.09545 2.26701,-2.14427 3.45273,-1.68725c2.36667,0.91213 1.88901,0.99832 6.15127,2.64108c1.4799,0.57038 1.90929,2.31731 1.28255,3.94345c-0.67001,1.73842 -1.44982,3.76169 -1.8085,4.69226c-0.37552,0.97439 -1.66786,1.94403 -2.93264,1.45657c-4.11219,-1.58492 -4.08827,-1.84595 -6.52664,-2.78577c-1.18571,-0.45698 -2.09021,-1.84797 -1.35491,-3.75578z" fill="url(#color-1)"/><path d="M233.68173,179.81497c0.53291,-1.38269 1.44003,-3.73629 1.73614,-4.50457c0.4222,-1.09545 2.26701,-2.14427 3.45273,-1.68725c2.36667,0.91213 1.88901,0.99832 6.15127,2.64108c1.4799,0.57038 1.90929,2.31731 1.28255,3.94345c-0.67001,1.73842 -1.44982,3.76169 -1.8085,4.69226c-0.37552,0.97439 -1.66786,1.94403 -2.93264,1.45657c-4.11219,-1.58492 -4.08827,-1.84595 -6.52664,-2.78577c-1.18571,-0.45698 -2.09021,-1.84797 -1.35491,-3.75578z" fill="url(#color-2)"/><path d="M234.72929,179.87582c0.44653,-1.15855 1.20658,-3.1306 1.45469,-3.77436c0.35376,-0.91787 1.8995,-1.79664 2.893,-1.41373c1.983,0.76426 1.58279,0.83652 5.15408,2.21293c1.23998,0.47791 1.59978,1.94163 1.07463,3.30417c-0.56139,1.45661 -1.21478,3.15188 -1.51532,3.93159c-0.31464,0.81643 -1.39748,1.62888 -2.45721,1.22044c-3.44556,-1.32798 -3.42552,-1.54669 -5.4686,-2.33416c-0.99349,-0.38289 -1.75136,-1.5484 -1.13526,-3.14694z" fill="#dddddd"/><path d="M234.72929,179.87582c0.44653,-1.15855 1.20658,-3.1306 1.45469,-3.77432c0.35376,-0.91787 1.8995,-1.79667 2.893,-1.41373c1.983,0.76426 1.58279,0.83648 5.15408,2.21293c1.23999,0.47791 1.59978,1.94164 1.07463,3.30417c-0.56139,1.45661 -1.21478,3.15187 -1.51532,3.93158c-0.31464,0.81643 -1.39748,1.62889 -2.45721,1.22045c-3.44556,-1.32798 -3.42552,-1.54671 -5.4686,-2.33417c-0.99349,-0.38289 -1.75136,-1.54839 -1.13526,-3.14691z" fill="url(#color-3)"/><path d="M234.72929,179.87582c0.44653,-1.15855 1.20658,-3.1306 1.45469,-3.77432c0.35376,-0.91787 1.8995,-1.79667 2.893,-1.41373c1.983,0.76426 1.58279,0.83648 5.15408,2.21293c1.23999,0.47791 1.59978,1.94164 1.07463,3.30417c-0.56139,1.45661 -1.21478,3.15187 -1.51532,3.93158c-0.31464,0.81643 -1.39748,1.62889 -2.45721,1.22045c-3.44556,-1.32798 -3.42552,-1.54671 -5.4686,-2.33417c-0.99349,-0.38289 -1.75136,-1.54839 -1.13526,-3.14691z" fill="url(#color-4)"/></g><g><g><path d="M234.37515,179.92483c0.47443,-1.23094 1.28198,-3.32624 1.5456,-4.01021c0.37586,-0.97522 2.01821,-1.90891 3.0738,-1.50209c2.10694,0.81203 1.68168,0.8888 5.47616,2.35122c1.31746,0.50777 1.69974,2.06299 1.1418,3.51067c-0.59647,1.54761 -1.29072,3.34884 -1.61,4.17728c-0.33433,0.86743 -1.48482,1.7307 -2.61079,1.29671c-3.66089,-1.41096 -3.63958,-1.64337 -5.81036,-2.48003c-1.05558,-0.40683 -1.8608,-1.64516 -1.2062,-3.34358z" fill="#c4ad75"/><path d="M234.37515,179.92483c0.47443,-1.23094 1.28198,-3.32624 1.5456,-4.0102c0.37586,-0.97522 2.01821,-1.90894 3.0738,-1.50209c2.10694,0.81203 1.68168,0.88876 5.47616,2.35122c1.31747,0.50777 1.69974,2.06299 1.1418,3.51067c-0.59649,1.54761 -1.29072,3.34884 -1.61,4.17728c-0.33433,0.86743 -1.48482,1.7307 -2.61079,1.29671c-3.66089,-1.41096 -3.63958,-1.64337 -5.81036,-2.48003c-1.05558,-0.40683 -1.8608,-1.64516 -1.2062,-3.34358z" fill="url(#color-5)"/><path d="M234.37515,179.92483c0.47443,-1.23094 1.28198,-3.32624 1.5456,-4.0102c0.37586,-0.97522 2.01821,-1.90894 3.0738,-1.50209c2.10694,0.81203 1.68168,0.88876 5.47616,2.35122c1.31747,0.50777 1.69974,2.06299 1.1418,3.51067c-0.59649,1.54761 -1.29072,3.34884 -1.61,4.17728c-0.33433,0.86743 -1.48482,1.7307 -2.61079,1.29671c-3.66089,-1.41096 -3.63958,-1.64337 -5.81036,-2.48003c-1.05558,-0.40683 -1.8608,-1.64516 -1.2062,-3.34358z" fill="url(#color-6)"/></g><path d="M234.37515,179.74573c0.47443,-1.23094 1.28198,-3.32623 1.5456,-4.0102c0.37586,-0.97522 2.01821,-1.90894 3.0738,-1.50211c2.10694,0.81205 -2.61605,-0.90194 1.17843,0.5605c1.31746,0.50777 1.69973,2.06299 1.1418,3.51067c-0.59649,1.54761 -1.29072,3.34884 -1.61,4.17728c-0.33434,0.86743 -1.48478,1.7307 -2.61079,1.29671c-3.66089,-1.41096 0.65816,0.14737 -1.5126,-0.68931c-1.05558,-0.40683 -1.8608,-1.64516 -1.2062,-3.34357z" fill="#c47676"/><path d="M234.37515,179.74573c0.47443,-1.23094 1.28198,-3.32623 1.5456,-4.0102c0.37586,-0.97522 2.01821,-1.90891 3.0738,-1.50209c2.10694,0.81205 -2.61609,-0.90197 1.17842,0.56049c1.31746,0.50777 1.69974,2.06299 1.1418,3.51068c-0.59649,1.54761 -1.29072,3.34884 -1.61,4.17728c-0.33434,0.86743 -1.48478,1.7307 -2.61079,1.29671c-3.66089,-1.41096 0.65817,0.14737 -1.5126,-0.68931c-1.05558,-0.40683 -1.8608,-1.64516 -1.2062,-3.34357z" fill="url(#color-7)"/><path d="M234.37515,179.74573c0.47443,-1.23094 1.28198,-3.32623 1.5456,-4.0102c0.37586,-0.97522 2.01821,-1.90891 3.0738,-1.50209c2.10694,0.81205 -2.61609,-0.90197 1.17842,0.56049c1.31746,0.50777 1.69974,2.06299 1.1418,3.51068c-0.59649,1.54761 -1.29072,3.34884 -1.61,4.17728c-0.33434,0.86743 -1.48478,1.7307 -2.61079,1.29671c-3.66089,-1.41096 0.65817,0.14737 -1.5126,-0.68931c-1.05558,-0.40683 -1.8608,-1.64516 -1.2062,-3.34357z" fill="url(#color-8)"/><path d="M235.48567,178.67652c0.18714,-0.48553 0.50568,-1.31202 0.60966,-1.58184c0.14827,-0.38466 0.79609,-0.75298 1.21246,-0.59251c0.83107,0.3203 -1.0319,-0.35578 0.46485,0.22108c0.51966,0.20031 0.67048,0.81374 0.45036,1.38478c-0.23528,0.61047 -0.50911,1.32098 -0.63508,1.64775c-0.13189,0.34217 -0.58569,0.68268 -1.02984,0.51149c-1.44404,-0.55657 0.25962,0.05813 -0.59666,-0.2719c-0.41638,-0.16047 -0.73401,-0.64895 -0.47578,-1.31888z" fill="#e78b8b"/><path d="M235.48567,178.67652c0.18714,-0.48553 0.50568,-1.31202 0.60966,-1.58184c0.14827,-0.38466 0.79609,-0.75298 1.21246,-0.59251c0.83107,0.3203 -1.0319,-0.35578 0.46482,0.22108c0.51966,0.20031 0.67048,0.81374 0.45039,1.38478c-0.23528,0.61047 -0.50911,1.32094 -0.63508,1.64775c-0.13189,0.34217 -0.58569,0.68268 -1.02984,0.51149c-1.44404,-0.55657 0.25962,0.05813 -0.59666,-0.2719c-0.41638,-0.16047 -0.73401,-0.64895 -0.47578,-1.31888z" fill="url(#color-9)"/><path d="M235.48567,178.67652c0.18714,-0.48553 0.50568,-1.31202 0.60966,-1.58184c0.14827,-0.38466 0.79609,-0.75298 1.21246,-0.59251c0.83107,0.3203 -1.0319,-0.35578 0.46482,0.22108c0.51966,0.20031 0.67048,0.81374 0.45039,1.38478c-0.23528,0.61047 -0.50911,1.32094 -0.63508,1.64775c-0.13189,0.34217 -0.58569,0.68268 -1.02984,0.51149c-1.44404,-0.55657 0.25962,0.05813 -0.59666,-0.2719c-0.41638,-0.16047 -0.73401,-0.64895 -0.47578,-1.31888z" fill="url(#color-10)"/></g></g></g></svg>