<svg version="1.1" xmlns="http://www.w3.org/2000/svg" xmlns:xlink="http://www.w3.org/1999/xlink" width="61.66669" height="61.66668" viewBox="0,0,61.66669,61.66668"><defs><linearGradient x1="154.83334" y1="173.66667" x2="216.50001" y2="173.66667" gradientUnits="userSpaceOnUse" id="color-1"><stop offset="0" stop-color="#000000"/><stop offset="1" stop-color="#000000" stop-opacity="0"/></linearGradient><linearGradient x1="233.66668" y1="265.16666" x2="233.66668" y2="203.5" gradientUnits="userSpaceOnUse" id="color-2"><stop offset="0" stop-color="#000000"/><stop offset="1" stop-color="#000000" stop-opacity="0"/></linearGradient><linearGradient x1="325.16668" y1="186.33333" x2="263.5" y2="186.33333" gradientUnits="userSpaceOnUse" id="color-3"><stop offset="0" stop-color="#ffffff"/><stop offset="1" stop-color="#ffffff" stop-opacity="0"/></linearGradient><linearGradient x1="246.33335" y1="94.83332" x2="246.33335" y2="156.49998" gradientUnits="userSpaceOnUse" id="color-4"><stop offset="0" stop-color="#ffffff"/><stop offset="1" stop-color="#ffffff" stop-opacity="0"/></linearGradient><linearGradient x1="191.66216" y1="176.40541" x2="226.66216" y2="176.40541" gradientUnits="userSpaceOnUse" id="color-5"><stop offset="0" stop-color="#000000"/><stop offset="1" stop-color="#000000" stop-opacity="0"/></linearGradient><linearGradient x1="236.40541" y1="228.33785" x2="236.40541" y2="193.33785" gradientUnits="userSpaceOnUse" id="color-6"><stop offset="0" stop-color="#000000"/><stop offset="1" stop-color="#000000" stop-opacity="0"/></linearGradient><linearGradient x1="243.5946" y1="131.66214" x2="243.5946" y2="166.66214" gradientUnits="userSpaceOnUse" id="color-7"><stop offset="0" stop-color="#000000"/><stop offset="1" stop-color="#000000" stop-opacity="0"/></linearGradient><linearGradient x1="288.33784" y1="183.5946" x2="253.33784" y2="183.5946" gradientUnits="userSpaceOnUse" id="color-8"><stop offset="0" stop-color="#000000"/><stop offset="1" stop-color="#000000" stop-opacity="0"/></linearGradient><linearGradient x1="215.14055" y1="178.15136" x2="233.14055" y2="178.15136" gradientUnits="userSpaceOnUse" id="color-9"><stop offset="0" stop-color="#000000"/><stop offset="1" stop-color="#000000" stop-opacity="0"/></linearGradient><linearGradient x1="238.15137" y1="204.85947" x2="238.15137" y2="186.85947" gradientUnits="userSpaceOnUse" id="color-10"><stop offset="0" stop-color="#000000"/><stop offset="1" stop-color="#000000" stop-opacity="0"/></linearGradient><linearGradient x1="241.84867" y1="155.14055" x2="241.84867" y2="173.14055" gradientUnits="userSpaceOnUse" id="color-11"><stop offset="0" stop-color="#ffffff"/><stop offset="1" stop-color="#ffffff" stop-opacity="0"/></linearGradient><linearGradient x1="264.85947" y1="181.84866" x2="246.85947" y2="181.84866" gradientUnits="userSpaceOnUse" id="color-12"><stop offset="0" stop-color="#ffffff"/><stop offset="1" stop-color="#ffffff" stop-opacity="0"/></linearGradient></defs><g transform="translate(-209.16666,-149.16666)"><g data-paper-data="{&quot;isPaintingLayer&quot;:true}" fill-rule="nonzero" stroke="none" stroke-width="0" stroke-linecap="butt" stroke-linejoin="miter" stroke-miterlimit="10" stroke-dasharray="" stroke-dashoffset="0" style="mix-blend-mode: normal"><g><g><path d="M209.16668,210.83333v-61.66667h61.66667v61.66667z" fill="#5f5f5f"/><path d="M209.16668,210.83333v-61.66667h61.66667v61.66667z" fill="url(#color-1)"/><path d="M270.83333,210.83333h-61.66667v-61.66667h61.66667z" fill="url(#color-2)"/><path d="M270.83333,149.16667v61.66667h-61.66667v-61.66667z" fill="url(#color-3)"/><path d="M209.16668,149.16667h61.66667v61.66667h-61.66667z" fill="url(#color-4)"/></g><g><path d="M222.5,197.50001v-35h35v35z" fill="#5f5f5f"/><path d="M222.5,197.50001v-35h35v35z" fill="url(#color-5)"/><path d="M257.5,197.50001h-35v-35h35z" fill="url(#color-6)"/><path d="M222.5,162.49999h35v35h-35z" fill="url(#color-7)"/><path d="M257.5,162.49999v35h-35v-35z" fill="url(#color-8)"/></g><g><path d="M231.00002,189.00001v-18h18v18z" fill="#5f5f5f"/><path d="M231.00002,189.00001v-18h18v18z" fill="url(#color-9)"/><path d="M249.00002,189.00001h-18v-18h18z" fill="url(#color-10)"/><path d="M231.00002,171.00001h18v18h-18z" fill="url(#color-11)"/><path d="M249.00002,171.00001v18h-18v-18z" fill="url(#color-12)"/></g></g></g></g></svg>