<svg version="1.1" xmlns="http://www.w3.org/2000/svg" xmlns:xlink="http://www.w3.org/1999/xlink" width="21.40526" height="32.05939" viewBox="0,0,21.40526,32.05939"><defs><linearGradient x1="238.46088" y1="222.77189" x2="238.46088" y2="190.71252" gradientUnits="userSpaceOnUse" id="color-1"><stop offset="0" stop-color="#1a1a1a"/><stop offset="1" stop-color="#1a1a1a" stop-opacity="0"/></linearGradient><linearGradient x1="233.57992" y1="183.07825" x2="212.17467" y2="183.07825" gradientUnits="userSpaceOnUse" id="color-2"><stop offset="0" stop-color="#1a1a1a" stop-opacity="0"/><stop offset="1" stop-color="#1a1a1a"/></linearGradient></defs><g transform="translate(-229.29737,-163.9703)"><g data-paper-data="{&quot;isPaintingLayer&quot;:true}" fill-rule="nonzero" stroke="none" stroke-width="1" stroke-linecap="butt" stroke-linejoin="miter" stroke-miterlimit="10" stroke-dasharray="" stroke-dashoffset="0" style="mix-blend-mode: normal"><g><path d="M250.70262,193.90867c0,1.17359 -0.94744,2.12103 -2.11713,2.12103c-3.85997,0 -13.31103,0 -17.16709,0c-1.16968,0 -2.12103,-0.94745 -2.12103,-2.12103c0,-3.85606 0,-23.96125 0,-27.82121c0,-1.16969 0.95134,-2.11714 2.12103,-2.11714c3.85606,0 13.30713,0 17.16709,0c1.16968,0 2.11713,0.94744 2.11713,2.11714c0,3.85997 0,23.96514 0,27.82121z" fill="#ffffff"/><path d="M250.70263,193.90866c0,1.17359 -0.94744,2.12103 -2.11713,2.12103c-3.85997,0 -13.31103,0 -17.16709,0c-1.16968,0 -2.12103,-0.94745 -2.12103,-2.12103c0,-3.85606 0,-23.96125 0,-27.82121c0,-1.16969 0.95134,-2.11714 2.12103,-2.11714c3.85606,0 13.30713,0 17.16709,0c1.16968,0 2.11713,0.94744 2.11713,2.11714c0,3.85997 0,23.96514 0,27.82121z" fill="url(#color-1)"/><path d="M250.70263,193.90866c0,1.17359 -0.94744,2.12103 -2.11713,2.12103c-3.85997,0 -13.31103,0 -17.16709,0c-1.16968,0 -2.12103,-0.94745 -2.12103,-2.12103c0,-3.85606 0,-23.96125 0,-27.82121c0,-1.16969 0.95134,-2.11714 2.12103,-2.11714c3.85606,0 13.30713,0 17.16709,0c1.16968,0 2.11713,0.94744 2.11713,2.11714c0,3.85997 0,23.96514 0,27.82121z" fill="url(#color-2)"/></g><g fill="none" font-family="sans-serif" font-weight="normal" font-size="12" text-anchor="start"><g/><g data-paper-data="{&quot;index&quot;:null}"/></g></g></g></svg>