<svg version="1.1" xmlns="http://www.w3.org/2000/svg" xmlns:xlink="http://www.w3.org/1999/xlink" width="61.66668" height="61.66667" viewBox="0,0,61.66668,61.66667"><defs><linearGradient x1="219.28514" y1="191.82764" x2="230.11847" y2="191.82764" gradientUnits="userSpaceOnUse" id="color-1"><stop offset="0" stop-color="#000000" stop-opacity="0"/><stop offset="1" stop-color="#000000"/></linearGradient><linearGradient x1="205.37605" y1="192.10037" x2="216.20938" y2="192.10037" gradientUnits="userSpaceOnUse" id="color-2"><stop offset="0" stop-color="#ffffff"/><stop offset="1" stop-color="#ffffff" stop-opacity="0"/></linearGradient><linearGradient x1="218.65635" y1="175.44885" x2="229.47453" y2="175.44885" gradientUnits="userSpaceOnUse" id="color-3"><stop offset="0" stop-color="#000000" stop-opacity="0"/><stop offset="1" stop-color="#000000"/></linearGradient><linearGradient x1="202.92907" y1="174.9034" x2="213.74725" y2="174.9034" gradientUnits="userSpaceOnUse" id="color-4"><stop offset="0" stop-color="#ffffff"/><stop offset="1" stop-color="#ffffff" stop-opacity="0"/></linearGradient><linearGradient x1="217.88569" y1="175.29202" x2="224.43838" y2="175.29202" gradientUnits="userSpaceOnUse" id="color-5"><stop offset="0" stop-color="#000000" stop-opacity="0"/><stop offset="1" stop-color="#000000"/></linearGradient><linearGradient x1="208.35951" y1="174.96163" x2="214.9122" y2="174.96163" gradientUnits="userSpaceOnUse" id="color-6"><stop offset="0" stop-color="#000000"/><stop offset="1" stop-color="#000000" stop-opacity="0"/></linearGradient><linearGradient x1="216.58066" y1="167.90051" x2="216.58066" y2="173.90256" gradientUnits="userSpaceOnUse" id="color-7"><stop offset="0" stop-color="#000000"/><stop offset="1" stop-color="#000000" stop-opacity="0"/></linearGradient><linearGradient x1="213.5521" y1="176.38047" x2="213.5521" y2="182.38251" gradientUnits="userSpaceOnUse" id="color-8"><stop offset="0" stop-color="#000000" stop-opacity="0"/><stop offset="1" stop-color="#000000"/></linearGradient><linearGradient x1="239.79256" y1="185.31611" x2="243.93388" y2="185.31611" gradientUnits="userSpaceOnUse" id="color-9"><stop offset="0" stop-color="#000000"/><stop offset="1" stop-color="#000000" stop-opacity="0"/></linearGradient><linearGradient x1="251.23154" y1="193.90078" x2="247.09023" y2="193.90078" gradientUnits="userSpaceOnUse" id="color-10"><stop offset="0" stop-color="#000000"/><stop offset="1" stop-color="#000000" stop-opacity="0"/></linearGradient><linearGradient x1="227.46398" y1="175.92527" x2="226.18529" y2="175.92527" gradientUnits="userSpaceOnUse" id="color-11"><stop offset="0" stop-color="#000000" stop-opacity="0"/><stop offset="1" stop-color="#000000"/></linearGradient><linearGradient x1="229.3229" y1="175.28593" x2="228.04422" y2="175.28593" gradientUnits="userSpaceOnUse" id="color-12"><stop offset="0" stop-color="#ffffff"/><stop offset="1" stop-color="#ffffff" stop-opacity="0"/></linearGradient><linearGradient x1="224.46965" y1="181.3851" x2="224.46965" y2="188.54224" gradientUnits="userSpaceOnUse" id="color-13"><stop offset="0" stop-color="#000000" stop-opacity="0"/><stop offset="1" stop-color="#000000"/></linearGradient><linearGradient x1="224.35155" y1="172.19593" x2="224.35155" y2="179.35307" gradientUnits="userSpaceOnUse" id="color-14"><stop offset="0" stop-color="#ffffff"/><stop offset="1" stop-color="#ffffff" stop-opacity="0"/></linearGradient><linearGradient x1="233.70929" y1="173.17432" x2="233.70929" y2="169.033" gradientUnits="userSpaceOnUse" id="color-15"><stop offset="0" stop-color="#000000"/><stop offset="1" stop-color="#000000" stop-opacity="0"/></linearGradient><linearGradient x1="246.29071" y1="161.73534" x2="246.29071" y2="165.87665" gradientUnits="userSpaceOnUse" id="color-16"><stop offset="0" stop-color="#000000"/><stop offset="1" stop-color="#000000" stop-opacity="0"/></linearGradient><linearGradient x1="257.93593" y1="181.8942" x2="257.93593" y2="177.75288" gradientUnits="userSpaceOnUse" id="color-17"><stop offset="0" stop-color="#000000"/><stop offset="1" stop-color="#000000" stop-opacity="0"/></linearGradient><linearGradient x1="259.47371" y1="170.45522" x2="259.47371" y2="174.59653" gradientUnits="userSpaceOnUse" id="color-18"><stop offset="0" stop-color="#000000"/><stop offset="1" stop-color="#000000" stop-opacity="0"/></linearGradient><linearGradient x1="261.22073" y1="180.71124" x2="261.22073" y2="184.85255" gradientUnits="userSpaceOnUse" id="color-19"><stop offset="0" stop-color="#000000"/><stop offset="1" stop-color="#000000" stop-opacity="0"/></linearGradient><linearGradient x1="258.07148" y1="197.90324" x2="258.07148" y2="193.76192" gradientUnits="userSpaceOnUse" id="color-20"><stop offset="0" stop-color="#000000"/><stop offset="1" stop-color="#000000" stop-opacity="0"/></linearGradient><linearGradient x1="259.60925" y1="186.46426" x2="259.60925" y2="190.60557" gradientUnits="userSpaceOnUse" id="color-21"><stop offset="0" stop-color="#000000"/><stop offset="1" stop-color="#000000" stop-opacity="0"/></linearGradient><linearGradient x1="261.35628" y1="194.67209" x2="261.35628" y2="198.8134" gradientUnits="userSpaceOnUse" id="color-22"><stop offset="0" stop-color="#000000"/><stop offset="1" stop-color="#000000" stop-opacity="0"/></linearGradient><linearGradient x1="154.83333" y1="173.66667" x2="216.5" y2="173.66667" gradientUnits="userSpaceOnUse" id="color-23"><stop offset="0" stop-color="#000000"/><stop offset="1" stop-color="#000000" stop-opacity="0"/></linearGradient><linearGradient x1="233.66667" y1="265.16667" x2="233.66667" y2="203.5" gradientUnits="userSpaceOnUse" id="color-24"><stop offset="0" stop-color="#000000"/><stop offset="1" stop-color="#000000" stop-opacity="0"/></linearGradient><linearGradient x1="325.16667" y1="186.33333" x2="263.5" y2="186.33333" gradientUnits="userSpaceOnUse" id="color-25"><stop offset="0" stop-color="#ffffff"/><stop offset="1" stop-color="#ffffff" stop-opacity="0"/></linearGradient><linearGradient x1="246.33333" y1="94.83332" x2="246.33333" y2="156.5" gradientUnits="userSpaceOnUse" id="color-26"><stop offset="0" stop-color="#ffffff"/><stop offset="1" stop-color="#ffffff" stop-opacity="0"/></linearGradient></defs><g transform="translate(-209.16666,-149.16666)"><g data-paper-data="{&quot;isPaintingLayer&quot;:true}" fill-rule="nonzero" stroke-linejoin="miter" stroke-miterlimit="10" stroke-dasharray="" stroke-dashoffset="0" style="mix-blend-mode: normal"><g><path d="M209.16667,210.83334v-61.66667h61.66667v61.66667z" fill="#d1b487" stroke="none" stroke-width="0" stroke-linecap="butt"/><path d="M216.57378,171.5512v-3.58434" fill="none" stroke="#000000" stroke-width="0.5" stroke-linecap="round"/><g stroke="none" stroke-width="0" stroke-linecap="butt"><g><path d="M211.29271,180.22158c0,0 0,-6.9193 0,-8.54546c0,-0.6496 0.70476,-1.36364 1.36363,-1.36364c1.21221,0 5.34632,0 7.72727,0c1.0266,0 1.72727,0.99588 1.72727,1.81818c0,1.73467 0,8.09091 0,8.09091z" fill="#946a49"/><path d="M217.61847,199.94239c-1.89011,-4.04192 -6.33333,-19.83334 -6.33333,-19.83334h10.83333c0,0 0,17.11128 0,20.66667c0,1.23658 -0.98741,2.76808 -2.18739,2.03387c-0.75092,-0.45946 -1.58509,-1.31142 -2.31261,-2.8672z" fill="#e8e8e8"/><path d="M217.61847,199.94239c-1.89011,-4.04192 -6.33333,-19.83334 -6.33333,-19.83334h10.83333c0,0 0,17.11128 0,20.66667c0,1.23658 -0.98741,2.76808 -2.18739,2.03387c-0.75092,-0.45946 -1.58509,-1.31142 -2.31261,-2.8672z" fill="url(#color-1)"/><path d="M217.61847,199.94239c-1.89011,-4.04192 -6.33333,-19.83334 -6.33333,-19.83334h10.83333c0,0 0,17.11128 0,20.66667c0,1.23658 -0.98741,2.76808 -2.18739,2.03387c-0.75092,-0.45946 -1.58509,-1.31142 -2.31261,-2.8672z" fill="url(#color-2)"/><path d="M211.29271,180.22158c0,0 0,-6.9193 0,-8.54546c0,-0.6496 0.70476,-1.36364 1.36363,-1.36364c1.21221,0 5.34632,0 7.72727,0c1.0266,0 1.72727,0.99588 1.72727,1.81818c0,1.73467 0,8.09091 0,8.09091z" fill="url(#color-3)"/><path d="M211.29271,180.22158c0,0 0,-6.9193 0,-8.54546c0,-0.6496 0.70476,-1.36364 1.36363,-1.36364c1.21221,0 5.34632,0 7.72727,0c1.0266,0 1.72727,0.99588 1.72727,1.81818c0,1.73467 0,8.09091 0,8.09091z" fill="url(#color-4)"/></g><g><path d="M213.42546,178.2031c0,0 0,-4.19109 0,-5.17607c0,-0.39347 0.42688,-0.82596 0.82597,-0.82596c0.73425,0 3.23832,0 4.68049,0c0.62183,0 1.04623,0.60321 1.04623,1.10129c0,1.0507 0,4.90075 0,4.90075z" fill="#ffffff"/><g><path d="M213.42546,178.18291c0,0 0,-4.19109 0,-5.17607c0,-0.39347 0.42688,-0.82596 0.82597,-0.82596c0.73425,0 3.23832,0 4.68049,0c0.62183,0 1.04623,0.60321 1.04623,1.10129c0,1.0507 0,4.90075 0,4.90075z" fill="url(#color-5)"/><path d="M213.42546,178.18291c0,0 0,-4.19109 0,-5.17607c0,-0.39347 0.42688,-0.82596 0.82597,-0.82596c0.73425,0 3.23832,0 4.68049,0c0.62183,0 1.04623,0.60321 1.04623,1.10129c0,1.0507 0,4.90075 0,4.90075z" fill="url(#color-6)"/><path d="M213.42546,178.22329c0,0 0,-4.19109 0,-5.17607c0,-0.39347 0.42688,-0.82596 0.82596,-0.82596c0.73425,0 3.23833,0 4.6805,0c0.62183,0 1.04622,0.60322 1.04622,1.10129c0,1.0507 0,4.90075 0,4.90075z" fill="url(#color-7)"/><path d="M213.42546,178.18291c0,0 0,-4.19109 0,-5.17607c0,-0.39347 0.42688,-0.82597 0.82596,-0.82597c0.73425,0 3.23833,0 4.6805,0c0.62183,0 1.04622,0.60322 1.04622,1.1013c0,1.0507 0,4.90075 0,4.90075z" fill="url(#color-8)"/></g></g></g><path d="M227.73174,171.9075v-3.58434" fill="none" stroke="#000000" stroke-width="0.5" stroke-linecap="round"/><g stroke="none" stroke-width="0" stroke-linecap="butt"><path d="M243.4414,168.71155h4.14131v41.79379h-4.14131z" fill="#e2b97c"/><path d="M243.4414,210.50534v-41.79379h4.14131v41.79379z" fill="url(#color-9)"/><path d="M247.58271,168.71155v41.79379h-4.14131v-41.79379z" fill="url(#color-10)"/></g><g stroke="none" stroke-width="0" stroke-linecap="butt"><g data-paper-data="{&quot;index&quot;:null}"><path d="M227.05566,181.51956c0,0 0,-7.45037 0,-9.48365c0,-0.96385 0.08281,-1.49181 0.20415,-1.49181c0.28143,0 0.77007,0 0.91335,0c0.07788,0 0.16118,0.1976 0.16118,0.95901c0,1.90608 0,10.01646 0,10.01646z" fill="#946a49"/><path d="M227.05566,181.51956c0,0 0,-7.45037 0,-9.48365c0,-0.96385 0.08281,-1.49181 0.20415,-1.49181c0.28143,0 0.77007,0 0.91335,0c0.07788,0 0.16118,0.1976 0.16118,0.95901c0,1.90608 0,10.01646 0,10.01646z" fill="url(#color-11)"/><path d="M227.05566,181.51956c0,0 0,-7.45037 0,-9.48365c0,-0.96385 0.08281,-1.49181 0.20415,-1.49181c0.28143,0 0.77007,0 0.91335,0c0.07788,0 0.16118,0.1976 0.16118,0.95901c0,1.90608 0,10.01646 0,10.01646z" fill="url(#color-12)"/></g><g><path d="M226.89244,180.60367c1.75029,-1.24872 4.32801,-3.01204 4.32801,-3.01204c0,0 1.48345,3.83446 -0.13969,5.13254c-1.62314,1.29808 -5.45412,0.21312 -6.99372,0.21312c-0.53548,0 -1.19867,-0.65235 -0.88073,-1.44512c0.19896,-0.4961 3.01243,-0.40786 3.68614,-0.8885z" fill="#e8e8e8"/><path d="M226.89244,180.60367c1.75029,-1.24872 4.32801,-3.01204 4.32801,-3.01204c0,0 1.48345,3.83446 -0.13969,5.13254c-1.62314,1.29808 -5.45412,0.21312 -6.99372,0.21312c-0.53548,0 -1.19867,-0.65235 -0.88073,-1.44512c0.19896,-0.4961 3.01243,-0.40786 3.68614,-0.8885z" fill="url(#color-13)"/><path d="M226.89244,180.60367c1.75029,-1.24872 4.32801,-3.01204 4.32801,-3.01204c0,0 1.48345,3.83446 -0.13969,5.13254c-1.62314,1.29808 -5.45412,0.21312 -6.99372,0.21312c-0.53548,0 -1.19867,-0.65235 -0.88073,-1.44512c0.19896,-0.4961 3.01243,-0.40786 3.68614,-0.8885z" fill="url(#color-14)"/></g></g><g stroke="none" stroke-width="0" stroke-linecap="butt"><path d="M209.37419,169.52548v-4.14131h61.25162v4.14131z" fill="#e2b97c"/><path d="M270.62581,169.52548h-61.25162v-4.14131h61.25162z" fill="url(#color-15)"/><path d="M209.37419,165.38417h61.25162v4.14131h-61.25162z" fill="url(#color-16)"/></g><g stroke="none" stroke-width="0" stroke-linecap="butt"><path d="M254.96155,178.24536v-4.14131l7.48655,0v4.14131z" fill="#e2b97c"/><path d="M262.4481,178.24536h-7.48655v-4.14131l7.48655,0z" fill="url(#color-17)"/><path d="M254.96155,174.10405l7.48655,0v4.14131h-7.48655z" fill="url(#color-18)"/></g><path d="M247.29588,184.36007h23.10403v4.14131h-23.10403z" fill="url(#color-19)" stroke="none" stroke-width="0" stroke-linecap="butt"/><g stroke="none" stroke-width="0" stroke-linecap="butt"><path d="M255.09709,194.2544v-4.14131h7.48656v4.14131z" fill="#e2b97c"/><path d="M262.58364,194.2544h-7.48656v-4.14131h7.48656z" fill="url(#color-20)"/><path d="M255.09709,190.11309h7.48656v4.14131h-7.48656z" fill="url(#color-21)"/></g><path d="M247.43142,198.32092h23.10402v4.14131h-23.10402z" fill="url(#color-22)" stroke="none" stroke-width="0" stroke-linecap="butt"/><path d="M209.16667,153.36368v-3.85289h61.66667v3.85289z" fill="#b69d77" stroke="none" stroke-width="0" stroke-linecap="butt"/><g stroke="none" stroke-width="0" stroke-linecap="butt"><path d="M209.16667,210.83334v-61.66667h61.66667v61.66667z" fill="url(#color-23)"/><path d="M270.83333,210.83334h-61.66667v-61.66667h61.66667z" fill="url(#color-24)"/><path d="M270.83333,149.16666v61.66667h-61.66667v-61.66667z" fill="url(#color-25)"/><path d="M209.16667,149.16666h61.66667v61.66667h-61.66667z" fill="url(#color-26)"/></g></g></g></g></svg>