<svg version="1.1" xmlns="http://www.w3.org/2000/svg" xmlns:xlink="http://www.w3.org/1999/xlink" width="14.59335" height="14.59337" viewBox="0,0,14.59335,14.59337"><defs><linearGradient x1="234.82638" y1="186.12558" x2="234.37974" y2="185.67895" gradientUnits="userSpaceOnUse" id="color-1"><stop offset="0" stop-color="#000000"/><stop offset="1" stop-color="#000000" stop-opacity="0"/></linearGradient><linearGradient x1="233.87443" y1="185.17362" x2="234.32107" y2="185.62025" gradientUnits="userSpaceOnUse" id="color-2"><stop offset="0" stop-color="#ffffff"/><stop offset="1" stop-color="#ffffff" stop-opacity="0"/></linearGradient><linearGradient x1="242.88637" y1="179.8216" x2="241.0976" y2="178.03283" gradientUnits="userSpaceOnUse" id="color-3"><stop offset="0" stop-color="#ffffff"/><stop offset="1" stop-color="#ffffff" stop-opacity="0"/></linearGradient><linearGradient x1="240.16198" y1="177.0972" x2="241.95075" y2="178.88595" gradientUnits="userSpaceOnUse" id="color-4"><stop offset="0" stop-color="#c7c7c7"/><stop offset="1" stop-color="#c7c7c7" stop-opacity="0"/></linearGradient><linearGradient x1="239.34069" y1="176.31518" x2="241.12944" y2="178.10393" gradientUnits="userSpaceOnUse" id="color-5"><stop offset="0" stop-color="#ffffff"/><stop offset="1" stop-color="#ffffff" stop-opacity="0"/></linearGradient><linearGradient x1="243.68481" y1="180.65931" x2="241.89606" y2="178.87056" gradientUnits="userSpaceOnUse" id="color-6"><stop offset="0" stop-color="#000000"/><stop offset="1" stop-color="#000000" stop-opacity="0"/></linearGradient><linearGradient x1="235.97133" y1="184.02495" x2="235.43471" y2="184.56158" gradientUnits="userSpaceOnUse" id="color-7"><stop offset="0" stop-color="#000000"/><stop offset="1" stop-color="#000000" stop-opacity="0"/></linearGradient><linearGradient x1="236.96307" y1="185.24626" x2="235.56987" y2="183.85306" gradientUnits="userSpaceOnUse" id="color-8"><stop offset="0" stop-color="#ffffff"/><stop offset="1" stop-color="#ffffff" stop-opacity="0"/></linearGradient><linearGradient x1="234.73923" y1="183.02241" x2="236.13242" y2="184.41561" gradientUnits="userSpaceOnUse" id="color-9"><stop offset="0" stop-color="#464646"/><stop offset="1" stop-color="#464646" stop-opacity="0"/></linearGradient><linearGradient x1="232.17144" y1="180.45463" x2="235.01075" y2="183.29393" gradientUnits="userSpaceOnUse" id="color-10"><stop offset="0" stop-color="#ffffff"/><stop offset="1" stop-color="#ffffff" stop-opacity="0"/></linearGradient><linearGradient x1="239.54537" y1="187.82856" x2="236.70606" y2="184.98925" gradientUnits="userSpaceOnUse" id="color-11"><stop offset="0" stop-color="#000000"/><stop offset="1" stop-color="#000000" stop-opacity="0"/></linearGradient><linearGradient x1="233.55918" y1="187.79515" x2="233.04811" y2="187.28408" gradientUnits="userSpaceOnUse" id="color-12"><stop offset="0" stop-color="#000000"/><stop offset="1" stop-color="#000000" stop-opacity="0"/></linearGradient><linearGradient x1="232.72869" y1="186.96466" x2="232.21762" y2="186.45359" gradientUnits="userSpaceOnUse" id="color-13"><stop offset="0" stop-color="#ffffff" stop-opacity="0"/><stop offset="1" stop-color="#ffffff"/></linearGradient></defs><g transform="translate(-232.57832,-172.82831)"><g data-paper-data="{&quot;isPaintingLayer&quot;:true}" fill-rule="nonzero" stroke-width="0.5" stroke-linejoin="miter" stroke-miterlimit="10" stroke-dasharray="" stroke-dashoffset="0" style="mix-blend-mode: normal"><g><g><g data-paper-data="{&quot;index&quot;:null}" fill="none" stroke-linecap="round"><path d="M235.72013,184.27989l-2.73943,2.73942" stroke="#f7b577"/><path d="M235.72013,184.27989l-2.73943,2.73942" data-paper-data="{&quot;index&quot;:null}" stroke="url(#color-1)"/><path d="M235.72013,184.27989l-2.73943,2.73942" data-paper-data="{&quot;index&quot;:null}" stroke="url(#color-2)"/></g><g stroke="none" stroke-linecap="butt"><g><path d="M234.99229,183.21897c0,0 7.20615,-7.20615 8.12183,-8.12183c0.18636,-0.18636 0.55064,-0.45179 0.75804,-0.56347c0.4726,-0.25448 2.36937,-1.27582 3.07613,-1.65638c0.16668,-0.08975 0.22114,-0.05496 0.14361,0.09475c-0.36584,0.70641 -1.43269,2.76655 -1.67095,3.22664c-0.09187,0.1774 -0.30671,0.47583 -0.467,0.63612c-0.85781,0.85781 -8.17294,8.17294 -8.17294,8.17294z" fill="#f3c886"/><path d="M235.8974,184.08484l-0.83476,-0.83477c0,0 7.20615,-7.20615 8.12183,-8.12183c0.18638,-0.18636 0.55066,-0.45179 0.75807,-0.56347c0.4726,-0.25448 2.36937,-1.27582 3.07613,-1.65638c0.1667,-0.08977 0.05275,0.00389 0.05275,0.00389z" fill="url(#color-3)"/><path d="M247.07129,172.91217c0,0 0.09364,-0.11394 0.00389,0.05276c-0.38056,0.70675 -1.40189,2.60351 -1.65638,3.07613c-0.11168,0.2074 -0.37711,0.57168 -0.56347,0.75805c-0.91568,0.91568 -8.12184,8.12183 -8.12184,8.12183l-0.83476,-0.83476z" data-paper-data="{&quot;index&quot;:null}" fill="url(#color-4)"/></g><path d="M234.99226,183.219c0,0 7.31513,-7.31512 8.17294,-8.17294c0.16029,-0.16029 0.45872,-0.37512 0.63612,-0.46699c0.46008,-0.23827 2.5202,-1.30511 3.22663,-1.67095c0.14971,-0.07753 0.18451,-0.02309 0.09475,0.14361c-0.38056,0.70675 -1.40189,2.60351 -1.65638,3.07613c-0.11168,0.2074 -0.37711,0.57168 -0.56347,0.75805c-0.91568,0.91568 -8.12183,8.12183 -8.12183,8.12183z" data-paper-data="{&quot;index&quot;:null}" fill="url(#color-5)"/><path d="M234.99229,183.21897c0,0 7.20615,-7.20615 8.12183,-8.12183c0.18636,-0.18636 0.55064,-0.45179 0.75804,-0.56347c0.4726,-0.25448 2.36937,-1.27582 3.07613,-1.65638c0.16668,-0.08975 0.22114,-0.05496 0.14361,0.09475c-0.36584,0.70641 -1.43269,2.76655 -1.67095,3.22664c-0.09187,0.1774 -0.30671,0.47583 -0.467,0.63612c-0.85781,0.85781 -8.17294,8.17294 -8.17294,8.17294z" fill="url(#color-6)"/></g><path d="M235.23667,184.36353l0.53663,-0.53663l0.39608,0.39608l-0.53663,0.53663z" fill="url(#color-7)" stroke="none" stroke-linecap="butt"/><g stroke="none" stroke-linecap="butt"><path d="M234.15895,183.00174l0.52243,-0.52243l2.8393,2.8393l-0.52243,0.52243z" fill="#e2b97c"/><path d="M234.17755,183.02033l0.52243,-0.52243l1.39319,1.3932l-0.52243,0.52243z" data-paper-data="{&quot;index&quot;:null}" fill="url(#color-8)"/><path d="M235.57196,184.41474l0.52243,-0.52243l1.3932,1.39319l-0.52243,0.52243z" data-paper-data="{&quot;index&quot;:null}" fill="url(#color-9)"/><path d="M234.15895,183.00174l0.52243,-0.52243l2.8393,2.8393l-0.52243,0.52243z" data-paper-data="{&quot;index&quot;:null}" fill="url(#color-10)"/><path d="M234.15895,183.00174l0.52243,-0.52243l2.8393,2.8393l-0.52243,0.52243z" data-paper-data="{&quot;index&quot;:null}" fill="url(#color-11)"/></g></g><g fill="none" stroke-linecap="round"><path d="M232.82833,187.0643l0.10739,0.10739" stroke="#d5af77"/><path d="M232.82833,187.0643l0.10739,0.10739" data-paper-data="{&quot;index&quot;:null}" stroke="url(#color-12)"/><path d="M232.82833,187.0643l0.10739,0.10739" data-paper-data="{&quot;index&quot;:null}" stroke="url(#color-13)"/></g></g></g></g></svg>