<svg version="1.1" xmlns="http://www.w3.org/2000/svg" xmlns:xlink="http://www.w3.org/1999/xlink" width="12.58366" height="12.58366" viewBox="0,0,12.58366,12.58366"><defs><linearGradient x1="222.62096" y1="178.70763" x2="235.20461" y2="178.70763" gradientUnits="userSpaceOnUse" id="color-1"><stop offset="0" stop-color="#000000"/><stop offset="1" stop-color="#000000" stop-opacity="0"/></linearGradient><linearGradient x1="238.70763" y1="197.37904" x2="238.70763" y2="184.79539" gradientUnits="userSpaceOnUse" id="color-2"><stop offset="0" stop-color="#000000"/><stop offset="1" stop-color="#000000" stop-opacity="0"/></linearGradient><linearGradient x1="257.37904" y1="181.29237" x2="244.79539" y2="181.29237" gradientUnits="userSpaceOnUse" id="color-3"><stop offset="0" stop-color="#ffffff"/><stop offset="1" stop-color="#ffffff" stop-opacity="0"/></linearGradient><linearGradient x1="241.29238" y1="162.62096" x2="241.29238" y2="175.20461" gradientUnits="userSpaceOnUse" id="color-4"><stop offset="0" stop-color="#ffffff"/><stop offset="1" stop-color="#ffffff" stop-opacity="0"/></linearGradient><linearGradient x1="230.13622" y1="179.26649" x2="237.27829" y2="179.26649" gradientUnits="userSpaceOnUse" id="color-5"><stop offset="0" stop-color="#000000"/><stop offset="1" stop-color="#000000" stop-opacity="0"/></linearGradient><linearGradient x1="239.26649" y1="189.86378" x2="239.26649" y2="182.72171" gradientUnits="userSpaceOnUse" id="color-6"><stop offset="0" stop-color="#000000"/><stop offset="1" stop-color="#000000" stop-opacity="0"/></linearGradient><linearGradient x1="240.73351" y1="170.13622" x2="240.73351" y2="177.27829" gradientUnits="userSpaceOnUse" id="color-7"><stop offset="0" stop-color="#000000"/><stop offset="1" stop-color="#000000" stop-opacity="0"/></linearGradient><linearGradient x1="249.86378" y1="180.73351" x2="242.72171" y2="180.73351" gradientUnits="userSpaceOnUse" id="color-8"><stop offset="0" stop-color="#000000"/><stop offset="1" stop-color="#000000" stop-opacity="0"/></linearGradient><linearGradient x1="234.9272" y1="179.62277" x2="238.60026" y2="179.62277" gradientUnits="userSpaceOnUse" id="color-9"><stop offset="0" stop-color="#000000"/><stop offset="1" stop-color="#000000" stop-opacity="0"/></linearGradient><linearGradient x1="239.62277" y1="185.0728" x2="239.62277" y2="181.39973" gradientUnits="userSpaceOnUse" id="color-10"><stop offset="0" stop-color="#000000"/><stop offset="1" stop-color="#000000" stop-opacity="0"/></linearGradient><linearGradient x1="240.37723" y1="174.9272" x2="240.37723" y2="178.60026" gradientUnits="userSpaceOnUse" id="color-11"><stop offset="0" stop-color="#ffffff"/><stop offset="1" stop-color="#ffffff" stop-opacity="0"/></linearGradient><linearGradient x1="245.0728" y1="180.37723" x2="241.39974" y2="180.37723" gradientUnits="userSpaceOnUse" id="color-12"><stop offset="0" stop-color="#ffffff"/><stop offset="1" stop-color="#ffffff" stop-opacity="0"/></linearGradient></defs><g transform="translate(-233.70816,-173.70816)"><g data-paper-data="{&quot;isPaintingLayer&quot;:true}" fill-rule="nonzero" stroke="none" stroke-width="0" stroke-linecap="butt" stroke-linejoin="miter" stroke-miterlimit="10" stroke-dasharray="" stroke-dashoffset="0" style="mix-blend-mode: normal"><g><g><path d="M233.70818,186.29182v-12.58365h12.58365v12.58365z" fill="#806947"/><path d="M233.70818,186.29182v-12.58365h12.58365v12.58365z" fill="url(#color-1)"/><path d="M246.29182,186.29182h-12.58365v-12.58365h12.58365z" fill="url(#color-2)"/><path d="M246.29182,173.70818v12.58365h-12.58365v-12.58365z" fill="url(#color-3)"/><path d="M233.70818,173.70818h12.58365v12.58365h-12.58365z" fill="url(#color-4)"/></g><g><path d="M236.42896,183.57103v-7.14207h7.14207v7.14207z" fill="#806947"/><path d="M236.42896,183.57103v-7.14207h7.14207v7.14207z" fill="url(#color-5)"/><path d="M243.57104,183.57103h-7.14207v-7.14207h7.14207z" fill="url(#color-6)"/><path d="M236.42896,176.42896h7.14207v7.14207h-7.14207z" fill="url(#color-7)"/><path d="M243.57104,176.42896v7.14207h-7.14207v-7.14207z" fill="url(#color-8)"/></g><g><path d="M238.16347,181.83653v-3.67306h3.67306v3.67306z" fill="#806947"/><path d="M238.16347,181.83653v-3.67306h3.67306v3.67306z" fill="url(#color-9)"/><path d="M241.83653,181.83653h-3.67306v-3.67306h3.67306z" fill="url(#color-10)"/><path d="M238.16347,178.16347h3.67306v3.67306h-3.67306z" fill="url(#color-11)"/><path d="M241.83653,178.16347v3.67306h-3.67306v-3.67306z" fill="url(#color-12)"/></g></g></g></g></svg>