<svg version="1.1" xmlns="http://www.w3.org/2000/svg" xmlns:xlink="http://www.w3.org/1999/xlink" width="7.74093" height="20.05013" viewBox="0,0,7.74093,20.05013"><defs><linearGradient x1="234.45921" y1="171.28066" x2="237.54982" y2="166.63035" gradientUnits="userSpaceOnUse" id="color-1"><stop offset="0" stop-color="#000000"/><stop offset="1" stop-color="#000000" stop-opacity="0"/></linearGradient><linearGradient x1="231.51013" y1="160.75001" x2="236.16044" y2="163.84062" gradientUnits="userSpaceOnUse" id="color-2"><stop offset="0" stop-color="#000000"/><stop offset="1" stop-color="#000000" stop-opacity="0"/></linearGradient><linearGradient x1="242.04078" y1="157.80093" x2="238.95017" y2="162.45124" gradientUnits="userSpaceOnUse" id="color-3"><stop offset="0" stop-color="#ffffff"/><stop offset="1" stop-color="#ffffff" stop-opacity="0"/></linearGradient><linearGradient x1="244.98986" y1="168.33158" x2="240.33955" y2="165.24097" gradientUnits="userSpaceOnUse" id="color-4"><stop offset="0" stop-color="#ffffff"/><stop offset="1" stop-color="#ffffff" stop-opacity="0"/></linearGradient><linearGradient x1="236.09847" y1="168.36612" x2="237.8526" y2="165.72676" gradientUnits="userSpaceOnUse" id="color-5"><stop offset="0" stop-color="#000000"/><stop offset="1" stop-color="#000000" stop-opacity="0"/></linearGradient><linearGradient x1="234.42467" y1="162.38927" x2="237.06403" y2="164.1434" gradientUnits="userSpaceOnUse" id="color-6"><stop offset="0" stop-color="#000000"/><stop offset="1" stop-color="#000000" stop-opacity="0"/></linearGradient><linearGradient x1="242.07532" y1="166.69232" x2="239.43596" y2="164.93819" gradientUnits="userSpaceOnUse" id="color-7"><stop offset="0" stop-color="#000000"/><stop offset="1" stop-color="#000000" stop-opacity="0"/></linearGradient><linearGradient x1="240.40152" y1="160.71547" x2="238.64739" y2="163.35483" gradientUnits="userSpaceOnUse" id="color-8"><stop offset="0" stop-color="#000000"/><stop offset="1" stop-color="#000000" stop-opacity="0"/></linearGradient><linearGradient x1="237.14349" y1="166.5081" x2="238.04562" y2="165.15072" gradientUnits="userSpaceOnUse" id="color-9"><stop offset="0" stop-color="#000000"/><stop offset="1" stop-color="#000000" stop-opacity="0"/></linearGradient><linearGradient x1="236.28269" y1="163.43429" x2="237.64007" y2="164.33642" gradientUnits="userSpaceOnUse" id="color-10"><stop offset="0" stop-color="#000000"/><stop offset="1" stop-color="#000000" stop-opacity="0"/></linearGradient><linearGradient x1="240.2173" y1="165.6473" x2="238.85992" y2="164.74517" gradientUnits="userSpaceOnUse" id="color-11"><stop offset="0" stop-color="#ffffff"/><stop offset="1" stop-color="#ffffff" stop-opacity="0"/></linearGradient><linearGradient x1="239.3565" y1="162.57349" x2="238.45437" y2="163.93087" gradientUnits="userSpaceOnUse" id="color-12"><stop offset="0" stop-color="#ffffff"/><stop offset="1" stop-color="#ffffff" stop-opacity="0"/></linearGradient></defs><g transform="translate(-234.37953,-160.67033)"><g data-paper-data="{&quot;isPaintingLayer&quot;:true}" fill-rule="nonzero" stroke-linejoin="miter" stroke-miterlimit="10" stroke-dasharray="" stroke-dashoffset="0" style="mix-blend-mode: normal"><path d="M240.09666,180.22046c0,0 -2.25597,-5.20946 -2.76657,-7.7284c-0.48842,-2.40953 -0.23343,-7.0716 -0.23343,-7.0716" data-paper-data="{&quot;index&quot;:null}" fill="none" stroke="#000000" stroke-width="1" stroke-linecap="round"/><g data-paper-data="{&quot;index&quot;:null}" stroke="none" stroke-width="0" stroke-linecap="butt"><g><path d="M237.47015,160.67033l4.65031,3.09061l-3.09061,4.65031l-4.65031,-3.09061z" fill="#806947"/><path d="M237.47015,160.67033l4.65031,3.09061l-3.09061,4.65031l-4.65031,-3.09061z" fill="url(#color-1)"/><path d="M242.12046,163.76095l-3.09061,4.65031l-4.65031,-3.09061l3.09061,-4.65031z" fill="url(#color-2)"/><path d="M239.02984,168.41126l-4.65031,-3.09061l3.09061,-4.65031l4.65031,3.09061z" fill="url(#color-3)"/><path d="M234.37953,165.32064l3.09061,-4.65031l4.65031,3.09061l-3.09061,4.65031z" fill="url(#color-4)"/></g><g><path d="M237.80738,162.34405l2.63936,1.75413l-1.75413,2.63936l-2.63936,-1.75413z" fill="#806947"/><path d="M237.80738,162.34405l2.63936,1.75413l-1.75413,2.63936l-2.63936,-1.75413z" fill="url(#color-5)"/><path d="M240.44674,164.09818l-1.75413,2.63936l-2.63936,-1.75413l1.75413,-2.63936z" fill="url(#color-6)"/><path d="M236.05325,164.98341l1.75413,-2.63936l2.63936,1.75413l-1.75413,2.63936z" fill="url(#color-7)"/><path d="M238.69261,166.73754l-2.63936,-1.75413l1.75413,-2.63936l2.63936,1.75413z" fill="url(#color-8)"/></g><g><path d="M238.02236,163.41105l1.35738,0.90212l-0.90212,1.35738l-1.35738,-0.90212z" fill="#806947"/><path d="M238.02236,163.41105l1.35738,0.90212l-0.90212,1.35738l-1.35738,-0.90212z" fill="url(#color-9)"/><path d="M239.37974,164.31316l-0.90212,1.35738l-1.35738,-0.90212l0.90212,-1.35738z" fill="url(#color-10)"/><path d="M237.12025,164.76843l0.90212,-1.35738l1.35738,0.90212l-0.90212,1.35738z" fill="url(#color-11)"/><path d="M238.47763,165.67054l-1.35738,-0.90212l0.90212,-1.35738l1.35738,0.90212z" fill="url(#color-12)"/></g></g></g></g></svg>