<svg version="1.1" xmlns="http://www.w3.org/2000/svg" xmlns:xlink="http://www.w3.org/1999/xlink" width="41.65938" height="27.81494" viewBox="0,0,41.65938,27.81494"><defs><linearGradient x1="184.42032" y1="178" x2="226.07969" y2="178" gradientUnits="userSpaceOnUse" id="color-1"><stop offset="0" stop-color="#1a1a1a"/><stop offset="1" stop-color="#1a1a1a" stop-opacity="0"/></linearGradient><linearGradient x1="236" y1="171.65747" x2="236" y2="143.84254" gradientUnits="userSpaceOnUse" id="color-2"><stop offset="0" stop-color="#1a1a1a" stop-opacity="0"/><stop offset="1" stop-color="#1a1a1a"/></linearGradient><linearGradient x1="242.63334" y1="182.70834" x2="242.63334" y2="177.45834" gradientUnits="userSpaceOnUse" id="color-3"><stop offset="0" stop-color="#000000"/><stop offset="1" stop-color="#151515"/></linearGradient><linearGradient x1="243.53334" y1="182.33334" x2="243.53334" y2="179.73334" gradientUnits="userSpaceOnUse" id="color-4"><stop offset="0" stop-color="#292929"/><stop offset="1" stop-color="#313131"/></linearGradient><linearGradient x1="251.03334" y1="182.54167" x2="251.03334" y2="177.29167" gradientUnits="userSpaceOnUse" id="color-5"><stop offset="0" stop-color="#000000"/><stop offset="1" stop-color="#151515"/></linearGradient><linearGradient x1="250.13334" y1="182.16667" x2="250.13334" y2="179.56667" gradientUnits="userSpaceOnUse" id="color-6"><stop offset="0" stop-color="#292929"/><stop offset="1" stop-color="#313131"/></linearGradient></defs><g transform="translate(-219.17031,-166.09253)"><g data-paper-data="{&quot;isPaintingLayer&quot;:true}" fill-rule="nonzero" stroke-linejoin="miter" stroke-miterlimit="10" stroke-dasharray="" stroke-dashoffset="0" style="mix-blend-mode: normal"><g data-paper-data="{&quot;index&quot;:null}" stroke="none" stroke-width="1" stroke-linecap="butt"><path d="M221.92647,193.90746c-1.52501,0 -2.75616,-1.23114 -2.75616,-2.75109c0,-5.01581 0,-17.29694 0,-22.30768c0,-1.51994 1.23116,-2.75616 2.75616,-2.75616c5.01074,0 31.13631,0 36.15211,0c1.51995,0 2.7511,1.23621 2.7511,2.75616c0,5.01074 0,17.29187 0,22.30768c0,1.51994 -1.23115,2.75109 -2.7511,2.75109c-5.01582,0 -31.14137,0 -36.15211,0z" fill="#ffffff"/><path d="M221.92648,193.90747c-1.52501,0 -2.75616,-1.23114 -2.75616,-2.75109c0,-5.01581 0,-17.29694 0,-22.30768c0,-1.51994 1.23116,-2.75616 2.75616,-2.75616c5.01074,0 31.13631,0 36.15211,0c1.51995,0 2.7511,1.23621 2.7511,2.75616c0,5.01074 0,17.29187 0,22.30768c0,1.51994 -1.23115,2.75109 -2.7511,2.75109c-5.01582,0 -31.14137,0 -36.15211,0z" fill="url(#color-1)"/><path d="M221.92648,193.90747c-1.52501,0 -2.75616,-1.23114 -2.75616,-2.75109c0,-5.01581 0,-17.29694 0,-22.30768c0,-1.51994 1.23116,-2.75616 2.75616,-2.75616c5.01074,0 31.13631,0 36.15211,0c1.51995,0 2.7511,1.23621 2.7511,2.75616c0,5.01074 0,17.29187 0,22.30768c0,1.51994 -1.23115,2.75109 -2.7511,2.75109c-5.01582,0 -31.14137,0 -36.15211,0z" fill="url(#color-2)"/></g><g data-paper-data="{&quot;index&quot;:null}" fill="none" stroke-linecap="round"><g><path d="M242.63334,182.70834v-5.25" stroke="url(#color-3)" stroke-width="3.5"/><path d="M243.53334,179.73334v2.6" stroke="url(#color-4)" stroke-width="1.5"/></g><g data-paper-data="{&quot;index&quot;:null}"><path d="M251.03334,182.54167v-5.25" stroke="url(#color-5)" stroke-width="3.5"/><path d="M250.13334,179.56667v2.6" stroke="url(#color-6)" stroke-width="1.5"/></g></g></g></g></svg>