<svg version="1.1" xmlns="http://www.w3.org/2000/svg" xmlns:xlink="http://www.w3.org/1999/xlink" width="6.85097" height="19.35515" viewBox="0,0,6.85097,19.35515"><defs><linearGradient x1="235.27347" y1="171.83302" x2="237.24824" y2="166.95685" gradientUnits="userSpaceOnUse" id="color-1"><stop offset="0" stop-color="#000000"/><stop offset="1" stop-color="#000000" stop-opacity="0"/></linearGradient><linearGradient x1="230.56279" y1="162.66929" x2="235.43896" y2="164.64406" gradientUnits="userSpaceOnUse" id="color-2"><stop offset="0" stop-color="#000000"/><stop offset="1" stop-color="#000000" stop-opacity="0"/></linearGradient><linearGradient x1="239.72652" y1="157.95861" x2="237.75175" y2="162.83478" gradientUnits="userSpaceOnUse" id="color-3"><stop offset="0" stop-color="#ffffff"/><stop offset="1" stop-color="#ffffff" stop-opacity="0"/></linearGradient><linearGradient x1="244.43721" y1="167.12234" x2="239.56103" y2="165.14757" gradientUnits="userSpaceOnUse" id="color-4"><stop offset="0" stop-color="#ffffff"/><stop offset="1" stop-color="#ffffff" stop-opacity="0"/></linearGradient><linearGradient x1="236.23629" y1="168.83315" x2="237.35711" y2="166.06559" gradientUnits="userSpaceOnUse" id="color-5"><stop offset="0" stop-color="#000000"/><stop offset="1" stop-color="#000000" stop-opacity="0"/></linearGradient><linearGradient x1="233.56266" y1="163.63211" x2="236.33022" y2="164.75293" gradientUnits="userSpaceOnUse" id="color-6"><stop offset="0" stop-color="#000000"/><stop offset="1" stop-color="#000000" stop-opacity="0"/></linearGradient><linearGradient x1="241.43733" y1="166.15952" x2="238.66977" y2="165.0387" gradientUnits="userSpaceOnUse" id="color-7"><stop offset="0" stop-color="#000000"/><stop offset="1" stop-color="#000000" stop-opacity="0"/></linearGradient><linearGradient x1="238.7637" y1="160.95848" x2="237.64288" y2="163.72604" gradientUnits="userSpaceOnUse" id="color-8"><stop offset="0" stop-color="#000000"/><stop offset="1" stop-color="#000000" stop-opacity="0"/></linearGradient><linearGradient x1="236.85009" y1="166.92073" x2="237.42651" y2="165.49741" gradientUnits="userSpaceOnUse" id="color-9"><stop offset="0" stop-color="#000000"/><stop offset="1" stop-color="#000000" stop-opacity="0"/></linearGradient><linearGradient x1="235.47508" y1="164.24591" x2="236.8984" y2="164.82233" gradientUnits="userSpaceOnUse" id="color-10"><stop offset="0" stop-color="#000000"/><stop offset="1" stop-color="#000000" stop-opacity="0"/></linearGradient><linearGradient x1="239.52491" y1="165.54572" x2="238.10159" y2="164.9693" gradientUnits="userSpaceOnUse" id="color-11"><stop offset="0" stop-color="#ffffff"/><stop offset="1" stop-color="#ffffff" stop-opacity="0"/></linearGradient><linearGradient x1="238.1499" y1="162.8709" x2="237.57348" y2="164.29422" gradientUnits="userSpaceOnUse" id="color-12"><stop offset="0" stop-color="#ffffff"/><stop offset="1" stop-color="#ffffff" stop-opacity="0"/></linearGradient></defs><g transform="translate(-234.07451,-161.47033)"><g data-paper-data="{&quot;isPaintingLayer&quot;:true}" fill-rule="nonzero" stroke-linejoin="miter" stroke-miterlimit="10" stroke-dasharray="" stroke-dashoffset="0" style="mix-blend-mode: normal"><path d="M240.09666,180.32548c0,0 -2.25597,-5.20946 -2.76657,-7.7284c-0.48842,-2.40953 -0.23343,-7.0716 -0.23343,-7.0716" data-paper-data="{&quot;index&quot;:null}" fill="none" stroke="#000000" stroke-width="1" stroke-linecap="round"/><g data-paper-data="{&quot;index&quot;:null}" stroke="none" stroke-width="0" stroke-linecap="butt"><g><path d="M236.0493,161.47034l4.87618,1.97478l-1.97478,4.87618l-4.87618,-1.97478z" fill="#5f5f5f"/><path d="M236.0493,161.47034l4.87618,1.97478l-1.97478,4.87618l-4.87618,-1.97478z" fill="url(#color-1)"/><path d="M240.92547,163.44512l-1.97478,4.87618l-4.87618,-1.97478l1.97478,-4.87618z" fill="url(#color-2)"/><path d="M238.95069,168.32129l-4.87618,-1.97478l1.97478,-4.87618l4.87618,1.97478z" fill="url(#color-3)"/><path d="M234.07452,166.34651l1.97478,-4.87618l4.87618,1.97478l-1.97478,4.87618z" fill="url(#color-4)"/></g><g><path d="M236.67662,162.95163l2.76756,1.12082l-1.12082,2.76756l-2.76756,-1.12082z" fill="#5f5f5f"/><path d="M236.67662,162.95163l2.76756,1.12082l-1.12082,2.76756l-2.76756,-1.12082z" fill="url(#color-5)"/><path d="M239.44418,164.07244l-1.12082,2.76756l-2.76756,-1.12082l1.12082,-2.76756z" fill="url(#color-6)"/><path d="M235.55581,165.71919l1.12082,-2.76756l2.76756,1.12082l-1.12082,2.76756z" fill="url(#color-7)"/><path d="M238.32337,166.84l-2.76756,-1.12082l1.12082,-2.76756l2.76756,1.12082z" fill="url(#color-8)"/></g><g><path d="M237.07655,163.89594l1.42332,0.57642l-0.57642,1.42332l-1.42332,-0.57642z" fill="#5f5f5f"/><path d="M237.07655,163.89594l1.42332,0.57642l-0.57642,1.42332l-1.42332,-0.57642z" fill="url(#color-9)"/><path d="M238.49987,164.47236l-0.57642,1.42332l-1.42332,-0.57642l0.57642,-1.42332z" fill="url(#color-10)"/><path d="M236.50012,165.31926l0.57642,-1.42332l1.42332,0.57642l-0.57642,1.42332z" fill="url(#color-11)"/><path d="M237.92344,165.89568l-1.42332,-0.57642l0.57642,-1.42332l1.42332,0.57642z" fill="url(#color-12)"/></g></g></g></g></svg>