<svg version="1.1" xmlns="http://www.w3.org/2000/svg" xmlns:xlink="http://www.w3.org/1999/xlink" width="9.07821" height="20.34378" viewBox="0,0,9.07821,20.34378"><defs><linearGradient x1="236.16426" y1="193.58715" x2="236.58426" y2="194.76197" gradientUnits="userSpaceOnUse" id="color-1"><stop offset="0" stop-color="#000000" stop-opacity="0"/><stop offset="1" stop-color="#000000"/></linearGradient><linearGradient x1="235.59543" y1="192.08937" x2="236.01543" y2="193.26418" gradientUnits="userSpaceOnUse" id="color-2"><stop offset="0" stop-color="#ffffff"/><stop offset="1" stop-color="#ffffff" stop-opacity="0"/></linearGradient><linearGradient x1="237.91606" y1="192.88396" x2="238.33548" y2="194.05713" gradientUnits="userSpaceOnUse" id="color-3"><stop offset="0" stop-color="#000000" stop-opacity="0"/><stop offset="1" stop-color="#000000"/></linearGradient><linearGradient x1="237.36547" y1="191.15728" x2="237.78489" y2="192.33045" gradientUnits="userSpaceOnUse" id="color-4"><stop offset="0" stop-color="#ffffff"/><stop offset="1" stop-color="#ffffff" stop-opacity="0"/></linearGradient><linearGradient x1="237.90319" y1="192.79431" x2="238.15724" y2="193.50491" gradientUnits="userSpaceOnUse" id="color-5"><stop offset="0" stop-color="#000000" stop-opacity="0"/><stop offset="1" stop-color="#000000"/></linearGradient><linearGradient x1="237.56969" y1="191.74844" x2="237.82374" y2="192.45904" gradientUnits="userSpaceOnUse" id="color-6"><stop offset="0" stop-color="#000000"/><stop offset="1" stop-color="#000000" stop-opacity="0"/></linearGradient><linearGradient x1="238.65416" y1="192.36622" x2="238.00327" y2="192.59892" gradientUnits="userSpaceOnUse" id="color-7"><stop offset="0" stop-color="#000000"/><stop offset="1" stop-color="#000000" stop-opacity="0"/></linearGradient><linearGradient x1="237.61714" y1="192.36655" x2="236.96625" y2="192.59925" gradientUnits="userSpaceOnUse" id="color-8"><stop offset="0" stop-color="#000000" stop-opacity="0"/><stop offset="1" stop-color="#000000"/></linearGradient><linearGradient x1="237.66546" y1="195.55861" x2="237.82602" y2="196.00771" gradientUnits="userSpaceOnUse" id="color-9"><stop offset="0" stop-color="#000000"/><stop offset="1" stop-color="#000000" stop-opacity="0"/></linearGradient><linearGradient x1="237.17799" y1="197.13193" x2="237.01743" y2="196.68283" gradientUnits="userSpaceOnUse" id="color-10"><stop offset="0" stop-color="#000000"/><stop offset="1" stop-color="#000000" stop-opacity="0"/></linearGradient><linearGradient x1="238.20587" y1="193.85757" x2="238.15629" y2="193.71891" gradientUnits="userSpaceOnUse" id="color-11"><stop offset="0" stop-color="#000000" stop-opacity="0"/><stop offset="1" stop-color="#000000"/></linearGradient><linearGradient x1="238.34727" y1="194.03437" x2="238.29769" y2="193.89571" gradientUnits="userSpaceOnUse" id="color-12"><stop offset="0" stop-color="#ffffff"/><stop offset="1" stop-color="#ffffff" stop-opacity="0"/></linearGradient><linearGradient x1="237.49769" y1="193.74453" x2="236.72154" y2="194.02201" gradientUnits="userSpaceOnUse" id="color-13"><stop offset="0" stop-color="#000000" stop-opacity="0"/><stop offset="1" stop-color="#000000"/></linearGradient><linearGradient x1="238.48962" y1="193.37546" x2="237.71347" y2="193.65294" gradientUnits="userSpaceOnUse" id="color-14"><stop offset="0" stop-color="#ffffff"/><stop offset="1" stop-color="#ffffff" stop-opacity="0"/></linearGradient><linearGradient x1="238.74632" y1="194.42818" x2="239.19542" y2="194.26762" gradientUnits="userSpaceOnUse" id="color-15"><stop offset="0" stop-color="#000000"/><stop offset="1" stop-color="#000000" stop-opacity="0"/></linearGradient><linearGradient x1="240.47459" y1="195.34908" x2="240.02549" y2="195.50964" gradientUnits="userSpaceOnUse" id="color-16"><stop offset="0" stop-color="#000000"/><stop offset="1" stop-color="#000000" stop-opacity="0"/></linearGradient><linearGradient x1="238.73996" y1="197.39349" x2="239.18906" y2="197.23293" gradientUnits="userSpaceOnUse" id="color-17"><stop offset="0" stop-color="#000000"/><stop offset="1" stop-color="#000000" stop-opacity="0"/></linearGradient><linearGradient x1="240.04007" y1="197.11677" x2="239.59097" y2="197.27733" gradientUnits="userSpaceOnUse" id="color-18"><stop offset="0" stop-color="#000000"/><stop offset="1" stop-color="#000000" stop-opacity="0"/></linearGradient><linearGradient x1="238.9956" y1="197.70385" x2="238.5465" y2="197.8644" gradientUnits="userSpaceOnUse" id="color-19"><stop offset="0" stop-color="#000000"/><stop offset="1" stop-color="#000000" stop-opacity="0"/></linearGradient><linearGradient x1="237.00913" y1="198.02886" x2="237.45823" y2="197.8683" gradientUnits="userSpaceOnUse" id="color-20"><stop offset="0" stop-color="#000000"/><stop offset="1" stop-color="#000000" stop-opacity="0"/></linearGradient><linearGradient x1="238.30924" y1="197.75213" x2="237.86014" y2="197.91269" gradientUnits="userSpaceOnUse" id="color-21"><stop offset="0" stop-color="#000000"/><stop offset="1" stop-color="#000000" stop-opacity="0"/></linearGradient><linearGradient x1="237.48688" y1="198.25981" x2="237.03778" y2="198.42036" gradientUnits="userSpaceOnUse" id="color-22"><stop offset="0" stop-color="#000000"/><stop offset="1" stop-color="#000000" stop-opacity="0"/></linearGradient><linearGradient x1="235.63492" y1="185.89363" x2="238.02573" y2="192.58102" gradientUnits="userSpaceOnUse" id="color-23"><stop offset="0" stop-color="#000000"/><stop offset="1" stop-color="#000000" stop-opacity="0"/></linearGradient><linearGradient x1="228.76863" y1="197.99009" x2="235.45602" y2="195.59928" gradientUnits="userSpaceOnUse" id="color-24"><stop offset="0" stop-color="#000000"/><stop offset="1" stop-color="#000000" stop-opacity="0"/></linearGradient><linearGradient x1="240.86509" y1="204.85638" x2="238.47428" y2="198.16899" gradientUnits="userSpaceOnUse" id="color-25"><stop offset="0" stop-color="#ffffff"/><stop offset="1" stop-color="#ffffff" stop-opacity="0"/></linearGradient><linearGradient x1="247.73138" y1="192.75992" x2="241.04399" y2="195.15073" gradientUnits="userSpaceOnUse" id="color-26"><stop offset="0" stop-color="#ffffff"/><stop offset="1" stop-color="#ffffff" stop-opacity="0"/></linearGradient></defs><g transform="translate(-233.7109,-179.57033)"><g data-paper-data="{&quot;isPaintingLayer&quot;:true}" fill-rule="nonzero" stroke-linejoin="miter" stroke-miterlimit="10" stroke-dasharray="" stroke-dashoffset="0" style="mix-blend-mode: normal"><path d="M237.09666,194.87033c0,0 -0.25499,-4.66207 0.23343,-7.0716c0.5106,-2.51894 2.76657,-7.7284 2.76657,-7.7284" fill="none" stroke="#000000" stroke-width="1" stroke-linecap="round"/><g><path d="M233.7109,193.22671l6.68739,-2.3908l2.3908,6.68739l-6.68739,2.3908z" fill="#d1b487" stroke="none" stroke-width="0" stroke-linecap="butt"/><path d="M238.258,192.50701l0.3887,-0.13896" fill="none" stroke="#000000" stroke-width="0.5" stroke-linecap="round"/><g stroke="none" stroke-width="0" stroke-linecap="butt"><g><path d="M237.113,192.27046c0,0 0.75036,-0.26826 0.92671,-0.33131c0.07045,-0.02519 0.1752,0.02356 0.20075,0.09501c0.047,0.13146 0.20727,0.57978 0.29958,0.83798c0.0398,0.11133 -0.04103,0.22592 -0.1302,0.2578c-0.18812,0.06725 -0.87741,0.31368 -0.87741,0.31368z" fill="#946a49"/><path d="M235.21964,193.72102c0.36504,-0.36167 1.90527,-1.45575 1.90527,-1.45575l0.42001,1.17481c0,0 -1.85562,0.6634 -2.24118,0.80124c-0.1341,0.04794 -0.33846,0.00024 -0.30537,-0.15836c0.02071,-0.09925 0.08076,-0.22274 0.22127,-0.36195z" fill="#e8e8e8"/><path d="M235.21964,193.72102c0.36504,-0.36167 1.90527,-1.45575 1.90527,-1.45575l0.42001,1.17481c0,0 -1.85562,0.6634 -2.24118,0.80124c-0.1341,0.04794 -0.33846,0.00024 -0.30537,-0.15836c0.02071,-0.09925 0.08076,-0.22274 0.22127,-0.36195z" fill="url(#color-1)"/><path d="M235.21964,193.72102c0.36504,-0.36167 1.90527,-1.45575 1.90527,-1.45575l0.42001,1.17481c0,0 -1.85562,0.6634 -2.24118,0.80124c-0.1341,0.04794 -0.33846,0.00024 -0.30537,-0.15836c0.02071,-0.09925 0.08076,-0.22274 0.22127,-0.36195z" fill="url(#color-2)"/><path d="M237.113,192.27046c0,0 0.75036,-0.26826 0.92671,-0.33131c0.07045,-0.02519 0.1752,0.02356 0.20075,0.09501c0.047,0.13146 0.20727,0.57978 0.29958,0.83798c0.0398,0.11133 -0.04103,0.22592 -0.1302,0.2578c-0.18812,0.06725 -0.87741,0.31368 -0.87741,0.31368z" fill="url(#color-3)"/><path d="M237.113,192.27046c0,0 0.75036,-0.26826 0.92671,-0.33131c0.07045,-0.02519 0.1752,0.02356 0.20075,0.09501c0.047,0.13146 0.20727,0.57978 0.29958,0.83798c0.0398,0.11133 -0.04103,0.22592 -0.1302,0.2578c-0.18812,0.06725 -0.87741,0.31368 -0.87741,0.31368z" fill="url(#color-4)"/></g><g><path d="M237.41458,192.42349c0,0 0.4545,-0.16249 0.56131,-0.20067c0.04267,-0.01525 0.10612,0.01427 0.12159,0.05755c0.02847,0.07962 0.12555,0.35118 0.18146,0.50757c0.02411,0.06743 -0.02485,0.13684 -0.07887,0.15615c-0.11394,0.04074 -0.53146,0.19 -0.53146,0.19z" fill="#ffffff"/><g><path d="M237.41677,192.4227c0,0 0.4545,-0.16249 0.56131,-0.20067c0.04267,-0.01525 0.10612,0.01427 0.12159,0.05755c0.02847,0.07962 0.12555,0.35118 0.18146,0.50757c0.02411,0.06743 -0.02485,0.13684 -0.07887,0.15615c-0.11394,0.04074 -0.53146,0.19 -0.53146,0.19z" fill="url(#color-5)"/><path d="M237.41677,192.4227c0,0 0.4545,-0.16249 0.56131,-0.20067c0.04267,-0.01525 0.10612,0.01427 0.12159,0.05755c0.02847,0.07962 0.12555,0.35118 0.18146,0.50757c0.02411,0.06743 -0.02485,0.13684 -0.07887,0.15615c-0.11394,0.04074 -0.53146,0.19 -0.53146,0.19z" fill="url(#color-6)"/><path d="M237.41239,192.42427c0,0 0.4545,-0.16249 0.56131,-0.20067c0.04267,-0.01525 0.10612,0.01427 0.12159,0.05755c0.02847,0.07962 0.12555,0.35118 0.18146,0.50757c0.02411,0.06743 -0.02486,0.13684 -0.07887,0.15615c-0.11394,0.04074 -0.53146,0.19 -0.53146,0.19z" fill="url(#color-7)"/><path d="M237.41677,192.4227c0,0 0.4545,-0.16249 0.56131,-0.20067c0.04267,-0.01525 0.10612,0.01427 0.12159,0.05755c0.02847,0.07962 0.12555,0.35118 0.18146,0.50757c0.02411,0.06743 -0.02486,0.13684 -0.07887,0.15615c-0.11394,0.04074 -0.53146,0.19 -0.53146,0.19z" fill="url(#color-8)"/></g></g></g><path d="M238.65195,193.73084l0.3887,-0.13896" fill="none" stroke="#000000" stroke-width="0.5" stroke-linecap="round"/><g stroke="none" stroke-width="0" stroke-linecap="butt"><path d="M239.60759,195.31056l0.16056,0.4491l-4.5323,1.62034l-0.16056,-0.4491z" fill="#e2b97c"/><path d="M235.0753,196.93089l4.5323,-1.62034l0.16056,0.4491l-4.5323,1.62034z" fill="url(#color-9)"/><path d="M239.76815,195.75966l-4.5323,1.62034l-0.16056,-0.4491l4.5323,-1.62034z" fill="url(#color-10)"/></g><g stroke="none" stroke-width="0" stroke-linecap="butt"><g data-paper-data="{&quot;index&quot;:null}"><path d="M237.58337,194.03018c0,0 0.80795,-0.28885 1.02845,-0.36768c0.10452,-0.03737 0.16499,-0.04886 0.16969,-0.0357c0.01091,0.03052 0.02986,0.08351 0.03541,0.09905c0.00302,0.00845 -0.01518,0.02514 -0.09775,0.05466c-0.2067,0.0739 -1.08623,0.38834 -1.08623,0.38834z" fill="#946a49"/><path d="M237.58337,194.03018c0,0 0.80795,-0.28885 1.02845,-0.36768c0.10452,-0.03737 0.16499,-0.04886 0.16969,-0.0357c0.01091,0.03052 0.02986,0.08351 0.03541,0.09905c0.00302,0.00845 -0.01518,0.02514 -0.09775,0.05466c-0.2067,0.0739 -1.08623,0.38834 -1.08623,0.38834z" fill="url(#color-11)"/><path d="M237.58337,194.03018c0,0 0.80795,-0.28885 1.02845,-0.36768c0.10452,-0.03737 0.16499,-0.04886 0.16969,-0.0357c0.01091,0.03052 0.02986,0.08351 0.03541,0.09905c0.00302,0.00845 -0.01518,0.02514 -0.09775,0.05466c-0.2067,0.0739 -1.08623,0.38834 -1.08623,0.38834z" fill="url(#color-12)"/></g><g><path d="M237.67636,193.97697c0.20328,0.1414 0.49444,0.35257 0.49444,0.35257c0,0 -0.35831,0.30954 -0.56201,0.18384c-0.2037,-0.12569 -0.23457,-0.58321 -0.29426,-0.75017c-0.02076,-0.05807 0.02427,-0.15528 0.12257,-0.15154c0.06151,0.00234 0.16102,0.31087 0.23927,0.36529z" fill="#e8e8e8"/><path d="M237.67636,193.97697c0.20328,0.1414 0.49444,0.35257 0.49444,0.35257c0,0 -0.35831,0.30954 -0.56201,0.18384c-0.2037,-0.12569 -0.23457,-0.58321 -0.29426,-0.75017c-0.02076,-0.05807 0.02427,-0.15528 0.12257,-0.15154c0.06151,0.00234 0.16102,0.31087 0.23927,0.36529z" fill="url(#color-13)"/><path d="M237.67636,193.97697c0.20328,0.1414 0.49444,0.35257 0.49444,0.35257c0,0 -0.35831,0.30954 -0.56201,0.18384c-0.2037,-0.12569 -0.23457,-0.58321 -0.29426,-0.75017c-0.02076,-0.05807 0.02427,-0.15528 0.12257,-0.15154c0.06151,0.00234 0.16102,0.31087 0.23927,0.36529z" fill="url(#color-14)"/></g></g><g stroke="none" stroke-width="0" stroke-linecap="butt"><path d="M238.19855,191.64772l0.4491,-0.16056l2.37471,6.64238l-0.4491,0.16056z" fill="#e2b97c"/><path d="M240.57326,198.2901l-2.37471,-6.64238l0.4491,-0.16056l2.37471,6.64238z" fill="url(#color-15)"/><path d="M238.64765,191.48716l2.37471,6.64238l-0.4491,0.16056l-2.37471,-6.64238z" fill="url(#color-16)"/></g><g stroke="none" stroke-width="0" stroke-linecap="butt"><path d="M239.02034,196.92947l0.4491,-0.16056l0.29025,0.81187l-0.4491,0.16056z" fill="#e2b97c"/><path d="M239.3106,197.74134l-0.29025,-0.81187l0.4491,-0.16056l0.29025,0.81187z" fill="url(#color-17)"/><path d="M239.46945,196.76891l0.29025,0.81187l-0.4491,0.16056l-0.29025,-0.81187z" fill="url(#color-18)"/></g><path d="M238.06004,196.33524l0.89574,2.5055l-0.4491,0.16056l-0.89574,-2.5055z" fill="url(#color-19)" stroke="none" stroke-width="0" stroke-linecap="butt"/><g stroke="none" stroke-width="0" stroke-linecap="butt"><path d="M237.28951,197.56484l0.4491,-0.16056l0.29025,0.81188l-0.4491,0.16056z" fill="#e2b97c"/><path d="M237.57976,198.37671l-0.29025,-0.81188l0.4491,-0.16056l0.29025,0.81188z" fill="url(#color-20)"/><path d="M237.73861,197.40428l0.29025,0.81188l-0.4491,0.16056l-0.29025,-0.81188z" fill="url(#color-21)"/></g><path d="M236.55132,196.8912l0.89574,2.5055l-0.4491,0.16056l-0.89574,-2.5055z" fill="url(#color-22)" stroke="none" stroke-width="0" stroke-linecap="butt"/><path d="M239.94316,190.99863l0.41782,-0.14938l2.3908,6.68739l-0.41782,0.14938z" fill="#b69d77" stroke="none" stroke-width="0" stroke-linecap="butt"/><g stroke="none" stroke-width="0" stroke-linecap="butt"><path d="M233.7109,193.22671l6.68739,-2.3908l2.3908,6.68739l-6.68739,2.3908z" fill="url(#color-23)"/><path d="M236.10171,199.9141l-2.3908,-6.68739l6.68739,-2.3908l2.3908,6.68739z" fill="url(#color-24)"/><path d="M242.78911,197.5233l-6.68739,2.3908l-2.3908,-6.68739l6.68739,-2.3908z" fill="url(#color-25)"/><path d="M240.3983,190.83591l2.3908,6.68739l-6.68739,2.3908l-2.3908,-6.68739z" fill="url(#color-26)"/></g></g></g></g></svg>