<svg version="1.1" xmlns="http://www.w3.org/2000/svg" xmlns:xlink="http://www.w3.org/1999/xlink" width="6.71787" height="18.19707" viewBox="0,0,6.71787,18.19707"><defs><linearGradient x1="244.33869" y1="166.60442" x2="240.58107" y2="165.81618" gradientUnits="userSpaceOnUse" id="color-1"><stop offset="0" stop-color="#ffffff"/><stop offset="1" stop-color="#ffffff" stop-opacity="0"/></linearGradient><linearGradient x1="239.76999" y1="165.64604" x2="237.64" y2="165.19923" gradientUnits="userSpaceOnUse" id="color-2"><stop offset="0" stop-color="#ffffff"/><stop offset="1" stop-color="#ffffff" stop-opacity="0"/></linearGradient><linearGradient x1="239.92657" y1="167.16745" x2="238.91313" y2="166.95486" gradientUnits="userSpaceOnUse" id="color-3"><stop offset="0" stop-color="#afd89a"/><stop offset="1" stop-color="#a3ca8f"/></linearGradient><linearGradient x1="237.83623" y1="166.4583" x2="236.82279" y2="166.24571" gradientUnits="userSpaceOnUse" id="color-4"><stop offset="0" stop-color="#afd89a"/><stop offset="1" stop-color="#a3ca8f"/></linearGradient><linearGradient x1="238.58463" y1="164.75758" x2="238.16236" y2="164.669" gradientUnits="userSpaceOnUse" id="color-5"><stop offset="0" stop-color="#afd89a"/><stop offset="1" stop-color="#a3ca8f"/></linearGradient><linearGradient x1="240.74219" y1="164.80418" x2="239.72874" y2="164.59159" gradientUnits="userSpaceOnUse" id="color-6"><stop offset="0" stop-color="#afd89a"/><stop offset="1" stop-color="#a3ca8f"/></linearGradient><linearGradient x1="237.8794" y1="165.42162" x2="237.45714" y2="165.33305" gradientUnits="userSpaceOnUse" id="color-7"><stop offset="0" stop-color="#afd89a"/><stop offset="1" stop-color="#a3ca8f"/></linearGradient><linearGradient x1="238.0259" y1="163.90221" x2="237.60363" y2="163.81363" gradientUnits="userSpaceOnUse" id="color-8"><stop offset="0" stop-color="#afd89a"/><stop offset="1" stop-color="#a3ca8f"/></linearGradient></defs><g transform="translate(-234.88781,-162.47033)"><g data-paper-data="{&quot;isPaintingLayer&quot;:true}" fill-rule="nonzero" stroke-linejoin="miter" stroke-miterlimit="10" stroke-dasharray="" stroke-dashoffset="0" style="mix-blend-mode: normal"><path d="M240.09666,180.1674c0,0 -2.25597,-5.20946 -2.76657,-7.7284c-0.48842,-2.40953 -0.23343,-7.0716 -0.23343,-7.0716" data-paper-data="{&quot;index&quot;:null}" fill="none" stroke="#000000" stroke-width="1" stroke-linecap="round"/><g data-paper-data="{&quot;index&quot;:null}" stroke-width="0.5"><path d="M238.69534,163.07079c0,0 1.77839,0.37305 2.33242,0.48927c0.30666,0.06433 0.6472,0.47123 0.55147,0.9276c-0.19231,0.91677 -0.49895,2.37855 -0.60316,2.87534c-0.06867,0.32738 -0.52489,0.62812 -0.8158,0.5671c-0.54927,-0.11522 -2.37955,-0.49916 -2.37955,-0.49916z" fill="#afd89a" stroke="none" stroke-linecap="butt"/><path d="M238.69535,163.07079c0,0 1.65344,0.34684 2.21458,0.46455c0.34403,0.07217 0.77193,0.4631 0.68414,0.88161c-0.19098,0.91046 -0.51106,2.43628 -0.61799,2.94605c-0.06868,0.32738 -0.49399,0.63461 -0.76867,0.57699c-0.54327,-0.11397 -2.42669,-0.50905 -2.42669,-0.50905z" fill="url(#color-1)" stroke="none" stroke-linecap="butt"/><path d="M235.19236,166.50901l-0.20894,-0.28071l0.36051,-0.11717l-0.45612,-0.39083l0.51942,-0.06726l-0.20191,-0.3382l0.50806,-0.15824l-0.50007,-0.50829l0.37208,-0.09641l-0.15631,-0.3241l0.35511,-0.19327l-0.48711,-0.31171l0.51121,-0.12154l-0.27798,-0.24037l0.28988,-0.09655l-0.50152,-0.34748l0.66892,-0.10038l-0.15473,-0.34617l2.66993,0.56007l-0.91463,4.36015l-2.66993,-0.56007z" fill="#99be87" stroke="none" stroke-linecap="butt"/><path d="M235.56003,166.58613l-0.20894,-0.28071l0.36051,-0.11717l-0.45612,-0.39083l0.51942,-0.06726l-0.20191,-0.3382l0.50806,-0.15824l-0.50007,-0.50829l0.37208,-0.09641l-0.15631,-0.3241l0.35511,-0.19327l-0.48711,-0.31171l0.51121,-0.12154l-0.27798,-0.24037l0.28988,-0.09655l-0.50152,-0.34748l0.66892,-0.10038l-0.15473,-0.34617l2.30227,0.48295l-0.91463,4.36015l-2.30227,-0.48295z" fill="#afd89a" stroke="none" stroke-linecap="butt"/><path d="M235.19236,166.50901l-0.20894,-0.28071l0.36051,-0.11717l-0.45612,-0.39083l0.51942,-0.06726l-0.20191,-0.3382l0.50806,-0.15824l-0.50007,-0.50829l0.37208,-0.09641l-0.15631,-0.3241l0.35511,-0.19327l-0.48711,-0.31171l0.51121,-0.12154l-0.27798,-0.24037l0.28988,-0.09655l-0.50152,-0.34748l0.66892,-0.10038l-0.15473,-0.34617l2.66993,0.56007l-0.91463,4.36015l-2.66993,-0.56007z" fill="url(#color-2)" stroke="none" stroke-linecap="butt"/><path d="M235.54589,166.58316l-0.20894,-0.28071l0.36051,-0.11717l-0.45612,-0.39083l0.51942,-0.06726l-0.20191,-0.3382l0.50806,-0.15824l-0.50007,-0.50829l0.37208,-0.09641l-0.15631,-0.3241l0.35511,-0.19327l-0.48711,-0.31171l0.51121,-0.12154l-0.27798,-0.24037l0.28988,-0.09655l-0.50152,-0.34748l0.66892,-0.10038l-0.15473,-0.34617l2.66993,0.56007l-0.91463,4.36015l-2.66993,-0.56007z" fill="#a3ca8f" stroke="none" stroke-linecap="butt"/><path d="M235.91355,166.66029l-0.20894,-0.28071l0.36051,-0.11717l-0.45612,-0.39083l0.51942,-0.06726l-0.20191,-0.3382l0.50806,-0.15824l-0.50007,-0.50829l0.37208,-0.09641l-0.15631,-0.3241l0.35511,-0.19327l-0.48711,-0.31171l0.51121,-0.12154l-0.27798,-0.24037l0.28988,-0.09655l-0.50152,-0.34748l0.66892,-0.10038l-0.15473,-0.34617l2.30227,0.48295l-0.91463,4.36015l-2.30227,-0.48295z" fill="#afd89a" stroke="none" stroke-linecap="butt"/><path d="M238.91313,166.95486l1.01344,0.21259" fill="none" stroke="url(#color-3)" stroke-linecap="round"/><path d="M236.82279,166.24571l1.01344,0.21259" fill="none" stroke="url(#color-4)" stroke-linecap="round"/><path d="M238.16236,164.669l0.42227,0.08858" fill="none" stroke="url(#color-5)" stroke-linecap="round"/><path d="M240.74219,164.80418l-1.01344,-0.21259" fill="none" stroke="url(#color-6)" stroke-linecap="round"/><path d="M237.45713,165.33304l0.42227,0.08858" fill="none" stroke="url(#color-7)" stroke-linecap="round"/><path d="M237.60363,163.81363l0.42227,0.08858" fill="none" stroke="url(#color-8)" stroke-linecap="round"/></g></g></g></svg>