<svg version="1.1" xmlns="http://www.w3.org/2000/svg" xmlns:xlink="http://www.w3.org/1999/xlink" width="61.66672" height="61.66668" viewBox="0,0,61.66672,61.66668"><defs><linearGradient x1="154.83336" y1="173.66669" x2="216.50005" y2="173.66669" gradientUnits="userSpaceOnUse" id="color-1"><stop offset="0" stop-color="#000000"/><stop offset="1" stop-color="#000000" stop-opacity="0"/></linearGradient><linearGradient x1="233.66672" y1="265.16668" x2="233.66672" y2="203.50003" gradientUnits="userSpaceOnUse" id="color-2"><stop offset="0" stop-color="#000000"/><stop offset="1" stop-color="#000000" stop-opacity="0"/></linearGradient><linearGradient x1="325.16668" y1="186.33336" x2="263.50003" y2="186.33336" gradientUnits="userSpaceOnUse" id="color-3"><stop offset="0" stop-color="#ffffff"/><stop offset="1" stop-color="#ffffff" stop-opacity="0"/></linearGradient><linearGradient x1="246.33339" y1="94.83335" x2="246.33339" y2="156.5" gradientUnits="userSpaceOnUse" id="color-4"><stop offset="0" stop-color="#ffffff"/><stop offset="1" stop-color="#ffffff" stop-opacity="0"/></linearGradient><linearGradient x1="191.66218" y1="176.40542" x2="226.66218" y2="176.40542" gradientUnits="userSpaceOnUse" id="color-5"><stop offset="0" stop-color="#000000"/><stop offset="1" stop-color="#000000" stop-opacity="0"/></linearGradient><linearGradient x1="236.40541" y1="228.33786" x2="236.40541" y2="193.33786" gradientUnits="userSpaceOnUse" id="color-6"><stop offset="0" stop-color="#000000"/><stop offset="1" stop-color="#000000" stop-opacity="0"/></linearGradient><linearGradient x1="243.59461" y1="131.66215" x2="243.59461" y2="166.66215" gradientUnits="userSpaceOnUse" id="color-7"><stop offset="0" stop-color="#000000"/><stop offset="1" stop-color="#000000" stop-opacity="0"/></linearGradient><linearGradient x1="288.33786" y1="183.59461" x2="253.33786" y2="183.59461" gradientUnits="userSpaceOnUse" id="color-8"><stop offset="0" stop-color="#000000"/><stop offset="1" stop-color="#000000" stop-opacity="0"/></linearGradient><linearGradient x1="215.14055" y1="178.15137" x2="233.14055" y2="178.15137" gradientUnits="userSpaceOnUse" id="color-9"><stop offset="0" stop-color="#000000"/><stop offset="1" stop-color="#000000" stop-opacity="0"/></linearGradient><linearGradient x1="238.15137" y1="204.85947" x2="238.15137" y2="186.85947" gradientUnits="userSpaceOnUse" id="color-10"><stop offset="0" stop-color="#000000"/><stop offset="1" stop-color="#000000" stop-opacity="0"/></linearGradient><linearGradient x1="241.84868" y1="155.14055" x2="241.84868" y2="173.14055" gradientUnits="userSpaceOnUse" id="color-11"><stop offset="0" stop-color="#ffffff"/><stop offset="1" stop-color="#ffffff" stop-opacity="0"/></linearGradient><linearGradient x1="264.85947" y1="181.84867" x2="246.85947" y2="181.84867" gradientUnits="userSpaceOnUse" id="color-12"><stop offset="0" stop-color="#ffffff"/><stop offset="1" stop-color="#ffffff" stop-opacity="0"/></linearGradient></defs><g transform="translate(-209.16666,-149.16668)"><g data-paper-data="{&quot;isPaintingLayer&quot;:true}" fill-rule="nonzero" stroke="none" stroke-width="0" stroke-linecap="butt" stroke-linejoin="miter" stroke-miterlimit="10" stroke-dasharray="" stroke-dashoffset="0" style="mix-blend-mode: normal"><path d="M209.16669,210.83336v-61.66667h61.66667v61.66667z" fill="#a2a2a2"/><g><path d="M209.16672,210.83336v-61.66667h61.66667v61.66667z" fill="url(#color-1)"/><path d="M270.83333,210.83336h-61.66667v-61.66667h61.66667z" fill="url(#color-2)"/><path d="M270.83333,149.16669v61.66667h-61.66667v-61.66667z" fill="url(#color-3)"/><path d="M209.16672,149.16669h61.66667v61.66667h-61.66667z" fill="url(#color-4)"/></g><g><path d="M222.50002,197.50002v-35h35v35z" fill="#a2a2a2"/><path d="M222.50002,197.50002v-35h35v35z" fill="url(#color-5)"/><path d="M257.50001,197.50002h-35v-35h35z" fill="url(#color-6)"/><path d="M222.50002,162.5h35v35h-35z" fill="url(#color-7)"/><path d="M257.50001,162.5v35h-35v-35z" fill="url(#color-8)"/></g><g><path d="M231.00003,189.00002v-18h18v18z" fill="#a2a2a2"/><path d="M231.00003,189.00002v-18h18v18z" fill="url(#color-9)"/><path d="M249.00003,189.00002h-18v-18h18z" fill="url(#color-10)"/><path d="M231.00003,171.00002h18v18h-18z" fill="url(#color-11)"/><path d="M249.00003,171.00002v18h-18v-18z" fill="url(#color-12)"/></g></g></g></svg>