<svg version="1.1" xmlns="http://www.w3.org/2000/svg" xmlns:xlink="http://www.w3.org/1999/xlink" width="12.65956" height="12.4733" viewBox="0,0,12.65956,12.4733"><defs><linearGradient x1="243.87105" y1="183.86266" x2="240.18485" y2="193.42687" gradientUnits="userSpaceOnUse" id="color-1"><stop offset="0" stop-color="#000000" stop-opacity="0"/><stop offset="1" stop-color="#000000"/></linearGradient><linearGradient x1="247.50463" y1="170.13287" x2="243.81843" y2="179.69708" gradientUnits="userSpaceOnUse" id="color-2"><stop offset="0" stop-color="#ffffff"/><stop offset="1" stop-color="#ffffff" stop-opacity="0"/></linearGradient><linearGradient x1="243.2659" y1="183.26615" x2="240.17727" y2="191.2799" gradientUnits="userSpaceOnUse" id="color-3"><stop offset="0" stop-color="#000000" stop-opacity="0"/><stop offset="1" stop-color="#000000"/></linearGradient><linearGradient x1="246.31044" y1="171.76212" x2="243.22182" y2="179.77586" gradientUnits="userSpaceOnUse" id="color-4"><stop offset="0" stop-color="#000000"/><stop offset="1" stop-color="#000000" stop-opacity="0"/></linearGradient><linearGradient x1="243.37223" y1="183.3769" x2="240.0906" y2="191.89144" gradientUnits="userSpaceOnUse" id="color-5"><stop offset="0" stop-color="#000000" stop-opacity="0"/><stop offset="1" stop-color="#000000"/></linearGradient><linearGradient x1="246.60702" y1="171.15396" x2="243.32539" y2="179.66851" gradientUnits="userSpaceOnUse" id="color-6"><stop offset="0" stop-color="#ffffff"/><stop offset="1" stop-color="#ffffff" stop-opacity="0"/></linearGradient><linearGradient x1="231.49244" y1="178.72827" x2="228.2108" y2="187.24283" gradientUnits="userSpaceOnUse" id="color-7"><stop offset="0" stop-color="#000000" stop-opacity="0"/><stop offset="1" stop-color="#000000"/></linearGradient><linearGradient x1="234.72723" y1="166.50531" x2="231.44559" y2="175.01988" gradientUnits="userSpaceOnUse" id="color-8"><stop offset="0" stop-color="#ffffff"/><stop offset="1" stop-color="#ffffff" stop-opacity="0"/></linearGradient><linearGradient x1="234.39228" y1="178.23277" x2="233.09782" y2="181.59136" gradientUnits="userSpaceOnUse" id="color-9"><stop offset="0" stop-color="#000000" stop-opacity="0"/><stop offset="1" stop-color="#000000"/></linearGradient><linearGradient x1="235.66823" y1="173.41141" x2="234.37378" y2="176.76999" gradientUnits="userSpaceOnUse" id="color-10"><stop offset="0" stop-color="#ffffff"/><stop offset="1" stop-color="#ffffff" stop-opacity="0"/></linearGradient></defs><g transform="translate(-233.67022,-173.76335)"><g data-paper-data="{&quot;isPaintingLayer&quot;:true}" fill-rule="nonzero" stroke="none" stroke-width="0" stroke-linecap="butt" stroke-linejoin="miter" stroke-miterlimit="10" stroke-dasharray="" stroke-dashoffset="0" style="mix-blend-mode: normal"><g><path d="M233.92524,179.82211c0.51237,-1.3294 1.38453,-3.59229 1.66923,-4.33099c0.40593,-1.05323 2.17964,-2.06159 3.31966,-1.62222c2.27546,0.87698 1.81621,0.95988 5.9142,2.53929c1.42283,0.5484 1.8357,2.228 1.23312,3.79147c-0.64418,1.67142 -1.39394,3.61671 -1.7388,4.51142c-0.36105,0.93684 -1.60358,1.86911 -2.81961,1.40043c-3.9537,-1.52384 -3.93071,-1.77481 -6.2751,-2.6784c-1.14001,-0.43937 -2.00965,-1.77676 -1.30269,-3.61104z" fill="#dddddd"/><path d="M233.92524,179.82211c0.51237,-1.3294 1.38453,-3.59229 1.66923,-4.33096c0.40593,-1.05323 2.17964,-2.06163 3.31966,-1.62222c2.27546,0.87698 1.81621,0.95984 5.9142,2.53929c1.42286,0.5484 1.8357,2.228 1.23312,3.79147c-0.64419,1.67142 -1.39394,3.61671 -1.7388,4.51142c-0.36105,0.93684 -1.60358,1.86911 -2.81961,1.40043c-3.9537,-1.52384 -3.93071,-1.77481 -6.2751,-2.6784c-1.14001,-0.43937 -2.00965,-1.77675 -1.30269,-3.61103z" fill="url(#color-1)"/><path d="M233.92524,179.82211c0.51237,-1.3294 1.38453,-3.59229 1.66923,-4.33096c0.40593,-1.05323 2.17964,-2.06163 3.31966,-1.62222c2.27546,0.87698 1.81621,0.95984 5.9142,2.53929c1.42286,0.5484 1.8357,2.228 1.23312,3.79147c-0.64419,1.67142 -1.39394,3.61671 -1.7388,4.51142c-0.36105,0.93684 -1.60358,1.86911 -2.81961,1.40043c-3.9537,-1.52384 -3.93071,-1.77481 -6.2751,-2.6784c-1.14001,-0.43937 -2.00965,-1.77675 -1.30269,-3.61103z" fill="url(#color-2)"/><path d="M234.93243,179.88061c0.42932,-1.1139 1.16008,-3.00994 1.39863,-3.62889c0.34013,-0.88249 1.82629,-1.7274 2.7815,-1.35924c1.90657,0.7348 1.52179,0.80428 4.95544,2.12764c1.19219,0.45949 1.53812,1.8668 1.03321,3.17682c-0.53975,1.40047 -1.16796,3.0304 -1.45692,3.78006c-0.30251,0.78496 -1.34362,1.5661 -2.36251,1.1734c-3.31277,-1.2768 -3.2935,-1.48708 -5.25784,-2.2442c-0.9552,-0.36813 -1.68386,-1.48872 -1.09151,-3.02565z" fill="#dddddd"/><path d="M234.93243,179.88061c0.42932,-1.1139 1.16008,-3.00994 1.39863,-3.62886c0.34013,-0.88249 1.82629,-1.72743 2.7815,-1.35924c1.90657,0.7348 1.52179,0.80424 4.95544,2.12764c1.1922,0.45949 1.53812,1.86681 1.03321,3.17682c-0.53975,1.40047 -1.16796,3.03039 -1.45692,3.78005c-0.30251,0.78496 -1.34362,1.56611 -2.36251,1.17341c-3.31277,-1.2768 -3.2935,-1.4871 -5.25784,-2.24421c-0.9552,-0.36813 -1.68386,-1.48871 -1.09151,-3.02563z" fill="url(#color-3)"/><path d="M234.93243,179.88061c0.42932,-1.1139 1.16008,-3.00994 1.39863,-3.62886c0.34013,-0.88249 1.82629,-1.72743 2.7815,-1.35924c1.90657,0.7348 1.52179,0.80424 4.95544,2.12764c1.1922,0.45949 1.53812,1.86681 1.03321,3.17682c-0.53975,1.40047 -1.16796,3.03039 -1.45692,3.78005c-0.30251,0.78496 -1.34362,1.56611 -2.36251,1.17341c-3.31277,-1.2768 -3.2935,-1.4871 -5.25784,-2.24421c-0.9552,-0.36813 -1.68386,-1.48871 -1.09151,-3.02563z" fill="url(#color-4)"/></g><g><g><path d="M244.22445,176.74056c1.26668,0.4882 1.63423,1.98348 1.09779,3.37537c-0.57348,1.48796 -1.24097,3.21977 -1.54795,4.01628c-0.32144,0.834 -1.42759,1.664 -2.51017,1.24673c-1.58811,-0.61208 -2.4555,-0.99349 -3.12095,-1.30165c1.05746,-2.2025 1.90581,-3.80908 1.30238,-6.32462c-0.04722,-0.19685 1.08692,-1.46599 1.53472,-2.37844c0.60738,0.29204 1.41686,0.66207 3.24418,1.36633z" fill="#c4ad75"/><path d="M244.22445,176.74057c1.26669,0.4882 1.63423,1.98348 1.09779,3.37537c-0.5735,1.48796 -1.24097,3.21977 -1.54795,4.01628c-0.32144,0.834 -1.42759,1.664 -2.51017,1.24673c-1.58811,-0.61208 -2.45551,-0.99349 -3.12095,-1.30165c1.05746,-2.2025 1.90581,-3.80908 1.30238,-6.32462c-0.04722,-0.19685 1.08693,-1.466 1.53472,-2.37845c0.60738,0.29203 1.41686,0.66206 3.24418,1.36634z" fill="url(#color-5)"/><path d="M244.22445,176.74057c1.26669,0.4882 1.63423,1.98348 1.09779,3.37537c-0.5735,1.48796 -1.24097,3.21977 -1.54795,4.01628c-0.32144,0.834 -1.42759,1.664 -2.51017,1.24673c-1.58811,-0.61208 -2.45551,-0.99349 -3.12095,-1.30165c1.05746,-2.2025 1.90581,-3.80908 1.30238,-6.32462c-0.04722,-0.19685 1.08693,-1.466 1.53472,-2.37845c0.60738,0.29203 1.41686,0.66206 3.24418,1.36634z" fill="url(#color-6)"/></g><path d="M241.19015,178.22202c-0.5735,1.48796 -1.24097,3.21977 -1.54795,4.01628c-0.18652,0.48391 -0.63721,0.96648 -1.19419,1.20483c0.90549,-1.89324 1.54161,-3.42239 0.99755,-5.69046c-0.04577,-0.19079 1.01821,-1.38888 1.49146,-2.29321c0.55618,0.69472 0.64117,1.75569 0.25312,2.76255z" fill="#c47676"/><path d="M241.19014,178.22204c-0.5735,1.48796 -1.24097,3.21977 -1.54795,4.01628c-0.18652,0.48391 -0.63721,0.96648 -1.19419,1.20483c0.90549,-1.89325 1.54162,-3.4224 0.99755,-5.69048c-0.04577,-0.19078 1.0182,-1.38887 1.49146,-2.2932c0.55618,0.69472 0.64117,1.75569 0.25312,2.76255z" fill="url(#color-7)"/><path d="M241.19014,178.22204c-0.5735,1.48796 -1.24097,3.21977 -1.54795,4.01628c-0.18652,0.48391 -0.63721,0.96648 -1.19419,1.20483c0.90549,-1.89325 1.54162,-3.4224 0.99755,-5.69048c-0.04577,-0.19078 1.0182,-1.38887 1.49146,-2.2932c0.55618,0.69472 0.64117,1.75569 0.25312,2.76255z" fill="url(#color-8)"/><path d="" fill="#e78b8b"/><path d="" fill="url(#color-9)"/><path d="" fill="url(#color-10)"/></g></g></g></svg>