<svg version="1.1" xmlns="http://www.w3.org/2000/svg" xmlns:xlink="http://www.w3.org/1999/xlink" width="55.65938" height="37.1624" viewBox="0,0,55.65938,37.1624"><defs><linearGradient x1="165.74228" y1="182.67212" x2="221.40165" y2="182.67212" gradientUnits="userSpaceOnUse" id="color-1"><stop offset="0" stop-color="#1a1a1a"/><stop offset="1" stop-color="#1a1a1a" stop-opacity="0"/></linearGradient><linearGradient x1="234.65577" y1="191.14611" x2="234.65577" y2="228.30849" gradientUnits="userSpaceOnUse" id="color-2"><stop offset="0" stop-color="#1a1a1a" stop-opacity="0"/><stop offset="1" stop-color="#1a1a1a"/></linearGradient><linearGradient x1="243.5183" y1="176.3815" x2="243.5183" y2="183.39581" gradientUnits="userSpaceOnUse" id="color-3"><stop offset="0" stop-color="#000000"/><stop offset="1" stop-color="#151515"/></linearGradient><linearGradient x1="244.72075" y1="176.88252" x2="244.72075" y2="180.35627" gradientUnits="userSpaceOnUse" id="color-4"><stop offset="0" stop-color="#292929"/><stop offset="1" stop-color="#313131"/></linearGradient><linearGradient x1="254.74119" y1="176.60418" x2="254.74119" y2="183.61849" gradientUnits="userSpaceOnUse" id="color-5"><stop offset="0" stop-color="#000000"/><stop offset="1" stop-color="#151515"/></linearGradient><linearGradient x1="253.53874" y1="177.1052" x2="253.53874" y2="180.57895" gradientUnits="userSpaceOnUse" id="color-6"><stop offset="0" stop-color="#292929"/><stop offset="1" stop-color="#313131"/></linearGradient></defs><g transform="translate(-212.17031,-161.4188)"><g data-paper-data="{&quot;isPaintingLayer&quot;:true}" fill-rule="nonzero" stroke-linejoin="miter" stroke-miterlimit="10" stroke-dasharray="" stroke-dashoffset="0" style="mix-blend-mode: normal"><g><g stroke="none" stroke-width="1" stroke-linecap="butt"><path d="M264.15405,161.41882c2.03075,0 3.67563,1.64488 3.67563,3.67561c0,6.70141 0,23.10973 0,29.80437c0,2.03074 -1.64489,3.68239 -3.67563,3.68239c-6.70141,0 -41.6067,0 -48.30134,0c-2.03749,0 -3.68239,-1.65166 -3.68239,-3.68239c0,-6.69465 0,-23.10296 0,-29.80437c0,-2.03074 1.64488,-3.67561 3.68239,-3.67561c6.69465,0 41.59992,0 48.30135,0z" fill="#ffffff"/><path d="M264.15406,161.4188c2.03075,0 3.67563,1.64489 3.67563,3.67562c0,6.70141 0,23.10972 0,29.80437c0,2.03074 -1.64488,3.68239 -3.67563,3.68239c-6.70141,0 -41.6067,0 -48.30135,0c-2.03749,0 -3.68239,-1.65166 -3.68239,-3.68239c0,-6.69465 0,-23.10296 0,-29.80437c0,-2.03074 1.64488,-3.67562 3.68239,-3.67562c6.69465,0 41.59992,0 48.30135,0z" fill="url(#color-1)"/><path d="M264.15406,161.4188c2.03075,0 3.67563,1.64489 3.67563,3.67562c0,6.70141 0,23.10972 0,29.80437c0,2.03074 -1.64488,3.68239 -3.67563,3.68239c-6.70141,0 -41.6067,0 -48.30135,0c-2.03749,0 -3.68239,-1.65166 -3.68239,-3.68239c0,-6.69465 0,-23.10296 0,-29.80437c0,-2.03074 1.64488,-3.67562 3.68239,-3.67562c6.69465,0 41.59992,0 48.30135,0z" fill="url(#color-2)"/></g><g fill="none" stroke-linecap="round"><g><path d="M243.5183,176.3815v7.01431" stroke="url(#color-3)" stroke-width="5"/><path d="M244.72075,176.88252v3.47375" stroke="url(#color-4)" stroke-width="2.5"/></g><g data-paper-data="{&quot;index&quot;:null}"><path d="M254.74119,176.60418v7.01431" stroke="url(#color-5)" stroke-width="5"/><path d="M253.53874,180.57895v-3.47375" stroke="url(#color-6)" stroke-width="2.5"/></g></g></g></g></g></svg>