<svg version="1.1" xmlns="http://www.w3.org/2000/svg" xmlns:xlink="http://www.w3.org/1999/xlink" width="63.50444" height="94.27459" viewBox="0,0,63.50444,94.27459"><defs><linearGradient x1="228.29832" y1="116.93665" x2="230.98302" y2="159.68562" gradientUnits="userSpaceOnUse" id="color-1"><stop offset="0" stop-color="#1a1a1a"/><stop offset="1" stop-color="#1a1a1a" stop-opacity="0"/></linearGradient><linearGradient x1="225.1139" y1="170.27413" x2="196.57145" y2="172.06664" gradientUnits="userSpaceOnUse" id="color-2"><stop offset="0" stop-color="#1a1a1a" stop-opacity="0"/><stop offset="1" stop-color="#1a1a1a"/></linearGradient><linearGradient x1="235.09838" y1="209.47663" x2="233.82606" y2="203.42511" gradientUnits="userSpaceOnUse" id="color-3"><stop offset="0" stop-color="#000000"/><stop offset="1" stop-color="#151515"/></linearGradient><linearGradient x1="233.9701" y1="209.26249" x2="233.34" y2="206.26554" gradientUnits="userSpaceOnUse" id="color-4"><stop offset="0" stop-color="#292929"/><stop offset="1" stop-color="#313131"/></linearGradient><linearGradient x1="225.37556" y1="211.32024" x2="224.10324" y2="205.26869" gradientUnits="userSpaceOnUse" id="color-5"><stop offset="0" stop-color="#000000"/><stop offset="1" stop-color="#151515"/></linearGradient><linearGradient x1="226.32208" y1="210.66987" x2="225.69198" y2="207.67293" gradientUnits="userSpaceOnUse" id="color-6"><stop offset="0" stop-color="#292929"/><stop offset="1" stop-color="#313131"/></linearGradient><linearGradient x1="165.78326" y1="217.85527" x2="220.25178" y2="206.40334" gradientUnits="userSpaceOnUse" id="color-7"><stop offset="0" stop-color="#1a1a1a"/><stop offset="1" stop-color="#1a1a1a" stop-opacity="0"/></linearGradient><linearGradient x1="165.78326" y1="217.85527" x2="220.25178" y2="206.40334" gradientUnits="userSpaceOnUse" id="color-8"><stop offset="0" stop-color="#1a1a1a"/><stop offset="1" stop-color="#1a1a1a" stop-opacity="0"/></linearGradient><linearGradient x1="231.47879" y1="195.38362" x2="223.83263" y2="159.01635" gradientUnits="userSpaceOnUse" id="color-9"><stop offset="0" stop-color="#1a1a1a" stop-opacity="0"/><stop offset="1" stop-color="#1a1a1a"/></linearGradient><linearGradient x1="231.47879" y1="195.38362" x2="223.83263" y2="159.01635" gradientUnits="userSpaceOnUse" id="color-10"><stop offset="0" stop-color="#1a1a1a" stop-opacity="0"/><stop offset="1" stop-color="#1a1a1a"/></linearGradient><linearGradient x1="243.18953" y1="208.00891" x2="241.74634" y2="201.14466" gradientUnits="userSpaceOnUse" id="color-11"><stop offset="0" stop-color="#000000"/><stop offset="1" stop-color="#151515"/></linearGradient><linearGradient x1="244.26318" y1="207.27119" x2="243.54844" y2="203.87177" gradientUnits="userSpaceOnUse" id="color-12"><stop offset="0" stop-color="#292929"/><stop offset="1" stop-color="#313131"/></linearGradient></defs><g transform="translate(-208.62278,-132.4877)"><g data-paper-data="{&quot;isPaintingLayer&quot;:true}" fill-rule="nonzero" stroke-linejoin="miter" stroke-miterlimit="10" stroke-dasharray="" stroke-dashoffset="0" style="mix-blend-mode: normal"><g><g data-paper-data="{&quot;index&quot;:null}" fill="none" stroke="#000000" stroke-width="1.5" stroke-linecap="round"><path d="M226.3692,143.27517c0.17492,0.88664 0.63798,1.97186 0.68332,3.19546c0.02161,0.58347 -0.22417,1.23244 -0.23987,1.8271c-0.07589,2.87502 -0.26141,5.56366 -0.26141,5.56366"/><path d="M223.78217,133.72387c1.45383,3.09356 2.73958,10.22722 2.73958,10.22722"/></g><g data-paper-data="{&quot;index&quot;:null}" fill="none" stroke="#000000" stroke-width="1.5" stroke-linecap="round"><path d="M244.00393,143.03544c-0.7138,3.34279 -4.00548,9.80089 -4.00548,9.80089"/><path d="M245.39121,133.2377c0.02745,0.80342 -0.04172,1.80854 -0.16359,2.87605c-0.08217,0.71977 -0.79951,1.33738 -0.42715,2.17559c1.15325,2.59602 -0.92276,5.42743 -0.92276,5.42743"/></g><g data-paper-data="{&quot;index&quot;:null}" fill="none" stroke="#000000" stroke-width="1.5" stroke-linecap="round"><path d="M247.28002,181.64802c0,0 1.80952,-2.39538 4.21723,-4.81323c0.67514,-0.67798 1.62766,-1.12739 2.31983,-1.80693c1.47787,-1.45091 2.7132,-2.81123 3.88984,-3.67904"/><path d="M257.51103,171.42407c0,0 9.35652,-3.8972 13.86619,-4.74576"/></g><g data-paper-data="{&quot;index&quot;:null}" stroke="none" stroke-width="1" stroke-linecap="butt"><g><path d="M247.03889,154.39863c0.17448,2.77827 1.31733,20.97613 1.31733,20.97613l-1.41087,1.46631l1.5754,1.15353c0,0 0.73818,11.7542 0.84793,13.50172c0.09795,1.55971 -1.08607,2.9024 -2.64576,3.00035c-5.14699,0.32324 -17.74935,1.11469 -22.89114,1.4376c-1.5597,0.09795 -2.90759,-1.08574 -3.00554,-2.64544c-0.32324,-5.14699 -2.00688,-31.95589 -2.32979,-37.09768c-0.09828,-1.56489 1.09094,-2.90792 2.65063,-3.00587c5.14179,-0.32291 17.74413,-1.11436 22.89114,-1.4376c1.5597,-0.09795 2.90239,1.08605 3.00067,2.65096z" fill="#ffffff"/><path d="M247.0389,154.39863c0.1855,2.95387 1.31733,20.97613 1.31733,20.97613l-1.53562,1.47415l1.70799,1.27044c0,0 0.74696,11.89399 0.84009,13.37697c0.09795,1.55971 -1.08607,2.9024 -2.64576,3.00035c-5.14699,0.32324 -17.74935,1.11469 -22.89114,1.4376c-1.5597,0.09795 -2.90759,-1.08574 -3.00554,-2.64544c-0.23446,-3.73334 -2.07798,-33.08813 -2.07798,-33.08813l1.4187,-1.34156l-1.56756,-1.02877c0,0 -0.06503,-1.03548 -0.10295,-1.63922c-0.09828,-1.56489 1.09094,-2.90792 2.65063,-3.00587c5.14179,-0.32291 17.74413,-1.11436 22.89114,-1.4376c1.5597,-0.09795 2.90239,1.08605 3.00067,2.65096z" fill="url(#color-1)"/><path d="M247.03892,154.39863c0.17617,2.80518 1.30166,20.72662 1.30166,20.72662l-1.3952,1.71582l1.58323,1.27828c0,0 0.73646,11.72683 0.84009,13.37697c0.09795,1.55971 -1.08607,2.9024 -2.64576,3.00035c-5.14699,0.32324 -17.74935,1.11469 -22.89114,1.4376c-1.5597,0.09795 -2.90759,-1.08574 -3.00554,-2.64544c-0.26977,-4.29557 -2.07015,-32.96338 -2.07015,-32.96338l1.28611,-1.45848l-1.45848,-1.28611c0,0 -0.07006,-1.1155 -0.08728,-1.38971c-0.09828,-1.56489 1.09094,-2.90792 2.65063,-3.00587c5.14179,-0.32291 17.74413,-1.11436 22.89114,-1.4376c1.5597,-0.09795 2.90239,1.08605 3.00067,2.65096z" fill="url(#color-2)"/></g><g fill="none" font-family="sans-serif" font-weight="normal" font-size="12" text-anchor="start"><g/><g data-paper-data="{&quot;index&quot;:null}"/></g></g><g data-paper-data="{&quot;index&quot;:null}" fill="none" stroke="#000000" stroke-width="1.5" stroke-linecap="round"><path d="M220.78063,183.13866c0,0 4.85623,-8.89661 7.84156,-12.38157"/><path d="M228.47204,170.89109c0,0 1.22592,-0.87827 2.97323,-2.06297c1.13692,-0.77084 2.66514,-1.31482 4.04946,-2.18759c2.00377,-1.26332 3.89284,-2.82497 5.41975,-3.49404"/></g><g data-paper-data="{&quot;index&quot;:null}"><g data-paper-data="{&quot;index&quot;:null}" fill="#d6c3c8" stroke-width="0"><g stroke="none" stroke-linecap="butt"><path d="M220.00919,226.12863c-1.75201,0.36835 -3.46947,-0.75238 -3.83782,-2.50437c-1.21556,-5.78158 -4.19186,-19.93766 -5.4062,-25.71338c-0.36836,-1.75199 0.75116,-3.47531 2.50315,-3.84366c5.78156,-1.21557 35.8957,-7.54702 41.67142,-8.76136c1.75782,-0.36957 3.47654,0.75701 3.84489,2.509c0.70173,3.33765 1.99186,9.47384 3.19058,15.17528c-1.96166,0.56194 -3.19135,2.53897 -2.79847,4.56634c-1.8963,0.62252 -3.06034,2.58583 -2.64016,4.58434c0.15586,0.74137 0.50934,1.39051 0.99375,1.90393c-1.82564,0.66423 -2.93239,2.58682 -2.52107,4.54314c0.01229,0.0584 0.02579,0.11624 0.0405,0.17349c-10.98587,2.30976 -30.50395,6.41341 -35.04057,7.36723z"/><path d=""/><path d="M255.04976,218.76141c-10.98588,2.30976 -30.50398,6.41342 -35.04058,7.36723c-1.752,0.36835 -3.46947,-0.75239 -3.83782,-2.50438c-1.21556,-5.78158 -4.19186,-19.93765 -5.4062,-25.71338c-0.36836,-1.75199 0.75116,-3.47531 2.50316,-3.84366c5.78156,-1.21557 35.89569,-7.54702 41.67142,-8.76136c1.75782,-0.36957 3.47654,0.75701 3.84489,2.509c0.70173,3.33765 1.99186,9.47384 3.19058,15.17528c-1.96166,0.56194 -3.19135,2.53897 -2.79847,4.56634c-1.8963,0.62252 -3.06034,2.58583 -2.64016,4.58434c0.15586,0.74137 0.50934,1.39051 0.99375,1.90393c-1.82564,0.66423 -2.93239,2.58682 -2.52107,4.54314c0.01229,0.05841 0.02579,0.11625 0.0405,0.1735z"/><path d=""/><path d="M255.04976,218.76141c-10.98588,2.30976 -30.50398,6.41342 -35.04058,7.36723c-1.752,0.36835 -3.46947,-0.75239 -3.83782,-2.50438c-1.21556,-5.78158 -4.19186,-19.93765 -5.4062,-25.71338c-0.36836,-1.75199 0.75116,-3.47531 2.50316,-3.84366c5.78156,-1.21557 35.89569,-7.54702 41.67142,-8.76136c1.75782,-0.36957 3.47654,0.75701 3.84489,2.509c0.70173,3.33765 1.99186,9.47384 3.19058,15.17528c-1.96166,0.56194 -3.19135,2.53897 -2.79847,4.56634c-1.8963,0.62252 -3.06034,2.58583 -2.64016,4.58434c0.15586,0.74137 0.50934,1.39051 0.99375,1.90393c-1.82564,0.66423 -2.93239,2.58682 -2.52107,4.54314c0.01229,0.05841 0.02579,0.11625 0.0405,0.1735z"/><path d=""/></g><g stroke-linecap="round"><g><path d="M235.09838,209.47663l-1.27232,-6.05152" stroke="url(#color-3)"/><path d="M233.9701,209.26248l-0.6301,-2.99694" stroke="url(#color-4)"/></g><g data-paper-data="{&quot;index&quot;:null}"><path d="M225.37556,211.32022l-1.27232,-6.05152" stroke="url(#color-5)"/><path d="M225.69198,207.67293l0.6301,2.99694" stroke="url(#color-6)"/></g></g></g><g><g stroke="none" stroke-width="1" stroke-linecap="butt"><path d="M269.3031,214.0524c0.41781,1.98728 -0.85344,3.9354 -2.84074,4.35323c-2.98736,0.62809 -26.53102,5.57811 -26.53102,5.57811l-2.32756,-1.34999l-1.78258,2.21414c0,0 -6.32324,1.32945 -9.10538,1.91439c-0.01089,-0.06615 -0.02328,-0.13237 -0.03721,-0.19863c-0.46655,-2.21906 -2.49383,-3.70968 -4.69274,-3.56541c0.26842,-0.75434 0.3389,-1.58977 0.1621,-2.4307c-0.47661,-2.26691 -2.582,-3.77363 -4.83522,-3.55379c-0.51815,-2.28442 -2.69795,-3.77539 -4.99136,-3.4628c-1.35971,-6.46715 -2.8231,-13.42743 -3.61908,-17.21333c-0.41783,-1.98729 0.85206,-3.94204 2.84595,-4.36126c6.5514,-1.37743 40.70988,-8.55919 47.26791,-9.93801c1.98729,-0.41782 3.93682,0.86005 4.35464,2.84734c1.37743,6.55141 4.75344,22.60867 6.13226,29.1667z" fill="#ffffff"/><path d="" fill="#ffffff"/><path d="M266.46236,218.40564c-2.81431,0.59171 -26.53103,5.57811 -26.53103,5.57811l-2.64673,-1.896l-1.85485,2.84245c0,0 -5.56595,1.17023 -8.71394,1.83209c-0.01089,-0.06616 -0.02328,-0.13238 -0.03721,-0.19864c-0.46655,-2.21906 -2.49383,-3.70968 -4.69274,-3.56541c0.26842,-0.75434 0.3389,-1.58977 0.1621,-2.4307c-0.47661,-2.26691 -2.582,-3.77363 -4.83522,-3.55379c-0.51815,-2.28442 -2.69795,-3.77539 -4.99136,-3.4628c-1.35971,-6.46715 -2.8231,-13.42743 -3.61908,-17.21333c-0.41783,-1.98729 0.85206,-3.94204 2.84595,-4.36126c6.55141,-1.37743 40.70989,-8.55919 47.26792,-9.93801c1.9873,-0.41782 3.93682,0.86005 4.35464,2.84734c1.37743,6.55142 4.75344,22.60867 6.13226,29.1667c0.41783,1.98728 -0.85342,3.93541 -2.84072,4.35324z" fill="url(#color-7)"/><path d="" fill="url(#color-8)"/><path d="M266.46234,218.40563c-3.54824,0.74601 -26.13958,5.49581 -26.13958,5.49581l-3.03817,-1.8137l-2.05057,2.88361c0,0 -6.52518,1.37192 -8.51822,1.79095c-0.01089,-0.06616 -0.02328,-0.13238 -0.03721,-0.19864c-0.46655,-2.21906 -2.49383,-3.70968 -4.69274,-3.56541c0.26842,-0.75434 0.3389,-1.58977 0.1621,-2.4307c-0.47661,-2.26691 -2.582,-3.77363 -4.83522,-3.55379c-0.51815,-2.28442 -2.69795,-3.77539 -4.99136,-3.4628c-1.35971,-6.46715 -2.8231,-13.42743 -3.61908,-17.21333c-0.41783,-1.98729 0.85206,-3.94204 2.84595,-4.36126c6.55141,-1.37743 40.70989,-8.55919 47.26792,-9.93801c1.9873,-0.41782 3.93682,0.86005 4.35464,2.84734c1.37743,6.55142 4.75344,22.60867 6.13226,29.1667c0.41783,1.98728 -0.85342,3.93541 -2.84072,4.35324z" fill="url(#color-9)"/><path d="" fill="url(#color-10)"/></g><g fill="none" stroke-linecap="round"><g><path d="M243.18953,208.00889l-1.4432,-6.86423" stroke="url(#color-11)" stroke-width="5"/><path d="M244.26316,207.27119l-0.71472,-3.39943" stroke="url(#color-12)" stroke-width="2.5"/></g><g data-paper-data="{&quot;index&quot;:null}"><path d="M254.12649,205.48187l-1.4432,-6.86423" stroke="#adadad" stroke-width="5"/><path d="M252.84666,205.23896l-0.71472,-3.39943" stroke="#c5c5c5" stroke-width="2.5"/></g></g></g><path d="M238.29752,211.51213l6.2218,-0.98672l5.20177,-4.13435l9.51909,-5.27134l1.7283,8.22028l-23.87795,5.0203l-1.27565,-6.06735z" fill="#ffffff" stroke="none" stroke-width="0" stroke-linecap="butt"/></g></g></g></g></svg>