<svg version="1.1" xmlns="http://www.w3.org/2000/svg" xmlns:xlink="http://www.w3.org/1999/xlink" width="12.22309" height="1.57544" viewBox="0,0,12.22309,1.57544"><defs><linearGradient x1="229.19615" y1="180.00001" x2="241.41924" y2="180.00001" gradientUnits="userSpaceOnUse" id="color-1"><stop offset="0" stop-color="#edbf80" stop-opacity="0"/><stop offset="1" stop-color="#edbf80"/></linearGradient><linearGradient x1="234.40527" y1="180.00001" x2="241.01876" y2="180.00001" gradientUnits="userSpaceOnUse" id="color-2"><stop offset="0" stop-color="#ffa000" stop-opacity="0"/><stop offset="1" stop-color="#ffa000"/></linearGradient><linearGradient x1="232.11544" y1="180.00001" x2="240.60658" y2="180.00001" gradientUnits="userSpaceOnUse" id="color-3"><stop offset="0" stop-color="#ff873b" stop-opacity="0"/><stop offset="1" stop-color="#ff873b"/></linearGradient></defs><g transform="translate(-229.19615,-179.21229)"><g data-paper-data="{&quot;isPaintingLayer&quot;:true}" fill-rule="nonzero" stroke="none" stroke-linecap="butt" stroke-linejoin="miter" stroke-miterlimit="10" stroke-dasharray="" stroke-dashoffset="0" style="mix-blend-mode: normal"><g><path d="M229.19615,180.08946c0,0 7.33661,-0.87717 10.37275,-0.87717c2.42086,0 2.47638,1.57544 0.10684,1.57544c-3.05294,0 -10.47959,-0.69827 -10.47959,-0.69827z" fill="url(#color-1)" stroke-width="NaN"/><path d="M234.40527,180.08015c0,0 3.96958,-0.78581 5.61233,-0.78581c1.30984,0 1.33989,1.41136 0.05781,1.41136c-1.65184,0 -5.67014,-0.62555 -5.67014,-0.62555z" fill="url(#color-2)" stroke-width="NaN"/><path d="M232.11544,180.06455c0,0 5.0966,-0.63282 7.20575,-0.63282c1.68172,0 1.72029,1.13658 0.07421,1.13658c-2.12083,0 -7.27996,-0.50375 -7.27996,-0.50375z" fill="url(#color-3)" stroke-width="NaN"/></g></g></g></svg>