<svg version="1.1" xmlns="http://www.w3.org/2000/svg" xmlns:xlink="http://www.w3.org/1999/xlink" width="45.23452" height="12.15253" viewBox="0,0,45.23452,12.15253"><g transform="translate(-217.38274,-173.92373)"><g data-paper-data="{&quot;isPaintingLayer&quot;:true}" fill="#ffffff" fill-rule="nonzero" stroke="#ffffff" stroke-linejoin="miter" stroke-miterlimit="10" stroke-dasharray="" stroke-dashoffset="0" style="mix-blend-mode: normal"><g><g><path d="M230.9764,176.02588l0.04213,-1.0954l0.76051,-0.41437l8.84535,0.54077l-0.12639,0.96901z" stroke-width="NaN" stroke-linecap="butt"/><path d="M238.96707,185.78859c-0.25967,-0.82941 -1.69241,-5.40564 -1.69241,-5.40564l3.3326,-1.04338c0,0 1.43901,4.59628 1.6842,5.3794c0.0685,0.21878 -0.01883,0.46691 -0.25247,0.54005c-0.7002,0.21922 -2.14909,0.67284 -2.54537,0.79691c-0.19611,0.0614 -0.4469,-0.01297 -0.52654,-0.26734z" stroke-width="0" stroke-linecap="butt"/><path d="M225.43561,177.36367v-1.27705h4.7986v1.27705z" stroke-width="NaN" stroke-linecap="butt"/><path d="M233.83809,180.61572l-0.08515,-0.70249h0.81026c0,0 -0.28504,0.38851 -0.27008,0.64262c0.01495,0.25412 0.18627,0.61468 0.18627,0.61468c0,0 -0.18464,0.06962 -0.32245,-0.01808c-0.16471,-0.10481 -0.31884,-0.53673 -0.31884,-0.53673z" stroke-width="0" stroke-linecap="butt"/><path d="M246.30751,177.3198v-1.27879l12.3603,-0.02729c0,0 1.06251,-1.44162 1.40228,-1.88437c0.09518,-0.12403 0.30618,-0.2031 0.38915,-0.20405c0.03447,-0.00039 0.08408,-0.00096 0.13304,-0.00152c0.0842,-0.00097 0.16492,0.01274 0.16252,0.15204c-0.00697,0.40431 -0.01678,1.949 -0.01678,1.949c0,0 1.19508,0.0162 1.4099,0.0162c0.22628,0 0.45506,0.16953 0.45506,0.43164c0,0.11328 0,0.35115 0,0.42221c0,0.16611 -0.1709,0.42495 -0.40228,0.42495c-1.45433,0 -15.89319,0 -15.89319,0z" stroke-width="0" stroke-linecap="butt"/><path d="M249.74198,177.3198v-1.27879h0.87688v1.27879z" stroke-width="0" stroke-linecap="butt"/><path d="M241.56688,177.58536v-1.80992h8.82359v1.80992z" stroke-width="0" stroke-linecap="butt"/><path d="M241.61714,176.83312v-1.06483h8.78933v1.06483z" stroke-width="0" stroke-linecap="butt"/><path d="M258.65864,176.02661l0.6142,-0.85988h1.43313v0.85988z" stroke-width="0" stroke-linecap="butt"/><path d="M237.77479,181.97106l-0.38164,-1.23472l3.33638,-1.03124l0.38164,1.23472z" stroke-width="0" stroke-linecap="butt"/><path d="M240.9053,177.58536v-1.80992h0.91856v1.80992z" stroke-width="0" stroke-linecap="butt"/><path d="M233.68375,180.49864v-0.40712h0.76902v0.40712z" stroke-width="0" stroke-linecap="butt"/><path d="M230.28906,180.35275l-0.15833,-1.73142c0,0 -0.21266,-0.25991 -0.31618,-0.38644c-0.09991,-0.12211 -0.29452,-0.83459 -0.29452,-1.14211c0,-0.4421 0,-1.6165 0,-1.6165h12.10465v2.4043l-0.71507,0.90985l0.0026,1.56231c0,0 -2.26071,0.81548 -2.85522,1.02993c-0.27002,0.0974 -0.75948,-0.10837 -0.85826,-0.29424c-0.12084,-0.22738 -0.40302,-0.75831 -0.40302,-0.75831l-0.68533,0.02262h-2.51994c0,0 -1.0958,2.89339 -1.71029,4.77504c-0.13783,0.42205 -0.80376,0.34029 -0.80376,0.34029l-1.18098,-0.01443c0,0 -0.65189,-0.13848 -0.38772,-0.96315c0.12361,-0.38588 1.20253,-3.63644 1.20253,-3.63644z" stroke-width="0" stroke-linecap="butt"/><path d="M225.46291,177.16151v-1.06484h4.1477v1.06484z" stroke-width="0" stroke-linecap="butt"/><path d="M230.17591,179.04728v-1.05327h10.70126v1.05327z" stroke-width="0" stroke-linecap="butt"/><path d="M229.3102,177.35423v-1.25538h0.91856v1.25538z" data-paper-data="{&quot;index&quot;:null}" stroke-width="0" stroke-linecap="butt"/><g stroke-width="0.5"><g><path d="M233.96366,181.5843c-0.37163,0 -0.67289,-0.30126 -0.67289,-0.67289c0,-0.37163 0.30126,-0.67289 0.67289,-0.67289" stroke-linecap="butt"/><path d="M233.93561,181.5843h1.71026" stroke-linecap="round"/></g><g data-paper-data="{&quot;index&quot;:null}"><path d="M235.64588,180.23853c0.37163,0 0.67289,0.30126 0.67289,0.67289c0,0.37163 -0.30126,0.67289 -0.67289,0.67289" stroke-linecap="butt"/><path d="M235.67391,180.23853h-1.71026" stroke-linecap="round"/></g></g><path d="M230.27322,178.76382c0,0 -0.30025,-0.35435 -0.4338,-0.51197c-0.11459,-0.13524 -0.31938,-0.61401 -0.31938,-0.81079c0,-0.41875 0,-1.96478 0,-1.96478h12.10464v2.4043l-0.71507,0.90985z" stroke-width="0" stroke-linecap="butt"/><g stroke-width="3" stroke-linecap="round"><path d="M239.226,177.21158h0.00795h-2.86368h0.00888"/><path d="M239.226,176.90678h0.00795h-2.86368h0.00888"/></g><path d="M229.4939,176.53046v-1.06484h12.14579v1.06484z" stroke-width="0" stroke-linecap="butt"/><g stroke-width="0" stroke-linecap="butt"><g><path d="M242.17192,177.58536v-1.80992h0.91856v1.80992z"/><path d="M241.74217,177.58536v-1.80992h0.91856v1.80992z" data-paper-data="{&quot;index&quot;:null}"/><path d="M241.94573,177.87374v-2.38669h0.91856v2.38669z"/></g><path d="M241.93518,176.56459v-1.06483h0.93576v1.06483z"/></g><g stroke-width="0" stroke-linecap="butt"><g><path d="M243.54527,177.58535v-1.80992h0.91856v1.80992z"/><path d="M243.11552,177.58535v-1.80992h0.91856v1.80992z" data-paper-data="{&quot;index&quot;:null}"/><path d="M243.31909,177.87374v-2.38669h0.91856v2.38669z"/></g><path d="M243.30854,176.56459v-1.06484h0.93576v1.06484z"/></g><g stroke-width="0" stroke-linecap="butt"><g><path d="M244.85866,177.58535v-1.80992h0.91856v1.80992z"/><path d="M244.42892,177.58535v-1.80992h0.91856v1.80992z" data-paper-data="{&quot;index&quot;:null}"/><path d="M244.63248,177.87374v-2.38669h0.91856v2.38669z"/></g><path d="M244.62194,176.56459v-1.06484h0.93576v1.06484z"/></g><g stroke-width="0" stroke-linecap="butt"><g><path d="M246.17207,177.58535v-1.80992h0.91856v1.80992z"/><path d="M245.74232,177.58535v-1.80992h0.91856v1.80992z" data-paper-data="{&quot;index&quot;:null}"/><path d="M245.94588,177.87374v-2.38669h0.91856v2.38669z"/></g><path d="M245.93533,176.56459v-1.06484h0.93576v1.06484z"/></g><g stroke-width="0" stroke-linecap="butt"><g><path d="M247.48547,177.58535v-1.80992h0.91856v1.80992z"/><path d="M247.05572,177.58535v-1.80992h0.91856v1.80992z" data-paper-data="{&quot;index&quot;:null}"/><path d="M247.25928,177.87374v-2.38669h0.91856v2.38669z"/></g><path d="M247.24874,176.56459v-1.06484h0.93576v1.06484z"/></g><g stroke-width="0" stroke-linecap="butt"><g><path d="M248.79886,177.58535v-1.80992h0.91856v1.80992z"/><path d="M248.36911,177.58535v-1.80992h0.91856v1.80992z" data-paper-data="{&quot;index&quot;:null}"/><path d="M248.57268,177.87374v-2.38669h0.91856v2.38669z"/></g><path d="M248.56213,176.56459v-1.06484h0.93576v1.06484z"/></g><path d="M250.38391,177.07739v-1.06484c0,0 10.10499,0 11.58367,0c0.14554,0 0.31152,0.03769 0.42168,0.12902c0.15491,0.12842 0.228,0.33437 0.228,0.44152c0,0.17067 0,0.49429 0,0.49429z" stroke-width="0" stroke-linecap="butt"/><path d="M229.14438,184.6225c0.10669,-0.30445 0.56928,-1.62455 0.77848,-2.22153c0.06331,-0.18068 0.22117,-0.26286 0.34404,-0.22919c0.3181,0.08717 1.74574,0.47837 2.32807,0.63795c0.15368,0.04211 0.20925,0.18007 0.1475,0.3563c-0.19356,0.55237 -0.60833,1.73598 -0.72928,2.08112c-0.0646,0.18434 -0.28201,0.38985 -0.4972,0.39187c-0.50073,0.00469 -1.37676,0.0129 -1.66349,0.01559c-0.17883,0.00168 -0.50187,-0.22382 -0.5654,-0.34773c-0.02914,-0.05683 -0.07236,-0.14115 -0.11332,-0.22103c-0.05934,-0.11575 -0.07243,-0.34057 -0.02941,-0.46333z" stroke-width="0" stroke-linecap="butt"/><path d="M231.88929,175.56558l-0.05809,-1.06264l8.7923,0.56781l-0.16004,1.04898z" stroke-width="0" stroke-linecap="butt"/><path d="M230.97776,174.89097l0.87893,-0.39009l-0.00514,1.0806l-0.83393,0.40056z" data-paper-data="{&quot;index&quot;:null}" stroke-width="0" stroke-linecap="butt"/><path d="M225.82959,177.37545v-1.25537h0.91856v1.25537z" data-paper-data="{&quot;index&quot;:null}" stroke-width="0" stroke-linecap="butt"/><g stroke-width="0" stroke-linecap="butt"><path d="M217.38274,180.11027c0,-0.55639 0,-2.99136 0,-4.17504c0,-0.395 0.29175,-0.65066 0.61507,-0.65066c0.98895,0 6.10957,0 7.91631,0c0.39535,0 0.63202,0.19926 0.63202,0.37955c0,0.32001 0,1.37745 0,1.95197c0,0.22771 -0.13178,0.4162 -0.363,0.4805c-1.50358,0.41815 -7.212,2.0057 -8.22949,2.28867c-0.30261,0.08416 -0.57091,-0.05252 -0.57091,-0.27499z"/><path d="M217.43709,176.40297c0,0 0,-0.41248 0,-0.60702c0,-0.18011 0.17406,-0.52028 0.51675,-0.52028c1.02325,0 6.34356,0 8.03202,0c0.33536,0 0.53301,0.24936 0.53301,0.4146c0,0.20279 0,0.71271 0,0.71271z"/></g></g><g><path d="M230.9764,176.02588l0.04213,-1.0954l0.76051,-0.41437l8.84535,0.54077l-0.12639,0.96901z" stroke-width="NaN" stroke-linecap="butt"/><path d="M238.96707,185.78859c-0.25967,-0.82941 -1.69241,-5.40564 -1.69241,-5.40564l3.3326,-1.04338c0,0 1.43901,4.59628 1.6842,5.3794c0.0685,0.21878 -0.01883,0.46691 -0.25247,0.54005c-0.7002,0.21922 -2.14909,0.67284 -2.54537,0.79691c-0.19611,0.0614 -0.4469,-0.01297 -0.52654,-0.26734z" stroke-width="0" stroke-linecap="butt"/><path d="M225.43561,177.36367v-1.27705h4.7986v1.27705z" stroke-width="NaN" stroke-linecap="butt"/><path d="M233.83809,180.61572l-0.08515,-0.70249h0.81026c0,0 -0.28504,0.38851 -0.27008,0.64262c0.01495,0.25412 0.18627,0.61468 0.18627,0.61468c0,0 -0.18464,0.06962 -0.32245,-0.01808c-0.16471,-0.10481 -0.31884,-0.53673 -0.31884,-0.53673z" stroke-width="0" stroke-linecap="butt"/><path d="M246.30751,177.3198v-1.27879l12.3603,-0.02729c0,0 1.06251,-1.44162 1.40228,-1.88437c0.09518,-0.12403 0.30618,-0.2031 0.38915,-0.20405c0.03447,-0.00039 0.08408,-0.00096 0.13304,-0.00152c0.0842,-0.00097 0.16492,0.01274 0.16252,0.15204c-0.00697,0.40431 -0.01678,1.949 -0.01678,1.949c0,0 1.19508,0.0162 1.4099,0.0162c0.22628,0 0.45506,0.16953 0.45506,0.43164c0,0.11328 0,0.35115 0,0.42221c0,0.16611 -0.1709,0.42495 -0.40228,0.42495c-1.45433,0 -15.89319,0 -15.89319,0z" stroke-width="0" stroke-linecap="butt"/><path d="M249.74198,177.3198v-1.27879h0.87688v1.27879z" stroke-width="0" stroke-linecap="butt"/><path d="M241.56688,177.58536v-1.80992h8.82359v1.80992z" stroke-width="0" stroke-linecap="butt"/><path d="M241.61714,176.83312v-1.06483h8.78933v1.06483z" stroke-width="0" stroke-linecap="butt"/><path d="M258.65864,176.02661l0.6142,-0.85988h1.43313v0.85988z" stroke-width="0" stroke-linecap="butt"/><path d="M237.77479,181.97106l-0.38164,-1.23472l3.33638,-1.03124l0.38164,1.23472z" stroke-width="0" stroke-linecap="butt"/><path d="M240.9053,177.58536v-1.80992h0.91856v1.80992z" stroke-width="0" stroke-linecap="butt"/><path d="M233.68375,180.49864v-0.40712h0.76902v0.40712z" stroke-width="0" stroke-linecap="butt"/><path d="M230.28906,180.35275l-0.15833,-1.73142c0,0 -0.21266,-0.25991 -0.31618,-0.38644c-0.09991,-0.12211 -0.29452,-0.83459 -0.29452,-1.14211c0,-0.4421 0,-1.6165 0,-1.6165h12.10465v2.4043l-0.71507,0.90985l0.0026,1.56231c0,0 -2.26071,0.81548 -2.85522,1.02993c-0.27002,0.0974 -0.75948,-0.10837 -0.85826,-0.29424c-0.12084,-0.22738 -0.40302,-0.75831 -0.40302,-0.75831l-0.68533,0.02262h-2.51994c0,0 -1.0958,2.89339 -1.71029,4.77504c-0.13783,0.42205 -0.80376,0.34029 -0.80376,0.34029l-1.18098,-0.01443c0,0 -0.65189,-0.13848 -0.38772,-0.96315c0.12361,-0.38588 1.20253,-3.63644 1.20253,-3.63644z" stroke-width="0" stroke-linecap="butt"/><path d="M225.46291,177.16151v-1.06484h4.1477v1.06484z" stroke-width="0" stroke-linecap="butt"/><path d="M230.17591,179.04728v-1.05327h10.70126v1.05327z" stroke-width="0" stroke-linecap="butt"/><path d="M229.3102,177.35423v-1.25538h0.91856v1.25538z" data-paper-data="{&quot;index&quot;:null}" stroke-width="0" stroke-linecap="butt"/><g stroke-width="0.5"><g><path d="M233.96366,181.5843c-0.37163,0 -0.67289,-0.30126 -0.67289,-0.67289c0,-0.37163 0.30126,-0.67289 0.67289,-0.67289" stroke-linecap="butt"/><path d="M233.93561,181.5843h1.71026" stroke-linecap="round"/></g><g data-paper-data="{&quot;index&quot;:null}"><path d="M235.64588,180.23853c0.37163,0 0.67289,0.30126 0.67289,0.67289c0,0.37163 -0.30126,0.67289 -0.67289,0.67289" stroke-linecap="butt"/><path d="M235.67391,180.23853h-1.71026" stroke-linecap="round"/></g></g><path d="M230.27322,178.76382c0,0 -0.30025,-0.35435 -0.4338,-0.51197c-0.11459,-0.13524 -0.31938,-0.61401 -0.31938,-0.81079c0,-0.41875 0,-1.96478 0,-1.96478h12.10464v2.4043l-0.71507,0.90985z" stroke-width="0" stroke-linecap="butt"/><g stroke-width="3" stroke-linecap="round"><path d="M239.226,177.21158h0.00795h-2.86368h0.00888"/><path d="M239.226,176.90678h0.00795h-2.86368h0.00888"/></g><path d="M229.4939,176.53046v-1.06484h12.14579v1.06484z" stroke-width="0" stroke-linecap="butt"/><g stroke-width="0" stroke-linecap="butt"><g><path d="M242.17192,177.58536v-1.80992h0.91856v1.80992z"/><path d="M241.74217,177.58536v-1.80992h0.91856v1.80992z" data-paper-data="{&quot;index&quot;:null}"/><path d="M241.94573,177.87374v-2.38669h0.91856v2.38669z"/></g><path d="M241.93518,176.56459v-1.06483h0.93576v1.06483z"/></g><g stroke-width="0" stroke-linecap="butt"><g><path d="M243.54527,177.58535v-1.80992h0.91856v1.80992z"/><path d="M243.11552,177.58535v-1.80992h0.91856v1.80992z" data-paper-data="{&quot;index&quot;:null}"/><path d="M243.31909,177.87374v-2.38669h0.91856v2.38669z"/></g><path d="M243.30854,176.56459v-1.06484h0.93576v1.06484z"/></g><g stroke-width="0" stroke-linecap="butt"><g><path d="M244.85866,177.58535v-1.80992h0.91856v1.80992z"/><path d="M244.42892,177.58535v-1.80992h0.91856v1.80992z" data-paper-data="{&quot;index&quot;:null}"/><path d="M244.63248,177.87374v-2.38669h0.91856v2.38669z"/></g><path d="M244.62194,176.56459v-1.06484h0.93576v1.06484z"/></g><g stroke-width="0" stroke-linecap="butt"><g><path d="M246.17207,177.58535v-1.80992h0.91856v1.80992z"/><path d="M245.74232,177.58535v-1.80992h0.91856v1.80992z" data-paper-data="{&quot;index&quot;:null}"/><path d="M245.94588,177.87374v-2.38669h0.91856v2.38669z"/></g><path d="M245.93533,176.56459v-1.06484h0.93576v1.06484z"/></g><g stroke-width="0" stroke-linecap="butt"><g><path d="M247.48547,177.58535v-1.80992h0.91856v1.80992z"/><path d="M247.05572,177.58535v-1.80992h0.91856v1.80992z" data-paper-data="{&quot;index&quot;:null}"/><path d="M247.25928,177.87374v-2.38669h0.91856v2.38669z"/></g><path d="M247.24874,176.56459v-1.06484h0.93576v1.06484z"/></g><g stroke-width="0" stroke-linecap="butt"><g><path d="M248.79886,177.58535v-1.80992h0.91856v1.80992z"/><path d="M248.36911,177.58535v-1.80992h0.91856v1.80992z" data-paper-data="{&quot;index&quot;:null}"/><path d="M248.57268,177.87374v-2.38669h0.91856v2.38669z"/></g><path d="M248.56213,176.56459v-1.06484h0.93576v1.06484z"/></g><path d="M250.38391,177.07739v-1.06484c0,0 10.10499,0 11.58367,0c0.14554,0 0.31152,0.03769 0.42168,0.12902c0.15491,0.12842 0.228,0.33437 0.228,0.44152c0,0.17067 0,0.49429 0,0.49429z" stroke-width="0" stroke-linecap="butt"/><path d="M229.14438,184.6225c0.10669,-0.30445 0.56928,-1.62455 0.77848,-2.22153c0.06331,-0.18068 0.22117,-0.26286 0.34404,-0.22919c0.3181,0.08717 1.74574,0.47837 2.32807,0.63795c0.15368,0.04211 0.20925,0.18007 0.1475,0.3563c-0.19356,0.55237 -0.60833,1.73598 -0.72928,2.08112c-0.0646,0.18434 -0.28201,0.38985 -0.4972,0.39187c-0.50073,0.00469 -1.37676,0.0129 -1.66349,0.01559c-0.17883,0.00168 -0.50187,-0.22382 -0.5654,-0.34773c-0.02914,-0.05683 -0.07236,-0.14115 -0.11332,-0.22103c-0.05934,-0.11575 -0.07243,-0.34057 -0.02941,-0.46333z" stroke-width="0" stroke-linecap="butt"/><path d="M231.88929,175.56558l-0.05809,-1.06264l8.7923,0.56781l-0.16004,1.04898z" stroke-width="0" stroke-linecap="butt"/><path d="M230.97776,174.89097l0.87893,-0.39009l-0.00514,1.0806l-0.83393,0.40056z" data-paper-data="{&quot;index&quot;:null}" stroke-width="0" stroke-linecap="butt"/><path d="M225.82959,177.37545v-1.25537h0.91856v1.25537z" data-paper-data="{&quot;index&quot;:null}" stroke-width="0" stroke-linecap="butt"/><g stroke-width="0" stroke-linecap="butt"><path d="M217.38274,180.11027c0,-0.55639 0,-2.99136 0,-4.17504c0,-0.395 0.29175,-0.65066 0.61507,-0.65066c0.98895,0 6.10957,0 7.91631,0c0.39535,0 0.63202,0.19926 0.63202,0.37955c0,0.32001 0,1.37745 0,1.95197c0,0.22771 -0.13178,0.4162 -0.363,0.4805c-1.50358,0.41815 -7.212,2.0057 -8.22949,2.28867c-0.30261,0.08416 -0.57091,-0.05252 -0.57091,-0.27499z"/><path d="M217.43709,176.40297c0,0 0,-0.41248 0,-0.60702c0,-0.18011 0.17406,-0.52028 0.51675,-0.52028c1.02325,0 6.34356,0 8.03202,0c0.33536,0 0.53301,0.24936 0.53301,0.4146c0,0.20279 0,0.71271 0,0.71271z"/></g></g></g></g></g></svg>