<svg version="1.1" xmlns="http://www.w3.org/2000/svg" xmlns:xlink="http://www.w3.org/1999/xlink" width="231.76613" height="132.44149" viewBox="0,0,231.76613,132.44149"><defs><linearGradient x1="457.63607" y1="286.88583" x2="447.9568" y2="287.95089" gradientUnits="userSpaceOnUse" id="color-1"><stop offset="0" stop-color="#58595b"/><stop offset="1" stop-color="#3c3c3e"/></linearGradient><linearGradient x1="449.47769" y1="287.9604" x2="442.49909" y2="288.72828" gradientUnits="userSpaceOnUse" id="color-2"><stop offset="0" stop-color="#58595b"/><stop offset="1" stop-color="#424244"/></linearGradient><linearGradient x1="418.24723" y1="291.10413" x2="251.2263" y2="309.48218" gradientUnits="userSpaceOnUse" id="color-3"><stop offset="0" stop-color="#58595b"/><stop offset="1" stop-color="#404044"/></linearGradient><linearGradient x1="418.24723" y1="291.10413" x2="251.2263" y2="309.48218" gradientUnits="userSpaceOnUse" id="color-4"><stop offset="0" stop-color="#58595b"/><stop offset="1" stop-color="#404044"/></linearGradient><linearGradient x1="253.21589" y1="309.27785" x2="200.5766" y2="315.06998" gradientUnits="userSpaceOnUse" id="color-5"><stop offset="0" stop-color="#4f4f4f"/><stop offset="1" stop-color="#404044"/></linearGradient><linearGradient x1="301.88471" y1="303.64477" x2="293.4357" y2="304.57446" gradientUnits="userSpaceOnUse" id="color-6"><stop offset="0" stop-color="#444448"/><stop offset="1" stop-color="#39393c"/></linearGradient><linearGradient x1="283.81577" y1="305.83419" x2="275.36676" y2="306.76387" gradientUnits="userSpaceOnUse" id="color-7"><stop offset="0" stop-color="#39393c"/><stop offset="1" stop-color="#343437"/></linearGradient><linearGradient x1="246.24821" y1="78.26723" x2="252.8741" y2="79.00344" gradientUnits="userSpaceOnUse" id="color-8"><stop offset="0" stop-color="#f5d016"/><stop offset="1" stop-color="#f5d016" stop-opacity="0"/></linearGradient><linearGradient x1="242.90468" y1="78.33027" x2="252.18093" y2="78.33027" gradientUnits="userSpaceOnUse" id="color-9"><stop offset="0" stop-color="#ecf352"/><stop offset="1" stop-color="#ecf352" stop-opacity="0"/></linearGradient><linearGradient x1="227.90469" y1="78.26966" x2="237.18094" y2="78.26966" gradientUnits="userSpaceOnUse" id="color-10"><stop offset="0" stop-color="#ecf352" stop-opacity="0"/><stop offset="1" stop-color="#ecf352"/></linearGradient><linearGradient x1="233.50407" y1="77.9339" x2="226.87818" y2="78.67011" gradientUnits="userSpaceOnUse" id="color-11"><stop offset="0" stop-color="#f5d016"/><stop offset="1" stop-color="#f5d016" stop-opacity="0"/></linearGradient><linearGradient x1="240.4768" y1="50.70006" x2="240.4768" y2="60.43775" gradientUnits="userSpaceOnUse" id="color-12"><stop offset="0" stop-color="#58595b"/><stop offset="1" stop-color="#3c3c3e"/></linearGradient><linearGradient x1="240.6526" y1="58.92702" x2="240.6526" y2="65.94773" gradientUnits="userSpaceOnUse" id="color-13"><stop offset="0" stop-color="#58595b"/><stop offset="1" stop-color="#424244"/></linearGradient><linearGradient x1="240.36166" y1="90.31396" x2="240.36166" y2="258.34296" gradientUnits="userSpaceOnUse" id="color-14"><stop offset="0" stop-color="#58595b"/><stop offset="1" stop-color="#404044"/></linearGradient><linearGradient x1="240.36166" y1="90.31396" x2="240.36166" y2="258.34296" gradientUnits="userSpaceOnUse" id="color-15"><stop offset="0" stop-color="#58595b"/><stop offset="1" stop-color="#404044"/></linearGradient><linearGradient x1="240.37616" y1="256.34296" x2="240.37616" y2="309.29996" gradientUnits="userSpaceOnUse" id="color-16"><stop offset="0" stop-color="#4f4f4f"/><stop offset="1" stop-color="#404044"/></linearGradient><linearGradient x1="240.1" y1="207.35001" x2="240.1" y2="215.85001" gradientUnits="userSpaceOnUse" id="color-17"><stop offset="0" stop-color="#444448"/><stop offset="1" stop-color="#39393c"/></linearGradient><linearGradient x1="240.3" y1="225.55001" x2="240.3" y2="234.05001" gradientUnits="userSpaceOnUse" id="color-18"><stop offset="0" stop-color="#39393c"/><stop offset="1" stop-color="#343437"/></linearGradient></defs><g transform="translate(-225.87616,-176.85846)"><g data-paper-data="{&quot;isPaintingLayer&quot;:true}" stroke-dasharray="" stroke-dashoffset="0" style="mix-blend-mode: normal"><g><g><g fill="none" fill-rule="nonzero" stroke-linecap="round" stroke-linejoin="miter" stroke-miterlimit="10"><g data-paper-data="{&quot;index&quot;:null}"><path d="M320.67515,302.70479c0,0 -0.60961,0.12758 -0.93862,0.19642c-0.36477,0.07634 -0.83052,-0.54307 -0.83052,-0.54307" stroke="#d0cc63" stroke-width="0.25"/><path d="M318.38264,303.44262l2.09243,-0.43788" stroke="#d0cc63" stroke-width="0.25"/><path d="M330.43411,300.703c0,0 0.21689,2.06027 -1.19704,3.66396c-0.52868,0.59964 -3.14424,-2.08956 -3.49748,-1.64552c-0.46441,0.58378 -5.79068,0.35008 -5.79068,0.35008l1.8675,0.09536" data-paper-data="{&quot;index&quot;:null}" stroke="#5997ff" stroke-width="1"/></g><g data-paper-data="{&quot;index&quot;:null}"><path d="M317.78545,301.58072c0,0 0.10862,-0.76732 0.46489,-0.87668c0.32133,-0.09863 0.91674,-0.28139 0.91674,-0.28139" stroke="#d0cc63" stroke-width="0.25"/><path d="M316.80335,300.88397l2.04365,-0.62729" stroke="#d0cc63" stroke-width="0.25"/><path d="M319.67377,300.12057l-1.31972,0.33177c0,0 4.25807,-1.13898 4.94669,-0.85213c0.52378,0.21818 1.49096,0.18474 2.24351,0.45441c2.01266,0.72124 4.08739,1.77649 4.08739,1.77649" data-paper-data="{&quot;index&quot;:null}" stroke="#ff5a5a" stroke-width="1"/></g></g><g><g fill-rule="evenodd" stroke="none" stroke-width="1" stroke-linecap="butt" stroke-linejoin="round" stroke-miterlimit="2"><path d="M418.94194,299.95941l-1.90246,-17.28965l3.19974,-0.88861l1.81721,1.46196l1.04013,-2.25549l10.32569,-2.86759l2.14326,0.91587l1.55993,-1.9443l3.91305,-1.08671l2.66808,24.24765l-16.20729,-0.19185l-1.80448,-1.62136l-2.19732,1.57399z" fill="#a4a4a4"/><path d="M418.44712,295.46242l-0.96661,-8.78463l2.92696,-0.47231l1.31406,1.38498l3.90464,-2.22709l8.96596,-1.44678l-2.51439,2.15505l-1.72603,0.85812l0.46461,1.3967l2.9864,2.94598l-2.37835,1.29519l3.93863,2.46548l-6.06122,0.15383l-1.17022,-1.31198l-2.98856,1.41752z" fill="#c4c4c4"/></g><g fill-rule="evenodd" stroke="none" stroke-width="1" stroke-linecap="butt" stroke-linejoin="round" stroke-miterlimit="2"><g fill="url(#color-1)"><path d="M454.59932,286.71642l1.05463,-0.11605c0.14116,-0.33545 0.45461,-0.58624 0.84127,-0.62879c0.56757,-0.06245 1.07844,0.34713 1.14078,0.91371c0.06245,0.56757 -0.34713,1.07844 -0.9147,1.14089c-0.38667,0.04255 -0.74715,-0.13409 -0.95798,-0.43181l-1.05861,0.11648c0.20249,2.01394 0.33705,3.93172 0.31493,4.90096c-0.01841,0.80182 -0.73489,1.73277 -1.53943,1.88166c-0.39787,0.07339 -2.2544,-2.18453 -2.2544,-2.18453c0,0 -2.01186,1.92418 -2.22889,1.33982c-0.8022,-2.16123 -1.61852,-9.82693 -1.32146,-12.00952c0.14503,-1.06827 3.24572,-1.16801 4.0974,-1.19935c0.7365,-0.02671 1.82014,0.20314 2.00658,0.90094c0.14925,0.56055 -1.02535,2.62282 -1.02535,2.62282c0,0 1.73942,1.7952 1.84522,2.75276z"/></g><g fill="#323232"><path d="M448.61881,293.90612c0,0 -1.23872,-10.09642 -1.07273,-12.30902c0.04873,-0.64514 1.51596,-0.85149 2.04326,-0.96001c0.61301,-0.12705 -0.40433,2.65289 -0.40433,2.65289c0,0 1.35469,2.32344 1.35469,2.32344l-0.91984,2.14911c0,0 1.30564,-0.35152 1.80437,1.1755c0.24147,0.73933 -1.41226,2.81089 -1.41226,2.81089c0,0 1.52295,2.7416 1.19101,2.79417c-0.6023,0.09433 -2.58417,-0.63696 -2.58417,-0.63696z"/></g><g fill="url(#color-2)"><path d="M450.54468,297.6572l-1.6893,2.10703l-2.0504,-0.44041l-0.29388,3.36438l-2.17713,2.71549l-3.66974,-33.35081l4.9193,3.94403l0.89091,3.03498l1.8972,-0.79963c-0.12896,-0.2611 2.17305,19.42494 2.17305,19.42494z"/></g></g><g stroke="none" stroke-width="1" stroke-linecap="butt"><path d="M401.66107,290.43069l5.08349,-3.36728l2.67977,0.42237l1.15839,-2.96475l6.46866,-4.2848l2.39169,21.73581l-3.95651,-1.42064l-1.28023,-1.89056l-2.56734,0.50904l-9.38929,-3.37136l-2.80395,-1.09147l-2.5689,1.68267l-24.12794,2.6549l-2.06783,-2.21648l-2.23413,2.68984l-8.73849,0.96153l0.01061,0.09642c0.18003,1.63613 -1.00183,3.11023 -2.63796,3.29026l-4.34326,0.47791l-2.83891,-2.15364l-1.83652,2.6681l-27.9161,3.07173c-0.08023,-0.72912 2.79359,-4.30733 2.79359,-4.30733l-2.84801,-2.28248l4.78771,-2.20354c0,0 -3.58357,-2.09133 -3.71869,-3.31928l10.48015,-1.15318l2.79303,1.93668l2.40999,-2.5092l18.93229,-2.0832c1.63613,-0.18003 3.11023,1.00183 3.29026,2.63796l0.05119,0.46519l22.16815,-2.43927l2.26544,1.99474l1.64322,-2.42483z" fill="url(#color-3)" fill-rule="nonzero" stroke-linejoin="miter" stroke-miterlimit="10"/><path d="" fill="url(#color-4)" fill-rule="nonzero" stroke-linejoin="miter" stroke-miterlimit="10"/><path d="" fill="url(#color-5)" fill-rule="evenodd" stroke-linejoin="round" stroke-miterlimit="2"/></g><path d="" fill="none" fill-rule="nonzero" stroke="url(#color-6)" stroke-width="8.5" stroke-linecap="round" stroke-linejoin="miter" stroke-miterlimit="10"/><path d="" fill="none" fill-rule="nonzero" stroke="url(#color-7)" stroke-width="8.5" stroke-linecap="round" stroke-linejoin="miter" stroke-miterlimit="10"/></g></g><g><g data-paper-data="{&quot;index&quot;:null}" fill="none" fill-rule="nonzero" stroke-linecap="round" stroke-linejoin="miter" stroke-miterlimit="10"><path d="M240.34945,178.91229c0,0 0.66664,0.3952 0.63065,0.76614c-0.03245,0.33456 -0.09258,0.95447 -0.09258,0.95447" stroke="#d0cc63" stroke-width="0.25"/><path d="M241.37017,178.27343l-0.2064,2.12777" stroke="#d0cc63" stroke-width="0.25"/><path d="M241.47166,181.71678l-0.29904,-1.84587c0,0 0.81486,5.26875 0.28537,5.79423c-0.40274,0.39968 2.5564,2.70542 2.01818,3.29651c-1.43942,1.58085 -3.51105,1.5906 -3.51105,1.5906" data-paper-data="{&quot;index&quot;:null}" stroke="#5997ff" stroke-width="1"/></g><g fill="none" fill-rule="nonzero" stroke-linecap="round" stroke-linejoin="miter" stroke-miterlimit="10"><path d="M238.45414,179.38347c0,0 0.11654,-0.61181 0.17943,-0.94201c0.06973,-0.3661 0.82057,-0.55799 0.82057,-0.55799" stroke="#d0cc63" stroke-width="0.25"/><path d="M238.65414,176.98347l-0.4,2.1" stroke="#d0cc63" stroke-width="0.25"/><path d="M240.9987,189.63119c0,0 -1.27584,-1.94686 -2.21289,-3.86856c-0.35037,-0.71855 -0.42291,-1.68358 -0.69707,-2.18035c-0.36044,-0.65312 0.30598,-5.01021 0.30598,-5.01021l-0.18544,1.3481" data-paper-data="{&quot;index&quot;:null}" stroke="#ff5a5a" stroke-width="1"/></g><g><g stroke="none" stroke-linecap="butt"><path d="" fill="#f5d016" fill-rule="evenodd" stroke-width="1" stroke-linejoin="round" stroke-miterlimit="2"/><path d="" fill="url(#color-8)" fill-rule="nonzero" stroke-width="0" stroke-linejoin="miter" stroke-miterlimit="10"/><path d="" fill="url(#color-9)" fill-rule="nonzero" stroke-width="0" stroke-linejoin="miter" stroke-miterlimit="10"/><path d="" data-paper-data="{&quot;index&quot;:null}" fill="url(#color-10)" fill-rule="nonzero" stroke-width="0" stroke-linejoin="miter" stroke-miterlimit="10"/><path d="" data-paper-data="{&quot;index&quot;:null}" fill="url(#color-11)" fill-rule="nonzero" stroke-width="0" stroke-linejoin="miter" stroke-miterlimit="10"/><path d="" fill="#ecf352" fill-rule="evenodd" stroke-width="1" stroke-linejoin="round" stroke-miterlimit="2"/></g><g fill-rule="evenodd" stroke="none" stroke-width="1" stroke-linecap="butt" stroke-linejoin="round" stroke-miterlimit="2"><g fill="url(#color-12)"><path d=""/></g><g fill="#323232"><path d=""/></g><g fill="url(#color-13)"><path d=""/></g></g><g stroke="none" stroke-width="1" stroke-linecap="butt"><path d="M246.35717,207.66196h0.52699c2.207,0 4,1.793 4,4c0,2.208 -1.793,4 -4,4h-0.52699v5.53804l-1.4,2.2l1.4,2.09995h0.52699c2.207,0 4,1.792 4,4c0,2.208 -1.793,4 -4,4h-0.52699v4.15245l-1.28572,2l1.28572,1.71429v13.99426c0,1.646 -1.336,2.982 -2.982,2.982h-5.965c-1.646,0 -2.982,-1.336 -2.982,-2.982v-4.13712l1.42857,-1.71429l-1.42857,-1.85715v-14.15245h-0.544c-2.208,0 -4,-1.792 -4,-4c0,-2.208 1.792,-4 4,-4h0.544l0,-6.49996l1.2,-1.8l-1.2,-1.53804h-0.544c-2.208,0 -4,-1.792 -4,-4c0,-2.207 1.792,-4 4,-4h0.544l0,-10.29526l2.85714,-2.85714l-2.85714,-2.71429l0,-10.64828l3.87184,2.05302c0,0 1.96884,2.58084 2.6771,1.68685c0.70826,-0.89398 1.98702,-5.62651 1.98702,-5.62651c0,0 0.49922,3.06817 1.11745,4.80101c0.89013,2.49498 2.02697,3.93865 2.2756,3.93865v8.22383l-2.28571,2.14286l2.28571,3.14286z" fill="url(#color-14)" fill-rule="nonzero" stroke-linejoin="miter" stroke-miterlimit="10"/><path d="" fill="url(#color-15)" fill-rule="nonzero" stroke-linejoin="miter" stroke-miterlimit="10"/><path d="M229.42716,260.34296h-0.534c-1.104,0 -2,-0.896 -2,-2c0,-1.103 0.896,-2 2,-2h23c1.103,0 2,0.897 2,2c0,1.104 -0.897,2 -2,2h-0.464l0.11753,5.1769l-1.79555,2.71289l1.90216,1.98276l0.77386,34.08545c1.356,0.027 2.449,1.136 2.449,2.499c0,1.38 -1.12,2.5 -2.5,2.5h-24c-1.38,0 -2.5,-1.12 -2.5,-2.5c0,-1.38 1.12,-2.5 2.5,-2.5h0.053l0.11549,-5.08648l3.50608,-3.27098l-3.35666,-3.31003z" fill="url(#color-16)" fill-rule="evenodd" stroke-linejoin="round" stroke-miterlimit="2"/></g><path d="M246.9,211.60001h-13.6" fill="none" fill-rule="nonzero" stroke="url(#color-17)" stroke-width="8.5" stroke-linecap="round" stroke-linejoin="miter" stroke-miterlimit="10"/><path d="M233.5,229.80001h13.6" fill="none" fill-rule="nonzero" stroke="url(#color-18)" stroke-width="8.5" stroke-linecap="round" stroke-linejoin="miter" stroke-miterlimit="10"/></g></g></g></g></g></svg>