<svg version="1.1" xmlns="http://www.w3.org/2000/svg" xmlns:xlink="http://www.w3.org/1999/xlink" width="11.99996" height="13.89062" viewBox="0,0,11.99996,13.89062"><g transform="translate(-234.00002,-176.72136)"><g data-paper-data="{&quot;isPaintingLayer&quot;:true}" fill="#ff0000" fill-rule="nonzero" stroke="none" stroke-width="1" stroke-linecap="square" stroke-linejoin="miter" stroke-miterlimit="10" stroke-dasharray="" stroke-dashoffset="0" style="mix-blend-mode: normal"><path d="M245.99998,176.72136l-4.375,10.51562c-0.51041,1.25 -1.13541,2.125 -1.875,2.625c-0.72916,0.5 -1.61979,0.75 -2.67187,0.75c-0.53125,0 -1.06771,-0.08334 -1.60937,-0.25c-0.54166,-0.16666 -0.98437,-0.38541 -1.32812,-0.65625l1.23438,-2.48437c0.19791,0.1875 0.4375,0.33334 0.71875,0.4375c0.28125,0.10416 0.56771,0.15625 0.85938,0.15625c0.33334,0 0.60938,-0.06771 0.82813,-0.20312c0.21875,-0.13541 0.40104,-0.35416 0.54688,-0.65625l-4.32812,-10.23437h3.64063l2.46875,6.17187l2.5,-6.17187z"/></g></g></svg>