<svg version="1.1" xmlns="http://www.w3.org/2000/svg" xmlns:xlink="http://www.w3.org/1999/xlink" width="278.125" height="175.43904" viewBox="0,0,278.125,175.43904"><defs><linearGradient x1="237.5625" y1="164.84452" x2="237.5625" y2="229.84452" gradientUnits="userSpaceOnUse" id="color-1"><stop offset="0" stop-color="#6b8868"/><stop offset="1" stop-color="#286543"/></linearGradient><linearGradient x1="237.0625" y1="209.34452" x2="237.0625" y2="229.67786" gradientUnits="userSpaceOnUse" id="color-2"><stop offset="0" stop-color="#2f2f2f"/><stop offset="1" stop-color="#262626"/></linearGradient><linearGradient x1="154.35134" y1="184.99932" x2="154.35134" y2="240.11954" gradientUnits="userSpaceOnUse" id="color-3"><stop offset="0" stop-color="#3e3e3e"/><stop offset="1" stop-color="#262626"/></linearGradient><linearGradient x1="154.57827" y1="190.72471" x2="154.57827" y2="239.29765" gradientUnits="userSpaceOnUse" id="color-4"><stop offset="0" stop-color="#42654a"/><stop offset="1" stop-color="#215338"/></linearGradient><linearGradient x1="320.35134" y1="184.99932" x2="320.35134" y2="240.11954" gradientUnits="userSpaceOnUse" id="color-5"><stop offset="0" stop-color="#3e3e3e"/><stop offset="1" stop-color="#262626"/></linearGradient><linearGradient x1="320.5625" y1="191.05805" x2="320.5625" y2="239.63098" gradientUnits="userSpaceOnUse" id="color-6"><stop offset="0" stop-color="#42654a"/><stop offset="1" stop-color="#215338"/></linearGradient><radialGradient cx="155.17816" cy="228.167" r="114.17517" gradientUnits="userSpaceOnUse" id="color-7"><stop offset="0" stop-color="#132319" stop-opacity="0"/><stop offset="1" stop-color="#132319"/></radialGradient><radialGradient cx="320.67816" cy="228.667" r="114.17517" gradientUnits="userSpaceOnUse" id="color-8"><stop offset="0" stop-color="#132319" stop-opacity="0"/><stop offset="1" stop-color="#132319"/></radialGradient><radialGradient cx="155.0625" cy="230.34452" r="36.25" gradientUnits="userSpaceOnUse" id="color-9"><stop offset="0" stop-color="#000000"/><stop offset="1" stop-color="#1b1b1b"/></radialGradient><radialGradient cx="154.71596" cy="230.34452" r="75.37198" gradientUnits="userSpaceOnUse" id="color-10"><stop offset="0" stop-color="#000000" stop-opacity="0"/><stop offset="1" stop-color="#000000"/></radialGradient><radialGradient cx="154.79761" cy="230.34452" r="57.61473" gradientUnits="userSpaceOnUse" id="color-11"><stop offset="0" stop-color="#000000"/><stop offset="1" stop-color="#000000" stop-opacity="0"/></radialGradient><radialGradient cx="154.82659" cy="230.34452" r="51.31039" gradientUnits="userSpaceOnUse" id="color-12"><stop offset="0" stop-color="#000000" stop-opacity="0"/><stop offset="1" stop-color="#000000"/></radialGradient><radialGradient cx="154.91741" cy="230.34452" r="31.55676" gradientUnits="userSpaceOnUse" id="color-13"><stop offset="0" stop-color="#000000" stop-opacity="0"/><stop offset="1" stop-color="#000000"/></radialGradient><radialGradient cx="155.0625" cy="230.34452" r="6.08333" gradientUnits="userSpaceOnUse" id="color-14"><stop offset="0" stop-color="#777777"/><stop offset="1" stop-color="#8f8f8f"/></radialGradient><radialGradient cx="320.0625" cy="230.34452" r="36.25" gradientUnits="userSpaceOnUse" id="color-15"><stop offset="0" stop-color="#000000"/><stop offset="1" stop-color="#1b1b1b"/></radialGradient><radialGradient cx="319.71596" cy="230.34452" r="75.37198" gradientUnits="userSpaceOnUse" id="color-16"><stop offset="0" stop-color="#000000" stop-opacity="0"/><stop offset="1" stop-color="#000000"/></radialGradient><radialGradient cx="319.7976" cy="230.34452" r="57.61473" gradientUnits="userSpaceOnUse" id="color-17"><stop offset="0" stop-color="#000000"/><stop offset="1" stop-color="#000000" stop-opacity="0"/></radialGradient><radialGradient cx="319.82659" cy="230.34452" r="51.31039" gradientUnits="userSpaceOnUse" id="color-18"><stop offset="0" stop-color="#000000" stop-opacity="0"/><stop offset="1" stop-color="#000000"/></radialGradient><radialGradient cx="319.91741" cy="230.34452" r="31.55676" gradientUnits="userSpaceOnUse" id="color-19"><stop offset="0" stop-color="#000000" stop-opacity="0"/><stop offset="1" stop-color="#000000"/></radialGradient><radialGradient cx="320.0625" cy="230.34452" r="6.08333" gradientUnits="userSpaceOnUse" id="color-20"><stop offset="0" stop-color="#777777"/><stop offset="1" stop-color="#8f8f8f"/></radialGradient><linearGradient x1="166.3125" y1="93.73881" x2="166.3125" y2="116.23881" gradientUnits="userSpaceOnUse" id="color-21"><stop offset="0" stop-color="#464646"/><stop offset="1" stop-color="#313131"/></linearGradient><linearGradient x1="202.3125" y1="93.40548" x2="202.3125" y2="115.90548" gradientUnits="userSpaceOnUse" id="color-22"><stop offset="0" stop-color="#464646"/><stop offset="1" stop-color="#313131"/></linearGradient><linearGradient x1="211.5625" y1="117.96952" x2="211.5625" y2="162.46952" gradientUnits="userSpaceOnUse" id="color-23"><stop offset="0" stop-color="#ced9ff"/><stop offset="1" stop-color="#afc4ff"/></linearGradient><linearGradient x1="135.22219" y1="114.05743" x2="121.40281" y2="164.49817" gradientUnits="userSpaceOnUse" id="color-24"><stop offset="0" stop-color="#6b8868"/><stop offset="1" stop-color="#6b8868"/></linearGradient><linearGradient x1="257.73614" y1="114.05743" x2="271.55552" y2="164.49817" gradientUnits="userSpaceOnUse" id="color-25"><stop offset="0" stop-color="#6b8868"/><stop offset="1" stop-color="#6b8868"/></linearGradient><linearGradient x1="189.70139" y1="140.82481" x2="195.36806" y2="140.82481" gradientUnits="userSpaceOnUse" id="color-26"><stop offset="0" stop-color="#6b8868"/><stop offset="1" stop-color="#6b8868"/></linearGradient><linearGradient x1="100.9375" y1="173.59452" x2="114.1875" y2="173.59452" gradientUnits="userSpaceOnUse" id="color-27"><stop offset="0" stop-color="#ff7878"/><stop offset="1" stop-color="#ff5d5d"/></linearGradient><radialGradient cx="369.02504" cy="172.79122" r="3.49081" gradientUnits="userSpaceOnUse" id="color-28"><stop offset="0" stop-color="#ffffff"/><stop offset="1" stop-color="#ffffff" stop-opacity="0"/></radialGradient><radialGradient cx="363.27968" cy="170.6658" r="3.49082" gradientUnits="userSpaceOnUse" id="color-29"><stop offset="0" stop-color="#ffffff"/><stop offset="1" stop-color="#ffffff" stop-opacity="0"/></radialGradient><radialGradient cx="357.42009" cy="170.79047" r="2.61813" gradientUnits="userSpaceOnUse" id="color-30"><stop offset="0" stop-color="#ffffff"/><stop offset="1" stop-color="#ffffff" stop-opacity="0"/></radialGradient><radialGradient cx="364.77574" cy="173.90727" r="1.9948" gradientUnits="userSpaceOnUse" id="color-31"><stop offset="0" stop-color="#ffffff"/><stop offset="1" stop-color="#ffffff" stop-opacity="0"/></radialGradient></defs><g transform="translate(-100.9375,-91.15548)"><g data-paper-data="{&quot;isPaintingLayer&quot;:true}" fill-rule="nonzero" stroke-linejoin="miter" stroke-miterlimit="10" stroke-dasharray="" stroke-dashoffset="0" style="mix-blend-mode: normal"><path d="M105.5625,219.59452c0,-7.41154 0,-29.60684 0,-43.3557c0,-6.70007 2.14023,-17.87613 3.79943,-22.90114c1.95327,-5.9156 6.75025,-20.4436 10.11436,-30.63205c2.06236,-6.24602 4.43522,-10.93668 11.58016,-11.01552c16.16053,-0.17833 99.13317,-1.13626 125.75926,-1.44388c5.18676,-0.05993 13.72161,2.90981 17.40517,6.76604c9.69935,10.154 35.86453,44.92915 42.87671,45.04177c10.71304,0.17205 25.48572,0.38076 31.71714,0.33657c3.28512,-0.0233 14.62567,1.47049 19.05114,4.75954c9.35538,6.953 7.69664,14.22574 7.69664,17.19438c0,13.56186 0,30.2432 0,36.25c0,4.38181 -3.991,9.25 -9.125,9.25c-24.33001,0 -210.94964,0 -256.75,0c-6.46573,0 -4.125,-5.48039 -4.125,-10.25z" fill="url(#color-1)" stroke="none" stroke-width="0" stroke-linecap="butt"/><path d="M101.0625,223.67786c0,-2.0282 0,-6.06079 0,-9.33334c0,-2.77282 1.91165,-5 4.66666,-5c19.74522,0 236.61609,0 269.33334,0c2.60082,0 4,1.87268 4,4.33334c0,3.47956 0,8.13486 0,10.33333c0,2.52436 -1.75966,5.66667 -5,5.66667c-35.77942,0 -246.08734,0 -267.33334,0c-3.30605,0 -5.66666,-3.38321 -5.66666,-6z" fill="url(#color-2)" stroke="none" stroke-width="0" stroke-linecap="butt"/><path d="M110.17713,229.72048c0,0 0,23.78539 0,-0.58844c0,-24.37383 19.75888,-44.13271 44.13271,-44.13271c24.37382,0 44.1327,19.75888 44.1327,44.13271c0,11.84655 0.08303,0.25504 0.08303,0.25504l-88.34845,0.33339z" fill="url(#color-3)" stroke="none" stroke-width="0" stroke-linecap="butt"/><path d="M115.5625,229.72471c0,-21.53911 17.46089,-39 39,-39c21.53911,0 39,17.46089 39,39c0,11.53208 0.03154,-0.19902 0.03154,-0.19902l-78.03154,0.19902c0,0 0,21.53911 0,0z" fill="url(#color-4)" stroke="none" stroke-width="0" stroke-linecap="butt"/><path d="M276.17712,229.72048c0,0 0,23.78539 0,-0.58844c0,-24.37383 19.75888,-44.13271 44.13271,-44.13271c24.37383,0 44.13271,19.75888 44.13271,44.13271c0,11.84655 0.08302,0.25504 0.08302,0.25504l-88.34844,0.33339z" fill="url(#color-5)" stroke="none" stroke-width="0" stroke-linecap="butt"/><path d="M281.5625,230.05805c0,-21.53911 17.46089,-39 39,-39c21.53911,0 39,17.46089 39,39c0,11.53208 -0.13513,0.46764 -0.13513,0.46764l-77.86487,-0.46764c0,0 0,21.53911 0,0z" fill="url(#color-6)" stroke="none" stroke-width="0" stroke-linecap="butt"/><path d="M115.17712,229.22662c0,-21.94566 17.79048,-39.73614 39.73614,-39.73614c21.94567,0 39.73614,17.79048 39.73614,39.73614c0,10.66639 0.07475,0.22964 0.07475,0.22964l-79.54703,0.30018c0,0 0,21.41584 0,-0.52982z" fill="url(#color-7)" stroke="none" stroke-width="0" stroke-linecap="butt"/><path d="M280.67712,229.72662c0,-21.94566 17.79047,-39.73614 39.73614,-39.73614c21.94566,0 39.73613,17.79048 39.73613,39.73614c0,10.66639 0.07476,0.22964 0.07476,0.22964l-79.54703,0.30018c0,0 0,21.41584 0,-0.52982z" fill="url(#color-8)" stroke="none" stroke-width="0" stroke-linecap="butt"/><g stroke="none" stroke-width="0" stroke-linecap="butt"><g><path d="M118.8125,230.34452c0,-20.02032 16.22968,-36.25 36.25,-36.25c20.02032,0 36.25,16.22968 36.25,36.25c0,20.02032 -16.22968,36.25 -36.25,36.25c-20.02032,0 -36.25,-16.22968 -36.25,-36.25z" fill="url(#color-9)"/><path d="M119.19583,230.34452c0,-19.80862 16.05805,-35.86667 35.86667,-35.86667c19.80862,0 35.86667,16.05805 35.86667,35.86667c0,19.80862 -16.05805,35.86667 -35.86667,35.86667c-19.80862,0 -35.86667,-16.05805 -35.86667,-35.86667z" fill="url(#color-10)"/><path d="M127.64584,230.34452c0,-15.1418 12.27485,-27.41666 27.41666,-27.41666c15.1418,0 27.41666,12.27485 27.41666,27.41666c0,15.14181 -12.27485,27.41666 -27.41666,27.41666c-15.1418,0 -27.41666,-12.27485 -27.41666,-27.41666z" fill="url(#color-11)"/><path d="M130.8125,230.34452c0,-13.39291 10.85709,-24.25 24.25,-24.25c13.39291,0 24.25,10.85709 24.25,24.25c0,13.39291 -10.85709,24.25 -24.25,24.25c-13.39291,0 -24.25,-10.85709 -24.25,-24.25z" fill="#949494"/><path d="M130.64584,230.34453c0,-13.48495 10.9317,-24.41666 24.41666,-24.41666c13.48495,0 24.41666,10.9317 24.41666,24.41666c0,13.48495 -10.9317,24.41666 -24.41666,24.41666c-13.48495,0 -24.41666,-10.9317 -24.41666,-24.41666z" fill="url(#color-12)"/><path d="M140.0125,230.34452c0,-8.31188 6.73812,-15.05 15.05,-15.05c8.31188,0 15.05,6.73812 15.05,15.05c0,8.31188 -6.73812,15.05 -15.05,15.05c-8.31188,0 -15.05,-6.73812 -15.05,-15.05z" fill="#949494"/><path d="M140.04584,230.34452c0,-8.29347 6.72318,-15.01666 15.01666,-15.01666c8.29347,0 15.01666,6.72318 15.01666,15.01666c0,8.29347 -6.72318,15.01666 -15.01666,15.01666c-8.29347,0 -15.01666,-6.72318 -15.01666,-15.01666z" fill="url(#color-13)"/><path d="M148.97917,230.34452c0,-3.35973 2.7236,-6.08333 6.08333,-6.08333c3.35973,0 6.08333,2.7236 6.08333,6.08333c0,3.35973 -2.7236,6.08333 -6.08333,6.08333c-3.35973,0 -6.08333,-2.7236 -6.08333,-6.08333z" fill="url(#color-14)"/></g><g><path d="M283.8125,230.34452c0,-20.02032 16.22968,-36.25 36.25,-36.25c20.02032,0 36.25,16.22968 36.25,36.25c0,20.02032 -16.22968,36.25 -36.25,36.25c-20.02032,0 -36.25,-16.22968 -36.25,-36.25z" fill="url(#color-15)"/><path d="M284.19583,230.34452c0,-19.80862 16.05806,-35.86667 35.86667,-35.86667c19.80862,0 35.86667,16.05805 35.86667,35.86667c0,19.80862 -16.05806,35.86667 -35.86667,35.86667c-19.80862,0 -35.86667,-16.05805 -35.86667,-35.86667z" fill="url(#color-16)"/><path d="M292.64583,230.34452c0,-15.1418 12.27486,-27.41666 27.41667,-27.41666c15.14181,0 27.41667,12.27485 27.41667,27.41666c0,15.14181 -12.27486,27.41666 -27.41667,27.41666c-15.14181,0 -27.41667,-12.27485 -27.41667,-27.41666z" fill="url(#color-17)"/><path d="M295.8125,230.34452c0,-13.39291 10.8571,-24.25 24.25,-24.25c13.3929,0 24.25,10.85709 24.25,24.25c0,13.39291 -10.8571,24.25 -24.25,24.25c-13.3929,0 -24.25,-10.85709 -24.25,-24.25z" fill="#949494"/><path d="M295.64583,230.34453c0,-13.48495 10.93171,-24.41666 24.41667,-24.41666c13.48496,0 24.41667,10.9317 24.41667,24.41666c0,13.48495 -10.93171,24.41666 -24.41667,24.41666c-13.48496,0 -24.41667,-10.9317 -24.41667,-24.41666z" fill="url(#color-18)"/><path d="M305.0125,230.34452c0,-8.31188 6.73811,-15.05 15.05,-15.05c8.31189,0 15.05,6.73812 15.05,15.05c0,8.31188 -6.73811,15.05 -15.05,15.05c-8.31189,0 -15.05,-6.73812 -15.05,-15.05z" fill="#949494"/><path d="M305.04584,230.34452c0,-8.29347 6.72318,-15.01666 15.01666,-15.01666c8.29347,0 15.01666,6.72318 15.01666,15.01666c0,8.29347 -6.72318,15.01666 -15.01666,15.01666c-8.29347,0 -15.01666,-6.72318 -15.01666,-15.01666z" fill="url(#color-19)"/><path d="M313.97917,230.34452c0,-3.35973 2.7236,-6.08333 6.08333,-6.08333c3.35973,0 6.08333,2.7236 6.08333,6.08333c0,3.35973 -2.7236,6.08333 -6.08333,6.08333c-3.35973,0 -6.08333,-2.7236 -6.08333,-6.08333z" fill="url(#color-20)"/></g></g><g><path d="M151.3125,108.40548c0,-1.26796 0,-7.55664 0,-9.66666c0,-3.26436 -0.24453,-3.97143 4.33739,-3.92796c14.58726,0.13841 50.49747,0.42796 57.99594,0.42796c3.25687,0 3.66666,0.87984 3.66666,3.33333c0,2.48297 0,7.71608 0,9.33333c0,2.32246 0.99809,4.33334 -3,4.33334c-13.79058,0 -51.54872,0 -59.66666,0c-3.88899,0 -3.33334,-1.6469 -3.33334,-3.83334z" fill="#0e0e0e" stroke="none" stroke-width="0" stroke-linecap="butt"/><path d="M166.3125,93.73881v18.5v-6.66667" fill="none" stroke="url(#color-21)" stroke-width="4.5" stroke-linecap="round"/><path d="M202.3125,103.57215v8.66667v-18.83334" fill="none" stroke="url(#color-22)" stroke-width="4.5" stroke-linecap="round"/></g><path d="M106.8125,162.46952c0,0 0.78784,-4.09347 1.88024,-7.56576c2.41364,-7.67193 12.11976,-36.93423 12.11976,-36.93423h154.5l41,44z" fill="url(#color-23)" stroke="none" stroke-width="NaN" stroke-linecap="butt"/><path d="M111.81523,163.05865c0,0 1.37465,0.19663 2.726,-0.51762c1.1689,-0.61782 2.32039,-2.08502 2.54973,-2.92214c1.3315,-4.85997 6.88928,-26.91255 10.17176,-38.89358c0.45643,-1.66598 0.03333,-1.91863 -0.5146,-2.56648c-0.54793,-0.64786 -2.11351,-0.54091 -2.11351,-0.54091l14.50849,-0.12096c0,0 -3.05215,-0.12083 -4.85814,0.49452c-1.16528,0.39705 -1.22808,1.10057 -1.57101,2.34081c-2.81525,10.18173 -8.94422,32.68129 -10.54202,38.45997c-0.32839,1.18765 -0.76422,2.53189 0.34218,3.29109c1.40341,0.96301 4.47627,0.85435 4.47627,0.85435z" fill="url(#color-24)" stroke="none" stroke-width="0" stroke-linecap="butt"/><path d="M265.96795,162.9377c0,0 3.07286,0.10865 4.47627,-0.85435c1.1064,-0.7592 0.67057,-2.10344 0.34218,-3.29109c-1.5978,-5.77868 -7.72678,-28.27824 -10.54203,-38.45997c-0.34292,-1.24024 -0.40573,-1.94377 -1.57101,-2.34081c-1.80599,-0.61535 -4.85814,-0.49452 -4.85814,-0.49452l14.50849,0.12096c0,0 -1.56558,-0.10694 -2.11352,0.54091c-0.54793,0.64786 -0.97103,0.9005 -0.5146,2.56649c3.28247,11.98104 8.84026,34.03361 10.17176,38.89358c0.22935,0.83712 1.38083,2.30432 2.54973,2.92214c1.35136,0.71425 2.726,0.51762 2.726,0.51762z" data-paper-data="{&quot;index&quot;:null}" fill="url(#color-25)" stroke="none" stroke-width="0" stroke-linecap="butt"/><path d="M189.70139,163.99148l-3.375,-1.60417c0,0 0.84816,-0.07888 1.69448,-0.53465c0.37171,-0.20018 0.74307,-0.57395 1.04206,-0.87537c0.62575,-0.63086 0.63846,-1.29338 0.63846,-2.58998c0,-10.78921 0.125,-31.92719 0.125,-38.375c0,-0.59262 0.1233,-1.18249 -0.25256,-1.62354c-0.37414,-0.43905 -1.24744,-0.60562 -1.24744,-0.60562h8.41666c0,0 -0.80292,0.12982 -1.18132,0.60001c-0.29989,0.37265 -0.19368,0.88057 -0.19368,1.50415c0,7.68811 0,32.95502 0,39c0,0.64636 -0.18982,2.00234 0.76171,2.70599c0.98538,0.72869 3.11329,0.79401 3.11329,0.79401l-3.875,1.60417z" fill="url(#color-26)" stroke="none" stroke-width="0" stroke-linecap="butt"/><path d="M100.9375,177.34452c0,-2.27303 0,-6.45577 0,-7.75c0,-1.75478 1.4835,-3.75 3.5,-3.75c1.90511,0 5.31282,0 6.5,0c1.67933,0 3.25,1.57261 3.25,3.25c0,1.26262 0,6.82203 0,9c0,2.72812 -1.32067,3.25 -3,3.25c-1.18718,0 -4.59489,0 -6.5,0c-2.0165,0 -3.75,-1.25888 -3.75,-4z" fill="url(#color-27)" stroke="none" stroke-width="0" stroke-linecap="butt"/><g stroke="none" stroke-width="0" stroke-linecap="butt"><path d="M375.6875,179.2725c0,0 -7.3413,0 -10.84645,0c-3.29756,0 -4.36352,-1.87007 -4.36352,-1.87007c0,0 -8.4593,-0.16718 -10.30908,-0.90709c-2.23328,-0.8933 -6.14762,-3.70577 -6.14762,-3.70577l-1.63483,-5.70675l2.88155,0.22119l23.28867,0.66078c0,0 4.09146,3.71085 5.0867,5.58362c1.00768,1.89618 2.04457,5.7241 2.04457,5.7241z" data-paper-data="{&quot;index&quot;:null}" fill="#557256"/><path d="M363.0644,175.93096c-0.60958,-0.42249 -1.95619,-1.85452 -1.95619,-1.85452l-9.12799,-0.63036l-5.08347,-2.45504l-1.11516,-3.56364l22.96046,0.51333c0,0 2.70026,2.29001 3.76097,3.74701c1.06071,1.457 2.51225,4.93302 2.51225,4.93302c0,0 -7.25568,-0.05882 -9.11976,-0.08454c-1.56451,-0.02158 -2.2961,-0.23444 -2.83111,-0.60525z" fill="#c5c5c5"/><g><path d="M368.82687,176.27639c-1.92482,-0.10944 -3.39646,-1.75851 -3.28701,-3.68333c0.10944,-1.92482 1.75851,-3.39647 3.68333,-3.28703c1.92482,0.10944 3.39648,1.75853 3.28703,3.68335c-0.10944,1.92482 -1.75853,3.39646 -3.68335,3.28701z" fill="url(#color-28)"/><path d="M368.82882,174.77803c-1.14572,-0.06515 -2.0217,-1.04674 -1.95656,-2.19246c0.06514,-1.14572 1.04676,-2.02171 2.19248,-1.95656c1.14572,0.06515 2.0217,1.04674 1.95655,2.19246c-0.06514,1.14572 -1.04675,2.02171 -2.19247,1.95656z" fill="#ffffff"/></g><g><path d="M363.0815,174.15098c-1.92481,-0.10944 -3.39646,-1.75853 -3.28701,-3.68335c0.10944,-1.92481 1.75853,-3.39646 3.68334,-3.28702c1.92481,0.10944 3.39647,1.75854 3.28703,3.68335c-0.10944,1.92481 -1.75855,3.39646 -3.68336,3.28701z" fill="url(#color-29)"/><path d="M363.08346,172.65262c-1.14572,-0.06515 -2.02171,-1.04675 -1.95657,-2.19247c0.06514,-1.14572 1.04675,-2.0217 2.19247,-1.95656c1.14572,0.06515 2.0217,1.04674 1.95655,2.19246c-0.06514,1.14572 -1.04674,2.02171 -2.19246,1.95657z" fill="#ffffff"/></g><g><path d="M357.27146,173.40438c-1.44362,-0.08208 -2.54736,-1.31891 -2.46528,-2.76253c0.08208,-1.44362 1.31891,-2.54737 2.76253,-2.46529c1.44362,0.08208 2.54737,1.31892 2.46529,2.76254c-0.08208,1.44362 -1.31892,2.54736 -2.76254,2.46528z" fill="url(#color-30)"/><path d="M357.27293,172.28059c-0.8593,-0.04886 -1.51629,-0.78507 -1.46743,-1.64436c0.04886,-0.8593 0.78507,-1.51629 1.64437,-1.46743c0.8593,0.04886 1.51628,0.78507 1.46742,1.64437c-0.04886,0.8593 -0.78506,1.51628 -1.64436,1.46742z" fill="#ffffff"/></g><g><path d="M364.66249,175.89884c-1.09992,-0.06253 -1.94087,-1.00489 -1.87833,-2.10481c0.06254,-1.09992 1.00489,-1.94087 2.10481,-1.87834c1.09992,0.06253 1.94087,1.0049 1.87834,2.10482c-0.06254,1.09992 -1.0049,1.94087 -2.10482,1.87833z" fill="url(#color-31)"/><path d="M364.66361,175.04261c-0.65472,-0.03723 -1.15529,-0.59815 -1.11806,-1.25287c0.03723,-0.65472 0.59815,-1.15528 1.25286,-1.11805c0.65472,0.03723 1.15528,0.59815 1.11805,1.25287c-0.03723,0.65472 -0.59814,1.15528 -1.25286,1.11805z" fill="#ffffff"/></g></g><path d="M179.0625,171.67786h9" fill="none" stroke="#41654a" stroke-width="3" stroke-linecap="round"/><path d="M198.0625,171.67786h9" fill="none" stroke="#41654a" stroke-width="3" stroke-linecap="round"/><text transform="translate(277.08356,168.32168) rotate(0.11537) scale(0.12912,0.11079) skewX(-4.23086)" font-size="40" xml:space="preserve" fill="#ffffff" fill-rule="nonzero" stroke="#ffffff" stroke-width="3" stroke-linecap="butt" stroke-linejoin="miter" stroke-miterlimit="10" stroke-dasharray="" stroke-dashoffset="0" font-family="Sans Serif" font-weight="normal" text-anchor="start" style="mix-blend-mode: normal"><tspan x="0" dy="0">Sus Jeep</tspan></text><g fill="#ffffff" stroke="none" stroke-width="0" stroke-linecap="butt"><path d="M299.20519,165.35035c0.0917,-0.72521 0.51859,-1.61816 1.23977,-2.02668c0.62132,-0.35195 1.09076,-0.31554 1.92081,-0.28466c0.64428,0.02397 1.02043,0.11891 1.49574,0.37238c0.84783,0.45213 1.09148,1.28367 0.9821,2.14871c-0.1707,1.35001 -1.763,2.39032 -3.55652,2.32359c-1.79351,-0.06672 -2.25261,-1.18334 -2.08191,-2.53335z"/><path d="M298.8664,168.02979l0.35068,-2.77346l5.63843,0.20976l-0.35068,2.77346z"/><path d="M298.68809,169.24002c0.04351,-0.34412 0.17831,-1.41023 0.17831,-1.41023l2.31068,0.08596c0,0 -0.14796,0.01489 -0.2819,0.0961c-0.0983,0.0596 -0.1918,0.17662 -0.19983,0.2402c-0.0252,0.19928 -0.09767,0.77252 -0.14562,1.15169c-0.03051,0.24132 -0.31798,0.366 -0.51594,0.35864c-0.16788,-0.00625 -0.57065,-0.02122 -0.87431,-0.03252c-0.31656,-0.01177 -0.49651,-0.29115 -0.4714,-0.48983z"/><path d="M303.73625,169.90011c-0.30366,-0.0113 -0.70643,-0.02628 -0.87431,-0.03253c-0.19796,-0.00736 -0.45135,-0.15217 -0.42083,-0.39349c0.04794,-0.37917 0.12042,-0.95241 0.14562,-1.15169c0.00804,-0.06358 -0.05512,-0.18642 -0.1375,-0.25274c-0.11224,-0.09037 -0.25508,-0.11607 -0.25508,-0.11607l2.31069,0.08596c0,0 -0.1348,1.06611 -0.17831,1.41023c-0.02512,0.19868 -0.27371,0.46211 -0.59027,0.45033z" data-paper-data="{&quot;index&quot;:null}"/><path d="M304.70451,165.77421c-0.45717,-0.01701 -1.87353,-0.0697 -1.87353,-0.0697l0.17558,-1.40295c0,0 1.49742,0.04832 2.00116,0.06706c0.32059,0.01193 0.47387,0.22213 0.45503,0.37114c-0.01598,0.12636 -0.05431,0.42954 -0.08321,0.65811c-0.03013,0.23828 -0.41108,0.38615 -0.67503,0.37634z"/></g></g></g></svg>