<svg version="1.1" xmlns="http://www.w3.org/2000/svg" xmlns:xlink="http://www.w3.org/1999/xlink" width="34.60958" height="24.584" viewBox="0,0,34.60958,24.584"><defs><linearGradient x1="246.2054" y1="179.96727" x2="252.83129" y2="180.70348" gradientUnits="userSpaceOnUse" id="color-1"><stop offset="0" stop-color="#f5d016"/><stop offset="1" stop-color="#f5d016" stop-opacity="0"/></linearGradient><linearGradient x1="241.2054" y1="179.96727" x2="247.83129" y2="180.70348" gradientUnits="userSpaceOnUse" id="color-2"><stop offset="0" stop-color="#fcf197"/><stop offset="1" stop-color="#fcf197" stop-opacity="0"/></linearGradient><linearGradient x1="238.7946" y1="179.63393" x2="232.16871" y2="180.37014" gradientUnits="userSpaceOnUse" id="color-3"><stop offset="0" stop-color="#fcf197"/><stop offset="1" stop-color="#fcf197" stop-opacity="0"/></linearGradient><linearGradient x1="233.46126" y1="179.63393" x2="226.83537" y2="180.37014" gradientUnits="userSpaceOnUse" id="color-4"><stop offset="0" stop-color="#f5d016"/><stop offset="1" stop-color="#f5d016" stop-opacity="0"/></linearGradient></defs><g transform="translate(-222.52854,-167.708)"><g data-paper-data="{&quot;isPaintingLayer&quot;:true}" stroke="none" stroke-linecap="butt" stroke-dasharray="" stroke-dashoffset="0" style="mix-blend-mode: normal"><g><path d="M249.197,192.292h-17.394l-4,-24.584h24.394z" fill="#f5d016" fill-rule="evenodd" stroke-width="1" stroke-linejoin="round" stroke-miterlimit="2"/><path d="M247.86187,192.22517l2.65036,-24.39866l6.62589,-0.08197l-2.65036,24.48957z" fill="url(#color-1)" fill-rule="nonzero" stroke-width="0" stroke-linejoin="miter" stroke-miterlimit="10"/><path d="M242.86187,192.22517l2.65035,-24.39866l6.6259,0.00894l-2.65036,24.39866z" fill="url(#color-2)" fill-rule="nonzero" stroke-width="0" stroke-linejoin="miter" stroke-miterlimit="10"/><path d="M230.51223,192.1735l-2.65035,-24.39866l6.53498,-0.00894l2.74126,24.39866z" data-paper-data="{&quot;index&quot;:null}" fill="url(#color-3)" fill-rule="nonzero" stroke-width="0" stroke-linejoin="miter" stroke-miterlimit="10"/><path d="M225.1789,191.99168l-2.65035,-24.21685l6.62589,0.08197l2.65035,24.21685z" data-paper-data="{&quot;index&quot;:null}" fill="url(#color-4)" fill-rule="nonzero" stroke-width="0" stroke-linejoin="miter" stroke-miterlimit="10"/><path d="M244.67287,192.292h-8.83765l-2.03234,-24.584h12.39425z" fill="#fcf197" fill-rule="evenodd" stroke-width="1" stroke-linejoin="round" stroke-miterlimit="2"/></g></g></g></svg>