<svg version="1.1" xmlns="http://www.w3.org/2000/svg" xmlns:xlink="http://www.w3.org/1999/xlink" width="62.80255" height="94.64988" viewBox="0,0,62.80255,94.64988"><defs><linearGradient x1="226.3707" y1="116.13966" x2="229.05539" y2="158.88864" gradientUnits="userSpaceOnUse" id="color-1"><stop offset="0" stop-color="#1a1a1a"/><stop offset="1" stop-color="#1a1a1a" stop-opacity="0"/></linearGradient><linearGradient x1="223.18627" y1="169.47715" x2="194.64382" y2="171.26966" gradientUnits="userSpaceOnUse" id="color-2"><stop offset="0" stop-color="#1a1a1a" stop-opacity="0"/><stop offset="1" stop-color="#1a1a1a"/></linearGradient><linearGradient x1="236.58996" y1="208.57773" x2="234.6603" y2="202.70269" gradientUnits="userSpaceOnUse" id="color-3"><stop offset="0" stop-color="#000000"/><stop offset="1" stop-color="#151515"/></linearGradient><linearGradient x1="235.44498" y1="208.48888" x2="234.48934" y2="205.57934" gradientUnits="userSpaceOnUse" id="color-4"><stop offset="0" stop-color="#292929"/><stop offset="1" stop-color="#313131"/></linearGradient><linearGradient x1="227.12864" y1="211.47866" x2="225.19897" y2="205.60362" gradientUnits="userSpaceOnUse" id="color-5"><stop offset="0" stop-color="#000000"/><stop offset="1" stop-color="#151515"/></linearGradient><linearGradient x1="227.99795" y1="210.72822" x2="227.04232" y2="207.81869" gradientUnits="userSpaceOnUse" id="color-6"><stop offset="0" stop-color="#292929"/><stop offset="1" stop-color="#313131"/></linearGradient><linearGradient x1="168.61547" y1="224.52314" x2="221.49554" y2="207.15466" gradientUnits="userSpaceOnUse" id="color-7"><stop offset="0" stop-color="#1a1a1a"/><stop offset="1" stop-color="#1a1a1a" stop-opacity="0"/></linearGradient><linearGradient x1="168.61547" y1="224.52314" x2="221.49554" y2="207.15466" gradientUnits="userSpaceOnUse" id="color-8"><stop offset="0" stop-color="#1a1a1a"/><stop offset="1" stop-color="#1a1a1a" stop-opacity="0"/></linearGradient><linearGradient x1="231.44352" y1="194.96787" x2="219.84702" y2="159.66117" gradientUnits="userSpaceOnUse" id="color-9"><stop offset="0" stop-color="#1a1a1a" stop-opacity="0"/><stop offset="1" stop-color="#1a1a1a"/></linearGradient><linearGradient x1="231.44352" y1="194.96787" x2="219.84702" y2="159.66117" gradientUnits="userSpaceOnUse" id="color-10"><stop offset="0" stop-color="#1a1a1a" stop-opacity="0"/><stop offset="1" stop-color="#1a1a1a"/></linearGradient><linearGradient x1="244.47081" y1="206.22969" x2="242.28199" y2="199.56564" gradientUnits="userSpaceOnUse" id="color-11"><stop offset="0" stop-color="#000000"/><stop offset="1" stop-color="#151515"/></linearGradient><linearGradient x1="245.45687" y1="205.37847" x2="244.37289" y2="202.07818" gradientUnits="userSpaceOnUse" id="color-12"><stop offset="0" stop-color="#292929"/><stop offset="1" stop-color="#313131"/></linearGradient></defs><g transform="translate(-208.72497,-132.30006)"><g data-paper-data="{&quot;isPaintingLayer&quot;:true}" fill-rule="nonzero" stroke-linejoin="miter" stroke-miterlimit="10" stroke-dasharray="" stroke-dashoffset="0" style="mix-blend-mode: normal"><g><g data-paper-data="{&quot;index&quot;:null}" fill="none" stroke="#000000" stroke-width="1.5" stroke-linecap="round"><path d="M222.30091,142.27764c0.36975,0.82463 1.06489,1.778 1.3841,2.9601c0.15221,0.56368 0.05858,1.25128 0.17695,1.83426c0.57227,2.81852 0.99584,5.48005 0.99584,5.48005"/><path d="M217.6332,133.55225c2.11198,2.68762 4.96829,9.34973 4.96829,9.34973"/></g><g data-paper-data="{&quot;index&quot;:null}" fill="none" stroke="#000000" stroke-width="1.5" stroke-linecap="round"><path d="M243.89044,142.46315c-1.27814,3.17019 -5.63159,8.96586 -5.63159,8.96586"/><path d="M246.94231,133.05006c-0.11115,0.79616 -0.35218,1.77441 -0.65585,2.80504c-0.20475,0.69491 -1.01763,1.17992 -0.795,2.06969c0.68953,2.75569 -1.84256,5.18782 -1.84256,5.18782"/></g><g data-paper-data="{&quot;index&quot;:null}" fill="none" stroke="#000000" stroke-width="1.5" stroke-linecap="round"><path d="M245.02446,180.81486c0,0 2.08997,-2.15505 4.77636,-4.25894c0.75329,-0.58995 1.75378,-0.91899 2.52416,-1.50839c1.64486,-1.25846 3.03788,-2.45679 4.31218,-3.17354"/><path d="M256.43351,171.92462c0,0 9.76427,-2.71876 14.34401,-3.00712"/></g><g data-paper-data="{&quot;index&quot;:null}" stroke="none" stroke-width="1" stroke-linecap="butt"><g><path d="M245.11128,153.60165c0.17448,2.77826 1.31733,20.97613 1.31733,20.97613l-1.41087,1.46631l1.57539,1.15353c0,0 0.73818,11.75421 0.84793,13.50172c0.09796,1.55971 -1.08606,2.9024 -2.64575,3.00035c-5.14698,0.32324 -17.74935,1.11469 -22.89114,1.4376c-1.5597,0.09795 -2.90759,-1.08574 -3.00554,-2.64544c-0.32324,-5.14699 -2.00688,-31.95589 -2.32979,-37.09768c-0.09828,-1.56488 1.09094,-2.90791 2.65063,-3.00586c5.14179,-0.32291 17.74413,-1.11436 22.89114,-1.4376c1.55969,-0.09795 2.90238,1.08604 3.00066,2.65095z" fill="#ffffff"/><path d="M245.1113,153.60165c0.18551,2.95386 1.31733,20.97613 1.31733,20.97613l-1.53562,1.47415l1.70798,1.27044c0,0 0.74696,11.89399 0.8401,13.37697c0.09795,1.55971 -1.08607,2.9024 -2.64576,3.00035c-5.14698,0.32324 -17.74935,1.11469 -22.89114,1.4376c-1.5597,0.09795 -2.90759,-1.08574 -3.00554,-2.64544c-0.23447,-3.73334 -2.07799,-33.08813 -2.07799,-33.08813l1.41871,-1.34156l-1.56757,-1.02877c0,0 -0.06504,-1.03548 -0.10295,-1.63922c-0.09828,-1.56488 1.09094,-2.90791 2.65063,-3.00586c5.14178,-0.32291 17.74413,-1.11436 22.89114,-1.4376c1.55969,-0.09795 2.90238,1.08604 3.00066,2.65095z" fill="url(#color-1)"/><path d="M245.1113,153.60166c0.17617,2.80517 1.30166,20.72662 1.30166,20.72662l-1.3952,1.71582l1.58323,1.27828c0,0 0.73647,11.72683 0.8401,13.37697c0.09795,1.55971 -1.08607,2.9024 -2.64576,3.00035c-5.14698,0.32324 -17.74935,1.11469 -22.89114,1.4376c-1.5597,0.09795 -2.90759,-1.08574 -3.00554,-2.64544c-0.26977,-4.29557 -2.07015,-32.96338 -2.07015,-32.96338l1.28611,-1.45848l-1.45848,-1.28612c0,0 -0.07006,-1.1155 -0.08728,-1.38971c-0.09828,-1.56488 1.09094,-2.90791 2.65063,-3.00586c5.14178,-0.32291 17.74413,-1.11436 22.89114,-1.4376c1.55969,-0.09795 2.90238,1.08604 3.00066,2.65095z" fill="url(#color-2)"/></g><g fill="none" font-family="sans-serif" font-weight="normal" font-size="12" text-anchor="start"><g/><g data-paper-data="{&quot;index&quot;:null}"/></g></g><g data-paper-data="{&quot;index&quot;:null}" fill="none" stroke="#000000" stroke-width="1.5" stroke-linecap="round"><path d="M218.70285,182.2609c0,0 6.55837,-7.72791 10.18798,-10.53559"/><path d="M228.71662,171.8261c0,0 1.37847,-0.61162 3.3296,-1.41765c1.26954,-0.52445 2.87629,-0.74746 4.40875,-1.32158c2.21821,-0.83105 4.38455,-1.97748 6.01537,-2.32324"/></g><g data-paper-data="{&quot;index&quot;:null}"><g data-paper-data="{&quot;index&quot;:null}" fill="#d6c3c8" stroke-width="0"><g stroke="none" stroke-linecap="butt"><path d="M223.42217,226.78711c-1.70093,0.55867 -3.53114,-0.36654 -4.08981,-2.06744c-1.84358,-5.61298 -6.35756,-19.35623 -8.19928,-24.96351c-0.55866,-1.7009 0.36469,-3.5368 2.06559,-4.09547c5.61295,-1.84358 34.84889,-11.44612 40.45617,-13.28784c1.70656,-0.56053 3.53866,0.37035 4.09733,2.07125c1.06428,3.24033 3.02094,9.19755 4.83897,14.73273c-1.88802,0.77412 -2.89299,2.87432 -2.27969,4.84623c-1.8164,0.82715 -2.75763,2.90649 -2.12036,4.84672c0.2364,0.71974 0.65906,1.32612 1.19697,1.78319c-1.74158,0.86083 -2.63033,2.89341 -2.00651,4.79268c0.01862,0.05671 0.03841,0.1127 0.05931,0.16799c-10.66549,3.50309 -29.61437,9.72687 -34.01869,11.17346z"/><path d=""/><path d="M257.44087,215.61366c-10.6655,3.50309 -29.6144,9.72687 -34.0187,11.17346c-1.70092,0.55866 -3.53114,-0.36655 -4.08981,-2.06745c-1.84358,-5.61298 -6.35756,-19.35622 -8.19928,-24.96351c-0.55866,-1.7009 0.36469,-3.5368 2.0656,-4.09547c5.61295,-1.84358 34.84888,-11.44612 40.45617,-13.28784c1.70656,-0.56053 3.53866,0.37035 4.09733,2.07125c1.06428,3.24033 3.02094,9.19755 4.83897,14.73273c-1.88802,0.77412 -2.89299,2.87432 -2.27969,4.84623c-1.8164,0.82715 -2.75763,2.90649 -2.12036,4.84672c0.2364,0.71974 0.65906,1.32612 1.19697,1.78319c-1.74158,0.86083 -2.63033,2.89341 -2.00651,4.79268c0.01862,0.05672 0.03841,0.11271 0.05931,0.168z"/><path d=""/><path d="M257.44087,215.61366c-10.6655,3.50309 -29.6144,9.72687 -34.0187,11.17346c-1.70092,0.55866 -3.53114,-0.36655 -4.08981,-2.06745c-1.84358,-5.61298 -6.35756,-19.35622 -8.19928,-24.96351c-0.55866,-1.7009 0.36469,-3.5368 2.0656,-4.09547c5.61295,-1.84358 34.84888,-11.44612 40.45617,-13.28784c1.70656,-0.56053 3.53866,0.37035 4.09733,2.07125c1.06428,3.24033 3.02094,9.19755 4.83897,14.73273c-1.88802,0.77412 -2.89299,2.87432 -2.27969,4.84623c-1.8164,0.82715 -2.75763,2.90649 -2.12036,4.84672c0.2364,0.71974 0.65906,1.32612 1.19697,1.78319c-1.74158,0.86083 -2.63033,2.89341 -2.00651,4.79268c0.01862,0.05672 0.03841,0.11271 0.05931,0.168z"/><path d=""/></g><g stroke-linecap="round"><g><path d="M236.58996,208.57773l-1.92966,-5.87503" stroke="url(#color-3)"/><path d="M235.44498,208.48888l-0.95564,-2.90954" stroke="url(#color-4)"/></g><g data-paper-data="{&quot;index&quot;:null}"><path d="M227.12863,211.47866l-1.92966,-5.87503" stroke="url(#color-5)"/><path d="M227.04231,207.81868l0.95564,2.90954" stroke="url(#color-6)"/></g></g></g><g><g stroke="none" stroke-width="1" stroke-linecap="butt"><path d="M271.09031,209.36675c0.63368,1.92933 -0.41577,4.00536 -2.34512,4.63905c-2.90023,0.95258 -25.7573,8.46 -25.7573,8.46l-2.46182,-1.08602l-1.52845,2.39664c0,0 -6.13884,2.01631 -8.83985,2.90346c-0.01809,-0.06454 -0.03768,-0.12901 -0.05881,-0.19334c-0.70759,-2.15434 -2.8864,-3.41315 -5.05613,-3.0281c0.18389,-0.77926 0.16215,-1.61736 -0.10601,-2.43378c-0.72285,-2.2008 -2.98107,-3.46702 -5.19648,-3.00089c-0.76605,-2.21363 -3.09649,-3.45602 -5.34167,-2.89328c-2.06219,-6.27855 -4.28163,-13.03585 -5.48885,-16.71134c-0.63369,-1.92933 0.41367,-4.0118 2.34942,-4.6476c6.36035,-2.08905 39.52268,-12.98123 45.88946,-15.07241c1.92935,-0.63369 4.00749,0.42219 4.64118,2.35153c2.08907,6.36034 7.20927,21.94934 9.30045,28.31612z" fill="#ffffff"/><path d="" fill="#ffffff"/><path d="M268.7452,214.00582c-2.73223,0.89741 -25.7573,8.46 -25.7573,8.46l-2.83906,-1.59366l-1.53124,3.02909c0,0 -5.40363,1.77482 -8.45982,2.77863c-0.01809,-0.06455 -0.03768,-0.12902 -0.05881,-0.19335c-0.70759,-2.15434 -2.8864,-3.41315 -5.05613,-3.0281c0.18389,-0.77926 0.16215,-1.61736 -0.10601,-2.43378c-0.72285,-2.2008 -2.98107,-3.46702 -5.19648,-3.00089c-0.76605,-2.21363 -3.09649,-3.45602 -5.34167,-2.89328c-2.06219,-6.27855 -4.28163,-13.03585 -5.48885,-16.71134c-0.63369,-1.92933 0.41367,-4.0118 2.34942,-4.6476c6.36035,-2.08905 39.52268,-12.98123 45.88946,-15.07241c1.92936,-0.63369 4.00749,0.42219 4.64118,2.35153c2.08907,6.36036 7.20927,21.94934 9.30045,28.31612c0.63369,1.92933 -0.41576,4.00537 -2.34511,4.63906z" fill="url(#color-7)"/><path d="" fill="url(#color-8)"/><path d="M268.74522,214.00581c-3.44477,1.13143 -25.37729,8.33518 -25.37729,8.33518l-3.21909,-1.46883l-1.72125,3.09149c0,0 -6.33489,2.0807 -8.26981,2.71623c-0.01809,-0.06455 -0.03768,-0.12902 -0.05881,-0.19335c-0.70759,-2.15434 -2.8864,-3.41315 -5.05613,-3.0281c0.18389,-0.77926 0.16215,-1.61736 -0.10601,-2.43378c-0.72285,-2.2008 -2.98107,-3.46702 -5.19648,-3.00089c-0.76605,-2.21363 -3.09649,-3.45602 -5.34167,-2.89328c-2.06219,-6.27855 -4.28163,-13.03585 -5.48885,-16.71134c-0.63369,-1.92933 0.41367,-4.0118 2.34942,-4.6476c6.36035,-2.08905 39.52268,-12.98123 45.88946,-15.07241c1.92936,-0.63369 4.00749,0.42219 4.64118,2.35153c2.08907,6.36036 7.20927,21.94934 9.30045,28.31612c0.63369,1.92933 -0.41576,4.00537 -2.34511,4.63906z" fill="url(#color-9)"/><path d="" fill="url(#color-10)"/></g><g fill="none" stroke-linecap="round"><g><path d="M242.28199,199.56564l2.18882,6.66405" stroke="url(#color-11)" stroke-width="5"/><path d="M245.45687,205.37847l-1.08398,-3.30029" stroke="url(#color-12)" stroke-width="2.5"/></g><g data-paper-data="{&quot;index&quot;:null}"><path d="M252.87498,195.85198l2.18882,6.66405" stroke="#adadad" stroke-width="5"/><path d="M252.68106,199.11496l1.08398,3.30029" stroke="#c5c5c5" stroke-width="2.5"/></g></g></g><path d="M239.99343,210.24932l6.07567,-1.6645l4.71591,-4.68097l8.88213,-6.28553l2.62121,7.98055l-23.18162,7.61401l-1.9347,-5.8904z" fill="#ffffff" stroke="none" stroke-width="0" stroke-linecap="butt"/></g></g></g></g></svg>