<svg version="1.1" xmlns="http://www.w3.org/2000/svg" xmlns:xlink="http://www.w3.org/1999/xlink" width="8.03127" height="14.01561" viewBox="0,0,8.03127,14.01561"><g transform="translate(-235.98436,-172.65886)"><g data-paper-data="{&quot;isPaintingLayer&quot;:true}" fill="#ff0000" fill-rule="nonzero" stroke="none" stroke-width="1" stroke-linecap="square" stroke-linejoin="miter" stroke-miterlimit="10" stroke-dasharray="" stroke-dashoffset="0" style="mix-blend-mode: normal"><path d="M240.90623,176.94009h2.40625v2.64063h-2.3125v7.09375h-3.54687v-7.09375h-1.46875v-2.64062h1.46875v-0.26562c0,-1.22916 0.36979,-2.20312 1.10938,-2.92187c0.73959,-0.72916 1.77604,-1.09375 3.10938,-1.09375c0.44791,0 0.88021,0.04688 1.29688,0.14063c0.42709,0.08334 0.77604,0.21354 1.04688,0.39063l-0.875,2.5c-0.34375,-0.19791 -0.69791,-0.29687 -1.0625,-0.29687c-0.375,0 -0.66666,0.11459 -0.875,0.34375c-0.19791,0.21875 -0.29687,0.54166 -0.29687,0.96875z"/></g></g></svg>