<svg version="1.1" xmlns="http://www.w3.org/2000/svg" xmlns:xlink="http://www.w3.org/1999/xlink" width="66" height="66" viewBox="0,0,66,66"><g transform="translate(-1.29429,-1.35435)"><g data-paper-data="{&quot;isPaintingLayer&quot;:true}" fill-rule="nonzero" stroke="none" stroke-width="0" stroke-linecap="butt" stroke-linejoin="miter" stroke-miterlimit="10" stroke-dasharray="" stroke-dashoffset="0" style="mix-blend-mode: normal"><g><path d="M1.29429,59.60435c0,-7.62792 0,-36.25686 0,-50.5c0,-5.13679 3.43259,-7.75 7.875,-7.75c8.05103,0 36.17783,0 50,0c4.92183,0 8.125,3.36321 8.125,8.5c0,14.24314 0,42.12209 0,49.75c0,3.78578 -3.30708,7.75 -8.375,7.75c-14.31837,0 -42.69225,0 -50.25,0c-3.62939,0 -7.375,-3.96422 -7.375,-7.75z" fill="#464646"/><g><path d="M8.51652,32.66591c0,-1.41578 0,-6.72949 0,-9.37311c0,-0.95342 0.6371,-1.43845 1.46165,-1.43845c1.49432,0 6.71482,0 9.2803,0c0.91352,0 1.50805,0.62423 1.50805,1.57765c0,2.64361 0,7.81812 0,9.23391c0,0.70267 -0.61382,1.43845 -1.55445,1.43845c-2.65758,0 -7.92394,0 -9.32671,0c-0.67363,0 -1.36884,-0.73578 -1.36884,-1.43845z" fill="#bcf39c"/><path d="M21.65541,32.66591c0,-1.41578 0,-6.72949 0,-9.37311c0,-0.95342 0.63711,-1.43845 1.46165,-1.43845c1.49432,0 6.71482,0 9.2803,0c0.91352,0 1.50805,0.62423 1.50805,1.57765c0,2.64362 0,7.81812 0,9.23391c0,0.70267 -0.61381,1.43845 -1.55445,1.43845c-2.65758,0 -7.92394,0 -9.32671,0c-0.67363,0 -1.36884,-0.73578 -1.36884,-1.43845z" fill="#b1e493"/><path d="M34.68318,32.66591c0,-1.41578 0,-6.72949 0,-9.37311c0,-0.95342 0.6371,-1.43845 1.46165,-1.43845c1.49432,0 6.71482,0 9.2803,0c0.91352,0 1.50805,0.62423 1.50805,1.57765c0,2.64362 0,7.81812 0,9.23391c0,0.70267 -0.61381,1.43845 -1.55445,1.43845c-2.65758,0 -7.92393,0 -9.32671,0c-0.67363,0 -1.36885,-0.73578 -1.36885,-1.43845z" fill="#a6d789"/><path d="M47.82207,32.41591c0,-1.41578 0,-6.72949 0,-9.37311c0,-0.95342 0.6371,-1.43845 1.46165,-1.43845c1.49432,0 6.71482,0 9.2803,0c0.91352,0 1.50805,0.62423 1.50805,1.57765c0,2.64362 0,7.81812 0,9.23391c0,0.70267 -0.61381,1.43845 -1.55445,1.43845c-2.65758,0 -7.92394,0 -9.32671,0c-0.67363,0 -1.36885,-0.73578 -1.36885,-1.43845z" fill="#96c37d"/><path d="M8.51652,19.41591c0,-1.41578 0,-6.72949 0,-9.37311c0,-0.95342 0.6371,-1.43845 1.46165,-1.43845c1.49432,0 6.71482,0 9.2803,0c0.91352,0 1.50805,0.62423 1.50805,1.57765c0,2.64362 0,7.81812 0,9.23391c0,0.70267 -0.61382,1.43845 -1.55445,1.43845c-2.65758,0 -7.92394,0 -9.32671,0c-0.67363,0 -1.36884,-0.73578 -1.36884,-1.43845z" fill="#c5ffa3"/><path d="M21.65541,19.41591c0,-1.41578 0,-6.72949 0,-9.37311c0,-0.95342 0.63711,-1.43845 1.46165,-1.43845c1.49432,0 6.71482,0 9.2803,0c0.91352,0 1.50805,0.62423 1.50805,1.57765c0,2.64362 0,7.81812 0,9.23391c0,0.70267 -0.61381,1.43845 -1.55445,1.43845c-2.65758,0 -7.92394,0 -9.32671,0c-0.67363,0 -1.36884,-0.73578 -1.36884,-1.43845z" fill="#bcf39c"/><path d="M34.68318,19.41591c0,-1.41578 0,-6.72949 0,-9.37311c0,-0.95342 0.6371,-1.43845 1.46165,-1.43845c1.49432,0 6.71482,0 9.2803,0c0.91352,0 1.50805,0.62423 1.50805,1.57765c0,2.64362 0,7.81812 0,9.23391c0,0.70267 -0.61381,1.43845 -1.55445,1.43845c-2.65758,0 -7.92393,0 -9.32671,0c-0.67363,0 -1.36885,-0.73578 -1.36885,-1.43845z" fill="#b1e493"/><path d="M47.82207,19.16591c0,-1.41578 0,-6.72949 0,-9.37311c0,-0.95342 0.6371,-1.43845 1.46165,-1.43845c1.49432,0 6.71482,0 9.2803,0c0.91352,0 1.50805,0.62423 1.50805,1.57765c0,2.64362 0,7.81812 0,9.23391c0,0.70267 -0.61381,1.43845 -1.55445,1.43845c-2.65758,0 -7.92394,0 -9.32671,0c-0.67363,0 -1.36885,-0.73578 -1.36885,-1.43845z" fill="#a6d789"/><path d="M8.51651,58.9159c0,-1.41578 0,-6.72949 0,-9.37311c0,-0.95342 0.6371,-1.43845 1.46165,-1.43845c1.49432,0 6.71482,0 9.2803,0c0.91352,0 1.50805,0.62423 1.50805,1.57765c0,2.64361 0,7.81812 0,9.23391c0,0.70267 -0.61382,1.43845 -1.55445,1.43845c-2.65758,0 -7.92394,0 -9.32671,0c-0.67363,0 -1.36884,-0.73578 -1.36884,-1.43845z" fill="#a6d789"/><path d="M21.6554,58.9159c0,-1.41578 0,-6.72949 0,-9.37311c0,-0.95342 0.63711,-1.43845 1.46165,-1.43845c1.49432,0 6.71482,0 9.2803,0c0.91352,0 1.50805,0.62423 1.50805,1.57765c0,2.64362 0,7.81812 0,9.23391c0,0.70267 -0.61381,1.43845 -1.55445,1.43845c-2.65758,0 -7.92394,0 -9.32671,0c-0.67363,0 -1.36884,-0.73578 -1.36884,-1.43845z" fill="#96c37d"/><path d="M34.68317,58.9159c0,-1.41578 0,-6.72949 0,-9.37311c0,-0.95342 0.6371,-1.43845 1.46165,-1.43845c1.49432,0 6.71482,0 9.2803,0c0.91352,0 1.50805,0.62423 1.50805,1.57765c0,2.64362 0,7.81812 0,9.23391c0,0.70267 -0.61381,1.43845 -1.55445,1.43845c-2.65758,0 -7.92393,0 -9.32671,0c-0.67363,0 -1.36885,-0.73578 -1.36885,-1.43845z" fill="#85ad6f"/><path d="M47.82206,58.6659c0,-1.41578 0,-6.72949 0,-9.37311c0,-0.95342 0.6371,-1.43845 1.46165,-1.43845c1.49432,0 6.71482,0 9.2803,0c0.91352,0 1.50805,0.62423 1.50805,1.57765c0,2.64362 0,7.81812 0,9.23391c0,0.70267 -0.61381,1.43845 -1.55445,1.43845c-2.65758,0 -7.92394,0 -9.32671,0c-0.67363,0 -1.36885,-0.73578 -1.36885,-1.43845z" fill="#789d64"/><path d="M8.51651,45.6659c0,-1.41578 0,-6.72949 0,-9.37311c0,-0.95342 0.6371,-1.43845 1.46165,-1.43845c1.49432,0 6.71482,0 9.2803,0c0.91352,0 1.50805,0.62423 1.50805,1.57765c0,2.64362 0,7.81812 0,9.23391c0,0.70267 -0.61382,1.43845 -1.55445,1.43845c-2.65758,0 -7.92394,0 -9.32671,0c-0.67363,0 -1.36884,-0.73578 -1.36884,-1.43845z" fill="#b1e493"/><path d="M21.6554,45.6659c0,-1.41578 0,-6.72949 0,-9.37311c0,-0.95342 0.63711,-1.43845 1.46165,-1.43845c1.49432,0 6.71482,0 9.2803,0c0.91352,0 1.50805,0.62423 1.50805,1.57765c0,2.64362 0,7.81812 0,9.23391c0,0.70267 -0.61381,1.43845 -1.55445,1.43845c-2.65758,0 -7.92394,0 -9.32671,0c-0.67363,0 -1.36884,-0.73578 -1.36884,-1.43845z" fill="#a6d789"/><path d="M34.68317,45.6659c0,-1.41578 0,-6.72949 0,-9.37311c0,-0.95342 0.6371,-1.43845 1.46165,-1.43845c1.49432,0 6.71482,0 9.2803,0c0.91352,0 1.50805,0.62423 1.50805,1.57765c0,2.64362 0,7.81812 0,9.23391c0,0.70267 -0.61381,1.43845 -1.55445,1.43845c-2.65758,0 -7.92393,0 -9.32671,0c-0.67363,0 -1.36885,-0.73578 -1.36885,-1.43845z" fill="#96c37d"/><path d="M47.82206,45.4159c0,-1.41578 0,-6.72949 0,-9.37311c0,-0.95342 0.6371,-1.43845 1.46165,-1.43845c1.49432,0 6.71482,0 9.2803,0c0.91352,0 1.50805,0.62423 1.50805,1.57765c0,2.64362 0,7.81812 0,9.23391c0,0.70267 -0.61381,1.43845 -1.55445,1.43845c-2.65758,0 -7.92394,0 -9.32671,0c-0.67363,0 -1.36885,-0.73578 -1.36885,-1.43845z" fill="#85ad6f"/></g></g></g></g></svg>