<svg version="1.1" xmlns="http://www.w3.org/2000/svg" xmlns:xlink="http://www.w3.org/1999/xlink" width="10.73437" height="13.32811" viewBox="0,0,10.73437,13.32811"><g transform="translate(-234.63282,-173.33596)"><g data-paper-data="{&quot;isPaintingLayer&quot;:true}" fill="#ff0000" fill-rule="nonzero" stroke="none" stroke-width="1" stroke-linecap="square" stroke-linejoin="miter" stroke-miterlimit="10" stroke-dasharray="" stroke-dashoffset="0" style="mix-blend-mode: normal"><path d="M239.9922,178.10158c1.83334,0 3.1875,0.375 4.0625,1.125c0.875,0.73958 1.3125,1.72917 1.3125,2.96875c0,0.8125 -0.20834,1.55729 -0.625,2.23437c-0.41666,0.67708 -1.05209,1.21875 -1.90625,1.625c-0.84375,0.40625 -1.89584,0.60938 -3.15625,0.60938c-0.91666,0 -1.82812,-0.10937 -2.73437,-0.32812c-0.89584,-0.22917 -1.66666,-0.55208 -2.3125,-0.96875l1.3125,-2.78125c0.52084,0.35417 1.09375,0.625 1.71875,0.8125c0.63541,0.1875 1.27084,0.28125 1.90625,0.28125c0.63541,0 1.14063,-0.11979 1.51563,-0.35937c0.38541,-0.25 0.57813,-0.59375 0.57813,-1.03125c0,-0.42708 -0.1875,-0.75 -0.5625,-0.96875c-0.375,-0.22917 -1.03646,-0.34375 -1.98437,-0.34375h-3.54687l0.65625,-7.64062h8.32813v2.85937h-5.26562l-0.17187,1.90625z"/></g></g></svg>