<svg version="1.1" xmlns="http://www.w3.org/2000/svg" xmlns:xlink="http://www.w3.org/1999/xlink" width="368.36787" height="291.97103" viewBox="0,0,368.36787,291.97103"><defs><linearGradient x1="302.45942" y1="237.52526" x2="307.49006" y2="232.49463" gradientUnits="userSpaceOnUse" id="color-1"><stop offset="0" stop-color="#c1ad7e"/><stop offset="1" stop-color="#8f7f5d"/></linearGradient><linearGradient x1="266.70018" y1="201.76602" x2="271.73082" y2="196.73539" gradientUnits="userSpaceOnUse" id="color-2"><stop offset="0" stop-color="#ab996f"/><stop offset="1" stop-color="#786b4e"/></linearGradient><linearGradient x1="338.21866" y1="273.28451" x2="343.24929" y2="268.25387" gradientUnits="userSpaceOnUse" id="color-3"><stop offset="0" stop-color="#ab996f"/><stop offset="1" stop-color="#786b4e"/></linearGradient><linearGradient x1="302.45942" y1="237.52526" x2="307.49006" y2="232.49463" gradientUnits="userSpaceOnUse" id="color-4"><stop offset="0" stop-color="#ab996f"/><stop offset="1" stop-color="#786b4e"/></linearGradient><linearGradient x1="300.6961" y1="239.28858" x2="301.83205" y2="238.15263" gradientUnits="userSpaceOnUse" id="color-5"><stop offset="0" stop-color="#e7cf96"/><stop offset="1" stop-color="#e7cf96" stop-opacity="0"/></linearGradient><linearGradient x1="305.72284" y1="234.26184" x2="304.58689" y2="235.39779" gradientUnits="userSpaceOnUse" id="color-6"><stop offset="0" stop-color="#8a7c5a"/><stop offset="1" stop-color="#8a7c5a" stop-opacity="0"/></linearGradient><linearGradient x1="178.04058" y1="237.52764" x2="173.00995" y2="232.49701" gradientUnits="userSpaceOnUse" id="color-7"><stop offset="0" stop-color="#c1ad7e"/><stop offset="1" stop-color="#8f7f5d"/></linearGradient><linearGradient x1="213.79982" y1="201.7684" x2="208.76919" y2="196.73777" gradientUnits="userSpaceOnUse" id="color-8"><stop offset="0" stop-color="#ab996f"/><stop offset="1" stop-color="#786b4e"/></linearGradient><linearGradient x1="142.28134" y1="273.28688" x2="137.2507" y2="268.25625" gradientUnits="userSpaceOnUse" id="color-9"><stop offset="0" stop-color="#ab996f"/><stop offset="1" stop-color="#786b4e"/></linearGradient><linearGradient x1="178.04058" y1="237.52764" x2="173.00995" y2="232.49701" gradientUnits="userSpaceOnUse" id="color-10"><stop offset="0" stop-color="#ab996f"/><stop offset="1" stop-color="#786b4e"/></linearGradient><linearGradient x1="179.8039" y1="239.29096" x2="178.66795" y2="238.15501" gradientUnits="userSpaceOnUse" id="color-11"><stop offset="0" stop-color="#e7cf96"/><stop offset="1" stop-color="#e7cf96" stop-opacity="0"/></linearGradient><linearGradient x1="174.77716" y1="234.26422" x2="175.91311" y2="235.40017" gradientUnits="userSpaceOnUse" id="color-12"><stop offset="0" stop-color="#8a7c5a"/><stop offset="1" stop-color="#8a7c5a" stop-opacity="0"/></linearGradient><linearGradient x1="355.17296" y1="240" x2="338.42455" y2="240" gradientUnits="userSpaceOnUse" id="color-13"><stop offset="0" stop-color="#c1ad7e"/><stop offset="1" stop-color="#8f7f5d"/></linearGradient><linearGradient x1="355.17296" y1="120.94733" x2="338.42455" y2="120.94733" gradientUnits="userSpaceOnUse" id="color-14"><stop offset="0" stop-color="#ab996f"/><stop offset="1" stop-color="#786b4e"/></linearGradient><linearGradient x1="355.17296" y1="359.05267" x2="338.42455" y2="359.05267" gradientUnits="userSpaceOnUse" id="color-15"><stop offset="0" stop-color="#ab996f"/><stop offset="1" stop-color="#786b4e"/></linearGradient><linearGradient x1="355.17296" y1="240" x2="338.42455" y2="240" gradientUnits="userSpaceOnUse" id="color-16"><stop offset="0" stop-color="#ab996f"/><stop offset="1" stop-color="#786b4e"/></linearGradient><linearGradient x1="361.04355" y1="240" x2="357.26165" y2="240" gradientUnits="userSpaceOnUse" id="color-17"><stop offset="0" stop-color="#e7cf96"/><stop offset="1" stop-color="#e7cf96" stop-opacity="0"/></linearGradient><linearGradient x1="344.3081" y1="240" x2="348.09" y2="240" gradientUnits="userSpaceOnUse" id="color-18"><stop offset="0" stop-color="#8a7c5a"/><stop offset="1" stop-color="#8a7c5a" stop-opacity="0"/></linearGradient><linearGradient x1="129.94773" y1="240" x2="113.19932" y2="240" gradientUnits="userSpaceOnUse" id="color-19"><stop offset="0" stop-color="#c1ad7e"/><stop offset="1" stop-color="#8f7f5d"/></linearGradient><linearGradient x1="129.94773" y1="120.94733" x2="113.19932" y2="120.94733" gradientUnits="userSpaceOnUse" id="color-20"><stop offset="0" stop-color="#ab996f"/><stop offset="1" stop-color="#786b4e"/></linearGradient><linearGradient x1="129.94773" y1="359.05268" x2="113.19932" y2="359.05268" gradientUnits="userSpaceOnUse" id="color-21"><stop offset="0" stop-color="#ab996f"/><stop offset="1" stop-color="#786b4e"/></linearGradient><linearGradient x1="129.94773" y1="240" x2="113.19932" y2="240" gradientUnits="userSpaceOnUse" id="color-22"><stop offset="0" stop-color="#ab996f"/><stop offset="1" stop-color="#786b4e"/></linearGradient><linearGradient x1="135.81832" y1="240" x2="132.03642" y2="240" gradientUnits="userSpaceOnUse" id="color-23"><stop offset="0" stop-color="#e7cf96"/><stop offset="1" stop-color="#e7cf96" stop-opacity="0"/></linearGradient><linearGradient x1="119.08288" y1="240" x2="122.86478" y2="240" gradientUnits="userSpaceOnUse" id="color-24"><stop offset="0" stop-color="#8a7c5a"/><stop offset="1" stop-color="#8a7c5a" stop-opacity="0"/></linearGradient><linearGradient x1="353.04167" y1="204.95833" x2="353.04167" y2="181.95833" gradientUnits="userSpaceOnUse" id="color-25"><stop offset="0" stop-color="#000000" stop-opacity="0"/><stop offset="1" stop-color="#000000"/></linearGradient><linearGradient x1="352.95833" y1="155.04167" x2="352.95833" y2="178.04167" gradientUnits="userSpaceOnUse" id="color-26"><stop offset="0" stop-color="#000000" stop-opacity="0"/><stop offset="1" stop-color="#000000"/></linearGradient><linearGradient x1="127" y1="205.5" x2="127" y2="182.5" gradientUnits="userSpaceOnUse" id="color-27"><stop offset="0" stop-color="#000000" stop-opacity="0"/><stop offset="1" stop-color="#000000"/></linearGradient><linearGradient x1="126.91667" y1="155.58334" x2="126.91667" y2="178.58334" gradientUnits="userSpaceOnUse" id="color-28"><stop offset="0" stop-color="#000000" stop-opacity="0"/><stop offset="1" stop-color="#000000"/></linearGradient><linearGradient x1="240.25" y1="174.55465" x2="240.25" y2="210.17522" gradientUnits="userSpaceOnUse" id="color-29"><stop offset="0" stop-color="#c1ad7e"/><stop offset="1" stop-color="#8f7f5d"/></linearGradient><linearGradient x1="90.25" y1="174.55465" x2="90.25" y2="210.17522" gradientUnits="userSpaceOnUse" id="color-30"><stop offset="0" stop-color="#ab996f"/><stop offset="1" stop-color="#786b4e"/></linearGradient><linearGradient x1="390.25" y1="174.55465" x2="390.25" y2="210.17522" gradientUnits="userSpaceOnUse" id="color-31"><stop offset="0" stop-color="#ab996f"/><stop offset="1" stop-color="#786b4e"/></linearGradient><linearGradient x1="240.25" y1="174.55465" x2="240.25" y2="210.17522" gradientUnits="userSpaceOnUse" id="color-32"><stop offset="0" stop-color="#ab996f"/><stop offset="1" stop-color="#786b4e"/></linearGradient><linearGradient x1="240.25" y1="162.06907" x2="240.25" y2="170.11243" gradientUnits="userSpaceOnUse" id="color-33"><stop offset="0" stop-color="#e7cf96"/><stop offset="1" stop-color="#e7cf96" stop-opacity="0"/></linearGradient><linearGradient x1="240.25" y1="197.66205" x2="240.25" y2="189.6187" gradientUnits="userSpaceOnUse" id="color-34"><stop offset="0" stop-color="#8a7c5a"/><stop offset="1" stop-color="#8a7c5a" stop-opacity="0"/></linearGradient></defs><g transform="translate(-55.81606,-94.01448)"><g data-paper-data="{&quot;isPaintingLayer&quot;:true}" fill-rule="nonzero" stroke="none" stroke-width="0" stroke-linecap="butt" stroke-linejoin="miter" stroke-miterlimit="10" stroke-dasharray="" stroke-dashoffset="0" style="mix-blend-mode: normal"><g data-paper-data="{&quot;index&quot;:null}"><path d="M264.83014,193.29319l84.77959,84.7796l-5.03063,5.03063l-84.73669,-84.73668l-0.45215,-5.47016z" fill="url(#color-1)"/><path d="M264.81584,193.27889l14.58659,14.58658l-5.03063,5.03064l-14.52938,-14.52938l-0.44262,-5.46063z" fill="url(#color-2)"/><path d="M349.49054,277.95359l-5.03064,5.03063l-17.37133,-17.37133l5.03063,-5.03064z" fill="url(#color-3)"/><path d="M315.16166,243.62472l-5.03063,5.03063l-18.8017,-18.8017l5.03063,-5.03064z" fill="url(#color-4)"/><path d="M259.69992,196.0205l85.88093,85.88094l-1.13595,1.13595l-84.63656,-84.63657z" fill="url(#color-5)"/><path d="M262.28312,193.09402l2.55195,0.28006l84.63657,84.63657l-1.13595,1.13595z" data-paper-data="{&quot;index&quot;:null}" fill="url(#color-6)"/></g><g><path d="M221.10973,192.89896l-0.45215,5.47016l-84.73669,84.73669l-5.03063,-5.03063l84.7796,-84.7796z" fill="url(#color-7)"/><path d="M221.1002,192.90849l-0.44262,5.46063l-14.52938,14.52938l-5.03063,-5.03063l14.58659,-14.58659z" fill="url(#color-8)"/><path d="M148.38079,260.58464l5.03063,5.03063l-17.37133,17.37133l-5.03063,-5.03063z" fill="url(#color-9)"/><path d="M184.14004,224.8254l5.03063,5.03063l-18.8017,18.8017l-5.03063,-5.03063z" fill="url(#color-10)"/><path d="M220.69166,198.40319l-84.63656,84.63656l-1.13595,-1.13595l85.88093,-85.88093z" fill="url(#color-11)"/><path d="M132.16431,279.14897l-1.13595,-1.13595l84.63656,-84.63656l2.55196,-0.28006z" data-paper-data="{&quot;index&quot;:null}" fill="url(#color-12)"/></g><g><path d="M352.5769,94.01449l8.35319,9.85852v282.1125h-16.74841v-282.25536z" fill="url(#color-13)"/><path d="M352.5769,94.04621l8.35319,9.8268v48.37242h-16.74841v-48.5629z" fill="url(#color-14)"/><path d="M344.18168,327.75457h16.74841v57.8341h-16.74841z" fill="url(#color-15)"/><path d="M344.18168,208.7019h16.74841v62.5962h-16.74841z" fill="url(#color-16)"/><path d="M361.04355,103.87301v281.77917h-3.7819v-285.92203z" fill="url(#color-17)"/><path d="M348.09,385.65218h-3.7819v-281.77917l3.7819,-4.71428z" data-paper-data="{&quot;index&quot;:null}" fill="url(#color-18)"/></g><g><path d="M127.35167,94.01449l8.35319,9.85852v282.1125h-16.74841v-282.25536z" fill="url(#color-19)"/><path d="M127.35167,94.04622l8.35319,9.82679v48.37242h-16.74841v-48.5629z" fill="url(#color-20)"/><path d="M118.95645,327.75457h16.74841v57.8341h-16.74841z" fill="url(#color-21)"/><path d="M118.95645,208.7019h16.74841v62.5962h-16.74841z" fill="url(#color-22)"/><path d="M135.81832,103.87301v281.77917h-3.7819v-285.92203z" fill="url(#color-23)"/><path d="M122.86478,385.65218h-3.7819v-281.77917l3.7819,-4.71428z" data-paper-data="{&quot;index&quot;:null}" fill="url(#color-24)"/></g><g><path d="M361.375,181.95833v23h-16.66666v-23z" data-paper-data="{&quot;index&quot;:null}" fill="url(#color-25)"/><path d="M344.625,178.04167v-23h16.66666v23z" fill="url(#color-26)"/></g><g><path d="M135.33334,182.5v23h-16.66666v-23z" data-paper-data="{&quot;index&quot;:null}" fill="url(#color-27)"/><path d="M118.58334,178.58334v-23h16.66666v23z" fill="url(#color-28)"/></g><path d="" fill="#404040"/><path d="" fill="#404040"/><g><path d="M56.31606,197.93094v-35.62056h367.86787v35.62057z" fill="url(#color-29)"/><path d="M55.81606,197.93094v-35.62056h73.86787v35.62057z" fill="url(#color-30)"/><path d="M350.81607,197.93094v-35.62056h72.86787v35.62057z" fill="url(#color-31)"/><path d="M200.81606,197.93094v-35.62056h78.86787v35.62057z" fill="url(#color-32)"/><path d="M55.98273,170.11243v-8.04336h367.86787v8.04336z" fill="url(#color-33)"/><path d="M423.8506,189.6187v8.04335h-367.53453v-8.04335z" data-paper-data="{&quot;index&quot;:null}" fill="url(#color-34)"/></g></g></g></svg>