<svg version="1.1" xmlns="http://www.w3.org/2000/svg" xmlns:xlink="http://www.w3.org/1999/xlink" width="28.59868" height="42.83322" viewBox="0,0,28.59868,42.83322"><defs><linearGradient x1="237.94365" y1="119.8726" x2="237.94365" y2="162.7058" gradientUnits="userSpaceOnUse" id="color-1"><stop offset="0" stop-color="#1a1a1a"/><stop offset="1" stop-color="#1a1a1a" stop-opacity="0"/></linearGradient><linearGradient x1="231.4224" y1="172.90563" x2="202.82372" y2="172.90563" gradientUnits="userSpaceOnUse" id="color-2"><stop offset="0" stop-color="#1a1a1a" stop-opacity="0"/><stop offset="1" stop-color="#1a1a1a"/></linearGradient></defs><g transform="translate(-225.70066,-155.60174)"><g data-paper-data="{&quot;isPaintingLayer&quot;:true}" fill-rule="nonzero" stroke="none" stroke-width="1" stroke-linecap="butt" stroke-linejoin="miter" stroke-miterlimit="10" stroke-dasharray="" stroke-dashoffset="0" style="mix-blend-mode: normal"><g data-paper-data="{&quot;index&quot;:null}"><path d="M254.29933,195.60633c0,1.56278 -1.26585,2.82862 -2.82861,2.82862c-5.15713,0 -17.78432,0 -22.93624,0c-1.56277,0 -2.83382,-1.26585 -2.83382,-2.82862c0,-5.15713 0,-32.01885 0,-37.17077c0,-1.56797 1.27106,-2.83382 2.83382,-2.83382c5.15192,0 17.77909,0 22.93624,0c1.56277,0 2.82861,1.26583 2.82861,2.83382c0,5.15193 0,32.01362 0,37.17077z" fill="#ffffff"/><path d="M254.29934,195.60634c0,1.56278 -1.26585,2.82862 -2.82861,2.82862c-5.15713,0 -17.78432,0 -22.93624,0c-1.56277,0 -2.83382,-1.26585 -2.83382,-2.82862c0,-5.15713 0,-32.01885 0,-37.17077c0,-1.56797 1.27106,-2.83382 2.83382,-2.83382c5.15192,0 17.77909,0 22.93624,0c1.56277,0 2.82861,1.26583 2.82861,2.83382c0,5.15193 0,32.01362 0,37.17077z" fill="url(#color-1)"/><path d="M254.29934,195.60634c0,1.56278 -1.26585,2.82862 -2.82861,2.82862c-5.15713,0 -17.78432,0 -22.93624,0c-1.56277,0 -2.83382,-1.26585 -2.83382,-2.82862c0,-5.15713 0,-32.01885 0,-37.17077c0,-1.56797 1.27106,-2.83382 2.83382,-2.83382c5.15192,0 17.77909,0 22.93624,0c1.56277,0 2.82861,1.26583 2.82861,2.83382c0,5.15193 0,32.01362 0,37.17077z" fill="url(#color-2)"/></g><g data-paper-data="{&quot;index&quot;:null}" fill="none" font-family="sans-serif" font-weight="normal" font-size="12" text-anchor="start"><g/><g data-paper-data="{&quot;index&quot;:null}"/></g></g></g></svg>