<svg version="1.1" xmlns="http://www.w3.org/2000/svg" xmlns:xlink="http://www.w3.org/1999/xlink" width="11.17186" height="13.59375" viewBox="0,0,11.17186,13.59375"><g transform="translate(-234.41407,-173.20314)"><g data-paper-data="{&quot;isPaintingLayer&quot;:true}" fill="#ff0000" fill-rule="nonzero" stroke="none" stroke-width="1" stroke-linecap="square" stroke-linejoin="miter" stroke-miterlimit="10" stroke-dasharray="" stroke-dashoffset="0" style="mix-blend-mode: normal"><path d="M241.08592,178.20313c0.82291,0 1.57291,0.17188 2.25,0.51563c0.6875,0.34375 1.23438,0.83333 1.64063,1.46875c0.40625,0.625 0.60938,1.33854 0.60938,2.14063c0,0.88541 -0.22916,1.66666 -0.6875,2.34375c-0.44791,0.67708 -1.0625,1.20313 -1.84375,1.57813c-0.78125,0.36458 -1.65104,0.54688 -2.60937,0.54688c-1.86459,0 -3.33854,-0.55209 -4.42187,-1.65625c-1.07291,-1.11459 -1.60937,-2.70834 -1.60937,-4.78125c0,-1.48959 0.28646,-2.77084 0.85938,-3.84375c0.58334,-1.08333 1.39584,-1.90625 2.4375,-2.46875c1.04166,-0.5625 2.25521,-0.84375 3.64063,-0.84375c0.73959,0 1.44271,0.08333 2.10938,0.25c0.67709,0.16667 1.25521,0.40104 1.73438,0.70313l-1.34375,2.65625c-0.63541,-0.44792 -1.4375,-0.67187 -2.40625,-0.67187c-0.94791,0 -1.71354,0.26042 -2.29687,0.78125c-0.58334,0.52083 -0.92187,1.27604 -1.01562,2.26563c0.75,-0.65625 1.73438,-0.98437 2.95313,-0.98437zM240.22655,184.15625c0.52084,0 0.94791,-0.14584 1.28125,-0.4375c0.33334,-0.30209 0.5,-0.70834 0.5,-1.21875c0,-0.5 -0.16666,-0.89584 -0.5,-1.1875c-0.33334,-0.30209 -0.76562,-0.45312 -1.29687,-0.45312c-0.53125,0 -0.96875,0.15625 -1.3125,0.46875c-0.33334,0.30208 -0.5,0.69791 -0.5,1.1875c0,0.48958 0.16146,0.88541 0.48438,1.1875c0.33334,0.30208 0.78125,0.45313 1.34375,0.45313z"/></g></g></svg>