<svg version="1.1" xmlns="http://www.w3.org/2000/svg" xmlns:xlink="http://www.w3.org/1999/xlink" width="370.16671" height="80.85611" viewBox="0,0,370.16671,80.85611"><defs><linearGradient x1="220.3224" y1="153.90656" x2="218.95169" y2="161.01727" gradientUnits="userSpaceOnUse" id="color-1"><stop offset="0" stop-color="#000000"/><stop offset="1" stop-color="#151515"/></linearGradient><linearGradient x1="221.44348" y1="154.64946" x2="220.76464" y2="158.17094" gradientUnits="userSpaceOnUse" id="color-2"><stop offset="0" stop-color="#292929"/><stop offset="1" stop-color="#313131"/></linearGradient><linearGradient x1="231.65599" y1="156.32545" x2="230.28528" y2="163.43616" gradientUnits="userSpaceOnUse" id="color-3"><stop offset="0" stop-color="#000000"/><stop offset="1" stop-color="#151515"/></linearGradient><linearGradient x1="230.33912" y1="156.59839" x2="229.66029" y2="160.11986" gradientUnits="userSpaceOnUse" id="color-4"><stop offset="0" stop-color="#292929"/><stop offset="1" stop-color="#313131"/></linearGradient><linearGradient x1="298.96011" y1="176.29525" x2="234.95818" y2="163.95777" gradientUnits="userSpaceOnUse" id="color-5"><stop offset="0" stop-color="#1a1a1a"/><stop offset="1" stop-color="#1a1a1a" stop-opacity="0"/></linearGradient><linearGradient x1="298.96011" y1="176.29525" x2="234.95818" y2="163.95777" gradientUnits="userSpaceOnUse" id="color-6"><stop offset="0" stop-color="#1a1a1a"/><stop offset="1" stop-color="#1a1a1a" stop-opacity="0"/></linearGradient><linearGradient x1="217.83911" y1="170.76398" x2="209.60168" y2="213.49646" gradientUnits="userSpaceOnUse" id="color-7"><stop offset="0" stop-color="#1a1a1a" stop-opacity="0"/><stop offset="1" stop-color="#1a1a1a"/></linearGradient><linearGradient x1="217.83911" y1="170.76398" x2="209.60168" y2="213.49646" gradientUnits="userSpaceOnUse" id="color-8"><stop offset="0" stop-color="#1a1a1a" stop-opacity="0"/><stop offset="1" stop-color="#1a1a1a"/></linearGradient><linearGradient x1="210.92096" y1="151.82185" x2="209.36617" y2="159.88749" gradientUnits="userSpaceOnUse" id="color-9"><stop offset="0" stop-color="#000000"/><stop offset="1" stop-color="#151515"/></linearGradient><linearGradient x1="209.4272" y1="152.13142" x2="208.65722" y2="156.12584" gradientUnits="userSpaceOnUse" id="color-10"><stop offset="0" stop-color="#292929"/><stop offset="1" stop-color="#313131"/></linearGradient><linearGradient x1="240" y1="161.10157" x2="240" y2="198.89844" gradientUnits="userSpaceOnUse" id="color-11"><stop offset="0" stop-color="#ff6969"/><stop offset="1" stop-color="#ff5252"/></linearGradient><linearGradient x1="240" y1="161.10157" x2="240" y2="198.89844" gradientUnits="userSpaceOnUse" id="color-12"><stop offset="0" stop-color="#ff6b6b"/><stop offset="1" stop-color="#ff4c4c"/></linearGradient></defs><g transform="translate(-56.73592,-126.54233)"><g data-paper-data="{&quot;isPaintingLayer&quot;:true}" fill-rule="nonzero" stroke-linejoin="miter" stroke-miterlimit="10" stroke-dasharray="" stroke-dashoffset="0" style="mix-blend-mode: normal"><g><g data-paper-data="{&quot;index&quot;:null}" fill="#000000" stroke="#000000" stroke-width="12"><g data-paper-data="{&quot;index&quot;:null}"><g stroke-linecap="butt"><path d="M249.16564,147.77086c2.05867,0.39685 3.40471,2.38575 3.00787,4.44439c-1.30958,6.79351 -4.51601,23.42728 -5.82426,30.2139c-0.39684,2.05865 -2.38709,3.41155 -4.44573,3.01472c-6.79348,-1.30955 -42.17838,-8.13061 -48.965,-9.43886c-2.06549,-0.39817 -3.41023,-2.39397 -3.0134,-4.4526c0.75601,-3.92184 2.14589,-11.13201 3.43731,-17.83136c2.3728,0.2829 4.59706,-1.29397 5.09231,-3.66105c2.32971,0.18786 4.47689,-1.40398 4.92956,-3.75227c0.16793,-0.87112 0.08068,-1.73227 -0.20949,-2.50629c2.27234,0.11079 4.33917,-1.46307 4.78229,-3.76181c0.01322,-0.06864 0.02487,-0.1372 0.03495,-0.20568c12.90868,2.48837 35.84294,6.90934 41.17359,7.93692z"/><path d=""/><path d="M249.16567,147.77086c2.05865,0.39685 3.40469,2.38576 3.00786,4.4444c-1.30958,6.79351 -4.51601,23.42727 -5.82425,30.2139c-0.39683,2.05864 -2.38708,3.41154 -4.44573,3.01471c-6.79348,-1.30955 -42.17837,-8.13061 -48.965,-9.43886c-2.06549,-0.39817 -3.41023,-2.39397 -3.0134,-4.4526c0.75601,-3.92184 2.14589,-11.13201 3.43731,-17.83136c2.3728,0.2829 4.59706,-1.29397 5.09231,-3.66105c2.32971,0.18786 4.47689,-1.40398 4.92956,-3.75227c0.16793,-0.87112 0.08069,-1.73227 -0.20949,-2.50629c2.27234,0.11079 4.33917,-1.46307 4.78229,-3.76181c0.01322,-0.06865 0.02487,-0.13721 0.03495,-0.20569c12.90869,2.48837 35.84298,6.90936 41.1736,7.93692z"/><path d=""/><path d="M249.16567,147.77086c2.05865,0.39685 3.40469,2.38576 3.00786,4.4444c-1.30958,6.79351 -4.51601,23.42727 -5.82425,30.2139c-0.39683,2.05864 -2.38708,3.41154 -4.44573,3.01471c-6.79348,-1.30955 -42.17837,-8.13061 -48.965,-9.43886c-2.06549,-0.39817 -3.41023,-2.39397 -3.0134,-4.4526c0.75601,-3.92184 2.14589,-11.13201 3.43731,-17.83136c2.3728,0.2829 4.59706,-1.29397 5.09231,-3.66105c2.32971,0.18786 4.47689,-1.40398 4.92956,-3.75227c0.16793,-0.87112 0.08069,-1.73227 -0.20949,-2.50629c2.27234,0.11079 4.33917,-1.46307 4.78229,-3.76181c0.01322,-0.06865 0.02487,-0.13721 0.03495,-0.20569c12.90869,2.48837 35.84298,6.90936 41.1736,7.93692z"/><path d=""/></g><g stroke-linecap="round"><g><path d="M225.3224,158.90655l-1.37071,7.11068"/><path d="M226.44348,159.64945l-0.67883,3.52149"/></g><g data-paper-data="{&quot;index&quot;:null}"><path d="M235.28527,168.43615l1.37071,-7.11069"/><path d="M234.66029,165.11987l0.67884,-3.52148"/></g></g></g><g><g stroke-linecap="butt"><path d="M190.46755,138.45413c0.45014,-2.33509 2.70617,-3.86193 5.0413,-3.41179c3.51021,0.67665 31.17463,6.00945 31.17463,6.00945l1.90079,2.51312l2.92874,-1.58214c0,0 7.42998,1.43227 10.69906,2.06244c-0.01825,0.07636 -0.0349,0.15348 -0.04991,0.23133c-0.50264,2.60746 1.01017,5.13624 3.4497,5.97769c-0.6319,0.6927 -1.08687,1.56273 -1.27735,2.55085c-0.51349,2.66368 1.07634,5.24525 3.6088,6.02975c-0.47656,2.70141 1.20074,5.29973 3.81865,6.00232c-1.46485,7.59906 -3.04141,15.77757 -3.89894,20.2261c-0.45013,2.33512 -2.7077,3.86971 -5.05057,3.41809c-7.69807,-1.48394 -47.83517,-9.22107 -55.54103,-10.7065c-2.33513,-0.45014 -3.86047,-2.71395 -3.41032,-5.04907c1.48394,-7.69807 5.12102,-26.56577 6.60646,-34.27163z"/><path d=""/><path d="M195.50886,135.04234c3.30688,0.63745 31.17465,6.00946 31.17465,6.00946l1.99775,3.24739l3.29171,-2.22774c0,0 6.54015,1.26072 10.23911,1.97376c-0.01825,0.07637 -0.0349,0.15349 -0.04991,0.23135c-0.50264,2.60746 1.01017,5.13623 3.4497,5.97769c-0.6319,0.6927 -1.08687,1.56273 -1.27735,2.55085c-0.51349,2.66368 1.07634,5.24525 3.6088,6.02975c-0.47656,2.70141 1.20074,5.29973 3.81865,6.00232c-1.46485,7.59906 -3.04141,15.77758 -3.89894,20.22611c-0.45013,2.33512 -2.7077,3.8697 -5.05057,3.41808c-7.69808,-1.48394 -47.83518,-9.22107 -55.54104,-10.7065c-2.33515,-0.45014 -3.86047,-2.71395 -3.41032,-5.04907c1.48394,-7.69808 5.12102,-26.56577 6.60645,-34.27163c0.45013,-2.33511 2.70616,-3.86195 5.04129,-3.41181z"/><path d=""/><path d="M195.50885,135.04235c4.16927,0.8037 30.7147,5.92078 30.7147,5.92078l2.45772,3.33605l3.52168,-2.18341c0,0 7.66725,1.47799 10.00913,1.92943c-0.01825,0.07637 -0.0349,0.15349 -0.04991,0.23135c-0.50264,2.60746 1.01017,5.13623 3.4497,5.97769c-0.6319,0.6927 -1.08687,1.56273 -1.27735,2.55085c-0.51349,2.66368 1.07634,5.24525 3.6088,6.02975c-0.47656,2.70141 1.20074,5.29973 3.81865,6.00232c-1.46485,7.59906 -3.04141,15.77758 -3.89894,20.22611c-0.45013,2.33512 -2.7077,3.8697 -5.05057,3.41808c-7.69808,-1.48394 -47.83518,-9.22107 -55.54104,-10.7065c-2.33515,-0.45014 -3.86047,-2.71395 -3.41032,-5.04907c1.48394,-7.69808 5.12102,-26.56577 6.60645,-34.27163c0.45013,-2.33511 2.70616,-3.86195 5.04129,-3.41181z"/><path d=""/></g><g stroke-linecap="round"><g><path d="M214.36616,164.8875l1.5548,-8.06564"/><path d="M214.42722,157.13142l-0.76999,3.99442"/></g><g data-paper-data="{&quot;index&quot;:null}"><path d="M201.41176,162.65589l1.5548,-8.06564"/><path d="M204.23818,155.43289l-0.76999,3.99443"/></g></g></g><path d="M222.79149,155.25807l-7.16502,-1.75629l-7.49119,2.10473l-12.66814,1.37437l1.86195,-9.65905l28.05721,5.40852l-1.3743,7.1293z" stroke-linecap="butt"/></g><g data-paper-data="{&quot;index&quot;:null}" fill="#000000" stroke="#000000" stroke-width="12"><g data-paper-data="{&quot;index&quot;:null}"><g stroke-linecap="butt"><path d="M246.66564,145.27086c2.05867,0.39685 3.4047,2.38575 3.00787,4.44439c-1.30958,6.79351 -4.51601,23.42728 -5.82426,30.2139c-0.39684,2.05865 -2.38709,3.41155 -4.44573,3.01472c-6.79348,-1.30955 -42.17838,-8.13061 -48.965,-9.43886c-2.06549,-0.39817 -3.41023,-2.39397 -3.0134,-4.4526c0.75601,-3.92184 2.14589,-11.13201 3.43731,-17.83136c2.3728,0.2829 4.59706,-1.29397 5.09231,-3.66105c2.32971,0.18786 4.47689,-1.40398 4.92956,-3.75227c0.16793,-0.87112 0.08068,-1.73227 -0.20949,-2.50629c2.27234,0.11079 4.33917,-1.46307 4.78229,-3.76181c0.01322,-0.06864 0.02487,-0.1372 0.03495,-0.20568c12.90868,2.48837 35.84294,6.90934 41.17359,7.93692z"/><path d=""/><path d="M246.66567,145.27086c2.05865,0.39685 3.40469,2.38576 3.00786,4.4444c-1.30958,6.79351 -4.51601,23.42727 -5.82425,30.2139c-0.39683,2.05864 -2.38708,3.41154 -4.44573,3.01471c-6.79348,-1.30955 -42.17837,-8.13061 -48.965,-9.43886c-2.06549,-0.39817 -3.41023,-2.39397 -3.0134,-4.4526c0.75601,-3.92184 2.14589,-11.13201 3.43731,-17.83136c2.3728,0.2829 4.59706,-1.29397 5.09231,-3.66105c2.32971,0.18786 4.47689,-1.40398 4.92956,-3.75227c0.16793,-0.87112 0.08069,-1.73227 -0.20949,-2.50629c2.27234,0.11079 4.33917,-1.46307 4.78229,-3.76181c0.01322,-0.06865 0.02487,-0.13721 0.03495,-0.20569c12.90869,2.48837 35.84298,6.90936 41.1736,7.93692z"/><path d=""/><path d="M246.66567,145.27086c2.05865,0.39685 3.40469,2.38576 3.00786,4.4444c-1.30958,6.79351 -4.51601,23.42727 -5.82425,30.2139c-0.39683,2.05864 -2.38708,3.41154 -4.44573,3.01471c-6.79348,-1.30955 -42.17837,-8.13061 -48.965,-9.43886c-2.06549,-0.39817 -3.41023,-2.39397 -3.0134,-4.4526c0.75601,-3.92184 2.14589,-11.13201 3.43731,-17.83136c2.3728,0.2829 4.59706,-1.29397 5.09231,-3.66105c2.32971,0.18786 4.47689,-1.40398 4.92956,-3.75227c0.16793,-0.87112 0.08069,-1.73227 -0.20949,-2.50629c2.27234,0.11079 4.33917,-1.46307 4.78229,-3.76181c0.01322,-0.06865 0.02487,-0.13721 0.03495,-0.20569c12.90869,2.48837 35.84298,6.90936 41.1736,7.93692z"/><path d=""/></g><g stroke-linecap="round"><g><path d="M222.8224,156.40655l-1.37071,7.11068"/><path d="M223.94348,157.14945l-0.67883,3.52149"/></g><g data-paper-data="{&quot;index&quot;:null}"><path d="M232.78527,165.93615l1.37071,-7.11069"/><path d="M232.16029,162.61987l0.67884,-3.52148"/></g></g></g><g><g stroke-linecap="butt"><path d="M187.96755,135.95413c0.45014,-2.33509 2.70617,-3.86193 5.0413,-3.41179c3.51021,0.67665 31.17463,6.00945 31.17463,6.00945l1.90079,2.51312l2.92874,-1.58214c0,0 7.42998,1.43227 10.69906,2.06244c-0.01825,0.07636 -0.0349,0.15348 -0.04991,0.23133c-0.50264,2.60746 1.01017,5.13624 3.4497,5.97769c-0.6319,0.6927 -1.08687,1.56273 -1.27735,2.55085c-0.51349,2.66368 1.07634,5.24525 3.6088,6.02975c-0.47656,2.70141 1.20074,5.29973 3.81865,6.00232c-1.46485,7.59906 -3.04141,15.77757 -3.89894,20.2261c-0.45013,2.33512 -2.7077,3.86971 -5.05057,3.41809c-7.69807,-1.48394 -47.83517,-9.22107 -55.54103,-10.7065c-2.33513,-0.45014 -3.86047,-2.71395 -3.41032,-5.04907c1.48394,-7.69807 5.12102,-26.56577 6.60646,-34.27163z"/><path d=""/><path d="M193.00886,132.54234c3.30688,0.63745 31.17465,6.00946 31.17465,6.00946l1.99775,3.24739l3.29171,-2.22774c0,0 6.54015,1.26072 10.23911,1.97376c-0.01825,0.07637 -0.0349,0.15349 -0.04991,0.23135c-0.50264,2.60746 1.01017,5.13623 3.4497,5.97769c-0.6319,0.6927 -1.08687,1.56273 -1.27735,2.55085c-0.51349,2.66368 1.07634,5.24525 3.6088,6.02975c-0.47656,2.70141 1.20074,5.29973 3.81865,6.00232c-1.46485,7.59906 -3.04141,15.77758 -3.89894,20.22611c-0.45013,2.33512 -2.7077,3.8697 -5.05057,3.41808c-7.69808,-1.48394 -47.83518,-9.22107 -55.54104,-10.7065c-2.33515,-0.45014 -3.86047,-2.71395 -3.41032,-5.04907c1.48394,-7.69808 5.12102,-26.56577 6.60645,-34.27163c0.45013,-2.33511 2.70616,-3.86195 5.04129,-3.41181z"/><path d=""/><path d="M193.00885,132.54235c4.16927,0.8037 30.7147,5.92078 30.7147,5.92078l2.45772,3.33605l3.52168,-2.18341c0,0 7.66725,1.47799 10.00913,1.92943c-0.01825,0.07637 -0.0349,0.15349 -0.04991,0.23135c-0.50264,2.60746 1.01017,5.13623 3.4497,5.97769c-0.6319,0.6927 -1.08687,1.56273 -1.27735,2.55085c-0.51349,2.66368 1.07634,5.24525 3.6088,6.02975c-0.47656,2.70141 1.20074,5.29973 3.81865,6.00232c-1.46485,7.59906 -3.04141,15.77758 -3.89894,20.22611c-0.45013,2.33512 -2.7077,3.8697 -5.05057,3.41808c-7.69808,-1.48394 -47.83518,-9.22107 -55.54104,-10.7065c-2.33515,-0.45014 -3.86047,-2.71395 -3.41032,-5.04907c1.48394,-7.69808 5.12102,-26.56577 6.60645,-34.27163c0.45013,-2.33511 2.70616,-3.86195 5.04129,-3.41181z"/><path d=""/></g><g stroke-linecap="round"><g><path d="M211.86616,162.3875l1.5548,-8.06564"/><path d="M211.92722,154.63142l-0.76999,3.99442"/></g><g data-paper-data="{&quot;index&quot;:null}"><path d="M198.91176,160.15589l1.5548,-8.06564"/><path d="M201.73818,152.93289l-0.76999,3.99443"/></g></g></g><path d="M220.29149,152.75807l-7.16502,-1.75629l-7.49119,2.10473l-12.66814,1.37437l1.86195,-9.65905l28.05721,5.40852l-1.3743,7.1293z" stroke-linecap="butt"/></g><g data-paper-data="{&quot;index&quot;:null}"><g data-paper-data="{&quot;index&quot;:null}" fill="#d6c3c8" stroke-width="0"><g stroke="none" stroke-linecap="butt"><path d="M244.16564,142.77086c2.05867,0.39685 3.4047,2.38576 3.00787,4.44439c-1.30958,6.7935 -4.51601,23.42728 -5.82426,30.2139c-0.39684,2.05865 -2.38709,3.41155 -4.44572,3.01472c-6.79348,-1.30956 -42.17839,-8.13061 -48.965,-9.43886c-2.0655,-0.39817 -3.41023,-2.39397 -3.0134,-4.4526c0.75601,-3.92184 2.14589,-11.13201 3.43731,-17.83136c2.3728,0.2829 4.59706,-1.29397 5.09231,-3.66105c2.32971,0.18786 4.47689,-1.40398 4.92956,-3.75227c0.16793,-0.87111 0.08069,-1.73227 -0.20949,-2.50629c2.27234,0.11079 4.33917,-1.46307 4.78229,-3.7618c0.01322,-0.06864 0.02487,-0.1372 0.03496,-0.20568c12.90869,2.48838 35.84294,6.90934 41.17359,7.93692z"/><path d=""/><path d="M244.16566,142.77086c2.05865,0.39685 3.40469,2.38577 3.00786,4.4444c-1.30958,6.7935 -4.51601,23.42727 -5.82426,30.2139c-0.39682,2.05863 -2.38708,3.41154 -4.44572,3.01471c-6.79348,-1.30956 -42.17837,-8.13061 -48.965,-9.43886c-2.0655,-0.39817 -3.41023,-2.39397 -3.0134,-4.4526c0.75601,-3.92184 2.14589,-11.13201 3.43731,-17.83136c2.3728,0.2829 4.59706,-1.29397 5.09231,-3.66105c2.32971,0.18786 4.47689,-1.40398 4.92956,-3.75227c0.16793,-0.87111 0.08069,-1.73227 -0.20949,-2.50629c2.27234,0.11079 4.33917,-1.46307 4.78229,-3.7618c0.01322,-0.06865 0.02487,-0.13721 0.03496,-0.2057c12.9087,2.48838 35.84298,6.90936 41.1736,7.93692z"/><path d=""/><path d="M244.16566,142.77086c2.05865,0.39685 3.40469,2.38577 3.00786,4.4444c-1.30958,6.7935 -4.51601,23.42727 -5.82426,30.2139c-0.39682,2.05863 -2.38708,3.41154 -4.44572,3.01471c-6.79348,-1.30956 -42.17837,-8.13061 -48.965,-9.43886c-2.0655,-0.39817 -3.41023,-2.39397 -3.0134,-4.4526c0.75601,-3.92184 2.14589,-11.13201 3.43731,-17.83136c2.3728,0.2829 4.59706,-1.29397 5.09231,-3.66105c2.32971,0.18786 4.47689,-1.40398 4.92956,-3.75227c0.16793,-0.87111 0.08069,-1.73227 -0.20949,-2.50629c2.27234,0.11079 4.33917,-1.46307 4.78229,-3.7618c0.01322,-0.06865 0.02487,-0.13721 0.03496,-0.2057c12.9087,2.48838 35.84298,6.90936 41.1736,7.93692z"/><path d=""/></g><g stroke-linecap="round"><g><path d="M220.3224,153.90655l-1.37071,7.11068" stroke="url(#color-1)"/><path d="M221.44348,154.64946l-0.67884,3.52148" stroke="url(#color-2)"/></g><g data-paper-data="{&quot;index&quot;:null}"><path d="M230.28527,163.43614l1.37071,-7.11068" stroke="url(#color-3)"/><path d="M229.66029,160.11987l0.67884,-3.52148" stroke="url(#color-4)"/></g></g></g><g><g stroke="none" stroke-width="1" stroke-linecap="butt"><path d="M185.46755,133.45413c0.45014,-2.3351 2.70617,-3.86193 5.0413,-3.41179c3.51022,0.67665 31.17463,6.00945 31.17463,6.00945l1.90079,2.51312l2.92874,-1.58214c0,0 7.42998,1.43227 10.69907,2.06244c-0.01825,0.07635 -0.0349,0.15348 -0.04991,0.23133c-0.50264,2.60746 1.01016,5.13624 3.4497,5.97769c-0.6319,0.6927 -1.08687,1.56273 -1.27735,2.55085c-0.51348,2.66368 1.07634,5.24525 3.60879,6.02975c-0.47656,2.70141 1.20074,5.29973 3.81865,6.00232c-1.46485,7.59906 -3.04141,15.77757 -3.89894,20.22611c-0.45013,2.33512 -2.7077,3.86971 -5.05057,3.41809c-7.69807,-1.48394 -47.83517,-9.22107 -55.54103,-10.7065c-2.33513,-0.45014 -3.86047,-2.71394 -3.41032,-5.04906c1.48394,-7.69807 5.12101,-26.56577 6.60645,-34.27163z" fill="#ffffff"/><path d="" fill="#ffffff"/><path d="M190.50886,130.04234c3.30689,0.63745 31.17464,6.00946 31.17464,6.00946l1.99775,3.24738l3.29171,-2.22775c0,0 6.54015,1.26072 10.23911,1.97377c-0.01825,0.07636 -0.0349,0.15349 -0.04991,0.23134c-0.50264,2.60746 1.01016,5.13624 3.4497,5.97769c-0.6319,0.6927 -1.08687,1.56273 -1.27735,2.55085c-0.51348,2.66368 1.07634,5.24525 3.60879,6.02975c-0.47656,2.70141 1.20074,5.29973 3.81865,6.00232c-1.46485,7.59906 -3.04141,15.77757 -3.89894,20.22611c-0.45013,2.33512 -2.7077,3.86971 -5.05057,3.41809c-7.69809,-1.48394 -47.83518,-9.22107 -55.54104,-10.7065c-2.33514,-0.45014 -3.86047,-2.71394 -3.41032,-5.04906c1.48394,-7.69809 5.12101,-26.56577 6.60645,-34.27163c0.45013,-2.33511 2.70616,-3.86195 5.04129,-3.41181z" fill="url(#color-5)"/><path d="" fill="url(#color-6)"/><path d="M190.50885,130.04235c4.16927,0.8037 30.7147,5.92079 30.7147,5.92079l2.45772,3.33604l3.52168,-2.18341c0,0 7.66725,1.47799 10.00913,1.92943c-0.01825,0.07636 -0.0349,0.15349 -0.04991,0.23134c-0.50264,2.60746 1.01016,5.13624 3.4497,5.97769c-0.6319,0.6927 -1.08687,1.56273 -1.27735,2.55085c-0.51348,2.66368 1.07634,5.24525 3.60879,6.02975c-0.47656,2.70141 1.20074,5.29973 3.81865,6.00232c-1.46485,7.59906 -3.04141,15.77757 -3.89894,20.22611c-0.45013,2.33512 -2.7077,3.86971 -5.05057,3.41809c-7.69809,-1.48394 -47.83518,-9.22107 -55.54104,-10.7065c-2.33514,-0.45014 -3.86047,-2.71394 -3.41032,-5.04906c1.48394,-7.69809 5.12101,-26.56577 6.60645,-34.27163c0.45013,-2.33511 2.70616,-3.86195 5.04129,-3.41181z" fill="url(#color-7)"/><path d="" fill="url(#color-8)"/></g><g fill="none" stroke-linecap="round"><g><path d="M209.36616,159.88749l1.5548,-8.06564" stroke="url(#color-9)" stroke-width="5"/><path d="M209.42722,152.13142l-0.76999,3.99442" stroke="url(#color-10)" stroke-width="2.5"/></g><g data-paper-data="{&quot;index&quot;:null}"><path d="M196.41175,157.6559l1.5548,-8.06564" stroke="#adadad" stroke-width="5"/><path d="M199.23818,150.43288l-0.76999,3.99442" stroke="#c5c5c5" stroke-width="2.5"/></g></g></g><path d="M217.79149,150.25807l-7.16502,-1.75629l-7.49118,2.10473l-12.66814,1.37436l1.86195,-9.65904l28.05721,5.40852l-1.3743,7.12929z" fill="#ffffff" stroke="none" stroke-width="0" stroke-linecap="butt"/></g><path d="M89.1251,195.9674h-21.5034l-5.14959,-2.21547l16.99637,-19.9848h-11.84678v-5.54177l20.37831,-4.5l1.1251,4.5l-11.8136,22.20027h11.8136zM111.62766,185.41481c0,1.5486 -0.27653,2.99765 -0.82961,4.34714c-0.55307,1.32737 -1.30525,2.47776 -2.25653,3.45117c-0.95128,0.97341 -2.06849,1.7477 -3.35161,2.3229c-1.28312,0.55307 -2.66581,0.82961 -4.14803,0.82961c-1.46011,0 -2.83173,-0.27654 -4.11485,-0.82961c-1.28312,-0.5752 -2.41138,-1.34949 -3.38479,-2.3229c-0.95128,-0.97341 -1.70346,-2.1238 -2.25653,-3.45117c-0.55307,-1.34949 -0.82961,-2.79854 -0.82961,-4.34714c0,-1.57073 0.27653,-3.01977 0.82961,-4.34714c0.55307,-1.34949 1.30525,-2.51094 2.25653,-3.48435c0.97341,-0.97341 2.10168,-1.73664 3.38479,-2.28971c1.28312,-0.55307 2.65474,-0.82961 4.11485,-0.82961c1.48222,0 2.86491,0.26548 4.14803,0.79642c1.28312,0.50883 2.40033,1.24993 3.35161,2.22334c0.95128,0.95128 1.70346,2.10168 2.25653,3.45117c0.55307,1.34949 0.82961,2.84278 0.82961,4.47987zM106.31818,185.41481c0,-0.84067 -0.14381,-1.60391 -0.4314,-2.28972c-0.26547,-0.70793 -0.64156,-1.30525 -1.12826,-1.79195c-0.46458,-0.4867 -1.01765,-0.86279 -1.65921,-1.12826c-0.64156,-0.26548 -1.32737,-0.39821 -2.05742,-0.39821c-0.73005,0 -1.41586,0.13273 -2.05743,0.39821c-0.61943,0.26548 -1.17251,0.64156 -1.65921,1.12826c-0.46458,0.4867 -0.82961,1.08402 -1.09508,1.79195c-0.26547,0.6858 -0.39821,1.44905 -0.39821,2.28972c0,0.79642 0.13273,1.53754 0.39821,2.22334c0.26547,0.6858 0.6305,1.28312 1.09508,1.79195c0.4867,0.50883 1.03978,0.90703 1.65921,1.19463c0.64156,0.2876 1.32737,0.4314 2.05743,0.4314c0.73005,0 1.41586,-0.13274 2.05742,-0.39821c0.64156,-0.2876 1.19463,-0.67475 1.65921,-1.16145c0.4867,-0.4867 0.86279,-1.07297 1.12826,-1.75877c0.28759,-0.70793 0.4314,-1.48222 0.4314,-2.32289zM140.91102,195.9674h-5.2763v-13.14097c0,-0.37609 -0.06637,-0.71899 -0.1991,-1.02871c-0.13273,-0.33184 -0.32077,-0.61943 -0.56413,-0.86279c-0.24336,-0.24336 -0.53095,-0.4314 -0.86279,-0.56414c-0.30972,-0.13273 -0.65263,-0.1991 -1.02871,-0.1991c-0.35396,0 -0.69687,0.06637 -1.02871,0.1991c-0.30972,0.13273 -0.58625,0.32078 -0.82961,0.56414c-0.22123,0.24336 -0.39821,0.53095 -0.53095,0.86279c-0.13273,0.30972 -0.1991,0.65262 -0.1991,1.02871v13.14097h-5.30949v-13.14097c0,-0.37609 -0.06637,-0.71899 -0.19911,-1.02871c-0.13273,-0.33184 -0.32078,-0.61943 -0.56413,-0.86279c-0.24335,-0.24336 -0.53095,-0.4314 -0.86279,-0.56414c-0.30973,-0.13273 -0.64156,-0.1991 -0.99553,-0.1991c-0.37609,0 -0.71899,0.06637 -1.02872,0.1991c-0.30973,0.13273 -0.58625,0.32078 -0.82961,0.56414c-0.24335,0.24336 -0.43139,0.53095 -0.56413,0.86279c-0.13273,0.30972 -0.19911,0.65262 -0.19911,1.02871v13.14097h-5.2763v-20.70698h1.261l1.42692,1.55966c0.73005,-0.61944 1.53754,-1.09508 2.42245,-1.42692c0.88491,-0.33184 1.81407,-0.49777 2.78748,-0.49777c0.95128,0 1.8915,0.17699 2.82066,0.53095c0.92916,0.35396 1.73665,0.97341 2.42245,1.85832c0.33185,-0.42033 0.69687,-0.78536 1.09508,-1.09508c0.42033,-0.30972 0.85172,-0.56413 1.29418,-0.76324c0.46458,-0.19911 0.94022,-0.33184 1.42693,-0.39821c0.50883,-0.08849 0.99552,-0.13274 1.4601,-0.13274c1.10614,0 2.13485,0.21017 3.08613,0.6305c0.97341,0.39821 1.81407,0.96234 2.52201,1.6924c0.70793,0.70793 1.27207,1.5486 1.6924,2.52201c0.42033,0.95128 0.6305,1.97999 0.6305,3.08613zM165.34818,185.41481c0,1.63709 -0.28759,3.13038 -0.86279,4.47987c-0.55307,1.32737 -1.30525,2.47775 -2.25653,3.45116c-0.95128,0.95128 -2.06849,1.6924 -3.35161,2.22335c-1.28312,0.53095 -2.65474,0.79642 -4.11485,0.79642c-1.46011,0 -2.83173,-0.26547 -4.11485,-0.79642c-1.28312,-0.55307 -2.41138,-1.3163 -3.38479,-2.28972c-0.95128,-0.97341 -1.70346,-2.1238 -2.25653,-3.45117c-0.55307,-1.32737 -0.82961,-2.79854 -0.82961,-4.4135l5,-18.91727l0.30948,0.5v9.6898c0.26548,-0.37609 0.59732,-0.69687 0.99553,-0.96234c0.42033,-0.2876 0.86279,-0.51988 1.32737,-0.69687c0.4867,-0.19911 0.97341,-0.34291 1.46011,-0.4314c0.50883,-0.08849 1.00659,-0.13274 1.49329,-0.13274c1.46011,0 2.83173,0.27654 4.11485,0.82961c1.28312,0.53095 2.40033,1.29418 3.35161,2.28971c0.95128,0.97341 1.70346,2.13486 2.25653,3.48435c0.5752,1.32737 0.86279,2.77641 0.86279,4.34714zM160.00551,185.41481c0,-0.79642 -0.1438,-1.53754 -0.43139,-2.22334c-0.26548,-0.6858 -0.64156,-1.28312 -1.12826,-1.79195c-0.46458,-0.50883 -1.01765,-0.89597 -1.65922,-1.16145c-0.64157,-0.2876 -1.3163,-0.43139 -2.02424,-0.43139c-0.73005,0 -1.41586,0.15485 -2.05742,0.46458c-0.64157,0.30972 -1.20569,0.73005 -1.6924,1.261c-0.46458,0.50883 -0.8296,1.10615 -1.09508,1.79195c-0.26548,0.6858 -0.39821,1.38268 -0.39821,2.09061c0,0.79642 0.13273,1.53754 0.39821,2.22334c0.26548,0.6858 0.6305,1.28312 1.09508,1.79195c0.4867,0.50883 1.05083,0.90703 1.6924,1.19463c0.64157,0.2876 1.32737,0.4314 2.05742,0.4314c0.70793,0 1.38267,-0.1438 2.02424,-0.4314c0.64157,-0.2876 1.19464,-0.6858 1.65922,-1.19463c0.4867,-0.50883 0.86279,-1.10615 1.12826,-1.79195c0.2876,-0.6858 0.43139,-1.42692 0.43139,-2.22334zM174.47443,169.6191c0,0.4867 -0.09955,0.95128 -0.29866,1.39374c-0.17699,0.42033 -0.4314,0.78536 -0.76324,1.09508c-0.30972,0.30972 -0.6858,0.56413 -1.12826,0.76324c-0.42033,0.17699 -0.87385,0.26548 -1.36056,0.26548c-0.4867,0 -0.95128,-0.08849 -1.39374,-0.26548c-0.42033,-0.19911 -0.79642,-0.45351 -1.12826,-0.76324c-0.30972,-0.30972 -0.56413,-0.67475 -0.76324,-1.09508c-0.17699,-0.44246 -0.26548,-0.90704 -0.26548,-1.39374c0,-0.4867 0.08849,-0.94022 0.26548,-1.36055c0.19911,-0.44246 0.45351,-0.81854 0.76324,-1.12826c0.33184,-0.30972 0.70793,-0.55307 1.12826,-0.73006c0.44246,-0.19911 0.90704,-0.29865 1.39374,-0.29865c0.4867,0 0.94022,0.09955 1.36056,0.29865c0.44246,0.17699 0.81854,0.42033 1.12826,0.73006c0.33184,0.30972 0.58625,0.6858 0.76324,1.12826c0.19911,0.42033 0.29866,0.87385 0.29866,1.36055zM173.57846,195.9674h-5.30948v-20.70698h5.30948zM185.84316,190.89021c0.19911,0.06637 0.39821,0.11062 0.59731,0.13274c0.22123,0.02212 0.4314,0.03319 0.6305,0.03319c0.53095,0 1.02871,-0.06637 1.49329,-0.19911c0.4867,-0.15485 0.94022,-0.36503 1.36056,-0.6305c0.42033,-0.26548 0.78536,-0.58625 1.09508,-0.96234c0.33184,-0.37609 0.60838,-0.79642 0.82961,-1.26101l3.84937,3.88256c-0.4867,0.6858 -1.05083,1.3163 -1.6924,1.8915c-0.64157,0.55307 -1.33843,1.02872 -2.09061,1.42693c-0.73005,0.37609 -1.50436,0.66368 -2.3229,0.86279c-0.81854,0.19911 -1.65922,0.29866 -2.52201,0.29866c-1.46011,0 -2.83173,-0.26547 -4.11485,-0.79642c-1.28312,-0.55307 -2.40034,-1.3163 -3.35162,-2.28972c-0.95128,-0.97341 -1.71451,-2.1238 -2.28971,-3.45117c-0.55307,-1.32737 -0.82961,-2.79854 -0.82961,-4.4135c0,-1.63709 0.27654,-3.13038 0.82961,-4.47987c0.5752,-1.34949 1.33843,-2.49989 2.28971,-3.45117c0.95128,-0.95128 2.0685,-1.6924 3.35162,-2.22334c1.28312,-0.53095 5.61485,-3.29642 5.61485,-3.29642c0,0 6.67439,6.30513 7.16109,7.01306zM188.56427,180.00577c-0.24336,-0.08849 -0.4867,-0.14381 -0.73005,-0.16593c-0.24336,-0.02212 -0.49776,-0.03318 -0.76324,-0.03318c-0.70793,0 -1.38267,0.13273 -2.02424,0.39821c-0.64157,0.26548 -1.20569,0.64156 -1.6924,1.12826c-0.46458,0.4867 -0.8296,1.07296 -1.09508,1.75877c-0.26548,0.6858 -0.39822,1.46011 -0.39822,2.3229c0,0.19911 0.01107,0.42033 0.03319,0.66368c0.02212,0.24336 0.05531,0.49776 0.09956,0.76324c0.04425,0.24336 0.09955,0.4867 0.16592,0.73005c0.06637,0.22123 0.1438,0.42033 0.23229,0.59732zM226.38759,184.88386v-5.54177c0,-0.7743 -0.15486,-1.4933 -0.46458,-2.15698c-0.2876,-0.6858 -0.6858,-1.27206 -1.19463,-1.75876c-0.4867,-0.50883 -1.07296,-0.90704 -1.75877,-1.19464c-0.66368,-0.30972 -1.38267,-0.46458 -2.15697,-0.46458c-0.75217,0 -1.47118,0.15486 -2.15698,0.46458c-0.66368,0.2876 -1.24994,0.68581 -1.75877,1.19464c-0.50883,0.4867 -0.90704,1.07296 -1.19464,1.75876c-0.2876,0.66368 -0.43139,1.38268 -0.43139,2.15698v5.54177zM231.92936,195.9674h-5.54177l-5,-5.54178h-6.11673v5.54178h-5.54177l-4,-2.4674l4,-14.15792c0,-1.5486 0.28759,-2.99765 0.86279,-4.34714c0.59732,-1.34949 1.39374,-2.522 2.38927,-3.51753c0.99553,-1.01764 2.16804,-1.81408 3.51753,-2.38927c1.34949,-0.5752 2.78748,-0.86279 4.31396,-0.86279c1.5486,0 2.99764,0.28759 4.34713,0.86279c1.34949,0.5752 2.52201,1.37163 3.51754,2.38927c0.99553,0.99553 1.78088,2.16804 2.35608,3.51753c0.59732,1.34949 0.89597,2.79854 0.89597,4.34714zM241.5047,203.86526h-5.30949l-4.5,-2.86525l4.5,-25.73958h1.26101l2.12379,2.48882c0.46458,-0.46458 0.98447,-0.89598 1.55966,-1.29419c0.5752,-0.39821 1.16145,-0.74111 1.75877,-1.02871c0.61944,-0.2876 1.24993,-0.50883 1.8915,-0.66369c0.66368,-0.17699 1.33844,-0.26548 2.02424,-0.26548c1.46011,0 2.83173,0.26548 4.11485,0.79643c1.28312,0.50883 2.40033,1.23888 3.35161,2.19016c0.95128,0.95128 1.70346,2.10168 2.25653,3.45117c0.5752,1.34949 0.86279,2.84278 0.86279,4.47987c0,1.70346 -0.28759,3.24099 -0.86279,4.61261c-0.55307,1.34949 -1.30525,2.49989 -2.25653,3.45117c-0.95128,0.95128 -2.06849,1.68133 -3.35161,2.19016c-1.28312,0.4867 -2.65474,0.73005 -4.11485,0.73005c-0.46458,0 -0.92916,-0.0553 -1.39374,-0.16592c-0.46458,-0.08849 -0.91809,-0.22123 -1.36056,-0.39821c-0.44246,-0.17699 -0.88491,-0.36503 -1.32737,-0.56413c-0.42033,-0.22123 -0.8296,-0.45352 -1.22781,-0.69687zM252.09048,185.41481c0,-0.86279 -0.1438,-1.6371 -0.4314,-2.3229c-0.26548,-0.70793 -0.64156,-1.30525 -1.12826,-1.79195c-0.46458,-0.4867 -1.02872,-0.85173 -1.6924,-1.09508c-0.64157,-0.26548 -1.31631,-0.39821 -2.02424,-0.39821c-0.73005,0 -1.41586,0.13273 -2.05742,0.39821c-0.64157,0.24336 -1.20569,0.60838 -1.6924,1.09508c-0.46458,0.4867 -0.84067,1.08401 -1.12826,1.79195c-0.26548,0.6858 -0.39821,1.46011 -0.39821,2.3229c0,0.84067 0.13273,1.61496 0.39821,2.32289c0.2876,0.6858 0.66368,1.27207 1.12826,1.75877c0.4867,0.4867 1.05083,0.87385 1.6924,1.16145c0.64157,0.26548 1.32737,0.39821 2.05742,0.39821c0.70793,0 1.38268,-0.13274 2.02424,-0.39821c0.66368,-0.2876 1.22782,-0.67475 1.6924,-1.16145c0.4867,-0.4867 0.86279,-1.07297 1.12826,-1.75877c0.2876,-0.70793 0.4314,-1.48222 0.4314,-2.32289zM280.33062,185.41481c0,1.5486 -0.27654,2.99765 -0.82961,4.34714c-0.55307,1.32737 -1.30525,2.47776 -2.25653,3.45117c-0.95128,0.97341 -2.06849,1.7477 -3.35161,2.3229c-1.28312,0.55307 -2.66581,0.82961 -4.14803,0.82961c-1.46011,0 -2.83173,-0.27654 -4.11485,-0.82961c-1.28312,-0.5752 -2.41138,-1.34949 -3.38479,-2.3229c-0.95128,-0.97341 -1.70346,-2.1238 -2.25653,-3.45117c-0.55307,-1.34949 -0.82961,-2.79854 -0.82961,-4.34714c0,-1.57073 0.27654,-3.01977 0.82961,-4.34714c0.55307,-1.34949 1.30525,-2.51094 2.25653,-3.48435c0.97341,-0.97341 2.10168,-1.73664 3.38479,-2.28971c1.28312,-0.55307 2.65474,-0.82961 4.11485,-0.82961c1.48223,0 2.86491,0.26548 4.14803,0.79642c1.28312,0.50883 2.40033,1.24993 3.35161,2.22334c0.95128,0.95128 1.70346,2.10168 2.25653,3.45117c0.55307,1.34949 0.82961,2.84278 0.82961,4.47987zM275.02114,185.41481c0,-0.84067 -0.1438,-1.60391 -0.4314,-2.28972c-0.26547,-0.70793 -0.64157,-1.30525 -1.12826,-1.79195c-0.46458,-0.4867 -1.01765,-0.86279 -1.65922,-1.12826c-0.64157,-0.26548 -1.32737,-0.39821 -2.05742,-0.39821c-0.73005,0 -1.41586,0.13273 -2.05743,0.39821c-0.61944,0.26548 -1.17251,0.64156 -1.65921,1.12826c-0.46458,0.4867 -0.82961,1.08402 -1.09509,1.79195c-0.26547,0.6858 -0.39821,1.44905 -0.39821,2.28972c0,0.79642 0.13274,1.53754 0.39821,2.22334c0.26547,0.6858 0.63051,1.28312 1.09509,1.79195c0.4867,0.50883 1.03977,0.90703 1.65921,1.19463c0.64157,0.2876 1.32737,0.4314 2.05743,0.4314c0.73005,0 1.41586,-0.13274 2.05742,-0.39821c0.64157,-0.2876 1.19464,-0.67475 1.65922,-1.16145c0.4867,-0.4867 0.86279,-1.07297 1.12826,-1.75877c0.2876,-0.70793 0.4314,-1.48222 0.4314,-2.32289zM301.35109,179.37527l-3.84938,3.88255c-0.1991,-0.55307 -0.46458,-1.03977 -0.79642,-1.4601c-0.33184,-0.44246 -0.70794,-0.80748 -1.12826,-1.09508c-0.42033,-0.2876 -0.88491,-0.50883 -1.39374,-0.66369c-0.4867,-0.15485 -0.98446,-0.23229 -1.49329,-0.23229c-0.73005,0 -1.41586,0.1438 -2.05743,0.43139c-0.61944,0.2876 -1.17251,0.70793 -1.65921,1.261c-0.46458,0.53095 -0.82961,1.16145 -1.09508,1.89151c-0.26547,0.73005 -0.39821,1.5486 -0.39821,2.45564c0,0.70793 0.13274,1.38267 0.39821,2.02424c0.26547,0.61944 0.6305,1.17251 1.09508,1.65921c0.4867,0.46458 1.03977,0.84067 1.65921,1.12826c0.64157,0.26548 1.32737,0.39821 2.05743,0.39821c0.50883,0 1.00659,-0.06637 1.49329,-0.19911c0.4867,-0.15485 0.92916,-0.36503 1.32737,-0.6305c0.42033,-0.26548 0.79642,-0.58625 1.12826,-0.96234c0.33184,-0.37609 0.60838,-0.79642 0.82961,-1.26101l3.84938,3.88256c-0.4867,0.6858 -1.05084,1.3163 -1.6924,1.8915c-0.64157,0.55307 -1.33843,1.02872 -2.0906,1.42693c-0.73005,0.37609 -1.50436,0.66368 -2.3229,0.86279c-0.81854,0.19911 -1.65921,0.29866 -2.522,0.29866c-1.46011,0 -2.83173,-0.27654 -4.11485,-0.82961c-1.28312,-0.55307 -2.41138,-1.30525 -3.38479,-2.25653c-0.95128,-0.95128 -1.70346,-2.06849 -2.25653,-3.35161c-0.55307,-1.28312 -0.82961,-2.64367 -0.82961,-4.08166c0,-1.59285 0.27654,-3.07507 0.82961,-4.44669c0.55307,-1.39374 1.30525,-2.59944 2.25653,-3.61709c0.97341,-1.03977 2.10168,-1.84726 3.38479,-2.42245c1.28312,-0.59732 2.65474,-0.89597 4.11485,-0.89597c0.86279,0 1.70346,0.11062 2.522,0.33184c0.84067,0.22123 1.63709,0.54201 2.38927,0.96234c0.77431,0.39821 1.47117,0.90704 2.09061,1.52648c0.64157,0.59732 1.19464,1.29419 1.65922,2.09061zM323.68086,195.9674h-1.26101l-2.05742,-2.85385c-0.50883,0.46458 -1.05083,0.89598 -1.62603,1.29419c-0.55307,0.37609 -1.13933,0.71899 -1.75877,1.02871c-0.59731,0.2876 -1.22782,0.50883 -1.8915,0.66368c-0.64157,0.17699 -1.30525,0.26548 -1.99106,0.26548c-1.46011,0 -2.83173,-0.24335 -4.11485,-0.73005c-1.28312,-0.50883 -2.40033,-1.22782 -3.35161,-2.15698c-0.95128,-0.92916 -1.71452,-2.06849 -2.28972,-3.41798c-0.55307,-1.37162 -0.82961,-2.92021 -0.82961,-4.64579c0,-1.61497 0.27654,-3.08614 0.82961,-4.41351c0.5752,-1.34949 1.33844,-2.51093 2.28972,-3.48434c0.95128,-0.97341 2.06849,-1.72558 3.35161,-2.25653c1.28312,-0.53095 2.65474,-0.79642 4.11485,-0.79642c0.68581,0 1.34949,0.08849 1.99106,0.26547c0.66368,0.15485 1.30525,0.38715 1.92469,0.69687c0.61944,0.2876 1.20569,0.6305 1.75876,1.02871c0.5752,0.39821 1.10615,0.82961 1.59285,1.29419l2.05742,-2.45563h1.26101zM318.37138,185.41481c0,-0.70793 -0.1438,-1.40481 -0.4314,-2.09061c-0.26547,-0.6858 -0.64157,-1.28312 -1.12826,-1.79195c-0.46458,-0.53095 -1.01764,-0.95128 -1.65921,-1.261c-0.64157,-0.30972 -1.32737,-0.46458 -2.05743,-0.46458c-0.70794,0 -1.38268,0.12167 -2.02424,0.36503c-0.64157,0.24336 -1.2057,0.60838 -1.6924,1.09508c-0.46458,0.46458 -0.82961,1.05083 -1.09508,1.75876c-0.26547,0.6858 -0.39821,1.48223 -0.39821,2.38927c0,0.90704 0.13274,1.71452 0.39821,2.42245c0.26547,0.70793 0.6305,1.30525 1.09508,1.79195c0.4867,0.46458 1.05083,0.81854 1.6924,1.06189c0.64157,0.24336 1.3163,0.36503 2.02424,0.36503c0.73005,0 1.41586,-0.15485 2.05743,-0.46458c0.64157,-0.33184 1.19463,-0.75218 1.65921,-1.26101c0.4867,-0.53095 0.86279,-1.12827 1.12826,-1.79195c0.2876,-0.6858 0.4314,-1.39373 0.4314,-2.12379zM333.0337,195.9674h-5.30948v-28.96986h5.30948zM342.04627,203.86526l-2.5,-1.30948l5.4534,-3.96681c0.50883,0 0.99553,-0.08849 1.46011,-0.26548c0.4867,-0.15485 0.92916,-0.38715 1.32737,-0.69687c0.42033,-0.2876 0.78535,-0.64156 1.09508,-1.06189c0.30973,-0.39821 0.56413,-0.84067 0.76324,-1.32737c-0.59731,0.26548 -1.19464,0.51988 -1.79195,0.76324c-0.59731,0.24336 -1.19464,0.36503 -1.79195,0.36503c-1.28312,0 -2.48882,-0.22123 -3.61708,-0.66369c-1.10615,-0.46458 -2.0906,-1.10615 -2.9534,-1.92469c-0.84067,-0.84067 -1.50436,-1.85831 -1.99106,-3.05295c-0.4867,-1.19464 -0.73005,-2.53307 -0.73005,-4.0153v-11.44857h5.2763v11.44857c0,0.73005 0.09956,1.37162 0.29866,1.92469c0.22123,0.55307 0.50883,1.01765 0.86279,1.39374c0.37609,0.35396 0.80749,0.61944 1.29419,0.79642c0.4867,0.17699 1.00659,0.26547 1.55966,0.26547c0.53095,0 1.03978,-0.12167 1.52648,-0.36503c0.4867,-0.26548 0.90704,-0.59732 1.261,-0.99553c0.37609,-0.42033 0.66369,-0.88491 0.86279,-1.39374c0.1991,-0.53095 0.29866,-1.07296 0.29866,-1.62603v-11.44857h5.34267v18.08542c-0.02212,1.46011 -0.30972,2.83173 -0.86279,4.11485c-0.55307,1.28312 -1.3163,2.40033 -2.28972,3.35161c-0.95128,0.95128 -2.06849,1.70346 -3.35161,2.25653c-1.261,0.55307 -2.62156,0.82961 -4.08166,0.82961zM364.68488,203.86526h-5.30948l-5,-4.86525l5,-23.73958h1.26101l2.12379,2.48882c0.46458,-0.46458 0.98447,-0.89598 1.55966,-1.29419c0.5752,-0.39821 1.16145,-0.74111 1.75877,-1.02871c0.61944,-0.2876 1.24994,-0.50883 1.8915,-0.66369c0.66368,-0.17699 1.33843,-0.26548 2.02424,-0.26548c1.46011,0 2.83173,0.26548 4.11485,0.79643c1.28312,0.50883 2.40033,1.23888 3.35161,2.19016c0.95128,0.95128 1.70346,2.10168 2.25653,3.45117c0.5752,1.34949 0.86279,2.84278 0.86279,4.47987c0,1.70346 -0.28759,3.24099 -0.86279,4.61261c-0.55307,1.34949 -1.30525,2.49989 -2.25653,3.45117c-0.95128,0.95128 -2.06849,1.68133 -3.35161,2.19016c-1.28312,0.4867 -2.65474,0.73005 -4.11485,0.73005c-0.46458,0 -0.92916,-0.0553 -1.39374,-0.16592c-0.46458,-0.08849 -0.91809,-0.22123 -1.36055,-0.39821c-0.44246,-0.17699 -0.88491,-0.36503 -1.32737,-0.56413c-0.42033,-0.22123 -0.82961,-0.45352 -1.22782,-0.69687zM375.27065,185.41481c0,-0.86279 -0.1438,-1.6371 -0.4314,-2.3229c-0.26547,-0.70793 -0.64157,-1.30525 -1.12826,-1.79195c-0.46458,-0.4867 -1.02871,-0.85173 -1.69239,-1.09508c-0.64157,-0.26548 -1.3163,-0.39821 -2.02424,-0.39821c-0.73005,0 -1.41586,0.13273 -2.05742,0.39821c-0.64157,0.24336 -1.2057,0.60838 -1.6924,1.09508c-0.46458,0.4867 -0.84067,1.08401 -1.12826,1.79195c-0.26547,0.6858 -0.39821,1.46011 -0.39821,2.3229c0,0.84067 0.13274,1.61496 0.39821,2.32289c0.2876,0.6858 0.66368,1.27207 1.12826,1.75877c0.4867,0.4867 1.05083,0.87385 1.6924,1.16145c0.64157,0.26548 1.32737,0.39821 2.05742,0.39821c0.70794,0 1.38268,-0.13274 2.02424,-0.39821c0.66368,-0.2876 1.22781,-0.67475 1.69239,-1.16145c0.4867,-0.4867 0.86279,-1.07297 1.12826,-1.75877c0.2876,-0.70793 0.4314,-1.48222 0.4314,-2.32289zM394.8497,195.9674h-12.04588l-2.5,-3.7763l14.54588,-1.5c0.37609,0 0.68581,-0.12167 0.92916,-0.36503c0.26547,-0.26548 0.39821,-0.5752 0.39821,-0.92916c0,-0.37609 -0.13274,-0.61943 -0.39821,-0.73005c-0.24336,-0.13273 -0.55307,-0.19911 -0.92916,-0.19911h-5.4754c-0.92916,0 -1.79196,-0.16592 -2.58838,-0.49777c-0.79642,-0.35396 -1.49329,-0.8296 -2.09061,-1.42692c-0.5752,-0.59732 -1.03978,-1.29419 -1.39373,-2.09061c-0.33184,-0.81854 -0.49777,-1.68134 -0.49777,-2.58838c0,-0.90704 0.16592,-1.75876 0.49777,-2.55518c0.35396,-0.81854 0.81854,-1.51541 1.39373,-2.09061c0.59731,-0.59732 1.29419,-1.0619 2.09061,-1.39374c0.79642,-0.35396 1.65922,-0.53094 2.58838,-0.53094h10.68533v5.24311h-10.68533c-0.35396,0 -0.66369,0.13274 -0.92916,0.39822c-0.26547,0.26548 -0.39821,0.57519 -0.39821,0.92915c0,0.37609 0.13274,0.69687 0.39821,0.96234c0.26547,0.26548 0.5752,0.39821 0.92916,0.39821h5.4754c0.90704,0 1.75877,0.15486 2.55519,0.46458c0.81854,0.2876 1.51542,0.70793 2.09061,1.261c0.59731,0.53095 1.07296,1.18357 1.42692,1.95787c0.35396,0.75217 0.53095,1.58178 0.53095,2.48882c0,0.90704 -0.17699,1.75877 -0.53095,2.55519c-0.35396,0.79642 -0.82961,1.49329 -1.42692,2.09061c-0.5752,0.59732 -1.27207,1.07297 -2.09061,1.42693c-0.79642,0.33184 -1.64815,0.49776 -2.55519,0.49776zM412.4894,190.89021c0.1991,0.06637 0.39821,0.11062 0.59732,0.13274c0.22123,0.02212 0.4314,0.03319 0.6305,0.03319c0.53095,0 1.02871,-0.06637 1.49329,-0.19911c0.4867,-0.15485 0.94022,-0.36503 1.36055,-0.6305c0.42033,-0.26548 0.78535,-0.58625 1.09508,-0.96234c0.33184,-0.37609 0.60838,-0.79642 0.82961,-1.26101l3.84938,3.88256c-0.4867,0.6858 -1.05083,1.3163 -1.69239,1.8915c-0.64157,0.55307 -1.33844,1.02872 -2.09061,1.42693c-0.73005,0.37609 -1.50436,0.66368 -2.3229,0.86279c-0.81854,0.19911 -1.65921,0.29866 -2.522,0.29866c-1.46011,0 -2.83173,-0.26547 -4.11485,-0.79642c-1.28312,-0.55307 -2.40033,-1.3163 -3.35161,-2.28972c-0.95128,-0.97341 -1.71452,-2.1238 -2.28972,-3.45117c-0.55307,-1.32737 -0.82961,-2.79854 -0.82961,-4.4135c0,-1.63709 0.27654,-3.13038 0.82961,-4.47987c0.5752,-1.34949 1.33844,-2.49989 2.28972,-3.45117c0.95128,-0.95128 2.06849,-1.6924 3.35161,-2.22334c1.28312,-0.53095 6.63685,-1.99777 6.63685,-1.99777c0,0 5.65239,5.00647 6.13909,5.7144zM415.21051,180.00577c-0.24336,-0.08849 -0.4867,-0.14381 -0.73005,-0.16593c-0.24336,-0.02212 -0.49777,-0.03318 -0.76324,-0.03318c-0.70794,0 -1.38268,0.13273 -2.02424,0.39821c-0.64157,0.26548 -1.20569,0.64156 -1.69239,1.12826c-0.46458,0.4867 -0.82961,1.07296 -1.09508,1.75877c-0.26547,0.6858 -0.39821,1.46011 -0.39821,2.3229c0,0.19911 0.01106,0.42033 0.03318,0.66368c0.02212,0.24336 0.0553,0.49776 0.09955,0.76324c0.04425,0.24336 0.09955,0.4867 0.16592,0.73005c0.06637,0.22123 0.1438,0.42033 0.23229,0.59732z" fill="#000000" stroke="#000000" stroke-width="7" stroke-linecap="square"/><path d="M84.12509,190.9674h-21.5034l11.84678,-22.20027h-11.84678v-5.54177h21.5034l-11.8136,22.20027h11.8136zM106.62765,180.4148c0,1.5486 -0.27654,2.99765 -0.82961,4.34714c-0.55307,1.32737 -1.30525,2.47775 -2.25653,3.45116c-0.95128,0.97341 -2.06849,1.7477 -3.35161,2.3229c-1.28312,0.55307 -2.66581,0.82961 -4.14803,0.82961c-1.46011,0 -2.83173,-0.27654 -4.11485,-0.82961c-1.28312,-0.5752 -2.41139,-1.34949 -3.38479,-2.3229c-0.95128,-0.97341 -1.70346,-2.12379 -2.25653,-3.45116c-0.55307,-1.34949 -0.82961,-2.79854 -0.82961,-4.34714c0,-1.57073 0.27654,-3.01977 0.82961,-4.34714c0.55307,-1.34949 1.30525,-2.51094 2.25653,-3.48435c0.97341,-0.97341 2.10167,-1.73665 3.38479,-2.28971c1.28312,-0.55307 2.65474,-0.82961 4.11485,-0.82961c1.48223,0 2.86491,0.26547 4.14803,0.79642c1.28312,0.50883 2.40033,1.24994 3.35161,2.22335c0.95128,0.95128 1.70346,2.10167 2.25653,3.45116c0.55307,1.34949 0.82961,2.84278 0.82961,4.47988zM101.31817,180.4148c0,-0.84067 -0.1438,-1.60391 -0.4314,-2.28971c-0.26547,-0.70793 -0.64157,-1.30525 -1.12826,-1.79195c-0.46458,-0.4867 -1.01765,-0.86279 -1.65921,-1.12826c-0.64157,-0.26547 -1.32737,-0.39821 -2.05742,-0.39821c-0.73005,0 -1.41586,0.13274 -2.05742,0.39821c-0.61944,0.26547 -1.17251,0.64157 -1.65921,1.12826c-0.46458,0.4867 -0.82961,1.08402 -1.09508,1.79195c-0.26547,0.6858 -0.39821,1.44904 -0.39821,2.28971c0,0.79642 0.13274,1.53754 0.39821,2.22335c0.26547,0.6858 0.6305,1.28312 1.09508,1.79195c0.4867,0.50883 1.03978,0.90704 1.65921,1.19463c0.64157,0.28759 1.32737,0.4314 2.05742,0.4314c0.73005,0 1.41586,-0.13274 2.05742,-0.39821c0.64157,-0.28759 1.19463,-0.67475 1.65921,-1.16145c0.4867,-0.4867 0.86279,-1.07296 1.12826,-1.75877c0.28759,-0.70793 0.4314,-1.48223 0.4314,-2.3229zM135.91102,190.9674h-5.2763v-13.14097c0,-0.37609 -0.06637,-0.71899 -0.19911,-1.02871c-0.13274,-0.33184 -0.32078,-0.61944 -0.56413,-0.86279c-0.24335,-0.24335 -0.53095,-0.4314 -0.86279,-0.56413c-0.30972,-0.13274 -0.65262,-0.19911 -1.02871,-0.19911c-0.35396,0 -0.69687,0.06637 -1.02871,0.19911c-0.30972,0.13274 -0.58625,0.32078 -0.82961,0.56413c-0.22122,0.24335 -0.39821,0.53095 -0.53095,0.86279c-0.13274,0.30972 -0.19911,0.65262 -0.19911,1.02871v13.14097h-5.30948v-13.14097c0,-0.37609 -0.06637,-0.71899 -0.19911,-1.02871c-0.13274,-0.33184 -0.32078,-0.61944 -0.56413,-0.86279c-0.24335,-0.24335 -0.53095,-0.4314 -0.86279,-0.56413c-0.30972,-0.13274 -0.64157,-0.19911 -0.99553,-0.19911c-0.37609,0 -0.71899,0.06637 -1.02871,0.19911c-0.30972,0.13274 -0.58625,0.32078 -0.82961,0.56413c-0.24335,0.24335 -0.4314,0.53095 -0.56413,0.86279c-0.13274,0.30972 -0.19911,0.65262 -0.19911,1.02871v13.14097h-5.2763v-20.70698h1.261l1.42692,1.55966c0.73005,-0.61944 1.53754,-1.09508 2.42245,-1.42692c0.88491,-0.33184 1.81407,-0.49776 2.78748,-0.49776c0.95128,0 1.8915,0.17699 2.82066,0.53095c0.92916,0.35396 1.73665,0.97341 2.42245,1.85832c0.33184,-0.42033 0.69687,-0.78536 1.09508,-1.09508c0.42033,-0.30972 0.85173,-0.56413 1.29419,-0.76324c0.46458,-0.19911 0.94022,-0.33184 1.42692,-0.39821c0.50883,-0.08849 0.99553,-0.13274 1.46011,-0.13274c1.10615,0 2.13486,0.21017 3.08614,0.6305c0.97341,0.39821 1.81407,0.96234 2.522,1.6924c0.70793,0.70793 1.27207,1.5486 1.6924,2.522c0.42033,0.95128 0.6305,1.97999 0.6305,3.08614zM160.34818,180.4148c0,1.63709 -0.28759,3.13039 -0.86279,4.47988c-0.55307,1.32737 -1.30525,2.47775 -2.25653,3.45116c-0.95128,0.95128 -2.06849,1.6924 -3.35161,2.22335c-1.28312,0.53095 -2.65474,0.79642 -4.11485,0.79642c-1.46011,0 -2.83173,-0.26547 -4.11485,-0.79642c-1.28312,-0.55307 -2.41139,-1.31631 -3.38479,-2.28971c-0.95128,-0.97341 -1.70346,-2.12379 -2.25653,-3.45116c-0.55307,-1.32737 -0.82961,-2.79854 -0.82961,-4.41351v-18.41727h5.30948v9.6898c0.26547,-0.37609 0.59732,-0.69687 0.99553,-0.96234c0.42033,-0.28759 0.86279,-0.51988 1.32737,-0.69687c0.4867,-0.19911 0.97341,-0.34291 1.46011,-0.4314c0.50883,-0.08849 1.00659,-0.13274 1.49329,-0.13274c1.46011,0 2.83173,0.27654 4.11485,0.82961c1.28312,0.53095 2.40033,1.29419 3.35161,2.28971c0.95128,0.97341 1.70346,2.13486 2.25653,3.48435c0.5752,1.32737 0.86279,2.77641 0.86279,4.34714zM155.00551,180.4148c0,-0.79642 -0.1438,-1.53754 -0.4314,-2.22335c-0.26547,-0.6858 -0.64157,-1.28312 -1.12826,-1.79195c-0.46458,-0.50883 -1.01765,-0.89598 -1.65921,-1.16145c-0.64157,-0.28759 -1.31631,-0.4314 -2.02424,-0.4314c-0.73005,0 -1.41586,0.15486 -2.05742,0.46458c-0.64157,0.30972 -1.2057,0.73005 -1.6924,1.261c-0.46458,0.50883 -0.82961,1.10615 -1.09508,1.79195c-0.26547,0.6858 -0.39821,1.38267 -0.39821,2.09061c0,0.79642 0.13274,1.53754 0.39821,2.22335c0.26547,0.6858 0.6305,1.28312 1.09508,1.79195c0.4867,0.50883 1.05083,0.90704 1.6924,1.19463c0.64157,0.28759 1.32737,0.4314 2.05742,0.4314c0.70793,0 1.38267,-0.1438 2.02424,-0.4314c0.64157,-0.28759 1.19463,-0.6858 1.65921,-1.19463c0.4867,-0.50883 0.86279,-1.10615 1.12826,-1.79195c0.28759,-0.6858 0.4314,-1.42692 0.4314,-2.22335zM169.47443,164.61909c0,0.4867 -0.09955,0.95128 -0.29866,1.39374c-0.17699,0.42033 -0.4314,0.78536 -0.76324,1.09508c-0.30972,0.30972 -0.6858,0.56413 -1.12826,0.76324c-0.42033,0.17699 -0.87386,0.26547 -1.36055,0.26547c-0.4867,0 -0.95128,-0.08849 -1.39374,-0.26547c-0.42033,-0.19911 -0.79642,-0.45351 -1.12826,-0.76324c-0.30972,-0.30972 -0.56413,-0.67475 -0.76324,-1.09508c-0.17699,-0.44246 -0.26547,-0.90704 -0.26547,-1.39374c0,-0.4867 0.08849,-0.94022 0.26547,-1.36055c0.19911,-0.44246 0.45351,-0.81854 0.76324,-1.12826c0.33184,-0.30972 0.70793,-0.55307 1.12826,-0.73005c0.44246,-0.19911 0.90704,-0.29866 1.39374,-0.29866c0.4867,0 0.94022,0.09955 1.36055,0.29866c0.44246,0.17699 0.81854,0.42033 1.12826,0.73005c0.33184,0.30972 0.58625,0.6858 0.76324,1.12826c0.19911,0.42033 0.29866,0.87386 0.29866,1.36055zM168.57846,190.9674h-5.30948v-20.70698h5.30948zM180.84316,185.89021c0.19911,0.06637 0.39821,0.11062 0.59732,0.13274c0.22122,0.02212 0.4314,0.03318 0.6305,0.03318c0.53095,0 1.02871,-0.06637 1.49329,-0.19911c0.4867,-0.15486 0.94022,-0.36503 1.36055,-0.6305c0.42033,-0.26547 0.78536,-0.58625 1.09508,-0.96234c0.33184,-0.37609 0.60838,-0.79642 0.82961,-1.261l3.84937,3.88256c-0.4867,0.6858 -1.05083,1.31631 -1.6924,1.8915c-0.64157,0.55307 -1.33844,1.02871 -2.09061,1.42692c-0.73005,0.37609 -1.50436,0.66369 -2.3229,0.86279c-0.81854,0.19911 -1.65921,0.29866 -2.522,0.29866c-1.46011,0 -2.83173,-0.26547 -4.11485,-0.79642c-1.28312,-0.55307 -2.40033,-1.31631 -3.35161,-2.28971c-0.95128,-0.97341 -1.71452,-2.12379 -2.28971,-3.45116c-0.55307,-1.32737 -0.82961,-2.79854 -0.82961,-4.41351c0,-1.63709 0.27654,-3.13039 0.82961,-4.47988c0.5752,-1.34949 1.33844,-2.49988 2.28971,-3.45116c0.95128,-0.95128 2.06849,-1.6924 3.35161,-2.22335c1.28312,-0.53095 2.65474,-0.79642 4.11485,-0.79642c0.86279,0 1.70346,0.09955 2.522,0.29866c0.84067,0.19911 1.62603,0.49776 2.35608,0.89598c0.75217,0.37609 1.44904,0.85173 2.09061,1.42692c0.64157,0.55307 1.2057,1.18357 1.6924,1.8915zM183.56427,175.00577c-0.24335,-0.08849 -0.4867,-0.1438 -0.73005,-0.16592c-0.24335,-0.02212 -0.49776,-0.03318 -0.76324,-0.03318c-0.70793,0 -1.38267,0.13274 -2.02424,0.39821c-0.64157,0.26547 -1.2057,0.64157 -1.6924,1.12826c-0.46458,0.4867 -0.82961,1.07296 -1.09508,1.75877c-0.26547,0.6858 -0.39821,1.46011 -0.39821,2.3229c0,0.19911 0.01106,0.42033 0.03318,0.66369c0.02212,0.24335 0.0553,0.49776 0.09955,0.76324c0.04425,0.24335 0.09955,0.4867 0.16592,0.73005c0.06637,0.22122 0.1438,0.42033 0.23229,0.59732zM221.38758,179.88386v-5.54177c0,-0.7743 -0.15486,-1.49329 -0.46458,-2.15698c-0.28759,-0.6858 -0.6858,-1.27207 -1.19463,-1.75877c-0.4867,-0.50883 -1.07296,-0.90704 -1.75877,-1.19463c-0.66369,-0.30972 -1.38267,-0.46458 -2.15698,-0.46458c-0.75217,0 -1.47117,0.15486 -2.15698,0.46458c-0.66369,0.28759 -1.24994,0.6858 -1.75877,1.19463c-0.50883,0.4867 -0.90704,1.07296 -1.19463,1.75877c-0.28759,0.66369 -0.4314,1.38267 -0.4314,2.15698v5.54177zM226.92936,190.9674h-5.54177v-5.54177h-11.11673v5.54177h-5.54177v-16.62532c0,-1.5486 0.28759,-2.99765 0.86279,-4.34714c0.59732,-1.34949 1.39374,-2.522 2.38927,-3.51753c0.99553,-1.01765 2.16804,-1.81407 3.51753,-2.38927c1.34949,-0.5752 2.78748,-0.86279 4.31395,-0.86279c1.5486,0 2.99765,0.28759 4.34714,0.86279c1.34949,0.5752 2.522,1.37162 3.51753,2.38927c0.99553,0.99553 1.78089,2.16804 2.35608,3.51753c0.59732,1.34949 0.89598,2.79854 0.89598,4.34714zM236.5047,198.86525h-5.30948v-28.60483h1.261l2.12379,2.48882c0.46458,-0.46458 0.98446,-0.89598 1.55966,-1.29419c0.5752,-0.39821 1.16145,-0.74112 1.75877,-1.02871c0.61944,-0.28759 1.24994,-0.50883 1.8915,-0.66369c0.66369,-0.17699 1.33844,-0.26547 2.02424,-0.26547c1.46011,0 2.83173,0.26547 4.11485,0.79642c1.28312,0.50883 2.40033,1.23888 3.35161,2.19016c0.95128,0.95128 1.70346,2.10167 2.25653,3.45116c0.5752,1.34949 0.86279,2.84278 0.86279,4.47988c0,1.70346 -0.28759,3.24099 -0.86279,4.61261c-0.55307,1.34949 -1.30525,2.49988 -2.25653,3.45116c-0.95128,0.95128 -2.06849,1.68133 -3.35161,2.19016c-1.28312,0.4867 -2.65474,0.73005 -4.11485,0.73005c-0.46458,0 -0.92916,-0.0553 -1.39374,-0.16592c-0.46458,-0.08849 -0.91809,-0.22122 -1.36055,-0.39821c-0.44246,-0.17699 -0.88491,-0.36503 -1.32737,-0.56413c-0.42033,-0.22122 -0.82961,-0.45351 -1.22782,-0.69687zM247.09048,180.4148c0,-0.86279 -0.1438,-1.63709 -0.4314,-2.3229c-0.26547,-0.70793 -0.64157,-1.30525 -1.12826,-1.79195c-0.46458,-0.4867 -1.02871,-0.85173 -1.6924,-1.09508c-0.64157,-0.26547 -1.31631,-0.39821 -2.02424,-0.39821c-0.73005,0 -1.41586,0.13274 -2.05742,0.39821c-0.64157,0.24335 -1.2057,0.60838 -1.6924,1.09508c-0.46458,0.4867 -0.84067,1.08402 -1.12826,1.79195c-0.26547,0.6858 -0.39821,1.46011 -0.39821,2.3229c0,0.84067 0.13274,1.61496 0.39821,2.3229c0.28759,0.6858 0.66369,1.27207 1.12826,1.75877c0.4867,0.4867 1.05083,0.87386 1.6924,1.16145c0.64157,0.26547 1.32737,0.39821 2.05742,0.39821c0.70793,0 1.38267,-0.13274 2.02424,-0.39821c0.66369,-0.28759 1.22782,-0.67475 1.6924,-1.16145c0.4867,-0.4867 0.86279,-1.07296 1.12826,-1.75877c0.28759,-0.70793 0.4314,-1.48223 0.4314,-2.3229zM275.33062,180.4148c0,1.5486 -0.27654,2.99765 -0.82961,4.34714c-0.55307,1.32737 -1.30525,2.47775 -2.25653,3.45116c-0.95128,0.97341 -2.06849,1.7477 -3.35161,2.3229c-1.28312,0.55307 -2.66581,0.82961 -4.14803,0.82961c-1.46011,0 -2.83173,-0.27654 -4.11485,-0.82961c-1.28312,-0.5752 -2.41139,-1.34949 -3.38479,-2.3229c-0.95128,-0.97341 -1.70346,-2.12379 -2.25653,-3.45116c-0.55307,-1.34949 -0.82961,-2.79854 -0.82961,-4.34714c0,-1.57073 0.27654,-3.01977 0.82961,-4.34714c0.55307,-1.34949 1.30525,-2.51094 2.25653,-3.48435c0.97341,-0.97341 2.10167,-1.73665 3.38479,-2.28971c1.28312,-0.55307 2.65474,-0.82961 4.11485,-0.82961c1.48223,0 2.86491,0.26547 4.14803,0.79642c1.28312,0.50883 2.40033,1.24994 3.35161,2.22335c0.95128,0.95128 1.70346,2.10167 2.25653,3.45116c0.55307,1.34949 0.82961,2.84278 0.82961,4.47988zM270.02113,180.4148c0,-0.84067 -0.1438,-1.60391 -0.4314,-2.28971c-0.26547,-0.70793 -0.64157,-1.30525 -1.12826,-1.79195c-0.46458,-0.4867 -1.01765,-0.86279 -1.65921,-1.12826c-0.64157,-0.26547 -1.32737,-0.39821 -2.05742,-0.39821c-0.73005,0 -1.41586,0.13274 -2.05742,0.39821c-0.61944,0.26547 -1.17251,0.64157 -1.65921,1.12826c-0.46458,0.4867 -0.82961,1.08402 -1.09508,1.79195c-0.26547,0.6858 -0.39821,1.44904 -0.39821,2.28971c0,0.79642 0.13274,1.53754 0.39821,2.22335c0.26547,0.6858 0.6305,1.28312 1.09508,1.79195c0.4867,0.50883 1.03978,0.90704 1.65921,1.19463c0.64157,0.28759 1.32737,0.4314 2.05742,0.4314c0.73005,0 1.41586,-0.13274 2.05742,-0.39821c0.64157,-0.28759 1.19463,-0.67475 1.65921,-1.16145c0.4867,-0.4867 0.86279,-1.07296 1.12826,-1.75877c0.28759,-0.70793 0.4314,-1.48223 0.4314,-2.3229zM296.35109,174.37527l-3.84937,3.88256c-0.19911,-0.55307 -0.46458,-1.03978 -0.79642,-1.46011c-0.33184,-0.44246 -0.70793,-0.80749 -1.12826,-1.09508c-0.42033,-0.28759 -0.88491,-0.50883 -1.39374,-0.66369c-0.4867,-0.15486 -0.98446,-0.23229 -1.49329,-0.23229c-0.73005,0 -1.41586,0.1438 -2.05742,0.4314c-0.61944,0.28759 -1.17251,0.70793 -1.65921,1.261c-0.46458,0.53095 -0.82961,1.16145 -1.09508,1.8915c-0.26547,0.73005 -0.39821,1.5486 -0.39821,2.45564c0,0.70793 0.13274,1.38267 0.39821,2.02424c0.26547,0.61944 0.6305,1.17251 1.09508,1.65921c0.4867,0.46458 1.03978,0.84067 1.65921,1.12826c0.64157,0.26547 1.32737,0.39821 2.05742,0.39821c0.50883,0 1.00659,-0.06637 1.49329,-0.19911c0.4867,-0.15486 0.92916,-0.36503 1.32737,-0.6305c0.42033,-0.26547 0.79642,-0.58625 1.12826,-0.96234c0.33184,-0.37609 0.60838,-0.79642 0.82961,-1.261l3.84937,3.88256c-0.4867,0.6858 -1.05083,1.31631 -1.6924,1.8915c-0.64157,0.55307 -1.33844,1.02871 -2.09061,1.42692c-0.73005,0.37609 -1.50436,0.66369 -2.3229,0.86279c-0.81854,0.19911 -1.65921,0.29866 -2.522,0.29866c-1.46011,0 -2.83173,-0.27654 -4.11485,-0.82961c-1.28312,-0.55307 -2.41139,-1.30525 -3.38479,-2.25653c-0.95128,-0.95128 -1.70346,-2.06849 -2.25653,-3.35161c-0.55307,-1.28312 -0.82961,-2.64368 -0.82961,-4.08166c0,-1.59284 0.27654,-3.07507 0.82961,-4.44669c0.55307,-1.39374 1.30525,-2.59944 2.25653,-3.61708c0.97341,-1.03978 2.10167,-1.84725 3.38479,-2.42245c1.28312,-0.59732 2.65474,-0.89598 4.11485,-0.89598c0.86279,0 1.70346,0.11062 2.522,0.33184c0.84067,0.22122 1.63709,0.54201 2.38927,0.96234c0.7743,0.39821 1.47117,0.90704 2.09061,1.52648c0.64157,0.59732 1.19463,1.29419 1.65921,2.09061zM318.68086,190.9674h-1.261l-2.05742,-2.85385c-0.50883,0.46458 -1.05083,0.89598 -1.62603,1.29419c-0.55307,0.37609 -1.13933,0.71899 -1.75877,1.02871c-0.59732,0.28759 -1.22782,0.50883 -1.8915,0.66369c-0.64157,0.17699 -1.30525,0.26547 -1.99106,0.26547c-1.46011,0 -2.83173,-0.24335 -4.11485,-0.73005c-1.28312,-0.50883 -2.40033,-1.22782 -3.35161,-2.15698c-0.95128,-0.92916 -1.71452,-2.06849 -2.28971,-3.41798c-0.55307,-1.37162 -0.82961,-2.92022 -0.82961,-4.6458c0,-1.61496 0.27654,-3.08614 0.82961,-4.41351c0.5752,-1.34949 1.33844,-2.51094 2.28971,-3.48435c0.95128,-0.97341 2.06849,-1.72558 3.35161,-2.25653c1.28312,-0.53095 2.65474,-0.79642 4.11485,-0.79642c0.6858,0 1.34949,0.08849 1.99106,0.26547c0.66369,0.15486 1.30525,0.38715 1.92469,0.69687c0.61944,0.28759 1.2057,0.6305 1.75877,1.02871c0.5752,0.39821 1.10615,0.82961 1.59284,1.29419l2.05742,-2.45564h1.261zM313.37138,180.4148c0,-0.70793 -0.1438,-1.4048 -0.4314,-2.09061c-0.26547,-0.6858 -0.64157,-1.28312 -1.12826,-1.79195c-0.46458,-0.53095 -1.01765,-0.95128 -1.65921,-1.261c-0.64157,-0.30972 -1.32737,-0.46458 -2.05742,-0.46458c-0.70793,0 -1.38267,0.12167 -2.02424,0.36503c-0.64157,0.24335 -1.2057,0.60838 -1.6924,1.09508c-0.46458,0.46458 -0.82961,1.05083 -1.09508,1.75877c-0.26547,0.6858 -0.39821,1.48223 -0.39821,2.38927c0,0.90704 0.13274,1.71452 0.39821,2.42245c0.26547,0.70793 0.6305,1.30525 1.09508,1.79195c0.4867,0.46458 1.05083,0.81854 1.6924,1.0619c0.64157,0.24335 1.31631,0.36503 2.02424,0.36503c0.73005,0 1.41586,-0.15486 2.05742,-0.46458c0.64157,-0.33184 1.19463,-0.75217 1.65921,-1.261c0.4867,-0.53095 0.86279,-1.12826 1.12826,-1.79195c0.28759,-0.6858 0.4314,-1.39374 0.4314,-2.12379zM328.0337,190.9674h-5.30948v-28.96986h5.30948zM337.04627,198.86525v-5.30948l2.9534,0.03318c0.50883,0 0.99553,-0.08849 1.46011,-0.26547c0.4867,-0.15486 0.92916,-0.38715 1.32737,-0.69687c0.42033,-0.28759 0.78536,-0.64157 1.09508,-1.0619c0.30972,-0.39821 0.56413,-0.84067 0.76324,-1.32737c-0.59732,0.26547 -1.19463,0.51988 -1.79195,0.76324c-0.59732,0.24335 -1.19463,0.36503 -1.79195,0.36503c-1.28312,0 -2.48882,-0.22122 -3.61708,-0.66369c-1.10615,-0.46458 -2.09061,-1.10615 -2.9534,-1.92469c-0.84067,-0.84067 -1.50436,-1.85832 -1.99106,-3.05295c-0.4867,-1.19463 -0.73005,-2.53307 -0.73005,-4.0153v-11.44857h5.2763v11.44857c0,0.73005 0.09955,1.37162 0.29866,1.92469c0.22122,0.55307 0.50883,1.01765 0.86279,1.39374c0.37609,0.35396 0.80749,0.61944 1.29419,0.79642c0.4867,0.17699 1.00659,0.26547 1.55966,0.26547c0.53095,0 1.03978,-0.12167 1.52648,-0.36503c0.4867,-0.26547 0.90704,-0.59732 1.261,-0.99553c0.37609,-0.42033 0.66369,-0.88491 0.86279,-1.39374c0.19911,-0.53095 0.29866,-1.07296 0.29866,-1.62603v-11.44857h5.34267v18.08542c-0.02212,1.46011 -0.30972,2.83173 -0.86279,4.11485c-0.55307,1.28312 -1.31631,2.40033 -2.28971,3.35161c-0.95128,0.95128 -2.06849,1.70346 -3.35161,2.25653c-1.261,0.55307 -2.62156,0.82961 -4.08166,0.82961zM359.68487,198.86525h-5.30948v-28.60483h1.261l2.12379,2.48882c0.46458,-0.46458 0.98446,-0.89598 1.55966,-1.29419c0.5752,-0.39821 1.16145,-0.74112 1.75877,-1.02871c0.61944,-0.28759 1.24994,-0.50883 1.8915,-0.66369c0.66369,-0.17699 1.33844,-0.26547 2.02424,-0.26547c1.46011,0 2.83173,0.26547 4.11485,0.79642c1.28312,0.50883 2.40033,1.23888 3.35161,2.19016c0.95128,0.95128 1.70346,2.10167 2.25653,3.45116c0.5752,1.34949 0.86279,2.84278 0.86279,4.47988c0,1.70346 -0.28759,3.24099 -0.86279,4.61261c-0.55307,1.34949 -1.30525,2.49988 -2.25653,3.45116c-0.95128,0.95128 -2.06849,1.68133 -3.35161,2.19016c-1.28312,0.4867 -2.65474,0.73005 -4.11485,0.73005c-0.46458,0 -0.92916,-0.0553 -1.39374,-0.16592c-0.46458,-0.08849 -0.91809,-0.22122 -1.36055,-0.39821c-0.44246,-0.17699 -0.88491,-0.36503 -1.32737,-0.56413c-0.42033,-0.22122 -0.82961,-0.45351 -1.22782,-0.69687zM370.27065,180.4148c0,-0.86279 -0.1438,-1.63709 -0.4314,-2.3229c-0.26547,-0.70793 -0.64157,-1.30525 -1.12826,-1.79195c-0.46458,-0.4867 -1.02871,-0.85173 -1.6924,-1.09508c-0.64157,-0.26547 -1.31631,-0.39821 -2.02424,-0.39821c-0.73005,0 -1.41586,0.13274 -2.05742,0.39821c-0.64157,0.24335 -1.2057,0.60838 -1.6924,1.09508c-0.46458,0.4867 -0.84067,1.08402 -1.12826,1.79195c-0.26547,0.6858 -0.39821,1.46011 -0.39821,2.3229c0,0.84067 0.13274,1.61496 0.39821,2.3229c0.28759,0.6858 0.66369,1.27207 1.12826,1.75877c0.4867,0.4867 1.05083,0.87386 1.6924,1.16145c0.64157,0.26547 1.32737,0.39821 2.05742,0.39821c0.70793,0 1.38267,-0.13274 2.02424,-0.39821c0.66369,-0.28759 1.22782,-0.67475 1.6924,-1.16145c0.4867,-0.4867 0.86279,-1.07296 1.12826,-1.75877c0.28759,-0.70793 0.4314,-1.48223 0.4314,-2.3229zM389.8497,190.9674h-12.04589v-5.2763h12.04589c0.37609,0 0.6858,-0.12167 0.92916,-0.36503c0.26547,-0.26547 0.39821,-0.5752 0.39821,-0.92916c0,-0.37609 -0.13274,-0.61944 -0.39821,-0.73005c-0.24335,-0.13274 -0.55307,-0.19911 -0.92916,-0.19911h-5.4754c-0.92916,0 -1.79195,-0.16592 -2.58837,-0.49776c-0.79642,-0.35396 -1.49329,-0.82961 -2.09061,-1.42692c-0.5752,-0.59732 -1.03978,-1.29419 -1.39374,-2.09061c-0.33184,-0.81854 -0.49776,-1.68133 -0.49776,-2.58837c0,-0.90704 0.16592,-1.75877 0.49776,-2.55519c0.35396,-0.81854 0.81854,-1.51541 1.39374,-2.09061c0.59732,-0.59732 1.29419,-1.0619 2.09061,-1.39374c0.79642,-0.35396 1.65921,-0.53095 2.58837,-0.53095h10.68533v5.24311h-10.68533c-0.35396,0 -0.66369,0.13274 -0.92916,0.39821c-0.26547,0.26547 -0.39821,0.5752 -0.39821,0.92916c0,0.37609 0.13274,0.69687 0.39821,0.96234c0.26547,0.26547 0.5752,0.39821 0.92916,0.39821h5.4754c0.90704,0 1.75877,0.15486 2.55519,0.46458c0.81854,0.28759 1.51541,0.70793 2.09061,1.261c0.59732,0.53095 1.07296,1.18357 1.42692,1.95787c0.35396,0.75217 0.53095,1.58178 0.53095,2.48882c0,0.90704 -0.17699,1.75877 -0.53095,2.55519c-0.35396,0.79642 -0.82961,1.49329 -1.42692,2.09061c-0.5752,0.59732 -1.27207,1.07296 -2.09061,1.42692c-0.79642,0.33184 -1.64815,0.49776 -2.55519,0.49776zM407.4894,185.89021c0.19911,0.06637 0.39821,0.11062 0.59732,0.13274c0.22122,0.02212 0.4314,0.03318 0.6305,0.03318c0.53095,0 1.02871,-0.06637 1.49329,-0.19911c0.4867,-0.15486 0.94022,-0.36503 1.36055,-0.6305c0.42033,-0.26547 0.78536,-0.58625 1.09508,-0.96234c0.33184,-0.37609 0.60838,-0.79642 0.82961,-1.261l3.84937,3.88256c-0.4867,0.6858 -1.05083,1.31631 -1.6924,1.8915c-0.64157,0.55307 -1.33844,1.02871 -2.09061,1.42692c-0.73005,0.37609 -1.50436,0.66369 -2.3229,0.86279c-0.81854,0.19911 -1.65921,0.29866 -2.522,0.29866c-1.46011,0 -2.83173,-0.26547 -4.11485,-0.79642c-1.28312,-0.55307 -2.40033,-1.31631 -3.35161,-2.28971c-0.95128,-0.97341 -1.71452,-2.12379 -2.28971,-3.45116c-0.55307,-1.32737 -0.82961,-2.79854 -0.82961,-4.41351c0,-1.63709 0.27654,-3.13039 0.82961,-4.47988c0.5752,-1.34949 1.33844,-2.49988 2.28971,-3.45116c0.95128,-0.95128 2.06849,-1.6924 3.35161,-2.22335c1.28312,-0.53095 2.65474,-0.79642 4.11485,-0.79642c0.86279,0 1.70346,0.09955 2.522,0.29866c0.84067,0.19911 1.62603,0.49776 2.35608,0.89598c0.75217,0.37609 1.44904,0.85173 2.09061,1.42692c0.64157,0.55307 1.2057,1.18357 1.6924,1.8915zM410.21051,175.00577c-0.24335,-0.08849 -0.4867,-0.1438 -0.73005,-0.16592c-0.24335,-0.02212 -0.49776,-0.03318 -0.76324,-0.03318c-0.70793,0 -1.38267,0.13274 -2.02424,0.39821c-0.64157,0.26547 -1.2057,0.64157 -1.6924,1.12826c-0.46458,0.4867 -0.82961,1.07296 -1.09508,1.75877c-0.26547,0.6858 -0.39821,1.46011 -0.39821,2.3229c0,0.19911 0.01106,0.42033 0.03318,0.66369c0.02212,0.24335 0.0553,0.49776 0.09955,0.76324c0.04425,0.24335 0.09955,0.4867 0.16592,0.73005c0.06637,0.22122 0.1438,0.42033 0.23229,0.59732z" fill="#000000" stroke="#000000" stroke-width="7" stroke-linecap="square"/><path d="M84.1251,190.9674h-21.5034l11.84678,-22.20028h-11.84678v-5.54177h21.50341l-11.8136,22.20027h11.8136zM106.62766,180.41481c0,1.5486 -0.27653,2.99765 -0.82961,4.34714c-0.55307,1.32737 -1.30525,2.47776 -2.25653,3.45117c-0.95128,0.97341 -2.06849,1.7477 -3.35161,2.3229c-1.28312,0.55307 -2.66581,0.82961 -4.14803,0.82961c-1.46011,0 -2.83173,-0.27654 -4.11485,-0.82961c-1.28312,-0.5752 -2.41138,-1.34949 -3.38479,-2.3229c-0.95128,-0.97341 -1.70346,-2.1238 -2.25653,-3.45117c-0.55307,-1.34949 -0.82961,-2.79854 -0.82961,-4.34714c0,-1.57073 0.27653,-3.01977 0.82961,-4.34714c0.55307,-1.34949 1.30525,-2.51094 2.25653,-3.48435c0.97341,-0.97341 2.10168,-1.73664 3.38479,-2.28971c1.28312,-0.55307 2.65474,-0.82961 4.11485,-0.82961c1.48222,0 2.86491,0.26548 4.14803,0.79642c1.28312,0.50883 2.40033,1.24993 3.35161,2.22334c0.95128,0.95128 1.70346,2.10168 2.25653,3.45117c0.55307,1.34949 0.82961,2.84278 0.82961,4.47987zM101.31818,180.41481c0,-0.84067 -0.14381,-1.60391 -0.4314,-2.28972c-0.26547,-0.70793 -0.64156,-1.30525 -1.12826,-1.79195c-0.46458,-0.4867 -1.01765,-0.86279 -1.65921,-1.12826c-0.64156,-0.26548 -1.32737,-0.39821 -2.05742,-0.39821c-0.73005,0 -1.41586,0.13273 -2.05743,0.39821c-0.61943,0.26548 -1.17251,0.64156 -1.65921,1.12826c-0.46458,0.4867 -0.82961,1.08402 -1.09508,1.79195c-0.26547,0.6858 -0.39821,1.44905 -0.39821,2.28972c0,0.79642 0.13273,1.53754 0.39821,2.22334c0.26547,0.6858 0.6305,1.28312 1.09508,1.79195c0.4867,0.50883 1.03978,0.90703 1.65921,1.19463c0.64156,0.2876 1.32737,0.4314 2.05743,0.4314c0.73005,0 1.41586,-0.13274 2.05742,-0.39821c0.64156,-0.2876 1.19463,-0.67475 1.65921,-1.16145c0.4867,-0.4867 0.86279,-1.07297 1.12826,-1.75877c0.28759,-0.70793 0.4314,-1.48222 0.4314,-2.32289zM135.91102,190.9674h-5.2763v-13.14097c0,-0.37609 -0.06637,-0.71899 -0.1991,-1.02871c-0.13273,-0.33184 -0.32077,-0.61943 -0.56413,-0.86279c-0.24336,-0.24336 -0.53095,-0.4314 -0.86279,-0.56414c-0.30972,-0.13273 -0.65263,-0.1991 -1.02871,-0.1991c-0.35396,0 -0.69687,0.06637 -1.02871,0.1991c-0.30972,0.13273 -0.58625,0.32078 -0.82961,0.56414c-0.22123,0.24336 -0.39821,0.53095 -0.53095,0.86279c-0.13273,0.30972 -0.1991,0.65262 -0.1991,1.02871v13.14097h-5.30949v-13.14097c0,-0.37609 -0.06637,-0.71899 -0.19911,-1.02871c-0.13273,-0.33184 -0.32078,-0.61943 -0.56413,-0.86279c-0.24335,-0.24336 -0.53095,-0.4314 -0.86279,-0.56414c-0.30973,-0.13273 -0.64156,-0.1991 -0.99553,-0.1991c-0.37609,0 -0.71899,0.06637 -1.02872,0.1991c-0.30973,0.13273 -0.58625,0.32078 -0.82961,0.56414c-0.24335,0.24336 -0.43139,0.53095 -0.56413,0.86279c-0.13273,0.30972 -0.19911,0.65262 -0.19911,1.02871v13.14097h-5.2763v-20.70698h1.261l1.42692,1.55966c0.73005,-0.61944 1.53754,-1.09508 2.42245,-1.42692c0.88491,-0.33184 1.81407,-0.49777 2.78748,-0.49777c0.95128,0 1.8915,0.17699 2.82066,0.53095c0.92916,0.35396 1.73665,0.97341 2.42245,1.85832c0.33185,-0.42033 0.69687,-0.78536 1.09508,-1.09508c0.42033,-0.30972 0.85172,-0.56413 1.29418,-0.76324c0.46458,-0.19911 0.94022,-0.33184 1.42693,-0.39821c0.50883,-0.08849 0.99552,-0.13274 1.4601,-0.13274c1.10614,0 2.13485,0.21017 3.08613,0.6305c0.97341,0.39821 1.81407,0.96234 2.52201,1.6924c0.70793,0.70793 1.27207,1.5486 1.6924,2.52201c0.42033,0.95128 0.6305,1.97999 0.6305,3.08613zM160.34818,180.41481c0,1.63709 -0.28759,3.13038 -0.86279,4.47987c-0.55307,1.32737 -1.30525,2.47775 -2.25653,3.45116c-0.95128,0.95128 -2.06849,1.6924 -3.35161,2.22335c-1.28312,0.53095 -2.65474,0.79642 -4.11485,0.79642c-1.46011,0 -2.83173,-0.26547 -4.11485,-0.79642c-1.28312,-0.55307 -2.41138,-1.3163 -3.38479,-2.28972c-0.95128,-0.97341 -1.70346,-2.1238 -2.25653,-3.45117c-0.55307,-1.32737 -0.82961,-2.79854 -0.82961,-4.4135v-18.41727h5.30948v9.6898c0.26548,-0.37609 0.59732,-0.69687 0.99553,-0.96234c0.42033,-0.2876 0.86279,-0.51988 1.32737,-0.69687c0.4867,-0.19911 0.97341,-0.34291 1.46011,-0.4314c0.50883,-0.08849 1.00659,-0.13274 1.49329,-0.13274c1.46011,0 2.83173,0.27654 4.11485,0.82961c1.28312,0.53095 2.40033,1.29418 3.35161,2.28971c0.95128,0.97341 1.70346,2.13486 2.25653,3.48435c0.5752,1.32737 0.86279,2.77641 0.86279,4.34714zM155.00551,180.41481c0,-0.79642 -0.1438,-1.53754 -0.43139,-2.22334c-0.26548,-0.6858 -0.64156,-1.28312 -1.12826,-1.79195c-0.46458,-0.50883 -1.01765,-0.89597 -1.65922,-1.16145c-0.64157,-0.2876 -1.3163,-0.43139 -2.02424,-0.43139c-0.73005,0 -1.41586,0.15485 -2.05742,0.46458c-0.64157,0.30972 -1.20569,0.73005 -1.6924,1.261c-0.46458,0.50883 -0.8296,1.10615 -1.09508,1.79195c-0.26548,0.6858 -0.39821,1.38268 -0.39821,2.09061c0,0.79642 0.13273,1.53754 0.39821,2.22334c0.26548,0.6858 0.6305,1.28312 1.09508,1.79195c0.4867,0.50883 1.05083,0.90703 1.6924,1.19463c0.64157,0.2876 1.32737,0.4314 2.05742,0.4314c0.70793,0 1.38267,-0.1438 2.02424,-0.4314c0.64157,-0.2876 1.19464,-0.6858 1.65922,-1.19463c0.4867,-0.50883 0.86279,-1.10615 1.12826,-1.79195c0.2876,-0.6858 0.43139,-1.42692 0.43139,-2.22334zM169.47443,164.61909c0,0.4867 -0.09955,0.95128 -0.29866,1.39374c-0.17699,0.42033 -0.4314,0.78536 -0.76324,1.09508c-0.30972,0.30972 -0.6858,0.56413 -1.12826,0.76324c-0.42033,0.17699 -0.87385,0.26548 -1.36056,0.26548c-0.4867,0 -0.95128,-0.08849 -1.39374,-0.26548c-0.42033,-0.19911 -0.79642,-0.45351 -1.12826,-0.76324c-0.30972,-0.30972 -0.56413,-0.67475 -0.76324,-1.09508c-0.17699,-0.44246 -0.26548,-0.90704 -0.26548,-1.39374c0,-0.4867 0.08849,-0.94022 0.26548,-1.36055c0.19911,-0.44246 0.45351,-0.81854 0.76324,-1.12826c0.33184,-0.30972 0.70793,-0.55307 1.12826,-0.73006c0.44246,-0.19911 0.90704,-0.29865 1.39374,-0.29865c0.4867,0 0.94022,0.09955 1.36056,0.29865c0.44246,0.17699 0.81854,0.42033 1.12826,0.73006c0.33184,0.30972 0.58625,0.6858 0.76324,1.12826c0.19911,0.42033 0.29866,0.87385 0.29866,1.36055zM168.57846,190.9674h-5.30948v-20.70698h5.30948zM180.84316,185.89021c0.19911,0.06637 0.39821,0.11062 0.59731,0.13274c0.22123,0.02212 0.4314,0.03319 0.6305,0.03319c0.53095,0 1.02871,-0.06637 1.49329,-0.19911c0.4867,-0.15485 0.94022,-0.36503 1.36056,-0.6305c0.42033,-0.26548 0.78536,-0.58625 1.09508,-0.96234c0.33184,-0.37609 0.60838,-0.79642 0.82961,-1.26101l3.84937,3.88256c-0.4867,0.6858 -1.05083,1.3163 -1.6924,1.8915c-0.64157,0.55307 -1.33843,1.02872 -2.09061,1.42693c-0.73005,0.37609 -1.50436,0.66368 -2.3229,0.86279c-0.81854,0.19911 -1.65922,0.29866 -2.52201,0.29866c-1.46011,0 -2.83173,-0.26547 -4.11485,-0.79642c-1.28312,-0.55307 -2.40034,-1.3163 -3.35162,-2.28972c-0.95128,-0.97341 -1.71451,-2.1238 -2.28971,-3.45117c-0.55307,-1.32737 -0.82961,-2.79854 -0.82961,-4.4135c0,-1.63709 0.27654,-3.13038 0.82961,-4.47987c0.5752,-1.34949 1.33843,-2.49989 2.28971,-3.45117c0.95128,-0.95128 2.0685,-1.6924 3.35162,-2.22334c1.28312,-0.53095 2.65474,-0.79642 4.11485,-0.79642c0.86279,0 1.70346,0.09955 2.52201,0.29866c0.84067,0.19911 1.62603,0.49776 2.35608,0.89597c0.75217,0.37609 1.44904,0.85173 2.09061,1.42693c0.64157,0.55307 1.2057,1.18357 1.6924,1.8915zM183.56427,175.00577c-0.24336,-0.08849 -0.4867,-0.14381 -0.73005,-0.16593c-0.24336,-0.02212 -0.49776,-0.03318 -0.76324,-0.03318c-0.70793,0 -1.38267,0.13273 -2.02424,0.39821c-0.64157,0.26548 -1.20569,0.64156 -1.6924,1.12826c-0.46458,0.4867 -0.8296,1.07296 -1.09508,1.75877c-0.26548,0.6858 -0.39822,1.46011 -0.39822,2.3229c0,0.19911 0.01107,0.42033 0.03319,0.66368c0.02212,0.24336 0.05531,0.49776 0.09956,0.76324c0.04425,0.24336 0.09955,0.4867 0.16592,0.73005c0.06637,0.22123 0.1438,0.42033 0.23229,0.59732zM221.38759,179.88386v-5.54177c0,-0.7743 -0.15486,-1.4933 -0.46458,-2.15698c-0.2876,-0.6858 -0.6858,-1.27206 -1.19463,-1.75876c-0.4867,-0.50883 -1.07296,-0.90704 -1.75877,-1.19464c-0.66368,-0.30972 -1.38267,-0.46458 -2.15697,-0.46458c-0.75217,0 -1.47118,0.15486 -2.15698,0.46458c-0.66368,0.2876 -1.24994,0.68581 -1.75877,1.19464c-0.50883,0.4867 -0.90704,1.07296 -1.19464,1.75876c-0.2876,0.66368 -0.43139,1.38268 -0.43139,2.15698v5.54177zM226.92936,190.9674h-5.54177v-5.54178h-11.11673v5.54178h-5.54177v-16.62531c0,-1.5486 0.28759,-2.99765 0.86279,-4.34714c0.59732,-1.34949 1.39374,-2.522 2.38927,-3.51753c0.99553,-1.01764 2.16804,-1.81408 3.51753,-2.38927c1.34949,-0.5752 2.78748,-0.86279 4.31396,-0.86279c1.5486,0 2.99764,0.28759 4.34713,0.86279c1.34949,0.5752 2.52201,1.37163 3.51754,2.38927c0.99553,0.99553 1.78088,2.16804 2.35608,3.51753c0.59732,1.34949 0.89597,2.79854 0.89597,4.34714zM236.5047,198.86526h-5.30949v-28.60483h1.26101l2.12379,2.48882c0.46458,-0.46458 0.98447,-0.89598 1.55966,-1.29419c0.5752,-0.39821 1.16145,-0.74111 1.75877,-1.02871c0.61944,-0.2876 1.24993,-0.50883 1.8915,-0.66369c0.66368,-0.17699 1.33844,-0.26548 2.02424,-0.26548c1.46011,0 2.83173,0.26548 4.11485,0.79643c1.28312,0.50883 2.40033,1.23888 3.35161,2.19016c0.95128,0.95128 1.70346,2.10168 2.25653,3.45117c0.5752,1.34949 0.86279,2.84278 0.86279,4.47987c0,1.70346 -0.28759,3.24099 -0.86279,4.61261c-0.55307,1.34949 -1.30525,2.49989 -2.25653,3.45117c-0.95128,0.95128 -2.06849,1.68133 -3.35161,2.19016c-1.28312,0.4867 -2.65474,0.73005 -4.11485,0.73005c-0.46458,0 -0.92916,-0.0553 -1.39374,-0.16592c-0.46458,-0.08849 -0.91809,-0.22123 -1.36056,-0.39821c-0.44246,-0.17699 -0.88491,-0.36503 -1.32737,-0.56413c-0.42033,-0.22123 -0.8296,-0.45352 -1.22781,-0.69687zM247.09048,180.41481c0,-0.86279 -0.1438,-1.6371 -0.4314,-2.3229c-0.26548,-0.70793 -0.64156,-1.30525 -1.12826,-1.79195c-0.46458,-0.4867 -1.02872,-0.85173 -1.6924,-1.09508c-0.64157,-0.26548 -1.31631,-0.39821 -2.02424,-0.39821c-0.73005,0 -1.41586,0.13273 -2.05742,0.39821c-0.64157,0.24336 -1.20569,0.60838 -1.6924,1.09508c-0.46458,0.4867 -0.84067,1.08401 -1.12826,1.79195c-0.26548,0.6858 -0.39821,1.46011 -0.39821,2.3229c0,0.84067 0.13273,1.61496 0.39821,2.32289c0.2876,0.6858 0.66368,1.27207 1.12826,1.75877c0.4867,0.4867 1.05083,0.87385 1.6924,1.16145c0.64157,0.26548 1.32737,0.39821 2.05742,0.39821c0.70793,0 1.38268,-0.13274 2.02424,-0.39821c0.66368,-0.2876 1.22782,-0.67475 1.6924,-1.16145c0.4867,-0.4867 0.86279,-1.07297 1.12826,-1.75877c0.2876,-0.70793 0.4314,-1.48222 0.4314,-2.32289zM275.33062,180.41481c0,1.5486 -0.27654,2.99765 -0.82961,4.34714c-0.55307,1.32737 -1.30525,2.47776 -2.25653,3.45117c-0.95128,0.97341 -2.06849,1.7477 -3.35161,2.3229c-1.28312,0.55307 -2.66581,0.82961 -4.14803,0.82961c-1.46011,0 -2.83173,-0.27654 -4.11485,-0.82961c-1.28312,-0.5752 -2.41138,-1.34949 -3.38479,-2.3229c-0.95128,-0.97341 -1.70346,-2.1238 -2.25653,-3.45117c-0.55307,-1.34949 -0.82961,-2.79854 -0.82961,-4.34714c0,-1.57073 0.27654,-3.01977 0.82961,-4.34714c0.55307,-1.34949 1.30525,-2.51094 2.25653,-3.48435c0.97341,-0.97341 2.10168,-1.73664 3.38479,-2.28971c1.28312,-0.55307 2.65474,-0.82961 4.11485,-0.82961c1.48223,0 2.86491,0.26548 4.14803,0.79642c1.28312,0.50883 2.40033,1.24993 3.35161,2.22334c0.95128,0.95128 1.70346,2.10168 2.25653,3.45117c0.55307,1.34949 0.82961,2.84278 0.82961,4.47987zM270.02114,180.41481c0,-0.84067 -0.1438,-1.60391 -0.4314,-2.28972c-0.26547,-0.70793 -0.64157,-1.30525 -1.12826,-1.79195c-0.46458,-0.4867 -1.01765,-0.86279 -1.65922,-1.12826c-0.64157,-0.26548 -1.32737,-0.39821 -2.05742,-0.39821c-0.73005,0 -1.41586,0.13273 -2.05743,0.39821c-0.61944,0.26548 -1.17251,0.64156 -1.65921,1.12826c-0.46458,0.4867 -0.82961,1.08402 -1.09509,1.79195c-0.26547,0.6858 -0.39821,1.44905 -0.39821,2.28972c0,0.79642 0.13274,1.53754 0.39821,2.22334c0.26547,0.6858 0.63051,1.28312 1.09509,1.79195c0.4867,0.50883 1.03977,0.90703 1.65921,1.19463c0.64157,0.2876 1.32737,0.4314 2.05743,0.4314c0.73005,0 1.41586,-0.13274 2.05742,-0.39821c0.64157,-0.2876 1.19464,-0.67475 1.65922,-1.16145c0.4867,-0.4867 0.86279,-1.07297 1.12826,-1.75877c0.2876,-0.70793 0.4314,-1.48222 0.4314,-2.32289zM296.35109,174.37527l-3.84938,3.88255c-0.1991,-0.55307 -0.46458,-1.03977 -0.79642,-1.4601c-0.33184,-0.44246 -0.70794,-0.80748 -1.12826,-1.09508c-0.42033,-0.2876 -0.88491,-0.50883 -1.39374,-0.66369c-0.4867,-0.15485 -0.98446,-0.23229 -1.49329,-0.23229c-0.73005,0 -1.41586,0.1438 -2.05743,0.43139c-0.61944,0.2876 -1.17251,0.70793 -1.65921,1.261c-0.46458,0.53095 -0.82961,1.16145 -1.09508,1.89151c-0.26547,0.73005 -0.39821,1.5486 -0.39821,2.45564c0,0.70793 0.13274,1.38267 0.39821,2.02424c0.26547,0.61944 0.6305,1.17251 1.09508,1.65921c0.4867,0.46458 1.03977,0.84067 1.65921,1.12826c0.64157,0.26548 1.32737,0.39821 2.05743,0.39821c0.50883,0 1.00659,-0.06637 1.49329,-0.19911c0.4867,-0.15485 0.92916,-0.36503 1.32737,-0.6305c0.42033,-0.26548 0.79642,-0.58625 1.12826,-0.96234c0.33184,-0.37609 0.60838,-0.79642 0.82961,-1.26101l3.84938,3.88256c-0.4867,0.6858 -1.05084,1.3163 -1.6924,1.8915c-0.64157,0.55307 -1.33843,1.02872 -2.0906,1.42693c-0.73005,0.37609 -1.50436,0.66368 -2.3229,0.86279c-0.81854,0.19911 -1.65921,0.29866 -2.522,0.29866c-1.46011,0 -2.83173,-0.27654 -4.11485,-0.82961c-1.28312,-0.55307 -2.41138,-1.30525 -3.38479,-2.25653c-0.95128,-0.95128 -1.70346,-2.06849 -2.25653,-3.35161c-0.55307,-1.28312 -0.82961,-2.64367 -0.82961,-4.08166c0,-1.59285 0.27654,-3.07507 0.82961,-4.44669c0.55307,-1.39374 1.30525,-2.59944 2.25653,-3.61709c0.97341,-1.03977 2.10168,-1.84726 3.38479,-2.42245c1.28312,-0.59732 2.65474,-0.89597 4.11485,-0.89597c0.86279,0 1.70346,0.11062 2.522,0.33184c0.84067,0.22123 1.63709,0.54201 2.38927,0.96234c0.77431,0.39821 1.47117,0.90704 2.09061,1.52648c0.64157,0.59732 1.19464,1.29419 1.65922,2.09061zM318.68086,190.9674h-1.26101l-2.05742,-2.85385c-0.50883,0.46458 -1.05083,0.89598 -1.62603,1.29419c-0.55307,0.37609 -1.13933,0.71899 -1.75877,1.02871c-0.59731,0.2876 -1.22782,0.50883 -1.8915,0.66368c-0.64157,0.17699 -1.30525,0.26548 -1.99106,0.26548c-1.46011,0 -2.83173,-0.24335 -4.11485,-0.73005c-1.28312,-0.50883 -2.40033,-1.22782 -3.35161,-2.15698c-0.95128,-0.92916 -1.71452,-2.06849 -2.28972,-3.41798c-0.55307,-1.37162 -0.82961,-2.92021 -0.82961,-4.64579c0,-1.61497 0.27654,-3.08614 0.82961,-4.41351c0.5752,-1.34949 1.33844,-2.51093 2.28972,-3.48434c0.95128,-0.97341 2.06849,-1.72558 3.35161,-2.25653c1.28312,-0.53095 2.65474,-0.79642 4.11485,-0.79642c0.68581,0 1.34949,0.08849 1.99106,0.26547c0.66368,0.15485 1.30525,0.38715 1.92469,0.69687c0.61944,0.2876 1.20569,0.6305 1.75876,1.02871c0.5752,0.39821 1.10615,0.82961 1.59285,1.29419l2.05742,-2.45563h1.26101zM313.37138,180.41481c0,-0.70793 -0.1438,-1.40481 -0.4314,-2.09061c-0.26547,-0.6858 -0.64157,-1.28312 -1.12826,-1.79195c-0.46458,-0.53095 -1.01764,-0.95128 -1.65921,-1.261c-0.64157,-0.30972 -1.32737,-0.46458 -2.05743,-0.46458c-0.70794,0 -1.38268,0.12167 -2.02424,0.36503c-0.64157,0.24336 -1.2057,0.60838 -1.6924,1.09508c-0.46458,0.46458 -0.82961,1.05083 -1.09508,1.75876c-0.26547,0.6858 -0.39821,1.48223 -0.39821,2.38927c0,0.90704 0.13274,1.71452 0.39821,2.42245c0.26547,0.70793 0.6305,1.30525 1.09508,1.79195c0.4867,0.46458 1.05083,0.81854 1.6924,1.06189c0.64157,0.24336 1.3163,0.36503 2.02424,0.36503c0.73005,0 1.41586,-0.15485 2.05743,-0.46458c0.64157,-0.33184 1.19463,-0.75218 1.65921,-1.26101c0.4867,-0.53095 0.86279,-1.12827 1.12826,-1.79195c0.2876,-0.6858 0.4314,-1.39373 0.4314,-2.12379zM328.0337,190.9674h-5.30948v-28.96986h5.30948zM337.04627,198.86526v-5.30948l2.9534,0.03319c0.50883,0 0.99553,-0.08849 1.46011,-0.26548c0.4867,-0.15485 0.92916,-0.38715 1.32737,-0.69687c0.42033,-0.2876 0.78535,-0.64156 1.09508,-1.06189c0.30973,-0.39821 0.56413,-0.84067 0.76324,-1.32737c-0.59731,0.26548 -1.19464,0.51988 -1.79195,0.76324c-0.59731,0.24336 -1.19464,0.36503 -1.79195,0.36503c-1.28312,0 -2.48882,-0.22123 -3.61708,-0.66369c-1.10615,-0.46458 -2.0906,-1.10615 -2.9534,-1.92469c-0.84067,-0.84067 -1.50436,-1.85831 -1.99106,-3.05295c-0.4867,-1.19464 -0.73005,-2.53307 -0.73005,-4.0153v-11.44857h5.2763v11.44857c0,0.73005 0.09956,1.37162 0.29866,1.92469c0.22123,0.55307 0.50883,1.01765 0.86279,1.39374c0.37609,0.35396 0.80749,0.61944 1.29419,0.79642c0.4867,0.17699 1.00659,0.26547 1.55966,0.26547c0.53095,0 1.03978,-0.12167 1.52648,-0.36503c0.4867,-0.26548 0.90704,-0.59732 1.261,-0.99553c0.37609,-0.42033 0.66369,-0.88491 0.86279,-1.39374c0.1991,-0.53095 0.29866,-1.07296 0.29866,-1.62603v-11.44857h5.34267v18.08542c-0.02212,1.46011 -0.30972,2.83173 -0.86279,4.11485c-0.55307,1.28312 -1.3163,2.40033 -2.28972,3.35161c-0.95128,0.95128 -2.06849,1.70346 -3.35161,2.25653c-1.261,0.55307 -2.62156,0.82961 -4.08166,0.82961zM359.68488,198.86526h-5.30948v-28.60483h1.26101l2.12379,2.48882c0.46458,-0.46458 0.98447,-0.89598 1.55966,-1.29419c0.5752,-0.39821 1.16145,-0.74111 1.75877,-1.02871c0.61944,-0.2876 1.24994,-0.50883 1.8915,-0.66369c0.66368,-0.17699 1.33843,-0.26548 2.02424,-0.26548c1.46011,0 2.83173,0.26548 4.11485,0.79643c1.28312,0.50883 2.40033,1.23888 3.35161,2.19016c0.95128,0.95128 1.70346,2.10168 2.25653,3.45117c0.5752,1.34949 0.86279,2.84278 0.86279,4.47987c0,1.70346 -0.28759,3.24099 -0.86279,4.61261c-0.55307,1.34949 -1.30525,2.49989 -2.25653,3.45117c-0.95128,0.95128 -2.06849,1.68133 -3.35161,2.19016c-1.28312,0.4867 -2.65474,0.73005 -4.11485,0.73005c-0.46458,0 -0.92916,-0.0553 -1.39374,-0.16592c-0.46458,-0.08849 -0.91809,-0.22123 -1.36055,-0.39821c-0.44246,-0.17699 -0.88491,-0.36503 -1.32737,-0.56413c-0.42033,-0.22123 -0.82961,-0.45352 -1.22782,-0.69687zM370.27065,180.41481c0,-0.86279 -0.1438,-1.6371 -0.4314,-2.3229c-0.26547,-0.70793 -0.64157,-1.30525 -1.12826,-1.79195c-0.46458,-0.4867 -1.02871,-0.85173 -1.69239,-1.09508c-0.64157,-0.26548 -1.3163,-0.39821 -2.02424,-0.39821c-0.73005,0 -1.41586,0.13273 -2.05742,0.39821c-0.64157,0.24336 -1.2057,0.60838 -1.6924,1.09508c-0.46458,0.4867 -0.84067,1.08401 -1.12826,1.79195c-0.26547,0.6858 -0.39821,1.46011 -0.39821,2.3229c0,0.84067 0.13274,1.61496 0.39821,2.32289c0.2876,0.6858 0.66368,1.27207 1.12826,1.75877c0.4867,0.4867 1.05083,0.87385 1.6924,1.16145c0.64157,0.26548 1.32737,0.39821 2.05742,0.39821c0.70794,0 1.38268,-0.13274 2.02424,-0.39821c0.66368,-0.2876 1.22781,-0.67475 1.69239,-1.16145c0.4867,-0.4867 0.86279,-1.07297 1.12826,-1.75877c0.2876,-0.70793 0.4314,-1.48222 0.4314,-2.32289zM389.8497,190.9674h-12.04588v-5.2763h12.04588c0.37609,0 0.68581,-0.12167 0.92916,-0.36503c0.26547,-0.26548 0.39821,-0.5752 0.39821,-0.92916c0,-0.37609 -0.13274,-0.61943 -0.39821,-0.73005c-0.24336,-0.13273 -0.55307,-0.19911 -0.92916,-0.19911h-5.4754c-0.92916,0 -1.79196,-0.16592 -2.58838,-0.49777c-0.79642,-0.35396 -1.49329,-0.8296 -2.09061,-1.42692c-0.5752,-0.59732 -1.03978,-1.29419 -1.39373,-2.09061c-0.33184,-0.81854 -0.49777,-1.68134 -0.49777,-2.58838c0,-0.90704 0.16592,-1.75876 0.49777,-2.55518c0.35396,-0.81854 0.81854,-1.51541 1.39373,-2.09061c0.59731,-0.59732 1.29419,-1.0619 2.09061,-1.39374c0.79642,-0.35396 1.65922,-0.53094 2.58838,-0.53094h10.68533v5.24311h-10.68533c-0.35396,0 -0.66369,0.13274 -0.92916,0.39822c-0.26547,0.26548 -0.39821,0.57519 -0.39821,0.92915c0,0.37609 0.13274,0.69687 0.39821,0.96234c0.26547,0.26548 0.5752,0.39821 0.92916,0.39821h5.4754c0.90704,0 1.75877,0.15486 2.55519,0.46458c0.81854,0.2876 1.51542,0.70793 2.09061,1.261c0.59731,0.53095 1.07296,1.18357 1.42692,1.95787c0.35396,0.75217 0.53095,1.58178 0.53095,2.48882c0,0.90704 -0.17699,1.75877 -0.53095,2.55519c-0.35396,0.79642 -0.82961,1.49329 -1.42692,2.09061c-0.5752,0.59732 -1.27207,1.07297 -2.09061,1.42693c-0.79642,0.33184 -1.64815,0.49776 -2.55519,0.49776zM407.4894,185.89021c0.1991,0.06637 0.39821,0.11062 0.59732,0.13274c0.22123,0.02212 0.4314,0.03319 0.6305,0.03319c0.53095,0 1.02871,-0.06637 1.49329,-0.19911c0.4867,-0.15485 0.94022,-0.36503 1.36055,-0.6305c0.42033,-0.26548 0.78535,-0.58625 1.09508,-0.96234c0.33184,-0.37609 0.60838,-0.79642 0.82961,-1.26101l3.84938,3.88256c-0.4867,0.6858 -1.05083,1.3163 -1.69239,1.8915c-0.64157,0.55307 -1.33844,1.02872 -2.09061,1.42693c-0.73005,0.37609 -1.50436,0.66368 -2.3229,0.86279c-0.81854,0.19911 -1.65921,0.29866 -2.522,0.29866c-1.46011,0 -2.83173,-0.26547 -4.11485,-0.79642c-1.28312,-0.55307 -2.40033,-1.3163 -3.35161,-2.28972c-0.95128,-0.97341 -1.71452,-2.1238 -2.28972,-3.45117c-0.55307,-1.32737 -0.82961,-2.79854 -0.82961,-4.4135c0,-1.63709 0.27654,-3.13038 0.82961,-4.47987c0.5752,-1.34949 1.33844,-2.49989 2.28972,-3.45117c0.95128,-0.95128 2.06849,-1.6924 3.35161,-2.22334c1.28312,-0.53095 2.65474,-0.79642 4.11485,-0.79642c0.86279,0 1.70346,0.09955 2.522,0.29866c0.84067,0.19911 1.62603,0.49776 2.35609,0.89597c0.75218,0.37609 1.44904,0.85173 2.0906,1.42693c0.64157,0.55307 1.2057,1.18357 1.6924,1.8915zM410.21051,175.00577c-0.24336,-0.08849 -0.4867,-0.14381 -0.73005,-0.16593c-0.24336,-0.02212 -0.49777,-0.03318 -0.76324,-0.03318c-0.70794,0 -1.38268,0.13273 -2.02424,0.39821c-0.64157,0.26548 -1.20569,0.64156 -1.69239,1.12826c-0.46458,0.4867 -0.82961,1.07296 -1.09508,1.75877c-0.26547,0.6858 -0.39821,1.46011 -0.39821,2.3229c0,0.19911 0.01106,0.42033 0.03318,0.66368c0.02212,0.24336 0.0553,0.49776 0.09955,0.76324c0.04425,0.24336 0.09955,0.4867 0.16592,0.73005c0.06637,0.22123 0.1438,0.42033 0.23229,0.59732z" fill="url(#color-11)" stroke="url(#color-12)" stroke-width="2" stroke-linecap="square"/></g></g></g></svg>