<svg version="1.1" xmlns="http://www.w3.org/2000/svg" xmlns:xlink="http://www.w3.org/1999/xlink" width="429.61111" height="138.82244" viewBox="0,0,429.61111,138.82244"><g transform="translate(-0.54655,-223.06907)"><g data-paper-data="{&quot;isPaintingLayer&quot;:true}" fill-rule="nonzero" stroke="none" stroke-linecap="butt" stroke-linejoin="miter" stroke-miterlimit="10" stroke-dasharray="" stroke-dashoffset="0" style="mix-blend-mode: normal"><g data-paper-data="{&quot;index&quot;:null}" fill="none" stroke-width="1" font-family="sans-serif" font-weight="normal" font-size="12" text-anchor="start"/><g fill="none" stroke-width="1" font-family="sans-serif" font-weight="normal" font-size="12" text-anchor="start"/><g fill="none" stroke-width="1" font-family="sans-serif" font-weight="normal" font-size="12" text-anchor="start"/><g fill="none" stroke-width="1" font-family="sans-serif" font-weight="normal" font-size="12" text-anchor="start"/><g fill="#000000" stroke-width="0"><path d="M336.31607,258.93093v-35.62056h92.34009c0,1.03304 0,2.06609 0,3.09913c0,1.65786 0.56409,3.37474 0.12038,4.97212c-0.29953,1.07833 -1.25025,1.91242 -1.5015,3.003c-0.88058,3.82223 -1.01023,8.04125 0.22216,11.76497c0.40884,1.23533 1.6229,2.06339 2.66046,2.96517c0,2.44159 0,4.88317 0,7.32476c0,0.79923 -0.02575,1.6337 -0.06425,2.4914z"/><path d="M335.81607,258.93093v-35.62056h73.86787v35.62056z"/><path d="M335.98272,231.11243v-8.04336h92.67344c0,1.11348 0,2.22696 0,3.34043c0,1.56511 0.50274,3.18282 0.18566,4.70293z"/><path d="M336.31607,258.66205v-8.04335h93.84159c0,1.94028 0,3.88056 0,5.82083c0,0.71547 -0.02063,1.45918 -0.05258,2.22252z" data-paper-data="{&quot;index&quot;:null}"/></g><g fill="#000000" stroke-width="0"><path d="M75.54655,361.39151v-109.19949h88.59159v109.19949z"/><path d="M75.54655,270.8915v-39h88.5v39z"/><g><path d="M75.54959,262.37282v-38.19948h88.58859v38.19948c0,0 -14.09197,0 -18.09159,0c-2.16328,0 -6.20305,-1.07519 -7.65229,-2.37041c-1.37049,-1.22484 -3.46115,-2.64644 -4.4628,-3.54163c-1.80788,-1.61574 -4.12476,-3.55635 -6.88328,-3.56088c-2.59516,-0.00426 -11.06935,-0.01325 -15.00161,-0.0197c-2.58255,-0.00424 -6.60406,0.97407 -7.66394,2.28333c-0.7197,0.88905 -2.00738,2.47971 -3.19041,3.9411c-1.39566,1.72404 -5.73017,3.26818 -8.14567,3.26818c-4.66342,0 -17.497,0 -17.497,0z"/><path d="M164.13817,223.83383v7.13617h-88.59159v-7.13617z" data-paper-data="{&quot;index&quot;:null}"/></g><path d="M75.54655,361.89151v-18.19948h88.59159v18.19948z"/></g><g fill="#000000" stroke-width="0"><path d="M158.20424,361.39151v-109.19949h88.59159v109.19949z"/><path d="M158.20424,270.8915v-39h88.5v39z"/><g><path d="M158.20721,262.37282v-38.19948h88.58859v38.19948c0,0 -14.09197,0 -18.09159,0c-2.16328,0 -6.20305,-1.07519 -7.65229,-2.37041c-1.37049,-1.22484 -3.46116,-2.64644 -4.4628,-3.54163c-1.80788,-1.61574 -4.12476,-3.55635 -6.88328,-3.56088c-2.59517,-0.00426 -11.06935,-0.01325 -15.00161,-0.0197c-2.58255,-0.00424 -6.60407,0.97407 -7.66394,2.28333c-0.7197,0.88905 -2.00738,2.47971 -3.19041,3.9411c-1.39566,1.72404 -5.73017,3.26818 -8.14567,3.26818c-4.66341,0 -17.49699,0 -17.49699,0z"/><path d="M246.79584,223.83383v7.13617h-88.59159v-7.13617z" data-paper-data="{&quot;index&quot;:null}"/></g><path d="M158.20424,361.89151v-18.19948h88.59159v18.19948z"/></g><g fill="#000000" stroke-width="0"><path d="M319.57807,361.39151v-109.19949h56.10888c0,3.07707 0,6.15414 0,9.2312c0,3 0,6 0,9c0,1.33333 -0.05516,2.66781 0,4c0.02198,0.53081 0.47085,1.10297 0.23093,1.57698c-0.64749,1.27922 -2.03396,2.07391 -2.71693,3.33454c-1.77793,3.28171 -1.45563,4.3441 -1.49209,7.64506c-0.33333,1.66667 -0.84649,3.30727 -1,5c-0.12472,1.37533 0.51387,2.80161 0.17119,4.13939c-0.29823,1.16426 -1.69311,1.83799 -2,3c-1.00245,3.79575 -0.19309,9.3447 -0.19309,13.30403c0,6.66667 0,13.33333 0,20c0,3.73188 0.50025,7.86098 0.0219,11.55658c-0.29908,2.31064 -0.64296,4.6521 -0.95865,7.00513c-1.01892,1.72581 -1.72241,3.65571 -2.60567,5.46121c-0.63206,1.29202 -1.84101,2.29847 -2.2645,3.67305c-0.12734,0.41333 -0.23631,0.83899 -0.32606,1.27231z"/><path d="M319.57807,270.8915v-39h56.10888c0,9.8439 0,19.68781 0,29.53171c0,3 0,6 0,9c0,0.15608 -0.00076,0.31218 -0.002,0.46829z"/><g><path d="M319.5811,224.17336h56.66829c-0.56243,1.12495 -0.56243,2.24986 -0.56243,2.24986c0,9.39339 0,18.78679 0,28.18018c-1.35511,-0.953 -2.89621,-1.70067 -4.60723,-1.70348c-2.59516,-0.00426 -11.06935,-0.01325 -15.00161,-0.0197c-2.58255,-0.00424 -6.60406,0.97407 -7.66394,2.28333c-0.7197,0.88905 -2.00738,2.47971 -3.19041,3.9411c-1.39566,1.72404 -5.73017,3.26818 -8.14567,3.26818c-4.66342,0 -17.497,0 -17.497,0z"/><path d="M319.57809,231.13666v-7.13617h56.76229c-0.65345,1.17953 -0.65345,2.42273 -0.65345,2.42273c0,1.57115 0,3.14229 0,4.71344z" data-paper-data="{&quot;index&quot;:null}"/></g><path d="M319.57807,361.89151v-18.19948h49.16598c-0.01109,0.09621 -0.02282,0.19214 -0.0352,0.28778c-0.29908,2.31064 -0.64296,4.6521 -0.95865,7.00513c-1.01892,1.72581 -1.72241,3.65571 -2.60567,5.46121c-0.63206,1.29202 -1.84101,2.29847 -2.2645,3.67305c-0.17601,0.57132 -0.31693,1.1662 -0.42051,1.77231z"/></g><g fill="#000000" stroke-width="0"><path d="M233.20422,361.39151v-109.19949h88.59159v109.19949z"/><path d="M233.20422,270.8915v-39h88.5v39z"/><g><path d="M233.20726,262.37282v-38.19948h88.58859v38.19948c0,0 -14.09197,0 -18.09159,0c-2.16328,0 -6.20305,-1.07519 -7.65229,-2.37041c-1.37049,-1.22484 -3.46115,-2.64644 -4.4628,-3.54163c-1.80788,-1.61574 -4.12476,-3.55635 -6.88328,-3.56088c-2.59516,-0.00426 -11.06935,-0.01325 -15.00161,-0.0197c-2.58255,-0.00424 -6.60406,0.97407 -7.66394,2.28333c-0.7197,0.88905 -2.00738,2.47971 -3.19041,3.9411c-1.39566,1.72404 -5.73017,3.26818 -8.14567,3.26818c-4.66342,0 -17.497,0 -17.497,0z"/><path d="M321.7958,223.83383v7.13617h-88.59159v-7.13617z" data-paper-data="{&quot;index&quot;:null}"/></g><path d="M233.20422,361.89151v-18.19948h88.59159v18.19948z"/></g><g fill="#000000" stroke-width="0"><path d="M0.54655,361.39151v-109.19949h88.59159v109.19949z"/><path d="M0.54655,270.8915v-39h88.5v39z"/><g><path d="M0.54955,262.37282v-38.19948h88.58859v38.19948c0,0 -14.09197,0 -18.09159,0c-2.16328,0 -6.20305,-1.07519 -7.65229,-2.37041c-1.37049,-1.22484 -3.46116,-2.64644 -4.4628,-3.54163c-1.80788,-1.61574 -4.12476,-3.55635 -6.88328,-3.56088c-2.59517,-0.00426 -11.06935,-0.01325 -15.00161,-0.0197c-2.58255,-0.00424 -6.60407,0.97407 -7.66394,2.28333c-0.7197,0.88905 -2.00738,2.47971 -3.19041,3.9411c-1.39566,1.72404 -5.73017,3.26818 -8.14567,3.26818c-4.66341,0 -17.49699,0 -17.49699,0z"/><path d="M89.13818,223.83383v7.13617h-88.59159v-7.13617z" data-paper-data="{&quot;index&quot;:null}"/></g><path d="M0.54655,361.89151v-18.19948h88.59159v18.19948z"/></g></g></g></svg>