<svg version="1.1" xmlns="http://www.w3.org/2000/svg" xmlns:xlink="http://www.w3.org/1999/xlink" width="124.28484" height="39.37681" viewBox="0,0,124.28484,39.37681"><defs><linearGradient x1="166.43394" y1="153.58775" x2="166.43394" y2="191.78722" gradientUnits="userSpaceOnUse" id="color-1"><stop offset="0" stop-color="#285329"/><stop offset="1" stop-color="#1e3e1e"/></linearGradient><linearGradient x1="166.43242" y1="153.4982" x2="166.43242" y2="160.63437" gradientUnits="userSpaceOnUse" id="color-2"><stop offset="0" stop-color="#356f36"/><stop offset="1" stop-color="#356f36" stop-opacity="0"/></linearGradient><linearGradient x1="237.32852" y1="180.00001" x2="242.67148" y2="180.00001" gradientUnits="userSpaceOnUse" id="color-3"><stop offset="0" stop-color="#254e26"/><stop offset="1" stop-color="#1e3e1e"/></linearGradient><linearGradient x1="237.32852" y1="180" x2="242.67148" y2="180" gradientUnits="userSpaceOnUse" id="color-4"><stop offset="0" stop-color="#326a33"/><stop offset="1" stop-color="#326a33" stop-opacity="0"/></linearGradient><linearGradient x1="246.42148" y1="181.875" x2="241.07852" y2="181.875" gradientUnits="userSpaceOnUse" id="color-5"><stop offset="0" stop-color="#254e26"/><stop offset="1" stop-color="#1e3e1e"/></linearGradient><linearGradient x1="246.42148" y1="181.875" x2="241.07852" y2="181.875" gradientUnits="userSpaceOnUse" id="color-6"><stop offset="0" stop-color="#326a33"/><stop offset="1" stop-color="#326a33" stop-opacity="0"/></linearGradient></defs><g transform="translate(-122.13664,-153.4982)"><g data-paper-data="{&quot;isPaintingLayer&quot;:true}" fill-rule="nonzero" stroke="none" stroke-width="0" stroke-linecap="butt" stroke-linejoin="miter" stroke-miterlimit="10" stroke-dasharray="" stroke-dashoffset="0" style="mix-blend-mode: normal"><g><path d="M122.13963,191.78722v-38.19948h88.58859v38.19948c0,0 -14.09197,0 -18.09159,0c-2.16328,0 -6.20305,-1.07519 -7.65229,-2.37041c-1.37049,-1.22484 -3.46116,-2.64644 -4.4628,-3.54163c-1.80788,-1.61574 -4.12476,-3.55635 -6.88328,-3.56088c-2.59517,-0.00426 -11.06935,-0.01325 -15.00161,-0.0197c-2.58255,-0.00424 -6.60407,0.97407 -7.66394,2.28333c-0.7197,0.88905 -2.00738,2.47971 -3.19041,3.9411c-1.39566,1.72404 -5.73017,3.26818 -8.14567,3.26818c-4.66341,0 -17.49699,0 -17.49699,0z" fill="url(#color-1)"/><path d="M210.72823,153.4982v7.13617h-88.59159v-7.13617z" data-paper-data="{&quot;index&quot;:null}" fill="url(#color-2)"/></g><g><g><path d="M237.32852,192.62501c0,0 2.43809,-7.08613 2.54765,-11.50502c0.13506,-5.44758 -2.04765,-13.99498 -2.04765,-13.99498c0,0 3.38589,8.5553 4,13.75c1.23224,10.4234 0.75,12 0.75,12z" fill="url(#color-3)"/><path d="M237.32852,192.625c0,0 2.43809,-7.08612 2.54764,-11.50501c0.13506,-5.44758 -2.04764,-13.99499 -2.04764,-13.99499c0,0 3.38589,8.5553 4,13.75c1.23224,10.4234 0.75,12 0.75,12z" fill="url(#color-4)"/></g><g data-paper-data="{&quot;index&quot;:null}"><path d="M241.17148,192.87501c0,0 -0.48224,-1.347 0.75,-10.25243c0.61411,-4.43819 4,-11.74758 4,-11.74758c0,0 -2.18271,7.30264 -2.04765,11.95688c0.10956,3.77536 2.54765,9.82953 2.54765,9.82953z" fill="url(#color-5)"/><path d="M241.17148,192.875c0,0 -0.48224,-1.347 0.75,-10.25243c0.61411,-4.43819 4,-11.74757 4,-11.74757c0,0 -2.1827,7.30264 -2.04764,11.95689c0.10955,3.77536 2.54764,9.82952 2.54764,9.82952z" fill="url(#color-6)"/></g></g></g></g></svg>