<svg version="1.1" xmlns="http://www.w3.org/2000/svg" xmlns:xlink="http://www.w3.org/1999/xlink" width="70.15383" height="96.16507" viewBox="0,0,70.15383,96.16507"><defs><linearGradient x1="240.24671" y1="245.04628" x2="234.55573" y2="202.59283" gradientUnits="userSpaceOnUse" id="color-1"><stop offset="0" stop-color="#1a1a1a"/><stop offset="1" stop-color="#1a1a1a" stop-opacity="0"/></linearGradient><linearGradient x1="226.73711" y1="193.34987" x2="198.39198" y2="197.1496" gradientUnits="userSpaceOnUse" id="color-2"><stop offset="0" stop-color="#1a1a1a" stop-opacity="0"/><stop offset="1" stop-color="#1a1a1a"/></linearGradient><linearGradient x1="227.77055" y1="152.73806" x2="228.94104" y2="158.81011" gradientUnits="userSpaceOnUse" id="color-3"><stop offset="0" stop-color="#000000"/><stop offset="1" stop-color="#151515"/></linearGradient><linearGradient x1="226.81323" y1="153.37244" x2="227.39291" y2="156.37954" gradientUnits="userSpaceOnUse" id="color-4"><stop offset="0" stop-color="#292929"/><stop offset="1" stop-color="#313131"/></linearGradient><linearGradient x1="218.09245" y1="154.80362" x2="219.26294" y2="160.87567" gradientUnits="userSpaceOnUse" id="color-5"><stop offset="0" stop-color="#000000"/><stop offset="1" stop-color="#151515"/></linearGradient><linearGradient x1="219.21697" y1="155.03669" x2="219.79664" y2="158.04378" gradientUnits="userSpaceOnUse" id="color-6"><stop offset="0" stop-color="#292929"/><stop offset="1" stop-color="#313131"/></linearGradient><linearGradient x1="160.61941" y1="171.85644" x2="215.27261" y2="161.32109" gradientUnits="userSpaceOnUse" id="color-7"><stop offset="0" stop-color="#1a1a1a"/><stop offset="1" stop-color="#1a1a1a" stop-opacity="0"/></linearGradient><linearGradient x1="160.61941" y1="171.85644" x2="215.27261" y2="161.32109" gradientUnits="userSpaceOnUse" id="color-8"><stop offset="0" stop-color="#1a1a1a"/><stop offset="1" stop-color="#1a1a1a" stop-opacity="0"/></linearGradient><linearGradient x1="229.89111" y1="167.13312" x2="236.9253" y2="203.62369" gradientUnits="userSpaceOnUse" id="color-9"><stop offset="0" stop-color="#1a1a1a" stop-opacity="0"/><stop offset="1" stop-color="#1a1a1a"/></linearGradient><linearGradient x1="229.89111" y1="167.13312" x2="236.9253" y2="203.62369" gradientUnits="userSpaceOnUse" id="color-10"><stop offset="0" stop-color="#1a1a1a" stop-opacity="0"/><stop offset="1" stop-color="#1a1a1a"/></linearGradient><linearGradient x1="235.79873" y1="150.95786" x2="237.12641" y2="157.84536" gradientUnits="userSpaceOnUse" id="color-11"><stop offset="0" stop-color="#000000"/><stop offset="1" stop-color="#151515"/></linearGradient><linearGradient x1="237.07429" y1="151.22221" x2="237.7318" y2="154.63317" gradientUnits="userSpaceOnUse" id="color-12"><stop offset="0" stop-color="#292929"/><stop offset="1" stop-color="#313131"/></linearGradient></defs><g transform="translate(-204.78232,-132.29248)"><g data-paper-data="{&quot;isPaintingLayer&quot;:true}" fill-rule="nonzero" stroke-linejoin="miter" stroke-miterlimit="10" stroke-dasharray="" stroke-dashoffset="0" style="mix-blend-mode: normal"><g fill="none" stroke="#000000" stroke-width="1.5" stroke-linecap="round"><path d="M259.75429,185.27846c-1.41223,-0.37839 -3.0589,-1.19387 -4.96443,-2.00515c-0.89247,-0.37997 -1.94331,-0.45064 -2.81935,-0.83537c-3.12419,-1.37205 -5.68326,-2.94155 -5.68326,-2.94155"/><path d="M274.18615,184.63629c-4.50821,0.85626 -14.64169,0.64363 -14.64169,0.64363"/></g><g fill="none" stroke="#000000" stroke-width="1.5" stroke-linecap="round"><path d="M231.17194,210.49552c0,0 1.86928,1.94138 3.77428,4.09602c0.39403,0.44566 0.99927,0.78513 1.35751,1.24618c0.75126,0.96689 1.0935,2.09605 1.52898,2.88792"/><path d="M237.51545,218.10966c0,0 3.59708,6.29311 4.47009,9.59789"/></g><g fill="none" stroke="#000000" stroke-width="1.5" stroke-linecap="round"><path d="M243.70651,208.74532c0,0 -1.51082,7.0894 -3.06181,10.13542"/><path d="M240.97579,218.27203c0,0 -0.17084,3.50679 -2.70167,4.79683c-0.81716,0.41654 -0.64896,1.34805 -1.03848,1.95887c-0.5777,0.90591 -1.15703,1.73019 -1.68437,2.33694"/></g><g stroke="none" stroke-width="1" stroke-linecap="butt"><g><path d="M251.33377,204.65213c0.20833,1.55409 -0.8781,2.97688 -2.42703,3.18451c-5.11143,0.6852 -17.62665,2.36289 -22.73289,3.04739c-1.54891,0.20763 -2.97688,-0.87811 -3.18521,-2.43218c-0.6845,-5.10625 -4.25345,-31.72981 -4.93865,-36.84122c-0.20763,-1.54891 0.88396,-2.97242 2.43287,-3.18005c5.10625,-0.6845 17.62149,-2.3622 22.73289,-3.04739c1.54891,-0.20763 2.97172,0.8788 3.17936,2.42772c0.23264,1.73544 1.79742,13.40838 1.79742,13.40838l-1.32062,1.43822l1.66939,1.16351c0,0 2.4226,18.07205 2.79245,20.83111z" fill="#ffffff"/><path d="M251.33378,204.65213c0.20833,1.55409 -0.8781,2.97688 -2.42703,3.18451c-5.11143,0.6852 -17.62665,2.36289 -22.73289,3.04739c-1.54891,0.20763 -2.97688,-0.87811 -3.18521,-2.43218c-0.08037,-0.59957 -0.21822,-1.62789 -0.21822,-1.62789l1.33722,-1.31432l-1.65278,-1.03963c0,0 -3.90788,-29.15185 -4.40488,-32.85939c-0.20763,-1.54891 0.88396,-2.97242 2.43287,-3.18005c5.10625,-0.6845 17.62149,-2.3622 22.73289,-3.04739c1.54891,-0.20763 2.97172,0.8788 3.17936,2.42772c0.19743,1.47272 1.78082,13.28449 1.78082,13.28449l-1.4279,1.57872l1.79329,1.14691c0,0 2.39923,17.89767 2.79245,20.83111z" fill="url(#color-1)"/><path d="M251.33378,204.65213c0.20833,1.55409 -0.8781,2.97688 -2.42703,3.18451c-5.11143,0.6852 -17.62665,2.36289 -22.73289,3.04739c-1.54891,0.20763 -2.97688,-0.87811 -3.18521,-2.43218c-0.0365,-0.27231 -0.18501,-1.38011 -0.18501,-1.38011l1.18012,-1.5455l-1.5455,-1.18012c0,0 -3.81642,-28.46963 -4.38827,-32.7355c-0.20763,-1.54891 0.88396,-2.97242 2.43287,-3.18005c5.10625,-0.6845 17.62149,-2.3622 22.73289,-3.04739c1.54891,-0.20763 2.97172,0.8788 3.17936,2.42772c0.21967,1.63873 1.78082,13.28449 1.78082,13.28449l-1.30402,1.5621l1.70261,1.4113c0,0 2.38581,17.79755 2.75925,20.58334z" fill="url(#color-2)"/></g><g fill="none" font-family="sans-serif" font-weight="normal" font-size="12" text-anchor="start"><g/><g data-paper-data="{&quot;index&quot;:null}"/></g></g><g><g data-paper-data="{&quot;index&quot;:null}" fill="#d6c3c8" stroke-width="0"><g stroke="none" stroke-linecap="butt"><path d="M207.41008,143.22895c4.552,-0.87748 24.13626,-4.65268 35.15938,-6.77758c0.00861,0.05848 0.01856,0.11703 0.02985,0.17564c0.37839,1.96296 2.14332,3.30693 4.08374,3.21232c-0.24779,0.66096 -0.32229,1.39633 -0.17889,2.1402c0.38655,2.00528 2.22009,3.3646 4.2095,3.20418c0.42291,2.02132 2.32227,3.36786 4.34848,3.12628c1.10278,5.72078 2.28964,11.87776 2.93522,15.22674c0.33887,1.75793 -0.80944,3.4622 -2.57323,3.80221c-5.7953,1.11715 -36.01155,6.94186 -41.81271,8.06013c-1.75793,0.33887 -3.45747,-0.81642 -3.79634,-2.57436c-1.11715,-5.7953 -3.85522,-19.99939 -4.97351,-25.80057c-0.33887,-1.75793 0.81055,-3.45632 2.56851,-3.7952z"/><path d=""/><path d="M242.56945,136.45136c0.00861,0.05848 0.01856,0.11703 0.02985,0.17565c0.37839,1.96296 2.14332,3.30693 4.08374,3.21232c-0.24779,0.66096 -0.32229,1.39633 -0.17889,2.1402c0.38655,2.00528 2.22009,3.3646 4.2095,3.20418c0.42291,2.02132 2.32227,3.36786 4.34848,3.12628c1.10278,5.72078 2.28964,11.87776 2.93522,15.22674c0.33887,1.75793 -0.80944,3.4622 -2.57323,3.80221c-5.79531,1.11715 -36.01155,6.94186 -41.81271,8.06013c-1.75794,0.33887 -3.45748,-0.81642 -3.79634,-2.57435c-1.11715,-5.79531 -3.85522,-19.99939 -4.97351,-25.80057c-0.33887,-1.75793 0.81056,-3.45633 2.5685,-3.79521c4.55198,-0.87747 24.13626,-4.65268 35.15939,-6.77758z"/><path d=""/><path d="M242.56945,136.45136c0.00861,0.05848 0.01856,0.11703 0.02985,0.17565c0.37839,1.96296 2.14332,3.30693 4.08374,3.21232c-0.24779,0.66096 -0.32229,1.39633 -0.17889,2.1402c0.38655,2.00528 2.22009,3.3646 4.2095,3.20418c0.42291,2.02132 2.32227,3.36786 4.34848,3.12628c1.10278,5.72078 2.28964,11.87776 2.93522,15.22674c0.33887,1.75793 -0.80944,3.4622 -2.57323,3.80221c-5.79531,1.11715 -36.01155,6.94186 -41.81271,8.06013c-1.75794,0.33887 -3.45748,-0.81642 -3.79634,-2.57435c-1.11715,-5.79531 -3.85522,-19.99939 -4.97351,-25.80057c-0.33887,-1.75793 0.81056,-3.45633 2.5685,-3.79521c4.55198,-0.87747 24.13626,-4.65268 35.15939,-6.77758z"/><path d=""/></g><g stroke-linecap="round"><g><path d="M228.94104,158.81008l-1.17049,-6.07203" stroke="url(#color-3)"/><path d="M227.39291,156.37954l-0.57968,-3.0071" stroke="url(#color-4)"/></g><g data-paper-data="{&quot;index&quot;:null}"><path d="M218.09246,154.80363l1.17049,6.07203" stroke="url(#color-5)"/><path d="M219.79664,158.04379l-0.57968,-3.0071" stroke="url(#color-6)"/></g></g></g><g><g stroke="none" stroke-width="1" stroke-linecap="butt"><path d="M257.53418,135.27311c1.26846,6.58027 4.37427,22.69197 5.64145,29.26559c0.38439,1.99403 -0.91814,3.92716 -2.91218,4.31155c-6.58027,1.26846 -40.85456,7.87543 -47.42818,9.14261c-2.00065,0.38565 -3.92846,-0.92478 -4.31284,-2.91881c-0.73227,-3.79874 -2.07854,-10.78262 -3.32942,-17.27169c2.23551,-0.59996 3.66781,-2.81874 3.26086,-5.12556c2.16254,-0.66991 3.52014,-2.87439 3.08166,-5.14899c-0.16266,-0.84379 -0.55117,-1.58673 -1.09077,-2.17825c2.08319,-0.71854 3.37502,-2.87794 2.9458,-5.10453c-0.01282,-0.06648 -0.02704,-0.13234 -0.04262,-0.19754c2.79157,-0.53812 9.13626,-1.76118 9.13626,-1.76118l2.50094,1.35104l1.62314,-2.14603c0,0 23.62349,-4.55384 26.62097,-5.13165c1.99404,-0.38439 3.92053,0.91942 4.30492,2.91343z" fill="#ffffff"/><path d="" fill="#ffffff"/><path d="M253.22928,132.35967c1.99404,-0.38439 3.92053,0.91943 4.30491,2.91345c1.26846,6.58027 4.37427,22.69196 5.64145,29.26559c0.38439,1.99403 -0.91813,3.92716 -2.91218,4.31155c-6.58027,1.26846 -40.85456,7.87543 -47.42819,9.14261c-2.00065,0.38565 -3.92846,-0.92478 -4.31284,-2.91881c-0.73227,-3.79874 -2.07854,-10.78262 -3.32942,-17.27169c2.23551,-0.59996 3.66781,-2.81874 3.26086,-5.12556c2.16254,-0.66991 3.52014,-2.87439 3.08166,-5.14899c-0.16266,-0.84379 -0.55117,-1.58673 -1.09077,-2.17825c2.08319,-0.71854 3.37502,-2.87794 2.9458,-5.10453c-0.01282,-0.06648 -0.02704,-0.13234 -0.04262,-0.19755c3.15866,-0.60889 8.74349,-1.68546 8.74349,-1.68546l2.81089,1.90234l1.70594,-2.77304c0,0 23.79713,-4.58732 26.62098,-5.13166z" fill="url(#color-7)"/><path d="" fill="url(#color-8)"/><path d="M253.22928,132.35967c1.99404,-0.38439 3.92053,0.91943 4.30491,2.91345c1.26846,6.58027 4.37427,22.69196 5.64145,29.26559c0.38439,1.99403 -0.91813,3.92716 -2.91218,4.31155c-6.58027,1.26846 -40.85456,7.87543 -47.42819,9.14261c-2.00065,0.38565 -3.92846,-0.92478 -4.31284,-2.91881c-0.73227,-3.79874 -2.07854,-10.78262 -3.32942,-17.27169c2.23551,-0.59996 3.66781,-2.81874 3.26086,-5.12556c2.16254,-0.66991 3.52014,-2.87439 3.08166,-5.14899c-0.16266,-0.84379 -0.55117,-1.58673 -1.09077,-2.17825c2.08319,-0.71854 3.37502,-2.87794 2.9458,-5.10453c-0.01282,-0.06648 -0.02704,-0.13234 -0.04262,-0.19755c1.9998,-0.3855 8.5471,-1.6476 8.5471,-1.6476l3.00727,1.86448l2.09872,-2.84875c0,0 22.66795,-4.36964 26.22822,-5.05594z" fill="url(#color-9)"/><path d="" fill="url(#color-10)"/></g><g fill="none" stroke-linecap="round"><g><path d="M237.12642,157.84536l-1.32769,-6.8875" stroke="url(#color-11)" stroke-width="5"/><path d="M237.07428,151.22221l0.65752,3.41096" stroke="url(#color-12)" stroke-width="2.5"/></g><g data-paper-data="{&quot;index&quot;:null}"><path d="M246.86089,149.05223l1.32769,6.8875" stroke="#adadad" stroke-width="5"/><path d="M246.43253,153.18274l-0.65752,-3.41096" stroke="#c5c5c5" stroke-width="2.5"/></g></g></g><path d="M228.88953,153.55192l-1.17356,-6.08792l23.95891,-4.6185l1.58998,8.24815l-10.81771,-1.17361l-6.39695,-1.79729l-6.11843,1.49975z" fill="#ffffff" stroke="none" stroke-width="0" stroke-linecap="butt"/></g><g fill="none" stroke="#000000" stroke-width="1.5" stroke-linecap="round"><path d="M231.42148,187.43326c-4.01541,-2.22118 -11.67579,-8.85828 -11.67579,-8.85828"/><path d="M245.59892,190.26554c-1.66447,-0.09296 -3.98033,-0.89553 -6.29935,-1.3785c-1.6021,-0.33366 -3.22407,-0.30896 -4.55875,-0.63364c-2.05125,-0.49898 -3.50688,-0.89317 -3.50688,-0.89317"/></g></g></g></svg>