<svg version="1.1" xmlns="http://www.w3.org/2000/svg" xmlns:xlink="http://www.w3.org/1999/xlink" width="490.28083" height="138.05769" viewBox="0,0,490.28083,138.05769"><g transform="translate(-0.54655,-223.83386)"><g data-paper-data="{&quot;isPaintingLayer&quot;:true}" fill="#000000" fill-rule="nonzero" stroke="none" stroke-width="0" stroke-linecap="butt" stroke-linejoin="miter" stroke-miterlimit="10" stroke-dasharray="" stroke-dashoffset="0" style="mix-blend-mode: normal"><g><path d="M75.54655,361.39155v-109.19949h88.59159v109.19949z"/><path d="M75.54655,270.89153v-39h88.5v39z"/><g><path d="M75.54959,262.37283v-38.19948h88.58859v38.19948c0,0 -14.09197,0 -18.09159,0c-2.16328,0 -6.20305,-1.07519 -7.65229,-2.37041c-1.37049,-1.22484 -3.46115,-2.64644 -4.4628,-3.54163c-1.80788,-1.61574 -4.12476,-3.55635 -6.88328,-3.56088c-2.59516,-0.00426 -11.06935,-0.01325 -15.00161,-0.0197c-2.58255,-0.00424 -6.60406,0.97407 -7.66394,2.28333c-0.7197,0.88905 -2.00738,2.47971 -3.19041,3.9411c-1.39566,1.72404 -5.73017,3.26818 -8.14567,3.26818c-4.66342,0 -17.497,0 -17.497,0z"/><path d="M164.13817,223.83386v7.13617h-88.59159v-7.13617z" data-paper-data="{&quot;index&quot;:null}"/></g><path d="M75.54655,361.89155v-18.19948h88.59159v18.19948z"/></g><g><path d="M158.20425,361.39155v-109.19949h88.59159v109.19949z"/><path d="M158.20425,270.89153v-39h88.5v39z"/><g><path d="M158.20721,262.37283v-38.19948h88.58859v38.19948c0,0 -14.09197,0 -18.09159,0c-2.16328,0 -6.20305,-1.07519 -7.65229,-2.37041c-1.37049,-1.22484 -3.46116,-2.64644 -4.4628,-3.54163c-1.80788,-1.61574 -4.12476,-3.55635 -6.88328,-3.56088c-2.59517,-0.00426 -11.06935,-0.01325 -15.00161,-0.0197c-2.58255,-0.00424 -6.60407,0.97407 -7.66394,2.28333c-0.7197,0.88905 -2.00738,2.47971 -3.19041,3.9411c-1.39566,1.72404 -5.73017,3.26818 -8.14567,3.26818c-4.66341,0 -17.49699,0 -17.49699,0z"/><path d="M246.79585,223.83386v7.13617h-88.59159v-7.13617z" data-paper-data="{&quot;index&quot;:null}"/></g><path d="M158.20425,361.89155v-18.19948h88.59159v18.19948z"/></g><g><path d="M233.20423,361.39155v-109.19949h88.59159v109.19949z"/><path d="M233.20423,270.89153v-39h88.5v39z"/><g><path d="M233.20727,262.37283v-38.19948h88.58859v38.19948c0,0 -14.09197,0 -18.09159,0c-2.16328,0 -6.20305,-1.07519 -7.65229,-2.37041c-1.37049,-1.22484 -3.46115,-2.64644 -4.4628,-3.54163c-1.80788,-1.61574 -4.12476,-3.55635 -6.88328,-3.56088c-2.59516,-0.00426 -11.06935,-0.01325 -15.00161,-0.0197c-2.58255,-0.00424 -6.60406,0.97407 -7.66394,2.28333c-0.7197,0.88905 -2.00738,2.47971 -3.19041,3.9411c-1.39566,1.72404 -5.73017,3.26818 -8.14567,3.26818c-4.66342,0 -17.497,0 -17.497,0z"/><path d="M321.7958,223.83386v7.13617h-88.59159v-7.13617z" data-paper-data="{&quot;index&quot;:null}"/></g><path d="M233.20423,361.89155v-18.19948h88.59159v18.19948z"/></g><g><path d="M0.54655,361.39155v-109.19949h88.59159v109.19949z"/><path d="M0.54655,270.89153v-39h88.5v39z"/><g><path d="M0.54955,262.37283v-38.19948h88.58859v38.19948c0,0 -14.09197,0 -18.09159,0c-2.16328,0 -6.20305,-1.07519 -7.65229,-2.37041c-1.37049,-1.22484 -3.46116,-2.64644 -4.4628,-3.54163c-1.80788,-1.61574 -4.12476,-3.55635 -6.88328,-3.56088c-2.59517,-0.00426 -11.06935,-0.01325 -15.00161,-0.0197c-2.58255,-0.00424 -6.60407,0.97407 -7.66394,2.28333c-0.7197,0.88905 -2.00738,2.47971 -3.19041,3.9411c-1.39566,1.72404 -5.73017,3.26818 -8.14567,3.26818c-4.66341,0 -17.49699,0 -17.49699,0z"/><path d="M89.13819,223.83386v7.13617h-88.59159v-7.13617z" data-paper-data="{&quot;index&quot;:null}"/></g><path d="M0.54655,361.89155v-18.19948h88.59159v18.19948z"/></g><g><path d="M402.23579,361.39155v-109.19949h88.59159v109.19949z"/><path d="M402.23579,270.89153v-39h88.5v39z"/><g><path d="M402.23879,262.37283v-38.19948h88.58859v38.19948c0,0 -14.09197,0 -18.09159,0c-2.16328,0 -6.20305,-1.07519 -7.65229,-2.37041c-1.37049,-1.22484 -3.46116,-2.64644 -4.4628,-3.54163c-1.80788,-1.61574 -4.12476,-3.55635 -6.88328,-3.56088c-2.59517,-0.00426 -11.06935,-0.01325 -15.00161,-0.0197c-2.58255,-0.00424 -6.60407,0.97407 -7.66394,2.28333c-0.7197,0.88905 -2.00738,2.47971 -3.19041,3.9411c-1.39566,1.72404 -5.73017,3.26818 -8.14567,3.26818c-4.66341,0 -17.49699,0 -17.49699,0z"/><path d="M490.82737,224.00053v7.13617h-88.59159v-7.13617z" data-paper-data="{&quot;index&quot;:null}"/></g><path d="M402.23579,361.89155v-18.19948h88.59159v18.19948z"/></g><g><path d="M319.57807,361.39155v-109.19949h88.59159v109.19949z"/><path d="M319.57807,270.89153v-39h88.5v39z"/><g><path d="M319.5811,262.37283v-38.19948h88.58859v38.19948c0,0 -14.09197,0 -18.09159,0c-2.16328,0 -6.20305,-1.07519 -7.65229,-2.37041c-1.37049,-1.22484 -3.46115,-2.64644 -4.4628,-3.54163c-1.80788,-1.61574 -4.12476,-3.55635 -6.88328,-3.56088c-2.59516,-0.00426 -11.06935,-0.01325 -15.00161,-0.0197c-2.58255,-0.00424 -6.60406,0.97407 -7.66394,2.28333c-0.7197,0.88905 -2.00738,2.47971 -3.19041,3.9411c-1.39566,1.72404 -5.73017,3.26818 -8.14567,3.26818c-4.66342,0 -17.497,0 -17.497,0z"/><path d="M408.16972,224.00053v7.13617h-88.59159v-7.13617z" data-paper-data="{&quot;index&quot;:null}"/></g><path d="M319.57807,361.89155v-18.19948h88.59159v18.19948z"/></g></g></g></svg>