<svg version="1.1" xmlns="http://www.w3.org/2000/svg" xmlns:xlink="http://www.w3.org/1999/xlink" width="111" height="116" viewBox="0,0,111,116"><defs><linearGradient x1="220.26985" y1="172.73572" x2="252.54943" y2="172.73572" gradientUnits="userSpaceOnUse" id="color-1"><stop offset="0" stop-color="#0044ff"/><stop offset="1" stop-color="#94b1ff"/></linearGradient><linearGradient x1="236.41056" y1="167.02326" x2="236.41056" y2="179.0196" gradientUnits="userSpaceOnUse" id="color-2"><stop offset="0" stop-color="#0044ff"/><stop offset="1" stop-color="#94b1ff"/></linearGradient></defs><g transform="translate(-184.5,-122)"><g data-paper-data="{&quot;isPaintingLayer&quot;:true}" stroke="none" stroke-miterlimit="10" stroke-dasharray="" stroke-dashoffset="0" style="mix-blend-mode: normal"><path d="M209.82648,195.47674v-51.6h49v51.6z" fill="none" fill-rule="nonzero" stroke-width="0" stroke-linecap="butt" stroke-linejoin="miter"/><path d="M209.82649,195.47674v-51.6h49v51.6z" data-paper-data="{&quot;origPos&quot;:null}" fill="none" fill-rule="nonzero" stroke-width="0" stroke-linecap="butt" stroke-linejoin="miter"/><path d="M184.5,238v-116h111v116z" fill="none" fill-rule="nonzero" stroke-width="0" stroke-linecap="butt" stroke-linejoin="miter"/><path d="M227.24188,156.94644h18.33558c3.85062,0 6.97197,3.02447 6.97197,6.75559c0,0 0,9.3098 0,12.64565c0,2.18427 0,5.42173 0,5.42173c0,3.73084 -3.12134,6.75559 -6.97197,6.75559h-18.33558c-3.85053,0 -6.97203,-3.02476 -6.97203,-6.75559v-18.06738c0,-3.73111 3.1215,-6.75559 6.97203,-6.75559z" data-paper-data="{&quot;origPos&quot;:null}" fill="url(#color-1)" fill-rule="evenodd" stroke-width="14" stroke-linecap="round" stroke-linejoin="round"/><path d="M225.18726,172.73572c0,-6.19795 5.02443,-11.22238 11.22238,-11.22238c6.19795,0 11.22238,5.02443 11.22238,11.22238c0,6.19795 -5.02443,11.22238 -11.22238,11.22238c-6.19795,0 -11.22238,-5.02443 -11.22238,-11.22238z" data-paper-data="{&quot;origPos&quot;:null}" fill="#ffffff" fill-rule="nonzero" stroke-width="0" stroke-linecap="butt" stroke-linejoin="miter"/><path d="M230.41239,173.02143c0,-3.3127 2.68547,-5.99817 5.99817,-5.99817c3.3127,0 5.99817,2.68547 5.99817,5.99817c0,3.3127 -2.68547,5.99817 -5.99817,5.99817c-3.3127,0 -5.99817,-2.68547 -5.99817,-5.99817z" fill="url(#color-2)" fill-rule="nonzero" stroke-width="0" stroke-linecap="butt" stroke-linejoin="miter"/><path d="M235.6103,171.60477c0,-1.30778 1.06017,-2.36796 2.36796,-2.36796c1.30778,0 2.36796,1.06018 2.36796,2.36796c0,1.30778 -1.06018,2.36796 -2.36796,2.36796c-1.30778,0 -2.36796,-1.06017 -2.36796,-2.36796z" fill="#f7f7f7" fill-rule="nonzero" stroke-width="0" stroke-linecap="butt" stroke-linejoin="miter"/></g></g></svg>