<svg version="1.1" xmlns="http://www.w3.org/2000/svg" xmlns:xlink="http://www.w3.org/1999/xlink" width="564.86402" height="118.59333" viewBox="0,0,564.86402,118.59333"><g transform="translate(42.43201,-100.20333)"><g data-paper-data="{&quot;isPaintingLayer&quot;:true}" fill="#5c5c5c" fill-rule="evenodd" stroke="none" stroke-width="1" stroke-linecap="round" stroke-linejoin="round" stroke-miterlimit="10" stroke-dasharray="" stroke-dashoffset="0" style="mix-blend-mode: normal"><path d="M-20.62904,110.06122c25.93304,-11.89245 78.4937,-9.69852 78.4937,-9.69852l354.51678,0.96731c0,0 56.36869,-1.38798 84.48599,10.2239c28.11718,11.61184 25.31007,32.68377 25.31007,32.68377l0.21529,26.69745c0,0 2.09409,25.63674 -24.32461,37.44254c-26.4187,11.8058 -83.42258,9.84871 -83.42258,9.84871l-361.35511,0.56386c0,0 -47.41348,0.6014 -70.77272,-9.84261c-23.35924,-10.44398 -22.85165,-32.01706 -22.85165,-32.01706l-1.81328,-30.70429c0,0 -4.41505,-24.27267 21.51815,-36.16507z" data-paper-data="{&quot;origRot&quot;:0,&quot;index&quot;:null}" opacity="0.42445"/></g></g></svg>