<svg version="1.1" xmlns="http://www.w3.org/2000/svg" xmlns:xlink="http://www.w3.org/1999/xlink" width="117.32956" height="67.78325" viewBox="0,0,117.32956,67.78325"><g transform="translate(-244.17031,-97.53062)"><g data-paper-data="{&quot;isPaintingLayer&quot;:true}" fill-rule="nonzero" stroke-miterlimit="10" stroke-dasharray="" stroke-dashoffset="0" style="mix-blend-mode: normal"><path d="M251.67031,157.81387v-52.77629h102.32956v52.77629z" data-paper-data="{&quot;zoomLevel&quot;:2.5}" fill="#404040" stroke="#404040" stroke-width="15" stroke-linecap="butt" stroke-linejoin="round"/><text transform="translate(287.65712,118.28926) scale(0.47721,0.47721)" font-size="40" xml:space="preserve" fill="#ffffff" fill-rule="nonzero" stroke="none" stroke-width="1" stroke-linecap="butt" stroke-linejoin="miter" stroke-miterlimit="10" stroke-dasharray="" stroke-dashoffset="0" font-family="Sans Serif" font-weight="normal" text-anchor="start" style="mix-blend-mode: normal"><tspan x="0" dy="0">3</tspan></text><text transform="translate(248.59769,137.21298) scale(0.35495,0.35495)" font-size="40" xml:space="preserve" fill="#ffffff" fill-rule="nonzero" stroke="none" stroke-width="1" stroke-linecap="butt" stroke-linejoin="miter" stroke-miterlimit="10" stroke-dasharray="" stroke-dashoffset="0" font-family="Sans Serif" font-weight="normal" text-anchor="start" style="mix-blend-mode: normal"><tspan x="0" dy="0">Type: Black Skin</tspan></text><text transform="translate(249.19834,153.94428) scale(0.27613,0.27613)" font-size="40" xml:space="preserve" fill="#ffffff" fill-rule="nonzero" stroke="none" stroke-width="1" stroke-linecap="butt" stroke-linejoin="miter" stroke-miterlimit="10" stroke-dasharray="" stroke-dashoffset="0" font-family="Sans Serif" font-weight="normal" text-anchor="start" style="mix-blend-mode: normal"><tspan x="0" dy="0">Power: Speed Boost</tspan></text><g stroke-linecap="round" stroke-linejoin="miter"><path d="M308.51459,110.13517l6.50056,6.80151l-7.64418,-7.22285" fill="none" stroke="#00bcff" stroke-width="2.5"/><path d="M309.95916,110.07499l3.1299,3.19009" fill="none" stroke="#00bcff" stroke-width="2.5"/><path d="M319.22849,111.33898l0.96305,-1.20381" fill="none" stroke="#00bcff" stroke-width="2.5"/><path d="M321.21477,110.07498l-6.01904,6.13942l-6.32,-6.38018" fill="none" stroke="#00bcff" stroke-width="2.5"/><path d="M317.30239,114.16793l2.28724,-4.15314l2.70857,0.06019l-7.40343,6.62095" fill="none" stroke="#00bcff" stroke-width="2.5"/><path d="M312.24639,111.27879l-1.50475,-1.08343" fill="none" stroke="#00bcff" stroke-width="2.5"/><path d="M308.03307,109.71384l3.97257,0.36114" fill="none" stroke="#00bcff" stroke-width="2.5"/><path d="M318.75126,110.13517l-3.90034,7.15063l-3.17806,-7.36731z" fill="#0889ff" stroke="#0889ff" stroke-width="2.5"/><path d="M310.56107,106.79461h8.84799l2.01637,2.01637h-13.03123z" fill="#00bcff" stroke="#00bcff" stroke-width="2.5"/><path d="M322.77972,109.38279h-16.25141" fill="none" stroke="#42deff" stroke-width="2"/><path d="M319.49934,105.74127h-9.66056" fill="none" stroke="#cdffff" stroke-width="2.5"/><path d="M307.28069,109.3226l3.16,-3.16l2.28724,0.48153h7.40343l2.85904,3.03962" fill="none" stroke="#42deff" stroke-width="2.5"/><path d="M323.48695,109.75898l-8.68247,8.68247l-8.96837,-8.96837" fill="none" stroke="#42deff" stroke-width="2"/><path d="M306.10697,108.66051l3.7619,-3.76189h9.84113l4.48418,4.48418" data-paper-data="{&quot;index&quot;:null}" fill="none" stroke="#cdffff" stroke-width="2"/><path d="M325.15724,109.05175l-10.47314,10.47313l-10.29256,-10.29256l5.11619,-5.11619h10.47314z" data-paper-data="{&quot;index&quot;:null}" fill="none" stroke="#000000" stroke-width="1.5"/></g></g></g></svg>