<svg version="1.1" xmlns="http://www.w3.org/2000/svg" xmlns:xlink="http://www.w3.org/1999/xlink" width="489.13877" height="303.67901" viewBox="0,0,489.13877,303.67901"><defs><linearGradient x1="120.7094" y1="388.28995" x2="104.42385" y2="399.01279" gradientUnits="userSpaceOnUse" id="color-1"><stop offset="0" stop-color="#8e8e8e"/><stop offset="1" stop-color="#818181"/></linearGradient><linearGradient x1="344.71466" y1="312.99791" x2="311.92459" y2="368.26424" gradientUnits="userSpaceOnUse" id="color-2"><stop offset="0" stop-color="#8e8e8e"/><stop offset="1" stop-color="#818181"/></linearGradient><linearGradient x1="389.43654" y1="313.09785" x2="346.06797" y2="347.08394" gradientUnits="userSpaceOnUse" id="color-3"><stop offset="0" stop-color="#8e8e8e"/><stop offset="1" stop-color="#818181"/></linearGradient><linearGradient x1="153.48263" y1="323.81476" x2="180.90745" y2="355.85914" gradientUnits="userSpaceOnUse" id="color-4"><stop offset="0" stop-color="#8e8e8e"/><stop offset="1" stop-color="#818181"/></linearGradient><linearGradient x1="71.19717" y1="316.56511" x2="55.59739" y2="366.88267" gradientUnits="userSpaceOnUse" id="color-5"><stop offset="0" stop-color="#8e8e8e"/><stop offset="1" stop-color="#818181"/></linearGradient></defs><g transform="translate(10,-116.575)"><g data-paper-data="{&quot;isPaintingLayer&quot;:true}" fill-rule="nonzero" stroke="none" stroke-linecap="butt" stroke-linejoin="miter" stroke-miterlimit="10" stroke-dasharray="" stroke-dashoffset="0" style="mix-blend-mode: normal"><path d="M364.5,278.80001v-96h18v96z" fill="#6e6b74" stroke-width="0"/><path d="M253.5,278.80001v-96h18v96z" fill="#6e6b74" stroke-width="0"/><path d="M183.5,282.80001v-96h18v96z" fill="#6e6b74" stroke-width="0"/><path d="M72.49999,282.8v-96h18v96z" fill="#6e6b74" stroke-width="0"/><path d="M-10,180.8v-35h394v35z" fill="#6e6b74" stroke-width="0"/><g><path d="M99.09759,394.58572l6.58466,-7.86422l17.64866,3.77381l-6.31422,12.029l-12.76707,-0.75551z" data-paper-data="{&quot;origPos&quot;:null,&quot;origRot&quot;:0}" fill="#534c42" stroke-width="0"/><path d="M101.40685,393.72632l5.90934,-7.05764l15.83856,3.38678l-5.66666,10.79525l-11.45769,-0.67802z" data-paper-data="{&quot;origPos&quot;:null,&quot;origRot&quot;:0}" fill="url(#color-1)" stroke-width="NaN"/></g><path d="M-1.11505,353.67134v-74.52655c0,0 48.46576,7.45265 86.06402,7.45265c39.63923,0 141.5425,-7.67744 226.43115,-9.4622c92.05416,-1.93542 165.86075,2.00956 165.86075,2.00956v74.52655z" fill="#7c7262" stroke-width="0"/><path d="M-1.40239,417.59973v-74.52655c0,0 48.5285,7.45265 86.17541,7.45265c39.69054,0 141.72566,-7.67744 226.72411,-9.4622c92.17329,-1.93542 166.07538,2.00956 166.07538,2.00956v74.52655z" fill="#786e5f" stroke-width="0"/><path d="M-0.87222,420.254v-37.05188c0,0 48.35969,3.70519 85.87567,3.70519c39.55249,0 141.2327,-3.81693 225.93555,-4.70428c91.85269,-0.96221 165.49775,0.9991 165.49775,0.9991v37.05188z" fill="#6f6558" stroke-width="0"/><path d="M-1.22876,290.69768v-32.95167h480.36753v32.95167z" fill="#949494" stroke-width="0"/><path d="M-2.13878,290.69768v-13.30453h478.89508v13.30453z" fill="#b5b5b5" stroke-width="0"/><g><path d="M290.31014,355.27855l8.87873,-36.16014l54.63998,0.37413l-2.94458,52.24412l-37.07625,7.45925z" data-paper-data="{&quot;origPos&quot;:null,&quot;origRot&quot;:0}" fill="#534c42" stroke-width="0"/><path d="M296.82369,350.02993l7.96811,-32.45141l49.03584,0.33577l-2.64263,46.88573l-33.27354,6.69417z" data-paper-data="{&quot;origPos&quot;:null,&quot;origRot&quot;:0}" fill="url(#color-2)" stroke-width="NaN"/></g><g><path d="M331.20618,332.4962l17.53513,-24.92571l46.99885,11.96112l-16.81494,38.12603l-33.99905,-2.39454z" data-paper-data="{&quot;origPos&quot;:null,&quot;origRot&quot;:0}" fill="#534c42" stroke-width="0"/><path d="M338.03355,330.32843l15.73671,-22.36922l42.17843,10.73433l-15.0904,34.21564l-30.51196,-2.14891z" data-paper-data="{&quot;origPos&quot;:null,&quot;origRot&quot;:0}" fill="url(#color-3)" stroke-width="NaN"/></g><g><path d="M168.40798,365.47786l-21.76648,-13.73023l13.90335,-31.35114l33.91819,14.15045l-4.31801,23.1124z" data-paper-data="{&quot;origRot&quot;:0}" fill="#534c42" stroke-width="0"/><path d="M165.61798,360.2009l-18.82083,-12.32205l12.02174,-28.13558l29.32799,12.69916l-3.73359,20.74185z" data-paper-data="{&quot;origRot&quot;:0}" fill="url(#color-4)" stroke-width="NaN"/></g><g><path d="M34.14378,360.50707l-0.6419,-30.4996l47.22308,-10.22854l9.45371,42.16174l-30.27274,13.08147z" data-paper-data="{&quot;origRot&quot;:0}" fill="#534c42" stroke-width="0"/><path d="M38.3839,355.27452l-0.57606,-27.37144l42.37965,-9.17942l8.48402,37.83744l-27.16782,11.73975z" data-paper-data="{&quot;origRot&quot;:0}" fill="url(#color-5)" stroke-width="NaN"/></g><path d="M69,198.8c0,0 -13,-23.41788 -13,-35c0,-11.41546 13,-34 13,-34h140c0,0 10,24.11411 10,36c0,11.05365 -10,33 -10,33z" fill="#94909c" stroke-width="0"/><path d="M247,200.80001c0,0 -13,-23.41788 -13,-35c0,-11.41547 13,-34 13,-34h140c0,0 10,24.11412 10,36c0,11.05365 -10,33 -10,33z" fill="#94909c" stroke-width="0"/><path d="M152.125,130.075v-8h8.75v8z" fill="#6e6b74" stroke-width="0"/><path d="M141.875,122.325v-5.75h30.5v5.75z" fill="#6e6b74" stroke-width="0"/><g fill="#6e6b74" stroke-width="0"><path d="M344.625,132.075v-8h8.75v8z"/><path d="M334.375,124.325v-5.75h30.5v5.75z"/></g><g stroke-width="0"><path d="M372.38877,174.825c0,0 1,-6.04968 1,-8.75c0,-2.32738 -1,-6.5 -1,-6.5h15.25c0,0 1.5,5.54968 1.5,8.25c0,2.32738 -1.5,7 -1.5,7z" fill="#6e6b74"/><path d="M375.63877,167.075c0,-3.03757 2.46243,-5.5 5.5,-5.5c3.03757,0 5.5,2.46243 5.5,5.5c0,3.03757 -2.46243,5.5 -5.5,5.5c-3.03757,0 -5.5,-2.46243 -5.5,-5.5z" fill="#7a7781"/></g><g stroke-width="0"><path d="M184.38877,175.325c0,0 1,-6.04968 1,-8.75c0,-2.32738 -1,-6.5 -1,-6.5h15.25c0,0 1.5,5.54968 1.5,8.25c0,2.32738 -1.5,7 -1.5,7z" fill="#6e6b74"/><path d="M187.63877,167.575c0,-3.03757 2.46244,-5.5 5.5,-5.5c3.03756,0 5.5,2.46243 5.5,5.5c0,3.03757 -2.46244,5.5 -5.5,5.5c-3.03756,0 -5.5,-2.46243 -5.5,-5.5z" fill="#7a7781"/></g></g></g></svg>