<svg version="1.1" xmlns="http://www.w3.org/2000/svg" xmlns:xlink="http://www.w3.org/1999/xlink" width="331.5" height="373.33333" viewBox="0,0,331.5,373.33333"><defs><radialGradient cx="212.41667" cy="253.92057" r="26.5" gradientUnits="userSpaceOnUse" id="color-1"><stop offset="0" stop-color="#ffffa5"/><stop offset="1" stop-color="#ffffa5" stop-opacity="0"/></radialGradient></defs><g transform="translate(-38,-106.80002)"><g data-paper-data="{&quot;isPaintingLayer&quot;:true}" fill-rule="nonzero" stroke-linejoin="miter" stroke-miterlimit="10" stroke-dasharray="" stroke-dashoffset="0" style="mix-blend-mode: normal"><path d="M40,244.52666v-3h80v3z" fill="#bcb6ae" stroke="none" stroke-width="0" stroke-linecap="butt"/><path d="M41.6,228.32667v-3h80v3z" fill="#bcb6ae" stroke="none" stroke-width="0" stroke-linecap="butt"/><path d="M113.8,267.25999v-50.8h3.8v50.8z" fill="#8d8983" stroke="none" stroke-width="0" stroke-linecap="butt"/><path d="M102.8,267.92666v-50.8h3.8v50.8z" fill="#8d8983" stroke="none" stroke-width="0" stroke-linecap="butt"/><path d="M92,268.12667v-50.8h3.8v50.8z" fill="#8d8983" stroke="none" stroke-width="0" stroke-linecap="butt"/><path d="M80.2,267.32667v-50.8h3.8v50.8z" fill="#8d8983" stroke="none" stroke-width="0" stroke-linecap="butt"/><path d="M69.4,267.52666v-50.8h3.8v50.8z" fill="#8d8983" stroke="none" stroke-width="0" stroke-linecap="butt"/><path d="M58,267.52666v-50.8h3.8v50.8z" fill="#8d8983" stroke="none" stroke-width="0" stroke-linecap="butt"/><path d="M47.2,267.72666v-50.8h3.8v50.8z" fill="#8d8983" stroke="none" stroke-width="0" stroke-linecap="butt"/><path d="M120.8596,298.18167l-29.92113,-30.88245l5.60193,-5.42755l29.92113,30.88245z" fill="#aba69f" stroke="none" stroke-width="0" stroke-linecap="butt"/><path d="M120.6596,293.38167l-29.92113,-30.88245l5.60193,-5.42755l29.92113,30.88245z" fill="#8d8983" stroke="none" stroke-width="0" stroke-linecap="butt"/><path d="M119.13363,445.85065v-222.83506l15.86189,-1.31326l-0.52856,-32.74161h-15.33334v-80.59084c0,0 173.72515,0 214.6997,0c16.43439,0 34.53904,0 34.53904,0v337.48078z" fill="#ce9d5c" stroke="none" stroke-width="0" stroke-linecap="butt"/><path d="M255.16666,392.76667v-48.33333h7v48.33333z" fill="#e7ab7d" stroke="none" stroke-width="0" stroke-linecap="butt"/><path d="M213.5,138.37018v97.33333" fill="none" stroke="#757575" stroke-width="1.5" stroke-linecap="round"/><path d="M336.16668,480.13335v-354.2h33v354.2z" fill="#916e41" stroke="none" stroke-width="0" stroke-linecap="butt"/><path d="M131.5,139.80002v-33h238v33z" fill="#916e41" stroke="none" stroke-width="0" stroke-linecap="butt"/><path d="M119.50001,474.30002v-216.46753c2.65788,1.38847 5.66914,-0.01195 9.01489,-0.14247c3.9152,-0.15274 8.16532,0.69472 10.98511,-1.36345v217.97345z" fill="#916e41" stroke="none" stroke-width="0" stroke-linecap="butt"/><path d="M119.83334,107.63335h20v71.20138c-3.70291,-0.92703 -17.54787,-0.5377 -20,-0.27041z" fill="#916e41" stroke="none" stroke-width="0" stroke-linecap="butt"/><path d="M220.50001,411.30002v-23h127v23z" fill="#916e41" stroke="none" stroke-width="0" stroke-linecap="butt"/><path d="M119.83333,265.64158v-10.66667h19.33333v10.66667z" fill="#916e41" stroke="none" stroke-width="0" stroke-linecap="butt"/><path d="M119.83333,180.30825v-2.66667h20v2.66667z" fill="#916e41" stroke="none" stroke-width="0" stroke-linecap="butt"/><path d="M220.39285,392.55871l0.53415,-4h114.93014v4z" fill="#705633" stroke="none" stroke-width="0" stroke-linecap="butt"/><path d="M119.16666,254.70351v-74.66667h20.66667v74.66667z" fill="#b88c53" stroke="none" stroke-width="0" stroke-linecap="butt"/><path d="M185.91667,253.92057c0,-14.63555 12.19778,-17.83333 26.83333,-17.83333c14.63554,0 26.16667,3.19778 26.16667,17.83333c0,14.63555 -11.86446,26.5 -26.5,26.5c-14.63555,0 -26.5,-11.86445 -26.5,-26.5z" fill="url(#color-1)" stroke="none" stroke-width="0" stroke-linecap="butt"/><path d="M162.5,251.80002v-11c0,0 34.67913,-5 52,-5c17.9873,0 54,5 54,5v11z" fill="#c5c5c5" stroke="none" stroke-width="0" stroke-linecap="butt"/><path d="M294.5,366.1v-9h40.66666v9z" fill="#fbba88" stroke="none" stroke-width="0" stroke-linecap="butt"/><path d="M294.5,388.1v-22.33333h4.66666v22.33333z" fill="#fbba88" stroke="none" stroke-width="0" stroke-linecap="butt"/><path d="M330.5,388.1v-22.33333h4.66666v22.33333z" fill="#fbba88" stroke="none" stroke-width="0" stroke-linecap="butt"/><path d="M325.83333,362.76667v-49h9.66667v49z" fill="#fbba88" stroke="none" stroke-width="0" stroke-linecap="butt"/><path d="M294.5,366.43334v-4h40.66666v4z" fill="#e7ab7d" stroke="none" stroke-width="0" stroke-linecap="butt"/><path d="M332.16666,363.76667v-49.66667h3.33334v49.66667z" fill="#e7ab7d" stroke="none" stroke-width="0" stroke-linecap="butt"/><path d="M308.5,344.26667c0,2.85347 -22.31115,5.16667 -49.83334,5.16667c-27.52219,0 -49.83333,-2.3132 -49.83333,-5.16667c0,-2.85347 22.31114,-5.16667 49.83333,-5.16667c27.52219,0 49.83334,2.3132 49.83334,5.16667z" fill="#fbba88" stroke="none" stroke-width="0" stroke-linecap="butt"/><path d="M252.83333,344.76667v-18c0,0 4.78813,-0.66666 7,-0.66666c2.43358,0 7,0.66666 7,0.66666v18c0,0 -4.61379,1.33333 -7,1.33333c-2.27516,0 -7,-1.33333 -7,-1.33333z" fill="#bc7742" stroke="none" stroke-width="0" stroke-linecap="butt"/><path d="M258.7,331.72667c0,0 0,-3.9159 0,-5.2c0,-0.7555 -5.4,-6.4 -5.4,-6.4c0,0 3.07733,2.96004 4.80499,2.93426c0.86921,-0.01297 1.34233,-3.90675 1.34233,-3.90675c0,0 0.8578,4.14126 1.65299,4.15634c2.32271,0.04407 5.59969,-3.38385 5.59969,-3.38385c0,0 -6.4,5.8445 -6.4,6.6c0,1.28411 0,5.2 0,5.2z" fill="#9ed109" stroke="none" stroke-width="0" stroke-linecap="butt"/><path d="M252.16666,332.76667v-6c0,0 4.78686,1 7.33334,1c2.76831,0 8.66666,-1 8.66666,-1v6c0,0 -6.18824,1 -9,1c-2.47974,0 -7,-1 -7,-1z" fill="#a6693a" stroke="none" stroke-width="0" stroke-linecap="butt"/><path d="M38.6,267.32667v-15.4h81.6v15.4z" fill="#bcb6ae" stroke="none" stroke-width="0" stroke-linecap="butt"/><path d="M38,267.52666v-50.8h3.8v50.8z" fill="#8d8983" stroke="none" stroke-width="0" stroke-linecap="butt"/><path d="M39.4,267.52666v-4.2h81v4.2z" fill="#8d8983" stroke="none" stroke-width="0" stroke-linecap="butt"/></g></g></svg>