<svg version="1.1" xmlns="http://www.w3.org/2000/svg" xmlns:xlink="http://www.w3.org/1999/xlink" width="117.32956" height="67.77629" viewBox="0,0,117.32956,67.77629"><g transform="translate(-258.33522,-96.96526)"><g data-paper-data="{&quot;isPaintingLayer&quot;:true}" fill-rule="nonzero" stroke-miterlimit="10" stroke-dasharray="" stroke-dashoffset="0" style="mix-blend-mode: normal"><path d="M265.83522,157.24156v-52.77629h102.32956v52.77629z" data-paper-data="{&quot;zoomLevel&quot;:2.5}" fill="#404040" stroke="#404040" stroke-width="15" stroke-linecap="butt" stroke-linejoin="round"/><text transform="translate(301.82203,117.71695) scale(0.47721,0.47721)" font-size="40" xml:space="preserve" fill="#ffffff" fill-rule="nonzero" stroke="none" stroke-width="1" stroke-linecap="butt" stroke-linejoin="miter" stroke-miterlimit="10" stroke-dasharray="" stroke-dashoffset="0" font-family="Sans Serif" font-weight="normal" text-anchor="start" style="mix-blend-mode: normal"><tspan x="0" dy="0">3</tspan></text><text transform="translate(262.99186,136.64067) scale(0.35495,0.35495)" font-size="40" xml:space="preserve" fill="#ffffff" fill-rule="nonzero" stroke="none" stroke-width="1" stroke-linecap="butt" stroke-linejoin="miter" stroke-miterlimit="10" stroke-dasharray="" stroke-dashoffset="0" font-family="Sans Serif" font-weight="normal" text-anchor="start" style="mix-blend-mode: normal"><tspan x="0" dy="0">Type: Black Skin</tspan></text><text transform="translate(263.36325,153.37196) scale(0.27613,0.27613)" font-size="40" xml:space="preserve" fill="#ffffff" fill-rule="nonzero" stroke="none" stroke-width="1" stroke-linecap="butt" stroke-linejoin="miter" stroke-miterlimit="10" stroke-dasharray="" stroke-dashoffset="0" font-family="Sans Serif" font-weight="normal" text-anchor="start" style="mix-blend-mode: normal"><tspan x="0" dy="0">Power: Jump Boost</tspan></text><g stroke-linecap="round" stroke-linejoin="miter"><path d="M322.6795,109.56286l6.50056,6.80151l-7.64418,-7.22285" fill="none" stroke="#00bcff" stroke-width="2.5"/><path d="M324.12407,109.50268l3.1299,3.19009" fill="none" stroke="#00bcff" stroke-width="2.5"/><path d="M333.3934,110.76667l0.96305,-1.20381" fill="none" stroke="#00bcff" stroke-width="2.5"/><path d="M335.37968,109.50267l-6.01904,6.13942l-6.32,-6.38018" fill="none" stroke="#00bcff" stroke-width="2.5"/><path d="M331.4673,113.59562l2.28724,-4.15314l2.70857,0.06019l-7.40343,6.62095" fill="none" stroke="#00bcff" stroke-width="2.5"/><path d="M326.4113,110.70648l-1.50475,-1.08343" fill="none" stroke="#00bcff" stroke-width="2.5"/><path d="M322.19798,109.14153l3.97257,0.36114" fill="none" stroke="#00bcff" stroke-width="2.5"/><path d="M332.91617,109.56286l-3.90034,7.15063l-3.17806,-7.36731z" fill="#0889ff" stroke="#0889ff" stroke-width="2.5"/><path d="M324.72598,106.2223h8.84799l2.01637,2.01637h-13.03123z" fill="#00bcff" stroke="#00bcff" stroke-width="2.5"/><path d="M320.69322,108.81048h16.25141" fill="none" stroke="#42deff" stroke-width="2"/><path d="M333.66425,105.16896h-9.66056" fill="none" stroke="#cdffff" stroke-width="2.5"/><path d="M321.4456,108.75029l3.16,-3.16l2.28724,0.48153h7.40343l2.85904,3.03962" fill="none" stroke="#42deff" stroke-width="2.5"/><path d="M337.65186,109.18667l-8.68247,8.68247l-8.96837,-8.96837" fill="none" stroke="#42deff" stroke-width="2"/><path d="M320.27188,108.0882l3.7619,-3.76189h9.84113l4.48418,4.48418" data-paper-data="{&quot;index&quot;:null}" fill="none" stroke="#cdffff" stroke-width="2"/><path d="M339.32215,108.47944l-10.47314,10.47313l-10.29256,-10.29256l5.11619,-5.11619h10.47314z" data-paper-data="{&quot;index&quot;:null}" fill="none" stroke="#000000" stroke-width="1.5"/></g></g></g></svg>