<svg version="1.1" xmlns="http://www.w3.org/2000/svg" xmlns:xlink="http://www.w3.org/1999/xlink" width="499.79106" height="439.62072" viewBox="0,0,499.79106,439.62072"><defs><linearGradient x1="109.3034" y1="387.54921" x2="92.39139" y2="398.27203" gradientUnits="userSpaceOnUse" id="color-1"><stop offset="0" stop-color="#8e8e8e"/><stop offset="1" stop-color="#818181"/></linearGradient><linearGradient x1="341.92557" y1="312.2571" x2="307.87416" y2="367.52347" gradientUnits="userSpaceOnUse" id="color-2"><stop offset="0" stop-color="#8e8e8e"/><stop offset="1" stop-color="#818181"/></linearGradient><linearGradient x1="388.36779" y1="312.35706" x2="343.33094" y2="346.34317" gradientUnits="userSpaceOnUse" id="color-3"><stop offset="0" stop-color="#8e8e8e"/><stop offset="1" stop-color="#818181"/></linearGradient><linearGradient x1="143.33735" y1="323.07394" x2="171.81712" y2="355.1184" gradientUnits="userSpaceOnUse" id="color-4"><stop offset="0" stop-color="#8e8e8e"/><stop offset="1" stop-color="#818181"/></linearGradient><linearGradient x1="57.88657" y1="315.8243" x2="41.6867" y2="366.14192" gradientUnits="userSpaceOnUse" id="color-5"><stop offset="0" stop-color="#8e8e8e"/><stop offset="1" stop-color="#818181"/></linearGradient><radialGradient cx="159.44273" cy="185.36557" r="22.50532" gradientUnits="userSpaceOnUse" id="color-6"><stop offset="0" stop-color="#faff00"/><stop offset="1" stop-color="#faff00" stop-opacity="0"/></radialGradient><radialGradient cx="190.91216" cy="34.11556" r="22.25535" gradientUnits="userSpaceOnUse" id="color-7"><stop offset="0" stop-color="#faff00"/><stop offset="1" stop-color="#faff00" stop-opacity="0"/></radialGradient><linearGradient x1="281.95231" y1="63.37499" x2="281.95231" y2="73.7098" gradientUnits="userSpaceOnUse" id="color-8"><stop offset="0" stop-color="#ffffff"/><stop offset="1" stop-color="#a3a3a3"/></linearGradient><linearGradient x1="280.68967" y1="65.79717" x2="280.68967" y2="69.72321" gradientUnits="userSpaceOnUse" id="color-9"><stop offset="0" stop-color="#ffffff"/><stop offset="1" stop-color="#a3a3a3"/></linearGradient><radialGradient cx="283.12732" cy="70.26524" r="35.67273" gradientUnits="userSpaceOnUse" id="color-10"><stop offset="0" stop-color="#66ebff"/><stop offset="1" stop-color="#b6f5ff"/></radialGradient><radialGradient cx="282.63642" cy="69.91979" r="35.67273" gradientUnits="userSpaceOnUse" id="color-11"><stop offset="0" stop-color="#b6f5ff" stop-opacity="0"/><stop offset="1" stop-color="#b6f5ff" stop-opacity="0"/></radialGradient></defs><g transform="translate(18.27043,20.10746)"><g data-paper-data="{&quot;isPaintingLayer&quot;:true}" stroke-miterlimit="10" stroke-dasharray="" stroke-dashoffset="0" style="mix-blend-mode: normal"><path d="M10.04959,259.61289c0,0 0,-56.33616 0,-93.09309c0,-51.35959 1.5015,-186.18619 1.5015,-186.18619h465.46547v279.27928z" fill="#989898" fill-rule="nonzero" stroke="#000000" stroke-width="0" stroke-linecap="butt" stroke-linejoin="miter"/><path d="M10.88134,264.39252v-16h132v16z" fill="#6d6d6d" fill-rule="nonzero" stroke="none" stroke-width="0" stroke-linecap="butt" stroke-linejoin="miter"/><path d="M140.88187,260.39252v-12h134v12z" fill="#6d6d6d" fill-rule="nonzero" stroke="none" stroke-width="0" stroke-linecap="butt" stroke-linejoin="miter"/><g fill-rule="nonzero" stroke="none" stroke-linecap="butt" stroke-linejoin="miter"><path d="M86.86025,393.84498l6.83796,-7.86422l18.32756,3.77381l-6.55711,12.029l-13.25818,-0.75551z" data-paper-data="{&quot;origPos&quot;:null,&quot;origRot&quot;:0}" fill="#534c42" stroke-width="0"/><path d="M89.25834,392.98558l6.13665,-7.05764l16.44783,3.38678l-5.88464,10.79525l-11.89844,-0.67802z" data-paper-data="{&quot;origPos&quot;:null,&quot;origRot&quot;:0}" fill="url(#color-1)" stroke-width="NaN"/></g><path d="M-17.20731,352.9306v-74.52655c0,0 50.33011,7.45265 89.37468,7.45265c41.16406,0 146.98727,-7.67744 235.14137,-9.4622c95.59525,-1.93542 172.24099,2.00956 172.24099,2.00956v74.52655z" fill="#7c7262" fill-rule="nonzero" stroke="none" stroke-width="0" stroke-linecap="butt" stroke-linejoin="miter"/><path d="M-17.50571,416.85898v-74.52655c0,0 50.39526,7.45265 89.49036,7.45265c41.21733,0 147.17748,-7.67744 235.4456,-9.4622c95.71896,-1.93542 172.46387,2.00956 172.46387,2.00956v74.52655z" fill="#786e5f" fill-rule="nonzero" stroke="none" stroke-width="0" stroke-linecap="butt" stroke-linejoin="miter"/><path d="M-16.95514,419.51326v-37.05188c0,0 50.21996,3.70519 89.17908,3.70519c41.07398,0 146.66556,-3.81693 234.62671,-4.70428c95.38603,-0.96221 171.86403,0.9991 171.86403,0.9991v37.05188z" fill="#6f6558" fill-rule="nonzero" stroke="none" stroke-width="0" stroke-linecap="butt" stroke-linejoin="miter"/><path d="M-17.3254,289.95689v-32.95167h498.84603v32.95167z" fill="#949494" fill-rule="nonzero" stroke="none" stroke-width="0" stroke-linecap="butt" stroke-linejoin="miter"/><path d="M-18.27043,289.95689v-13.30453h497.31695v13.30453z" fill="#b5b5b5" fill-rule="nonzero" stroke="none" stroke-width="0" stroke-linecap="butt" stroke-linejoin="miter"/><g fill-rule="nonzero" stroke="none" stroke-linecap="butt" stroke-linejoin="miter"><path d="M285.42825,354.53779l9.22027,-36.16014l56.74184,0.37413l-3.05785,52.24412l-38.50248,7.45925z" data-paper-data="{&quot;origPos&quot;:null,&quot;origRot&quot;:0}" fill="#534c42" stroke-width="0"/><path d="M292.19237,349.28918l8.27462,-32.45141l50.92213,0.33577l-2.74429,46.88573l-34.55349,6.69417z" data-paper-data="{&quot;origPos&quot;:null,&quot;origRot&quot;:0}" fill="url(#color-2)" stroke-width="NaN"/></g><g fill-rule="nonzero" stroke="none" stroke-linecap="butt" stroke-linejoin="miter"><path d="M327.89746,331.75541l18.20966,-24.92571l48.80677,11.96112l-17.46177,38.12603l-35.30691,-2.39454z" data-paper-data="{&quot;origPos&quot;:null,&quot;origRot&quot;:0}" fill="#534c42" stroke-width="0"/><path d="M334.98746,329.58763l16.34206,-22.36922l43.80093,10.73433l-15.67088,34.21564l-31.68568,-2.14891z" data-paper-data="{&quot;origPos&quot;:null,&quot;origRot&quot;:0}" fill="url(#color-3)" stroke-width="NaN"/></g><g fill-rule="nonzero" stroke="none" stroke-linecap="butt" stroke-linejoin="miter"><path d="M158.83683,364.73711l-22.60378,-13.73023l14.43817,-31.35114l35.22293,14.15045l-4.48411,23.1124z" data-paper-data="{&quot;origRot&quot;:0}" fill="#534c42" stroke-width="0"/><path d="M155.93951,359.46016l-19.54482,-12.32205l12.48418,-28.13558l30.45616,12.69916l-3.87721,20.74185z" data-paper-data="{&quot;origRot&quot;:0}" fill="url(#color-4)" stroke-width="NaN"/></g><g fill-rule="nonzero" stroke="none" stroke-linecap="butt" stroke-linejoin="miter"><path d="M19.40783,359.76633l-0.66659,-30.4996l49.03963,-10.22854l9.81737,42.16174l-31.43725,13.08147z" data-paper-data="{&quot;origRot&quot;:0}" fill="#534c42" stroke-width="0"/><path d="M23.81105,354.53376l-0.59821,-27.37144l44.00989,-9.17942l8.81038,37.83744l-28.21289,11.73975z" data-paper-data="{&quot;origRot&quot;:0}" fill="url(#color-5)" stroke-width="NaN"/></g><path d="M7.88134,163.39253v-178.8h15v178.8z" fill="#6d6d6d" fill-rule="nonzero" stroke="none" stroke-width="0" stroke-linecap="butt" stroke-linejoin="miter"/><path d="M14.88134,163.39253v-13h128v13z" fill="#6d6d6d" fill-rule="nonzero" stroke="none" stroke-width="0" stroke-linecap="butt" stroke-linejoin="miter"/><path d="M286.88134,257.39252v-19h76v19z" fill="#6d6d6d" fill-rule="nonzero" stroke="none" stroke-width="0" stroke-linecap="butt" stroke-linejoin="miter"/><path d="M272.88134,257.39252v-10h88v10z" fill="#6d6d6d" fill-rule="nonzero" stroke="none" stroke-width="0" stroke-linecap="butt" stroke-linejoin="miter"/><path d="M310.88134,240.39257v-19h76v19z" fill="#6d6d6d" fill-rule="nonzero" stroke="none" stroke-width="0" stroke-linecap="butt" stroke-linejoin="miter"/><path d="M296.88134,239.39257v-10h88v10z" fill="#6d6d6d" fill-rule="nonzero" stroke="none" stroke-width="0" stroke-linecap="butt" stroke-linejoin="miter"/><path d="M334.88134,222.39257v-19h76v19z" fill="#6d6d6d" fill-rule="nonzero" stroke="none" stroke-width="0" stroke-linecap="butt" stroke-linejoin="miter"/><path d="M320.88134,221.39257v-10h88v10z" fill="#6d6d6d" fill-rule="nonzero" stroke="none" stroke-width="0" stroke-linecap="butt" stroke-linejoin="miter"/><path d="M358.88134,204.39257v-19h76v19z" fill="#6d6d6d" fill-rule="nonzero" stroke="none" stroke-width="0" stroke-linecap="butt" stroke-linejoin="miter"/><path d="M344.88134,204.39257v-10h88v10z" fill="#6d6d6d" fill-rule="nonzero" stroke="none" stroke-width="0" stroke-linecap="butt" stroke-linejoin="miter"/><path d="M359.88134,206.39257v-19h76v19z" fill="#6d6d6d" fill-rule="nonzero" stroke="none" stroke-width="0" stroke-linecap="butt" stroke-linejoin="miter"/><path d="M383.88134,188.39257v-19h76v19z" fill="#6d6d6d" fill-rule="nonzero" stroke="none" stroke-width="0" stroke-linecap="butt" stroke-linejoin="miter"/><path d="M369.88134,188.39257v-10h88v10z" fill="#6d6d6d" fill-rule="nonzero" stroke="none" stroke-width="0" stroke-linecap="butt" stroke-linejoin="miter"/><path d="M397.88134,179.39257v-19h76v19z" fill="#6d6d6d" fill-rule="nonzero" stroke="none" stroke-width="0" stroke-linecap="butt" stroke-linejoin="miter"/><path d="M383.88134,179.39257v-10h88v10z" fill="#6d6d6d" fill-rule="nonzero" stroke="none" stroke-width="0" stroke-linecap="butt" stroke-linejoin="miter"/><path d="M424.88134,258.39252v-90h49v90z" fill="#6d6d6d" fill-rule="nonzero" stroke="none" stroke-width="0" stroke-linecap="butt" stroke-linejoin="miter"/><path d="M362.88134,257.39252v-52h68v52z" fill="#6d6d6d" fill-rule="nonzero" stroke="none" stroke-width="0" stroke-linecap="butt" stroke-linejoin="miter"/><path d="M350.88134,256.39252v-28h41v28z" fill="#6d6d6d" fill-rule="nonzero" stroke="none" stroke-width="0" stroke-linecap="butt" stroke-linejoin="miter"/><path d="M470.88174,257.39252v-239h10v239z" fill="#6d6d6d" fill-rule="nonzero" stroke="none" stroke-width="0" stroke-linecap="butt" stroke-linejoin="miter"/><g data-paper-data="{&quot;index&quot;:null}" fill="#6d6d6d" fill-rule="nonzero" stroke="none" stroke-width="0" stroke-linecap="butt" stroke-linejoin="miter"><path d="M122.88133,163.40963v-20.01709h76v19.81367z"/><path d="M98.88133,145.39254v-19h76v19z"/><path d="M100.88133,144.39254v-10h88v10z"/><path d="M74.88133,127.39254v-19h76v19z"/><path d="M76.88133,126.39254v-10h88v10z"/><path d="M50.88133,109.39254v-19h76v19z"/><path d="M52.88133,109.39254v-10h88v10z"/><path d="M49.88133,111.39254v-19h76v19z"/><path d="M25.88133,93.39254v-19h76v19z"/><path d="M27.88133,93.39254v-10h88v10z"/><path d="M11.88133,84.39254v-19h76v19z"/><path d="M13.88133,84.39254v-10h88v10z"/><path d="M11.88133,163.39254v-90h49v90z"/><path d="M54.88133,162.39254v-52h68v52z"/><path d="M93.88133,161.39254v-28h41v28z"/></g><path d="M407.4637,115.89254v-136h10.83333v136z" fill="#6d6d6d" fill-rule="nonzero" stroke="none" stroke-width="0" stroke-linecap="butt" stroke-linejoin="miter"/><path d="M470.63187,21.19254v-41h10.25v41z" fill="#6d6d6d" fill-rule="nonzero" stroke="none" stroke-width="0" stroke-linecap="butt" stroke-linejoin="miter"/><path d="M81.88187,-4.01196v-16h272v16z" fill="#6d6d6d" fill-rule="nonzero" stroke="none" stroke-width="0" stroke-linecap="butt" stroke-linejoin="miter"/><path d="M340.88187,116.89254v-136h13v136z" fill="#6d6d6d" fill-rule="nonzero" stroke="none" stroke-width="0" stroke-linecap="butt" stroke-linejoin="miter"/><path d="M175.54746,185.36557c0,12.42935 -7.21033,22.50532 -16.10473,22.50532c-8.89439,0 -16.10473,-10.07598 -16.10473,-22.50532c0,-12.42935 7.21033,-22.50532 16.10473,-22.50532c8.89439,0 16.10473,10.07598 16.10473,22.50532z" fill="url(#color-6)" fill-rule="nonzero" stroke="none" stroke-width="0" stroke-linecap="butt" stroke-linejoin="miter"/><path d="M156.8968,217.58862v-28.04406h4.57161v28.04406z" fill="#e57e00" fill-rule="nonzero" stroke="none" stroke-width="0" stroke-linecap="butt" stroke-linejoin="miter"/><path d="M158.72361,217.58862v-28.04406h3.04926v28.04406z" fill="#d17300" fill-rule="nonzero" stroke="none" stroke-width="0" stroke-linecap="butt" stroke-linejoin="miter"/><path d="M167.55778,183.94866c0,6.89429 -1.76267,9.43854 -8.06843,9.43854c-3.03781,0 -6.16785,-1.68236 -6.80425,-5.51003c-0.33942,-2.04148 0.90193,-5.78251 1.31108,-7.78672c0.4161,-2.03825 4.42753,-2.25646 4.42753,-4.05798c0,-5.03964 -3.10448,-8.91 -2.14795,-9.48096c0.35201,-0.21013 1.51727,1.86924 3.2136,1.86924c1.43497,0 1.59023,4.85646 2.85538,5.38484c4.29433,1.79349 5.21305,4.81768 5.21305,10.14308z" fill="#ffef00" fill-rule="nonzero" stroke="none" stroke-width="0" stroke-linecap="butt" stroke-linejoin="miter"/><path d="M164.71607,185.24978c0,3.86822 -0.98899,5.29573 -4.527,5.29573c-1.70444,0 -3.46062,-0.94393 -3.8177,-3.09154c-0.19044,-1.14542 0.50605,-3.24442 0.73562,-4.36894c0.23346,-1.14361 2.48418,-1.26604 2.48418,-2.27683c0,-2.82761 1.49015,-1.54591 2.19999,-1.24945c2.40944,1.00628 2.92492,2.70308 2.92492,5.69103z" fill="#ffb000" fill-rule="nonzero" stroke="none" stroke-width="0" stroke-linecap="butt" stroke-linejoin="miter"/><path d="M206.83801,34.11556c0,12.29129 -7.13024,22.25535 -15.92585,22.25535c-8.7956,0 -15.92585,-9.96406 -15.92585,-22.25535c0,-12.29129 7.13024,-22.25535 15.92585,-22.25535c8.7956,0 15.92585,9.96406 15.92585,22.25535z" fill="url(#color-7)" fill-rule="nonzero" stroke="none" stroke-width="0" stroke-linecap="butt" stroke-linejoin="miter"/><path d="M187.88759,67.58858v-25.73508h4.19521v25.73508z" fill="#e57e00" fill-rule="nonzero" stroke="none" stroke-width="0" stroke-linecap="butt" stroke-linejoin="miter"/><path d="M189.564,67.58858v-25.73508h2.7982v25.73508z" fill="#d17300" fill-rule="nonzero" stroke="none" stroke-width="0" stroke-linecap="butt" stroke-linejoin="miter"/><path d="M197.67082,36.71835c0,6.32666 -1.61754,8.66143 -7.40412,8.66143c-2.7877,0 -5.66002,-1.54384 -6.24403,-5.05637c-0.31148,-1.87339 0.82767,-5.30641 1.20313,-7.14561c0.38184,-1.87044 4.06299,-2.07068 4.06299,-3.72387c0,-4.6247 -2.84888,-8.17641 -1.97111,-8.70036c0.32303,-0.19283 1.39234,1.71534 2.94901,1.71534c1.31682,0 1.4593,4.45661 2.62028,4.94148c3.94076,1.64582 4.78384,4.42103 4.78384,9.30796z" fill="#ffef00" fill-rule="nonzero" stroke="none" stroke-width="0" stroke-linecap="butt" stroke-linejoin="miter"/><path d="M195.06308,37.91232c0,3.54973 -0.90756,4.85971 -4.15427,4.85971c-1.56411,0 -3.1757,-0.86621 -3.50337,-2.837c-0.17476,-1.05112 0.46439,-2.9773 0.67505,-4.00923c0.21424,-1.04945 2.27965,-1.1618 2.27965,-2.08937c0,-2.59481 1.36746,-1.41863 2.01886,-1.14658c2.21107,0.92343 2.6841,2.48053 2.6841,5.22246z" fill="#ffb000" fill-rule="nonzero" stroke="none" stroke-width="0" stroke-linecap="butt" stroke-linejoin="miter"/><path d="M273.25237,75.98489v-16.88727h16.03636v16.88727z" fill="none" fill-rule="nonzero" stroke="none" stroke-width="0" stroke-linecap="butt" stroke-linejoin="miter"/><path d="M273.25237,75.98489v-16.88727h16.03636v16.88727z" fill="none" fill-rule="nonzero" stroke="none" stroke-width="0" stroke-linecap="butt" stroke-linejoin="miter"/><path d="M278.95195,63.37499h6.00074c1.2602,0 2.28174,0.98983 2.28174,2.21092v5.91296c0,1.221 -1.02153,2.21092 -2.28174,2.21092h-6.00074c-1.26017,0 -2.28176,-0.98992 -2.28176,-2.21092v-5.91296c0,-1.22109 1.02158,-2.21092 2.28176,-2.21092z" fill="url(#color-8)" fill-rule="evenodd" stroke="none" stroke-width="14" stroke-linecap="round" stroke-linejoin="round"/><path d="M278.27953,68.54242c0,-2.02842 1.64436,-3.67278 3.67278,-3.67278c2.02842,0 3.67278,1.64436 3.67278,3.67278c0,2.02842 -1.64436,3.67278 -3.67278,3.67278c-2.02842,0 -3.67278,-1.64436 -3.67278,-3.67278z" fill="#ffffff" fill-rule="nonzero" stroke="none" stroke-width="0" stroke-linecap="butt" stroke-linejoin="miter"/><path d="M278.72663,67.76019c0,-1.08416 0.87888,-1.96304 1.96304,-1.96304c1.08416,0 1.96304,0.87888 1.96304,1.96304c0,1.08416 -0.87888,1.96304 -1.96304,1.96304c-1.08416,0 -1.96304,-0.87888 -1.96304,-1.96304z" fill="url(#color-9)" fill-rule="nonzero" stroke="none" stroke-width="0" stroke-linecap="butt" stroke-linejoin="miter"/><path d="M280.72466,67.15627c0,-0.428 0.34696,-0.77497 0.77497,-0.77497c0.428,0 0.77497,0.34697 0.77497,0.77497c0,0.428 -0.34697,0.77497 -0.77497,0.77497c-0.428,0 -0.77497,-0.34696 -0.77497,-0.77497z" fill="#ffffff" fill-rule="nonzero" stroke="none" stroke-width="0" stroke-linecap="butt" stroke-linejoin="miter"/><path d="M253.67278,105.93801c0,0 -9.16364,-6.95004 -9.16364,-14.72735c0,-13.3648 -0.65455,-33.03832 -0.65455,-41.23636c0,-7.16674 9.81818,-15.38174 9.81818,-15.38174h58.90909c0,0 10.47273,5.0667 10.47273,11.45447c0,7.33183 0.32727,31.71634 0.32727,45.49091c0,10.09061 -10.8,14.40008 -10.8,14.40008z" fill="url(#color-10)" fill-rule="nonzero" stroke="none" stroke-width="0" stroke-linecap="butt" stroke-linejoin="miter"/><path d="M253.18187,106.59255c0,0 -9.16364,-6.95004 -9.16364,-14.72735c0,-13.3648 -0.65455,-33.03832 -0.65455,-41.23636c0,-7.16675 9.81818,-15.38174 9.81818,-15.38174h58.90909c0,0 10.47273,5.0667 10.47273,11.45446c0,7.33183 0.32727,31.71634 0.32727,45.49091c0,10.09061 -10.8,14.40008 -10.8,14.40008z" fill="#b1e9f0" fill-rule="nonzero" stroke="#d4d4d4" stroke-width="8.5" stroke-linecap="butt" stroke-linejoin="miter"/><path d="M253.18187,105.59255c0,0 -9.16364,-6.95004 -9.16364,-14.72735c0,-13.3648 -0.65455,-33.03832 -0.65455,-41.23636c0,-7.16675 9.81818,-15.38174 9.81818,-15.38174h58.90909c0,0 10.47273,5.0667 10.47273,11.45446c0,7.33183 0.32727,31.71634 0.32727,45.49091c0,10.09061 -10.8,14.40008 -10.8,14.40008z" fill="url(#color-11)" fill-rule="nonzero" stroke="#6d6d6d" stroke-width="2.5" stroke-linecap="butt" stroke-linejoin="miter"/><path d="M279.04055,102.61798v-64.33333h10v64.33333z" fill="#d4d4d4" fill-rule="nonzero" stroke="none" stroke-width="0" stroke-linecap="butt" stroke-linejoin="miter"/><path d="M318.79974,76.483l-72.98057,-0.73075l0.12886,-9.99935l72.98057,0.73075z" data-paper-data="{&quot;index&quot;:null}" fill="#d4d4d4" fill-rule="nonzero" stroke="none" stroke-width="0" stroke-linecap="butt" stroke-linejoin="miter"/><path d="M281.70721,105.61798v-70.33333h4.66667v70.33333z" fill="#6d6d6d" fill-rule="nonzero" stroke="none" stroke-width="0" stroke-linecap="butt" stroke-linejoin="miter"/><path d="M321.68537,73.54972l-76.82808,-0.53036l0.03844,-4.66654l76.82808,0.53036z" fill="#6d6d6d" fill-rule="nonzero" stroke="none" stroke-width="0" stroke-linecap="butt" stroke-linejoin="miter"/><path d="M86.1251,192.47445h-29" fill="none" fill-rule="nonzero" stroke="#a45a00" stroke-width="2" stroke-linecap="round" stroke-linejoin="miter"/><path d="M77.1251,192.47445v8h-14" fill="none" fill-rule="nonzero" stroke="#a45a00" stroke-width="2" stroke-linecap="round" stroke-linejoin="miter"/><path d="M66.1251,184.47445v8" fill="none" fill-rule="nonzero" stroke="#a45a00" stroke-width="2" stroke-linecap="round" stroke-linejoin="miter"/><path d="M23.89678,71.1478v-5.5h63.5v5.5z" fill="#d4d4d4" fill-rule="nonzero" stroke="none" stroke-width="0" stroke-linecap="butt" stroke-linejoin="miter"/><path d="M397.98012,165.6478v-5.5h73.16666v5.5z" fill="#d4d4d4" fill-rule="nonzero" stroke="none" stroke-width="0" stroke-linecap="butt" stroke-linejoin="miter"/><g fill-rule="nonzero" stroke="none" stroke-width="0" stroke-linecap="butt" stroke-linejoin="miter"><path d="M214.18831,244.42437v-43.76728h54.27143v43.76728z" fill="#ecca82"/><path d="M209.5198,247.634v-52.52075h7.87812v52.52075z" fill="#dbbb78"/><path d="M268.89743,203.13723h-52.52075v-7.87812h52.52075z" fill="#dbbb78"/><path d="M269.18921,195.69678v52.52075h-7.87811v-52.52075z" data-paper-data="{&quot;index&quot;:null}" fill="#dbbb78"/><path d="M209.81158,240.19356h52.52075v7.87812h-52.52075z" data-paper-data="{&quot;index&quot;:null}" fill="#dbbb78"/><path d="M228.12967,246.87535v-45.51798h1.45892v45.51798z" fill="#dbbb78"/><path d="M248.84618,245.12465v-45.51798h1.45892v45.51798z" fill="#dbbb78"/></g><path d="M253.3751,150.00287h46.5" fill="none" fill-rule="nonzero" stroke="#a45a00" stroke-width="2" stroke-linecap="round" stroke-linejoin="miter"/><path d="M292.3751,160.00287h-9v-9.5" fill="none" fill-rule="nonzero" stroke="#a45a00" stroke-width="2" stroke-linecap="round" stroke-linejoin="miter"/><path d="M263.8751,140.50287v9.5" fill="none" fill-rule="nonzero" stroke="#a45a00" stroke-width="2" stroke-linecap="round" stroke-linejoin="miter"/><path d="M372.52063,45.09256v-20.5" fill="none" fill-rule="nonzero" stroke="#a45a00" stroke-width="2" stroke-linecap="round" stroke-linejoin="miter"/><path d="M373.52063,39.09255h11v17.5" fill="none" fill-rule="nonzero" stroke="#a45a00" stroke-width="2" stroke-linecap="round" stroke-linejoin="miter"/><path d="M385.02063,47.59256h6" fill="none" fill-rule="nonzero" stroke="#a45a00" stroke-width="2" stroke-linecap="round" stroke-linejoin="miter"/><path d="M453.02063,110.09257v-31.5" fill="none" fill-rule="nonzero" stroke="#a45a00" stroke-width="2" stroke-linecap="round" stroke-linejoin="miter"/><path d="M453.02063,103.59257h-13" fill="none" fill-rule="nonzero" stroke="#a45a00" stroke-width="2" stroke-linecap="round" stroke-linejoin="miter"/><path d="M446.52063,103.09257v-8" fill="none" fill-rule="nonzero" stroke="#a45a00" stroke-width="2" stroke-linecap="round" stroke-linejoin="miter"/><path d="M463.02063,92.59257h-9.5" fill="none" fill-rule="nonzero" stroke="#a45a00" stroke-width="2" stroke-linecap="round" stroke-linejoin="miter"/><path d="M70.21369,34.63817h-21.02102v-24.02402" fill="none" fill-rule="nonzero" stroke="#a45a00" stroke-width="2" stroke-linecap="round" stroke-linejoin="miter"/><path d="M47.69117,22.62616h-15.01502" fill="none" fill-rule="nonzero" stroke="#a45a00" stroke-width="2" stroke-linecap="round" stroke-linejoin="miter"/><path d="M58.20168,45.14869v-10.51051" fill="none" fill-rule="nonzero" stroke="#a45a00" stroke-width="2" stroke-linecap="round" stroke-linejoin="miter"/><path d="M82.28417,-13.94231v-5.5h259.5v5.5z" fill="#d4d4d4" fill-rule="nonzero" stroke="none" stroke-width="0" stroke-linecap="butt" stroke-linejoin="miter"/><path d="M87.23012,79.81445v-5.5h14.5v5.5z" fill="#d4d4d4" fill-rule="nonzero" stroke="none" stroke-width="0" stroke-linecap="butt" stroke-linejoin="miter"/><path d="M101.23012,88.81445v-5.5h14.5v5.5z" fill="#d4d4d4" fill-rule="nonzero" stroke="none" stroke-width="0" stroke-linecap="butt" stroke-linejoin="miter"/><path d="M115.31345,95.81445v-5.5h11.75v5.5z" fill="#d4d4d4" fill-rule="nonzero" stroke="none" stroke-width="0" stroke-linecap="butt" stroke-linejoin="miter"/><path d="M126.56345,104.81445v-5.5h14.25v5.5z" fill="#d4d4d4" fill-rule="nonzero" stroke="none" stroke-width="0" stroke-linecap="butt" stroke-linejoin="miter"/><path d="M140.98012,113.48111v-5.5h9.75v5.5z" fill="#d4d4d4" fill-rule="nonzero" stroke="none" stroke-width="0" stroke-linecap="butt" stroke-linejoin="miter"/><path d="M150.73012,121.81445v-5.5h14v5.5z" fill="#d4d4d4" fill-rule="nonzero" stroke="none" stroke-width="0" stroke-linecap="butt" stroke-linejoin="miter"/><path d="M164.48012,131.81444v-5.5h10.25v5.5z" fill="#d4d4d4" fill-rule="nonzero" stroke="none" stroke-width="0" stroke-linecap="butt" stroke-linejoin="miter"/><path d="M174.73012,140.14779v-5.5h14v5.5z" fill="#d4d4d4" fill-rule="nonzero" stroke="none" stroke-width="0" stroke-linecap="butt" stroke-linejoin="miter"/><path d="M188.98012,149.14779v-5.5h9.75v5.5z" fill="#d4d4d4" fill-rule="nonzero" stroke="none" stroke-width="0" stroke-linecap="butt" stroke-linejoin="miter"/><path d="M286.81345,244.06447v-5.5h9.91667v5.5z" fill="#d4d4d4" fill-rule="nonzero" stroke="none" stroke-width="0" stroke-linecap="butt" stroke-linejoin="miter"/><path d="M296.89679,234.98114v-5.5h13.91666v5.5z" fill="#d4d4d4" fill-rule="nonzero" stroke="none" stroke-width="0" stroke-linecap="butt" stroke-linejoin="miter"/><path d="M310.89679,226.81444v-5.5h10.08333v5.5z" fill="#d4d4d4" fill-rule="nonzero" stroke="none" stroke-width="0" stroke-linecap="butt" stroke-linejoin="miter"/><path d="M320.89679,216.89779v-5.5h14.08333v5.5z" fill="#d4d4d4" fill-rule="nonzero" stroke="none" stroke-width="0" stroke-linecap="butt" stroke-linejoin="miter"/><path d="M334.81345,208.89779v-5.5h9.91667v5.5z" fill="#d4d4d4" fill-rule="nonzero" stroke="none" stroke-width="0" stroke-linecap="butt" stroke-linejoin="miter"/><path d="M344.81345,199.89779v-5.5h13.91667v5.5z" fill="#d4d4d4" fill-rule="nonzero" stroke="none" stroke-width="0" stroke-linecap="butt" stroke-linejoin="miter"/><path d="M358.89679,190.98114v-5.5h10.75v5.5z" fill="#d4d4d4" fill-rule="nonzero" stroke="none" stroke-width="0" stroke-linecap="butt" stroke-linejoin="miter"/><path d="M370.06345,183.89779v-5.5h13.75v5.5z" fill="#d4d4d4" fill-rule="nonzero" stroke="none" stroke-width="0" stroke-linecap="butt" stroke-linejoin="miter"/><path d="M384.06345,175.06444v-5.5h13.91667v5.5z" fill="#d4d4d4" fill-rule="nonzero" stroke="none" stroke-width="0" stroke-linecap="butt" stroke-linejoin="miter"/><path d="M11.22411,253.06147v-5.5h275.75v5.5z" fill="#d4d4d4" fill-rule="nonzero" stroke="none" stroke-width="0" stroke-linecap="butt" stroke-linejoin="miter"/></g></g></svg>