<svg version="1.1" xmlns="http://www.w3.org/2000/svg" xmlns:xlink="http://www.w3.org/1999/xlink" width="27.3432" height="22.4019" viewBox="0,0,27.3432,22.4019"><g transform="translate(-226.3284,-168.79905)"><g data-paper-data="{&quot;isPaintingLayer&quot;:true}" fill="#ffffff" fill-rule="nonzero" stroke="none" stroke-width="0" stroke-linecap="butt" stroke-linejoin="miter" stroke-miterlimit="10" stroke-dasharray="" stroke-dashoffset="0" style="mix-blend-mode: normal"><path d="M234.68824,177.51784c0,0 11.37022,-0.00481 16.53419,-0.00481c1.35269,0 2.44917,1.09672 2.44917,2.44917c0,1.35269 -1.09648,2.44897 -2.44917,2.44897c-4.32942,0 -16.5209,0.00506 -16.5209,0.00506c0,0 0.81849,0.82831 4.59441,4.60398c0.95652,0.95657 0.95652,2.5071 0,3.46341c-0.95701,0.95632 -2.50734,0.95657 -3.46366,0c-3.06173,-3.06129 -8.78664,-8.78684 -8.78664,-8.78684c-0.95632,-0.95657 -0.95632,-2.50729 0,-3.46341c0,0 4.94044,-4.94064 8.71631,-8.71656c0.95701,-0.95701 2.50754,-0.95701 3.46366,0c0.95657,0.95637 0.95657,2.50734 0,3.46297c-3.06178,3.06267 -4.53737,4.53807 -4.53737,4.53807z"/></g></g></svg>