<svg version="1.1" xmlns="http://www.w3.org/2000/svg" xmlns:xlink="http://www.w3.org/1999/xlink" width="570.59492" height="440.654" viewBox="0,0,570.59492,440.654"><defs><linearGradient x1="78.827" y1="368.36294" x2="62.37226" y2="379.08578" gradientUnits="userSpaceOnUse" id="color-1"><stop offset="0" stop-color="#8e8e8e"/><stop offset="1" stop-color="#818181"/></linearGradient><linearGradient x1="305.15945" y1="293.07087" x2="272.02873" y2="348.33722" gradientUnits="userSpaceOnUse" id="color-2"><stop offset="0" stop-color="#8e8e8e"/><stop offset="1" stop-color="#818181"/></linearGradient><linearGradient x1="350.34595" y1="293.17084" x2="306.52682" y2="327.15693" gradientUnits="userSpaceOnUse" id="color-3"><stop offset="0" stop-color="#8e8e8e"/><stop offset="1" stop-color="#818181"/></linearGradient><linearGradient x1="111.94072" y1="303.88774" x2="139.65045" y2="335.93213" gradientUnits="userSpaceOnUse" id="color-4"><stop offset="0" stop-color="#8e8e8e"/><stop offset="1" stop-color="#818181"/></linearGradient><linearGradient x1="28.80039" y1="296.6381" x2="13.03854" y2="346.95565" gradientUnits="userSpaceOnUse" id="color-5"><stop offset="0" stop-color="#8e8e8e"/><stop offset="1" stop-color="#818181"/></linearGradient><radialGradient cx="118.90219" cy="165.84601" r="22.50532" gradientUnits="userSpaceOnUse" id="color-6"><stop offset="0" stop-color="#faff00"/><stop offset="1" stop-color="#faff00" stop-opacity="0"/></radialGradient><radialGradient cx="150.37162" cy="14.59603" r="22.25535" gradientUnits="userSpaceOnUse" id="color-7"><stop offset="0" stop-color="#faff00"/><stop offset="1" stop-color="#faff00" stop-opacity="0"/></radialGradient><linearGradient x1="241.41177" y1="43.85545" x2="241.41177" y2="54.19026" gradientUnits="userSpaceOnUse" id="color-8"><stop offset="0" stop-color="#ffffff"/><stop offset="1" stop-color="#a3a3a3"/></linearGradient><linearGradient x1="240.14913" y1="46.27761" x2="240.14913" y2="50.20368" gradientUnits="userSpaceOnUse" id="color-9"><stop offset="0" stop-color="#ffffff"/><stop offset="1" stop-color="#a3a3a3"/></linearGradient><radialGradient cx="242.58678" cy="50.74571" r="35.67273" gradientUnits="userSpaceOnUse" id="color-10"><stop offset="0" stop-color="#66ebff"/><stop offset="1" stop-color="#b6f5ff"/></radialGradient><radialGradient cx="242.09588" cy="50.40025" r="35.67273" gradientUnits="userSpaceOnUse" id="color-11"><stop offset="0" stop-color="#b6f5ff" stop-opacity="0"/><stop offset="1" stop-color="#b6f5ff" stop-opacity="0"/></radialGradient><radialGradient cx="496.79747" cy="189.16761" r="39.82692" gradientUnits="userSpaceOnUse" id="color-12"><stop offset="0" stop-color="#faff00"/><stop offset="1" stop-color="#faff00" stop-opacity="0"/></radialGradient></defs><g transform="translate(45.29745,40.327)"><g data-paper-data="{&quot;isPaintingLayer&quot;:true}" stroke-miterlimit="10" stroke-dasharray="" stroke-dashoffset="0" style="mix-blend-mode: normal"><path d="M-26.63315,241.06002c0,0 -4.5045,-56.33616 -4.5045,-93.09309c0,-51.35959 4.5045,-186.18619 4.5045,-186.18619h465.46547v279.27928z" fill="#c6914f" fill-rule="nonzero" stroke="#000000" stroke-width="0" stroke-linecap="butt" stroke-linejoin="miter"/><path d="M-29.6592,244.87297v-16h132v16z" fill="#6d6d6d" fill-rule="nonzero" stroke="none" stroke-width="0" stroke-linecap="butt" stroke-linejoin="miter"/><path d="M100.34133,240.87297v-12h134v12z" fill="#6d6d6d" fill-rule="nonzero" stroke="none" stroke-width="0" stroke-linecap="butt" stroke-linejoin="miter"/><g fill-rule="nonzero" stroke="none" stroke-linecap="butt" stroke-linejoin="miter"><path d="M56.99067,374.65871l6.65307,-7.86422l17.83201,3.77381l-6.37982,12.029l-12.8997,-0.75551z" data-paper-data="{&quot;origPos&quot;:null,&quot;origRot&quot;:0}" fill="#534c42" stroke-width="0"/><path d="M59.32392,373.79931l5.97073,-7.05764l16.00311,3.38678l-5.72553,10.79525l-11.57673,-0.67802z" data-paper-data="{&quot;origPos&quot;:null,&quot;origRot&quot;:0}" fill="url(#color-1)" stroke-width="NaN"/></g><path d="M-44.26308,333.74433v-74.52655c0,0 48.96927,7.45265 86.95814,7.45265c40.05105,0 143.01298,-7.67744 228.78354,-9.4622c93.01051,-1.93542 167.58388,2.00956 167.58388,2.00956v74.52655z" fill="#7c7262" fill-rule="nonzero" stroke="none" stroke-width="0" stroke-linecap="butt" stroke-linejoin="miter"/><path d="M-44.55341,397.67272v-74.52655c0,0 49.03266,7.45265 87.07069,7.45265c40.10288,0 143.19805,-7.67744 229.07955,-9.4622c93.13088,-1.93542 167.80074,2.00956 167.80074,2.00956v74.52655z" fill="#786e5f" fill-rule="nonzero" stroke="none" stroke-width="0" stroke-linecap="butt" stroke-linejoin="miter"/><path d="M-44.01773,400.32699v-37.05188c0,0 48.8621,3.70519 86.76783,3.70519c39.96341,0 142.69997,-3.81693 228.2828,-4.70428c92.80695,-0.96221 167.21711,0.9991 167.21711,0.9991v37.05188z" fill="#6f6558" fill-rule="nonzero" stroke="none" stroke-width="0" stroke-linecap="butt" stroke-linejoin="miter"/><path d="M-44.37797,270.77066v-32.95167h485.35807v32.95167z" fill="#949494" fill-rule="nonzero" stroke="none" stroke-width="0" stroke-linecap="butt" stroke-linejoin="miter"/><path d="M-45.29745,270.77066v-13.30453h483.87033v13.30453z" fill="#b5b5b5" fill-rule="nonzero" stroke="none" stroke-width="0" stroke-linecap="butt" stroke-linejoin="miter"/><g fill-rule="nonzero" stroke="none" stroke-linecap="butt" stroke-linejoin="miter"><path d="M250.18972,335.35154l8.97097,-36.16014l55.20764,0.37413l-2.97517,52.24412l-37.46144,7.45925z" data-paper-data="{&quot;origPos&quot;:null,&quot;origRot&quot;:0}" fill="#534c42" stroke-width="0"/><path d="M256.77095,330.10292l8.05089,-32.45141l49.54528,0.33577l-2.67009,46.88573l-33.61922,6.69417z" data-paper-data="{&quot;origPos&quot;:null,&quot;origRot&quot;:0}" fill="url(#color-2)" stroke-width="NaN"/></g><g fill-rule="nonzero" stroke="none" stroke-linecap="butt" stroke-linejoin="miter"><path d="M291.51064,312.56916l17.7173,-24.92571l47.48712,11.96112l-16.98963,38.12603l-34.35227,-2.39454z" data-paper-data="{&quot;origPos&quot;:null,&quot;origRot&quot;:0}" fill="#534c42" stroke-width="0"/><path d="M298.40894,310.40142l15.9002,-22.36922l42.61663,10.73433l-15.24717,34.21564l-30.82895,-2.14891z" data-paper-data="{&quot;origPos&quot;:null,&quot;origRot&quot;:0}" fill="url(#color-3)" stroke-width="NaN"/></g><g fill-rule="nonzero" stroke="none" stroke-linecap="butt" stroke-linejoin="miter"><path d="M127.02112,345.55084l-21.99261,-13.73023l14.04779,-31.35114l34.27056,14.15045l-4.36287,23.1124z" data-paper-data="{&quot;origRot&quot;:0}" fill="#534c42" stroke-width="0"/><path d="M124.20214,340.27389l-19.01636,-12.32205l12.14663,-28.13558l29.63268,12.69916l-3.77238,20.74185z" data-paper-data="{&quot;origRot&quot;:0}" fill="url(#color-4)" stroke-width="NaN"/></g><g fill-rule="nonzero" stroke="none" stroke-linecap="butt" stroke-linejoin="miter"><path d="M-8.63795,340.58006l-0.64857,-30.4996l47.71368,-10.22854l9.55192,42.16174l-30.58724,13.08147z" data-paper-data="{&quot;origRot&quot;:0}" fill="#534c42" stroke-width="0"/><path d="M-4.35378,335.34751l-0.58204,-27.37144l42.81994,-9.17942l8.57216,37.83744l-27.45006,11.73975z" data-paper-data="{&quot;origRot&quot;:0}" fill="url(#color-5)" stroke-width="NaN"/></g><path d="M-32.6592,143.87299v-178.8h15v178.8z" fill="#6d6d6d" fill-rule="nonzero" stroke="none" stroke-width="0" stroke-linecap="butt" stroke-linejoin="miter"/><path d="M-25.6592,143.87299v-13h128v13z" fill="#6d6d6d" fill-rule="nonzero" stroke="none" stroke-width="0" stroke-linecap="butt" stroke-linejoin="miter"/><path d="M246.3408,237.87297v-19h76v19z" fill="#6d6d6d" fill-rule="nonzero" stroke="none" stroke-width="0" stroke-linecap="butt" stroke-linejoin="miter"/><path d="M232.3408,237.87297v-10h88v10z" fill="#6d6d6d" fill-rule="nonzero" stroke="none" stroke-width="0" stroke-linecap="butt" stroke-linejoin="miter"/><path d="M270.3408,220.87298v-19h76v19z" fill="#6d6d6d" fill-rule="nonzero" stroke="none" stroke-width="0" stroke-linecap="butt" stroke-linejoin="miter"/><path d="M256.3408,219.87298v-10h88v10z" fill="#6d6d6d" fill-rule="nonzero" stroke="none" stroke-width="0" stroke-linecap="butt" stroke-linejoin="miter"/><path d="M294.3408,202.873v-19h76v19z" fill="#6d6d6d" fill-rule="nonzero" stroke="none" stroke-width="0" stroke-linecap="butt" stroke-linejoin="miter"/><path d="M280.3408,201.873v-10h88v10z" fill="#6d6d6d" fill-rule="nonzero" stroke="none" stroke-width="0" stroke-linecap="butt" stroke-linejoin="miter"/><path d="M318.3408,184.873v-19h76v19z" fill="#6d6d6d" fill-rule="nonzero" stroke="none" stroke-width="0" stroke-linecap="butt" stroke-linejoin="miter"/><path d="M304.3408,184.873v-10h88v10z" fill="#6d6d6d" fill-rule="nonzero" stroke="none" stroke-width="0" stroke-linecap="butt" stroke-linejoin="miter"/><path d="M319.3408,186.873v-19h76v19z" fill="#6d6d6d" fill-rule="nonzero" stroke="none" stroke-width="0" stroke-linecap="butt" stroke-linejoin="miter"/><path d="M343.3408,168.873v-19h76v19z" fill="#6d6d6d" fill-rule="nonzero" stroke="none" stroke-width="0" stroke-linecap="butt" stroke-linejoin="miter"/><path d="M329.3408,168.873v-10h88v10z" fill="#6d6d6d" fill-rule="nonzero" stroke="none" stroke-width="0" stroke-linecap="butt" stroke-linejoin="miter"/><path d="M357.3408,159.873v-19h76v19z" fill="#6d6d6d" fill-rule="nonzero" stroke="none" stroke-width="0" stroke-linecap="butt" stroke-linejoin="miter"/><path d="M343.3408,159.873v-10h88v10z" fill="#6d6d6d" fill-rule="nonzero" stroke="none" stroke-width="0" stroke-linecap="butt" stroke-linejoin="miter"/><path d="M384.3408,238.87297v-90h49v90z" fill="#6d6d6d" fill-rule="nonzero" stroke="none" stroke-width="0" stroke-linecap="butt" stroke-linejoin="miter"/><path d="M322.3408,237.87297v-52h68v52z" fill="#6d6d6d" fill-rule="nonzero" stroke="none" stroke-width="0" stroke-linecap="butt" stroke-linejoin="miter"/><path d="M310.3408,236.87297v-28h41v28z" fill="#6d6d6d" fill-rule="nonzero" stroke="none" stroke-width="0" stroke-linecap="butt" stroke-linejoin="miter"/><path d="M430.3412,237.87297v-239h10v239z" fill="#6d6d6d" fill-rule="nonzero" stroke="none" stroke-width="0" stroke-linecap="butt" stroke-linejoin="miter"/><g data-paper-data="{&quot;index&quot;:null}" fill="#6d6d6d" fill-rule="nonzero" stroke="none" stroke-width="0" stroke-linecap="butt" stroke-linejoin="miter"><path d="M82.34079,142.873v-19h76v19z"/><path d="M58.34079,125.873v-19h76v19z"/><path d="M60.34079,124.873v-10h88v10z"/><path d="M34.34079,107.873v-19h76v19z"/><path d="M36.34079,106.873v-10h88v10z"/><path d="M10.34079,89.873v-19h76v19z"/><path d="M12.34079,89.873v-10h88v10z"/><path d="M9.34079,91.873v-19h76v19z"/><path d="M-14.65921,73.873v-19h76v19z"/><path d="M-12.65921,73.873v-10h88v10z"/><path d="M-28.65921,64.873v-19h76v19z"/><path d="M-26.65921,64.873v-10h88v10z"/><path d="M-28.65921,143.873v-90h49v90z"/><path d="M14.34079,142.873v-52h68v52z"/><path d="M53.34079,141.873v-28h41v28z"/></g><path d="M367.34133,96.37299v-136h13v136z" fill="#6d6d6d" fill-rule="nonzero" stroke="none" stroke-width="0" stroke-linecap="butt" stroke-linejoin="miter"/><path d="M429.34133,0.673v-41h11v41z" fill="#6d6d6d" fill-rule="nonzero" stroke="none" stroke-width="0" stroke-linecap="butt" stroke-linejoin="miter"/><path d="M41.34133,-19.027v-16h272v16z" fill="#6d6d6d" fill-rule="nonzero" stroke="none" stroke-width="0" stroke-linecap="butt" stroke-linejoin="miter"/><path d="M300.34133,97.373v-136h13v136z" fill="#6d6d6d" fill-rule="nonzero" stroke="none" stroke-width="0" stroke-linecap="butt" stroke-linejoin="miter"/><path d="M-28.96648,229.04804l-3.17117,-85.41742l17.51051,0.83333l5.84384,83.91742z" fill="#a45a00" fill-rule="nonzero" stroke="none" stroke-width="0" stroke-linecap="butt" stroke-linejoin="miter"/><path d="M135.00692,165.84601c0,12.42935 -7.21033,22.50532 -16.10473,22.50532c-8.89439,0 -16.10473,-10.07598 -16.10473,-22.50532c0,-12.42935 7.21033,-22.50532 16.10473,-22.50532c8.89439,0 16.10473,10.07598 16.10473,22.50532z" fill="url(#color-6)" fill-rule="nonzero" stroke="none" stroke-width="0" stroke-linecap="butt" stroke-linejoin="miter"/><path d="M116.35626,198.06907v-28.04406h4.57161v28.04406z" fill="#e57e00" fill-rule="nonzero" stroke="none" stroke-width="0" stroke-linecap="butt" stroke-linejoin="miter"/><path d="M118.18307,198.06907v-28.04406h3.04926v28.04406z" fill="#d17300" fill-rule="nonzero" stroke="none" stroke-width="0" stroke-linecap="butt" stroke-linejoin="miter"/><path d="M127.01724,164.42911c0,6.89429 -1.76267,9.43854 -8.06843,9.43854c-3.03781,0 -6.16785,-1.68236 -6.80425,-5.51003c-0.33942,-2.04148 0.90193,-5.78251 1.31108,-7.78672c0.4161,-2.03825 4.42753,-2.25646 4.42753,-4.05798c0,-5.03964 -3.10448,-8.91 -2.14795,-9.48096c0.35201,-0.21013 1.51727,1.86924 3.2136,1.86924c1.43497,0 1.59023,4.85646 2.85538,5.38484c4.29433,1.79349 5.21305,4.81768 5.21305,10.14308z" fill="#ffef00" fill-rule="nonzero" stroke="none" stroke-width="0" stroke-linecap="butt" stroke-linejoin="miter"/><path d="M124.17553,165.7302c0,3.86822 -0.98899,5.29573 -4.527,5.29573c-1.70444,0 -3.46062,-0.94393 -3.8177,-3.09154c-0.19044,-1.14542 0.50605,-3.24442 0.73562,-4.36894c0.23346,-1.14361 2.48418,-1.26604 2.48418,-2.27683c0,-2.82761 1.49015,-1.54591 2.19999,-1.24945c2.40944,1.00628 2.92492,2.70308 2.92492,5.69103z" fill="#ffb000" fill-rule="nonzero" stroke="none" stroke-width="0" stroke-linecap="butt" stroke-linejoin="miter"/><path d="M166.29747,14.59603c0,12.29129 -7.13024,22.25535 -15.92585,22.25535c-8.7956,0 -15.92585,-9.96406 -15.92585,-22.25535c0,-12.29129 7.13024,-22.25535 15.92585,-22.25535c8.7956,0 15.92585,9.96406 15.92585,22.25535z" fill="url(#color-7)" fill-rule="nonzero" stroke="none" stroke-width="0" stroke-linecap="butt" stroke-linejoin="miter"/><path d="M147.34705,48.06906v-25.73508h4.19521v25.73508z" fill="#e57e00" fill-rule="nonzero" stroke="none" stroke-width="0" stroke-linecap="butt" stroke-linejoin="miter"/><path d="M149.02346,48.06906v-25.73508h2.7982v25.73508z" fill="#d17300" fill-rule="nonzero" stroke="none" stroke-width="0" stroke-linecap="butt" stroke-linejoin="miter"/><path d="M157.13028,17.19881c0,6.32666 -1.61754,8.66143 -7.40412,8.66143c-2.7877,0 -5.66002,-1.54384 -6.24403,-5.05637c-0.31148,-1.87339 0.82767,-5.30641 1.20313,-7.14561c0.38184,-1.87044 4.06299,-2.07068 4.06299,-3.72387c0,-4.6247 -2.84888,-8.17641 -1.97111,-8.70036c0.32303,-0.19283 1.39234,1.71534 2.94901,1.71534c1.31682,0 1.4593,4.45661 2.62028,4.94148c3.94076,1.64582 4.78384,4.42103 4.78384,9.30796z" fill="#ffef00" fill-rule="nonzero" stroke="none" stroke-width="0" stroke-linecap="butt" stroke-linejoin="miter"/><path d="M154.52254,18.39278c0,3.54973 -0.90756,4.85971 -4.15427,4.85971c-1.56411,0 -3.1757,-0.86621 -3.50337,-2.837c-0.17476,-1.05112 0.46439,-2.9773 0.67505,-4.00923c0.21424,-1.04945 2.27965,-1.1618 2.27965,-2.08937c0,-2.59481 1.36746,-1.41863 2.01886,-1.14658c2.21107,0.92343 2.6841,2.48053 2.6841,5.22246z" fill="#ffb000" fill-rule="nonzero" stroke="none" stroke-width="0" stroke-linecap="butt" stroke-linejoin="miter"/><path d="M232.71183,56.46537v-16.88727h16.03636v16.88727z" fill="none" fill-rule="nonzero" stroke="none" stroke-width="0" stroke-linecap="butt" stroke-linejoin="miter"/><path d="M232.71183,56.46537v-16.88727h16.03636v16.88727z" fill="none" fill-rule="nonzero" stroke="none" stroke-width="0" stroke-linecap="butt" stroke-linejoin="miter"/><path d="M238.41141,43.85545h6.00074c1.2602,0 2.28174,0.98983 2.28174,2.21092v5.91296c0,1.221 -1.02153,2.21092 -2.28174,2.21092h-6.00074c-1.26017,0 -2.28176,-0.98992 -2.28176,-2.21092v-5.91296c0,-1.22109 1.02158,-2.21092 2.28176,-2.21092z" fill="url(#color-8)" fill-rule="evenodd" stroke="none" stroke-width="14" stroke-linecap="round" stroke-linejoin="round"/><path d="M237.73899,49.02286c0,-2.02842 1.64436,-3.67278 3.67278,-3.67278c2.02842,0 3.67278,1.64436 3.67278,3.67278c0,2.02842 -1.64436,3.67278 -3.67278,3.67278c-2.02842,0 -3.67278,-1.64436 -3.67278,-3.67278z" fill="#ffffff" fill-rule="nonzero" stroke="none" stroke-width="0" stroke-linecap="butt" stroke-linejoin="miter"/><path d="M238.18609,48.24064c0,-1.08416 0.87888,-1.96304 1.96304,-1.96304c1.08416,0 1.96304,0.87888 1.96304,1.96304c0,1.08416 -0.87888,1.96304 -1.96304,1.96304c-1.08416,0 -1.96304,-0.87888 -1.96304,-1.96304z" fill="url(#color-9)" fill-rule="nonzero" stroke="none" stroke-width="0" stroke-linecap="butt" stroke-linejoin="miter"/><path d="M240.18412,47.63675c0,-0.428 0.34696,-0.77497 0.77497,-0.77497c0.428,0 0.77497,0.34697 0.77497,0.77497c0,0.428 -0.34697,0.77497 -0.77497,0.77497c-0.428,0 -0.77497,-0.34696 -0.77497,-0.77497z" fill="#ffffff" fill-rule="nonzero" stroke="none" stroke-width="0" stroke-linecap="butt" stroke-linejoin="miter"/><path d="M213.13224,86.41843c0,0 -9.16364,-6.95004 -9.16364,-14.72735c0,-13.3648 -0.65455,-33.03832 -0.65455,-41.23636c0,-7.16674 9.81818,-15.38174 9.81818,-15.38174h58.90909c0,0 10.47273,5.0667 10.47273,11.45447c0,7.33183 0.32727,31.71634 0.32727,45.49091c0,10.09061 -10.8,14.40008 -10.8,14.40008z" fill="url(#color-10)" fill-rule="nonzero" stroke="none" stroke-width="0" stroke-linecap="butt" stroke-linejoin="miter"/><path d="M212.64133,87.07298c0,0 -9.16364,-6.95004 -9.16364,-14.72735c0,-13.3648 -0.65455,-33.03832 -0.65455,-41.23636c0,-7.16675 9.81818,-15.38174 9.81818,-15.38174h58.90909c0,0 10.47273,5.0667 10.47273,11.45446c0,7.33183 0.32727,31.71634 0.32727,45.49091c0,10.09061 -10.8,14.40008 -10.8,14.40008z" fill="#06d8f0" fill-rule="nonzero" stroke="#e2a400" stroke-width="8.5" stroke-linecap="butt" stroke-linejoin="miter"/><path d="M212.64133,86.07298c0,0 -9.16364,-6.95004 -9.16364,-14.72735c0,-13.3648 -0.65455,-33.03832 -0.65455,-41.23636c0,-7.16675 9.81818,-15.38174 9.81818,-15.38174h58.90909c0,0 10.47273,5.0667 10.47273,11.45446c0,7.33183 0.32727,31.71634 0.32727,45.49091c0,10.09061 -10.8,14.40008 -10.8,14.40008z" fill="url(#color-11)" fill-rule="nonzero" stroke="#ffdc7b" stroke-width="2.5" stroke-linecap="butt" stroke-linejoin="miter"/><path d="M238.50001,83.09841v-64.33333h10v64.33333z" fill="#e2a400" fill-rule="nonzero" stroke="none" stroke-width="0" stroke-linecap="butt" stroke-linejoin="miter"/><path d="M278.2592,56.96346l-72.98057,-0.73075l0.12886,-9.99935l72.98057,0.73075z" data-paper-data="{&quot;index&quot;:null}" fill="#e2a400" fill-rule="nonzero" stroke="none" stroke-width="0" stroke-linecap="butt" stroke-linejoin="miter"/><path d="M241.16667,86.09841v-70.33333h4.66667v70.33333z" fill="#ffdc7b" fill-rule="nonzero" stroke="none" stroke-width="0" stroke-linecap="butt" stroke-linejoin="miter"/><path d="M281.14483,54.0302l-76.82808,-0.53036l0.03844,-4.66654l76.82808,0.53036z" fill="#ffdc7b" fill-rule="nonzero" stroke="none" stroke-width="0" stroke-linecap="butt" stroke-linejoin="miter"/><path d="M160.46633,227.173v-46.10775h55.98799v46.10775z" fill="#ffd254" fill-rule="nonzero" stroke="#ea9300" stroke-width="3" stroke-linecap="butt" stroke-linejoin="miter"/><path d="M187.46633,226.173v-43" fill="none" fill-rule="nonzero" stroke="#ea9300" stroke-width="4.5" stroke-linecap="round" stroke-linejoin="miter"/><path d="M172.46633,226.173v-44" fill="none" fill-rule="nonzero" stroke="#ea9300" stroke-width="4.5" stroke-linecap="round" stroke-linejoin="miter"/><path d="M202.133,182.673v43.5" fill="none" fill-rule="nonzero" stroke="#ea9300" stroke-width="4.5" stroke-linecap="round" stroke-linejoin="miter"/><g fill-rule="nonzero" stroke="none" stroke-width="0" stroke-linecap="butt" stroke-linejoin="miter"><path d="M525.29747,189.16761c0,21.9958 -12.75988,39.82692 -28.5,39.82692c-15.74012,0 -28.5,-17.83112 -28.5,-39.82692c0,-21.9958 12.75988,-39.82692 28.5,-39.82692c15.74012,0 28.5,17.83112 28.5,39.82692z" fill="url(#color-12)"/><path d="M491.38487,249.06907v-46.05406h7.50751v46.05406z" fill="#e57e00"/><path d="M494.38487,249.06907v-46.05406h5.00751v46.05406z" fill="#d17300"/><path d="M508.89238,193.8254c0,11.32183 -2.89466,15.5 -13.25,15.5c-4.98871,0 -10.12886,-2.76277 -11.17396,-9.04859c-0.5574,-3.35252 1.48115,-9.49606 2.15306,-12.78738c0.68332,-3.34723 7.2709,-3.70557 7.2709,-6.66403c0,-8.27611 -5.09819,-14.63204 -3.52738,-15.56967c0.57808,-0.34507 2.49166,3.06967 5.27738,3.06967c2.35651,0 2.61149,7.9753 4.68911,8.843c7.05216,2.94527 8.56089,7.91162 8.56089,16.657z" fill="#ffef00"/><path d="M504.22571,195.96206c0,6.3524 -1.62412,8.69667 -7.43425,8.69667c-2.79905,0 -5.68305,-1.55012 -6.26943,-5.07694c-0.31274,-1.88102 0.83104,-5.32801 1.20803,-7.17469c0.3834,-1.87804 4.07953,-2.0791 4.07953,-3.73902c0,-4.64352 2.44713,-2.5387 3.61283,-2.05185c3.9568,1.65252 4.80331,4.43901 4.80331,9.34583z" fill="#ffb000"/></g></g></g></svg>