<svg version="1.1" xmlns="http://www.w3.org/2000/svg" xmlns:xlink="http://www.w3.org/1999/xlink" width="82.22354" height="210.44949" viewBox="0,0,82.22354,210.44949"><defs><linearGradient x1="330.70257" y1="330.52786" x2="329.24222" y2="341.2507" gradientUnits="userSpaceOnUse" id="color-1"><stop offset="0" stop-color="#8e8e8e"/><stop offset="1" stop-color="#818181"/></linearGradient><linearGradient x1="351.0314" y1="255.23578" x2="335.07765" y2="310.50214" gradientUnits="userSpaceOnUse" id="color-2"><stop offset="0" stop-color="#8e8e8e"/><stop offset="1" stop-color="#818181"/></linearGradient><linearGradient x1="375.10575" y1="328.63766" x2="376.20557" y2="339.3605" gradientUnits="userSpaceOnUse" id="color-3"><stop offset="0" stop-color="#8e8e8e"/><stop offset="1" stop-color="#818181"/></linearGradient><linearGradient x1="364.07969" y1="255.33572" x2="340.34319" y2="289.32185" gradientUnits="userSpaceOnUse" id="color-4"><stop offset="0" stop-color="#8e8e8e"/><stop offset="1" stop-color="#818181"/></linearGradient></defs><g transform="translate(-307.44633,-152.04243)"><g data-paper-data="{&quot;isPaintingLayer&quot;:true}" fill-rule="nonzero" stroke="none" stroke-linecap="butt" stroke-linejoin="miter" stroke-miterlimit="10" stroke-dasharray="" stroke-dashoffset="0" style="mix-blend-mode: normal"><g><path d="M327.29339,219.8068l-2.83529,-43.47452l48.20001,5.67059v37.80393z" fill="#999999" stroke-width="0"/><g data-paper-data="{&quot;index&quot;:null}"><path d="M328.58526,336.82363l0.59046,-7.86422l1.58258,3.77381l-0.56621,12.029l-1.14485,-0.75551z" data-paper-data="{&quot;origPos&quot;:null,&quot;origRot&quot;:0}" fill="#534c42" stroke-width="0"/><path d="M328.79233,335.96423l0.5299,-7.05764l1.42027,3.38678l-0.50814,10.79525l-1.02743,-0.67802z" data-paper-data="{&quot;origPos&quot;:null,&quot;origRot&quot;:0}" fill="url(#color-1)" stroke-width="NaN"/></g><path d="M319.33627,300.41375l0.26275,-79.03105c0,0 4.34601,7.45265 7.71751,7.45265c3.55452,0 12.69236,-7.67744 20.30447,-9.4622c8.25466,-1.93542 14.87302,2.00956 14.87302,2.00956v74.52655z" data-paper-data="{&quot;index&quot;:null}" fill="#9a8a7e" stroke-width="0"/><path d="M319.57325,359.83764v-74.52655c0,0 4.35164,7.45265 7.7275,7.45265c3.55912,0 12.70878,-7.67744 20.33074,-9.4622c8.26534,-1.93542 14.89227,2.00956 14.89227,2.00956v74.52655z" data-paper-data="{&quot;index&quot;:null}" fill="#887c6d" stroke-width="0"/><path d="M319.6208,362.49191v-37.05188c0,0 4.3365,3.70519 7.70062,3.70519c3.54674,0 12.66458,-3.81693 20.26003,-4.70428c8.23659,-0.96221 14.84047,0.9991 14.84047,0.9991v37.05188z" data-paper-data="{&quot;index&quot;:null}" fill="#807566" stroke-width="0"/><g data-paper-data="{&quot;index&quot;:null}"><path d="M323.58823,297.51646l4.31988,-36.16014l26.58465,0.37413l-1.43266,52.24412l-18.03915,7.45925z" data-paper-data="{&quot;origPos&quot;:null,&quot;origRot&quot;:0}" fill="#534c42" stroke-width="0"/><path d="M326.75736,292.26781l3.87682,-32.45141l23.858,0.33577l-1.28575,46.88573l-16.18898,6.69417z" data-paper-data="{&quot;origPos&quot;:null,&quot;origRot&quot;:0}" fill="url(#color-2)" stroke-width="NaN"/></g><g><g data-paper-data="{&quot;index&quot;:null}"><path d="M376.3524,342.11651l-0.8622,0.75551l-0.42642,-12.029l1.19187,-3.77381l0.44468,7.86422z" data-paper-data="{&quot;origPos&quot;:null,&quot;origRot&quot;:0}" fill="#534c42" stroke-width="0"/><path d="M376.23214,340.5204l-0.77377,0.67802l-0.38269,-10.79525l1.06963,-3.38678l0.39908,7.05764z" data-paper-data="{&quot;origPos&quot;:null,&quot;origRot&quot;:0}" fill="url(#color-3)" stroke-width="NaN"/></g><path d="M351.16307,294.01906v-74.52655c0,0 4.9844,-3.94498 11.20113,-2.00956c5.73281,1.78476 12.61468,9.4622 15.29164,9.4622c2.53914,0 5.81219,-7.45265 5.81219,-7.45265l0.19788,79.03105z" data-paper-data="{&quot;index&quot;:null}" fill="#9a8a7e" stroke-width="0"/><path d="M351.14067,357.94745v-74.52655c0,0 4.99085,-3.94498 11.21562,-2.00956c5.74023,1.78476 12.631,9.4622 15.31143,9.4622c2.54242,0 5.81971,-7.45265 5.81971,-7.45265v74.52655z" data-paper-data="{&quot;index&quot;:null}" fill="#887c6d" stroke-width="0"/><path d="M351.21737,360.60172v-37.05188c0,0 4.9735,-1.96131 11.17661,-0.9991c5.72026,0.88735 12.58707,4.70428 15.25818,4.70428c2.53358,0 5.79947,-3.70519 5.79947,-3.70519v37.05188z" data-paper-data="{&quot;index&quot;:null}" fill="#807566" stroke-width="0"/><g data-paper-data="{&quot;index&quot;:null}" fill="none" stroke-width="1" font-family="sans-serif" font-weight="normal" font-size="12" text-anchor="start"/><g data-paper-data="{&quot;index&quot;:null}" fill="none" stroke-width="1" font-family="sans-serif" font-weight="normal" font-size="12" text-anchor="start"/></g><g data-paper-data="{&quot;index&quot;:null}"><path d="M331.1144,274.73411l9.59733,-24.92571l25.7234,11.96112l-9.20315,38.12603l-18.60835,-2.39454z" data-paper-data="{&quot;origPos&quot;:null,&quot;origRot&quot;:0}" fill="#534c42" stroke-width="0"/><path d="M334.85116,272.56634l8.61301,-22.36922l23.0851,10.73433l-8.25928,34.21564l-16.69981,-2.14891z" data-paper-data="{&quot;origPos&quot;:null,&quot;origRot&quot;:0}" fill="url(#color-4)" stroke-width="NaN"/></g><path d="M315.95222,246.26955l-8.50588,-37.80393l82.22354,-6.61569l-8.50588,28.35295z" fill="#aeaeae" stroke-width="0"/><path d="M308.29279,163.37462c0.62591,-4.09684 1.70106,-11.13421 1.70106,-11.13421c0,0 31.94379,-0.87633 45.15007,1.05846c13.29983,1.94849 34.37025,10.59168 34.37025,10.59168l-13.733,27.08264c0,0 -21.99042,-3.35965 -33.37999,-5.09972c-11.94082,-1.82429 -34.87937,-17.45247 -34.10839,-22.49884z" fill="#aeaeae" stroke-width="0"/></g></g></g></svg>