<svg version="1.1" xmlns="http://www.w3.org/2000/svg" xmlns:xlink="http://www.w3.org/1999/xlink" width="117.32956" height="67.78325" viewBox="0,0,117.32956,67.78325"><g transform="translate(-183.55905,-89.70506)"><g data-paper-data="{&quot;isPaintingLayer&quot;:true}" fill-rule="nonzero" stroke-miterlimit="10" stroke-dasharray="" stroke-dashoffset="0" style="mix-blend-mode: normal"><path d="M191.05905,149.98831v-52.77629h102.32956v52.77629z" data-paper-data="{&quot;zoomLevel&quot;:2.5}" fill="#404040" stroke="#404040" stroke-width="15" stroke-linecap="butt" stroke-linejoin="round"/><text transform="translate(227.04586,110.4637) scale(0.47721,0.47721)" font-size="40" xml:space="preserve" fill="#ffffff" fill-rule="nonzero" stroke="none" stroke-width="1" stroke-linecap="butt" stroke-linejoin="miter" stroke-miterlimit="10" stroke-dasharray="" stroke-dashoffset="0" font-family="Sans Serif" font-weight="normal" text-anchor="start" style="mix-blend-mode: normal"><tspan x="0" dy="0">5</tspan></text><text transform="translate(190.48211,127.42195) scale(0.29853,0.29853)" font-size="40" xml:space="preserve" fill="#ffffff" fill-rule="nonzero" stroke="none" stroke-width="1" stroke-linecap="butt" stroke-linejoin="miter" stroke-miterlimit="10" stroke-dasharray="" stroke-dashoffset="0" font-family="Sans Serif" font-weight="normal" text-anchor="start" style="mix-blend-mode: normal"><tspan x="0" dy="0">Type: Orange Skin</tspan></text><text transform="translate(188.44028,143.91665) scale(0.27613,0.27613)" font-size="40" xml:space="preserve" fill="#ffffff" fill-rule="nonzero" stroke="none" stroke-width="1" stroke-linecap="butt" stroke-linejoin="miter" stroke-miterlimit="10" stroke-dasharray="" stroke-dashoffset="0" font-family="Sans Serif" font-weight="normal" text-anchor="start" style="mix-blend-mode: normal"><tspan x="0" dy="0">Power: Sy + Jy Boost</tspan></text><g stroke-linecap="round" stroke-linejoin="miter"><path d="M247.90333,102.30961l6.50056,6.80151l-7.64418,-7.22285" fill="none" stroke="#00bcff" stroke-width="2.5"/><path d="M249.3479,102.24943l3.1299,3.19009" fill="none" stroke="#00bcff" stroke-width="2.5"/><path d="M259.58028,102.30961l-0.96305,1.20381" fill="none" stroke="#00bcff" stroke-width="2.5"/><path d="M260.60351,102.24942l-6.01904,6.13942l-6.32,-6.38018" fill="none" stroke="#00bcff" stroke-width="2.5"/><path d="M256.69113,106.34237l2.28724,-4.15314l2.70857,0.06019l-7.40343,6.62095" fill="none" stroke="#00bcff" stroke-width="2.5"/><path d="M250.13038,102.3698l1.50475,1.08343" fill="none" stroke="#00bcff" stroke-width="2.5"/><path d="M247.42181,101.88828l3.97257,0.36114" fill="none" stroke="#00bcff" stroke-width="2.5"/><path d="M258.14,102.30961l-3.90034,7.15063l-3.17806,-7.36731z" fill="#0889ff" stroke="#0889ff" stroke-width="2.5"/><path d="M249.94981,98.96905h8.84799l2.01637,2.01637h-13.03123z" fill="#00bcff" stroke="#00bcff" stroke-width="2.5"/><path d="M245.91705,101.55723h16.25141" fill="none" stroke="#42deff" stroke-width="2"/><path d="M258.88808,97.91571h-9.66056" fill="none" stroke="#cdffff" stroke-width="2.5"/><path d="M246.66943,101.49704l3.16,-3.16l2.28724,0.48153h7.40343l2.85904,3.03962" fill="none" stroke="#42deff" stroke-width="2.5"/><path d="M262.87569,101.93342l-8.68247,8.68247l-8.96837,-8.96837" fill="none" stroke="#42deff" stroke-width="2"/><path d="M245.49571,100.83495l3.7619,-3.76189h9.84113l4.48418,4.48418" data-paper-data="{&quot;index&quot;:null}" fill="none" stroke="#cdffff" stroke-width="2"/><path d="M264.54598,101.22619l-10.47314,10.47313l-10.29256,-10.29256l5.11619,-5.11619h10.47314z" data-paper-data="{&quot;index&quot;:null}" fill="none" stroke="#000000" stroke-width="1.5"/></g></g></g></svg>