<svg version="1.1" xmlns="http://www.w3.org/2000/svg" xmlns:xlink="http://www.w3.org/1999/xlink" width="49" height="51.6" viewBox="0,0,49,51.6"><defs><linearGradient x1="240.19462" y1="164.80006" x2="240.19462" y2="196.37862" gradientUnits="userSpaceOnUse" id="color-1"><stop offset="0" stop-color="#824b00"/><stop offset="1" stop-color="#1e3c64"/></linearGradient><linearGradient x1="240.19462" y1="174.59117" x2="240.19462" y2="186.58751" gradientUnits="userSpaceOnUse" id="color-2"><stop offset="0" stop-color="#064b71"/><stop offset="1" stop-color="#0b3e64"/></linearGradient></defs><g transform="translate(-213.61145,-151.73036)"><g data-paper-data="{&quot;isPaintingLayer&quot;:true}" stroke="none" stroke-miterlimit="10" stroke-dasharray="" stroke-dashoffset="0" style="mix-blend-mode: normal"><path d="M213.61145,203.33036v-51.6h49v51.6z" fill="none" fill-rule="nonzero" stroke-width="0" stroke-linecap="butt" stroke-linejoin="miter"/><path d="M213.61145,203.33036v-51.6h49v51.6z" fill="none" fill-rule="nonzero" stroke-width="0" stroke-linecap="butt" stroke-linejoin="miter"/><path d="M231.02684,164.80006h18.33558c3.85062,0 6.97197,3.02447 6.97197,6.75559v18.06738c0,3.73084 -3.12134,6.75559 -6.97197,6.75559h-18.33558c-3.85053,0 -6.97203,-3.02476 -6.97203,-6.75559v-18.06738c0,-3.73111 3.1215,-6.75559 6.97203,-6.75559z" fill="url(#color-1)" fill-rule="evenodd" stroke-width="14" stroke-linecap="round" stroke-linejoin="round"/><path d="M228.97222,180.58934c0,-6.19795 5.02443,-11.22238 11.22238,-11.22238c6.19795,0 11.22238,5.02443 11.22238,11.22238c0,6.19795 -5.02443,11.22238 -11.22238,11.22238c-6.19795,0 -11.22238,-5.02443 -11.22238,-11.22238z" fill="#ffffff" fill-rule="nonzero" stroke-width="0" stroke-linecap="butt" stroke-linejoin="miter"/><path d="M234.19643,180.58934c0,-3.3127 2.68547,-5.99817 5.99817,-5.99817c3.3127,0 5.99817,2.68547 5.99817,5.99817c0,3.3127 -2.68547,5.99817 -5.99817,5.99817c-3.3127,0 -5.99817,-2.68547 -5.99817,-5.99817z" fill="url(#color-2)" fill-rule="nonzero" stroke-width="0" stroke-linecap="butt" stroke-linejoin="miter"/><path d="M240.10864,178.7441c0,-1.30779 1.06017,-2.36796 2.36796,-2.36796c1.30779,0 2.36796,1.06017 2.36796,2.36796c0,1.30779 -1.06017,2.36796 -2.36796,2.36796c-1.30779,0 -2.36796,-1.06017 -2.36796,-2.36796z" fill="#ffffff" fill-rule="nonzero" stroke-width="0" stroke-linecap="butt" stroke-linejoin="miter"/></g></g></svg>