<svg version="1.1" xmlns="http://www.w3.org/2000/svg" xmlns:xlink="http://www.w3.org/1999/xlink" width="34.03981" height="34.03981" viewBox="0,0,34.03981,34.03981"><defs><linearGradient x1="240" y1="156.13027" x2="240" y2="190.17008" gradientUnits="userSpaceOnUse" id="color-1"><stop offset="0" stop-color="#000000"/><stop offset="1" stop-color="#454545"/></linearGradient><linearGradient x1="239.8018" y1="167.8414" x2="239.8018" y2="178.99001" gradientUnits="userSpaceOnUse" id="color-2"><stop offset="0" stop-color="#0f0f0f"/><stop offset="1" stop-color="#353535"/></linearGradient></defs><g transform="translate(-222.98009,-156.13027)"><g data-paper-data="{&quot;isPaintingLayer&quot;:true}" fill-rule="nonzero" stroke="none" stroke-width="0" stroke-linecap="butt" stroke-linejoin="miter" stroke-miterlimit="10" stroke-dasharray="" stroke-dashoffset="0" style="mix-blend-mode: normal"><path d="M222.98009,173.15018c0,-9.39983 7.62007,-17.01991 17.01991,-17.01991c9.39984,0 17.01991,7.62008 17.01991,17.01991c0,9.39984 -7.62007,17.01991 -17.01991,17.01991c-9.39984,0 -17.01991,-7.62007 -17.01991,-17.01991z" fill="url(#color-1)"/><g><path d="M229.3716,173.15018c0,-5.75997 4.66937,-10.42934 10.42934,-10.42934c5.75997,0 10.42934,4.66937 10.42934,10.42934c0,5.75997 -4.66937,10.42934 -10.42934,10.42934c-5.75997,0 -10.42934,-4.66937 -10.42934,-10.42934z" fill="#ffffff"/><path d="M234.22748,173.41569c0,-3.07861 2.4957,-5.5743 5.5743,-5.5743c3.0786,0 5.5743,2.4957 5.5743,5.5743c0,3.0786 -2.4957,5.5743 -5.5743,5.5743c-3.0786,0 -5.5743,-2.4957 -5.5743,-5.5743z" fill="url(#color-2)"/><path d="M239.05809,172.09915c0,-1.21536 0.98525,-2.20062 2.20062,-2.20062c1.21537,0 2.20062,0.98525 2.20062,2.20062c0,1.21536 -0.98526,2.20063 -2.20062,2.20063c-1.21537,0 -2.20062,-0.98526 -2.20062,-2.20063z" fill="#ffffff"/></g></g></g></svg>