<svg version="1.1" xmlns="http://www.w3.org/2000/svg" xmlns:xlink="http://www.w3.org/1999/xlink" width="184.42774" height="226.32627" viewBox="0,0,184.42774,226.32627"><defs><linearGradient x1="81.74945" y1="332.60756" x2="82.42253" y2="343.40844" gradientUnits="userSpaceOnUse" id="color-1"><stop offset="0" stop-color="#8e8e8e"/><stop offset="1" stop-color="#818181"/></linearGradient><linearGradient x1="86.90209" y1="254.78977" x2="82.10814" y2="312.11264" gradientUnits="userSpaceOnUse" id="color-2"><stop offset="0" stop-color="#8e8e8e"/><stop offset="1" stop-color="#818181"/></linearGradient><linearGradient x1="124.91756" y1="322.03733" x2="128.10099" y2="332.33562" gradientUnits="userSpaceOnUse" id="color-3"><stop offset="0" stop-color="#8e8e8e"/><stop offset="1" stop-color="#818181"/></linearGradient><linearGradient x1="99.71611" y1="252.32625" x2="83.11331" y2="290.31079" gradientUnits="userSpaceOnUse" id="color-4"><stop offset="0" stop-color="#8e8e8e"/><stop offset="1" stop-color="#818181"/></linearGradient></defs><g transform="translate(-26.44399,-151.18161)"><g data-paper-data="{&quot;isPaintingLayer&quot;:true}" fill-rule="nonzero" stroke="none" stroke-linecap="butt" stroke-linejoin="miter" stroke-miterlimit="10" stroke-dasharray="" stroke-dashoffset="0" style="mix-blend-mode: normal"><path d="M56.6709,224.7102l-11.31463,-42.07199l48.37532,-3.90192l7.42131,37.06833z" fill="#999999" stroke-width="0"/><g data-paper-data="{&quot;index&quot;:null}"><path d="M80.90927,339.19648l-0.96486,-7.82711l2.29262,3.3897l1.80623,11.90609l-1.27089,-0.51606z" data-paper-data="{&quot;origPos&quot;:null,&quot;origRot&quot;:0}" fill="#534c42" stroke-width="0"/><path d="M80.9436,338.31315l-0.8659,-7.02434l2.05749,3.04207l1.62097,10.68495l-1.14054,-0.46313z" data-paper-data="{&quot;origPos&quot;:null,&quot;origRot&quot;:0}" fill="url(#color-1)" stroke-width="NaN"/></g><path d="M64.69261,305.31075l-15.25699,-77.54483c0,0 5.72448,6.45447 9.03037,5.79261c3.48536,-0.69779 10.93823,-10.01969 18.05185,-13.26406c7.7141,-3.51824 14.97812,-0.94927 14.97812,-0.94927l14.63035,73.0764z" data-paper-data="{&quot;index&quot;:null}" fill="#9a8a7e" stroke-width="0"/><path d="M76.59051,363.53183l-14.63035,-73.0764c0,0 5.73,6.45336 9.04017,5.79065c3.48987,-0.69869 10.95433,-10.02292 18.07761,-13.26922c7.72457,-3.52033 14.99699,-0.95305 14.99699,-0.95305l14.63035,73.0764z" data-paper-data="{&quot;index&quot;:null}" fill="#887c6d" stroke-width="0"/><path d="M77.15819,366.12512l-7.27367,-36.33092c0,0 4.97949,2.78179 8.27815,2.12138c3.47773,-0.69626 11.66885,-6.22885 18.94231,-8.59c7.88743,-2.56042 14.74783,-1.93368 14.74783,-1.93368l7.27367,36.33092z" data-paper-data="{&quot;index&quot;:null}" fill="#807566" stroke-width="0"/><g data-paper-data="{&quot;index&quot;:null}"><path d="M68.29306,301.63513l-2.86279,-36.30457l26.14081,-4.852l8.85129,51.50879l-16.22381,10.85538z" data-paper-data="{&quot;origPos&quot;:null,&quot;origRot&quot;:0}" fill="#534c42" stroke-width="0"/><path d="M70.37016,295.86647l-2.56917,-32.58102l23.45968,-4.35434l7.94343,46.22582l-14.55984,9.74198z" data-paper-data="{&quot;origPos&quot;:null,&quot;origRot&quot;:0}" fill="url(#color-2)" stroke-width="NaN"/></g><g><g data-paper-data="{&quot;index&quot;:null}"><path d="M128.78599,335.00918l-0.69711,0.91007l-2.77954,-11.71123l0.42784,-3.93435l1.97986,7.6239z" data-paper-data="{&quot;origPos&quot;:null,&quot;origRot&quot;:0}" fill="#534c42" stroke-width="0"/><path d="M128.35474,333.46772l-0.62561,0.81673l-2.49446,-10.51007l0.38396,-3.53086l1.7768,6.84197z" data-paper-data="{&quot;origPos&quot;:null,&quot;origRot&quot;:0}" fill="url(#color-3)" stroke-width="NaN"/></g><path d="M94.64477,292.79255l-14.63035,-73.0764c0,0 4.11297,-4.84671 10.58868,-4.16936c5.97163,0.62462 14.22675,6.80169 16.85162,6.27617c2.48973,-0.49846 4.23606,-8.44863 4.23606,-8.44863l15.70866,77.4544z" data-paper-data="{&quot;index&quot;:null}" fill="#9a8a7e" stroke-width="0"/><path d="M107.17262,355.4814l-14.63035,-73.0764c0,0 4.1193,-4.84797 10.60289,-4.1722c5.9789,0.62316 14.24275,6.79848 16.87103,6.27229c2.49295,-0.4991 4.24344,-8.4501 4.24344,-8.4501l14.63035,73.0764z" data-paper-data="{&quot;index&quot;:null}" fill="#887c6d" stroke-width="0"/><path d="M90.76889,371.06897l9.72633,-49.33092c0,0 4.4917,-2.8995 10.763,-3.17375c5.78315,-0.25286 13.26565,2.14177 15.88478,1.6174c2.48428,-0.49737 4.95925,-4.77159 4.95925,-4.77159l69.99916,47.34269z" data-paper-data="{&quot;index&quot;:null}" fill="#807566" stroke-width="0"/><g data-paper-data="{&quot;index&quot;:null}" fill="none" stroke-width="1" font-family="sans-serif" font-weight="normal" font-size="12" text-anchor="start"/><g data-paper-data="{&quot;index&quot;:null}" fill="none" stroke-width="1" font-family="sans-serif" font-weight="normal" font-size="12" text-anchor="start"/></g><g data-paper-data="{&quot;index&quot;:null}"><path d="M71.20037,277.81861l4.5174,-26.32476l27.57096,6.6786l-1.53953,39.19084l-18.71634,1.30507z" data-paper-data="{&quot;origPos&quot;:null,&quot;origRot&quot;:0}" fill="#534c42" stroke-width="0"/><path d="M74.43886,274.95946l4.0541,-23.62478l24.74317,5.99361l-1.38168,35.17125l-16.79672,1.17125z" data-paper-data="{&quot;origPos&quot;:null,&quot;origRot&quot;:0}" fill="url(#color-4)" stroke-width="NaN"/></g><path d="M50.74533,252.88442l-15.76168,-35.39854l27.56892,-4.21425l51.75597,-18.41405c0,0 -5.01992,51.55923 -5.40006,55.59731c-0.05557,0.5903 -23.4947,-12.49752 -23.4947,-12.49752z" fill="#aeaeae" stroke-width="0"/><path d="M26.44399,184.53697c0,0 70.84431,-32.64783 84.17344,-33.34322c13.42355,-0.70032 -3.9134,29.15599 -3.9134,29.15599c0,0 -20.92025,9.48211 -32.42979,10.01179c-12.0666,0.55532 -31.0111,14.30686 -31.24577,9.20734z" fill="#aeaeae" stroke-width="0"/><path d="M115.74306,331.64014l13.08666,-9.03925l5.98301,-6.50876l76.059,45.86774l-9.06967,15.54802l-63.79786,-38.20088z" fill="#aeaeae" stroke-width="0"/></g></g></svg>