<svg version="1.1" xmlns="http://www.w3.org/2000/svg" xmlns:xlink="http://www.w3.org/1999/xlink" width="112.10027" height="38.46794" viewBox="0,0,112.10027,38.46794"><g transform="translate(-188.94636,-160.54309)"><g data-paper-data="{&quot;isPaintingLayer&quot;:true}" fill-rule="nonzero" stroke-miterlimit="10" stroke-dasharray="" stroke-dashoffset="0" style="mix-blend-mode: normal"><path d="M200.19637,187.76104v-15.96794h89.60027v15.96794z" data-paper-data="{&quot;zoomLevel&quot;:2.5}" fill="#bebebe" stroke="#919191" stroke-width="22.5" stroke-linecap="butt" stroke-linejoin="round"/><path d="M246.24729,185.28832c0,0.63562 -0.13207,1.2217 -0.39623,1.75826c-0.25589,0.5283 -0.60672,0.98644 -1.05249,1.37442c-0.43751,0.37971 -0.94929,0.67689 -1.53538,0.89151c-0.57783,0.20636 -1.18868,0.30955 -1.83256,0.30955h-1.26298c-0.64387,0 -1.25884,-0.11968 -1.84493,-0.35908c-0.57783,-0.24764 -1.08549,-0.58197 -1.523,-1.00296c-0.43751,-0.42099 -0.78833,-0.91628 -1.05249,-1.48585c-0.26416,-0.56958 -0.39623,-1.17217 -0.39623,-1.80779v-0.64387l1.90685,-0.30955v1.05247c0,0.38798 0.07842,0.75118 0.23525,1.08963c0.15684,0.33019 0.36733,0.61911 0.63149,0.86675c0.27241,0.24764 0.58197,0.44576 0.92866,0.59434c0.35495,0.14033 0.72641,0.2105 1.11439,0.2105h1.26298c0.37971,0 0.74293,-0.05778 1.08963,-0.17335c0.35495,-0.11557 0.66865,-0.27654 0.94105,-0.48291c0.28066,-0.21463 0.49941,-0.47052 0.65625,-0.76769c0.15684,-0.29717 0.23527,-0.63973 0.23527,-1.02771c0,-0.56133 -0.12382,-1.02358 -0.37146,-1.3868c-0.24764,-0.36321 -0.5737,-0.66451 -0.97818,-0.9039c-0.40448,-0.24764 -0.87089,-0.44988 -1.39919,-0.60672c-0.52005,-0.15684 -1.05249,-0.31368 -1.5973,-0.47052c-0.54481,-0.1651 -1.07725,-0.35084 -1.5973,-0.5572c-0.52005,-0.20636 -0.98643,-0.47465 -1.39917,-0.80483c-0.40448,-0.33845 -0.73055,-0.75944 -0.97819,-1.26298c-0.24764,-0.5118 -0.37146,-1.14328 -0.37146,-1.89447c0,-0.64387 0.12382,-1.22995 0.37146,-1.75826c0.24764,-0.5283 0.58195,-0.98232 1.00295,-1.36203c0.42099,-0.38798 0.91215,-0.68515 1.47348,-0.89151c0.56958,-0.21463 1.17217,-0.32194 1.80779,-0.32194h1.11439c0.64387,0 1.24647,0.12382 1.80779,0.37146c0.56958,0.23939 1.06486,0.56958 1.48585,0.99057c0.42924,0.42099 0.76355,0.91628 1.00295,1.48585c0.23939,0.56958 0.35909,1.17217 0.35909,1.80779v0.0619l-1.89447,0.30955v-0.48291c0,-0.37971 -0.07429,-0.73468 -0.22288,-1.06486c-0.14033,-0.33845 -0.33432,-0.63149 -0.58197,-0.87912c-0.24764,-0.24764 -0.54069,-0.44163 -0.87914,-0.58197c-0.33845,-0.14859 -0.69752,-0.22288 -1.07724,-0.22288h-1.11439c-0.37971,0 -0.73879,0.05778 -1.07724,0.17335c-0.33019,0.10731 -0.61911,0.26827 -0.86675,0.48291c-0.24764,0.21463 -0.44576,0.47052 -0.59434,0.76769c-0.14033,0.29717 -0.2105,0.63562 -0.2105,1.01533c0,0.55308 0.12382,1.00295 0.37146,1.34965c0.24764,0.33845 0.57371,0.62736 0.97819,0.86675c0.40448,0.23939 0.86675,0.44163 1.3868,0.60673c0.5283,0.15684 1.06074,0.32194 1.5973,0.49528c0.54481,0.1651 1.07725,0.35495 1.5973,0.56958c0.52005,0.21463 0.98232,0.49528 1.3868,0.84198c0.41274,0.33845 0.74293,0.76357 0.99057,1.27536c0.24764,0.5118 0.37146,1.14328 0.37146,1.89446zM258.5799,189.31251v-11.61444c0,-0.37971 -0.07429,-0.73468 -0.22288,-1.06486c-0.14033,-0.33845 -0.33432,-0.63149 -0.58197,-0.87912c-0.24764,-0.24764 -0.54068,-0.44163 -0.87912,-0.58197c-0.33019,-0.14859 -0.68515,-0.22288 -1.06486,-0.22288h-1.27535c-0.37971,0 -0.7388,0.07429 -1.07725,0.22288c-0.33019,0.14033 -0.61911,0.33432 -0.86675,0.58197c-0.24764,0.24764 -0.44576,0.54068 -0.59434,0.87912c-0.14033,0.33019 -0.2105,0.68515 -0.2105,1.06486v11.61444h-1.90686v-22.20116h1.90686v7.67693c0.42924,-0.5118 0.94929,-0.91215 1.56015,-1.20107c0.61085,-0.28892 1.27123,-0.43337 1.98114,-0.43337h0.48291c0.63562,0 1.23821,0.12382 1.80779,0.37146c0.56958,0.23939 1.06486,0.56958 1.48585,0.99057c0.42099,0.42099 0.75118,0.91628 0.99057,1.48585c0.24764,0.56958 0.37146,1.17217 0.37146,1.80779v11.50299zM274.88097,184.96639c0,0.63562 -0.12382,1.23821 -0.37146,1.80779c-0.23939,0.56958 -0.56958,1.06486 -0.99057,1.48585c-0.42099,0.42099 -0.91628,0.75531 -1.48585,1.00296c-0.56958,0.23939 -1.17217,0.35908 -1.80779,0.35908h-1.27536c-0.63562,0 -1.23821,-0.11968 -1.80779,-0.35908c-0.56958,-0.24764 -1.06486,-0.58197 -1.48585,-1.00296c-0.42099,-0.42099 -0.75531,-0.91628 -1.00296,-1.48585c-0.23939,-0.56958 -0.35908,-1.17217 -0.35908,-1.80779v-7.15686c0,-0.63562 0.11968,-1.23821 0.35908,-1.80779c0.24764,-0.56958 0.58197,-1.06486 1.00296,-1.48585c0.42099,-0.42099 0.91628,-0.75118 1.48585,-0.99057c0.56958,-0.24764 1.17217,-0.37146 1.80779,-0.37146h1.27536c0.63562,0 1.23821,0.12382 1.80779,0.37146c0.56958,0.23939 1.06486,0.56958 1.48585,0.99057c0.42099,0.42099 0.75119,0.91628 0.99057,1.48585c0.24764,0.56958 0.37146,1.17217 0.37146,1.80779zM272.97412,177.69807c0,-0.37971 -0.07429,-0.73468 -0.22288,-1.06486c-0.14033,-0.33845 -0.33431,-0.63149 -0.58195,-0.87912c-0.24764,-0.24764 -0.54069,-0.44163 -0.87914,-0.58197c-0.33019,-0.14859 -0.68515,-0.22288 -1.06486,-0.22288h-1.27536c-0.37971,0 -0.7388,0.07429 -1.07724,0.22288c-0.33019,0.14033 -0.61911,0.33432 -0.86675,0.58197c-0.24764,0.24764 -0.44577,0.54068 -0.59435,0.87912c-0.14033,0.33019 -0.21049,0.68515 -0.21049,1.06486v7.36737c0,0.38798 0.07016,0.75118 0.21049,1.08963c0.14859,0.33019 0.34671,0.61911 0.59435,0.86675c0.24764,0.24764 0.53656,0.44576 0.86675,0.59434c0.33845,0.14033 0.69754,0.2105 1.07724,0.2105h1.27536c0.37971,0 0.73468,-0.07017 1.06486,-0.2105c0.33845,-0.14859 0.63149,-0.3467 0.87914,-0.59434c0.24764,-0.24764 0.44162,-0.53656 0.58195,-0.86675c0.14859,-0.33845 0.22288,-0.70165 0.22288,-1.08963zM289.27518,184.96639c0,0.63562 -0.12382,1.23821 -0.37146,1.80779c-0.23939,0.56958 -0.56958,1.06486 -0.99057,1.48585c-0.42099,0.42099 -0.91628,0.75531 -1.48585,1.00296c-0.56958,0.23939 -1.17217,0.35908 -1.80779,0.35908h-0.4829c-0.70991,0 -1.37028,-0.14445 -1.98114,-0.43337c-0.61085,-0.28892 -1.13092,-0.6934 -1.56016,-1.21345v7.6893h-1.90685v-22.20116h0.63149l1.0401,1.60968c0.42924,-0.58609 0.96993,-1.05249 1.62206,-1.39919c0.66038,-0.3467 1.37855,-0.52005 2.15449,-0.52005h0.4829c0.63562,0 1.23821,0.12382 1.80779,0.37146c0.56958,0.23939 1.06486,0.56958 1.48585,0.99057c0.42099,0.42099 0.75119,0.91628 0.99057,1.48585c0.24764,0.56958 0.37146,1.17217 0.37146,1.80779v7.15686zM287.36834,177.69807c0,-0.37971 -0.07429,-0.73468 -0.22288,-1.06486c-0.14033,-0.33845 -0.33432,-0.63149 -0.58197,-0.87912c-0.24764,-0.24764 -0.54069,-0.44163 -0.87914,-0.58197c-0.33019,-0.14859 -0.68515,-0.22288 -1.06486,-0.22288h-1.27536c-0.37971,0 -0.7388,0.07429 -1.07724,0.22288c-0.33019,0.14033 -0.61911,0.33432 -0.86675,0.58197c-0.24764,0.24764 -0.44577,0.54068 -0.59435,0.87912c-0.14033,0.33019 -0.2105,0.68515 -0.2105,1.06486v7.36737c0,0.38798 0.07017,0.75118 0.2105,1.08963c0.14859,0.33019 0.34671,0.61911 0.59435,0.86675c0.24764,0.24764 0.53656,0.44576 0.86675,0.59434c0.33845,0.14033 0.69754,0.2105 1.07724,0.2105h1.27536c0.37971,0 0.73468,-0.07017 1.06486,-0.2105c0.33845,-0.14859 0.63149,-0.3467 0.87914,-0.59434c0.24764,-0.24764 0.44163,-0.53656 0.58197,-0.86675c0.14859,-0.33845 0.22288,-0.70165 0.22288,-1.08963z" fill="#ffffff" stroke="#ffffff" stroke-width="1.5" stroke-linecap="square" stroke-linejoin="miter"/><path d="M202.09918,186.46386l-1.28763,-12.86725l22.53324,2.14454v10.72271z" fill="none" stroke="#ffffff" stroke-width="3" stroke-linecap="butt" stroke-linejoin="miter"/><path d="M196.21779,169.86997c0,0 2.37041,0.06771 3.14977,0.08997c0.45997,0.01314 1.24777,0.76818 1.28786,1.18235c0.12803,1.32257 0.69353,7.9836 0.69353,7.9836" fill="none" stroke="#ffffff" stroke-width="3" stroke-linecap="round" stroke-linejoin="miter"/><path d="M208.00344,185.78039l-0.97054,-10.31192" fill="none" stroke="#ffffff" stroke-width="1.5" stroke-linecap="round" stroke-linejoin="miter"/><path d="M212.61348,175.46848l0.7279,10.06929" fill="none" stroke="#ffffff" stroke-width="1.5" stroke-linecap="round" stroke-linejoin="miter"/><path d="M218.558,175.46847l0.12132,10.43324" fill="none" stroke="#ffffff" stroke-width="1.5" stroke-linecap="round" stroke-linejoin="miter"/><path d="M202.05892,182.99011l21.35176,0.36396" fill="none" stroke="#ffffff" stroke-width="1.5" stroke-linecap="round" stroke-linejoin="miter"/><path d="M202.05892,178.98666l21.35176,1.09186" fill="none" stroke="#ffffff" stroke-width="1.5" stroke-linecap="round" stroke-linejoin="miter"/><path d="M205.62968,190.99701c0,-1.35489 1.09835,-2.45324 2.45324,-2.45324c1.35489,0 2.45325,1.09835 2.45325,2.45324c0,1.35489 -1.09836,2.45325 -2.45325,2.45325c-1.35489,0 -2.45324,-1.09836 -2.45324,-2.45325z" fill="#ffffff" stroke="none" stroke-width="0.5" stroke-linecap="butt" stroke-linejoin="miter"/><path d="M218.73189,191.23964c0,-1.35489 1.09835,-2.45324 2.45324,-2.45324c1.35489,0 2.45325,1.09835 2.45325,2.45324c0,1.35489 -1.09836,2.45324 -2.45325,2.45324c-1.35489,0 -2.45324,-1.09835 -2.45324,-2.45324z" fill="#ffffff" stroke="none" stroke-width="0.5" stroke-linecap="butt" stroke-linejoin="miter"/></g></g></svg>