<svg version="1.1" xmlns="http://www.w3.org/2000/svg" xmlns:xlink="http://www.w3.org/1999/xlink" width="93.74552" height="98.71977" viewBox="0,0,93.74552,98.71977"><defs><linearGradient x1="236.32321" y1="155.91358" x2="236.32321" y2="198.65237" gradientUnits="userSpaceOnUse" id="color-1"><stop offset="0" stop-color="#3182d8"/><stop offset="1" stop-color="#1e5084"/></linearGradient><linearGradient x1="236.32321" y1="169.16498" x2="236.32321" y2="185.40097" gradientUnits="userSpaceOnUse" id="color-2"><stop offset="0" stop-color="#307fd4"/><stop offset="1" stop-color="#1f5186"/></linearGradient></defs><g transform="translate(-193.12724,-130.6401)"><g data-paper-data="{&quot;isPaintingLayer&quot;:true}" stroke="none" stroke-miterlimit="10" stroke-dasharray="" stroke-dashoffset="0" style="mix-blend-mode: normal"><path d="M200.34524,208.06093v-69.83604h66.31717v69.83604z" fill="none" fill-rule="nonzero" stroke-width="0" stroke-linecap="butt" stroke-linejoin="miter"/><path d="M200.34524,208.06093v-69.83604h66.31717v69.83604z" fill="none" fill-rule="nonzero" stroke-width="0" stroke-linecap="butt" stroke-linejoin="miter"/><path d="M223.91543,155.91358h24.81559c5.21147,0 9.43595,4.09335 9.43595,9.14309v24.4526c0,5.04936 -4.22446,9.14309 -9.43595,9.14309h-24.81559c-5.21135,0 -9.43603,-4.09375 -9.43603,-9.14309v-24.4526c0,-5.04973 4.22467,-9.14309 9.43603,-9.14309z" fill="url(#color-1)" fill-rule="evenodd" stroke-width="14" stroke-linecap="round" stroke-linejoin="round"/><path d="M221.49559,177.28297c0,-8.38838 6.80012,-15.1885 15.1885,-15.1885c8.38838,0 15.1885,6.80012 15.1885,15.1885c0,8.38838 -6.80012,15.1885 -15.1885,15.1885c-8.38838,0 -15.1885,-6.80012 -15.1885,-15.1885z" fill="#ffffff" fill-rule="nonzero" stroke-width="0" stroke-linecap="butt" stroke-linejoin="miter"/><path d="M228.20519,177.28297c0,-4.48345 3.63455,-8.11799 8.11799,-8.11799c4.48345,0 8.11799,3.63455 8.11799,8.11799c0,4.48345 -3.63455,8.11799 -8.11799,8.11799c-4.48345,0 -8.11799,-3.63455 -8.11799,-8.11799z" fill="url(#color-2)" fill-rule="nonzero" stroke-width="0" stroke-linecap="butt" stroke-linejoin="miter"/><path d="M235.80772,175.18473c0,-1.76998 1.43485,-3.20482 3.20482,-3.20482c1.76998,0 3.20482,1.43485 3.20482,3.20482c0,1.76998 -1.43485,3.20482 -3.20482,3.20482c-1.76998,0 -3.20482,-1.43485 -3.20482,-3.20482z" fill="#ffffff" fill-rule="nonzero" stroke-width="0" stroke-linecap="butt" stroke-linejoin="miter"/><path d="M193.12724,229.35988v-98.71977h93.74552v98.71977z" fill="none" fill-rule="nonzero" stroke-width="0" stroke-linecap="butt" stroke-linejoin="miter"/><path d="M193.12724,229.35988v-98.71977h93.74552v98.71977z" fill="none" fill-rule="nonzero" stroke-width="0" stroke-linecap="butt" stroke-linejoin="miter"/></g></g></svg>