<svg version="1.1" xmlns="http://www.w3.org/2000/svg" xmlns:xlink="http://www.w3.org/1999/xlink" width="510" height="446.02144" viewBox="0,0,510,446.02144"><defs><radialGradient cx="122.76245" cy="72.46707" r="28.43394" gradientUnits="userSpaceOnUse" id="color-1"><stop offset="0" stop-color="#faff00"/><stop offset="1" stop-color="#faff00" stop-opacity="0"/></radialGradient><radialGradient cx="127.76245" cy="77.46707" r="28.43394" gradientUnits="userSpaceOnUse" id="color-2"><stop offset="0" stop-color="#faff00"/><stop offset="1" stop-color="#faff00" stop-opacity="0"/></radialGradient></defs><g transform="translate(15,43.01073)"><g data-paper-data="{&quot;isPaintingLayer&quot;:true}" fill-rule="nonzero" stroke-width="0" stroke-linecap="butt" stroke-linejoin="miter" stroke-miterlimit="10" stroke-dasharray="" stroke-dashoffset="0" style="mix-blend-mode: normal"><path d="M25.35435,390.50321c0,0 -4.46133,-12.1153 -4.46133,-20.02002c0,-11.04507 4.46133,-40.04004 4.46133,-40.04004h461.00413v60.06006z" fill="#c6914f" stroke="#000000"/><path d="M17.23141,385.50321c0,0 -1.3384,-71.17741 -1.3384,-117.61761c0,-64.8898 1.3384,-235.23524 1.3384,-235.23524h138.30124v352.85285z" fill="#c6914f" stroke="#000000"/><path d="M15.375,394.96509v-191.45946h18v191.45946z" fill="#6d6d6d" stroke="none"/><path d="M144.375,331.46659v-173h18v173z" fill="#6d6d6d" stroke="none"/><path d="M16.375,166.76659v-143.02402h17v143.02403z" fill="#6d6d6d" stroke="none"/><path d="M145.13381,164.76659v-133.02402h17.23418v133.02403z" fill="#6d6d6d" stroke="none"/><path d="M17.70252,37.86136v-15.01502l144.64865,-65.85706l-0.5045,80.87208z" fill="#6d6d6d" stroke="none"/><path d="M32.20833,333.19991v-15.66667h51.33333v15.66667z" fill="#6d6d6d" stroke="none"/><path d="M83.54167,275.53326v-15.33333h69.33333v15.33333z" fill="#6d6d6d" stroke="none"/><path d="M28.54167,217.53326v-19h55v19z" fill="#6d6d6d" stroke="none"/><path d="M86.875,157.53326v-19.66667h74.33333v19.66667z" fill="#6d6d6d" stroke="none"/><path d="M-15,158.14253v-0.0156h30v0.0156z" fill="#6d6d6d" stroke="none"/><path d="M143.10967,72.46707c0,15.70363 -9.10976,28.43394 -20.34722,28.43394c-11.23747,0 -20.34722,-12.73031 -20.34722,-28.43394c0,-15.70363 9.10976,-28.43394 20.34722,-28.43394c11.23747,0 20.34722,12.73031 20.34722,28.43394z" fill="url(#color-1)" stroke="none"/><path d="M118.89819,115.23298v-32.87973h5.35989v32.87973z" fill="#e57e00" stroke="none"/><path d="M121.04,115.23298v-32.87973h3.57505v32.87973z" fill="#d17300" stroke="none"/><path d="M131.39746,75.79244c0,8.08308 -2.06661,11.06603 -9.45967,11.06603c-3.56163,0 -7.23138,-1.97245 -7.97751,-6.46013c-0.39795,-2.39349 1.05745,-6.7796 1.53715,-9.12939c0.48785,-2.38971 5.19097,-2.64555 5.19097,-4.7577c0,-5.90863 -3.63979,-10.44637 -2.51833,-11.11577c0.41271,-0.24636 1.77889,2.19155 3.76772,2.19155c1.6824,0 1.86444,5.69387 3.34773,6.31335c5.0348,2.10274 6.11194,5.6484 6.11194,11.89206z" fill="#ffef00" stroke="none"/><path d="M128.06575,77.31788c0,4.53522 -1.15952,6.20888 -5.30759,6.20888c-1.99835,0 -4.05734,-1.10669 -4.47598,-3.62462c-0.22328,-1.34293 0.59331,-3.80387 0.86246,-5.12228c0.27372,-1.3408 2.91253,-1.48435 2.91253,-2.66943c0,-3.31518 1.7471,-1.81247 2.57934,-1.46489c2.82491,1.1798 3.42926,3.16918 3.42926,6.67234z" fill="#ffb000" stroke="none"/><path d="M353.05724,403.01072c0,0 -1.3384,-35.13438 -1.3384,-58.05806c0,-32.03071 1.3384,-116.11612 1.3384,-116.11612h138.30124v174.17418z" fill="#c6914f" stroke="#000000"/><path d="M30.35435,395.50321c0,0 -4.46133,-12.1153 -4.46133,-20.02002c0,-11.04507 4.46133,-40.04004 4.46133,-40.04004h461.00413v60.06006z" fill="#c6914f" stroke="#000000"/><path d="M22.23141,390.50321c0,0 -1.3384,-71.17741 -1.3384,-117.61761c0,-64.8898 1.3384,-235.23524 1.3384,-235.23524h138.30124v352.85285z" fill="#c6914f" stroke="#000000"/><path d="M20.375,391.96509v-188.45946h18v188.45946z" fill="#6d6d6d" stroke="none"/><path d="M149.375,336.46659v-173h18v173z" fill="#6d6d6d" stroke="none"/><path d="M149.375,338.71258v-11h201.33333v11z" fill="#6d6d6d" stroke="none"/><path d="M349.375,402.76659v-174h19v174z" fill="#6d6d6d" stroke="none"/><path d="M423.375,397.76659v-168h12v168z" fill="#6d6d6d" stroke="none"/><path d="M483.75,396.76659v-168h11.25v168z" fill="#6d6d6d" stroke="none"/><path d="M21.375,166.76659v-138.02402h17v138.02403z" fill="#6d6d6d" stroke="none"/><path d="M150.13381,169.76659v-133.02402h17.23418v133.02403z" fill="#6d6d6d" stroke="none"/><path d="M22.70252,42.86136v-15.01502l144.64865,-65.85706l-0.5045,80.87208z" fill="#6d6d6d" stroke="none"/><path d="M37.20833,338.19992v-15.66667h51.33333v15.66667z" fill="#6d6d6d" stroke="none"/><path d="M88.54167,280.53326v-15.33333h69.33333v15.33333z" fill="#6d6d6d" stroke="none"/><path d="M33.54167,222.53326v-19h55v19z" fill="#6d6d6d" stroke="none"/><path d="M91.875,162.53326v-19.66667h74.33333v19.66667z" fill="#6d6d6d" stroke="none"/><path d="M-10,163.14253v-0.0156h30v0.0156z" fill="#6d6d6d" stroke="none"/><path d="M148.10967,77.46707c0,15.70363 -9.10976,28.43394 -20.34722,28.43394c-11.23747,0 -20.34722,-12.73031 -20.34722,-28.43394c0,-15.70363 9.10976,-28.43394 20.34722,-28.43394c11.23747,0 20.34722,12.73031 20.34722,28.43394z" fill="url(#color-2)" stroke="none"/><path d="M123.89819,120.23298v-32.87973h5.35989v32.87973z" fill="#e57e00" stroke="none"/><path d="M126.04,120.23298v-32.87973h3.57505v32.87973z" fill="#d17300" stroke="none"/><path d="M136.39746,80.79244c0,8.08308 -2.06661,11.06603 -9.45967,11.06603c-3.56163,0 -7.23138,-1.97245 -7.97751,-6.46013c-0.39795,-2.39349 1.05745,-6.7796 1.53715,-9.12939c0.48785,-2.38971 5.19097,-2.64555 5.19097,-4.7577c0,-5.90863 -3.63979,-10.44637 -2.51833,-11.11577c0.41271,-0.24636 1.77889,2.19155 3.76772,2.19155c1.6824,0 1.86444,5.69387 3.34773,6.31335c5.0348,2.10274 6.11194,5.6484 6.11194,11.89206z" fill="#ffef00" stroke="none"/><path d="M133.06575,82.31788c0,4.53522 -1.15952,6.20888 -5.30759,6.20888c-1.99835,0 -4.05734,-1.10669 -4.47598,-3.62462c-0.22328,-1.34293 0.59331,-3.80387 0.86246,-5.12228c0.27372,-1.3408 2.91253,-1.48435 2.91253,-2.66943c0,-3.31518 1.7471,-1.81247 2.57934,-1.46489c2.82491,1.1798 3.42926,3.16918 3.42926,6.67234z" fill="#ffb000" stroke="none"/></g></g></svg>