<svg version="1.1" xmlns="http://www.w3.org/2000/svg" xmlns:xlink="http://www.w3.org/1999/xlink" width="563.81331" height="395.4374" viewBox="0,0,563.81331,395.4374"><defs><linearGradient x1="256.01355" y1="16.02485" x2="305.81809" y2="16.02485" gradientUnits="userSpaceOnUse" id="color-1"><stop offset="0" stop-color="#59b5e3"/><stop offset="1" stop-color="#7fd9ff"/></linearGradient></defs><g transform="translate(47.93403,15.2974)"><g data-paper-data="{&quot;isPaintingLayer&quot;:true}" fill-rule="nonzero" stroke="none" stroke-width="0" stroke-linecap="butt" stroke-linejoin="miter" stroke-miterlimit="10" stroke-dasharray="" stroke-dashoffset="0" style="mix-blend-mode: normal"><g><g fill="#efe517"><g><path d="M300.8465,143.53781v-85.70056h13.65539v85.70056z"/><path d="M300.59903,57.95374h85.70056v12.49404h-85.70056z"/><path d="M386.53471,58.31989v85.70056h-12.49404v-85.70056z" data-paper-data="{&quot;index&quot;:null}"/><path d="M386.78218,143.90395h-85.70056v-11.33269h85.70056z" data-paper-data="{&quot;index&quot;:null}"/><path d="M369.99503,139.19594l-58.57174,-68.33371l8.9131,-7.6398l58.57174,68.33371z"/><path d="M311.03424,131.16709l58.57174,-68.3337l8.9131,7.63978l-58.57174,68.33371z" data-paper-data="{&quot;index&quot;:null}"/></g><g><path d="M301.32731,221.97128v-85.70056h13.65539v85.70056z"/><path d="M301.07983,136.38717h85.70056v12.49404h-85.70056z"/><path d="M387.01551,136.75331v85.70056h-12.49404v-85.70056z" data-paper-data="{&quot;index&quot;:null}"/><path d="M387.26299,222.3374h-85.70056v-11.33269h85.70056z" data-paper-data="{&quot;index&quot;:null}"/><path d="M370.47584,217.62939l-58.57174,-68.33371l8.9131,-7.63978l58.57174,68.33371z"/><path d="M311.51503,209.60054l58.57174,-68.33371l8.9131,7.63978l-58.57174,68.33371z" data-paper-data="{&quot;index&quot;:null}"/></g><g><g><path d="M301.81391,301.22395v-85.70056h13.65539v85.70056z"/><path d="M301.56643,215.63987h85.70056v12.49404h-85.70056z"/><path d="M387.50213,216.00601v85.70056h-12.49404v-85.70056z" data-paper-data="{&quot;index&quot;:null}"/><path d="M387.74961,301.5901h-85.70056v-11.33269h85.70056z" data-paper-data="{&quot;index&quot;:null}"/><path d="M370.96243,296.88207l-58.57174,-68.33371l8.9131,-7.63978l58.57174,68.3337z"/><path d="M312.00164,288.85324l58.57174,-68.3337l8.9131,7.63978l-58.57174,68.33371z" data-paper-data="{&quot;index&quot;:null}"/></g><g><path d="M302.29469,379.65738v-85.70056h13.65537v85.70056z"/><path d="M302.04721,294.07332h85.70056v12.49404h-85.70056z"/><path d="M387.98291,294.43944v85.70056h-12.49404v-85.70056z" data-paper-data="{&quot;index&quot;:null}"/><path d="M388.23039,380.02352h-85.70056v-11.33269h85.70056z" data-paper-data="{&quot;index&quot;:null}"/><path d="M371.44322,375.31552l-58.57174,-68.33371l8.9131,-7.63978l58.57174,68.3337z"/><path d="M312.48243,367.28667l58.57174,-68.3337l8.91308,7.63978l-58.57174,68.33371z" data-paper-data="{&quot;index&quot;:null}"/></g></g></g><g fill="#efe517"><g><path d="M92.50939,59.8266h-125.19692v-5.50686h125.19692z"/><path d="M-32.51738,59.9264v-34.56086h18.2521v34.56086z"/><path d="M-31.9825,25.27071h125.19692v5.03853h-125.19692z" data-paper-data="{&quot;index&quot;:null}"/><path d="M93.04425,25.17093v34.56086h-16.55554v-34.56086z" data-paper-data="{&quot;index&quot;:null}"/><path d="M86.16649,31.94077l-99.82629,23.6205l-11.1607,-3.59441l99.82629,-23.6205z"/><path d="M74.43743,55.71816l-99.82629,-23.6205l11.1607,-3.59441l99.82629,23.6205z" data-paper-data="{&quot;index&quot;:null}"/></g><g><path d="M207.09002,59.63271h-125.19692v-5.50686h125.19692z"/><path d="M82.06327,59.73253v-34.56086h18.2521v34.56086z"/><path d="M82.59813,25.07685h125.19692v5.03853h-125.19692z" data-paper-data="{&quot;index&quot;:null}"/><path d="M207.62488,24.97704v34.56086h-16.55554v-34.56086z" data-paper-data="{&quot;index&quot;:null}"/><path d="M200.74712,31.74688l-99.82629,23.6205l-11.1607,-3.59441l99.82629,-23.6205z"/><path d="M189.01806,55.52427l-99.82629,-23.6205l11.1607,-3.59441l99.82629,23.6205z" data-paper-data="{&quot;index&quot;:null}"/></g><g><g><path d="M322.86747,59.43648h-125.19692v-5.50686h125.19692z"/><path d="M197.8407,59.53628v-34.56086h18.2521v34.56086z"/><path d="M198.37558,24.8806h125.19692v5.03853h-125.19692z" data-paper-data="{&quot;index&quot;:null}"/><path d="M323.40233,24.78081v34.56086h-16.55554v-34.56086z" data-paper-data="{&quot;index&quot;:null}"/><path d="M316.52457,31.55064l-99.82629,23.6205l-11.1607,-3.59441l99.82629,-23.6205z"/><path d="M304.79551,55.32803l-99.82629,-23.6205l11.1607,-3.59441l99.82629,23.6205z" data-paper-data="{&quot;index&quot;:null}"/></g><g><path d="M437.44812,59.24257h-125.19692v-5.50686h125.19692z"/><path d="M312.42135,59.3424v-34.56086h18.2521v34.56086z"/><path d="M312.95621,24.68673h125.19692v5.03853h-125.19692z" data-paper-data="{&quot;index&quot;:null}"/><path d="M437.98298,24.58692v34.56086h-16.55554v-34.56086z" data-paper-data="{&quot;index&quot;:null}"/><path d="M431.1052,31.35675l-99.82629,23.6205l-11.1607,-3.59441l99.82629,-23.6205z"/><path d="M419.37616,55.13414l-99.82629,-23.6205l11.1607,-3.59441l99.82629,23.6205z" data-paper-data="{&quot;index&quot;:null}"/></g></g></g><g><path d="M404.56008,70.78111v-62.45973h106.03628v62.45973z" fill="#666666"/><path d="M398.27054,77.56455v-74.08015h30.50358v74.08015z" fill="#7a7a7a"/><path d="M442.32643,76.59134v-74.08013h30.50358v74.08013z" fill="#7a7a7a"/><path d="M485.3757,77.55872v-74.08015h30.50358v74.08015z" fill="#7a7a7a"/></g><g><path d="M245.69719,57.8961c0,0 -1.55738,-39.38245 6.99977,-53.73134c8.55717,-14.3489 43.46465,-17.43062 43.46465,-17.43062l4.83699,72.3705z" fill="#7a7a7a"/><path d="M294.04363,44.07069v-57.33584h18.1569v57.33584z" fill="#7a7a7a"/><path d="M254.15454,43.37929c0,0 -3.2825,-24.98952 6.05404,-38.61174c9.33654,-13.62224 47.42336,-16.54788 47.42336,-16.54788v54.47013z" fill="#3c3c3c"/><path d="M256.52922,41.4445c0,0 -3.0254,-23.03224 5.57988,-35.58753c8.60526,-12.55529 43.709,-15.25179 43.709,-15.25179v50.20383z" fill="url(#color-1)"/></g><path d="M247.64213,59.67605v-15.4784h108.34875v15.4784z" fill="#7a7a7a"/><path d="M311.97419,44.68136v-59.97876h50.78847v59.97876z" fill="#a6a6a6"/><path d="M-31.95595,60.22829l-15.97807,-16.94838l15.97807,-16.94838z" fill="#efe517"/><g><path d="M39.04164,71.09133c0,-2.80668 0,-11.93125 0,-11.93125h67.71796c0,0 0.32246,8.43714 0.32246,11.28633c0,1.73644 -2.29102,4.19205 -4.51453,4.19205c-6.91995,0 -43.37778,0 -57.72151,0c-3.59787,0 -5.8044,-2.01679 -5.8044,-3.54713z" fill="#7a7a7a"/><path d="M40.97645,67.58454c0,-1.75416 0,-7.45704 0,-7.45704h63.86671c0,0 0.30412,5.27321 0.30412,7.05396c0,1.08527 -2.16072,2.62003 -4.25777,2.62003c-6.52641,0 -40.9108,0 -54.43877,0c-3.39326,0 -5.47429,-1.26049 -5.47429,-2.21696z" fill="#9f9f9f"/></g><path d="M69.03102,221.03827v-146.07733h2.90221v146.07733z" fill="#5a5a5a"/><g><path d="M43.2337,265.86113v-48.36997h59.97876v48.36997z" fill="#ecca82"/><path d="M38.07424,269.40826v-58.04398h8.7066v58.04398z" fill="#dbbb78"/><path d="M103.69617,220.23212h-58.04398v-8.7066h58.04398z" fill="#dbbb78"/><path d="M104.01865,212.00925v58.04398h-8.7066v-58.04398z" data-paper-data="{&quot;index&quot;:null}" fill="#dbbb78"/><path d="M38.3967,261.18539h58.04398v8.7066h-58.04398z" data-paper-data="{&quot;index&quot;:null}" fill="#dbbb78"/><path d="M58.64117,268.56986v-50.30478h1.61234v50.30478z" fill="#dbbb78"/><path d="M81.53629,266.63506v-50.30478h1.61234v50.30478z" fill="#dbbb78"/></g></g></g></g></svg>