<svg version="1.1" xmlns="http://www.w3.org/2000/svg" xmlns:xlink="http://www.w3.org/1999/xlink" width="500.61477" height="325.35444" viewBox="0,0,500.61477,325.35444"><defs><linearGradient x1="341.91485" y1="391.29297" x2="358.60561" y2="402.01581" gradientUnits="userSpaceOnUse" id="color-1"><stop offset="0" stop-color="#8e8e8e"/><stop offset="1" stop-color="#818181"/></linearGradient><linearGradient x1="112.33592" y1="316.00093" x2="145.94188" y2="371.26726" gradientUnits="userSpaceOnUse" id="color-2"><stop offset="0" stop-color="#8e8e8e"/><stop offset="1" stop-color="#818181"/></linearGradient><linearGradient x1="66.50125" y1="316.10087" x2="110.94895" y2="350.08696" gradientUnits="userSpaceOnUse" id="color-3"><stop offset="0" stop-color="#8e8e8e"/><stop offset="1" stop-color="#818181"/></linearGradient><linearGradient x1="308.32615" y1="326.81778" x2="280.21897" y2="358.86216" gradientUnits="userSpaceOnUse" id="color-4"><stop offset="0" stop-color="#8e8e8e"/><stop offset="1" stop-color="#818181"/></linearGradient><linearGradient x1="392.65904" y1="319.56813" x2="408.64697" y2="369.88569" gradientUnits="userSpaceOnUse" id="color-5"><stop offset="0" stop-color="#8e8e8e"/><stop offset="1" stop-color="#818181"/></linearGradient></defs><g transform="translate(31.5,-97.90259)"><g data-paper-data="{&quot;isPaintingLayer&quot;:true}" fill-rule="nonzero" stroke-linecap="butt" stroke-linejoin="miter" stroke-miterlimit="10" stroke-dasharray="" stroke-dashoffset="0" style="mix-blend-mode: normal"><g data-paper-data="{&quot;index&quot;:null}" stroke="none"><path d="M360.83394,404.77182l-13.08474,0.75551l-6.47133,-12.029l18.08779,-3.77381l6.7485,7.86422z" data-paper-data="{&quot;origPos&quot;:null,&quot;origRot&quot;:0}" fill="#534c42" stroke-width="0"/><path d="M359.00885,403.17571l-11.74278,0.67802l-5.80766,-10.79525l16.23265,-3.38678l6.05638,7.05764z" data-paper-data="{&quot;origPos&quot;:null,&quot;origRot&quot;:0}" fill="url(#color-1)" stroke-width="NaN"/></g><path d="M-21.43806,356.67437v-74.52655c0,0 75.64304,-3.94498 169.98769,-2.00956c87.00085,1.78476 191.43967,9.4622 232.0652,9.4622c38.53378,0 87.57392,-7.45265 87.57392,-7.45265l0.47685,79.34682z" data-paper-data="{&quot;index&quot;:null}" fill="#9a8a7e" stroke="none" stroke-width="0"/><path d="M-21.77796,420.60276v-74.52655c0,0 75.74092,-3.94498 170.20766,-2.00956c87.11338,1.78476 191.68733,9.4622 232.36545,9.4622c38.58364,0 87.68808,-7.45265 87.68808,-7.45265l0.63154,74.52655z" data-paper-data="{&quot;index&quot;:null}" fill="#887c6d" stroke="none" stroke-width="0"/><path d="M-20.61392,423.25703v-37.05188c0,0 75.47749,-1.96131 169.61565,-0.9991c86.81042,0.88735 191.02063,4.70428 231.55726,4.70428c38.44945,0 88.01242,-3.70519 88.01242,-3.70519v37.05188z" data-paper-data="{&quot;index&quot;:null}" fill="#807566" stroke="none" stroke-width="0"/><path d="M-21.40806,293.7007v-32.95167c0,0 421.52093,0 472.04982,0c9.66484,0 17.27019,9.97759 17.27019,15.25036c0,5.68069 0,17.70131 0,17.70131z" data-paper-data="{&quot;index&quot;:null}" fill="#f9f9f9" stroke="none" stroke-width="0"/><path d="M-20.94142,293.7007v-13.30453h489.23207l0.63154,13.93607z" data-paper-data="{&quot;index&quot;:null}" fill="#e4e4e4" stroke="none" stroke-width="0"/><g data-paper-data="{&quot;index&quot;:null}" stroke="none"><path d="M146.06135,382.19893l-37.99878,-7.45925l-3.01785,-52.24412l55.99953,-0.37413l9.09965,36.16014z" data-paper-data="{&quot;origPos&quot;:null,&quot;origRot&quot;:0}" fill="#534c42" stroke-width="0"/><path d="M141.85577,374.49721l-34.10145,-6.69417l-2.70838,-46.88573l50.25595,-0.33577l8.16637,32.45141z" data-paper-data="{&quot;origPos&quot;:null,&quot;origRot&quot;:0}" fill="url(#color-2)" stroke-width="NaN"/></g><g data-paper-data="{&quot;index&quot;:null}" stroke="none"><path d="M114.16892,358.26612l-34.84501,2.39454l-17.23333,-38.12603l48.16827,-11.96112l17.97144,24.92571z" data-paper-data="{&quot;origPos&quot;:null,&quot;origRot&quot;:0}" fill="#534c42" stroke-width="0"/><path d="M108.61389,353.76329l-31.27116,2.14891l-15.46588,-34.21564l43.22791,-10.73433l16.12827,22.36922z" data-paper-data="{&quot;origPos&quot;:null,&quot;origRot&quot;:0}" fill="url(#color-3)" stroke-width="NaN"/></g><g data-paper-data="{&quot;index&quot;:null}" stroke="none"><path d="M272.8013,360.66236l-4.42545,-23.1124l34.76214,-14.15045l14.24929,31.35114l-22.30807,13.73023z" data-paper-data="{&quot;origRot&quot;:0}" fill="#534c42" stroke-width="0"/><path d="M278.67566,356.1873l-3.82649,-20.74185l30.05773,-12.69916l12.32086,28.13558l-19.28913,12.32205z" data-paper-data="{&quot;origRot&quot;:0}" fill="url(#color-4)" stroke-width="NaN"/></g><g data-paper-data="{&quot;index&quot;:null}" stroke="none"><path d="M406.28099,378.02516l-31.02598,-13.08147l9.68894,-42.16174l48.39808,10.22854l-0.65787,30.4996z" data-paper-data="{&quot;origRot&quot;:0}" fill="#534c42" stroke-width="0"/><path d="M404.64349,371.30387l-27.84381,-11.73975l8.69512,-37.83744l43.43414,9.17942l-0.59039,27.37144z" data-paper-data="{&quot;origRot&quot;:0}" fill="url(#color-5)" stroke-width="NaN"/></g><path d="M72.5,214.80001v-85h13v85z" fill="#6d6d6d" stroke="#6d6d6d" stroke-width="2"/><path d="M63.90275,138.47143l-3.3868,-12.55108l95.5813,-25.79178l3.3868,12.55108z" fill="#6d6d6d" stroke="#6d6d6d" stroke-width="2"/><path d="M153.51595,111.67966l3.3868,-12.55108l95.5813,25.79178l-3.3868,12.55107z" data-paper-data="{&quot;index&quot;:null}" fill="#6d6d6d" stroke="#6d6d6d" stroke-width="2"/><path d="M233.50001,214.80001v-85h13v85z" fill="#6d6d6d" stroke="#6d6d6d" stroke-width="2"/><path d="M337.50001,216.8v-13h38v13z" fill="#6d6d6d" stroke="#6d6d6d" stroke-width="2"/><path d="M321.50001,230.8v-13h54v13z" fill="#6d6d6d" stroke="#6d6d6d" stroke-width="2"/><path d="M306.5,244.80001v-13h69v13z" fill="#6d6d6d" stroke="#6d6d6d" stroke-width="2"/><path d="M289.5,258.80001v-13h86v13z" fill="#6d6d6d" stroke="#6d6d6d" stroke-width="2"/><path d="M-30.5,214.80001v-13h104v13z" fill="#6d6d6d" stroke="#6d6d6d" stroke-width="2"/></g></g></svg>