<svg version="1.1" xmlns="http://www.w3.org/2000/svg" xmlns:xlink="http://www.w3.org/1999/xlink" width="197.37677" height="190.78236" viewBox="0,0,197.37677,190.78236"><g transform="translate(-282.6815,91.62617)"><g data-paper-data="{&quot;isPaintingLayer&quot;:true}" stroke-linecap="butt" stroke-dasharray="" stroke-dashoffset="0" style="mix-blend-mode: normal"><g fill-rule="nonzero" stroke="none" stroke-width="0" stroke-linejoin="miter" stroke-miterlimit="10"><path d="M322.21395,84.33557v-175.08181h7.87355v175.08181z" fill="#cf8d00"/><path d="M317.40234,84.33557v-175.08181h7.87355v175.08181z" fill="#b97d00"/></g><g fill-rule="nonzero" stroke="none" stroke-width="0" stroke-linejoin="miter" stroke-miterlimit="10"><path d="M460.49744,84.76904v-176.39521h7.87355v176.39521z" fill="#cf8d00"/><path d="M455.68583,84.76904v-176.39521h7.87355v176.39521z" fill="#b97d00"/></g><path d="M282.6815,91.20757v-91.52289h197.37677v91.52289z" fill="none" fill-rule="nonzero" stroke="none" stroke-width="0" stroke-linejoin="miter" stroke-miterlimit="10"/><path d="M385.70146,46.51755c-3.41193,-3.45531 -3.39877,-9.03107 0.04029,-12.47012c3.45222,-3.45222 9.0582,-3.45222 12.51118,0.00078l0.01163,0.01163c3.47236,-3.07726 8.79246,-2.95407 12.11684,0.37032c3.32361,3.32361 3.44757,8.64449 0.37032,12.11684l0.01163,0.01163l-10.96095,10.96095c-0.41061,0.41061 -0.96842,0.64148 -1.54947,0.64148c-0.58105,0 -1.13886,-0.23087 -1.54947,-0.64148l-10.96095,-10.96095z" data-paper-data="{&quot;index&quot;:null}" fill="#ff363f" fill-rule="evenodd" stroke="none" stroke-width="1" stroke-linejoin="round" stroke-miterlimit="2"/><path d="M360.24261,31.62235c0.29253,-0.90222 1.1342,-1.51398 2.08364,-1.51398c0.94944,0 1.79111,0.61175 2.08364,1.51398c0.77598,2.38849 1.5889,4.88988 2.09082,6.43464c0.29356,0.90326 1.13522,1.51398 2.08467,1.51398c1.62381,0 4.25452,0 6.76515,0c0.94944,0 1.79008,0.61175 2.08364,1.51398c0.29356,0.90326 -0.02771,1.8917 -0.79548,2.45007c-2.03129,1.47599 -4.16009,3.02179 -5.4739,3.97635c-0.76776,0.55837 -1.08903,1.54784 -0.79548,2.45007c0.50193,1.54476 1.31484,4.04616 2.0898,6.43464c0.29356,0.90222 -0.02771,1.8917 -0.79548,2.45007c-0.76776,0.55734 -1.80855,0.55734 -2.57632,0c-2.03129,-1.47599 -4.15907,-3.02281 -5.47289,-3.97739c-0.76776,-0.55734 -1.80855,-0.55734 -2.57632,0c-1.31382,0.95456 -3.4416,2.50139 -5.47289,3.97739c-0.76776,0.55734 -1.80855,0.55734 -2.57632,0c-0.76776,-0.55837 -1.08903,-1.54784 -0.79548,-2.45007c0.77495,-2.38849 1.58788,-4.88988 2.0898,-6.43464c0.29356,-0.90222 -0.02771,-1.8917 -0.79548,-2.45007c-1.31382,-0.95456 -3.44263,-2.50036 -5.4739,-3.97635c-0.76776,-0.55837 -1.08903,-1.54681 -0.79548,-2.45007c0.29356,-0.90222 1.1342,-1.51398 2.08364,-1.51398c2.51062,0 5.14135,0 6.76515,0c0.94944,0 1.79111,-0.61072 2.08467,-1.51398c0.50193,-1.54476 1.31484,-4.04616 2.09082,-6.43464z" data-paper-data="{&quot;index&quot;:null}" fill="#ffbc3f" fill-rule="evenodd" stroke="none" stroke-width="1" stroke-linejoin="round" stroke-miterlimit="2"/><text transform="translate(330.71702,79.80894) scale(0.54189,0.54189)" font-size="40" xml:space="preserve" fill="#000000" fill-rule="nonzero" stroke="#000000" stroke-width="1" stroke-linecap="butt" stroke-linejoin="miter" stroke-miterlimit="10" stroke-dasharray="" stroke-dashoffset="0" font-family="Sans Serif" font-weight="normal" text-anchor="start" style="mix-blend-mode: normal"><tspan x="0" dy="0">For admin!!!</tspan></text><g fill="#a9a9a9" fill-rule="nonzero" stroke="none" stroke-width="0" stroke-linejoin="miter" stroke-miterlimit="10"><g><path d="M431.56094,82.82373l43.32189,0.31273l-0.01898,2.5532l-43.32189,-0.31273z"/><path d="M474.82428,83.08976l-0.11909,16.02381l-6.31577,-0.04559l0.1191,-16.02381z"/><path d="M474.51978,99.15619l-43.32188,-0.31273l0.01736,-2.33607l43.32188,0.31273z" data-paper-data="{&quot;index&quot;:null}"/><path d="M431.25643,98.89016l0.11909,-16.02381l5.72872,0.04135l-0.1191,16.02381z" data-paper-data="{&quot;index&quot;:null}"/><path d="M433.65967,95.76858l34.62428,-10.70206l3.84955,1.69439l-34.62428,10.70206z"/><path d="M437.80021,84.77371l34.46149,11.20078l-3.87432,1.63863l-34.46149,-11.20078z" data-paper-data="{&quot;index&quot;:null}"/></g><g><path d="M391.91194,82.62742l43.32189,0.31273l-0.01898,2.5532l-43.32189,-0.31273z"/><path d="M435.17527,82.89344l-0.11909,16.02381l-6.31577,-0.04559l0.1191,-16.02381z"/><path d="M434.87078,98.95988l-43.32188,-0.31273l0.01736,-2.33607l43.32188,0.31273z" data-paper-data="{&quot;index&quot;:null}"/><path d="M391.60743,98.69385l0.1191,-16.02381l5.72871,0.04135l-0.11909,16.02381z" data-paper-data="{&quot;index&quot;:null}"/><path d="M394.01068,95.57225l34.62428,-10.70206l3.84955,1.69439l-34.62428,10.70206z"/><path d="M398.15122,84.5774l34.46149,11.20078l-3.87432,1.63863l-34.46149,-11.20078z" data-paper-data="{&quot;index&quot;:null}"/></g><g><g><path d="M351.84878,82.4292l43.32189,0.31273l-0.01898,2.5532l-43.32189,-0.31273z"/><path d="M395.11214,82.69523l-0.1191,16.02381l-6.31576,-0.04559l0.11909,-16.02381z"/><path d="M394.80763,98.76166l-43.32189,-0.31273l0.01736,-2.33607l43.32189,0.31273z" data-paper-data="{&quot;index&quot;:null}"/><path d="M351.54429,98.49563l0.11909,-16.02381l5.72872,0.04135l-0.1191,16.02381z" data-paper-data="{&quot;index&quot;:null}"/><path d="M353.94753,95.37404l34.62428,-10.70206l3.84955,1.69439l-34.62428,10.70206z"/><path d="M358.08807,84.37918l34.46149,11.20078l-3.87432,1.63863l-34.46149,-11.20078z" data-paper-data="{&quot;index&quot;:null}"/></g><g><path d="M312.19978,82.2329l43.32189,0.31273l-0.01898,2.5532l-43.32189,-0.31273z"/><path d="M355.46313,82.49891l-0.1191,16.02381l-6.31576,-0.04559l0.11909,-16.02381z"/><path d="M355.15864,98.56535l-43.32189,-0.31273l0.01736,-2.33607l43.32189,0.31273z" data-paper-data="{&quot;index&quot;:null}"/><path d="M311.89528,98.29932l0.11909,-16.02381l5.72872,0.04135l-0.1191,16.02381z" data-paper-data="{&quot;index&quot;:null}"/><path d="M314.29853,95.17773l34.62428,-10.70206l3.84955,1.69439l-34.62428,10.70206z"/><path d="M318.43907,84.18287l34.46149,11.20078l-3.87432,1.63863l-34.46149,-11.20078z" data-paper-data="{&quot;index&quot;:null}"/></g></g></g></g></g></svg>