<svg version="1.1" xmlns="http://www.w3.org/2000/svg" xmlns:xlink="http://www.w3.org/1999/xlink" width="195.1952" height="163.17156" viewBox="0,0,195.1952,163.17156"><g transform="translate(-327.19287,-28.23393)"><g data-paper-data="{&quot;isPaintingLayer&quot;:true}" fill-rule="nonzero" stroke-linecap="butt" stroke-linejoin="miter" stroke-miterlimit="10" stroke-dasharray="" stroke-dashoffset="0" style="mix-blend-mode: normal"><path d="M327.19287,191.40549v-153.15315h195.1952v153.15315z" fill="none" stroke="none" stroke-width="0"/><path d="M374.35565,77.72748c0,-0.2452 0.29545,-3.30961 1.92861,-4.80661c1.61938,-1.48437 4.575,-1.40247 4.94569,-1.40247c6.20654,0 43.33463,0 53.03837,0c0.25106,0 3.38951,0.35388 4.77706,1.82552c1.53088,1.62365 1.31068,4.39064 1.31068,4.64087c0,4.32876 0,29.00773 0,38.78682c0,0.21251 0.74751,3.85591 -0.91669,5.79642c-1.43667,1.67521 -5.30755,1.69922 -5.42835,1.69922c-5.47057,0 -43.06268,0 -53.18165,0c-0.15118,0 -3.50383,-0.46978 -5.04381,-2.20361c-1.49065,-1.6783 -1.17259,-4.61976 -1.17259,-4.7774c0,0 -0.25732,-34.71904 -0.25732,-39.55876z" fill="#d1d1d1" stroke="none" stroke-width="0"/><text transform="translate(386.95083,107.3) scale(0.76002,0.76002)" font-size="40" xml:space="preserve" fill="#000000" fill-rule="nonzero" stroke="none" stroke-width="1" stroke-linecap="butt" stroke-linejoin="miter" stroke-miterlimit="10" stroke-dasharray="" stroke-dashoffset="0" font-family="Sans Serif" font-weight="normal" text-anchor="start" style="mix-blend-mode: normal"><tspan x="0" dy="0">No</tspan></text><path d="M336.40566,170.87657v-142.64264h154.65465v142.64264z" fill="none" stroke="none" stroke-width="0"/><path d="M375.16822,77.49504c0,-0.26415 0.51307,-3.7788 2.47918,-5.57286c1.66857,-1.52255 4.80332,-1.38623 5.14512,-1.38623c6.20654,0 41.58464,0 51.28837,0c0.2267,0 3.06513,-0.30391 4.51892,1.09901c1.93248,1.86485 2.56882,5.59515 2.56882,5.86738c0,4.32875 0,29.25774 0,39.03683c0,0.363 0.3519,4.00759 -1.38687,5.5819c-1.78816,1.61903 -5.6722,1.16374 -5.95818,1.16374c-5.47057,0 -41.81267,0 -51.93165,0c-0.31504,0 -3.79313,0.4925 -5.38356,-1.04627c-1.47567,-1.42773 -1.08283,-4.88237 -1.08283,-5.18474c0,0 -0.25732,-34.71904 -0.25732,-39.55876z" fill="#ffffff" stroke="#efefef" stroke-width="4"/><text transform="translate(388.95083,106.22322) scale(0.67306,0.67306)" font-size="40" xml:space="preserve" fill="#000000" fill-rule="nonzero" stroke="none" stroke-width="1" stroke-linecap="butt" stroke-linejoin="miter" stroke-miterlimit="10" stroke-dasharray="" stroke-dashoffset="0" font-family="Sans Serif" font-weight="normal" text-anchor="start" style="mix-blend-mode: normal"><tspan x="0" dy="0">No</tspan></text></g></g></svg>