<svg version="1.1" xmlns="http://www.w3.org/2000/svg" xmlns:xlink="http://www.w3.org/1999/xlink" width="203.79721" height="79.3474" viewBox="0,0,203.79721,79.3474"><g transform="translate(-138.10138,-149.2094)"><g data-paper-data="{&quot;isPaintingLayer&quot;:true}" fill-rule="nonzero" stroke-linejoin="miter" stroke-miterlimit="10" stroke-dasharray="" stroke-dashoffset="0" style="mix-blend-mode: normal"><g><path d="M152.7351,208.99782c0,0 0.31589,-22.63311 21.54392,-21.91338c22.45445,0.76132 22.43153,22.25165 22.43153,22.25165l-43.97545,-0.33828z" fill="#161616" stroke="none" stroke-width="0" stroke-linecap="round"/><path d="M285.82562,209.06683c0,0 0.47669,-22.63032 21.69908,-21.75977c22.44848,0.92083 22.27286,22.41047 22.27286,22.41047z" fill="#161616" stroke="none" stroke-width="0" stroke-linecap="round"/><path d="M286.93621,209.22222h-91.31312c0,0 -0.87146,-21.74086 -21.78458,-21.69554c-21.78283,0.0472 -18.99266,22.56686 -18.99266,22.56686l-13.41816,-2.78819c0,0 -2.34525,-6.61531 -2.89733,-9.69534c-0.55157,-3.07721 -0.41365,-8.7764 -0.41365,-8.7764c0,0 1.35523,-0.77221 2.43866,-2.19555c1.3249,-1.74055 1.8682,-11.17049 5.78611,-16.4832c7.03814,-9.54374 16.61157,-14.85675 17.98623,-16.00957c2.3839,-1.9992 30.59147,-4.4512 44.28734,-4.86354c16.82634,-0.5066 31.8834,1.74665 42.946,3.66422c6.45512,1.11892 30.79307,15.56054 30.79307,15.56054l40.82849,7.78027c0,0 7.48253,2.61905 10.11367,4.84539c2.6546,2.2462 5.74414,8.57277 5.74414,8.57277c0,0 2.54848,1.50872 2.83046,3.26102c0.20153,1.25236 -0.75796,3.43219 -0.8828,5.83077c-0.15384,2.95611 0.492,6.06898 0.492,6.06898c0,0 -0.04521,3.66951 -1.74261,4.35654c-1.69739,0.68704 -12.89536,1.56836 -12.89536,1.56836c0,0 4.73493,-22.40892 -18.5517,-23.12601c-20.58741,-0.63398 -21.35423,21.55766 -21.35423,21.55766z" fill="#b9b9b9" stroke="none" stroke-width="0" stroke-linecap="round"/><path d="M143.48346,175.51809l2.36792,-4.28478l4.39755,1.01482l-0.67654,4.73581l-5.97615,6.20166l-1.91688,0.22551z" fill="#ff0000" stroke="none" stroke-width="0" stroke-linecap="round"/><path d="M338.60104,189.38726l-6.53994,-3.04445l-2.70618,-2.81895l5.18684,-1.5786z" fill="#f1f1f1" stroke="none" stroke-width="0" stroke-linecap="round"/><path d="M286.34732,175.29256l-120.0868,-7.66752c0,0 -3.16823,-0.36781 -4.08444,-0.78609c-0.79567,-0.36324 -1.10242,-1.58183 -1.10242,-1.58183c0,0 0.82174,-1.89687 1.79822,-3.0466c1.27386,-1.49985 5.19275,-5.1847 5.19275,-5.1847c0,0 21.53835,-4.39507 33.54013,-5.1032c12.38254,-0.73058 32.05562,-0.18415 39.71131,0.52267c0.25318,0.02338 1.05639,0.15955 1.2813,0.18299c5.54439,0.57759 14.60095,3.62257 20.94042,6.98166c5.95271,3.15417 17.19045,9.91944 21.677,13.29176c1.40632,1.05706 1.13252,2.39084 1.13252,2.39084z" fill="#666666" stroke="none" stroke-width="0" stroke-linecap="round"/><path d="M178.28427,168.30514l6.61323,-14.08906l6.99661,-0.76675l-7.76335,14.66412z" fill="#3f3f3f" stroke="none" stroke-width="0" stroke-linecap="round"/><path d="M223.71429,151.81997h6.13401l3.92961,20.41475l-9.39271,-0.8626z" fill="#3f3f3f" stroke="none" stroke-width="0" stroke-linecap="round"/><path d="M242.8918,179.53461c0,1.71255 -1.96885,3.10082 -4.39755,3.10082c-2.4287,0 -4.39755,-1.38829 -4.39755,-3.10082c0,-1.71255 1.96885,-3.10083 4.39755,-3.10083c2.4287,0 4.39755,1.38829 4.39755,3.10083z" fill="#9c9c9c" stroke="none" stroke-width="0" stroke-linecap="butt"/><path d="M191.92537,176.26464c0,1.33889 -1.84264,2.42429 -4.11565,2.42429c-2.27301,0 -4.11565,-1.08538 -4.11565,-2.42429c0,-1.33889 1.84264,-2.42429 4.11565,-2.42429c2.27301,0 4.11565,1.08538 4.11565,2.42429z" fill="#9c9c9c" stroke="none" stroke-width="0" stroke-linecap="butt"/><path d="M182.67926,175.41896l12.06506,0.90206v1.80413l-13.30539,-1.24033z" fill="#dbdbdb" stroke="none" stroke-width="0" stroke-linecap="round"/><path d="M232.5181,178.01237l12.06506,1.3531l0.11276,1.57861l-12.40334,-1.46585z" fill="#dbdbdb" stroke="none" stroke-width="0" stroke-linecap="round"/><path d="M164.2822,188.92303l-1.09536,-1.64304l-9.85823,-0.54769l-5.20296,-7.94135" fill="none" stroke="#6d6d6d" stroke-width="1" stroke-linecap="round"/><path d="M178.93265,187.82767l0.54769,-11.09051l2.05379,-7.94135l7.25676,-15.06119" fill="none" stroke="#6d6d6d" stroke-width="1" stroke-linecap="round"/><path d="M226.99154,151.68082l1.50612,19.57954l0.82152,17.79959l0.13692,19.71647" fill="none" stroke="#6d6d6d" stroke-width="1" stroke-linecap="round"/><path d="M279.8426,167.28968l0.54769,2.87533l3.42299,13.1443l-1.23227,13.55507l-3.28608,12.18587" fill="none" stroke="#6d6d6d" stroke-width="1" stroke-linecap="round"/><path d="M320.64473,190.15531l5.4768,-6.846l7.66752,-1.77996" fill="none" stroke="#6d6d6d" stroke-width="1" stroke-linecap="round"/><path d="M272.37961,163.3319l5.61037,1.58961l2.99219,4.5818l1.21559,3.64675l-7.29349,0.65454l-3.74026,-2.52467z" fill="#dbdbdb" stroke="none" stroke-width="0" stroke-linecap="round"/><g stroke="none"><path d="M157.37151,210c0,-8.99957 7.29559,-16.29516 16.29516,-16.29516c8.99957,0 16.29516,7.29559 16.29516,16.29516c0,8.99957 -7.29559,16.29516 -16.29516,16.29516c-8.99957,0 -16.29516,-7.29559 -16.29516,-16.29516z" fill="#2a2a2a" stroke-width="0" stroke-linecap="butt"/><path d="M161.47289,210c0,-6.73444 5.45934,-12.19378 12.19378,-12.19378c6.73444,0 12.19379,5.45934 12.19379,12.19378c0,6.73444 -5.45935,12.19378 -12.19379,12.19378c-6.73444,0 -12.19378,-5.45934 -12.19378,-12.19378z" fill="#a5a5a5" stroke-width="0" stroke-linecap="butt"/><path d="M170.3035,218.84552l2.13391,-2.68264c0,0 0.89536,-0.74228 1.30674,-0.74228c0.40129,0 1.13201,0.74228 1.13201,0.74228l1.82907,3.17038c0,0 -1.31451,0.87587 -3.17987,0.84258c-2.61293,-0.04663 -3.22186,-1.33033 -3.22186,-1.33033z" fill="#000000" stroke-width="0" stroke-linecap="round"/><path d="M165.7341,216.28482c0,0 -1.28257,-0.92514 -2.00498,-3.01466c-0.5784,-1.67298 -0.12894,-3.32611 -0.12894,-3.32611l3.23136,0.60968c0,0 1.05717,0.4592 1.22502,0.92918c0.12243,0.3428 -0.1392,1.68862 -0.1392,1.68862z" fill="#000000" stroke-width="0" stroke-linecap="round"/><path d="M168.78255,205.98108l-3.64652,-1.6539c0,0 0.61148,-1.49956 2.20794,-2.81367c1.42534,-1.17326 3.26765,-1.69029 3.26765,-1.69029l0.36582,4.14589c0,0 -0.20935,1.29103 -0.57346,1.6248c-0.36749,0.33685 -1.62143,0.38717 -1.62143,0.38717z" fill="#000000" stroke-width="0" stroke-linecap="round"/><path d="M176.76947,200.43291c0,0 2.26973,0.73637 3.16645,1.44539c0.84838,0.67082 2.07688,2.70049 2.07688,2.70049l-3.17038,1.46326c0,0 -1.39357,-0.17328 -1.81394,-0.55361c-0.43283,-0.39161 -0.74675,-1.76321 -0.74675,-1.76321z" fill="#000000" stroke-width="0" stroke-linecap="round"/><path d="M178.91965,211.52113c0.09816,-0.5006 1.19986,-1.02834 1.19986,-1.02834l3.78007,-1.09744c0,0 -0.02934,2.74507 -0.4313,3.8788c-0.39029,1.10083 -1.94649,2.82778 -1.94649,2.82778l-2.01197,-2.49972c0,0 -0.69481,-1.54731 -0.59016,-2.08107z" fill="#000000" stroke-width="0" stroke-linecap="round"/><path d="M170.49134,209.3596c0,-0.298 0.24157,-0.53957 0.53957,-0.53957c0.298,0 0.53957,0.24157 0.53957,0.53957c0,0.298 -0.24157,0.53957 -0.53957,0.53957c-0.298,0 -0.53957,-0.24157 -0.53957,-0.53957z" fill="#2c2c2c" stroke-width="0.5" stroke-linecap="butt"/><path d="M172.99107,207.28665c0,-0.298 0.24157,-0.53957 0.53957,-0.53957c0.298,0 0.53957,0.24157 0.53957,0.53957c0,0.298 -0.24157,0.53957 -0.53957,0.53957c-0.298,0 -0.53957,-0.24157 -0.53957,-0.53957z" fill="#2c2c2c" stroke-width="0.5" stroke-linecap="butt"/><path d="M175.91758,209.17669c0,-0.298 0.24157,-0.53957 0.53957,-0.53957c0.298,0 0.53957,0.24157 0.53957,0.53957c0,0.298 -0.24157,0.53957 -0.53957,0.53957c-0.298,0 -0.53957,-0.24157 -0.53957,-0.53957z" fill="#2c2c2c" stroke-width="0.5" stroke-linecap="butt"/><path d="M174.82014,212.71288c0,-0.298 0.24157,-0.53957 0.53957,-0.53957c0.298,0 0.53957,0.24157 0.53957,0.53957c0,0.298 -0.24157,0.53957 -0.53957,0.53957c-0.298,0 -0.53957,-0.24157 -0.53957,-0.53957z" fill="#2c2c2c" stroke-width="0.5" stroke-linecap="butt"/><path d="M171.34491,212.40804c0,-0.298 0.24157,-0.53957 0.53957,-0.53957c0.298,0 0.53957,0.24157 0.53957,0.53957c0,0.298 -0.24157,0.53957 -0.53957,0.53957c-0.298,0 -0.53957,-0.24157 -0.53957,-0.53957z" fill="#2c2c2c" stroke-width="0.5" stroke-linecap="butt"/><path d="M171.92906,210c0,-0.95966 0.77795,-1.73762 1.73762,-1.73762c0.95966,0 1.73762,0.77795 1.73762,1.73762c0,0.95966 -0.77795,1.73762 -1.73762,1.73762c-0.95966,0 -1.73762,-0.77795 -1.73762,-1.73762z" fill="#2c2c2c" stroke-width="0" stroke-linecap="butt"/><path d="M155.10986,210c0,-10.24864 8.30817,-18.55681 18.55681,-18.55681c10.24864,0 18.55681,8.30817 18.55681,18.55681c0,10.24864 -8.30817,18.55681 -18.55681,18.55681c-10.24864,0 -18.55681,-8.30817 -18.55681,-18.55681z" fill="none" stroke-width="0" stroke-linecap="butt"/></g><g stroke="none"><path d="M291.03817,210c0,-8.99957 7.29559,-16.29516 16.29516,-16.29516c8.99957,0 16.29516,7.29559 16.29516,16.29516c0,8.99957 -7.29559,16.29516 -16.29516,16.29516c-8.99957,0 -16.29516,-7.29559 -16.29516,-16.29516z" fill="#2a2a2a" stroke-width="0" stroke-linecap="butt"/><path d="M295.13955,210c0,-6.73444 5.45934,-12.19378 12.19378,-12.19378c6.73444,0 12.19379,5.45934 12.19379,12.19378c0,6.73444 -5.45935,12.19378 -12.19379,12.19378c-6.73444,0 -12.19378,-5.45934 -12.19378,-12.19378z" fill="#a5a5a5" stroke-width="0" stroke-linecap="butt"/><path d="M303.97016,218.84552l2.13391,-2.68264c0,0 0.89536,-0.74228 1.30674,-0.74228c0.40129,0 1.13201,0.74228 1.13201,0.74228l1.82907,3.17038c0,0 -1.31451,0.87587 -3.17987,0.84258c-2.61293,-0.04663 -3.22186,-1.33033 -3.22186,-1.33033z" fill="#000000" stroke-width="0" stroke-linecap="round"/><path d="M299.40076,216.28482c0,0 -1.28257,-0.92514 -2.00498,-3.01466c-0.5784,-1.67298 -0.12894,-3.32611 -0.12894,-3.32611l3.23136,0.60968c0,0 1.05717,0.4592 1.22502,0.92918c0.12243,0.3428 -0.1392,1.68862 -0.1392,1.68862z" fill="#000000" stroke-width="0" stroke-linecap="round"/><path d="M302.44921,205.98108l-3.64652,-1.6539c0,0 0.61148,-1.49956 2.20794,-2.81367c1.42534,-1.17326 3.26765,-1.69029 3.26765,-1.69029l0.36582,4.14589c0,0 -0.20935,1.29103 -0.57346,1.6248c-0.36749,0.33685 -1.62143,0.38717 -1.62143,0.38717z" fill="#000000" stroke-width="0" stroke-linecap="round"/><path d="M310.43613,200.43291c0,0 2.26973,0.73637 3.16645,1.44539c0.84838,0.67082 2.07688,2.70049 2.07688,2.70049l-3.17038,1.46326c0,0 -1.39357,-0.17328 -1.81394,-0.55361c-0.43283,-0.39161 -0.74675,-1.76321 -0.74675,-1.76321z" fill="#000000" stroke-width="0" stroke-linecap="round"/><path d="M312.58631,211.52113c0.09816,-0.5006 1.19986,-1.02834 1.19986,-1.02834l3.78007,-1.09744c0,0 -0.02934,2.74507 -0.4313,3.8788c-0.39029,1.10083 -1.94649,2.82778 -1.94649,2.82778l-2.01197,-2.49972c0,0 -0.69481,-1.54731 -0.59016,-2.08107z" fill="#000000" stroke-width="0" stroke-linecap="round"/><path d="M304.158,209.3596c0,-0.298 0.24157,-0.53957 0.53957,-0.53957c0.298,0 0.53957,0.24157 0.53957,0.53957c0,0.298 -0.24157,0.53957 -0.53957,0.53957c-0.298,0 -0.53957,-0.24157 -0.53957,-0.53957z" fill="#2c2c2c" stroke-width="0.5" stroke-linecap="butt"/><path d="M306.65773,207.28665c0,-0.298 0.24157,-0.53957 0.53957,-0.53957c0.298,0 0.53957,0.24157 0.53957,0.53957c0,0.298 -0.24157,0.53957 -0.53957,0.53957c-0.298,0 -0.53957,-0.24157 -0.53957,-0.53957z" fill="#2c2c2c" stroke-width="0.5" stroke-linecap="butt"/><path d="M309.58424,209.17669c0,-0.298 0.24157,-0.53957 0.53957,-0.53957c0.298,0 0.53957,0.24157 0.53957,0.53957c0,0.298 -0.24157,0.53957 -0.53957,0.53957c-0.298,0 -0.53957,-0.24157 -0.53957,-0.53957z" fill="#2c2c2c" stroke-width="0.5" stroke-linecap="butt"/><path d="M308.4868,212.71288c0,-0.298 0.24157,-0.53957 0.53957,-0.53957c0.298,0 0.53957,0.24157 0.53957,0.53957c0,0.298 -0.24157,0.53957 -0.53957,0.53957c-0.298,0 -0.53957,-0.24157 -0.53957,-0.53957z" fill="#2c2c2c" stroke-width="0.5" stroke-linecap="butt"/><path d="M305.01157,212.40804c0,-0.298 0.24157,-0.53957 0.53957,-0.53957c0.298,0 0.53957,0.24157 0.53957,0.53957c0,0.298 -0.24157,0.53957 -0.53957,0.53957c-0.298,0 -0.53957,-0.24157 -0.53957,-0.53957z" fill="#2c2c2c" stroke-width="0.5" stroke-linecap="butt"/><path d="M305.59572,210c0,-0.95966 0.77795,-1.73762 1.73762,-1.73762c0.95966,0 1.73762,0.77795 1.73762,1.73762c0,0.95966 -0.77795,1.73762 -1.73762,1.73762c-0.95966,0 -1.73762,-0.77795 -1.73762,-1.73762z" fill="#2c2c2c" stroke-width="0" stroke-linecap="butt"/><path d="M288.77652,210c0,-10.24864 8.30817,-18.55681 18.55681,-18.55681c10.24864,0 18.55681,8.30817 18.55681,18.55681c0,10.24864 -8.30817,18.55681 -18.55681,18.55681c-10.24864,0 -18.55681,-8.30817 -18.55681,-18.55681z" fill="none" stroke-width="0" stroke-linecap="butt"/></g></g></g></g></svg>