<svg version="1.1" xmlns="http://www.w3.org/2000/svg" xmlns:xlink="http://www.w3.org/1999/xlink" width="507.27755" height="562.39729" viewBox="0,0,507.27755,562.39729"><defs><linearGradient x1="115.84601" y1="429.23459" x2="98.68067" y2="439.95743" gradientUnits="userSpaceOnUse" id="color-1"><stop offset="0" stop-color="#8e8e8e"/><stop offset="1" stop-color="#818181"/></linearGradient><linearGradient x1="351.95268" y1="353.94254" x2="317.3912" y2="409.20888" gradientUnits="userSpaceOnUse" id="color-2"><stop offset="0" stop-color="#8e8e8e"/><stop offset="1" stop-color="#818181"/></linearGradient><linearGradient x1="399.09057" y1="354.04249" x2="353.3791" y2="388.02858" gradientUnits="userSpaceOnUse" id="color-3"><stop offset="0" stop-color="#8e8e8e"/><stop offset="1" stop-color="#818181"/></linearGradient><linearGradient x1="150.38975" y1="364.7594" x2="179.29614" y2="396.80378" gradientUnits="userSpaceOnUse" id="color-4"><stop offset="0" stop-color="#8e8e8e"/><stop offset="1" stop-color="#818181"/></linearGradient><linearGradient x1="63.65899" y1="357.50974" x2="47.21647" y2="407.82731" gradientUnits="userSpaceOnUse" id="color-5"><stop offset="0" stop-color="#8e8e8e"/><stop offset="1" stop-color="#818181"/></linearGradient><radialGradient cx="375.93684" cy="118.72655" r="26.03542" gradientUnits="userSpaceOnUse" id="color-6"><stop offset="0" stop-color="#faff00"/><stop offset="1" stop-color="#faff00" stop-opacity="0"/></radialGradient><radialGradient cx="103.15906" cy="-35.43261" r="26.03542" gradientUnits="userSpaceOnUse" id="color-7"><stop offset="0" stop-color="#faff00"/><stop offset="1" stop-color="#faff00" stop-opacity="0"/></radialGradient></defs><g transform="translate(13.63878,101.19864)"><g data-paper-data="{&quot;isPaintingLayer&quot;:true}" fill-rule="nonzero" stroke-linecap="butt" stroke-linejoin="miter" stroke-miterlimit="10" stroke-dasharray="" stroke-dashoffset="0" style="mix-blend-mode: normal"><path d="M42.97222,290.69325v-391.89189h385.88589v391.89189z" fill="#ce9d5c" stroke="none" stroke-width="0"/><path d="M42.52939,247.27796v-84h13.5v84z" fill="#b88c53" stroke="none" stroke-width="0"/><g stroke="none"><path d="M93.06667,435.53036l6.94038,-7.86422l18.60209,3.77381l-6.65533,12.029l-13.45678,-0.75551z" data-paper-data="{&quot;origPos&quot;:null,&quot;origRot&quot;:0}" fill="#534c42" stroke-width="0"/><path d="M95.50069,434.67096l6.22858,-7.05764l16.6942,3.38678l-5.97279,10.79525l-12.07667,-0.67802z" data-paper-data="{&quot;origPos&quot;:null,&quot;origRot&quot;:0}" fill="url(#color-1)" stroke-width="NaN"/></g><path d="M-12.55974,394.61598v-74.52655c0,0 51.08402,7.45265 90.71345,7.45265c41.78066,0 149.18903,-7.67744 238.66361,-9.4622c97.02719,-1.93542 174.82103,2.00956 174.82103,2.00956v74.52655z" fill="#7c7262" stroke="none" stroke-width="0"/><path d="M-12.86261,458.54437v-74.52655c0,0 51.15015,7.45265 90.83085,7.45265c41.83474,0 149.38209,-7.67744 238.9724,-9.4622c97.15276,-1.93542 175.04725,2.00956 175.04725,2.00956v74.52655z" fill="#786e5f" stroke="none" stroke-width="0"/><path d="M-12.30379,461.19864v-37.05188c0,0 50.97222,3.70519 90.51492,3.70519c41.68923,0 148.8625,-3.81693 238.14124,-4.70428c96.81484,-0.96221 174.43842,0.9991 174.43842,0.9991v37.05188z" fill="#6f6558" stroke="none" stroke-width="0"/><path d="M-12.6796,331.6423v-32.95167h506.31837v32.95167z" fill="#949494" stroke="none" stroke-width="0"/><path d="M-13.63878,331.6423v-13.30453h504.76637v13.30453z" fill="#b5b5b5" stroke="none" stroke-width="0"/><g stroke="none"><path d="M294.60908,396.22319l9.35838,-36.16014l57.59179,0.37413l-3.10365,52.24412l-39.07922,7.45925z" data-paper-data="{&quot;origPos&quot;:null,&quot;origRot&quot;:0}" fill="#534c42" stroke-width="0"/><path d="M301.47451,390.97457l8.39857,-32.45141l51.6849,0.33577l-2.78539,46.88573l-35.07107,6.69417z" data-paper-data="{&quot;origPos&quot;:null,&quot;origRot&quot;:0}" fill="url(#color-2)" stroke-width="NaN"/></g><g stroke="none"><path d="M337.71444,373.44083l18.48243,-24.92571l49.53786,11.96112l-17.72333,38.12603l-35.83578,-2.39454z" data-paper-data="{&quot;origPos&quot;:null,&quot;origRot&quot;:0}" fill="#534c42" stroke-width="0"/><path d="M344.91064,371.27307l16.58685,-22.36922l44.45703,10.73433l-15.90563,34.21564l-32.1603,-2.14891z" data-paper-data="{&quot;origPos&quot;:null,&quot;origRot&quot;:0}" fill="url(#color-3)" stroke-width="NaN"/></g><g stroke="none"><path d="M166.12141,406.4225l-22.94237,-13.73023l14.65445,-31.35114l35.75055,14.15045l-4.55128,23.1124z" data-paper-data="{&quot;origRot&quot;:0}" fill="#534c42" stroke-width="0"/><path d="M163.18069,401.14554l-19.83759,-12.32205l12.67119,-28.13558l30.91237,12.69916l-3.93529,20.74185z" data-paper-data="{&quot;origRot&quot;:0}" fill="url(#color-4)" stroke-width="NaN"/></g><g stroke="none"><path d="M24.60387,401.4517l-0.67658,-30.4996l49.77421,-10.22854l9.96443,42.16174l-31.90816,13.08147z" data-paper-data="{&quot;origRot&quot;:0}" fill="#534c42" stroke-width="0"/><path d="M29.07305,396.21916l-0.60718,-27.37144l44.66912,-9.17942l8.94235,37.83744l-28.6355,11.73975z" data-paper-data="{&quot;origRot&quot;:0}" fill="url(#color-5)" stroke-width="NaN"/></g><path d="M43.60862,297.7254v-49.54505h12.01201v49.54505z" fill="#916e41" stroke="#916e41" stroke-width="2"/><path d="M43.10111,166.09328v-234.23423h12.01201v234.23423z" fill="#916e41" stroke="#916e41" stroke-width="2"/><path d="M55.36334,298.22089v-19.51501h173.67373v19.51501z" fill="#916e41" stroke="#916e41" stroke-width="2"/><path d="M138.69168,277.69989v-13.51351h90.59062v13.51351z" fill="#916e41" stroke="#916e41" stroke-width="2"/><path d="M154.20219,263.18037v-13.51351h75.57561v13.51351z" fill="#916e41" stroke="#916e41" stroke-width="2"/><path d="M169.7127,248.66085v-13.51351h189.68973v13.51351z" fill="#916e41" stroke="#916e41" stroke-width="2"/><path d="M185.22321,293.63831v-58.93392h59.0591v58.93392z" fill="#916e41" stroke="#916e41" stroke-width="2"/><path d="M53.58657,153.05132v-12.50468h217.13384v12.50468z" fill="#916e41" stroke="#916e41" stroke-width="2"/><path d="M311.37035,234.65184v-13.51351h103.11735v13.51351z" fill="#916e41" stroke="#916e41" stroke-width="2"/><path d="M329.02562,220.13232v-13.51351h86.02609v13.51351z" fill="#916e41" stroke="#916e41" stroke-width="2"/><path d="M346.68091,205.6128v-13.51351h85.28909v13.51351z" fill="#916e41" stroke="#916e41" stroke-width="2"/><path d="M364.33619,250.59026v-58.93392h67.22569v58.93392z" fill="#916e41" stroke="#916e41" stroke-width="2"/><path d="M419.22223,193.61579v-280.78078h13.01302v280.78078z" fill="#916e41" stroke="#916e41" stroke-width="2"/><path d="M80.75937,147.05424v-13.51351h190.04942v13.51351z" fill="#916e41" stroke="#916e41" stroke-width="2"/><path d="M67.61169,133.04523v-13.51351h103.31289v13.51351z" fill="#916e41" stroke="#916e41" stroke-width="2"/><path d="M67.04661,118.5257v-13.51351h86.18921v13.51351z" fill="#916e41" stroke="#916e41" stroke-width="2"/><path d="M50.09624,104.00618v-13.51351h85.45082v13.51351z" fill="#916e41" stroke="#916e41" stroke-width="2"/><path d="M50.50514,148.98365v-58.93392h67.35317v58.93392z" fill="#916e41" stroke="#916e41" stroke-width="2"/><path d="M53.59474,89.48667v-13.51351h65.9313v13.51351z" fill="#916e41" stroke="#916e41" stroke-width="2"/><path d="M207.23522,43.24805v-15.63085h217.13384v15.63085z" fill="#916e41" stroke="#916e41" stroke-width="2"/><path d="M287.03569,26.93411v-13.51351h134.67738v13.51351z" fill="#916e41" stroke="#916e41" stroke-width="2"/><path d="M306.49541,12.41459v-13.51351h111.33481v13.51351z" fill="#916e41" stroke="#916e41" stroke-width="2"/><path d="M325.95513,-2.10493v-13.51351h94.00597v13.51351z" fill="#916e41" stroke="#916e41" stroke-width="2"/><path d="M343.58014,-16.62445v-13.51351h84.54421v13.51351z" fill="#916e41" stroke="#916e41" stroke-width="2"/><path d="M216.5195,298.22039v-62.06206h215.70707v62.06206z" fill="#916e41" stroke="#916e41" stroke-width="2"/><g stroke="none" stroke-width="0"><path d="M394.56769,118.72655c0,14.37896 -8.34131,26.03542 -18.63085,26.03542c-10.28954,0 -18.63085,-11.65645 -18.63085,-26.03542c0,-14.37896 8.34131,-26.03542 18.63085,-26.03542c10.28954,0 18.63085,11.65645 18.63085,26.03542z" fill="url(#color-6)"/><path d="M372.39855,157.88497v-30.10619h4.90776v30.10619z" fill="#e57e00"/><path d="M374.35969,157.88497v-30.10619h3.27348v30.10619z" fill="#d17300"/><path d="M383.84345,121.77141c0,7.40124 -1.89228,10.13257 -8.66171,10.13257c-3.26119,0 -6.62138,-1.80606 -7.30457,-5.91519c-0.36438,-2.19159 0.96825,-6.20771 1.40749,-8.35929c0.4467,-2.18813 4.75309,-2.42238 4.75309,-4.35637c0,-5.41021 -3.33276,-9.56517 -2.3059,-10.17811c0.3779,-0.22558 1.62883,2.00669 3.4499,2.00669c1.54048,0 1.70717,5.21357 3.06534,5.78079c4.6101,1.92536 5.59637,5.17194 5.59637,10.88892z" fill="#ffef00"/><path d="M380.79279,123.16817c0,4.15265 -1.06171,5.68514 -4.85987,5.68514c-1.82978,0 -3.71509,-1.01334 -4.09841,-3.31887c-0.20444,-1.22965 0.54326,-3.483 0.78971,-4.6902c0.25063,-1.2277 2.66685,-1.35914 2.66685,-2.44425c0,-3.03553 1.59972,-1.65958 2.36176,-1.34132c2.58662,1.08028 3.13999,2.90184 3.13999,6.1095z" fill="#ffb000"/></g><g stroke="none" stroke-width="0"><path d="M121.78991,-35.43261c0,14.37896 -8.34131,26.03542 -18.63085,26.03542c-10.28954,0 -18.63085,-11.65646 -18.63085,-26.03542c0,-14.37897 8.34131,-26.03541 18.63085,-26.03541c10.28954,0 18.63085,11.65645 18.63085,26.03542z" fill="url(#color-7)"/><path d="M99.62077,3.72582v-30.10619h4.90776v30.10619z" fill="#e57e00"/><path d="M101.58191,3.72582v-30.10619h3.27348v30.10619z" fill="#d17300"/><path d="M111.06568,-32.38775c0,7.40124 -1.89229,10.13257 -8.66172,10.13257c-3.26119,0 -6.62138,-1.80606 -7.30457,-5.91519c-0.36438,-2.19159 0.96825,-6.20771 1.40749,-8.35929c0.44669,-2.18813 4.75309,-2.42239 4.75309,-4.35637c0,-5.41021 -3.33276,-9.56517 -2.3059,-10.17811c0.3779,-0.22558 1.62883,2.00668 3.44989,2.00668c1.54048,0 1.70717,5.21357 3.06534,5.7808c4.6101,1.92536 5.59637,5.17193 5.59637,10.88891z" fill="#ffef00"/><path d="M108.01501,-30.99098c0,4.15265 -1.06171,5.68513 -4.85988,5.68513c-1.82978,0 -3.71509,-1.01333 -4.09841,-3.31886c-0.20445,-1.22965 0.54327,-3.483 0.78971,-4.6902c0.25063,-1.2277 2.66684,-1.35913 2.66684,-2.44425c0,-3.03553 1.59972,-1.65958 2.36176,-1.34132c2.58662,1.08028 3.13999,2.90185 3.13999,6.1095z" fill="#ffb000"/></g><path d="M56.5,278.87042v-3.5h81.5v3.5z" fill="#715534" stroke="none" stroke-width="0"/><path d="M137.75,264.62042v-3.5h15.75v3.5z" fill="#715534" stroke="none" stroke-width="0"/><path d="M153.25,249.62042v-3.5h15.75v3.5z" fill="#715534" stroke="none" stroke-width="0"/><path d="M168.66666,236.62042v-3.5h142v3.5z" fill="#715534" stroke="none" stroke-width="0"/><path d="M310.25,222.12042v-3.5h18.25v3.5z" fill="#715534" stroke="none" stroke-width="0"/><path d="M327.75,207.12042v-3.5h18.25v3.5z" fill="#715534" stroke="none" stroke-width="0"/><path d="M345.5,191.37042v-3.5h73v3.5z" fill="#715534" stroke="none" stroke-width="0"/><path d="M171.16366,135.01381v-3.5h100.5v3.5z" fill="#715534" stroke="none" stroke-width="0"/><path d="M153.6569,119.5048v-3.5h18.25v3.5z" fill="#715534" stroke="none" stroke-width="0"/><path d="M136.1569,105.50481v-3.5h18.25v3.5z" fill="#715534" stroke="none" stroke-width="0"/><path d="M120.1569,93.50481v-3.5h16.25v3.5z" fill="#715534" stroke="none" stroke-width="0"/><path d="M55.49399,76.66321v-3.5h65v3.5z" fill="#715534" stroke="none" stroke-width="0"/><path d="M206.35886,26.70075v-3.5h80v3.5z" fill="#715534" stroke="none" stroke-width="0"/><path d="M286.1569,12.50481v-3.5h19.25v3.5z" fill="#715534" stroke="none" stroke-width="0"/><path d="M305.6569,-0.99519v-3.5h19.25v3.5z" fill="#715534" stroke="none" stroke-width="0"/><path d="M325.1569,-15.99519v-3.5h17.75v3.5z" fill="#715534" stroke="none" stroke-width="0"/><path d="M342.77628,-29.4479v-3.5h76v3.5z" fill="#715534" stroke="none" stroke-width="0"/></g></g></svg>