<svg version="1.1" xmlns="http://www.w3.org/2000/svg" xmlns:xlink="http://www.w3.org/1999/xlink" width="513.55123" height="624.52021" viewBox="0,0,513.55123,624.52021"><defs><linearGradient x1="119.81587" y1="406.30797" x2="103.12512" y2="417.03081" gradientUnits="userSpaceOnUse" id="color-1"><stop offset="0" stop-color="#8e8e8e"/><stop offset="1" stop-color="#818181"/></linearGradient><linearGradient x1="-6.08901" y1="302.06344" x2="484.72192" y2="302.06344" gradientUnits="userSpaceOnUse" id="color-2"><stop offset="0" stop-color="#8bce39"/><stop offset="1" stop-color="#8bce39"/></linearGradient><linearGradient x1="349.39483" y1="331.01593" x2="315.78887" y2="386.28226" gradientUnits="userSpaceOnUse" id="color-3"><stop offset="0" stop-color="#8e8e8e"/><stop offset="1" stop-color="#818181"/></linearGradient><linearGradient x1="395.22948" y1="331.11587" x2="350.78181" y2="365.10196" gradientUnits="userSpaceOnUse" id="color-4"><stop offset="0" stop-color="#8e8e8e"/><stop offset="1" stop-color="#818181"/></linearGradient><linearGradient x1="153.40458" y1="341.83278" x2="181.51178" y2="373.87716" gradientUnits="userSpaceOnUse" id="color-5"><stop offset="0" stop-color="#8e8e8e"/><stop offset="1" stop-color="#818181"/></linearGradient><linearGradient x1="69.07168" y1="334.58313" x2="53.08374" y2="384.90069" gradientUnits="userSpaceOnUse" id="color-6"><stop offset="0" stop-color="#8e8e8e"/><stop offset="1" stop-color="#818181"/></linearGradient></defs><g transform="translate(27.41245,186.24818)"><g data-paper-data="{&quot;isPaintingLayer&quot;:true}" fill-rule="nonzero" stroke="none" stroke-linecap="butt" stroke-linejoin="miter" stroke-miterlimit="10" stroke-dasharray="" stroke-dashoffset="0" style="mix-blend-mode: normal"><path d="M242.00075,241.76202v-375.55556h151.65315v375.55556z" fill="#f09b3a" stroke-width="0"/><g><path d="M95.61656,412.60374l6.7485,-7.86422l18.08779,3.77381l-6.47133,12.029l-13.08474,-0.75551z" data-paper-data="{&quot;origPos&quot;:null,&quot;origRot&quot;:0}" fill="#534c42" stroke-width="0"/><path d="M97.98328,411.74434l6.05638,-7.05764l16.23265,3.38678l-5.80766,10.79525l-11.74278,-0.67802z" data-paper-data="{&quot;origPos&quot;:null,&quot;origRot&quot;:0}" fill="url(#color-1)" stroke-width="NaN"/></g><path d="M-10.09258,376.19387l3.003,-79.03105c0,0 49.67168,7.45265 88.20546,7.45265c40.62553,0 145.06435,-7.67744 232.0652,-9.4622c94.34465,-1.93542 169.98769,2.00956 169.98769,2.00956v74.52655z" fill="#9a8a7e" stroke-width="0"/><path d="M-7.38406,435.61775v-74.52655c0,0 49.73598,7.45265 88.31962,7.45265c40.67812,0 145.25207,-7.67744 232.36545,-9.4622c94.46674,-1.93542 170.20766,2.00956 170.20766,2.00956v74.52655z" fill="#887c6d" stroke-width="0"/><path d="M-6.8407,438.27202v-37.05188c0,0 49.56297,3.70519 88.01242,3.70519c40.53663,0 144.74684,-3.81693 231.55726,-4.70428c94.13816,-0.96221 169.61565,0.9991 169.61565,0.9991v37.05188z" fill="#807566" stroke-width="0"/><path d="M-6.18123,308.7157v-32.95167h492.32001v32.95167z" fill="#8bce39" stroke-width="0"/><path d="M-8.13877,308.7157v-13.30453h490.81092v13.30453z" fill="url(#color-2)" stroke-width="0"/><g><path d="M291.58686,373.29657l9.09965,-36.16014l55.99953,0.37413l-3.01785,52.24412l-37.99878,7.45925z" data-paper-data="{&quot;origPos&quot;:null,&quot;origRot&quot;:0}" fill="#534c42" stroke-width="0"/><path d="M298.26246,368.04795l8.16637,-32.45141l50.25595,0.33577l-2.70838,46.88573l-34.10145,6.69417z" data-paper-data="{&quot;origPos&quot;:null,&quot;origRot&quot;:0}" fill="url(#color-3)" stroke-width="NaN"/></g><g><path d="M333.50046,350.51422l17.97144,-24.92571l48.16827,11.96112l-17.23333,38.12603l-34.84501,-2.39454z" data-paper-data="{&quot;origPos&quot;:null,&quot;origRot&quot;:0}" fill="#534c42" stroke-width="0"/><path d="M340.49772,348.34645l16.12827,-22.36922l43.22791,10.73433l-15.46588,34.21564l-31.27116,-2.14891z" data-paper-data="{&quot;origPos&quot;:null,&quot;origRot&quot;:0}" fill="url(#color-4)" stroke-width="NaN"/></g><g><path d="M166.65153,383.49588l-22.30807,-13.73023l14.24929,-31.35114l34.76214,14.15045l-4.42545,23.1124z" data-paper-data="{&quot;origRot&quot;:0}" fill="#534c42" stroke-width="0"/><path d="M163.79211,378.21892l-19.28913,-12.32205l12.32086,-28.13558l30.05773,12.69916l-3.82649,20.74185z" data-paper-data="{&quot;origRot&quot;:0}" fill="url(#color-5)" stroke-width="NaN"/></g><g><path d="M29.04657,378.52509l-0.65787,-30.4996l48.39808,-10.22854l9.68894,42.16174l-31.02598,13.08147z" data-paper-data="{&quot;origRot&quot;:0}" fill="#534c42" stroke-width="0"/><path d="M33.39219,373.29254l-0.59039,-27.37144l43.43414,-9.17942l8.69512,37.83744l-27.84381,11.73975z" data-paper-data="{&quot;origRot&quot;:0}" fill="url(#color-6)" stroke-width="NaN"/></g><g stroke-width="0"><g><path d="M441.20287,245.10063v6h-403.9759v-6z" data-paper-data="{&quot;index&quot;:null}" fill="#b27f44"/><path d="M33.3796,241.43396v-9h403.97591v9z" fill="#dc9c54"/><path d="M33.3796,247.43396v-6h403.97591v6z" fill="#b27f44"/><path d="M437.04226,278.43396v-51h34.93976v51z" fill="#b27f44"/><path d="M-7.01799,279.43396v-51h43.93976v51z" fill="#b27f44"/><path d="M381.98202,232.34674v-158h12v158z" fill="#b27f44"/><path d="M241.98202,186.34674v-158h12v158z" fill="#b27f44"/><path d="M241.98202,29.34674v-158h12v158z" fill="#b27f44"/><path d="M381.98202,85.34674v-211h12v211z" fill="#b27f44"/><g fill="#b27f44"><path d="M236.41787,-124.68662c0,0 39.81906,-61.56156 85.58559,-61.56156c45.76652,0 76.57658,61.56156 76.57658,61.56156z"/><path d="M338.51999,232.67074v-78.07808h48.04805v78.07808z"/></g><path d="M309.99145,232.67074v-37.53754h75.07508v37.53754z" fill="#b27f44"/><path d="M327.82734,-3.89787v-15.01502h58.55856v15.01502z" fill="#b27f44"/><path d="M251.74627,59.66069v-15.01501h58.55856v15.01501z" fill="#b27f44"/><path d="M309.80933,195.80183v-7.50751h30.03003v7.50751z" fill="#dc9c54"/><path d="M338.50604,156.7628v-7.50751h43.37538v7.50751z" fill="#dc9c54"/><path d="M254.1278,44.84237v-4.33333h56v4.33333z" fill="#dc9c54"/><path d="M327.79447,-17.35328v-6.66667h55v6.66667z" fill="#dc9c54"/></g><g><path d="M-27.41245,229.39146v-15.01502h88.58859v15.01502z" fill="#b27f44"/><path d="M-27.35239,215.55663v-6.00601h88.60961v6.00601z" fill="#dc9c54"/></g><g><path d="M58.92087,170.05813v-15.01502h88.58859v15.01502z" fill="#b27f44"/><path d="M58.98094,156.2233v-6.00601h88.60961v6.00601z" fill="#dc9c54"/></g><g><path d="M120.25421,116.39147v-15.01502h88.58859v15.01502z" fill="#b27f44"/><path d="M120.31427,102.55663v-6.00601h88.60961v6.00601z" fill="#dc9c54"/></g><g><path d="M153.58754,63.7248v-15.01501h88.58859v15.01501z" fill="#b27f44"/><path d="M153.64761,49.88996v-6.00601h88.60961v6.00601z" fill="#dc9c54"/></g><g><path d="M110.92088,1.39146v-15.01502h88.58859v15.01502z" fill="#b27f44"/><path d="M110.98093,-12.44337v-6.00601h88.60961v6.00601z" fill="#dc9c54"/></g><g><path d="M50.58754,-61.27521v-15.01502h88.58859v15.01502z" fill="#b27f44"/><path d="M50.6476,-75.11004v-6.00601h88.60961v6.00601z" fill="#dc9c54"/></g></g><path d="M242.23817,233.825v-47.5h11.75v47.5z" fill="#dc9c54" stroke-width="0"/><g><path d="M262.73817,41.95c0,0 2.16661,-16.30737 1.89115,-24.7546c-0.1636,-5.0171 -1.39115,-22.9954 -1.39115,-22.9954c0,0 10.16483,-1.75 15.5,-1.75c6.32792,0 21.5,2.5 21.5,2.5c0,0 -5.75,14.35975 -5.75,21.75c0,7.6818 1.5,25.25 1.5,25.25c0,0 -11.51241,3.75 -15.75,3.75c-6.13064,0 -17.5,-3.75 -17.5,-3.75z" fill="#f0c696" stroke-width="0"/><text transform="translate(268.73817,22.07249) scale(0.18602,0.18602)" font-size="40" xml:space="preserve" fill="#f0c44f" fill-rule="nonzero" stroke="none" stroke-width="1" stroke-linecap="butt" stroke-linejoin="miter" stroke-miterlimit="10" stroke-dasharray="" stroke-dashoffset="0" font-family="Sans Serif" font-weight="normal" text-anchor="start" style="mix-blend-mode: normal"><tspan x="0" dy="0">wheat</tspan></text></g><g><path d="M340.48817,-24c0,0 2.16661,-16.30737 1.89115,-24.7546c-0.1636,-5.0171 -1.39115,-22.9954 -1.39115,-22.9954c0,0 10.16483,-1.75 15.5,-1.75c6.32792,0 21.5,2.5 21.5,2.5c0,0 -5.75,14.35975 -5.75,21.75c0,7.68181 1.5,25.25 1.5,25.25c0,0 -11.51241,3.75 -15.75,3.75c-6.13063,0 -17.5,-3.75 -17.5,-3.75z" fill="#f0c696" stroke-width="0"/><text transform="translate(346.48817,-43.87751) scale(0.18603,0.18603)" font-size="40" xml:space="preserve" fill="#f0c44f" fill-rule="nonzero" stroke="none" stroke-width="1" stroke-linecap="butt" stroke-linejoin="miter" stroke-miterlimit="10" stroke-dasharray="" stroke-dashoffset="0" font-family="Sans Serif" font-weight="normal" text-anchor="start" style="mix-blend-mode: normal"><tspan x="0" dy="0">wheat</tspan></text></g></g></g></svg>