<svg version="1.1" xmlns="http://www.w3.org/2000/svg" xmlns:xlink="http://www.w3.org/1999/xlink" width="504.89783" height="369.81727" viewBox="0,0,504.89783,369.81727"><defs><linearGradient x1="243.95495" y1="-2.07793" x2="243.95495" y2="372.90409" gradientUnits="userSpaceOnUse" id="color-1"><stop offset="0" stop-color="#b2e9ff"/><stop offset="1" stop-color="#c7f0ff"/></linearGradient><linearGradient x1="239.55109" y1="-4.90865" x2="239.55109" y2="159.09137" gradientUnits="userSpaceOnUse" id="color-2"><stop offset="0" stop-color="#9ae4ff"/><stop offset="1" stop-color="#9ae4ff" stop-opacity="0"/></linearGradient><linearGradient x1="101.30339" y1="191.24762" x2="101.30339" y2="362.01476" gradientUnits="userSpaceOnUse" id="color-3"><stop offset="0" stop-color="#95e3ff"/><stop offset="1" stop-color="#c0edff"/></linearGradient><linearGradient x1="325.36726" y1="148.88348" x2="325.36726" y2="333.263" gradientUnits="userSpaceOnUse" id="color-4"><stop offset="0" stop-color="#83deff"/><stop offset="1" stop-color="#afe8ff"/></linearGradient></defs><g transform="translate(12.44892,4.90863)"><g data-paper-data="{&quot;isPaintingLayer&quot;:true}" stroke="none" stroke-miterlimit="10" stroke-dasharray="" stroke-dashoffset="0" style="mix-blend-mode: normal"><g fill-rule="nonzero" stroke-width="0" stroke-linecap="butt" stroke-linejoin="miter"><path d="M-9.54506,-2.07793h496.90396c-0.11019,0.48613 -0.18496,0.98569 -0.22146,1.49585c-0.00598,0.25011 -0.01298,0.49322 -0.02581,0.72408c-0.64604,11.62481 0.43845,30.11007 0.63427,41.22757c0.04821,2.73718 1.89531,5.27012 1.90281,7.96717c0.10452,37.58736 0.18791,75.17549 0,112.76252c-0.04585,9.17148 -1.26966,18.39249 -1.87336,27.55688c-0.27447,4.16665 0.17952,9.56987 -0.02946,12.98892c-0.40611,6.64447 -1.8707,13.42052 -1.90281,20.12583c-0.07898,16.49084 -0.12598,32.98254 0,49.47309c0.05043,6.60058 2.29622,13.48309 2.53708,20.21623c0.33713,9.42443 0.71032,17.49943 1.99671,26.81919c1.84857,13.39269 2.14333,26.57507 2.05938,39.85143c-14.91862,-0.05554 -29.84001,0.17589 -44.75922,0.15651c-2.07461,-0.0027 -6.25184,-2.08548 -8.28401,-2.53708c-1.11921,-0.24872 -3.75558,0.04008 -4.08397,0c-5.74834,-0.70153 -11.37876,-2.17687 -17.10577,-3.03529c-16.33738,-2.44882 -32.00192,0.79818 -47.99883,3.12301c-0.96437,0.14015 -2.02507,0.33105 -3.14571,0.55969c-1.34221,-0.7568 -2.63555,-1.38166 -3.6636,-1.63867c-9.9585,-2.48963 -23.72318,-1.25584 -34.39741,1.41272c-2.23665,0.55916 -7.29166,4.52659 -9.02108,4.65271c-0.0068,0.0005 -0.0136,0.00099 -0.0204,0.00148c-2.85856,-0.36544 -5.91233,-0.26863 -8.62184,-0.46119c-12.99873,-0.92379 -26.44616,-1.12607 -39.99634,-1.03991c-3.52664,-1.09418 -7.43972,-2.23005 -10.80929,-2.30601c-19.64577,-0.44285 -38.29375,1.34556 -58.39036,0.63427c-5.70016,-0.20175 -9.45878,-3.83215 -15.11084,-0.65281c-0.00618,0.00348 -0.01236,0.00697 -0.01852,0.01047c-1.39057,-0.32735 -2.74305,-0.65989 -4.0403,-0.9869c-1.84288,-0.46455 -4.68385,-1.52396 -6.79793,-1.54211c-13.05304,-0.11205 -26.15861,-1.09839 -39.16054,0.06116c-3.18029,0.28363 -6.60862,1.38009 -9.88684,2.47592h-5.42347l-1.15046,-0.16435l-0.79652,-0.68273l-0.68495,-0.34247l-0.05573,-0.09753l-0.27864,-0.06966l-0.24922,-0.12462l-0.49498,-0.10999l-0.05697,-0.03418l-0.04349,0.01186l-1.64758,-0.36613l-0.42921,-0.1073l-0.05853,-0.03902l-0.37891,-0.13532l-0.1681,-0.29417l-2.1853,-0.54633l-2.12133,-0.75762l-0.30304,0.15152l-0.39033,-0.09758h-28.54217l-5,1.25l-0.03681,0.06442c-5.79667,-0.40621 -12.4239,-0.66028 -15.89411,-0.68015c-13.7423,-0.07868 -27.48517,-0.05722 -41.22757,0c-5.90849,0.0246 -11.90725,1.78337 -17.83597,1.90281c-3.16346,0.06373 -6.46292,-0.30015 -9.75808,-0.62586c-0.0529,-1.59783 -0.11961,-3.19402 -0.20283,-4.78814c-0.1148,-2.19904 -0.64487,-4.9399 -1.2542,-7.62933z" data-paper-data="{&quot;index&quot;:null}" fill="url(#color-1)"/><path d="M-12.44891,159.09137v-164h504v164z" fill="url(#color-2)"/><path d="M27.6852,277.41837c22.90254,-34.11705 49.46667,-86.27483 84.92808,-86.1706c37.06247,0.10141 61.59114,51.76439 82.94961,82.23303c20.44738,31.32072 55.477,88.53391 55.477,88.53391l-247.97756,-0.00001c-0.0457,-3.90079 -0.15048,-7.79578 -0.35317,-11.67842c-0.24314,-4.65747 -2.34907,-11.74535 -3.12552,-15.62762c-0.69738,-3.48691 -1.41309,-6.96129 -2.14695,-10.42591c9.5478,-15.19074 20.59342,-32.48154 30.24852,-46.86437z" fill="url(#color-3)"/><path d="M168.14657,362.07156c0,0 48.80779,-83.3117 74.53212,-120.14837c25.72431,-36.83665 55.56138,-91.43904 95.39194,-91.32649c41.62887,0.10949 69.1797,54.17762 93.1697,87.07504c13.09124,19.27627 36.14891,57.99906 53.55757,87.73583c-0.15074,0.89398 -0.29486,1.78815 -0.43129,2.68248c-1.54764,10.14491 -2.21468,20.53671 -3.29418,30.74293c-0.21379,2.0213 -0.44581,4.04685 -0.68845,6.07566z" fill="url(#color-4)"/></g><g stroke-width="1"><path d="M165.97555,126.8757h148.04929c9.2745,0 16.7932,7.51876 16.7932,16.79326v72.66213c0,9.2745 -7.5187,16.79321 -16.7932,16.79321h-148.04929c-9.27483,0 -16.79359,-7.51872 -16.79359,-16.79321v-72.66213c0,-9.2745 7.51878,-16.79326 16.79359,-16.79326z" fill="#ffffff" fill-rule="evenodd" stroke-linecap="round" stroke-linejoin="round"/><g fill-rule="nonzero" stroke-linecap="butt" stroke-linejoin="miter"><path d="M267.0125,207.95174c0,5.39119 -2.52693,9.94582 -7.76133,10.87534h-39.52863c-5.23439,-0.9295 -7.76133,-5.48415 -7.76133,-10.87534c0,-4.18282 2.52693,-7.99384 6.13687,-9.38812c-0.27074,-0.55771 0.72198,-0.55771 0.72198,-1.20837c0,-2.04493 0.45123,-4.27578 2.43669,-4.27578c0.27074,0 0.45123,0.09296 0.63173,0.09296c-0.361,-0.74361 0.63173,-0.83656 0.63173,-1.67313c0,-3.2533 1.44397,-6.41367 4.51241,-6.41367c0.90247,0 1.53421,0.18589 2.43669,0.55771v0c0,-5.39119 4.24166,-9.75991 9.3858,-9.66697c5.23439,0 9.3858,4.27578 9.47603,9.57401c3.42942,-1.39428 7.49059,-0.74361 10.28827,2.13789c2.88793,2.8815 2.52693,7.34317 0.99272,10.96828c3.70016,1.30132 7.31008,5.01939 7.40034,9.29516z" data-paper-data="{&quot;origPos&quot;:null}" fill="#00d655"/><path d="M266.92225,205.88435c0,5.39119 -4.24166,9.66697 -9.47603,9.66697h-36.0992c-5.23439,0 -9.47603,-4.27578 -9.3858,-9.75991c0,-4.18282 2.52693,-7.62204 6.13687,-9.0163c-0.27074,-0.55771 -0.45123,-1.11541 -0.45123,-1.76608c0,-2.04493 1.62446,-3.71806 3.60992,-3.71806c0.27074,0 0.45123,0.09296 0.63173,0.09296c-0.27074,-0.65065 -0.45123,-1.39428 -0.45123,-2.23084c0,-3.16035 2.52693,-5.763 5.59538,-5.763c0.90247,0 1.53421,0.18589 2.43669,0.55771v0c0,-5.39119 4.24166,-9.75991 9.3858,-9.75991c5.23439,0 9.3858,4.27578 9.47603,9.57401c3.42942,-1.39428 7.49059,-0.74361 10.28827,2.13789c2.79768,2.8815 3.42942,7.25022 1.89521,10.87534c3.70016,1.30132 6.40761,4.83348 6.40761,9.10925z" data-paper-data="{&quot;origPos&quot;:null}" fill="#00ff66"/><path d="M257.44612,215.55131h-11.82249l-23.82547,-24.44626c-0.27074,-0.65065 -0.361,-1.20837 -0.361,-1.95198c0,-3.16035 2.52693,-5.763 5.59538,-5.763c0.90247,0 1.53421,0.18589 2.43669,0.55771c0,-5.39119 4.24166,-9.75991 9.3858,-9.85286c5.23439,0 9.3858,4.27578 9.47603,9.57401c3.42942,-1.39428 7.49059,-0.74361 10.28827,2.13789c2.79768,2.97445 3.42942,7.25022 1.89521,10.87534c3.70016,1.39428 6.40761,4.92643 6.40761,9.20221c0,5.39119 -4.24166,9.66697 -9.47603,9.66697z" data-paper-data="{&quot;origPos&quot;:null}" fill="#00ef60"/><g data-paper-data="{&quot;origPos&quot;:null}" fill="none" font-family="sans-serif" font-weight="normal" font-size="12" text-anchor="start"/><g data-paper-data="{&quot;origPos&quot;:null}" fill="none" font-family="sans-serif" font-weight="normal" font-size="12" text-anchor="start"/></g><path d="M249.78024,199.34783l-12.27858,12.27858c-0.49917,0.49906 -1.15327,0.74852 -1.80747,0.74852c-0.65421,0 -1.3084,-0.24946 -1.80745,-0.74852l-6.54179,-6.54179c-0.99825,-0.99811 -0.99811,-2.61657 0,-3.61481c0.99811,-0.99824 2.61655,-0.99824 3.61481,0l4.73445,4.73458l10.47125,-10.47138c0.99811,-0.99824 2.61655,-0.99824 3.61481,0c0.99825,0.99824 0.99825,2.6167 0,3.61481z" fill="#00d655" fill-rule="nonzero" stroke-linecap="butt" stroke-linejoin="miter"/><path d="M249.9119,196.7144l-12.27858,12.27858c-0.49917,0.49906 -1.15327,0.74852 -1.80747,0.74852c-0.65421,0 -1.3084,-0.24946 -1.80745,-0.74852l-6.54179,-6.54179c-0.99825,-0.99811 -0.99811,-2.61657 0,-3.61481c0.99811,-0.99824 2.61655,-0.99824 3.61481,0l4.73445,4.73458l10.47125,-10.47138c0.99811,-0.99824 2.61655,-0.99824 3.61481,0c0.99825,0.99824 0.99825,2.6167 0,3.61481z" fill="#ffffff" fill-rule="nonzero" stroke-linecap="butt" stroke-linejoin="miter"/><g fill-opacity="0.93614" fill="#000000" fill-rule="evenodd" stroke-linecap="round" stroke-linejoin="round"><path d="M185.00853,155.12265c0,0.64754 -0.44033,1.11377 -1.21738,1.63179c-1.16557,0.80294 -2.66786,1.29507 -4.50686,1.29507c-4.55866,0 -9.11733,-3.78161 -9.11733,-9.24683c0,-5.46522 4.55866,-9.24683 9.11733,-9.24683c1.839,0 3.3413,0.49213 4.50686,1.29507c0.77704,0.51802 1.21738,0.98425 1.21738,1.63179c0,0.80294 -0.62163,1.26917 -1.29507,1.26917c-0.54394,0 -0.90655,-0.25902 -1.24327,-0.51802c-0.56983,-0.44033 -1.7095,-1.01017 -3.15998,-1.01017c-3.23769,0 -6.21636,2.79736 -6.21636,6.57899c0,3.78161 2.97867,6.57899 6.21636,6.57899c1.45048,0 2.59015,-0.56983 3.15998,-1.01017c0.33673,-0.25902 0.69934,-0.51802 1.24327,-0.51802c0.67344,0 1.29507,0.46623 1.29507,1.26917z"/><path d="M200.1091,151.15973c0,4.63636 -3.85932,6.8898 -6.83799,6.8898c-2.97867,0 -6.8121,-2.25342 -6.8121,-6.8898c0,-4.61047 3.83342,-6.9157 6.8121,-6.9157c2.97867,0 6.83799,2.30523 6.83799,6.9157zM189.17866,151.15973c0,2.92686 2.09802,4.50686 4.09244,4.50686c2.02032,0 4.11834,-1.57998 4.11834,-4.50686c0,-2.95277 -2.09802,-4.53276 -4.11834,-4.53276c-1.99442,0 -4.09244,1.57998 -4.09244,4.53276z"/><path d="M215.05427,150.25315v6.37176c0,0.75115 -0.59573,1.37277 -1.34688,1.37277c-0.75115,0 -1.37277,-0.62163 -1.37277,-1.37277v-6.37176c0,-2.59015 -1.47638,-3.62621 -3.15998,-3.62621c-2.48655,0 -3.5744,2.22753 -3.72982,3.3413v6.65668c0,0.75115 -0.62163,1.37277 -1.37277,1.37277c-0.75115,0 -1.37277,-0.62163 -1.37277,-1.37277v-10.90454c0,-0.77704 0.62163,-1.39869 1.37277,-1.39869c0.75115,0 1.37277,0.62163 1.37277,1.39869v1.7095c0.1295,-0.90655 1.6836,-3.15998 4.63636,-3.15998c2.51244,0 4.97309,1.57998 4.97309,5.98324z"/><path d="M230.51747,150.25315v6.37176c0,0.75115 -0.59573,1.37277 -1.34688,1.37277c-0.75115,0 -1.37277,-0.62163 -1.37277,-1.37277v-6.37176c0,-2.59015 -1.47638,-3.62621 -3.15998,-3.62621c-2.48655,0 -3.5744,2.22753 -3.72982,3.3413v6.65668c0,0.75115 -0.62163,1.37277 -1.37277,1.37277c-0.75115,0 -1.37277,-0.62163 -1.37277,-1.37277v-10.90454c0,-0.77704 0.62163,-1.39869 1.37277,-1.39869c0.75115,0 1.37277,0.62163 1.37277,1.39869v1.7095c0.1295,-0.90655 1.6836,-3.15998 4.63636,-3.15998c2.51244,0 4.97309,1.57998 4.97309,5.98324z"/><path d="M246.31737,150.69349c0,1.06196 -0.59573,1.47638 -1.7095,1.47638l-8.677,-0.0259c0.28492,2.40884 2.17573,3.60032 4.24784,3.60032c1.06196,0 1.78721,-0.25902 2.59015,-0.75115c0.44033,-0.23311 0.72525,-0.41442 1.08786,-0.41442c0.59573,0 0.95836,0.41442 0.95836,0.98425c0,0.33673 -0.1295,0.69934 -0.69934,1.16557c-0.98425,0.80294 -2.40884,1.26917 -4.04063,1.26917c-3.36719,0 -6.96751,-2.14982 -6.96751,-6.83799c0,-4.66228 3.75572,-6.9157 6.70849,-6.9157c2.95277,0 6.50128,2.33113 6.50128,6.44947zM235.93087,150.17545h7.71864c-0.23311,-2.46065 -2.09802,-3.54851 -3.83342,-3.54851c-1.7095,0 -3.65211,1.08786 -3.88522,3.54851z"/><path d="M260.01927,154.99314c0,0.62163 -0.44033,0.95836 -0.72525,1.24327c-1.11377,1.16557 -2.56425,1.7613 -4.35145,1.7613c-3.08228,0 -6.8121,-2.25342 -6.8121,-6.86391c0,-4.63636 3.72982,-6.8898 6.8121,-6.8898c1.78721,0 3.23769,0.59573 4.35145,1.7613c0.28492,0.28492 0.72525,0.62163 0.72525,1.24327c0,0.64754 -0.54394,1.06196 -1.11377,1.06196c-0.51802,0 -0.90655,-0.28492 -1.11377,-0.49213c-0.69934,-0.82885 -1.78721,-1.19146 -2.74557,-1.19146c-2.17573,0 -4.19605,1.55409 -4.19605,4.50686c0,2.92686 2.02032,4.48096 4.19605,4.48096c0.95836,0 2.04621,-0.36262 2.74557,-1.19146c0.20721,-0.20721 0.59573,-0.49213 1.11377,-0.49213c0.56983,0 1.11377,0.41442 1.11377,1.06196z"/><path d="M269.42151,156.46953c0,1.06196 -1.21738,1.52819 -2.66786,1.52819c-1.55409,0 -3.08228,-0.54394 -3.08228,-3.52261v-7.87406h-0.98425c-0.67344,0 -1.11377,-0.44033 -1.11377,-1.11377c0,-0.64754 0.44033,-1.08786 1.11377,-1.08786h0.98425v-2.02032c0,-0.72525 0.62163,-1.34688 1.34688,-1.34688c0.75115,0 1.37277,0.62163 1.37277,1.34688v2.02032h1.89081c0.67344,0 1.13967,0.44033 1.13967,1.08786c0,0.67344 -0.46623,1.11377 -1.13967,1.11377h-1.89081v7.89995c0,0.77704 0.31081,1.13967 0.90655,1.13967c0.33673,0 0.72525,-0.1036 1.01017,-0.1295c0.64754,-0.1036 1.11377,0.31081 1.11377,0.95836z"/><path d="M284.18537,150.69349c0,1.06196 -0.59573,1.47638 -1.7095,1.47638l-8.677,-0.0259c0.28492,2.40884 2.17573,3.60032 4.24784,3.60032c1.06196,0 1.78721,-0.25902 2.59015,-0.75115c0.44033,-0.23311 0.72525,-0.41442 1.08786,-0.41442c0.59573,0 0.95836,0.41442 0.95836,0.98425c0,0.33673 -0.1295,0.69934 -0.69934,1.16557c-0.98425,0.80294 -2.40884,1.26917 -4.04063,1.26917c-3.36719,0 -6.96751,-2.14982 -6.96751,-6.83799c0,-4.66228 3.75572,-6.9157 6.70849,-6.9157c2.95277,0 6.50128,2.33113 6.50128,6.44947zM273.79887,150.17545h7.71864c-0.23311,-2.46065 -2.09802,-3.54851 -3.83342,-3.54851c-1.7095,0 -3.65211,1.08786 -3.88522,3.54851z"/><path d="M299.33775,140.7473v15.90353c0,0.75115 -0.64754,1.37277 -1.39869,1.37277c-0.75115,0 -1.37277,-0.62163 -1.37277,-1.37277v-1.39869c-0.18131,1.16557 -1.78721,2.79736 -4.24784,2.79736c-2.87507,0 -6.31997,-2.22753 -6.31997,-6.9157c0,-4.61047 3.4708,-6.8898 6.31997,-6.8898c1.91671,0 3.5744,0.98425 4.24784,2.48655v-1.03606c0,-0.07771 0,-0.18131 0.0259,-0.25902v-4.68817c0,-0.75115 0.62163,-1.37277 1.34688,-1.37277c0.75115,0 1.39869,0.62163 1.39869,1.37277zM296.69579,151.1338c0,-3.23769 -2.17573,-4.53276 -3.93703,-4.53276c-1.89081,0 -4.01474,1.47638 -4.01474,4.53276c0,3.08228 2.12392,4.55866 4.01474,4.55866c1.7613,0 3.93703,-1.34688 3.93703,-4.55866z"/><path d="M305.58001,141.18765v9.92027c0,0.82885 -0.69934,1.52819 -1.50229,1.52819c-0.85475,0 -1.55409,-0.69934 -1.55409,-1.52819v-9.92027c0,-0.82885 0.69934,-1.52819 1.55409,-1.52819c0.80294,0 1.50229,0.69934 1.50229,1.52819zM302.44593,156.3141c0,-0.88065 0.72525,-1.6059 1.63179,-1.6059c0.85475,0 1.57998,0.72525 1.57998,1.6059c0,0.90655 -0.72525,1.63179 -1.57998,1.63179c-0.90655,0 -1.63179,-0.72525 -1.63179,-1.63179z"/></g></g></g></g></svg>