<svg version="1.1" xmlns="http://www.w3.org/2000/svg" xmlns:xlink="http://www.w3.org/1999/xlink" width="154.65465" height="142.64264" viewBox="0,0,154.65465,142.64264"><g transform="translate(-334.40566,36.76607)"><g data-paper-data="{&quot;isPaintingLayer&quot;:true}" fill-rule="nonzero" stroke-linecap="butt" stroke-linejoin="miter" stroke-miterlimit="10" stroke-dasharray="" stroke-dashoffset="0" style="mix-blend-mode: normal"><path d="M334.40566,105.87657v-142.64264h154.65465v142.64264z" fill="none" stroke="none" stroke-width="0"/><g><path d="M373.16822,12.49504c0,-0.26415 0.51307,-3.7788 2.47918,-5.57286c1.66857,-1.52255 4.80332,-1.38623 5.14512,-1.38623c6.20654,0 41.58464,0 51.28837,0c0.2267,0 3.06513,-0.30391 4.51892,1.09901c1.93248,1.86485 2.56882,5.59515 2.56882,5.86738c0,4.32875 0,29.25774 0,39.03683c0,0.363 0.3519,4.00759 -1.38687,5.5819c-1.78816,1.61903 -5.6722,1.16374 -5.95818,1.16374c-5.47057,0 -41.81267,0 -51.93165,0c-0.31504,0 -3.79313,0.4925 -5.38356,-1.04627c-1.47567,-1.42773 -1.08283,-4.88237 -1.08283,-5.18474c0,0 -0.25732,-34.71904 -0.25732,-39.55876z" fill="#ffffff" stroke="#efefef" stroke-width="4"/><text transform="translate(386.95083,41.22322) scale(0.67306,0.67306)" font-size="40" xml:space="preserve" fill="#000000" fill-rule="nonzero" stroke="none" stroke-width="1" stroke-linecap="butt" stroke-linejoin="miter" stroke-miterlimit="10" stroke-dasharray="" stroke-dashoffset="0" font-family="Sans Serif" font-weight="normal" text-anchor="start" style="mix-blend-mode: normal"><tspan x="0" dy="0">Yes</tspan></text></g></g></g></svg>