<svg version="1.1" xmlns="http://www.w3.org/2000/svg" xmlns:xlink="http://www.w3.org/1999/xlink" width="67" height="173.64167" viewBox="0,0,67,173.64167"><g transform="translate(-205.71705,-93.15833)"><g data-paper-data="{&quot;isPaintingLayer&quot;:true}" fill-rule="nonzero" stroke="none" stroke-width="0" stroke-linecap="butt" stroke-linejoin="miter" stroke-miterlimit="10" stroke-dasharray="" stroke-dashoffset="0" style="mix-blend-mode: normal"><path d="M205.71706,104.49167c0,-6.25923 5.07411,-11.33334 11.33334,-11.33334c6.25922,0 11.33333,5.07411 11.33333,11.33334c0,6.25923 -5.07411,11.33334 -11.33333,11.33334c-6.25922,0 -11.33334,-5.07411 -11.33334,-11.33334z" fill="#e35b5b"/><path d="M224.38373,147.49167v-34l48.33333,18z" fill="#e35b5b"/><path d="M213.84206,266.80001v-154.33333h11v154.33334z" fill="#f1f1f1"/><path d="M210.84206,265.9362v-153.46952h4v153.46953z" fill="#e4dede"/><path d="M223.71706,149.15834v-34l48.33334,18z" fill="#fb6464"/><path d="M206.38372,105.82501c0,-5.89104 4.77563,-10.66667 10.66667,-10.66667c5.89103,0 10.66666,4.77564 10.66666,10.66667c0,5.89104 -4.77563,10.66666 -10.66666,10.66666c-5.89103,0 -10.66667,-4.77563 -10.66667,-10.66666z" fill="#fb6464"/></g></g></svg>