<svg version="1.1" xmlns="http://www.w3.org/2000/svg" xmlns:xlink="http://www.w3.org/1999/xlink" width="27" height="27" viewBox="0,0,27,27"><g transform="translate(-226.5,-199.50001)"><g data-paper-data="{&quot;isPaintingLayer&quot;:true}" fill="#ffffff" fill-rule="nonzero" stroke="#efefef" stroke-width="4" stroke-linecap="butt" stroke-linejoin="miter" stroke-miterlimit="10" stroke-dasharray="" stroke-dashoffset="0" style="mix-blend-mode: normal"><path d="M228.98936,224.15152c0,0 -0.48936,-0.21368 -0.48936,-0.87121c0,-2.42053 0,-17.15251 0,-20.90909c0,-0.55568 0.48936,-0.60985 0.48936,-0.60985c0,0 0.6197,-0.26136 2.32447,-0.26136c4.81074,0 14.36529,0 17.12766,0c1.46519,0 2.07979,0.43561 2.07979,0.43561c0,0 0.97872,-0.02025 0.97872,0.69697c0,4.17587 0,18.58447 0,20.82197c0,0.57212 -0.48936,0.87121 -0.48936,0.87121c0,0 -0.83362,0.17424 -2.81383,0.17424c-5.01886,0 -14.25956,0 -16.88298,0c-1.36592,0 -2.32447,-0.34848 -2.32447,-0.34848z"/></g></g></svg>