<svg version="1.1" xmlns="http://www.w3.org/2000/svg" xmlns:xlink="http://www.w3.org/1999/xlink" width="482.27755" height="162.508" viewBox="0,0,482.27755,162.508"><defs><linearGradient x1="120.7094" y1="388.28995" x2="104.42385" y2="399.01279" gradientUnits="userSpaceOnUse" id="color-1"><stop offset="0" stop-color="#8e8e8e"/><stop offset="1" stop-color="#818181"/></linearGradient><linearGradient x1="-1.11505" y1="315.13614" x2="477.24087" y2="315.13614" gradientUnits="userSpaceOnUse" id="color-2"><stop offset="0" stop-color="#7c7262"/><stop offset="1" stop-color="#9a8a7e"/></linearGradient><linearGradient x1="-1.40239" y1="379.06453" x2="477.57251" y2="379.06453" gradientUnits="userSpaceOnUse" id="color-3"><stop offset="0" stop-color="#786e5f"/><stop offset="1" stop-color="#887c6d"/></linearGradient><linearGradient x1="-0.87222" y1="401.0957" x2="476.43675" y2="401.0957" gradientUnits="userSpaceOnUse" id="color-4"><stop offset="0" stop-color="#6f6558"/><stop offset="1" stop-color="#807566"/></linearGradient><linearGradient x1="-0.22876" y1="274.22185" x2="480.13877" y2="274.22185" gradientUnits="userSpaceOnUse" id="color-5"><stop offset="0" stop-color="#949494"/><stop offset="1" stop-color="#8bce39"/></linearGradient><linearGradient x1="-2.13878" y1="284.04542" x2="476.7563" y2="284.04542" gradientUnits="userSpaceOnUse" id="color-6"><stop offset="0" stop-color="#b5b5b5"/><stop offset="1" stop-color="#8bce39"/></linearGradient><linearGradient x1="344.71466" y1="312.99791" x2="311.92459" y2="368.26424" gradientUnits="userSpaceOnUse" id="color-7"><stop offset="0" stop-color="#8e8e8e"/><stop offset="1" stop-color="#818181"/></linearGradient><linearGradient x1="389.43654" y1="313.09785" x2="346.06797" y2="347.08394" gradientUnits="userSpaceOnUse" id="color-8"><stop offset="0" stop-color="#8e8e8e"/><stop offset="1" stop-color="#818181"/></linearGradient><linearGradient x1="153.48263" y1="323.81476" x2="180.90745" y2="355.85914" gradientUnits="userSpaceOnUse" id="color-9"><stop offset="0" stop-color="#8e8e8e"/><stop offset="1" stop-color="#818181"/></linearGradient><linearGradient x1="71.19717" y1="316.56511" x2="55.59739" y2="366.88267" gradientUnits="userSpaceOnUse" id="color-10"><stop offset="0" stop-color="#8e8e8e"/><stop offset="1" stop-color="#818181"/></linearGradient></defs><g transform="translate(2.13878,-257.74601)"><g data-paper-data="{&quot;isPaintingLayer&quot;:true}" fill-rule="nonzero" stroke="none" stroke-linecap="butt" stroke-linejoin="miter" stroke-miterlimit="10" stroke-dasharray="" stroke-dashoffset="0" style="mix-blend-mode: normal"><g><path d="M99.09759,394.58572l6.58466,-7.86422l17.64866,3.77381l-6.31422,12.029l-12.76707,-0.75551z" data-paper-data="{&quot;origPos&quot;:null,&quot;origRot&quot;:0}" fill="#534c42" stroke-width="0"/><path d="M101.40685,393.72632l5.90934,-7.05764l15.83856,3.38678l-5.66666,10.79525l-11.45769,-0.67802z" data-paper-data="{&quot;origPos&quot;:null,&quot;origRot&quot;:0}" fill="url(#color-1)" stroke-width="NaN"/></g><path d="M-1.11505,353.67134v-74.52655c0,0 48.46576,7.45265 86.06402,7.45265c39.63923,0 141.5425,-7.67744 226.43115,-9.4622c92.05416,-1.93542 165.86075,2.00956 165.86075,2.00956v74.52655z" fill="url(#color-2)" stroke-width="0"/><path d="M-1.40239,417.59973v-74.52655c0,0 48.5285,7.45265 86.17541,7.45265c39.69054,0 141.72566,-7.67744 226.72411,-9.4622c92.17329,-1.93542 166.07538,2.00956 166.07538,2.00956v74.52655z" fill="url(#color-3)" stroke-width="0"/><path d="M-0.87222,420.254v-37.05188c0,0 48.35969,3.70519 85.87567,3.70519c39.55249,0 141.2327,-3.81693 225.93555,-4.70428c91.85269,-0.96221 165.49775,0.9991 165.49775,0.9991v37.05188z" fill="url(#color-4)" stroke-width="0"/><path d="M-0.22876,290.69768v-32.95167h480.36753v32.95167z" fill="url(#color-5)" stroke-width="0"/><path d="M-2.13878,290.69768v-13.30453h478.89508v13.30453z" fill="url(#color-6)" stroke-width="0"/><g><path d="M290.31014,355.27855l8.87873,-36.16014l54.63998,0.37413l-2.94458,52.24412l-37.07625,7.45925z" data-paper-data="{&quot;origPos&quot;:null,&quot;origRot&quot;:0}" fill="#534c42" stroke-width="0"/><path d="M296.82369,350.02993l7.96811,-32.45141l49.03584,0.33577l-2.64263,46.88573l-33.27354,6.69417z" data-paper-data="{&quot;origPos&quot;:null,&quot;origRot&quot;:0}" fill="url(#color-7)" stroke-width="NaN"/></g><g><path d="M331.20618,332.4962l17.53513,-24.92571l46.99885,11.96112l-16.81494,38.12603l-33.99905,-2.39454z" data-paper-data="{&quot;origPos&quot;:null,&quot;origRot&quot;:0}" fill="#534c42" stroke-width="0"/><path d="M338.03355,330.32843l15.73671,-22.36922l42.17843,10.73433l-15.0904,34.21564l-30.51196,-2.14891z" data-paper-data="{&quot;origPos&quot;:null,&quot;origRot&quot;:0}" fill="url(#color-8)" stroke-width="NaN"/></g><g><path d="M168.40798,365.47786l-21.76648,-13.73023l13.90335,-31.35114l33.91819,14.15045l-4.31801,23.1124z" data-paper-data="{&quot;origRot&quot;:0}" fill="#534c42" stroke-width="0"/><path d="M165.61798,360.2009l-18.82083,-12.32205l12.02174,-28.13558l29.32799,12.69916l-3.73359,20.74185z" data-paper-data="{&quot;origRot&quot;:0}" fill="url(#color-9)" stroke-width="NaN"/></g><g><path d="M34.14378,360.50707l-0.6419,-30.4996l47.22308,-10.22854l9.45371,42.16174l-30.27274,13.08147z" data-paper-data="{&quot;origRot&quot;:0}" fill="#534c42" stroke-width="0"/><path d="M38.3839,355.27452l-0.57606,-27.37144l42.37965,-9.17942l8.48402,37.83744l-27.16782,11.73975z" data-paper-data="{&quot;origRot&quot;:0}" fill="url(#color-10)" stroke-width="NaN"/></g></g></g></svg>