<svg version="1.1" xmlns="http://www.w3.org/2000/svg" xmlns:xlink="http://www.w3.org/1999/xlink" width="649.18227" height="565.38324" viewBox="0,0,649.18227,565.38324"><defs><linearGradient x1="316.49985" y1="-59.07791" x2="316.49985" y2="315.90411" gradientUnits="userSpaceOnUse" id="color-1"><stop offset="0" stop-color="#b2e9ff"/><stop offset="1" stop-color="#c7f0ff"/></linearGradient><linearGradient x1="316.21776" y1="-61.90864" x2="316.21776" y2="102.0914" gradientUnits="userSpaceOnUse" id="color-2"><stop offset="0" stop-color="#9ae4ff"/><stop offset="1" stop-color="#9ae4ff" stop-opacity="0"/></linearGradient><linearGradient x1="178.3034" y1="134.24764" x2="178.3034" y2="305.01477" gradientUnits="userSpaceOnUse" id="color-3"><stop offset="0" stop-color="#95e3ff"/><stop offset="1" stop-color="#c0edff"/></linearGradient><linearGradient x1="402.36727" y1="92.21682" x2="402.36727" y2="276.59634" gradientUnits="userSpaceOnUse" id="color-4"><stop offset="0" stop-color="#83deff"/><stop offset="1" stop-color="#afe8ff"/></linearGradient><linearGradient x1="398.02465" y1="42.08597" x2="424.42037" y2="42.08597" gradientUnits="userSpaceOnUse" id="color-5"><stop offset="0" stop-color="#59b5e3"/><stop offset="1" stop-color="#7fd9ff"/></linearGradient><linearGradient x1="187.10206" y1="342.09116" x2="170.91802" y2="352.81402" gradientUnits="userSpaceOnUse" id="color-6"><stop offset="0" stop-color="#8e8e8e"/><stop offset="1" stop-color="#818181"/></linearGradient><linearGradient x1="409.711" y1="266.79913" x2="377.12532" y2="322.06543" gradientUnits="userSpaceOnUse" id="color-7"><stop offset="0" stop-color="#8e8e8e"/><stop offset="1" stop-color="#818181"/></linearGradient><linearGradient x1="454.15411" y1="266.89905" x2="411.05587" y2="300.88514" gradientUnits="userSpaceOnUse" id="color-8"><stop offset="0" stop-color="#8e8e8e"/><stop offset="1" stop-color="#818181"/></linearGradient><linearGradient x1="219.671" y1="277.61596" x2="246.92487" y2="309.66036" gradientUnits="userSpaceOnUse" id="color-9"><stop offset="0" stop-color="#8e8e8e"/><stop offset="1" stop-color="#818181"/></linearGradient><linearGradient x1="137.89846" y1="270.36632" x2="122.39592" y2="320.6839" gradientUnits="userSpaceOnUse" id="color-10"><stop offset="0" stop-color="#8e8e8e"/><stop offset="1" stop-color="#818181"/></linearGradient><linearGradient x1="300.84281" y1="113.89127" x2="300.84281" y2="145.46983" gradientUnits="userSpaceOnUse" id="color-11"><stop offset="0" stop-color="#000000"/><stop offset="1" stop-color="#454545"/></linearGradient><linearGradient x1="300.51038" y1="123.63474" x2="300.51038" y2="135.63108" gradientUnits="userSpaceOnUse" id="color-12"><stop offset="0" stop-color="#0f0f0f"/><stop offset="1" stop-color="#353535"/></linearGradient><linearGradient x1="375.18181" y1="144.2529" x2="365.85085" y2="174.4214" gradientUnits="userSpaceOnUse" id="color-13"><stop offset="0" stop-color="#ff0000"/><stop offset="1" stop-color="#a60202"/></linearGradient><linearGradient x1="371.8488" y1="152.77292" x2="368.30408" y2="164.23359" gradientUnits="userSpaceOnUse" id="color-14"><stop offset="0" stop-color="#0f0f0f"/><stop offset="1" stop-color="#353535"/></linearGradient><radialGradient cx="208.70338" cy="125.13414" r="27" gradientUnits="userSpaceOnUse" id="color-15"><stop offset="0" stop-color="#ffff9d"/><stop offset="1" stop-color="#ffff9d" stop-opacity="0"/></radialGradient><linearGradient x1="199.4119" y1="117.32081" x2="217.12112" y2="135.56883" gradientUnits="userSpaceOnUse" id="color-16"><stop offset="0" stop-color="#e7b215"/><stop offset="1" stop-color="#b07e00"/></linearGradient><radialGradient cx="203.28143" cy="119.45438" r="14.25815" gradientUnits="userSpaceOnUse" id="color-17"><stop offset="0" stop-color="#fffd00"/><stop offset="1" stop-color="#ffcf19"/></radialGradient><linearGradient x1="208.26158" y1="119.58308" x2="208.26158" y2="132.82752" gradientUnits="userSpaceOnUse" id="color-18"><stop offset="0" stop-color="#e2ae13"/><stop offset="1" stop-color="#b28001"/></linearGradient><radialGradient cx="506.24383" cy="176.17945" r="29.5" gradientUnits="userSpaceOnUse" id="color-19"><stop offset="0" stop-color="#ffff9d"/><stop offset="1" stop-color="#ffff9d" stop-opacity="0"/></radialGradient><linearGradient x1="496.09203" y1="167.38045" x2="515.44098" y2="187.3181" gradientUnits="userSpaceOnUse" id="color-20"><stop offset="0" stop-color="#e7b215"/><stop offset="1" stop-color="#b07e00"/></linearGradient><radialGradient cx="500.58202" cy="169.71155" r="15.57835" gradientUnits="userSpaceOnUse" id="color-21"><stop offset="0" stop-color="#fffd00"/><stop offset="1" stop-color="#ffcf19"/></radialGradient><linearGradient x1="505.76112" y1="169.85219" x2="505.76112" y2="184.32295" gradientUnits="userSpaceOnUse" id="color-22"><stop offset="0" stop-color="#e2ae13"/><stop offset="1" stop-color="#b28001"/></linearGradient></defs><g transform="translate(64.72049,61.90861)"><g data-paper-data="{&quot;isPaintingLayer&quot;:true}" stroke-dasharray="" stroke-dashoffset="0" style="mix-blend-mode: normal"><path d="M58.45496,-59.07791h505.8127c-0.11217,0.48613 -0.18828,0.98569 -0.22543,1.49585c-0.00609,0.25011 -0.01321,0.49322 -0.02627,0.72408c-0.65762,11.62481 0.44631,30.11007 0.64564,41.22757c0.04907,2.73718 1.92929,5.27012 1.93692,7.96717c0.10639,37.58736 0.19128,75.17549 0,112.76252c-0.04667,9.17148 -1.29242,18.39249 -1.90695,27.55688c-0.27939,4.16665 0.18274,9.56987 -0.02999,12.98892c-0.41339,6.64447 -1.90424,13.42052 -1.93692,20.12583c-0.0804,16.49084 -0.12824,32.98254 0,49.47309c0.05133,6.60058 2.33739,13.48309 2.58257,20.21623c0.34317,9.42443 0.72305,17.49943 2.03251,26.81919c1.88171,13.39269 2.18176,26.57507 2.0963,39.85143c-15.18609,-0.05554 -30.375,0.17589 -45.56169,0.15651c-2.1118,-0.0027 -6.36393,-2.08548 -8.43253,-2.53708c-1.13928,-0.24872 -3.82291,0.04008 -4.15719,0c-5.8514,-0.70153 -11.58276,-2.17687 -17.41245,-3.03529c-16.63028,-2.44882 -32.57567,0.79818 -48.85938,3.12301c-0.98166,0.14015 -2.06138,0.33105 -3.20211,0.55969c-1.36627,-0.7568 -2.6828,-1.38166 -3.72928,-1.63867c-10.13704,-2.48963 -24.1485,-1.25584 -35.0141,1.41272c-2.27675,0.55916 -7.42239,4.52659 -9.18281,4.65271c-0.00692,0.0005 -0.01384,0.00099 -0.02077,0.00148c-2.90981,-0.36544 -6.01833,-0.26863 -8.77642,-0.46119c-13.23178,-0.92379 -26.9203,-1.12607 -40.71341,-1.03991c-3.58987,-1.09418 -7.5731,-2.23005 -11.00308,-2.30601c-19.99799,-0.44285 -38.9803,1.34556 -59.43721,0.63427c-5.80236,-0.20175 -9.62836,-3.83215 -15.38175,-0.65281c-0.00629,0.00348 -0.01258,0.00697 -0.01885,0.01047c-1.4155,-0.32735 -2.79223,-0.65989 -4.11274,-0.9869c-1.87592,-0.46455 -4.76782,-1.52396 -6.91981,-1.54211c-13.28706,-0.11205 -26.62759,-1.09839 -39.86263,0.06116c-3.23731,0.28363 -6.7271,1.38009 -10.0641,2.47592h-5.5207l-1.17109,-0.16435l-0.8108,-0.68273l-0.69723,-0.34247l-0.05673,-0.09753l-0.28364,-0.06966l-0.25369,-0.12462l-0.50385,-0.10999l-0.05799,-0.03418l-0.04427,0.01186l-1.67712,-0.36613l-0.43691,-0.1073l-0.05958,-0.03902l-0.3857,-0.13532l-0.17111,-0.29417l-2.22448,-0.54633l-2.15936,-0.75762l-0.30847,0.15152l-0.39733,-0.09758h-29.05389l-5.08964,1.25l-0.03747,0.06442c-5.9006,-0.40621 -12.64664,-0.66028 -16.17907,-0.68015c-13.98868,-0.07868 -27.97794,-0.05722 -41.96672,0c-6.01442,0.0246 -12.12073,1.78337 -18.15574,1.90281c-3.22018,0.06373 -6.57879,-0.30015 -9.93303,-0.62586c-0.05385,-1.59783 -0.12175,-3.19402 -0.20647,-4.78814c-0.11686,-2.19904 -0.65643,-4.9399 -1.27669,-7.62933z" data-paper-data="{&quot;index&quot;:null}" fill="url(#color-1)" fill-rule="nonzero" stroke="none" stroke-width="0" stroke-linecap="butt" stroke-linejoin="miter" stroke-miterlimit="10"/><path d="M64.21777,102.0914v-164h504v164z" fill="url(#color-2)" fill-rule="nonzero" stroke="none" stroke-width="0" stroke-linecap="butt" stroke-linejoin="miter" stroke-miterlimit="10"/><path d="M104.68521,220.41838c22.90254,-34.11705 49.46667,-86.27483 84.92808,-86.1706c37.06247,0.10141 61.59114,51.76439 82.94961,82.23303c20.44738,31.32072 55.477,88.53391 55.477,88.53391l-247.97756,-0.00001c-0.0457,-3.90079 -0.15048,-7.79578 -0.35317,-11.67842c-0.24314,-4.65747 -2.34907,-11.74535 -3.12552,-15.62762c-0.69738,-3.48691 -1.41309,-6.96129 -2.14695,-10.42591c9.5478,-15.19074 20.59342,-32.48154 30.24852,-46.86437z" fill="url(#color-3)" fill-rule="nonzero" stroke="none" stroke-width="0" stroke-linecap="butt" stroke-linejoin="miter" stroke-miterlimit="10"/><g fill-rule="nonzero" stroke="none" stroke-width="1" stroke-linecap="butt" stroke-linejoin="miter" stroke-miterlimit="10"><path d="M116.42533,164.9085l22.38562,48.00887l-9.1517,4.26727l-22.38561,-48.00887l0.26255,-0.12243c-0.05478,-0.70504 0.03878,-1.41836 0.28069,-2.13998c0.48042,-1.31989 1.35826,-2.27716 2.6335,-2.87178c1.27524,-0.59462 2.5603,-0.64586 3.85519,-0.15377c0.73327,0.26691 1.35233,0.64795 1.85721,1.14312l0.26255,-0.12243" data-paper-data="{&quot;index&quot;:null}" fill="#c99869"/><path d="M148.98538,168.53893c-0.48308,-0.84018 -1.19121,-1.57544 -2.12436,-2.20576l-18.76552,-8.41877c-2.74966,-1.45758 -3.6373,-1.04369 -2.66299,1.2417l-0.69955,-1.50026c-0.9743,-2.28539 -0.08666,-2.69929 2.66299,-1.2417l18.76552,8.41877c1.23644,0.82377 2.06117,1.80907 2.47415,2.95591l0.34978,0.75015M127.40871,163.39439l0.69955,1.50026l-30.08056,14.02598c-0.81517,0.47144 -1.1087,1.04969 -0.88058,1.73479l-0.19238,-0.41258l-0.15739,-0.33756l-0.19238,-0.41259c-0.4831,-0.84017 -0.24201,-1.53096 0.72318,-2.07234l30.08055,-14.02599" data-paper-data="{&quot;index&quot;:null}" fill="#bb844d"/><path d="M127.40869,163.39436l-1.97622,-4.23827c-0.9743,-2.28539 -0.08666,-2.69929 2.66299,-1.2417l18.76552,8.41878c0.93315,0.63032 1.6413,1.36557 2.12437,2.20576c0.61302,1.05356 0.82599,2.29368 0.63886,3.72034l-5.61397,19.78645c-0.66267,3.01825 -1.55031,3.43214 -2.66299,1.2417l-2.69327,-5.77607l-30.08055,14.02598c-1.0235,0.41635 -1.70178,0.16947 -2.03484,-0.74067l-0.19238,-0.41258l-0.15739,-0.33756l-8.88429,-19.05352l-0.15739,-0.33756c-0.22813,-0.6851 0.0654,-1.26336 0.88057,-1.73479l30.08056,-14.02598l-0.69954,-1.50027" data-paper-data="{&quot;index&quot;:null}" fill="#ae7640"/></g><path d="M245.14658,305.40491c0,0 48.80779,-83.3117 74.53212,-120.14837c25.72431,-36.83665 55.56138,-91.43904 95.39194,-91.32649c41.62887,0.10949 69.1797,54.17762 93.1697,87.07504c13.09124,19.27627 36.14891,57.99906 53.55757,87.73583c-0.15074,0.89398 -0.29486,1.78815 -0.43129,2.68248c-1.54764,10.14491 -2.21468,20.53671 -3.29418,30.74293c-0.21379,2.0213 -0.44581,4.04685 -0.68845,6.07566z" fill="url(#color-4)" fill-rule="nonzero" stroke="none" stroke-width="0" stroke-linecap="butt" stroke-linejoin="miter" stroke-miterlimit="10"/><g fill="#efe517" fill-rule="nonzero" stroke="none" stroke-width="0" stroke-linecap="butt" stroke-linejoin="miter" stroke-miterlimit="10"><g><path d="M421.7855,109.66609v-45.42012h7.23717v45.42012z"/><path d="M421.65434,64.30771h45.42012v6.62167h-45.42012z"/><path d="M467.19907,64.50176v45.42012h-6.62167v-45.42012z" data-paper-data="{&quot;index&quot;:null}"/><path d="M467.33023,109.86014h-45.42012v-6.00617h45.42012z" data-paper-data="{&quot;index&quot;:null}"/><path d="M458.43327,107.36496l-31.04222,-36.21593l4.72382,-4.04899l31.04222,36.21593z"/><path d="M427.18486,103.10978l31.04222,-36.21592l4.72382,4.04898l-31.04222,36.21593z" data-paper-data="{&quot;index&quot;:null}"/></g><g><path d="M422.04032,151.23474v-45.42012h7.23717v45.42012z"/><path d="M421.90916,105.87635h45.42012v6.62167h-45.42012z"/><path d="M467.45389,106.0704v45.42012h-6.62167v-45.42012z" data-paper-data="{&quot;index&quot;:null}"/><path d="M467.58505,151.42879h-45.42012v-6.00617h45.42012z" data-paper-data="{&quot;index&quot;:null}"/><path d="M458.68809,148.93361l-31.04222,-36.21593l4.72382,-4.04898l31.04222,36.21593z"/><path d="M427.43967,144.67843l31.04222,-36.21593l4.72382,4.04898l-31.04222,36.21593z" data-paper-data="{&quot;index&quot;:null}"/></g><g><g><path d="M422.29821,193.23758v-45.42012h7.23717v45.42012z"/><path d="M422.16705,147.87919h45.42012v6.62167h-45.42012z"/><path d="M467.71179,148.07324v45.42012h-6.62167v-45.42012z" data-paper-data="{&quot;index&quot;:null}"/><path d="M467.84295,193.43163h-45.42012v-6.00617h45.42012z" data-paper-data="{&quot;index&quot;:null}"/><path d="M458.94598,190.93644l-31.04222,-36.21593l4.72382,-4.04898l31.04222,36.21592z"/><path d="M427.69757,186.68127l31.04222,-36.21592l4.72382,4.04898l-31.04222,36.21593z" data-paper-data="{&quot;index&quot;:null}"/></g><g><path d="M422.55302,234.80621v-45.42012h7.23716v45.42012z"/><path d="M422.42186,189.44784h45.42012v6.62167h-45.42012z"/><path d="M467.9666,189.64188v45.42012h-6.62167v-45.42012z" data-paper-data="{&quot;index&quot;:null}"/><path d="M468.09776,235.00027h-45.42012v-6.00617h45.42012z" data-paper-data="{&quot;index&quot;:null}"/><path d="M459.20079,232.50508l-31.04222,-36.21593l4.72382,-4.04898l31.04222,36.21592z"/><path d="M427.95238,228.24991l31.04222,-36.21592l4.72381,4.04898l-31.04222,36.21593z" data-paper-data="{&quot;index&quot;:null}"/></g></g></g><g fill="#efe517" fill-rule="nonzero" stroke="none" stroke-width="0" stroke-linecap="butt" stroke-linejoin="miter" stroke-miterlimit="10"><g><path d="M311.36969,65.3003h-66.35265v-2.91856h66.35265z"/><path d="M245.10722,65.35319v-18.31678h9.67336v18.31678z"/><path d="M245.3907,46.98614h66.35265v2.67035h-66.35265z" data-paper-data="{&quot;index&quot;:null}"/><path d="M311.65316,46.93327v18.31678h-8.77421v-18.31678z" data-paper-data="{&quot;index&quot;:null}"/><path d="M308.00804,50.52119l-52.90656,12.51854l-5.91502,-1.90499l52.90656,-12.51854z"/><path d="M301.7918,63.12287l-52.90656,-12.51854l5.91502,-1.90499l52.90656,12.51854z" data-paper-data="{&quot;index&quot;:null}"/></g><g><path d="M372.09585,65.19754h-66.35265v-2.91856h66.35265z"/><path d="M305.83339,65.25044v-18.31678h9.67336v18.31678z"/><path d="M306.11686,46.88341h66.35265v2.67035h-66.35265z" data-paper-data="{&quot;index&quot;:null}"/><path d="M372.37932,46.83051v18.31678h-8.77421v-18.31678z" data-paper-data="{&quot;index&quot;:null}"/><path d="M368.7342,50.41843l-52.90656,12.51854l-5.91502,-1.90499l52.90656,-12.51854z"/><path d="M362.51796,63.02012l-52.90656,-12.51854l5.91502,-1.90499l52.90656,12.51854z" data-paper-data="{&quot;index&quot;:null}"/></g><g><g><path d="M433.45631,65.09354h-66.35265v-2.91856h66.35265z"/><path d="M367.19384,65.14642v-18.31678h9.67336v18.31678z"/><path d="M367.47732,46.77939h66.35265v2.67035h-66.35265z" data-paper-data="{&quot;index&quot;:null}"/><path d="M433.73978,46.72651v18.31678h-8.77421v-18.31678z" data-paper-data="{&quot;index&quot;:null}"/><path d="M430.09466,50.31443l-52.90656,12.51854l-5.91502,-1.90499l52.90656,-12.51854z"/><path d="M423.87842,62.91612l-52.90656,-12.51854l5.91502,-1.90499l52.90656,12.51854z" data-paper-data="{&quot;index&quot;:null}"/></g><g><path d="M494.18248,64.99077h-66.35265v-2.91856h66.35265z"/><path d="M427.92001,65.04368v-18.31678h9.67336v18.31678z"/><path d="M428.20348,46.67665h66.35265v2.67035h-66.35265z" data-paper-data="{&quot;index&quot;:null}"/><path d="M494.46595,46.62375v18.31678h-8.77421v-18.31678z" data-paper-data="{&quot;index&quot;:null}"/><path d="M490.82082,50.21167l-52.90656,12.51854l-5.91502,-1.90499l52.90656,-12.51854z"/><path d="M484.60459,62.81336l-52.90656,-12.51854l5.91502,-1.90499l52.90656,12.51854z" data-paper-data="{&quot;index&quot;:null}"/></g></g></g><g fill-rule="nonzero" stroke="none" stroke-width="0" stroke-linecap="butt" stroke-linejoin="miter" stroke-miterlimit="10"><path d="M476.75227,71.10603v-33.1028h56.19777v33.1028z" fill="#666666"/><path d="M473.4189,74.70117v-39.26146h16.16648v39.26146z" fill="#7a7a7a"/><path d="M496.76792,74.18537v-39.26145h16.16648v39.26145z" fill="#7a7a7a"/><path d="M519.58344,74.69808v-39.26146h16.16648v39.26146z" fill="#7a7a7a"/></g><g fill-rule="nonzero" stroke="none" stroke-width="0" stroke-linecap="butt" stroke-linejoin="miter" stroke-miterlimit="10"><path d="M392.55712,64.27715c0,0 -0.82539,-20.87216 3.70978,-28.47687c4.53518,-7.60472 23.03567,-9.23799 23.03567,-9.23799l2.56354,38.35537z" fill="#7a7a7a"/><path d="M418.18007,56.94987v-30.38721h9.62291v30.38721z" fill="#7a7a7a"/><path d="M397.0394,56.58345c0,0 -1.73968,-13.2441 3.20856,-20.46369c4.94824,-7.2196 25.13373,-8.77015 25.13373,-8.77015v28.86842z" fill="#3c3c3c"/><path d="M398.29795,55.55804c0,0 -1.60342,-12.20677 2.95726,-18.8609c4.56067,-6.65413 23.16517,-8.08324 23.16517,-8.08324v26.60734z" fill="url(#color-5)"/></g><path d="M393.58791,65.22051v-8.20334h57.42335v8.20334z" fill="#7a7a7a" fill-rule="nonzero" stroke="none" stroke-width="0" stroke-linecap="butt" stroke-linejoin="miter" stroke-miterlimit="10"/><path d="M427.68302,57.27353v-31.78792h26.91719v31.78792z" fill="#a6a6a6" fill-rule="nonzero" stroke="none" stroke-width="0" stroke-linecap="butt" stroke-linejoin="miter" stroke-miterlimit="10"/><path d="M245.40477,65.51318l-8.46816,-8.98241l8.46816,-8.98241z" fill="#efe517" fill-rule="nonzero" stroke="none" stroke-width="0" stroke-linecap="butt" stroke-linejoin="miter" stroke-miterlimit="10"/><g fill-rule="nonzero" stroke="none" stroke-width="0" stroke-linecap="butt" stroke-linejoin="miter" stroke-miterlimit="10"><path d="M283.03252,71.27043c0,-1.4875 0,-6.3234 0,-6.3234h35.88959c0,0 0.1709,4.47157 0.1709,5.9816c0,0.92029 -1.21421,2.22173 -2.39264,2.22173c-3.66748,0 -22.98963,0 -30.59161,0c-1.90682,0 -3.07625,-1.06887 -3.07625,-1.87993z" fill="#7a7a7a"/><path d="M284.05794,69.4119c0,-0.92968 0,-3.95213 0,-3.95213h33.84848c0,0 0.16118,2.79473 0.16118,3.7385c0,0.57518 -1.14515,1.38858 -2.25656,1.38858c-3.45891,0 -21.68216,0 -28.8518,0c-1.79838,0 -2.9013,-0.66804 -2.9013,-1.17496z" fill="#9f9f9f"/></g><path d="M298.92648,150.74027v-77.41898h1.53813v77.41898z" fill="#5a5a5a" fill-rule="nonzero" stroke="none" stroke-width="0" stroke-linecap="butt" stroke-linejoin="miter" stroke-miterlimit="10"/><g fill-rule="nonzero" stroke="none" stroke-width="0" stroke-linecap="butt" stroke-linejoin="miter" stroke-miterlimit="10"><path d="M285.25425,174.49577v-25.63542h31.78792v25.63542z" fill="#ecca82"/><path d="M282.51981,176.3757v-30.76251h4.61438v30.76251z" fill="#dbbb78"/><path d="M317.29853,150.31302h-30.76251v-4.61438h30.76251z" fill="#dbbb78"/><path d="M317.46944,145.95501v30.76251h-4.61438v-30.76251z" data-paper-data="{&quot;index&quot;:null}" fill="#dbbb78"/><path d="M282.69071,172.01769h30.76251v4.61438h-30.76251z" data-paper-data="{&quot;index&quot;:null}" fill="#dbbb78"/><path d="M293.42,175.93136v-26.66084h0.85452v26.66084z" fill="#dbbb78"/><path d="M305.5541,174.90594v-26.66084h0.85452v26.66084z" fill="#dbbb78"/></g><g data-paper-data="{&quot;index&quot;:null}" fill-rule="nonzero" stroke="none" stroke-width="0.76389" stroke-linecap="round" stroke-linejoin="miter" stroke-miterlimit="10"><path d="M62.77602,204.34026l20.23667,-16.32442l25.34366,8.58977l3.79784,25.24845l-11.2003,14.57464l-37.20471,-8.07113z" fill="#b2b2b2"/><path d="M82.99737,188.22898l25.35897,8.37665l3.88529,25.70025l-29.07446,-3.64851l-19.50311,-14.9901z" fill="#cccccc"/><path d="M82.87191,218.5933l17.85077,17.47611l-36.02366,-7.81491z" fill="#999999"/><path d="M83.60324,188.14396l24.16253,8.33354l-24.66268,22.47517z" fill="#d8d8d8"/></g><g fill-rule="nonzero" stroke="#aeaeae" stroke-linecap="butt" stroke-linejoin="miter" stroke-miterlimit="10"><path d="M185.65182,206.94484c0,-12.76589 10.3488,-23.11469 23.11469,-23.11469c12.76589,0 23.11469,10.3488 23.11469,23.11469c0,12.76589 -10.3488,23.11469 -23.11469,23.11469c-12.76589,0 -23.11469,-10.3488 -23.11469,-23.11469z" fill="#7b7b7b" stroke-width="7.5"/><path d="M201.11566,230.8179l15.15921,-0.16406l-7.69736,13.82614z" data-paper-data="{&quot;origRot&quot;:0,&quot;index&quot;:null}" fill="#aeaeae" stroke-width="3"/><path d="M202.57169,231.68384c0,0 3.77294,-0.04053 6.18781,-0.06647c2.32223,-0.02494 -0.21298,10.92497 -0.21298,10.92497z" data-paper-data="{&quot;origRot&quot;:0,&quot;index&quot;:null}" fill="#aeaeae" stroke-width="0"/><path d="M232.52224,215.0783l-0.18369,-15.15898l13.83609,7.67946z" data-paper-data="{&quot;origRot&quot;:0,&quot;index&quot;:null}" fill="#aeaeae" stroke-width="3"/><path d="M233.38628,213.62121c0,0 -0.04542,-3.77288 -0.07448,-6.18771c-0.02795,-2.32219 10.92524,0.19884 10.92524,0.19884z" data-paper-data="{&quot;origRot&quot;:0,&quot;index&quot;:null}" fill="#aeaeae" stroke-width="0"/><path d="M185.01078,200.07141l0.18369,15.15898l-13.8361,-7.67946z" data-paper-data="{&quot;origRot&quot;:0,&quot;index&quot;:null}" fill="#aeaeae" stroke-width="3"/><path d="M184.14672,201.52852c0,0 0.04542,3.77288 0.07448,6.18771c0.02795,2.32219 -10.92524,-0.19884 -10.92524,-0.19884z" data-paper-data="{&quot;origRot&quot;:0,&quot;index&quot;:null}" fill="#aeaeae" stroke-width="0"/><path d="M185.22175,219.59538l10.60389,10.83449l-15.30938,4.00432z" data-paper-data="{&quot;origRot&quot;:0,&quot;index&quot;:null}" fill="#aeaeae" stroke-width="3"/><path d="M185.60347,221.24583c0,0 2.63896,2.69677 4.32802,4.42285c1.62427,1.65986 -8.03732,7.40284 -8.03732,7.40284z" data-paper-data="{&quot;origRot&quot;:0,&quot;index&quot;:null}" fill="#aeaeae" stroke-width="0"/><path d="M195.58212,185.08123l-10.8851,10.55193l-3.93102,-15.32835z" data-paper-data="{&quot;origRot&quot;:0,&quot;index&quot;:null}" fill="#aeaeae" stroke-width="3"/><path d="M194.03452,185.56539c0,0 -2.70938,2.62603 -4.44351,4.30681c-1.66762,1.61631 -7.3643,-8.07265 -7.3643,-8.07265z" data-paper-data="{&quot;origRot&quot;:0,&quot;index&quot;:null}" fill="#aeaeae" stroke-width="0"/><path d="M220.10463,230.20615l10.33243,-11.09366l4.70812,15.10779z" data-paper-data="{&quot;origRot&quot;:0,&quot;index&quot;:null}" fill="#aeaeae" stroke-width="3"/><path d="M221.73567,229.7485c0,0 2.57183,-2.76086 4.21793,-4.52795c1.58295,-1.69929 7.76665,7.68632 7.76665,7.68632z" data-paper-data="{&quot;origRot&quot;:0,&quot;index&quot;:null}" fill="#aeaeae" stroke-width="0"/><path d="M215.51891,183.07177l-15.15921,0.16406l7.69736,-13.82614z" data-paper-data="{&quot;origRot&quot;:0,&quot;index&quot;:null}" fill="#aeaeae" stroke-width="3"/><path d="M214.06291,182.20583c0,0 -3.77294,0.04053 -6.18781,0.06647c-2.32223,0.02494 0.21298,-10.92497 0.21298,-10.92497z" data-paper-data="{&quot;origRot&quot;:0,&quot;index&quot;:null}" fill="#aeaeae" stroke-width="0"/><path d="M231.65108,194.60675l-10.76256,-10.67689l15.24864,-4.22972z" data-paper-data="{&quot;origRot&quot;:0,&quot;index&quot;:null}" fill="#aeaeae" stroke-width="3"/><path d="M231.24503,192.96206c0,0 -2.67845,-2.65755 -4.39279,-4.35853c-1.64857,-1.63572 7.92724,-7.52059 7.92724,-7.52059z" data-paper-data="{&quot;origRot&quot;:0,&quot;index&quot;:null}" fill="#aeaeae" stroke-width="0"/></g><g fill-rule="nonzero" stroke="none" stroke-linecap="butt" stroke-linejoin="miter" stroke-miterlimit="10"><path d="M165.62496,348.38695l6.54362,-7.86422l17.53865,3.77381l-6.27486,12.029l-12.68749,-0.75551z" data-paper-data="{&quot;origPos&quot;:null,&quot;origRot&quot;:0}" fill="#534c42" stroke-width="0"/><path d="M167.91983,347.52755l5.8725,-7.05764l15.73983,3.38678l-5.63134,10.79525l-11.38627,-0.67802z" data-paper-data="{&quot;origPos&quot;:null,&quot;origRot&quot;:0}" fill="url(#color-6)" stroke-width="NaN"/></g><path d="M66.03699,307.47255v-74.52655c0,0 49.27814,7.45265 87.50663,7.45265c40.30366,0 143.91504,-7.67744 230.22659,-9.4622c93.59718,-1.93542 168.64091,2.00956 168.64091,2.00956v74.52655z" fill="#7c7262" fill-rule="nonzero" stroke="none" stroke-width="0" stroke-linecap="butt" stroke-linejoin="miter" stroke-miterlimit="10"/><path d="M65.75144,371.40095v-74.52655c0,0 48.93522,7.45265 86.89765,7.45265c40.02319,0 142.91349,-7.67744 228.62432,-9.4622c92.94581,-1.93542 167.46727,2.00956 167.46727,2.00956v74.52655z" fill="#786e5f" fill-rule="nonzero" stroke="none" stroke-width="0" stroke-linecap="butt" stroke-linejoin="miter" stroke-miterlimit="10"/><path d="M66.2783,374.05522v-37.05188c0,0 48.46351,3.70519 86.06004,3.70519c39.6374,0 141.53591,-3.81693 226.42061,-4.70428c92.04989,-0.96221 165.85305,0.9991 165.85305,0.9991v37.05188z" fill="#6f6558" fill-rule="nonzero" stroke="none" stroke-width="0" stroke-linecap="butt" stroke-linejoin="miter" stroke-miterlimit="10"/><path d="M65.92399,244.49889v-32.95167h497.3732v32.95167z" fill="#949494" fill-rule="nonzero" stroke="none" stroke-width="0" stroke-linecap="butt" stroke-linejoin="miter" stroke-miterlimit="10"/><path d="M65.01964,244.49889v-13.30453h475.90993v13.30453z" fill="#b5b5b5" fill-rule="nonzero" stroke="none" stroke-width="0" stroke-linecap="butt" stroke-linejoin="miter" stroke-miterlimit="10"/><g fill-rule="nonzero" stroke="none" stroke-linecap="butt" stroke-linejoin="miter" stroke-miterlimit="10"><path d="M355.64559,309.07975l8.82339,-36.16014l54.29939,0.37413l-2.92623,52.24412l-36.84514,7.45925z" data-paper-data="{&quot;origPos&quot;:null,&quot;origRot&quot;:0}" fill="#534c42" stroke-width="0"/><path d="M362.11855,303.83115l7.91844,-32.45141l48.73018,0.33577l-2.62616,46.88573l-33.06613,6.69417z" data-paper-data="{&quot;origPos&quot;:null,&quot;origRot&quot;:0}" fill="url(#color-7)" stroke-width="NaN"/></g><g fill-rule="nonzero" stroke="none" stroke-linecap="butt" stroke-linejoin="miter" stroke-miterlimit="10"><path d="M396.28671,286.29742l17.42583,-24.92571l46.70589,11.96112l-16.71013,38.12603l-33.78712,-2.39454z" data-paper-data="{&quot;origPos&quot;:null,&quot;origRot&quot;:0}" fill="#534c42" stroke-width="0"/><path d="M403.07154,284.12965l15.63862,-22.36922l41.91551,10.73433l-14.99634,34.21564l-30.32177,-2.14891z" data-paper-data="{&quot;origPos&quot;:null,&quot;origRot&quot;:0}" fill="url(#color-8)" stroke-width="NaN"/></g><g fill-rule="nonzero" stroke="none" stroke-linecap="butt" stroke-linejoin="miter" stroke-miterlimit="10"><path d="M234.50331,319.27906l-21.6308,-13.73023l13.81668,-31.35114l33.70676,14.15045l-4.29109,23.1124z" data-paper-data="{&quot;origRot&quot;:0}" fill="#534c42" stroke-width="0"/><path d="M231.73069,314.00212l-18.70351,-12.32205l11.9468,-28.13558l29.14518,12.69916l-3.71032,20.74185z" data-paper-data="{&quot;origRot&quot;:0}" fill="url(#color-9)" stroke-width="NaN"/></g><g fill-rule="nonzero" stroke="none" stroke-linecap="butt" stroke-linejoin="miter" stroke-miterlimit="10"><path d="M101.07603,314.30827l-0.6379,-30.4996l46.92872,-10.22854l9.39478,42.16174l-30.08404,13.08147z" data-paper-data="{&quot;origRot&quot;:0}" fill="#534c42" stroke-width="0"/><path d="M105.28972,309.07574l-0.57247,-27.37144l42.11548,-9.17942l8.43114,37.83744l-26.99847,11.73975z" data-paper-data="{&quot;origRot&quot;:0}" fill="url(#color-10)" stroke-width="NaN"/></g><path d="M244.59297,234.42157v-51.6h49v51.6z" fill="none" fill-rule="nonzero" stroke="none" stroke-width="0" stroke-linecap="butt" stroke-linejoin="miter" stroke-miterlimit="10"/><path d="M244.59297,234.42157v-51.6h49v51.6z" fill="none" fill-rule="nonzero" stroke="none" stroke-width="0" stroke-linecap="butt" stroke-linejoin="miter" stroke-miterlimit="10"/><path d="M368.26649,234.74483v-51.6h49v51.6z" fill="none" fill-rule="nonzero" stroke="none" stroke-width="0" stroke-linecap="butt" stroke-linejoin="miter" stroke-miterlimit="10"/><path d="M362.59295,224.42157v-51.6h49v51.6z" fill="none" fill-rule="nonzero" stroke="none" stroke-width="0" stroke-linecap="butt" stroke-linejoin="miter" stroke-miterlimit="10"/><path d="M362.59295,224.42157v-51.6h49v51.6z" fill="none" fill-rule="nonzero" stroke="none" stroke-width="0" stroke-linecap="butt" stroke-linejoin="miter" stroke-miterlimit="10"/><path d="M-64.19451,-11.40026l435.86836,-1.45548l12.4868,103.22497l-448.88114,4.5465z" data-paper-data="{&quot;origRot&quot;:0,&quot;index&quot;:null}" fill="#000000" fill-rule="evenodd" stroke="none" stroke-width="1" stroke-linecap="round" stroke-linejoin="round" stroke-miterlimit="10" opacity="0.42445"/><text transform="translate(81.9175,63.37555) scale(1.20511,1.20511)" font-size="40" xml:space="preserve" fill="#ffffff" fill-rule="nonzero" stroke="#ffffff" stroke-width="2" stroke-linecap="butt" stroke-linejoin="miter" stroke-miterlimit="10" stroke-dasharray="" stroke-dashoffset="0" font-family="Sans Serif" font-weight="normal" text-anchor="start" style="mix-blend-mode: normal"><tspan x="0" dy="0">Megapolis!</tspan></text><g stroke="none" stroke-miterlimit="10"><path d="M291.67501,113.89127h18.33558c3.85062,0 6.97197,3.02447 6.97197,6.75559v18.06738c0,3.73084 -3.12134,6.75559 -6.97197,6.75559h-18.33558c-3.85053,0 -6.97203,-3.02476 -6.97203,-6.75559v-18.06738c0,-3.73111 3.1215,-6.75559 6.97203,-6.75559z" fill="url(#color-11)" fill-rule="evenodd" stroke-width="14" stroke-linecap="round" stroke-linejoin="round"/><path d="M289.62039,129.68054c0,-6.19795 5.02443,-11.22238 11.22238,-11.22238c6.19795,0 11.22238,5.02443 11.22238,11.22238c0,6.19795 -5.02443,11.22238 -11.22238,11.22238c-6.19795,0 -11.22238,-5.02443 -11.22238,-11.22238z" fill="#ffffff" fill-rule="nonzero" stroke-width="0" stroke-linecap="butt" stroke-linejoin="miter"/><path d="M294.51223,129.63292c0,-3.3127 2.68547,-5.99817 5.99817,-5.99817c3.3127,0 5.99817,2.68547 5.99817,5.99817c0,3.3127 -2.68547,5.99817 -5.99817,5.99817c-3.3127,0 -5.99817,-2.68547 -5.99817,-5.99817z" fill="url(#color-12)" fill-rule="nonzero" stroke-width="0" stroke-linecap="butt" stroke-linejoin="miter"/><path d="M299.71015,128.21625c0,-1.30778 1.06017,-2.36796 2.36796,-2.36796c1.30778,0 2.36796,1.06018 2.36796,2.36796c0,1.30778 -1.06018,2.36796 -2.36796,2.36796c-1.30778,0 -2.36796,-1.06017 -2.36796,-2.36796z" fill="#ffffff" fill-rule="nonzero" stroke-width="0" stroke-linecap="butt" stroke-linejoin="miter"/></g><path d="M376.53089,177.10002l10.33333,-27.66666c0,0 22.17161,20.62466 26.29699,29.03011c4.69071,9.55732 2.70301,28.63655 2.70301,28.63655c0,0 -10.04503,-13.77529 -16.25143,-19.7383c-4.707,-4.5224 -23.0819,-10.2617 -23.0819,-10.2617z" fill="#eaeaea" fill-rule="nonzero" stroke="none" stroke-width="0" stroke-linecap="butt" stroke-linejoin="miter" stroke-miterlimit="10"/><g stroke="none" stroke-miterlimit="10"><path d="M366.42339,141.54397l17.51686,5.41787c3.67868,1.1378 5.76697,4.94953 4.66449,8.51405l-5.33863,17.26063c-1.1024,3.56425 -4.97813,5.53163 -8.65682,4.39383l-17.51685,-5.41788c-3.67859,-1.13777 -5.76694,-4.94982 -4.66454,-8.51406l5.33862,-17.26063c1.10249,-3.5645 4.97829,-5.53158 8.65688,-4.39381z" fill="url(#color-13)" fill-rule="evenodd" stroke-width="14" stroke-linecap="round" stroke-linejoin="round"/><path d="M359.77205,154.96727c1.83139,-5.9212 8.11612,-9.23663 14.03731,-7.40524c5.9212,1.83139 9.23663,8.11611 7.40524,14.03731c-1.83139,5.9212 -8.11611,9.23664 -14.03731,7.40524c-5.9212,-1.83139 -9.23664,-8.11612 -7.40524,-14.03731z" fill="#ffffff" fill-rule="nonzero" stroke-width="0" stroke-linecap="butt" stroke-linejoin="miter"/><path d="M364.34607,156.73089c0.97885,-3.16478 4.33792,-4.93682 7.5027,-3.95798c3.16478,0.97885 4.93682,4.33792 3.95797,7.5027c-0.97885,3.16478 -4.33792,4.93682 -7.5027,3.95798c-3.16478,-0.97885 -4.93682,-4.33792 -3.95797,-7.5027z" fill="url(#color-14)" fill-rule="nonzero" stroke-width="0" stroke-linecap="butt" stroke-linejoin="miter"/><path d="M369.90262,156.51801c0.38643,-1.24939 1.71252,-1.94896 2.96192,-1.56253c1.24939,0.38643 1.94896,1.71252 1.56253,2.96192c-0.38643,1.24939 -1.71252,1.94896 -2.96192,1.56253c-1.24939,-0.38643 -1.94896,-1.71253 -1.56253,-2.96192z" fill="#ffffff" fill-rule="nonzero" stroke-width="0" stroke-linecap="butt" stroke-linejoin="miter"/></g><g fill-rule="nonzero" stroke="none" stroke-width="0" stroke-linecap="butt" stroke-linejoin="miter" stroke-miterlimit="10"><path d="M181.26649,126.44483c0,-14.91169 12.08831,-27 27,-27c14.91168,0 27,12.08831 27,27c0,14.91169 -12.08832,27 -27,27c-14.91169,0 -27,-12.08831 -27,-27z" fill="url(#color-15)"/><path d="M199.61191,135.7797c-4.89026,-5.03905 -4.97981,-13.30337 -0.20003,-18.45888c4.77979,-5.15551 12.61892,-5.24992 17.50917,-0.21087c4.89026,5.03905 4.9798,13.30338 0.20002,18.45888c-4.77979,5.15551 -12.61891,5.24992 -17.50916,0.21087z" data-paper-data="{&quot;origRot&quot;:0}" fill="url(#color-16)"/><path d="M201.35423,133.90042c-3.90576,-4.0246 -3.97728,-10.62517 -0.15975,-14.74278c3.81754,-4.11762 10.0785,-4.19302 13.98425,-0.16841c3.90576,4.0246 3.97728,10.62516 0.15975,14.74278c-3.81754,4.11762 -10.0785,4.19302 -13.98425,0.16842z" data-paper-data="{&quot;origRot&quot;:0}" fill="url(#color-17)"/><path d="M206.0369,132.82752v-13.24443h4.44939v13.24443z" fill="url(#color-18)"/></g><g fill-rule="nonzero" stroke="none" stroke-width="0" stroke-linecap="butt" stroke-linejoin="miter" stroke-miterlimit="10"><path d="M476.26645,177.61149c0,-16.2924 13.2076,-29.5 29.5,-29.5c16.2924,0 29.5,13.2076 29.5,29.5c0,16.2924 -13.2076,29.5 -29.5,29.5c-16.2924,0 -29.5,-13.2076 -29.5,-29.5z" fill="url(#color-19)"/><path d="M496.31058,187.54849c-5.34307,-5.50563 -5.4409,-14.53518 -0.21854,-20.16805c5.22237,-5.63287 13.78734,-5.73602 19.13039,-0.23039c5.34307,5.50563 5.4409,14.53517 0.21854,20.16804c-5.22237,5.63287 -13.78734,5.73603 -19.13039,0.2304z" data-paper-data="{&quot;origRot&quot;:0}" fill="url(#color-20)"/><path d="M498.47646,185.4952c-4.2674,-4.39724 -4.34555,-11.60898 -0.17453,-16.10785c4.17102,-4.49887 11.01169,-4.58125 15.27909,-0.184c4.26741,4.39724 4.34555,11.60897 0.17453,16.10784c-4.17102,4.49887 -11.01169,4.58125 -15.27909,0.18401z" data-paper-data="{&quot;origRot&quot;:0}" fill="url(#color-21)"/><path d="M503.33045,184.32295v-14.47076h4.86137v14.47077z" fill="url(#color-22)"/></g><path d="M95.8528,431.20128l452.43692,-222.39935l36.17206,59.3335l-470.55822,235.33921z" data-paper-data="{&quot;origRot&quot;:0,&quot;index&quot;:null}" fill="#000000" fill-rule="evenodd" stroke="none" stroke-width="1" stroke-linecap="round" stroke-linejoin="round" stroke-miterlimit="10" opacity="0.42445"/><g data-paper-data="{&quot;origRot&quot;:0}" fill="#ffffff" fill-rule="evenodd" stroke="none" stroke-width="1" stroke-linecap="round" stroke-linejoin="round" stroke-miterlimit="10"><g><path d="M405.3251,332.94822c2.5097,5.03721 0.02846,9.20997 -3.01601,10.72683c-2.4079,1.1997 -4.61942,0.43598 -5.26831,-0.31168l0.262,0.52586c0.05516,0.11071 0.11031,0.22142 0.12401,0.31824l2.48212,4.98185c0.49642,0.99637 0.03834,2.22648 -0.93035,2.70911c-0.99637,0.49642 -2.22658,0.10748 -2.723,-0.88889l-8.13585,-16.32941c-0.48264,-0.96869 -0.01066,-2.24027 0.95804,-2.72292c0.99637,-0.49642 2.24036,-0.07979 2.723,0.88889l0.23442,0.47051c-0.09457,-1.57661 0.95902,-3.41435 2.92408,-4.39341c3.01679,-1.50306 7.91131,-0.9015 10.36585,4.02499zM401.69944,334.75466c-1.40654,-2.82305 -4.03331,-3.31077 -5.85999,-2.40066c-1.54991,0.77222 -3.03263,2.9274 -1.47441,6.0549c1.55822,3.1275 4.17169,3.24183 5.7216,2.46961c1.82668,-0.91011 3.03312,-3.27312 1.6128,-6.12385z"/><path d="M413.57374,337.99357c-0.99637,0.49642 -2.22658,0.10748 -2.723,-0.88889l-8.12206,-16.30173c-0.48264,-0.96869 -0.06601,-2.2127 0.93036,-2.70912c0.96869,-0.48264 2.21269,-0.06601 2.69533,0.90268l8.12206,16.30173c0.49642,0.99637 0.06601,2.21269 -0.90268,2.69532z"/><path d="M426.2309,315.69189l5.50205,11.0431c0.49642,0.99637 0.01066,2.24027 -0.95804,2.72292c-0.99637,0.49642 -2.22658,0.10748 -2.723,-0.88889l-0.262,-0.52585c0.20606,0.9683 -0.51618,3.19369 -2.92408,4.39339c-3.04446,1.51685 -7.86994,0.98455 -10.37965,-4.05266c-2.45455,-4.9265 0.01301,-9.19609 3.0298,-10.69915c1.96506,-0.97906 4.06666,-0.71334 5.26831,0.31168l-0.23442,-0.47051c-0.48264,-0.96869 -0.06601,-2.21269 0.93036,-2.70911c0.96869,-0.48264 2.26804,-0.09359 2.75068,0.8751zM425.44625,322.92319c-1.55822,-3.1275 -4.17169,-3.24183 -5.7216,-2.46961c-1.82668,0.91011 -3.01933,3.30079 -1.6128,6.12384c1.42033,2.85073 4.03331,3.31077 5.85999,2.40067c1.54991,-0.77222 3.03263,-2.9274 1.47441,-6.0549z"/><path d="M443.05316,320.88763c0.63432,1.27314 -0.2802,2.55792 -2.16223,3.49561c-1.88204,0.93769 -4.09512,1.28028 -6.01187,-2.56682l-3.59908,-7.22368l-0.80263,0.3999c-0.88567,0.44127 -1.75646,0.14962 -2.17015,-0.68069c-0.42748,-0.85799 -0.13584,-1.72877 0.74982,-2.17004l0.80263,-0.3999l-0.93769,-1.88205c-0.49642,-0.99637 -0.0798,-2.24036 0.91657,-2.73678c0.99637,-0.49642 2.21269,-0.06602 2.70911,0.93035l0.93769,1.88203l1.82668,-0.91011c0.91334,-0.45505 1.75646,-0.14963 2.18394,0.70835c0.41369,0.83031 0.14973,1.68732 -0.76361,2.14237l-1.82668,0.91011l3.65424,7.3344c0.3999,0.80263 0.88351,1.07989 1.4924,0.77652c0.30445,-0.15169 0.69212,-0.48303 0.99657,-0.63471c0.80273,-0.46904 1.5768,-0.23286 2.00428,0.62513z"/><path d="M447.55137,298.57441c0.38611,0.77496 0.0669,1.5904 -0.70806,1.97651c-0.24909,0.1241 -0.67794,0.23412 -1.28654,0.33007c-0.42875,0.04088 -0.69154,0.06817 -1.05133,0.24743c-1.54991,0.77222 -1.10933,2.14189 -0.83354,2.69543l0.41369,0.83031l2.26951,-1.13075c0.88567,-0.44127 1.75646,-0.14962 2.18394,0.70837c0.41369,0.83031 0.12206,1.7011 -0.76361,2.14237l-2.26951,1.13074l4.93667,9.90836c0.49642,0.99637 0.06601,2.21269 -0.93036,2.70911c-0.96869,0.48264 -2.1989,0.09369 -2.69532,-0.90268l-4.93667,-9.90837l-0.83031,0.41369c-0.88567,0.44127 -1.75646,0.14963 -2.17015,-0.68068c-0.42748,-0.85799 -0.13585,-1.72879 0.74982,-2.17005l0.83031,-0.41369l-0.51021,-1.02405c-1.93054,-3.87477 0.72791,-6.23573 2.49924,-7.11826c1.21779,-0.60674 2.4212,-0.8263 3.4029,-0.72811c0.82963,0.07032 1.39617,0.37535 1.69954,0.98425z"/><path d="M466.8371,302.33547c2.46834,4.95418 -0.56655,9.47188 -3.72172,11.04389c-3.18285,1.5858 -8.58944,1.27393 -11.05778,-3.68025c-2.45455,-4.9265 0.52508,-9.48577 3.70793,-11.07157c3.15517,-1.57201 8.61702,-1.21857 11.07156,3.70793zM455.65559,307.90644c1.3238,2.65699 3.92269,3.29678 5.88776,2.31773c1.93739,-0.96527 3.01953,-3.43908 1.69573,-6.09607c-1.33759,-2.68467 -3.96416,-3.31068 -5.90155,-2.34541c-1.96506,0.97906 -3.01953,3.43909 -1.68194,6.12376z"/><path d="M476.42346,290.44247c0.51021,1.02405 0.08,2.10208 -1.46991,2.8743c-2.18648,1.08938 -2.72917,3.46715 -2.30218,4.67085l3.32329,6.67015c0.48264,0.96869 0.06601,2.21269 -0.90268,2.69532c-0.99637,0.49642 -2.24037,0.0798 -2.723,-0.88889l-5.47446,-10.98776c-0.49642,-0.99637 -0.0798,-2.24037 0.91657,-2.73679c0.96869,-0.48264 2.21269,-0.06601 2.70911,0.93036l0.68948,1.38385c-0.38572,-1.05153 0.19951,-4.17599 2.69044,-5.41706c1.13475,-0.56537 2.10208,-0.08 2.54334,0.80566z"/><path d="M504.99118,282.39308l3.11645,6.255c0.49642,0.99637 0.06601,2.21269 -0.93036,2.70911c-0.96869,0.48264 -2.19891,0.09368 -2.69533,-0.90269l-3.11645,-6.255c-1.24106,-2.49093 -3.05209,-2.86686 -4.68503,-2.05328c-2.49093,1.24106 -2.19059,3.9934 -1.88752,4.80973l-0.01379,-0.02768l0.22063,0.44283l3.11645,6.255c0.49642,0.99637 0.06601,2.21269 -0.93036,2.70911c-0.96869,0.48264 -2.1989,0.09369 -2.69532,-0.90268l-3.11645,-6.25499c-1.24106,-2.49093 -3.0521,-2.86687 -4.68504,-2.05328c-2.49093,1.24106 -2.16291,3.97961 -1.88751,4.80973l3.32329,6.67015c0.49642,0.99637 0.06602,2.21269 -0.90268,2.69532c-0.99637,0.49642 -2.22658,0.10748 -2.723,-0.88889l-5.47446,-10.98776c-0.49642,-0.99637 -0.0798,-2.24037 0.91657,-2.73679c0.96869,-0.48264 2.2127,-0.06601 2.70912,0.93036l0.68948,1.38385c-0.38572,-1.05153 0.11648,-4.13463 3.10559,-5.6239c2.07577,-1.03422 4.45423,-0.97553 6.51181,1.07403c-0.08,-2.10208 0.79491,-4.71447 3.47957,-6.05206c2.79538,-1.39275 6.16874,-0.79334 8.55434,3.99478z"/><path d="M522.08144,274.05089c0.71706,1.4392 0.16264,2.33728 -1.30424,3.06814l-8.24764,4.04014c1.33876,1.85494 3.48182,2.13457 5.50224,1.12792c0.99637,-0.49642 1.35656,-0.95227 2.00761,-1.72575c0.38787,-0.46963 0.66503,-0.8841 1.13554,-1.11852c0.77496,-0.38611 1.52125,-0.06698 1.866,0.62493c0.22063,0.44283 0.27511,1.03753 -0.12723,1.96349c-0.66552,1.22981 -1.81494,2.38981 -3.55859,3.25855c-3.68104,1.83401 -8.71424,1.50883 -11.22394,-3.52839c-2.48212,-4.98185 0.44205,-9.4444 3.59722,-11.01641c3.15517,-1.57201 8.21566,-0.98405 10.35304,3.30588zM511.28847,278.66825l6.91924,-3.4474c-1.33857,-1.99323 -3.32974,-2.10668 -4.90733,-1.32067c-1.57759,0.786 -2.82462,2.51283 -2.01191,4.76807z"/><path d="M531.97112,262.7668c0.51021,1.02405 0.08,2.10208 -1.46991,2.8743c-2.18648,1.08938 -2.72916,3.46714 -2.30217,4.67084l3.32329,6.67014c0.48264,0.96869 0.06602,2.21269 -0.90268,2.69533c-0.99637,0.49642 -2.24037,0.0798 -2.723,-0.88889l-5.47446,-10.98776c-0.49642,-0.99637 -0.0798,-2.24038 0.91657,-2.7368c0.96869,-0.48264 2.21269,-0.066 2.70911,0.93037l0.68948,1.38384c-0.38572,-1.05153 0.19951,-4.17599 2.69043,-5.41706c1.13475,-0.56537 2.10208,-0.08 2.54335,0.80566z"/></g><g><path d="M368.95575,311.51983l5.50204,11.04311c0.49642,0.99637 0.01066,2.24027 -0.95803,2.72292c-0.99637,0.49642 -2.22658,0.10748 -2.723,-0.88889l-0.262,-0.52586c0.20606,0.9683 -0.51618,3.19371 -2.92408,4.39339c-3.04452,1.51688 -7.86999,0.98456 -10.3797,-4.05264c-2.45455,-4.9265 0.01301,-9.19608 3.02985,-10.69918c1.96506,-0.97906 4.06665,-0.71333 5.2683,0.31169l-0.23442,-0.47051c-0.48264,-0.96869 -0.06601,-2.21269 0.93036,-2.70911c0.96869,-0.48264 2.26805,-0.09359 2.75068,0.87509zM368.17112,318.75117c-1.55822,-3.1275 -4.17169,-3.24183 -5.7216,-2.46961c-1.82668,0.91011 -3.01939,3.30082 -1.61285,6.12387c1.42033,2.85073 4.03336,3.31074 5.86004,2.40062c1.54991,-0.77222 3.03263,-2.92739 1.47441,-6.05489z"/><path d="M406.20057,298.9054l3.11645,6.25499c0.49642,0.99637 0.06601,2.2127 -0.93036,2.70912c-0.96869,0.48264 -2.19891,0.0937 -2.69533,-0.90267l-3.11645,-6.255c-1.24106,-2.49093 -3.05209,-2.86686 -4.68503,-2.05327c-2.49093,1.24106 -2.19059,3.9934 -1.88751,4.80973l-0.01379,-0.02767l0.22063,0.44282l3.11645,6.255c0.49642,0.99637 0.06601,2.21269 -0.93036,2.70911c-0.96869,0.48264 -2.1989,0.0937 -2.69532,-0.90267l-3.11645,-6.255c-1.24106,-2.49093 -3.0521,-2.86687 -4.68504,-2.05328c-2.49093,1.24106 -2.16291,3.97961 -1.88751,4.80973l3.32329,6.67015c0.49642,0.99637 0.06601,2.21269 -0.90268,2.69533c-0.99637,0.49642 -2.22658,0.10748 -2.723,-0.88889l-5.47446,-10.98776c-0.49642,-0.99637 -0.0798,-2.24037 0.91657,-2.73679c0.96869,-0.48264 2.2127,-0.06602 2.70912,0.93035l0.68948,1.38385c-0.38572,-1.05153 0.11648,-4.13463 3.10559,-5.6239c2.07577,-1.03422 4.45423,-0.97554 6.51181,1.07402c-0.08,-2.10208 0.79491,-4.71447 3.47957,-6.05206c2.79538,-1.39275 6.16874,-0.79334 8.55434,3.99478z"/><path d="M410.26644,298.74519l-3.11645,-6.255c-0.49642,-0.99637 -0.06601,-2.21269 0.93036,-2.70911c0.96869,-0.48264 2.1989,-0.09369 2.69532,0.90268l3.11645,6.25499c1.24106,2.49093 3.0521,2.86687 4.68504,2.05328c2.49093,-1.24106 2.16291,-3.97961 1.88751,-4.80973l-3.32329,-6.67015c-0.49642,-0.99637 -0.06601,-2.21269 0.90268,-2.69533c0.99637,-0.49642 2.22658,-0.10748 2.723,0.88889l5.47446,10.98776c0.49642,0.99637 0.0798,2.24037 -0.91657,2.73679c-0.96869,0.48264 -2.2127,0.06601 -2.70912,-0.93036l-0.68948,-1.38385c0.38572,1.05153 -0.11648,4.13463 -3.10559,5.6239c-2.79538,1.39275 -6.16874,0.79334 -8.55433,-3.99477z"/><path d="M432.29958,295.95531c-0.99637,0.49642 -2.22658,0.10748 -2.723,-0.88889l-8.12206,-16.30173c-0.48264,-0.96869 -0.06601,-2.21269 0.93036,-2.70911c0.96869,-0.48264 2.21269,-0.06601 2.69533,0.90268l8.12206,16.30173c0.49642,0.99637 0.06601,2.21269 -0.90268,2.69532z"/><path d="M444.53623,287.4403c0.63432,1.27314 -0.28019,2.55792 -2.16223,3.49561c-1.88204,0.93769 -4.09512,1.28028 -6.01187,-2.56682l-3.59908,-7.22369l-0.80263,0.3999c-0.88567,0.44127 -1.75646,0.14963 -2.17015,-0.68068c-0.42748,-0.85799 -0.13585,-1.72878 0.74982,-2.17005l0.80264,-0.3999l-0.9377,-1.88204c-0.49642,-0.99637 -0.0798,-2.24036 0.91657,-2.73678c0.99637,-0.49642 2.21269,-0.06601 2.70911,0.93036l0.93769,1.88204l1.82668,-0.91011c0.91334,-0.45505 1.75646,-0.14963 2.18394,0.70836c0.41369,0.83031 0.14973,1.68732 -0.76361,2.14237l-1.82668,0.91011l3.65424,7.3344c0.3999,0.80263 0.88351,1.07989 1.49241,0.77652c0.30445,-0.15169 0.69212,-0.48302 0.99657,-0.63471c0.80273,-0.46904 1.5768,-0.23286 2.00428,0.62513z"/><path d="M438.83611,269.75914c-0.48264,-0.96869 -0.03834,-2.22648 0.95803,-2.72291c0.96869,-0.48264 2.24037,-0.0798 2.723,0.88889c0.48264,0.96869 0.03834,2.22648 -0.93036,2.70911c-0.99637,0.49642 -2.26804,0.09359 -2.75068,-0.87509zM445.27498,273.52964l5.46067,10.96008c0.51021,1.02405 0.09359,2.26804 -0.8751,2.75068c-0.99637,0.49642 -2.24037,0.0798 -2.75058,-0.94425l-5.46068,-10.96008c-0.49642,-0.99637 -0.0798,-2.24037 0.91657,-2.73679c0.96869,-0.48264 2.21269,-0.06601 2.70911,0.93036z"/><path d="M465.8155,270.10151c2.5097,5.03721 0.02846,9.20997 -3.01601,10.72683c-2.4079,1.1997 -4.61942,0.43598 -5.26831,-0.31168l0.262,0.52586c0.05516,0.11071 0.11031,0.22141 0.12401,0.31823l2.48212,4.98185c0.49642,0.99637 0.03834,2.22648 -0.93035,2.70911c-0.99637,0.49642 -2.22658,0.10749 -2.723,-0.88888l-8.13585,-16.32942c-0.48264,-0.96869 -0.01066,-2.24026 0.95803,-2.7229c0.99637,-0.49642 2.24037,-0.0798 2.723,0.88889l0.23442,0.47051c-0.09457,-1.57661 0.95902,-3.41433 2.92408,-4.39339c3.01679,-1.50306 7.91131,-0.9015 10.36585,4.02499zM462.18982,271.90797c-1.40654,-2.82305 -4.03331,-3.31078 -5.85999,-2.40066c-1.54991,0.77222 -3.03263,2.9274 -1.47441,6.0549c1.55822,3.1275 4.17169,3.24183 5.7216,2.46961c1.82668,-0.91011 3.03312,-3.27311 1.6128,-6.12384z"/><path d="M474.06413,275.14685c-0.99637,0.49642 -2.22658,0.10748 -2.723,-0.88889l-8.12206,-16.30173c-0.48264,-0.96869 -0.06601,-2.21269 0.93036,-2.70911c0.96869,-0.48264 2.21269,-0.06602 2.69533,0.90268l8.12206,16.30173c0.49642,0.99637 0.06602,2.21269 -0.90268,2.69532z"/><path d="M486.7213,252.8452l5.50205,11.0431c0.49642,0.99637 0.01066,2.24026 -0.95804,2.7229c-0.99637,0.49642 -2.22658,0.10748 -2.723,-0.88889l-0.262,-0.52586c0.20606,0.9683 -0.51618,3.1937 -2.92408,4.3934c-3.04446,1.51685 -7.86994,0.98454 -10.37964,-4.05267c-2.45455,-4.9265 0.01301,-9.19609 3.0298,-10.69915c1.96506,-0.97906 4.06666,-0.71334 5.26831,0.31168l-0.23442,-0.47051c-0.48264,-0.96869 -0.06601,-2.21269 0.93036,-2.70911c0.96869,-0.48264 2.26804,-0.09359 2.75068,0.8751zM485.93666,260.07651c-1.55822,-3.1275 -4.17169,-3.24183 -5.7216,-2.46961c-1.82668,0.91011 -3.01933,3.30081 -1.6128,6.12386c1.42033,2.85073 4.03331,3.31078 5.85999,2.40066c1.54991,-0.77222 3.03263,-2.9274 1.47441,-6.0549z"/><path d="M503.16169,244.44676c0.16547,0.33212 0.19266,0.66404 0.19227,0.94061l0.87099,19.70718c0.05379,1.07871 -0.4174,1.79714 -1.10933,2.14188c-0.94102,0.46885 -1.97758,0.05251 -2.41885,-0.83316c-0.16547,-0.33212 -0.19266,-0.66404 -0.21995,-0.92683l-0.21506,-4.38401l-10.80164,-8.7827c-0.19335,-0.18005 -0.44195,-0.40166 -0.60743,-0.73378c-0.44127,-0.88567 -0.09399,-1.99147 0.84703,-2.46032c0.69193,-0.34474 1.54923,-0.28821 2.37797,0.4044l7.98348,6.73206l-0.48303,-10.46903c-0.05379,-1.07871 0.38973,-1.78335 1.08165,-2.12809c0.96869,-0.48264 2.06061,-0.09389 2.50188,0.79178z"/><path d="M521.0459,241.85844c0.71706,1.4392 0.16264,2.33728 -1.30424,3.06813l-8.24764,4.04015c1.33876,1.85494 3.48182,2.13456 5.50224,1.1279c0.99637,-0.49642 1.35656,-0.95226 2.00761,-1.72575c0.38787,-0.46963 0.66503,-0.8841 1.13554,-1.11852c0.77496,-0.38611 1.52125,-0.06699 1.866,0.62493c0.22063,0.44283 0.27511,1.03755 -0.12724,1.96351c-0.66552,1.22981 -1.81494,2.3898 -3.55859,3.25854c-3.68104,1.83401 -8.71424,1.50883 -11.22394,-3.52838c-2.48212,-4.98185 0.44206,-9.4444 3.59723,-11.01641c3.15517,-1.57201 8.21565,-0.98405 10.35304,3.30589zM510.25298,246.47577l6.91924,-3.44739c-1.33857,-1.99323 -3.32974,-2.10668 -4.90733,-1.32067c-1.57759,0.786 -2.82461,2.51283 -2.01191,4.76807z"/><path d="M530.9356,230.57434c0.51021,1.02405 0.08,2.10208 -1.46991,2.8743c-2.18648,1.08938 -2.72916,3.46716 -2.30217,4.67086l3.32329,6.67014c0.48264,0.96869 0.06602,2.21269 -0.90268,2.69532c-0.99637,0.49642 -2.24037,0.0798 -2.723,-0.88889l-5.47446,-10.98776c-0.49642,-0.99637 -0.0798,-2.24037 0.91657,-2.73679c0.96869,-0.48264 2.2127,-0.066 2.70912,0.93037l0.68948,1.38385c-0.38572,-1.05153 0.19951,-4.17599 2.69043,-5.41706c1.13475,-0.56537 2.10208,-0.08001 2.54335,0.80565z"/></g></g><path d="M122.27667,312.3296v-7.5478" fill="none" fill-rule="evenodd" stroke="#000000" stroke-width="5.33" stroke-linecap="round" stroke-linejoin="round" stroke-miterlimit="1.5"/><path d="M101.80367,309.85159v-7.5478" fill="none" fill-rule="evenodd" stroke="#000000" stroke-width="5.33" stroke-linecap="round" stroke-linejoin="round" stroke-miterlimit="1.5"/><path d="M144.12115,325.97173c1.42951,5.33481 -1.73622,10.81814 -7.07099,12.24756l-23.66989,6.34222c-5.33477,1.42942 -10.81812,-1.73643 -12.24763,-7.07124l-13.25376,-49.46199c-1.42951,-5.33481 1.73622,-10.81814 7.07099,-12.24756l23.66989,-6.34222c5.33477,-1.42942 10.81812,1.73643 12.24763,7.07124z" fill="none" fill-rule="evenodd" stroke="#ffffff" stroke-width="16.97" stroke-linecap="round" stroke-linejoin="round" stroke-miterlimit="1.5"/><path d="M144.12115,325.97173c1.42951,5.33481 -1.73622,10.81814 -7.07099,12.24756l-23.66989,6.34222c-5.33477,1.42942 -10.81812,-1.73643 -12.24763,-7.07124l-13.25376,-49.46199c-1.42951,-5.33481 1.73622,-10.81814 7.07099,-12.24756l23.66989,-6.34222c5.33477,-1.42942 10.81812,1.73643 12.24763,7.07124z" fill="#000000" fill-rule="evenodd" stroke="none" stroke-width="1" stroke-linecap="round" stroke-linejoin="round" stroke-miterlimit="1.5"/><path d="M105.71104,337.39366l-13.8224,-51.5856l34.3908,-9.21516l13.8224,51.5856z" fill="#ffffff" fill-rule="evenodd" stroke="none" stroke-width="1" stroke-linecap="round" stroke-linejoin="round" stroke-miterlimit="1.5"/><path d="M126.23078,299.78484v7.5478" fill="none" fill-rule="evenodd" stroke="#000000" stroke-width="5.33" stroke-linecap="round" stroke-linejoin="round" stroke-miterlimit="1.5"/><path d="M105.75779,297.3068v7.5478" fill="none" fill-rule="evenodd" stroke="#000000" stroke-width="5.33" stroke-linecap="round" stroke-linejoin="round" stroke-miterlimit="1.5"/><path d="M122.95285,315.32148c-4.87042,2.81193 -11.10724,1.14078 -13.91917,-3.72965" data-paper-data="{&quot;index&quot;:null}" fill="none" fill-rule="evenodd" stroke="#000000" stroke-width="6" stroke-linecap="round" stroke-linejoin="round" stroke-miterlimit="1.5"/></g></g></svg>