<svg version="1.1" xmlns="http://www.w3.org/2000/svg" xmlns:xlink="http://www.w3.org/1999/xlink" width="498.74498" height="479.47984" viewBox="0,0,498.74498,479.47984"><defs><linearGradient x1="95.79186" y1="391.29297" x2="79.1011" y2="402.01581" gradientUnits="userSpaceOnUse" id="color-1"><stop offset="0" stop-color="#8e8e8e"/><stop offset="1" stop-color="#818181"/></linearGradient><linearGradient x1="325.3708" y1="316.00093" x2="291.76484" y2="371.26726" gradientUnits="userSpaceOnUse" id="color-2"><stop offset="0" stop-color="#8e8e8e"/><stop offset="1" stop-color="#818181"/></linearGradient><linearGradient x1="371.20546" y1="316.10087" x2="326.75777" y2="350.08696" gradientUnits="userSpaceOnUse" id="color-3"><stop offset="0" stop-color="#8e8e8e"/><stop offset="1" stop-color="#818181"/></linearGradient><linearGradient x1="129.38056" y1="326.81778" x2="157.48775" y2="358.86216" gradientUnits="userSpaceOnUse" id="color-4"><stop offset="0" stop-color="#8e8e8e"/><stop offset="1" stop-color="#818181"/></linearGradient><linearGradient x1="45.04767" y1="319.56813" x2="29.05974" y2="369.88569" gradientUnits="userSpaceOnUse" id="color-5"><stop offset="0" stop-color="#8e8e8e"/><stop offset="1" stop-color="#818181"/></linearGradient><radialGradient cx="306.17697" cy="11.92719" r="29.75" gradientUnits="userSpaceOnUse" id="color-6"><stop offset="0" stop-color="#d2ff66"/><stop offset="1" stop-color="#d2ff66" stop-opacity="0"/></radialGradient></defs><g transform="translate(34.11659,56.22281)"><g data-paper-data="{&quot;isPaintingLayer&quot;:true}" fill-rule="nonzero" stroke-linejoin="miter" stroke-miterlimit="10" stroke-dasharray="" stroke-dashoffset="0" style="mix-blend-mode: normal"><path d="M206.95638,145.18538v-145.64565l201.99847,-45.04505l3.03757,190.69069z" fill="#efa667" stroke="none" stroke-width="0" stroke-linecap="butt"/><path d="M204.19171,259.80001v-109h15v109z" fill="#d88c09" stroke="none" stroke-width="0" stroke-linecap="butt"/><g stroke="none" stroke-linecap="butt"><path d="M71.59255,397.58874l6.7485,-7.86422l18.08779,3.77381l-6.47133,12.029l-13.08474,-0.75551z" data-paper-data="{&quot;origPos&quot;:null,&quot;origRot&quot;:0}" fill="#534c42" stroke-width="0"/><path d="M73.95927,396.72934l6.05638,-7.05764l16.23265,3.38678l-5.80766,10.79525l-11.74278,-0.67802z" data-paper-data="{&quot;origPos&quot;:null,&quot;origRot&quot;:0}" fill="url(#color-1)" stroke-width="NaN"/></g><path d="M-34.11659,361.17886l3.00301,-79.03105c0,0 49.67168,7.45265 88.20546,7.45265c40.62553,0 145.06435,-7.67744 232.0652,-9.4622c94.34465,-1.93542 169.98769,2.00956 169.98769,2.00956v74.52655z" fill="#9a8a7e" stroke="none" stroke-width="0" stroke-linecap="butt"/><path d="M-31.40807,420.60275v-74.52655c0,0 49.73598,7.45265 88.31962,7.45265c40.67812,0 145.25207,-7.67744 232.36545,-9.4622c94.46674,-1.93542 170.20766,2.00956 170.20766,2.00956v74.52655z" fill="#887c6d" stroke="none" stroke-width="0" stroke-linecap="butt"/><path d="M-30.86471,423.25702v-37.05188c0,0 49.56297,3.70519 88.01242,3.70519c40.53663,0 144.74684,-3.81693 231.55726,-4.70428c94.13816,-0.96221 169.61565,0.9991 169.61565,0.9991v37.05188z" fill="#807566" stroke="none" stroke-width="0" stroke-linecap="butt"/><path d="M-30.20524,293.7007v-32.95167c0,0 220.11014,-34 304.39696,-34c79.54515,0 189.92305,-4 189.92305,-4l-2,70.95167z" fill="#efb95a" stroke="none" stroke-width="0" stroke-linecap="butt"/><path d="M-32.16279,293.7007v-13.30453c0,0 213.93706,-33 302.35451,-33c60.73415,0 165.98055,-12.27024 192.92628,-5.05582c4.83035,1.29327 -3.46987,38.05582 -3.46987,38.05582l1,14.30453z" fill="#dfac55" stroke="none" stroke-width="0" stroke-linecap="butt"/><g stroke="none" stroke-linecap="butt"><path d="M267.56282,358.28157l9.09965,-36.16014l55.99953,0.37413l-3.01785,52.24412l-37.99878,7.45925z" data-paper-data="{&quot;origPos&quot;:null,&quot;origRot&quot;:0}" fill="#534c42" stroke-width="0"/><path d="M274.23846,353.03295l8.16637,-32.45141l50.25595,0.33577l-2.70838,46.88573l-34.10145,6.69417z" data-paper-data="{&quot;origPos&quot;:null,&quot;origRot&quot;:0}" fill="url(#color-2)" stroke-width="NaN"/></g><g stroke="none" stroke-linecap="butt"><path d="M309.47643,335.49922l17.97144,-24.92571l48.16827,11.96112l-17.23333,38.12603l-34.84501,-2.39454z" data-paper-data="{&quot;origPos&quot;:null,&quot;origRot&quot;:0}" fill="#534c42" stroke-width="0"/><path d="M316.47369,333.33145l16.12827,-22.36922l43.22791,10.73433l-15.46588,34.21564l-31.27116,-2.14891z" data-paper-data="{&quot;origPos&quot;:null,&quot;origRot&quot;:0}" fill="url(#color-3)" stroke-width="NaN"/></g><g stroke="none" stroke-linecap="butt"><path d="M142.6275,368.48088l-22.30807,-13.73023l14.24929,-31.35114l34.76214,14.15045l-4.42545,23.1124z" data-paper-data="{&quot;origRot&quot;:0}" fill="#534c42" stroke-width="0"/><path d="M139.76808,363.20392l-19.28913,-12.32205l12.32086,-28.13558l30.05773,12.69916l-3.82649,20.74185z" data-paper-data="{&quot;origRot&quot;:0}" fill="url(#color-4)" stroke-width="NaN"/></g><g stroke="none" stroke-linecap="butt"><path d="M5.02256,363.51009l-0.65787,-30.4996l48.39808,-10.22854l9.68894,42.16174l-31.02598,13.08147z" data-paper-data="{&quot;origRot&quot;:0}" fill="#534c42" stroke-width="0"/><path d="M9.36817,358.27754l-0.59039,-27.37144l43.43414,-9.17942l8.69512,37.83744l-27.84381,11.73975z" data-paper-data="{&quot;origRot&quot;:0}" fill="url(#color-5)" stroke-width="NaN"/></g><path d="M398.19171,224.80001v-78h15v78z" fill="#d88c09" stroke="none" stroke-width="0" stroke-linecap="butt"/><path d="M332.19171,225.80001v-78h15v78z" fill="#d88c09" stroke="none" stroke-width="0" stroke-linecap="butt"/><path d="M270.19171,227.80001v-78h15v78z" fill="#d88c09" stroke="none" stroke-width="0" stroke-linecap="butt"/><path d="M189.19171,155.80001v-11h235v11z" fill="#ce8508" stroke="none" stroke-width="0" stroke-linecap="butt"/><path d="M189.69171,151.80001v-7h234v7z" fill="#b07207" stroke="none" stroke-width="0" stroke-linecap="butt"/><path d="M207.00001,110.9v-108.5h11.5v108.5z" fill="#d88c09" stroke="none" stroke-width="0" stroke-linecap="butt"/><path d="M400.50001,112.56667v-155.04655h11.5v155.04655z" fill="#d88c09" stroke="none" stroke-width="0" stroke-linecap="butt"/><path d="M207.1917,144.87719v-34h11.33333v34z" fill="#bc8351" stroke="none" stroke-width="0" stroke-linecap="butt"/><path d="M400.85837,144.87719v-34h11.33333v34z" fill="#bc8351" stroke="none" stroke-width="0" stroke-linecap="butt"/><g stroke="none" stroke-width="0" stroke-linecap="butt"><path d="M363.34949,118.05789c0,0 0.58869,-91.80287 13.07589,-91.56369c10.17856,0.19496 10.26208,91.08617 10.26208,91.08617c0,0 -6.8764,9.94459 -12.08066,9.90241c-5.64794,-0.04578 -11.25731,-9.42488 -11.25731,-9.42488z" fill="#f3f3f3"/><path d="M374.27619,127.14675l0.8159,-100.66336l1.33329,0.01081l-0.8159,100.66336z" fill="#00f2f2"/></g><g stroke="none" stroke-width="0" stroke-linecap="butt"><path d="M246.35837,107.37719c0,0 0,-60.75808 0,-67.54167c0,-1.20324 -0.75,-2.125 -0.75,-2.125c0,0 1.816,-0.5 2.72917,-0.5c0.92011,0 2.77083,0.5 2.77083,0.5c0,0 -0.75,1.04208 -0.75,2.375c0,7.09501 0,67.29167 0,67.29167z" fill="#b07207"/><path d="M257.02504,115.04386c0,8.83656 -3.72225,10.66667 -8.41667,10.66667c-4.69442,0 -8.58333,-1.83011 -8.58333,-10.66667c0,-8.83656 3.80558,-16 8.5,-16c4.69442,0 8.5,7.16344 8.5,16z" fill="#d88c09"/></g><g stroke="none" stroke-width="0" stroke-linecap="butt"><path d="M273.35837,107.87719c0,0 0,-60.75808 0,-67.54166c0,-1.20324 -0.75,-2.125 -0.75,-2.125c0,0 1.81599,-0.5 2.72916,-0.5c0.92012,0 2.77084,0.5 2.77084,0.5c0,0 -0.75,1.04208 -0.75,2.375c0,7.09501 0,67.29166 0,67.29166z" fill="#b07207"/><path d="M284.02504,115.54386c0,8.83656 -3.72224,10.66667 -8.41666,10.66667c-4.69442,0 -8.58334,-1.83011 -8.58334,-10.66667c0,-8.83656 3.80558,-16 8.5,-16c4.69442,0 8.5,7.16344 8.5,16z" fill="#d88c09"/></g><path d="M306.42697,-18.32281v29.5" fill="none" stroke="#a0a0a0" stroke-width="2" stroke-linecap="round"/><g stroke="none" stroke-width="0" stroke-linecap="butt"><path d="M191.23394,9.46546l-2.57417,-10.69456l228.47471,-54.99371l2.57417,10.69456z" fill="#ce8508"/><path d="M190.78399,5.45952l-1.63811,-6.80563l227.50247,-54.75969l1.63811,6.80563z" fill="#b07207"/></g><path d="M276.42697,11.92719c0,-16.43047 13.31953,-29.75 29.75,-29.75c16.43047,0 29.75,13.31953 29.75,29.75c0,16.43047 -13.31953,29.75 -29.75,29.75c-16.43047,0 -29.75,-13.31953 -29.75,-29.75z" fill="url(#color-6)" stroke="none" stroke-width="0" stroke-linecap="butt"/></g></g></svg>