<svg version="1.1" xmlns="http://www.w3.org/2000/svg" xmlns:xlink="http://www.w3.org/1999/xlink" width="439.90479" height="48.67363" viewBox="0,0,439.90479,48.67363"><g transform="translate(-24.6475,-299.19953)"><g data-paper-data="{&quot;isPaintingLayer&quot;:true}" fill="none" fill-rule="nonzero" stroke="none" stroke-width="none" stroke-linecap="butt" stroke-linejoin="none" stroke-miterlimit="10" stroke-dasharray="" stroke-dashoffset="0" font-family="none" font-weight="none" font-size="none" text-anchor="none" style="mix-blend-mode: normal"><text transform="translate(173,330.94172) scale(0.70594,0.70594)" font-size="40" xml:space="preserve" data-paper-data="{&quot;origPos&quot;:null}" fill="#000000" fill-rule="nonzero" stroke="#000000" stroke-width="3" stroke-linecap="butt" stroke-linejoin="miter" stroke-miterlimit="10" stroke-dasharray="" stroke-dashoffset="0" font-family="Sans Serif" font-weight="normal" text-anchor="start" style="mix-blend-mode: normal"><tspan x="0" dy="0">Thanks! :D</tspan></text><path d="M48.57275,308.62269c1.8171,-4.13185 5.73883,-7.00363 10.29535,-7.00363c6.28175,0 11.37997,5.44193 11.37997,12.14716c0,13.20547 -13.37032,17.30027 -21.67532,30.70297c-8.78431,-13.48568 -21.67525,-17.06213 -21.67525,-30.70297c0,-6.70523 5.09822,-12.14716 11.37997,-12.14716c4.55655,0 8.47828,2.87178 10.29528,7.00363z" data-paper-data="{&quot;origPos&quot;:null}" id="ID0.2874125149101019" fill="#e26161" stroke="#b04c4c" stroke-width="4.5" stroke-linejoin="round"/><path d="M451.99935,344.7757c-3.36022,2.02933 -13.23275,-8.45999 -13.23275,-8.45999c0,0 -11.50394,8.67876 -14.47421,6.10907c-2.97283,-2.56958 3.95593,-15.20417 3.95593,-15.20417c0,0 -11.80701,-8.25965 -10.2811,-11.87813c1.52591,-3.62124 15.68119,-0.93562 15.68119,-0.93562c0,0 4.20365,-13.78099 8.11732,-13.45151c3.91899,0.33203 5.7401,14.62698 5.7401,14.62698c0,0 14.40566,-0.26092 15.29646,3.56578c0.89868,3.82414 -12.13383,9.97537 -12.13383,9.97537c0,0 4.69909,13.6229 1.33089,15.65223z" data-paper-data="{&quot;origPos&quot;:null}" id="Star" fill="#efce50" stroke="#c4aa41" stroke-width="3.5" stroke-linejoin="miter"/></g></g></svg>