<svg version="1.1" xmlns="http://www.w3.org/2000/svg" xmlns:xlink="http://www.w3.org/1999/xlink" width="225.61493" height="176.28092" viewBox="0,0,225.61493,176.28092"><g transform="translate(-242.81004,14.54644)"><g data-paper-data="{&quot;isPaintingLayer&quot;:true}" stroke-linecap="butt" stroke-dasharray="" stroke-dashoffset="0" style="mix-blend-mode: normal"><path d="M242.81004,90.07038v-104.61682h225.61493v104.61682z" fill="none" fill-rule="nonzero" stroke="none" stroke-width="0" stroke-linejoin="miter" stroke-miterlimit="10"/><path d="M252.17794,35.08813c0,-12.79203 4.81642,-23.16351 10.75693,-23.16351h189.02076c5.94051,0 10.75693,10.37145 10.75693,23.16351v99.60301c0,12.79202 -4.81642,23.1635 -10.75693,23.1635h-189.02076c-5.94051,0 -10.75693,-10.37144 -10.75693,-23.1635z" data-paper-data="{&quot;index&quot;:null}" fill="#ffffff" fill-rule="evenodd" stroke="none" stroke-width="1" stroke-linejoin="round" stroke-miterlimit="2"/><path d="M456.67792,45.51965c0,2.76653 -2.24303,5.00956 -5.00956,5.00956h-88.028c-2.76653,0 -5.00956,-2.24303 -5.00956,-5.00956v-21.54111c0,-2.76653 2.24303,-5.00956 5.00956,-5.00956h88.028c2.76653,0 5.00956,2.24303 5.00956,5.00956z" data-paper-data="{&quot;index&quot;:null}" fill="#27abe8" fill-rule="evenodd" stroke="none" stroke-width="1" stroke-linejoin="round" stroke-miterlimit="2"/><g data-paper-data="{&quot;index&quot;:null}" fill="#ffffff" fill-rule="nonzero" stroke="none" stroke-width="1" stroke-linejoin="round" stroke-miterlimit="2"><g><path d="M383.64304,39.86815c-0.42093,0 -0.76392,-0.12472 -1.02893,-0.38975c-0.26503,-0.26503 -0.38975,-0.60801 -0.38975,-1.02893v-8.34062c0,-0.42093 0.10913,-0.74831 0.34298,-0.98216c0.23385,-0.23385 0.56124,-0.34298 0.98216,-0.34298h5.23822c0.46769,0 0.81067,0.09354 1.02893,0.26503c0.21826,0.18709 0.32739,0.48329 0.32739,0.87304c0,0.38975 -0.10913,0.67037 -0.32739,0.84185c-0.23385,0.17149 -0.57683,0.26503 -1.02893,0.26503h-3.74159v2.0267h3.42979c0.45211,0 0.7951,0.09354 1.02893,0.28061c0.21826,0.18709 0.32739,0.46769 0.32739,0.85744c0,0.38975 -0.10913,0.67037 -0.32739,0.84185c-0.23385,0.17149 -0.57683,0.26503 -1.02893,0.26503h-3.42979v3.14917c0,0.43652 -0.12472,0.7795 -0.37415,1.02893c-0.26503,0.26503 -0.60801,0.38975 -1.02893,0.38975z"/></g><g><path d="M397.20629,39.9149c-1.12248,0 -2.08905,-0.23385 -2.91532,-0.70155c-0.82627,-0.45211 -1.46546,-1.1069 -1.91757,-1.96433c-0.45211,-0.84185 -0.67037,-1.83961 -0.67037,-2.97768c0,-1.13807 0.21826,-2.13582 0.67037,-2.99327c0.45211,-0.84185 1.09129,-1.49663 1.91757,-1.94875c0.82627,-0.45211 1.79284,-0.68596 2.91532,-0.68596c1.12248,0 2.10464,0.23385 2.9309,0.68596c0.82627,0.45211 1.44988,1.1069 1.90196,1.94875c0.43652,0.85744 0.65478,1.8552 0.65478,2.99327c0,1.13807 -0.21826,2.13582 -0.67037,2.97768c-0.45211,0.85744 -1.0757,1.51223 -1.90196,1.96433c-0.82627,0.46769 -1.80844,0.70155 -2.91532,0.70155zM397.20629,37.71672c0.82627,0 1.48105,-0.29621 1.94875,-0.88864c0.46769,-0.57683 0.70155,-1.43427 0.70155,-2.55675c0,-1.12248 -0.23385,-1.97992 -0.70155,-2.55675c-0.48329,-0.57683 -1.12248,-0.87304 -1.94875,-0.87304c-0.82627,0 -1.48105,0.28061 -1.94875,0.85744c-0.46769,0.57683 -0.70155,1.43427 -0.70155,2.57234c0,1.13807 0.23385,1.99551 0.70155,2.57234c0.46769,0.57683 1.12248,0.87304 1.94875,0.87304z"/></g><g><path d="M406.49785,39.7746c-0.42093,0 -0.74831,-0.10913 -0.98216,-0.34298c-0.23385,-0.23385 -0.34298,-0.56124 -0.34298,-0.99776v-8.32503c0,-0.42093 0.12472,-0.76392 0.38975,-1.02893c0.24943,-0.24943 0.59241,-0.37415 1.02893,-0.37415c0.45211,0 0.7951,0.12472 1.06011,0.37415c0.26503,0.26503 0.38975,0.60801 0.38975,1.02893v7.34286h3.58569c0.90422,0 1.35634,0.38975 1.35634,1.16925c0,0.38975 -0.10913,0.68596 -0.32739,0.87304c-0.23385,0.18709 -0.57683,0.28061 -1.02893,0.28061z"/></g><g><path d="M416.19505,39.7746c-0.42093,0 -0.74831,-0.10913 -0.98216,-0.34298c-0.23385,-0.23385 -0.34298,-0.56124 -0.34298,-0.99776v-8.32503c0,-0.42093 0.12472,-0.76392 0.38975,-1.02893c0.24943,-0.24943 0.59241,-0.37415 1.02893,-0.37415c0.45211,0 0.7951,0.12472 1.06011,0.37415c0.26503,0.26503 0.38975,0.60801 0.38975,1.02893v7.34286h3.58569c0.90422,0 1.35634,0.38975 1.35634,1.16925c0,0.38975 -0.10913,0.68596 -0.32739,0.87304c-0.23385,0.18709 -0.57683,0.28061 -1.02893,0.28061z"/></g><g><path d="M429.15,39.9149c-1.12248,0 -2.08905,-0.23385 -2.91532,-0.70155c-0.82627,-0.45211 -1.46546,-1.1069 -1.91757,-1.96433c-0.45211,-0.84185 -0.67037,-1.83961 -0.67037,-2.97768c0,-1.13807 0.21826,-2.13582 0.67037,-2.99327c0.45211,-0.84185 1.09129,-1.49663 1.91757,-1.94875c0.82627,-0.45211 1.79284,-0.68596 2.91532,-0.68596c1.12248,0 2.10464,0.23385 2.9309,0.68596c0.82627,0.45211 1.44988,1.1069 1.90196,1.94875c0.43652,0.85744 0.65478,1.8552 0.65478,2.99327c0,1.13807 -0.21826,2.13582 -0.67037,2.97768c-0.45211,0.85744 -1.0757,1.51223 -1.90196,1.96433c-0.82627,0.46769 -1.80844,0.70155 -2.91532,0.70155zM429.15,37.71672c0.82627,0 1.48105,-0.29621 1.94875,-0.88864c0.46769,-0.57683 0.70155,-1.43427 0.70155,-2.55675c0,-1.12248 -0.23385,-1.97992 -0.70155,-2.55675c-0.48329,-0.57683 -1.12248,-0.87304 -1.94875,-0.87304c-0.82627,0 -1.48105,0.28061 -1.94875,0.85744c-0.46769,0.57683 -0.70155,1.43427 -0.70155,2.57234c0,1.13807 0.23385,1.99551 0.70155,2.57234c0.46769,0.57683 1.12248,0.87304 1.94875,0.87304z"/></g><g><path d="M450.24329,29.57878c0.10913,-0.29621 0.28061,-0.51446 0.51446,-0.67037c0.21826,-0.15589 0.48329,-0.23385 0.76392,-0.23385c0.34298,0 0.63919,0.10913 0.90422,0.32739c0.24943,0.21826 0.37415,0.51446 0.37415,0.88864c0,0.17149 -0.04677,0.37415 -0.12472,0.62359l-3.13358,8.48092c-0.10913,0.29621 -0.29621,0.51446 -0.56124,0.67037c-0.28061,0.17149 -0.59241,0.24943 -0.91981,0.24943c-0.32739,0 -0.63919,-0.07795 -0.90422,-0.24943c-0.26503,-0.15589 -0.45211,-0.37415 -0.56124,-0.67037l-2.0267,-5.78387l-2.12022,5.78387c-0.10913,0.29621 -0.3118,0.51446 -0.57683,0.67037c-0.26503,0.17149 -0.56124,0.24943 -0.88864,0.24943c-0.32739,0 -0.63919,-0.07795 -0.90422,-0.24943c-0.26503,-0.15589 -0.45211,-0.37415 -0.56124,-0.67037l-3.14917,-8.48092c-0.07795,-0.20267 -0.10913,-0.40535 -0.10913,-0.59241c0,-0.38975 0.14031,-0.68596 0.42093,-0.91981c0.26503,-0.21826 0.59241,-0.32739 0.95099,-0.32739c0.29621,0 0.56124,0.07795 0.81067,0.21826c0.23385,0.15589 0.40535,0.38975 0.51446,0.68596l2.13582,6.14243l2.26055,-6.14243c0.10913,-0.29621 0.26503,-0.51446 0.51446,-0.67037c0.23385,-0.15589 0.48329,-0.23385 0.76392,-0.23385c0.28061,0 0.53007,0.07795 0.76392,0.23385c0.23385,0.15589 0.38975,0.38975 0.49887,0.68596l2.12022,6.26715z"/></g></g><path d="M260.72477,36.18151c-3.90006,-3.94965 -3.88502,-10.32312 0.04605,-14.25419c3.94612,-3.94612 10.35413,-3.94612 14.30112,0.00089l0.01329,0.01329c3.96914,-3.51751 10.05037,-3.3767 13.85036,0.4233c3.79911,3.79911 3.9408,9.88123 0.4233,13.85036l0.01329,0.01329l-12.5291,12.5291c-0.46935,0.46935 -1.10697,0.73325 -1.77115,0.73325c-0.66418,0 -1.30179,-0.2639 -1.77115,-0.73325l-12.5291,-12.5291z" data-paper-data="{&quot;index&quot;:null}" fill="#ff363f" fill-rule="evenodd" stroke="none" stroke-width="1" stroke-linejoin="round" stroke-miterlimit="2"/><path d="M320.60916,17.8419c0.33438,-1.0313 1.29647,-1.73058 2.38174,-1.73058c1.08527,0 2.04736,0.69927 2.38174,1.73058c0.887,2.7302 1.81622,5.58946 2.38995,7.35523c0.33556,1.03249 1.29763,1.73058 2.38292,1.73058c1.85612,0 4.8632,0 7.73302,0c1.08527,0 2.04618,0.69927 2.38174,1.73058c0.33556,1.03249 -0.03167,2.16234 -0.90929,2.8006c-2.3219,1.68716 -4.75526,3.45411 -6.25704,4.54524c-0.8776,0.63826 -1.24483,1.76929 -0.90929,2.8006c0.57374,1.76576 1.50295,4.62503 2.38878,7.35523c0.33556,1.0313 -0.03167,2.16234 -0.90929,2.8006c-0.8776,0.63708 -2.0673,0.63708 -2.94491,0c-2.3219,-1.68716 -4.7541,-3.45528 -6.25588,-4.54643c-0.8776,-0.63708 -2.0673,-0.63708 -2.94491,0c-1.50178,1.09113 -3.93398,2.85926 -6.25588,4.54643c-0.8776,0.63708 -2.0673,0.63708 -2.94491,0c-0.8776,-0.63826 -1.24483,-1.76929 -0.90929,-2.8006c0.88582,-2.7302 1.81505,-5.58946 2.38878,-7.35523c0.33556,-1.0313 -0.03167,-2.16234 -0.90929,-2.8006c-1.50178,-1.09113 -3.93516,-2.85808 -6.25704,-4.54524c-0.8776,-0.63826 -1.24483,-1.76811 -0.90929,-2.8006c0.33556,-1.0313 1.29647,-1.73058 2.38174,-1.73058c2.86981,0 5.87691,0 7.73302,0c1.08527,0 2.04736,-0.69809 2.38292,-1.73058c0.57374,-1.76576 1.50295,-4.62503 2.38995,-7.35523z" data-paper-data="{&quot;index&quot;:null}" fill="#ffbc3f" fill-rule="evenodd" stroke="none" stroke-width="1" stroke-linejoin="round" stroke-miterlimit="2"/><text transform="translate(270.39583,78.72759) scale(0.61942,0.61942)" font-size="40" xml:space="preserve" fill="#000000" fill-rule="nonzero" stroke="#000000" stroke-width="1" stroke-linecap="butt" stroke-linejoin="miter" stroke-miterlimit="10" stroke-dasharray="" stroke-dashoffset="0" font-family="Sans Serif" font-weight="normal" text-anchor="start" style="mix-blend-mode: normal"><tspan x="0" dy="0">What is admin?</tspan></text><path d="M362.42159,43.15009c0,-1.0796 0,-4.10402 0,-4.10402h15.98293c0,0 0,3.02442 0,4.10402c0,0.70365 -0.91637,1.74339 -1.80201,1.74339c-1.89301,0 -9.13418,0 -12.47448,0c-1.04361,0 -1.70644,-1.03975 -1.70644,-1.74339z" fill="#ffffff" fill-rule="nonzero" stroke="none" stroke-width="0" stroke-linejoin="miter" stroke-miterlimit="10"/><path d="M362.42159,39.63081c0,-4.09062 3.5779,-7.40672 7.99146,-7.40672c4.41356,0 7.99146,3.70593 7.99146,7.79655c0,4.09062 -3.96773,4.09319 -8.38129,4.09319c-4.41356,0 -7.60164,-0.3924 -7.60164,-4.48302z" fill="#ffffff" fill-rule="nonzero" stroke="none" stroke-width="0" stroke-linejoin="miter" stroke-miterlimit="10"/><path d="M365.42485,27.05887c0,-2.74502 2.13801,-4.9703 4.77539,-4.9703c2.63737,0 4.77539,2.22528 4.77539,4.9703c0,2.74502 -2.13801,4.9703 -4.77539,4.9703c-2.63737,0 -4.77539,-2.22528 -4.77539,-4.9703z" fill="#ffffff" fill-rule="nonzero" stroke="none" stroke-width="0" stroke-linejoin="miter" stroke-miterlimit="10"/><text transform="translate(261.72488,93.41529) scale(0.28086,0.28086)" font-size="40" xml:space="preserve" fill="#000000" fill-rule="nonzero" stroke="none" stroke-width="1" stroke-linecap="butt" stroke-linejoin="miter" stroke-miterlimit="10" stroke-dasharray="" stroke-dashoffset="0" font-family="Sans Serif" font-weight="normal" text-anchor="start" style="mix-blend-mode: normal"><tspan x="0" dy="0">- Free stuff each time you connect</tspan><tspan x="0" dy="46.150000000000006px">-custom chat</tspan><tspan x="0" dy="46.150000000000006px">-custom jump height</tspan><tspan x="0" dy="46.150000000000006px">- admin recognizes you each time you</tspan><tspan x="0" dy="46.150000000000006px"> connect</tspan><tspan x="0" dy="46.150000000000006px"> </tspan></text></g></g></svg>