<svg version="1.1" xmlns="http://www.w3.org/2000/svg" xmlns:xlink="http://www.w3.org/1999/xlink" width="37.54645" height="25.94388" viewBox="0,0,37.54645,25.94388"><g transform="translate(-220.3518,-165.09055)"><g data-paper-data="{&quot;isPaintingLayer&quot;:true}" fill-rule="nonzero" stroke="none" stroke-width="1" stroke-linecap="butt" stroke-linejoin="miter" stroke-miterlimit="10" stroke-dasharray="" stroke-dashoffset="0" style="mix-blend-mode: normal"><path d="M229.46976,184.0715v-0.45757c-0.05364,-0.21355 -0.03577,-0.45757 0.05364,-0.73211l0.10728,-0.34318l0.53638,-0.50334c0.1788,-0.12202 0.39335,-0.18303 0.64365,-0.18303l0.13409,-0.04575l10.83483,-2.47087l2.01142,0.45757l-12.84624,2.92844l-0.13409,0.04575c-0.25032,0 -0.46486,0.06101 -0.64365,0.18303l-0.53638,0.50334l-0.10728,0.34318l-0.05364,0.27454M229.46976,175.37767v-0.45757c-0.05364,-0.21355 -0.03577,-0.45757 0.05364,-0.73211l0.64365,-0.84651c0.32183,-0.21355 0.76881,-0.25166 1.34094,-0.11438l17.62,4.02662c0.51849,0.10677 0.87609,0.30503 1.07275,0.59485l0.02682,-0.02288l0.02682,0.11438l0.26819,0.82363l0.08046,0.75498v0.43469l-0.08046,-0.27454l-0.26819,-0.82363l-0.02682,-0.11438l-0.02682,0.02288c-0.19667,-0.28979 -0.55426,-0.48806 -1.07275,-0.59485l-17.62,-4.02662c-0.57213,-0.13726 -1.01912,-0.09914 -1.34094,0.11438l-0.64365,0.84651l-0.05364,0.27454M239.20501,183.68256l9.92298,2.26498c0.57213,0.12202 1.04594,0.36604 1.4214,0.73211l-0.10728,0.36604l0.10728,0.09153l-0.10728,0.36604c-0.35758,-0.32029 -0.79563,-0.53383 -1.31412,-0.6406l-11.9344,-2.72255l2.01142,-0.45757" data-paper-data="{&quot;origPos&quot;:null}" fill="#bbcbcc"/><path d="M239.20501,183.58247l-2.01142,0.5548l11.9344,3.30105c0.51849,0.12946 0.95654,0.38836 1.31412,0.77672l0.10728,0.11096l-0.29501,1.13733c-0.26819,1.07261 -0.92078,1.47021 -1.95778,1.19281l-17.62,-4.88222c-0.92971,-0.25891 -1.33201,-0.83221 -1.20685,-1.71987l0.05364,-0.33289l0.10728,-0.41609l0.53638,-0.61028c0.1788,-0.14794 0.39335,-0.22191 0.64365,-0.22191l0.13409,-0.05548l12.84624,-3.55071l-2.01142,-0.5548l-11.10301,-3.07914c-0.92971,-0.25891 -1.33201,-0.83221 -1.20685,-1.71987l0.05364,-0.33289l0.64365,-1.02638c0.32183,-0.25891 0.76881,-0.30514 1.34094,-0.1387l17.62,4.88222c0.51849,0.12946 0.87609,0.36986 1.07275,0.72123l0.02682,-0.02775l0.02682,0.1387l0.26819,0.99864l0.08046,0.33289c0.12516,0.88767 -0.27714,1.45171 -1.20685,1.69213l-10.19117,2.82948" data-paper-data="{&quot;origPos&quot;:null}" fill="#acc0c1"/><path d="M228.77247,188.29891c0.01788,-1.037 0.55426,-1.55549 1.60913,-1.55549h18.23683c1.05487,0 1.59125,0.51849 1.60913,1.55549h-0.32183c-0.26819,-0.32183 -0.69729,-0.48274 -1.28731,-0.48274h-18.23683c-0.59002,0 -1.01018,0.16091 -1.26049,0.48274h-0.34865" data-paper-data="{&quot;origPos&quot;:null}" fill="#bbcbcc"/><path d="M228.77247,188.29891h0.34865c0.25032,-0.32183 0.67047,-0.48274 1.26049,-0.48274h18.23683c0.59002,0 1.01912,0.16091 1.28731,0.48274h0.32183v1.12639c0,1.07275 -0.53638,1.60913 -1.60913,1.60913h-18.23683c-1.07275,0 -1.60913,-0.53638 -1.60913,-1.60913v-1.12639" data-paper-data="{&quot;origPos&quot;:null}" fill="#acc0c1"/><g><path d="M220.35181,170.96388c0.05364,-1.35883 0.39335,-2.43158 1.01912,-3.21826c0.84032,-1.07275 2.22597,-1.60913 4.15693,-1.60913h27.19435c1.93096,0 3.32554,0.53638 4.18374,1.60913c0.6079,0.78668 0.93866,1.85944 0.9923,3.21826v0.05364v0.40228h-0.02682c-0.08939,1.10851 -0.3844,2.00248 -0.88502,2.68189l-0.67047,0.69729c-0.8582,0.67941 -2.05612,1.01912 -3.59373,1.01912h-27.19435c-1.53761,0 -2.73553,-0.33971 -3.59373,-1.01912l-0.64365,-0.67047c-0.51849,-0.67941 -0.82245,-1.58231 -0.91184,-2.70871h-0.02682v-0.45592" data-paper-data="{&quot;origPos&quot;:null}" fill="#e86a17"/><path d="M220.35181,170.96388v-1.07275c0.03577,-0.82245 0.16985,-1.53761 0.40228,-2.14551c0.69729,-1.77005 2.28854,-2.65507 4.77376,-2.65507h27.19435c2.48522,0 4.07647,0.88502 4.77376,2.65507c0.23242,0.6079 0.36653,1.32306 0.40228,2.14551v1.07275c-0.05364,-1.35883 -0.3844,-2.43158 -0.9923,-3.21826c-0.8582,-1.07275 -2.25279,-1.60913 -4.18374,-1.60913h-27.19435c-1.93096,0 -3.3166,0.53638 -4.15693,1.60913c-0.62577,0.78668 -0.96548,1.85944 -1.01912,3.21826" data-paper-data="{&quot;origPos&quot;:null}" fill="#ef975c"/></g></g></g></svg>