<svg version="1.1" xmlns="http://www.w3.org/2000/svg" xmlns:xlink="http://www.w3.org/1999/xlink" width="138.55844" height="42.10603" viewBox="0,0,138.55844,42.10603"><g transform="translate(-170.72077,-159.32101)"><g data-paper-data="{&quot;isPaintingLayer&quot;:true}" stroke="none" stroke-width="1" stroke-miterlimit="10" stroke-dasharray="" stroke-dashoffset="0" style="mix-blend-mode: normal"><g><path d="M176.06894,162.75883c6.36125,-4.14735 19.25413,-3.38224 19.25413,-3.38224l86.96127,0.33734c0,0 13.82697,-0.48404 20.72401,3.56546c6.89701,4.04949 6.20844,11.39807 6.20844,11.39807l0.05281,9.31041c0,0 0.51367,8.9405 -5.96671,13.05763c-6.48038,4.11713 -20.46316,3.43462 -20.46316,3.43462l-88.63868,0.19664c0,0 -11.6303,0.20973 -17.36021,-3.43249c-5.72991,-3.64221 -5.6054,-11.16556 -5.6054,-11.16556l-0.44479,-10.70775c0,0 -1.08299,-8.4648 5.2783,-12.61213z" data-paper-data="{&quot;origRot&quot;:0,&quot;index&quot;:null}" fill="#000000" fill-rule="evenodd" stroke-linecap="round" stroke-linejoin="round" opacity="0.42445"/><text transform="translate(200.69442,192.74449) scale(0.68182,0.68182)" font-size="40" xml:space="preserve" fill="#ffffff" fill-rule="nonzero" stroke="none" stroke-width="1" stroke-linecap="butt" stroke-linejoin="miter" stroke-miterlimit="10" stroke-dasharray="" stroke-dashoffset="0" font-family="Sans Serif" font-weight="normal" text-anchor="start" style="mix-blend-mode: normal"><tspan x="0" dy="0">Menu</tspan></text></g></g></g></svg>