<svg version="1.1" xmlns="http://www.w3.org/2000/svg" xmlns:xlink="http://www.w3.org/1999/xlink" width="527.32259" height="316.54559" viewBox="0,0,527.32259,316.54559"><defs><linearGradient x1="130.3703" y1="388.28995" x2="112.56368" y2="399.01279" gradientUnits="userSpaceOnUse" id="color-1"><stop offset="0" stop-color="#8e8e8e"/><stop offset="1" stop-color="#818181"/></linearGradient><linearGradient x1="-3.95198" y1="284.04542" x2="519.67222" y2="284.04542" gradientUnits="userSpaceOnUse" id="color-2"><stop offset="0" stop-color="#8bce39"/><stop offset="1" stop-color="#8bce39"/></linearGradient><linearGradient x1="375.29781" y1="312.99791" x2="339.44512" y2="368.26424" gradientUnits="userSpaceOnUse" id="color-3"><stop offset="0" stop-color="#8e8e8e"/><stop offset="1" stop-color="#818181"/></linearGradient><linearGradient x1="424.19674" y1="313.09785" x2="376.77751" y2="347.08394" gradientUnits="userSpaceOnUse" id="color-4"><stop offset="0" stop-color="#8e8e8e"/><stop offset="1" stop-color="#818181"/></linearGradient><linearGradient x1="166.20457" y1="323.81476" x2="196.1909" y2="355.85914" gradientUnits="userSpaceOnUse" id="color-5"><stop offset="0" stop-color="#8e8e8e"/><stop offset="1" stop-color="#818181"/></linearGradient><linearGradient x1="76.2336" y1="316.56511" x2="59.17679" y2="366.88267" gradientUnits="userSpaceOnUse" id="color-6"><stop offset="0" stop-color="#8e8e8e"/><stop offset="1" stop-color="#818181"/></linearGradient></defs><g transform="translate(6.13878,-103.70842)"><g data-paper-data="{&quot;isPaintingLayer&quot;:true}" fill-rule="nonzero" stroke-linejoin="miter" stroke-miterlimit="10" stroke-dasharray="" stroke-dashoffset="0" style="mix-blend-mode: normal"><g stroke="none" stroke-linecap="butt"><path d="M104.55314,394.58572l7.19968,-7.86422l19.29705,3.77381l-6.90397,12.029l-13.95952,-0.75551z" data-paper-data="{&quot;origPos&quot;:null,&quot;origRot&quot;:0}" fill="#534c42" stroke-width="0"/><path d="M107.07808,393.72632l6.46128,-7.05764l17.31789,3.38678l-6.19593,10.79525l-12.52785,-0.67802z" data-paper-data="{&quot;origPos&quot;:null,&quot;origRot&quot;:0}" fill="url(#color-1)" stroke-width="NaN"/></g><path d="M-5.01943,353.67134v-74.52655c0,0 52.9925,7.45265 94.10246,7.45265c43.34156,0 154.76266,-7.67744 247.57997,-9.4622c100.65208,-1.93542 181.35226,2.00956 181.35226,2.00956v74.52655z" fill="#9a8a7e" stroke="none" stroke-width="0" stroke-linecap="butt"/><path d="M-5.33361,417.59973v-74.52655c0,0 53.06109,7.45265 94.22426,7.45265c43.39766,0 154.96293,-7.67744 247.90029,-9.4622c100.78234,-1.93542 181.58693,2.00956 181.58693,2.00956v74.52655z" fill="#887c6d" stroke="none" stroke-width="0" stroke-linecap="butt"/><path d="M-4.75392,420.254v-37.05188c0,0 52.87651,3.70519 93.89651,3.70519c43.24672,0 154.42393,-3.81693 247.03808,-4.70428c100.43179,-0.96221 180.95535,0.9991 180.95535,0.9991v37.05188z" fill="#807566" stroke="none" stroke-width="0" stroke-linecap="butt"/><path d="M-4.05036,290.69768v-32.95167h525.23418v32.95167z" fill="#8bce39" stroke="none" stroke-width="0" stroke-linecap="butt"/><path d="M-6.13878,290.69768v-13.30453h523.6242v13.30453z" fill="url(#color-2)" stroke="none" stroke-width="0" stroke-linecap="butt"/><g stroke="none" stroke-linecap="butt"><path d="M313.62506,355.27855l9.70801,-36.16014l59.74339,0.37413l-3.21961,52.24412l-40.53919,7.45925z" data-paper-data="{&quot;origPos&quot;:null,&quot;origRot&quot;:0}" fill="#534c42" stroke-width="0"/><path d="M320.74698,350.02993l8.71234,-32.45141l53.61582,0.33577l-2.88945,46.88573l-36.38131,6.69417z" data-paper-data="{&quot;origPos&quot;:null,&quot;origRot&quot;:0}" fill="url(#color-3)" stroke-width="NaN"/></g><g stroke="none" stroke-linecap="butt"><path d="M358.34082,332.4962l19.17292,-24.92571l51.38858,11.96112l-18.38546,38.12603l-37.17459,-2.39454z" data-paper-data="{&quot;origPos&quot;:null,&quot;origRot&quot;:0}" fill="#534c42" stroke-width="0"/><path d="M365.80587,330.32843l17.20653,-22.36922l46.11792,10.73433l-16.49985,34.21564l-33.36179,-2.14891z" data-paper-data="{&quot;origPos&quot;:null,&quot;origRot&quot;:0}" fill="url(#color-4)" stroke-width="NaN"/></g><g stroke="none" stroke-linecap="butt"><path d="M180.33716,365.47786l-23.79949,-13.73023l15.20194,-31.35114l37.08617,14.15045l-4.72132,23.1124z" data-paper-data="{&quot;origRot&quot;:0}" fill="#534c42" stroke-width="0"/><path d="M177.28657,360.2009l-20.5787,-12.32205l13.14458,-28.13558l32.06725,12.69916l-4.08231,20.74185z" data-paper-data="{&quot;origRot&quot;:0}" fill="url(#color-5)" stroke-width="NaN"/></g><g stroke="none" stroke-linecap="butt"><path d="M33.5326,360.50707l-0.70186,-30.4996l51.63375,-10.22854l10.33669,42.16174l-33.10024,13.08147z" data-paper-data="{&quot;origRot&quot;:0}" fill="#534c42" stroke-width="0"/><path d="M38.16874,355.27452l-0.62987,-27.37144l46.33794,-9.17942l9.27643,37.83744l-29.70531,11.73975z" data-paper-data="{&quot;origRot&quot;:0}" fill="url(#color-6)" stroke-width="NaN"/></g><g><path d="M134.70194,213.83478c0,0 -6.64559,-11.38716 -5.11993,-16.63273c1.54609,-5.31582 14.336,-9.05424 14.336,-9.05424l151.71337,40.7921c0,0 -11.69026,8.54187 -13.27823,14.00168c-1.47583,5.07426 6.72882,15.01863 6.72882,15.01863z" fill="#a88c20" stroke="none" stroke-width="0" stroke-linecap="butt"/><path d="M295.49999,228.22068c3.6819,0 5,9.45211 5,17c0,7.54789 -8.3181,13 -12,13c-3.68189,0 -7.33333,-8.11878 -7.33333,-15.66667c0,-7.54789 10.65143,-14.33333 14.33333,-14.33333z" fill="#e6c12c" stroke="none" stroke-width="0" stroke-linecap="butt"/><path d="M144.5,197.22067l54.66667,16" fill="none" stroke="#a88c20" stroke-width="1.5" stroke-linecap="round"/><path d="M147.16666,194.22067l79,22.33333" fill="none" stroke="#9a811d" stroke-width="1.5" stroke-linecap="round"/><path d="M200.83333,221.22067l61.33333,17.33333" fill="none" stroke="#9a811d" stroke-width="1.5" stroke-linecap="round"/><path d="M143.16666,209.22067l37.33333,12" fill="none" stroke="#9a811d" stroke-width="1.5" stroke-linecap="round"/><path d="M250.16666,222.88734l24.33333,6.33333" fill="none" stroke="#9a811d" stroke-width="1.5" stroke-linecap="round"/></g><g data-paper-data="{&quot;index&quot;:null}"><path d="M140.58288,257.85763c0,0 -11.47734,-6.4886 -12.80208,-11.78848c-1.34248,-5.37086 7.82244,-15.04359 7.82244,-15.04359l151.60481,-41.19372c0,0 -5.7951,13.2681 -4.41626,18.78443c1.28147,5.1268 13.37872,9.58363 13.37872,9.58363z" fill="#a88c20" stroke="none" stroke-width="0" stroke-linecap="butt"/><path d="M286.73223,189.27674c3.18053,-1.85489 9.08098,5.64607 12.88351,12.16615c3.80252,6.52008 -0.63619,15.42031 -3.81672,17.2752c-3.18053,1.85489 -10.42487,-3.3188 -14.22739,-9.83888c-3.80252,-6.52008 1.98008,-17.74759 5.16061,-19.60248z" fill="#e6c12c" stroke="none" stroke-width="0" stroke-linecap="butt"/><path d="M140.67677,238.56977l55.2832,-13.71906" fill="none" stroke="#a88c20" stroke-width="1.5" stroke-linecap="round"/><path d="M141.46895,234.63486l79.49367,-20.50694" fill="none" stroke="#9a811d" stroke-width="1.5" stroke-linecap="round"/><path d="M201.42997,230.9217l61.71377,-15.92586" fill="none" stroke="#9a811d" stroke-width="1.5" stroke-linecap="round"/><path d="M183.86546,241.16535l-38.29503,8.44208" fill="none" stroke="#9a811d" stroke-width="1.5" stroke-linecap="round"/><path d="M244.88514,207.50796l24.21047,-6.78788" fill="none" stroke="#9a811d" stroke-width="1.5" stroke-linecap="round"/></g><g><path d="M132.86947,130.87371c0,0 -9.24451,-9.40055 -9.05725,-14.86027c0.18977,-5.53284 11.66562,-12.30502 11.66562,-12.30502l157.08649,2.18527c0,0 -9.22745,11.15705 -9.42236,16.83976c-0.18115,5.28142 10.21924,12.89974 10.21924,12.89974z" fill="#a88c20" stroke="none" stroke-width="0" stroke-linecap="butt"/><path d="M281.89657,122.64992c-1.85826,-7.31557 6.79477,-16.5145 10.36334,-17.42097c3.56858,-0.90647 7.17318,7.93019 9.03144,15.24576c1.85826,7.31556 -4.86152,14.64774 -8.43009,15.55421c-3.56857,0.90647 -9.10643,-6.06344 -10.96469,-13.37901z" fill="#e6c12c" stroke="none" stroke-width="0" stroke-linecap="butt"/><path d="M138.27561,112.35875l56.92316,2.0488" fill="none" stroke="#a88c20" stroke-width="1.5" stroke-linecap="round"/><path d="M140.12161,108.79457l82.06676,2.19642" fill="none" stroke="#9a811d" stroke-width="1.5" stroke-linecap="round"/><path d="M198.78372,121.75098l63.71289,1.69978" fill="none" stroke="#9a811d" stroke-width="1.5" stroke-linecap="round"/><path d="M139.93767,124.31765l39.13857,2.43932" fill="none" stroke="#9a811d" stroke-width="1.5" stroke-linecap="round"/><path d="M247.0089,111.22067l25.1436,0.14762" fill="none" stroke="#9a811d" stroke-width="1.5" stroke-linecap="round"/></g><g><path d="M132.70194,152.83478c0,0 -6.64558,-11.38716 -5.11992,-16.63273c1.54609,-5.31582 14.336,-9.05424 14.336,-9.05424l151.71336,40.7921c0,0 -11.69025,8.54188 -13.27822,14.00168c-1.47584,5.07426 6.72882,15.01863 6.72882,15.01863z" fill="#a88c20" stroke="none" stroke-width="0" stroke-linecap="butt"/><path d="M279.16666,181.55402c0,-7.54789 10.65144,-14.33334 14.33334,-14.33334c3.6819,0 5,9.45211 5,17c0,7.54789 -8.3181,13 -12,13c-3.6819,0 -7.33334,-8.11878 -7.33334,-15.66667z" fill="#e6c12c" stroke="none" stroke-width="0" stroke-linecap="butt"/><path d="M142.5,136.22068l54.66666,16" fill="none" stroke="#a88c20" stroke-width="1.5" stroke-linecap="round"/><path d="M145.16666,133.22068l79,22.33334" fill="none" stroke="#9a811d" stroke-width="1.5" stroke-linecap="round"/><path d="M198.83333,160.22068l61.33333,17.33334" fill="none" stroke="#9a811d" stroke-width="1.5" stroke-linecap="round"/><path d="M141.16666,148.22068l37.33334,12" fill="none" stroke="#9a811d" stroke-width="1.5" stroke-linecap="round"/><path d="M248.16666,161.88734l24.33334,6.33334" fill="none" stroke="#9a811d" stroke-width="1.5" stroke-linecap="round"/></g><g data-paper-data="{&quot;index&quot;:null}"><path d="M138.58288,196.85763c0,0 -11.47734,-6.48859 -12.80208,-11.78847c-1.34248,-5.37086 7.82245,-15.04359 7.82245,-15.04359l151.60481,-41.19372c0,0 -5.7951,13.2681 -4.41625,18.78444c1.28148,5.12679 13.37872,9.58363 13.37872,9.58363z" fill="#a88c20" stroke="none" stroke-width="0" stroke-linecap="butt"/><path d="M284.73223,128.27675c3.18053,-1.85489 9.08098,5.64607 12.8835,12.16615c3.80253,6.52008 -0.63619,15.42031 -3.81672,17.27521c-3.18053,1.85489 -10.42487,-3.3188 -14.22739,-9.83888c-3.80253,-6.52008 1.98008,-17.74758 5.16061,-19.60247z" fill="#e6c12c" stroke="none" stroke-width="0" stroke-linecap="butt"/><path d="M138.67676,177.56978l55.2832,-13.71905" fill="none" stroke="#a88c20" stroke-width="1.5" stroke-linecap="round"/><path d="M139.46895,173.63486l79.49366,-20.50694" fill="none" stroke="#9a811d" stroke-width="1.5" stroke-linecap="round"/><path d="M199.42997,169.9217l61.71376,-15.92585" fill="none" stroke="#9a811d" stroke-width="1.5" stroke-linecap="round"/><path d="M143.57043,188.60743l38.29503,-8.44207" fill="none" stroke="#9a811d" stroke-width="1.5" stroke-linecap="round"/><path d="M242.88515,146.50797l24.21047,-6.78789" fill="none" stroke="#9a811d" stroke-width="1.5" stroke-linecap="round"/></g></g></g></svg>