<svg version="1.1" xmlns="http://www.w3.org/2000/svg" xmlns:xlink="http://www.w3.org/1999/xlink" width="117.32956" height="67.97491" viewBox="0,0,117.32956,67.97491"><defs><linearGradient x1="322.4324" y1="104.35385" x2="334.67898" y2="116.41803" gradientUnits="userSpaceOnUse" id="color-1"><stop offset="0" stop-color="#e7b215"/><stop offset="1" stop-color="#b07e00"/></linearGradient><radialGradient cx="325.10832" cy="105.7644" r="9.86005" gradientUnits="userSpaceOnUse" id="color-2"><stop offset="0" stop-color="#fffd00"/><stop offset="1" stop-color="#ffcf19"/></radialGradient><linearGradient x1="328.55228" y1="105.84949" x2="328.55228" y2="114.60569" gradientUnits="userSpaceOnUse" id="color-3"><stop offset="0" stop-color="#e2ae13"/><stop offset="1" stop-color="#b28001"/></linearGradient></defs><g transform="translate(-258.33522,-96.76663)"><g data-paper-data="{&quot;isPaintingLayer&quot;:true}" fill-rule="nonzero" stroke-linecap="butt" stroke-miterlimit="10" stroke-dasharray="" stroke-dashoffset="0" style="mix-blend-mode: normal"><path d="M265.83522,157.24154v-52.77629h102.32956v52.77629z" data-paper-data="{&quot;zoomLevel&quot;:2.5}" fill="#404040" stroke="#404040" stroke-width="15" stroke-linejoin="round"/><text transform="translate(293.29703,117.24192) scale(0.47721,0.47721)" font-size="40" xml:space="preserve" fill="#ffffff" fill-rule="nonzero" stroke="none" stroke-width="1" stroke-linecap="butt" stroke-linejoin="miter" stroke-miterlimit="10" stroke-dasharray="" stroke-dashoffset="0" font-family="Sans Serif" font-weight="normal" text-anchor="start" style="mix-blend-mode: normal"><tspan x="0" dy="0">10</tspan></text><text transform="translate(262.7626,136.64064) scale(0.35495,0.35495)" font-size="40" xml:space="preserve" fill="#ffffff" fill-rule="nonzero" stroke="none" stroke-width="1" stroke-linecap="butt" stroke-linejoin="miter" stroke-miterlimit="10" stroke-dasharray="" stroke-dashoffset="0" font-family="Sans Serif" font-weight="normal" text-anchor="start" style="mix-blend-mode: normal"><tspan x="0" dy="0">Type: Black Skin</tspan><tspan x="0" dy="48px">Full Animation</tspan></text><g stroke="none" stroke-width="0" stroke-linejoin="miter"><path d="M322.57072,116.55744c-3.3818,-3.33143 -3.44372,-8.79516 -0.13833,-12.20358c3.30541,-3.40842 8.72645,-3.47084 12.10824,-0.13941c3.3818,3.33143 3.44372,8.79516 0.13833,12.20358c-3.30541,3.40842 -8.72645,3.47084 -12.10824,0.13941z" data-paper-data="{&quot;origPos&quot;:null,&quot;origRot&quot;:0}" fill="url(#color-1)"/><path d="M323.77561,115.315c-2.70098,-2.66076 -2.75043,-7.02453 -0.11047,-9.74678c2.63997,-2.72225 6.96965,-2.7721 9.67063,-0.11134c2.70098,2.66076 2.75043,7.02453 0.11047,9.74678c-2.63997,2.72225 -6.96966,2.7721 -9.67063,0.11134z" data-paper-data="{&quot;origPos&quot;:null,&quot;origRot&quot;:0}" fill="url(#color-2)"/><path d="M327.01382,114.60569v-8.75619h3.07692v8.75619z" data-paper-data="{&quot;origPos&quot;:null}" fill="url(#color-3)"/></g></g></g></svg>