<svg version="1.1" xmlns="http://www.w3.org/2000/svg" xmlns:xlink="http://www.w3.org/1999/xlink" width="488.27755" height="162.508" viewBox="0,0,488.27755,162.508"><defs><linearGradient x1="121.94364" y1="388.28995" x2="105.7596" y2="399.01279" gradientUnits="userSpaceOnUse" id="color-1"><stop offset="0" stop-color="#8e8e8e"/><stop offset="1" stop-color="#818181"/></linearGradient><linearGradient x1="348.75951" y1="312.99791" x2="315.49252" y2="368.26424" gradientUnits="userSpaceOnUse" id="color-2"><stop offset="0" stop-color="#8e8e8e"/><stop offset="1" stop-color="#818181"/></linearGradient><linearGradient x1="394.13186" y1="313.09785" x2="350.1325" y2="347.08394" gradientUnits="userSpaceOnUse" id="color-3"><stop offset="0" stop-color="#8e8e8e"/><stop offset="1" stop-color="#818181"/></linearGradient><linearGradient x1="154.74609" y1="323.81476" x2="182.56979" y2="355.85914" gradientUnits="userSpaceOnUse" id="color-4"><stop offset="0" stop-color="#8e8e8e"/><stop offset="1" stop-color="#818181"/></linearGradient><linearGradient x1="71.26382" y1="316.56511" x2="55.43715" y2="366.88267" gradientUnits="userSpaceOnUse" id="color-5"><stop offset="0" stop-color="#8e8e8e"/><stop offset="1" stop-color="#818181"/></linearGradient></defs><g transform="translate(3.13878,-257.74601)"><g data-paper-data="{&quot;isPaintingLayer&quot;:true}" fill-rule="nonzero" stroke="none" stroke-linecap="butt" stroke-linejoin="miter" stroke-miterlimit="10" stroke-dasharray="" stroke-dashoffset="0" style="mix-blend-mode: normal"><g><path d="M100.46654,394.58572l6.54362,-7.86422l17.53865,3.77381l-6.27486,12.029l-12.68749,-0.75551z" data-paper-data="{&quot;origPos&quot;:null,&quot;origRot&quot;:0}" fill="#534c42" stroke-width="0"/><path d="M102.76141,393.72632l5.8725,-7.05764l15.73983,3.38678l-5.63134,10.79525l-11.38627,-0.67802z" data-paper-data="{&quot;origPos&quot;:null,&quot;origRot&quot;:0}" fill="url(#color-1)" stroke-width="NaN"/></g><path d="M-2.10016,353.67134v-74.52655c0,0 49.17067,7.45265 87.31579,7.45265c40.21577,0 143.60118,-7.67744 229.7245,-9.4622c93.39305,-1.93542 168.27313,2.00956 168.27313,2.00956v74.52655z" fill="#7c7262" stroke-width="0"/><path d="M-2.39168,417.59973v-74.52655c0,0 49.23433,7.45265 87.4288,7.45265c40.26782,0 143.78701,-7.67744 230.02173,-9.4622c93.51392,-1.93542 168.49088,2.00956 168.49088,2.00956v74.52655z" fill="#786e5f" stroke-width="0"/><path d="M-1.8538,420.254v-37.05188c0,0 49.06306,3.70519 87.1247,3.70519c40.12776,0 143.28688,-3.81693 229.2217,-4.70428c93.18865,-0.96221 167.90485,0.9991 167.90485,0.9991v37.05188z" fill="#6f6558" stroke-width="0"/><path d="M-2.21552,290.69768v-32.95167h487.35429v32.95167z" fill="#949494" stroke-width="0"/><path d="M-3.13878,290.69768v-13.30453h485.86043v13.30453z" fill="#b5b5b5" stroke-width="0"/><g><path d="M293.56369,355.27855l9.00787,-36.16014l55.4347,0.37413l-2.98741,52.24412l-37.61551,7.45925z" data-paper-data="{&quot;origPos&quot;:null,&quot;origRot&quot;:0}" fill="#534c42" stroke-width="0"/><path d="M300.17198,350.02993l8.084,-32.45141l49.74905,0.33577l-2.68107,46.88573l-33.75749,6.69417z" data-paper-data="{&quot;origPos&quot;:null,&quot;origRot&quot;:0}" fill="url(#color-2)" stroke-width="NaN"/></g><g><path d="M335.05455,332.4962l17.79018,-24.92571l47.68243,11.96112l-17.05951,38.12603l-34.49355,-2.39454z" data-paper-data="{&quot;origPos&quot;:null,&quot;origRot&quot;:0}" fill="#534c42" stroke-width="0"/><path d="M341.98123,330.32843l15.9656,-22.36922l42.79189,10.73433l-15.30989,34.21564l-30.95575,-2.14891z" data-paper-data="{&quot;origPos&quot;:null,&quot;origRot&quot;:0}" fill="url(#color-3)" stroke-width="NaN"/></g><g><path d="M169.88852,365.47786l-22.08306,-13.73023l14.10556,-31.35114l34.41151,14.15045l-4.38081,23.1124z" data-paper-data="{&quot;origRot&quot;:0}" fill="#534c42" stroke-width="0"/><path d="M167.05794,360.2009l-19.09457,-12.32205l12.19659,-28.13558l29.75456,12.69916l-3.7879,20.74185z" data-paper-data="{&quot;origRot&quot;:0}" fill="url(#color-4)" stroke-width="NaN"/></g><g><path d="M33.67149,360.50707l-0.65124,-30.4996l47.90992,-10.22854l9.59121,42.16174l-30.71305,13.08147z" data-paper-data="{&quot;origRot&quot;:0}" fill="#534c42" stroke-width="0"/><path d="M37.97328,355.27452l-0.58444,-27.37144l42.99605,-9.17942l8.60742,37.83744l-27.56296,11.73975z" data-paper-data="{&quot;origRot&quot;:0}" fill="url(#color-5)" stroke-width="NaN"/></g></g></g></svg>