<svg version="1.1" xmlns="http://www.w3.org/2000/svg" xmlns:xlink="http://www.w3.org/1999/xlink" width="268.5" height="243.5" viewBox="0,0,268.5,243.5"><defs><linearGradient x1="236.40969" y1="156.94645" x2="236.40969" y2="188.52501" gradientUnits="userSpaceOnUse" id="color-1"><stop offset="0" stop-color="#ffffff"/><stop offset="1" stop-color="#a3a3a3"/></linearGradient><linearGradient x1="232.55162" y1="164.34747" x2="232.55162" y2="176.34381" gradientUnits="userSpaceOnUse" id="color-2"><stop offset="0" stop-color="#ffffff"/><stop offset="1" stop-color="#a3a3a3"/></linearGradient><radialGradient cx="240" cy="178" r="109" gradientUnits="userSpaceOnUse" id="color-3"><stop offset="0" stop-color="#66ebff"/><stop offset="1" stop-color="#b6f5ff"/></radialGradient><radialGradient cx="238.5" cy="180" r="109" gradientUnits="userSpaceOnUse" id="color-4"><stop offset="0" stop-color="#b6f5ff" stop-opacity="0"/><stop offset="1" stop-color="#b6f5ff" stop-opacity="0"/></radialGradient><radialGradient cx="238.5" cy="180" r="109" gradientUnits="userSpaceOnUse" id="color-5"><stop offset="0" stop-color="#b6f5ff" stop-opacity="0"/><stop offset="1" stop-color="#b6f5ff" stop-opacity="0"/></radialGradient></defs><g transform="translate(-105.75,-58.25)"><g data-paper-data="{&quot;isPaintingLayer&quot;:true}" stroke-miterlimit="10" stroke-dasharray="" stroke-dashoffset="0" style="mix-blend-mode: normal"><path d="M209.82652,195.47675v-51.6h49v51.6z" fill="none" fill-rule="nonzero" stroke="none" stroke-width="0" stroke-linecap="butt" stroke-linejoin="miter"/><path d="M209.82652,195.47675v-51.6h49v51.6z" data-paper-data="{&quot;origPos&quot;:null}" fill="none" fill-rule="nonzero" stroke="none" stroke-width="0" stroke-linecap="butt" stroke-linejoin="miter"/><path d="M227.24191,156.94645h18.33558c3.85062,0 6.97197,3.02447 6.97197,6.75559v18.06738c0,3.73084 -3.12134,6.75559 -6.97197,6.75559h-18.33558c-3.85053,0 -6.97203,-3.02476 -6.97203,-6.75559v-18.06738c0,-3.73111 3.1215,-6.75559 6.97203,-6.75559z" data-paper-data="{&quot;origPos&quot;:null}" fill="url(#color-1)" fill-rule="evenodd" stroke="none" stroke-width="14" stroke-linecap="round" stroke-linejoin="round"/><path d="M225.18729,172.73573c0,-6.19795 5.02443,-11.22238 11.22238,-11.22238c6.19795,0 11.22238,5.02443 11.22238,11.22238c0,6.19795 -5.02443,11.22238 -11.22238,11.22238c-6.19795,0 -11.22238,-5.02443 -11.22238,-11.22238z" data-paper-data="{&quot;origPos&quot;:null}" fill="#ffffff" fill-rule="nonzero" stroke="none" stroke-width="0" stroke-linecap="butt" stroke-linejoin="miter"/><path d="M226.55343,170.34564c0,-3.3127 2.68547,-5.99817 5.99817,-5.99817c3.3127,0 5.99817,2.68547 5.99817,5.99817c0,3.3127 -2.68547,5.99817 -5.99817,5.99817c-3.3127,0 -5.99817,-2.68547 -5.99817,-5.99817z" data-paper-data="{&quot;origPos&quot;:null}" fill="url(#color-2)" fill-rule="nonzero" stroke="none" stroke-width="0" stroke-linecap="butt" stroke-linejoin="miter"/><path d="M232.65854,168.5004c0,-1.30778 1.06017,-2.36796 2.36796,-2.36796c1.30778,0 2.36796,1.06018 2.36796,2.36796c0,1.30778 -1.06018,2.36796 -2.36796,2.36796c-1.30778,0 -2.36796,-1.06017 -2.36796,-2.36796z" data-paper-data="{&quot;origPos&quot;:null}" fill="#ffffff" fill-rule="nonzero" stroke="none" stroke-width="0" stroke-linecap="butt" stroke-linejoin="miter"/><path d="M150,287c0,0 -28,-21.23623 -28,-45.00024c0,-40.83688 -2,-100.95041 -2,-126c0,-21.89838 30,-46.99976 30,-46.99976h180c0,0 32,15.48157 32,34.99976c0,22.40282 1,96.91103 1,139c0,30.83242 -33,44.00024 -33,44.00024z" fill="url(#color-3)" fill-rule="nonzero" stroke="none" stroke-width="0" stroke-linecap="butt" stroke-linejoin="miter"/><path d="M148.5,289c0,0 -28,-21.23623 -28,-45.00025c0,-40.83688 -2,-100.95041 -2,-126c0,-21.89839 30,-46.99975 30,-46.99975h180c0,0 32,15.48157 32,34.99975c0,22.40282 1,96.91103 1,139c0,30.83242 -33,44.00025 -33,44.00025z" fill="url(#color-4)" fill-rule="nonzero" stroke="#e2a400" stroke-width="25.5" stroke-linecap="butt" stroke-linejoin="miter"/><path d="M148.5,289c0,0 -28,-21.23623 -28,-45.00025c0,-40.83688 -2,-100.95041 -2,-126c0,-21.89839 30,-46.99975 30,-46.99975h180c0,0 32,15.48157 32,34.99975c0,22.40281 1,96.91103 1,139c0,30.83242 -33,44.00025 -33,44.00025z" fill="url(#color-5)" fill-rule="nonzero" stroke="#ffdc7b" stroke-width="8" stroke-linecap="butt" stroke-linejoin="miter"/></g></g></svg>