<svg version="1.1" xmlns="http://www.w3.org/2000/svg" xmlns:xlink="http://www.w3.org/1999/xlink" width="496.23136" height="232.35703" viewBox="0,0,496.23136,232.35703"><defs><linearGradient x1="95.79185" y1="391.29297" x2="79.10109" y2="402.01581" gradientUnits="userSpaceOnUse" id="color-1"><stop offset="0" stop-color="#8e8e8e"/><stop offset="1" stop-color="#818181"/></linearGradient><linearGradient x1="-30.11303" y1="287.04844" x2="460.69789" y2="287.04844" gradientUnits="userSpaceOnUse" id="color-2"><stop offset="0" stop-color="#8bce39"/><stop offset="1" stop-color="#8bce39"/></linearGradient><linearGradient x1="325.3708" y1="316.00093" x2="291.76485" y2="371.26726" gradientUnits="userSpaceOnUse" id="color-3"><stop offset="0" stop-color="#8e8e8e"/><stop offset="1" stop-color="#818181"/></linearGradient><linearGradient x1="371.20545" y1="316.10087" x2="326.75778" y2="350.08696" gradientUnits="userSpaceOnUse" id="color-4"><stop offset="0" stop-color="#8e8e8e"/><stop offset="1" stop-color="#818181"/></linearGradient><linearGradient x1="129.38055" y1="326.81778" x2="157.48775" y2="358.86216" gradientUnits="userSpaceOnUse" id="color-5"><stop offset="0" stop-color="#8e8e8e"/><stop offset="1" stop-color="#818181"/></linearGradient><linearGradient x1="45.04766" y1="319.56813" x2="29.05973" y2="369.88569" gradientUnits="userSpaceOnUse" id="color-6"><stop offset="0" stop-color="#8e8e8e"/><stop offset="1" stop-color="#818181"/></linearGradient></defs><g transform="translate(34.1166,-190.9)"><g data-paper-data="{&quot;isPaintingLayer&quot;:true}" fill-rule="nonzero" stroke="none" stroke-linecap="butt" stroke-linejoin="miter" stroke-miterlimit="10" stroke-dasharray="" stroke-dashoffset="0" style="mix-blend-mode: normal"><path d="M169.4417,227.4v-34.5h63.39375c0,0 27.6,11.63428 27.6,16.3875c0,6.30339 -27.6,18.1125 -27.6,18.1125z" fill="#dba723" stroke-width="0"/><g><path d="M71.59254,397.58874l6.7485,-7.86422l18.08779,3.77381l-6.47133,12.029l-13.08474,-0.75551z" data-paper-data="{&quot;origPos&quot;:null,&quot;origRot&quot;:0}" fill="#534c42" stroke-width="0"/><path d="M73.95926,396.72934l6.05638,-7.05764l16.23265,3.38678l-5.80766,10.79525l-11.74278,-0.67802z" data-paper-data="{&quot;origPos&quot;:null,&quot;origRot&quot;:0}" fill="url(#color-1)" stroke-width="NaN"/></g><path d="M-34.1166,361.17886l3.00301,-79.03105c0,0 49.67168,7.45265 88.20546,7.45265c40.62553,0 145.06435,-7.67744 232.0652,-9.4622c94.34465,-1.93542 169.98769,2.00956 169.98769,2.00956v74.52655z" fill="#9a8a7e" stroke-width="0"/><path d="M-31.40808,420.60275v-74.52655c0,0 49.73598,7.45265 88.31962,7.45265c40.67812,0 145.25207,-7.67744 232.36545,-9.4622c94.46674,-1.93542 170.20766,2.00956 170.20766,2.00956v74.52655z" fill="#887c6d" stroke-width="0"/><path d="M-30.86472,423.25702v-37.05188c0,0 49.56297,3.70519 88.01242,3.70519c40.53663,0 144.74684,-3.81693 231.55726,-4.70428c94.13816,-0.96221 169.61565,0.9991 169.61565,0.9991v37.05188z" fill="#807566" stroke-width="0"/><path d="M-30.20525,293.7007v-32.95167h492.32001v32.95167z" fill="#8bce39" stroke-width="0"/><path d="M-32.1628,293.7007v-13.30453h490.81092v13.30453z" fill="url(#color-2)" stroke-width="0"/><g><path d="M267.56283,358.28157l9.09965,-36.16014l55.99953,0.37413l-3.01785,52.24412l-37.99878,7.45925z" data-paper-data="{&quot;origPos&quot;:null,&quot;origRot&quot;:0}" fill="#534c42" stroke-width="0"/><path d="M274.23845,353.03295l8.16637,-32.45141l50.25595,0.33577l-2.70838,46.88573l-34.10145,6.69417z" data-paper-data="{&quot;origPos&quot;:null,&quot;origRot&quot;:0}" fill="url(#color-3)" stroke-width="NaN"/></g><g><path d="M309.47644,335.49922l17.97144,-24.92571l48.16827,11.96112l-17.23333,38.12603l-34.84501,-2.39454z" data-paper-data="{&quot;origPos&quot;:null,&quot;origRot&quot;:0}" fill="#534c42" stroke-width="0"/><path d="M316.47369,333.33145l16.12827,-22.36922l43.22791,10.73433l-15.46588,34.21564l-31.27116,-2.14891z" data-paper-data="{&quot;origPos&quot;:null,&quot;origRot&quot;:0}" fill="url(#color-4)" stroke-width="NaN"/></g><g><path d="M142.62749,368.48088l-22.30807,-13.73023l14.24929,-31.35114l34.76214,14.15045l-4.42545,23.1124z" data-paper-data="{&quot;origRot&quot;:0}" fill="#534c42" stroke-width="0"/><path d="M139.76807,363.20392l-19.28913,-12.32205l12.32086,-28.13558l30.05773,12.69916l-3.82649,20.74185z" data-paper-data="{&quot;origRot&quot;:0}" fill="url(#color-5)" stroke-width="NaN"/></g><g><path d="M5.02255,363.51009l-0.65787,-30.4996l48.39808,-10.22854l9.68894,42.16174l-31.02598,13.08147z" data-paper-data="{&quot;origRot&quot;:0}" fill="#534c42" stroke-width="0"/><path d="M9.36817,358.27754l-0.59039,-27.37144l43.43414,-9.17942l8.69512,37.83744l-27.84381,11.73975z" data-paper-data="{&quot;origRot&quot;:0}" fill="url(#color-6)" stroke-width="NaN"/></g><path d="M192.4417,260.9v-36h27v36z" fill="#a0833a" stroke-width="0"/><path d="M168.9417,225.4v-34.5h63.39375c0,0 27.6,11.63428 27.6,16.3875c0,6.30339 -27.6,18.1125 -27.6,18.1125z" fill="#dcb44f" stroke-width="0"/><path d="M192.9417,260.9v-35.5h24v35.5z" fill="#af8f3f" stroke-width="0"/><text transform="translate(177.4417,214.9) scale(0.5,0.5)" font-size="40" xml:space="preserve" fill="#af8f3f" fill-rule="nonzero" stroke="none" stroke-width="1" stroke-linecap="butt" stroke-linejoin="miter" stroke-miterlimit="10" stroke-dasharray="" stroke-dashoffset="0" font-family="Sans Serif" font-weight="normal" text-anchor="start" style="mix-blend-mode: normal"><tspan x="0" dy="0">Beach</tspan></text></g></g></svg>