<svg version="1.1" xmlns="http://www.w3.org/2000/svg" xmlns:xlink="http://www.w3.org/1999/xlink" width="38.3575" height="40.52678" viewBox="0,0,38.3575,40.52678"><defs><linearGradient x1="237.34383" y1="180.03864" x2="258.17875" y2="180.03864" gradientUnits="userSpaceOnUse" id="color-1"><stop offset="0" stop-color="#84edff"/><stop offset="1" stop-color="#119fff"/></linearGradient><linearGradient x1="221.97211" y1="179.99436" x2="242.57154" y2="179.99436" gradientUnits="userSpaceOnUse" id="color-2"><stop offset="0" stop-color="#84edff"/><stop offset="1" stop-color="#119fff"/></linearGradient><linearGradient x1="228.40387" y1="165.87954" x2="251.50512" y2="165.87954" gradientUnits="userSpaceOnUse" id="color-3"><stop offset="0" stop-color="#84edff"/><stop offset="1" stop-color="#119fff"/></linearGradient><linearGradient x1="221.82125" y1="175.44296" x2="257.71513" y2="175.44296" gradientUnits="userSpaceOnUse" id="color-4"><stop offset="0" stop-color="#84edff"/><stop offset="1" stop-color="#119fff"/></linearGradient><linearGradient x1="244.9225" y1="171.90325" x2="247.77911" y2="171.90325" gradientUnits="userSpaceOnUse" id="color-5"><stop offset="0" stop-color="#84edff"/><stop offset="1" stop-color="#119fff"/></linearGradient><linearGradient x1="233.86868" y1="171.65485" x2="236.10428" y2="171.65485" gradientUnits="userSpaceOnUse" id="color-6"><stop offset="0" stop-color="#84edff"/><stop offset="1" stop-color="#119fff"/></linearGradient></defs><g transform="translate(-220.82125,-159.74574)"><g data-paper-data="{&quot;isPaintingLayer&quot;:true}" fill-rule="nonzero" stroke="#000000" stroke-width="2" stroke-linecap="round" stroke-linejoin="miter" stroke-miterlimit="10" stroke-dasharray="" stroke-dashoffset="0" style="mix-blend-mode: normal"><path d="M237.34383,161.15588c2.35038,0.00322 4.87713,-0.47899 5.28976,-0.33582c2.8643,0.99383 9.01533,3.16561 9.39874,3.61896c2.02554,2.39506 7.03254,8.60418 6.01036,10.30782c-3.31352,5.52252 -16.99732,24.33746 -16.99732,24.33746" data-paper-data="{&quot;index&quot;:null}" fill="url(#color-1)"/><path d="M242.57154,160.74574c-2.57118,-0.00411 -4.60006,-0.09455 -5.05427,0.06304c-2.86431,0.99383 -9.01533,3.16561 -9.39874,3.61896c-2.02554,2.39506 -7.03254,8.60418 -6.01036,10.30783c3.31351,5.52252 19.15378,24.53695 19.15378,24.53695" fill="url(#color-2)"/><path d="M228.40387,164.88594l7.57622,1.7388l8.81822,0.2484l6.70682,-1.7388" fill="url(#color-3)"/><path d="M221.82125,174.07676l12.42003,2.60821l13.66203,0.1242l9.81182,-2.48401" fill="url(#color-4)"/><path d="M247.77911,176.68496l-2.85661,-9.56342" fill="url(#color-5)"/><path d="M233.86868,176.56076l2.23561,-9.81182" fill="url(#color-6)"/></g></g></svg>