<svg version="1.1" xmlns="http://www.w3.org/2000/svg" xmlns:xlink="http://www.w3.org/1999/xlink" width="117.32956" height="67.77629" viewBox="0,0,117.32956,67.77629"><g transform="translate(-246.22573,-82.71202)"><g data-paper-data="{&quot;isPaintingLayer&quot;:true}" fill-rule="nonzero" stroke-linecap="butt" stroke-miterlimit="10" stroke-dasharray="" stroke-dashoffset="0" style="mix-blend-mode: normal"><path d="M253.72573,142.98831v-52.77629h102.32956v52.77629z" data-paper-data="{&quot;zoomLevel&quot;:2.5}" fill="#404040" stroke="#404040" stroke-width="15" stroke-linejoin="round"/><text transform="translate(289.71254,103.13037) scale(0.47721,0.47721)" font-size="40" xml:space="preserve" fill="#ffffff" fill-rule="nonzero" stroke="none" stroke-width="1" stroke-linecap="butt" stroke-linejoin="miter" stroke-miterlimit="10" stroke-dasharray="" stroke-dashoffset="0" font-family="Sans Serif" font-weight="normal" text-anchor="start" style="mix-blend-mode: normal"><tspan x="0" dy="0">3</tspan></text><text transform="translate(253.14879,120.42195) scale(0.29853,0.29853)" font-size="40" xml:space="preserve" fill="#ffffff" fill-rule="nonzero" stroke="none" stroke-width="1" stroke-linecap="butt" stroke-linejoin="miter" stroke-miterlimit="10" stroke-dasharray="" stroke-dashoffset="0" font-family="Sans Serif" font-weight="normal" text-anchor="start" style="mix-blend-mode: normal"><tspan x="0" dy="0">Type: Green Skin</tspan></text><text transform="translate(251.10696,136.91665) scale(0.27613,0.27613)" font-size="40" xml:space="preserve" fill="#ffffff" fill-rule="nonzero" stroke="none" stroke-width="1" stroke-linecap="butt" stroke-linejoin="miter" stroke-miterlimit="10" stroke-dasharray="" stroke-dashoffset="0" font-family="Sans Serif" font-weight="normal" text-anchor="start" style="mix-blend-mode: normal"><tspan x="0" dy="0">Power: Glide</tspan></text><g stroke="none" stroke-linejoin="miter"><path d="M327.03369,96.33337c0,5.54154 -4.49217,10.03376 -10.03346,10.03376c-5.54159,0 -10.03376,-4.49222 -10.03376,-10.03376c0,-5.54154 4.49217,-10.03376 10.03376,-10.03376c5.54129,0 10.03346,4.49222 10.03346,10.03376z" fill="#6dd02b" stroke-width="29.91286"/><path d="M325.5194,96.33337c0,4.70502 -3.81418,8.5192 -8.51915,8.5192c-4.70527,0 -8.5192,-3.81417 -8.5192,-8.5192c0,-4.70502 3.81393,-8.5192 8.5192,-8.5192c4.70498,0 8.51915,3.81417 8.51915,8.5192z" fill="#bbff8f" stroke-width="29.91286"/><path d="M323.62613,96.33337c0,3.65947 -2.96646,6.62593 -6.62589,6.62593c-3.65972,0 -6.62618,-2.96646 -6.62618,-6.62593c0,-3.65942 2.96646,-6.62618 6.62618,-6.62618c3.65942,0 6.62589,2.96675 6.62589,6.62618z" fill="#6dd02b" stroke-width="29.91286"/><path d="M316.9885,101.02248l-2.9675,-4.6417l2.9675,-4.6417l2.9675,4.6417z" fill="#bbff8f" stroke-width="0"/></g></g></g></svg>