<svg version="1.1" xmlns="http://www.w3.org/2000/svg" xmlns:xlink="http://www.w3.org/1999/xlink" width="513.69648" height="316.22542" viewBox="0,0,513.69648,316.22542"><defs><linearGradient x1="330.93987" y1="91.06662" x2="330.93987" y2="222.23567" gradientUnits="userSpaceOnUse" id="color-1"><stop offset="0" stop-color="#6632ff"/><stop offset="1" stop-color="#836aff"/></linearGradient><linearGradient x1="238.01788" y1="130.15803" x2="238.01788" y2="370.14587" gradientUnits="userSpaceOnUse" id="color-2"><stop offset="0" stop-color="#6528ff"/><stop offset="1" stop-color="#a19aff"/></linearGradient></defs><g transform="translate(15.23645,-57.95706)"><g data-paper-data="{&quot;isPaintingLayer&quot;:true}" fill-rule="nonzero" stroke-linejoin="miter" stroke-miterlimit="10" stroke-dasharray="" stroke-dashoffset="0" style="mix-blend-mode: normal"><path d="M177.89841,180.47853l51.7888,-0.07118c0,0 2.99342,0.19847 4.73975,-1.30703c1.74633,-1.5055 1.54871,-4.11418 1.54871,-4.11418l-0.12631,-48.35243l-6.06604,-0.00833c0,0 -2.08724,0.07076 -3.06263,-0.81549c-0.97539,-0.88626 -0.84377,-2.73391 -0.84377,-2.73391l-0.09229,-10.63925c0,0 -0.14855,-2.09175 0.90744,-2.99462c1.05599,-0.90287 3.34202,-0.89436 3.34202,-0.89436l14.93821,-0.15227l-0.03526,-5.61896c0,0 -0.20027,-4.20369 1.9285,-6.03746c2.12877,-1.83377 7.02164,-1.67241 7.02164,-1.67241h64.88128c0,0 4.39015,-0.03603 6.20638,2.01762c1.81623,2.05365 1.44499,6.35191 1.44499,6.35191l0.18897,6.57625l15.39509,-0.10293c0,0 2.16724,-0.16543 3.31408,0.79085c1.14684,0.95628 0.94642,2.76171 0.94642,2.76171l0.04591,8.98037c0,0 0.31757,2.2547 -0.61205,3.43645c-0.92962,1.18175 -3.27359,0.98054 -3.27359,0.98054l-6.16826,-0.0152l0.3023,48.24502c0,0 -0.22853,3.22093 1.25368,4.58484c1.48221,1.36391 4.91127,1.08804 4.91127,1.08804l53.80085,-0.0044l-0.08695,39.51067l-219.29978,0.46943zM260.87011,179.51081c1.14339,1.14531 3.68075,1.03172 3.68075,1.03172l10.15076,0.0359c0,0 2.01409,0.1869 3.02687,-0.79767c1.01278,-0.98457 0.91045,-3.02998 0.91045,-3.02998l-0.05122,-14.33537c0,0 0.05833,-1.2459 -0.11174,-2.0823c-0.17007,-0.8364 -0.13355,-0.92036 -0.69422,-1.88141c-1.14929,-1.97001 -3.6617,-4.97414 -8.29648,-4.97414c-4.63396,0 -7.32204,2.90036 -8.58688,4.87039c-0.61737,0.96158 -0.61971,1.03786 -0.79296,1.77974c-0.17325,0.74188 -0.10893,2.1851 -0.10893,2.1851l-0.03678,13.63091c0,0 -0.23301,2.4218 0.91038,3.56711zM297.03066,179.82169c1.06604,1.04641 3.30125,0.91514 3.30125,0.91514l9.90307,-0.01806c0,0 2.22898,0.2043 3.28194,-0.87268c1.05296,-1.07697 0.84848,-3.3519 0.84848,-3.3519l-0.05103,-14.21872c0,0 0.02678,-1.62046 -0.21523,-2.61091c-0.24201,-0.99045 -0.11917,-0.86163 -0.89385,-1.92804c-1.26057,-1.73528 -3.71292,-4.0128 -7.89778,-4.00249c-4.40211,0.01085 -6.87837,2.44131 -8.14122,4.2055c-0.67545,0.94361 -0.66372,1.03381 -0.87168,1.87264c-0.20796,0.83882 -0.20316,2.4628 -0.20316,2.4628l0.01258,14.31185c0,0 -0.13942,2.18846 0.92663,3.23487z" fill="url(#color-1)" stroke="none" stroke-width="0" stroke-linecap="butt"/><path d="M-0.09098,366.44457l-0.2747,-231.68024l15.99844,0.08889c0,0 6.18266,-0.33073 9.26772,2.33595c3.08506,2.66668 2.84889,8.13748 2.84889,8.13748l1.33371,35.08154c0,0 -0.02243,6.4349 3.8672,9.61659c3.88963,3.18169 10.84895,3.02612 10.84895,3.02612l55.03265,-0.25502c0,0 9.76777,-0.18323 14.43897,-5.09476c4.6712,-4.91153 4.27727,-14.5844 4.27727,-14.5844l0.19953,-9.75081c0,0 0.30878,-5.70235 2.86412,-8.1062c2.55534,-2.40385 7.97147,-2.08698 7.97147,-2.08698l42.31959,0.22711c0,0 5.19393,0.56131 7.59153,2.78167c2.39761,2.22036 3.00217,7.05215 3.00217,7.05215l0.17578,43.28411c0,0 1.11496,6.14163 4.55043,8.83205c3.43548,2.69042 9.96303,2.53382 9.96303,2.53382l184.61944,-0.29326c0,0 6.05185,-0.10454 8.96439,-3.19792c2.91254,-3.09338 2.95421,-9.4607 2.95421,-9.4607l0.21163,-39.30503c0,0 -0.42482,-7.04615 2.21563,-10.12987c2.64045,-3.08372 8.9731,-2.93718 8.9731,-2.93718l7.453,-0.00864l0.12035,-6.92271c0,0 -0.23485,-6.08514 2.78933,-8.99049c3.02418,-2.90535 9.38375,-2.45452 9.38375,-2.45452h56.73703l-1.29974,232.96321z" data-paper-data="{&quot;index&quot;:null}" fill="url(#color-2)" stroke="none" stroke-width="0" stroke-linecap="butt"/><path d="M10.46899,125.45473h-9.83263h4.14992" data-paper-data="{&quot;index&quot;:null}" fill="none" stroke="#692fff" stroke-width="8.5" stroke-linecap="round"/><path d="M475.65177,125.27341h5.31458h-31.09193" data-paper-data="{&quot;index&quot;:null}" fill="none" stroke="#692fff" stroke-width="8.5" stroke-linecap="round"/><path d="M312.01819,83.4112h-52.00151" fill="none" stroke="#6633fe" stroke-width="12" stroke-linecap="round"/><path d="M-15.23645,374.18249v-316.22542h513.69648v316.22542z" fill="none" stroke="none" stroke-width="NaN" stroke-linecap="butt"/></g></g></svg>