<svg version="1.1" xmlns="http://www.w3.org/2000/svg" xmlns:xlink="http://www.w3.org/1999/xlink" width="43.1618" height="248.9" viewBox="0,0,43.1618,248.9"><defs><radialGradient cx="230.58333" cy="132.95833" r="13.41178" gradientUnits="userSpaceOnUse" id="color-1"><stop offset="0" stop-color="#61d5ff"/><stop offset="1" stop-color="#61d5ff" stop-opacity="0"/></radialGradient><linearGradient x1="229.4841" y1="132.98267" x2="237.86833" y2="132.98267" gradientUnits="userSpaceOnUse" id="color-2"><stop offset="0" stop-color="#84edff"/><stop offset="1" stop-color="#119fff"/></linearGradient><linearGradient x1="223.29833" y1="132.96485" x2="231.5878" y2="132.96485" gradientUnits="userSpaceOnUse" id="color-3"><stop offset="0" stop-color="#84edff"/><stop offset="1" stop-color="#119fff"/></linearGradient><linearGradient x1="225.88655" y1="127.28487" x2="235.18278" y2="127.28487" gradientUnits="userSpaceOnUse" id="color-4"><stop offset="0" stop-color="#84edff"/><stop offset="1" stop-color="#119fff"/></linearGradient></defs><g transform="translate(-217.17154,1.63334)"><g data-paper-data="{&quot;isPaintingLayer&quot;:true}" fill-rule="nonzero" stroke-linejoin="miter" stroke-miterlimit="10" stroke-dasharray="" stroke-dashoffset="0" style="mix-blend-mode: normal"><path d="M222.00001,245v-243.69593h36v243.69593z" fill="#7d7d7d" stroke="none" stroke-width="0" stroke-linecap="butt"/><path d="M222.16668,0.86667h35.66667" fill="none" stroke="#a09797" stroke-width="5" stroke-linecap="round"/><path d="M222.16667,244.76667h35.66667" fill="none" stroke="#a09797" stroke-width="5" stroke-linecap="round"/><path d="M228.92501,172.03091c0,-4.32706 0,-12.85137 0,-15.04873c0,-1.01479 1.47175,-2.04051 2.8057,-2.04051c2.47702,0 10.92848,0 15.04873,0c1.3966,0 2.29557,1.12388 2.29557,2.8057c0,4.23586 0,12.01098 0,14.28354c0,1.22656 -0.79048,2.55063 -2.04051,2.55063c-4.01581,0 -12.77448,0 -15.3038,0c-1.33395,0 -2.8057,-1.00889 -2.8057,-2.55063z" fill="#908f92" stroke="none" stroke-width="NaN" stroke-linecap="butt"/><path d="M234.93217,156.53466v-7.5h2.5v7.5z" fill="#828182" stroke="none" stroke-width="0" stroke-linecap="butt"/><path d="M240.77926,156.31091v-7.5h2.5v7.5z" fill="#828182" stroke="none" stroke-width="0" stroke-linecap="butt"/><path d="M240.22652,156.32289v-7.5h2.5v7.5z" fill="#9e9da0" stroke="none" stroke-width="0" stroke-linecap="butt"/><path d="M228.62501,171.29167c0,-4.24116 0,-12.59626 0,-14.75c0,-0.99465 1.44253,-2 2.75,-2c2.42785,0 10.71154,0 14.75,0c1.36887,0 2.25,1.10157 2.25,2.75c0,4.15177 0,11.77255 0,14c0,1.20221 -0.77479,2.5 -2,2.5c-3.93609,0 -12.52089,0 -15,0c-1.30747,0 -2.75,-0.98886 -2.75,-2.5z" fill="#9e9da0" stroke="none" stroke-width="NaN" stroke-linecap="butt"/><path d="M236.50665,171.34988c0.07783,-1.36973 0.44336,-7.80322 0.44336,-7.80322h3.4c0,0 0.42822,6.28055 0.52442,7.69152c0.03652,0.53564 -0.40478,1.10848 -1.02442,1.10848c-0.87637,0 -2.03136,0 -2.5,0c-0.4,0 -0.87118,-0.50723 -0.84336,-0.99678z" fill="#353536" stroke="none" stroke-width="0" stroke-linecap="butt"/><path d="M235.75001,161.94667c0,-1.65685 1.34315,-3 3,-3c1.65685,0 3,1.34315 3,3c0,1.65685 -1.34315,3 -3,3c-1.65685,0 -3,-1.34315 -3,-3z" fill="#353536" stroke="none" stroke-width="0" stroke-linecap="butt"/><path d="M234.41151,156.54666v-7.5h2.5v7.5z" fill="#9e9da0" stroke="none" stroke-width="0" stroke-linecap="butt"/><path d="M234.9603,148.83138c0,0 0,-0.90059 0,-1.21603c0,-0.20092 0.27882,-0.49334 0.58429,-0.49334c0.93748,0 5.79467,0 7.28295,0c0.27412,0 0.43395,0.29242 0.43395,0.49334c0,0.31544 0,1.21603 0,1.21603z" fill="#828182" stroke="none" stroke-width="0" stroke-linecap="butt"/><path d="M234.42008,149.16946c0,0 0,-0.90058 0,-1.21602c0,-0.20092 0.27882,-0.49334 0.5843,-0.49334c0.93748,0 5.79467,0 7.28295,0c0.27412,0 0.43395,0.29242 0.43395,0.49334c0,0.31544 0,1.21602 0,1.21602z" fill="#9e9da0" stroke="none" stroke-width="0" stroke-linecap="butt"/><path d="M217.17155,132.95833c0,-7.40712 6.00466,-13.41178 13.41178,-13.41178c7.40713,0 13.41178,6.00466 13.41178,13.41178c0,7.40713 -6.00466,13.41178 -13.41178,13.41178c-7.40713,0 -13.41178,-6.00466 -13.41178,-13.41178z" fill="url(#color-1)" stroke="none" stroke-width="0" stroke-linecap="butt"/><path d="M229.4841,125.38401c0.94582,0.00129 2.36503,-0.14245 2.53107,-0.08483c1.15263,0.39993 3.22547,1.22358 3.37976,1.40601c0.8151,0.9638 2.82998,3.46243 2.41864,4.14799c-1.3334,2.22233 -6.83993,9.7937 -6.83993,9.7937" data-paper-data="{&quot;index&quot;:null}" fill="url(#color-2)" stroke="#007bef" stroke-width="1" stroke-linecap="round"/><path d="M231.0608,140.72263c0,0 -6.37432,-7.65165 -7.70772,-9.87398c-0.41134,-0.68557 1.60354,-3.1842 2.41864,-4.148c0.15429,-0.18243 2.73013,-1.10668 3.88277,-1.50661c0.18278,-0.06342 1.20043,0.02327 2.23511,0.02493" fill="url(#color-3)" stroke="#007bef" stroke-width="1" stroke-linecap="round"/><text transform="translate(240.58333,136.81762) scale(0.29767,0.29767)" font-size="40" xml:space="preserve" fill="#353536" fill-rule="nonzero" stroke="none" stroke-width="1" stroke-linecap="butt" stroke-linejoin="miter" stroke-miterlimit="10" stroke-dasharray="" stroke-dashoffset="0" font-family="Sans Serif" font-weight="normal" text-anchor="start" style="mix-blend-mode: normal"><tspan x="0" dy="0">x 5</tspan></text><path d="M235.18278,126.985l-2.6989,0.69971l-3.54856,-0.09996l-3.04877,-0.69971" fill="url(#color-4)" stroke="#007bef" stroke-width="1" stroke-linecap="round"/><path d="M223.33822,130.63384l4.89737,0.99927l5.49777,0.04998l3.9484,-0.99959" fill="none" stroke="#007bef" stroke-width="1" stroke-linecap="round"/><path d="M233.68339,131.63311l-1.14953,-3.84844" fill="none" stroke="#007bef" stroke-width="1" stroke-linecap="round"/><path d="M228.98529,127.63473l-0.89963,3.9484" fill="none" stroke="#007bef" stroke-width="1" stroke-linecap="round"/></g></g></svg>