<svg version="1.1" xmlns="http://www.w3.org/2000/svg" xmlns:xlink="http://www.w3.org/1999/xlink" width="332.75" height="374" viewBox="0,0,332.75,374"><g transform="translate(-36.75,-106.80002)"><g data-paper-data="{&quot;isPaintingLayer&quot;:true}" fill-rule="nonzero" stroke-linecap="butt" stroke-linejoin="miter" stroke-miterlimit="10" stroke-dasharray="" stroke-dashoffset="0" style="mix-blend-mode: normal"><path d="M119.20283,304.79421l-32.80331,-38.16367l14.89764,-0.37492l28.30331,29.16367z" fill="#00e8e8" stroke="#ffffff" stroke-width="0.5"/><path d="M335.50001,480.80002v-354.2h33v354.2z" fill="#6d6d6d" stroke="none" stroke-width="0"/><path d="M131.5,139.80002v-33h238v33z" fill="#6d6d6d" stroke="none" stroke-width="0"/><path d="M119.50001,474.30002v-216.46753c2.65788,1.38847 5.66914,-0.01195 9.01489,-0.14247c3.9152,-0.15274 8.16532,0.69472 10.98511,-1.36345v217.97345z" fill="#6d6d6d" stroke="none" stroke-width="0"/><path d="M119.83334,107.63335h20v71.20138c-3.70291,-0.92703 -17.54787,-0.5377 -20,-0.27041z" fill="#6d6d6d" stroke="none" stroke-width="0"/><path d="M220.50001,411.30002v-23h127v23z" fill="#6d6d6d" stroke="none" stroke-width="0"/><path d="M162.5,251.80002v-11c0,0 34.67913,-5 52,-5c17.9873,0 54,5 54,5v11z" fill="none" stroke="#ffffff" stroke-width="0.5"/><path d="M234.50001,255.30002c0,10.76956 -8.95431,19.5 -20,19.5c-11.04569,0 -20,-8.73044 -20,-19.5c0,-10.76955 8.95431,-19.5 20,-19.5c11.04569,0 20,8.73045 20,19.5z" fill="none" stroke="#ffffff" stroke-width="0.5"/><path d="M294.50001,388.30001v-30h41v30z" fill="none" stroke="#ffffff" stroke-width="0.5"/><path d="M325.50001,363.30001v-54h9v54z" fill="none" stroke="#ffffff" stroke-width="0.5"/><path d="M119.83333,265.64158v-10.66667h19.33333v10.66667z" fill="#6d6d6d" stroke="none" stroke-width="0"/><path d="M119.83333,180.30825v-2.66667h20v2.66667z" fill="#6d6d6d" stroke="none" stroke-width="0"/><path d="M37,267.52492v-15h82v15z" fill="#00e8e8" stroke="#ffffff" stroke-width="0.5"/><path d="M37.5,266.02492v-49h4.5v49z" fill="#00e8e8" stroke="#ffffff" stroke-width="0.5"/></g></g></svg>