<svg version="1.1" xmlns="http://www.w3.org/2000/svg" xmlns:xlink="http://www.w3.org/1999/xlink" width="496.7169" height="377.67877" viewBox="0,0,496.7169,377.67877"><defs><linearGradient x1="121.94364" y1="388.28995" x2="105.7596" y2="399.01279" gradientUnits="userSpaceOnUse" id="color-1"><stop offset="0" stop-color="#8e8e8e"/><stop offset="1" stop-color="#818181"/></linearGradient><linearGradient x1="343.55258" y1="321.99791" x2="310.9669" y2="377.26424" gradientUnits="userSpaceOnUse" id="color-2"><stop offset="0" stop-color="#8e8e8e"/><stop offset="1" stop-color="#818181"/></linearGradient><linearGradient x1="387.99569" y1="322.09785" x2="344.89745" y2="356.08394" gradientUnits="userSpaceOnUse" id="color-3"><stop offset="0" stop-color="#8e8e8e"/><stop offset="1" stop-color="#818181"/></linearGradient><linearGradient x1="153.51258" y1="332.81476" x2="180.76645" y2="364.85914" gradientUnits="userSpaceOnUse" id="color-4"><stop offset="0" stop-color="#8e8e8e"/><stop offset="1" stop-color="#818181"/></linearGradient><linearGradient x1="72.74004" y1="316.56511" x2="57.2375" y2="366.88267" gradientUnits="userSpaceOnUse" id="color-5"><stop offset="0" stop-color="#8e8e8e"/><stop offset="1" stop-color="#818181"/></linearGradient></defs><g transform="translate(18.57813,-82.21891)"><g data-paper-data="{&quot;isPaintingLayer&quot;:true}" fill-rule="nonzero" stroke="none" stroke-linecap="butt" stroke-linejoin="miter" stroke-miterlimit="10" stroke-dasharray="" stroke-dashoffset="0" style="mix-blend-mode: normal"><path d="M10.10853,257.2514l96.87363,-96.87363l10.25305,10.25305l-96.87363,96.87363z" fill="#a27424" stroke-width="0"/><g><path d="M100.46654,394.58572l6.54362,-7.86422l17.53865,3.77381l-6.27486,12.029l-12.68749,-0.75551z" data-paper-data="{&quot;origPos&quot;:null,&quot;origRot&quot;:0}" fill="#534c42" stroke-width="0"/><path d="M102.76141,393.72632l5.8725,-7.05764l15.73983,3.38678l-5.63134,10.79525l-11.38627,-0.67802z" data-paper-data="{&quot;origPos&quot;:null,&quot;origRot&quot;:0}" fill="url(#color-1)" stroke-width="NaN"/></g><path d="M-0.12143,362.67134v-74.52655c0,0 48.16365,7.45265 85.52755,7.45265c39.39214,0 140.66021,-7.67744 225.01971,-9.4622c91.48035,-1.93542 164.82687,2.00956 164.82687,2.00956v74.52655z" fill="#7c7262" stroke-width="0"/><path d="M-0.40698,426.59973v-74.52655c0,0 48.226,7.45265 85.63824,7.45265c39.44313,0 140.84223,-7.67744 225.31085,-9.4622c91.59874,-1.93542 165.04016,2.00956 165.04016,2.00956v74.52655z" fill="#786e5f" stroke-width="0"/><path d="M0.11988,429.254v-37.05188c0,0 48.05824,3.70519 85.34037,3.70519c39.30594,0 140.35234,-3.81693 224.5272,-4.70428c91.28013,-0.96221 164.46613,0.9991 164.46613,0.9991v37.05188z" fill="#6f6558" stroke-width="0"/><path d="M-0.23443,299.69768v-32.95167h477.3732v32.95167z" fill="#949494" stroke-width="0"/><path d="M-1.13878,299.69768v-13.30453h475.90993v13.30453z" fill="#b5b5b5" stroke-width="0"/><g><path d="M289.48718,364.27855l8.82339,-36.16014l54.29939,0.37413l-2.92623,52.24412l-36.84514,7.45925z" data-paper-data="{&quot;origPos&quot;:null,&quot;origRot&quot;:0}" fill="#534c42" stroke-width="0"/><path d="M295.96013,359.02993l7.91844,-32.45141l48.73018,0.33577l-2.62616,46.88573l-33.06613,6.69417z" data-paper-data="{&quot;origPos&quot;:null,&quot;origRot&quot;:0}" fill="url(#color-2)" stroke-width="NaN"/></g><g><path d="M330.1283,341.4962l17.42583,-24.92571l46.70589,11.96112l-16.71013,38.12603l-33.78712,-2.39454z" data-paper-data="{&quot;origPos&quot;:null,&quot;origRot&quot;:0}" fill="#534c42" stroke-width="0"/><path d="M336.91312,339.32843l15.63862,-22.36922l41.91551,10.73433l-14.99634,34.21564l-30.32177,-2.14891z" data-paper-data="{&quot;origPos&quot;:null,&quot;origRot&quot;:0}" fill="url(#color-3)" stroke-width="NaN"/></g><g><path d="M168.34489,374.47786l-21.6308,-13.73023l13.81668,-31.35114l33.70676,14.15045l-4.29109,23.1124z" data-paper-data="{&quot;origRot&quot;:0}" fill="#534c42" stroke-width="0"/><path d="M165.57228,369.2009l-18.70351,-12.32205l11.9468,-28.13558l29.14518,12.69916l-3.71032,20.74185z" data-paper-data="{&quot;origRot&quot;:0}" fill="url(#color-4)" stroke-width="NaN"/></g><g><path d="M35.91761,360.50707l-0.6379,-30.4996l46.92872,-10.22854l9.39478,42.16174l-30.08404,13.08147z" data-paper-data="{&quot;origRot&quot;:0}" fill="#534c42" stroke-width="0"/><path d="M40.1313,355.27452l-0.57247,-27.37144l42.11548,-9.17942l8.43114,37.83744l-26.99847,11.73975z" data-paper-data="{&quot;origRot&quot;:0}" fill="url(#color-5)" stroke-width="NaN"/></g><g stroke-width="0"><path d="M478.13877,426.94601v32.95167h-477.3732v-32.95167z" data-paper-data="{&quot;index&quot;:null}" fill="#949494"/><path d="M475.77115,426.94601v13.30453h-475.90993v-13.30453z" data-paper-data="{&quot;index&quot;:null}" fill="#b5b5b5"/></g><g fill="#a9a9a9" stroke-width="0"><g><path d="M0.09842,408.16906v51.59795h-2.91856v-51.59795z"/><path d="M0.1513,459.69688h-18.31678v-7.52232h18.31678z"/><path d="M-18.21573,459.47644v-51.59795h2.67035v51.59795z" data-paper-data="{&quot;index&quot;:null}"/><path d="M-18.26861,407.94863h18.31678v6.82311h-18.31678z" data-paper-data="{&quot;index&quot;:null}"/><path d="M-14.68069,410.78319l12.51854,41.14184l-1.90499,4.59971l-12.51854,-41.14184z"/><path d="M-2.079,415.61713l-12.51854,41.14184l-1.90499,-4.59971l12.51854,-41.14184z" data-paper-data="{&quot;index&quot;:null}"/></g><g><path d="M-0.00434,360.94645v51.59795h-2.91856v-51.59795z"/><path d="M0.04856,412.47426h-18.31678v-7.52232h18.31678z"/><path d="M-18.31847,412.25383v-51.59795h2.67035v51.59795z" data-paper-data="{&quot;index&quot;:null}"/><path d="M-18.37137,360.72602h18.31678v6.82311h-18.31678z" data-paper-data="{&quot;index&quot;:null}"/><path d="M-14.78346,363.56058l12.51854,41.14184l-1.90499,4.59971l-12.51854,-41.14184z"/><path d="M-2.18176,368.39453l-12.51854,41.14184l-1.90499,-4.59971l12.51854,-41.14184z" data-paper-data="{&quot;index&quot;:null}"/></g><g><g><path d="M-0.10834,313.23058v51.59795h-2.91856v-51.59795z"/><path d="M-0.05545,364.75841h-18.31678v-7.52232h18.31678z"/><path d="M-18.42248,364.53797v-51.59795h2.67035v51.59795z" data-paper-data="{&quot;index&quot;:null}"/><path d="M-18.47537,313.01015h18.31678v6.82311h-18.31678z" data-paper-data="{&quot;index&quot;:null}"/><path d="M-14.88745,315.84472l12.51854,41.14184l-1.90499,4.59971l-12.51854,-41.14184z"/><path d="M-2.28576,320.67866l-12.51854,41.14184l-1.90499,-4.59971l12.51854,-41.14184z" data-paper-data="{&quot;index&quot;:null}"/></g><g><path d="M-0.21111,266.00797v51.59795h-2.91856v-51.59795z"/><path d="M-0.1582,317.53579h-18.31678v-7.52232h18.31678z"/><path d="M-18.52523,317.31536v-51.59795h2.67035v51.59795z" data-paper-data="{&quot;index&quot;:null}"/><path d="M-18.57813,265.78754h18.31678v6.82311h-18.31678z" data-paper-data="{&quot;index&quot;:null}"/><path d="M-14.99021,268.62211l12.51854,41.14184l-1.90499,4.59971l-12.51854,-41.14184z"/><path d="M-2.38852,273.45604l-12.51854,41.14184l-1.90499,-4.59971l12.51854,-41.14184z" data-paper-data="{&quot;index&quot;:null}"/></g></g></g><g fill="#a9a9a9" stroke-width="0"><g><path d="M134.09841,216.95481v48.80319h-2.91856v-48.80319z"/><path d="M134.1513,265.69167h-18.31678v-7.11487h18.31678z"/><path d="M115.78428,265.48317v-48.80319h2.67035v48.80319z" data-paper-data="{&quot;index&quot;:null}"/><path d="M115.73139,216.74631h18.31678v6.45354h-18.31678z" data-paper-data="{&quot;index&quot;:null}"/><path d="M119.31931,219.42734l12.51854,38.91343l-1.90499,4.35057l-12.51854,-38.91343z"/><path d="M131.92099,223.99946l-12.51854,38.91343l-1.90499,-4.35057l12.51854,-38.91343z" data-paper-data="{&quot;index&quot;:null}"/></g><g><path d="M133.99565,172.28996v48.8032h-2.91856v-48.8032z"/><path d="M134.04855,221.02682h-18.31678v-7.11487h18.31678z"/><path d="M115.68153,220.81833v-48.8032h2.67035v48.8032z" data-paper-data="{&quot;index&quot;:null}"/><path d="M115.62863,172.08146h18.31678v6.45354h-18.31678z" data-paper-data="{&quot;index&quot;:null}"/><path d="M119.21655,174.7625l12.51854,38.91343l-1.90499,4.35057l-12.51854,-38.91343z"/><path d="M131.81823,179.33462l-12.51854,38.91343l-1.90499,-4.35057l12.51854,-38.91343z" data-paper-data="{&quot;index&quot;:null}"/></g><g><g><path d="M133.89165,127.15859v48.80319h-2.91856v-48.80319z"/><path d="M133.94455,175.89545h-18.31678v-7.11487h18.31678z"/><path d="M115.57752,175.68695v-48.8032h2.67035v48.8032z" data-paper-data="{&quot;index&quot;:null}"/><path d="M115.52463,126.95009h18.31678v6.45354h-18.31678z" data-paper-data="{&quot;index&quot;:null}"/><path d="M119.11255,129.63112l12.51854,38.91343l-1.90499,4.35057l-12.51854,-38.91343z"/><path d="M131.71423,134.20324l-12.51854,38.91343l-1.90499,-4.35057l12.51854,-38.91343z" data-paper-data="{&quot;index&quot;:null}"/></g><g><path d="M133.78888,82.49374v48.80319h-2.91856v-48.80319z"/><path d="M133.8418,131.2306h-18.31678v-7.11487h18.31678z"/><path d="M115.47477,131.02211v-48.8032h2.67035v48.8032z" data-paper-data="{&quot;index&quot;:null}"/><path d="M115.42187,82.28524h18.31678v6.45354h-18.31678z" data-paper-data="{&quot;index&quot;:null}"/><path d="M119.00979,84.96628l12.51854,38.91343l-1.90499,4.35057l-12.51854,-38.91343z"/><path d="M131.61147,89.53839l-12.51854,38.91343l-1.90499,-4.35057l12.51854,-38.91343z" data-paper-data="{&quot;index&quot;:null}"/></g></g></g><g fill="#a9a9a9" stroke-width="0"><g><path d="M282.09842,217.95481v48.80319h-2.91856v-48.80319z"/><path d="M282.1513,266.69167h-18.31678v-7.11487h18.31678z"/><path d="M263.78427,266.48317v-48.80319h2.67035v48.80319z" data-paper-data="{&quot;index&quot;:null}"/><path d="M263.73139,217.74631h18.31678v6.45354h-18.31678z" data-paper-data="{&quot;index&quot;:null}"/><path d="M267.31931,220.42734l12.51854,38.91343l-1.90499,4.35057l-12.51854,-38.91343z"/><path d="M279.921,224.99946l-12.51854,38.91343l-1.90499,-4.35057l12.51854,-38.91343z" data-paper-data="{&quot;index&quot;:null}"/></g><g><path d="M281.99566,173.28996v48.8032h-2.91856v-48.8032z"/><path d="M282.04855,222.02682h-18.31678v-7.11487h18.31678z"/><path d="M263.68152,221.81833v-48.8032h2.67035v48.8032z" data-paper-data="{&quot;index&quot;:null}"/><path d="M263.62863,173.08146h18.31678v6.45354h-18.31678z" data-paper-data="{&quot;index&quot;:null}"/><path d="M267.21655,175.7625l12.51854,38.91343l-1.90499,4.35057l-12.51854,-38.91343z"/><path d="M279.81824,180.33462l-12.51854,38.91343l-1.90499,-4.35057l12.51854,-38.91343z" data-paper-data="{&quot;index&quot;:null}"/></g><g><g><path d="M281.89166,128.15859v48.80319h-2.91856v-48.80319z"/><path d="M281.94455,176.89545h-18.31678v-7.11487h18.31678z"/><path d="M263.57752,176.68695v-48.8032h2.67035v48.8032z" data-paper-data="{&quot;index&quot;:null}"/><path d="M263.52463,127.95009h18.31678v6.45354h-18.31678z" data-paper-data="{&quot;index&quot;:null}"/><path d="M267.11255,130.63112l12.51854,38.91343l-1.90499,4.35057l-12.51854,-38.91343z"/><path d="M279.71424,135.20324l-12.51854,38.91343l-1.90499,-4.35057l12.51854,-38.91343z" data-paper-data="{&quot;index&quot;:null}"/></g><g><path d="M281.78889,83.49374v48.80319h-2.91856v-48.80319z"/><path d="M281.8418,132.2306h-18.31678v-7.11487h18.31678z"/><path d="M263.47477,132.02211v-48.8032h2.67035v48.8032z" data-paper-data="{&quot;index&quot;:null}"/><path d="M263.42187,83.28524h18.31678v6.45354h-18.31678z" data-paper-data="{&quot;index&quot;:null}"/><path d="M267.00978,85.96628l12.51854,38.91343l-1.90499,4.35057l-12.51854,-38.91343z"/><path d="M279.61148,90.53839l-12.51854,38.91343l-1.90499,-4.35057l12.51854,-38.91343z" data-paper-data="{&quot;index&quot;:null}"/></g></g></g><g fill="#a9a9a9" stroke-width="0"><g><path d="M425.75294,247.67663h48.80319v2.91856h-48.80319z"/><path d="M474.4898,247.62374v18.31678h-7.11488v-18.31678z"/><path d="M474.2813,265.99077h-48.80319v-2.67035h48.80319z" data-paper-data="{&quot;index&quot;:null}"/><path d="M425.54444,266.04366v-18.31678h6.45354v18.31678z" data-paper-data="{&quot;index&quot;:null}"/><path d="M428.22547,262.45574l38.91343,-12.51854l4.35057,1.90499l-38.91343,12.51854z"/><path d="M432.79759,249.85405l38.91343,12.51854l-4.35057,1.90499l-38.91343,-12.51854z" data-paper-data="{&quot;index&quot;:null}"/></g><g><path d="M381.08809,247.77939h48.8032v2.91856h-48.8032z"/><path d="M429.82495,247.72649v18.31678h-7.11487v-18.31678z"/><path d="M429.61646,266.09352h-48.8032v-2.67035h48.80319z" data-paper-data="{&quot;index&quot;:null}"/><path d="M380.8796,266.14642v-18.31678h6.45354v18.31678z" data-paper-data="{&quot;index&quot;:null}"/><path d="M383.56063,262.5585l38.91343,-12.51854l4.35057,1.90499l-38.91342,12.51854z"/><path d="M388.13275,249.95681l38.91343,12.51854l-4.35057,1.90499l-38.91343,-12.51854z" data-paper-data="{&quot;index&quot;:null}"/></g><g><g><path d="M335.95672,247.88339h48.80319v2.91856h-48.80319z"/><path d="M384.69358,247.8305v18.31678h-7.11487v-18.31678z"/><path d="M384.48508,266.19753h-48.8032v-2.67035h48.8032z" data-paper-data="{&quot;index&quot;:null}"/><path d="M335.74822,266.25042v-18.31678h6.45354v18.31678z" data-paper-data="{&quot;index&quot;:null}"/><path d="M338.42925,262.6625l38.91343,-12.51854l4.35057,1.90499l-38.91343,12.51854z"/><path d="M343.00137,250.06081l38.91343,12.51854l-4.35057,1.90499l-38.91343,-12.51854z" data-paper-data="{&quot;index&quot;:null}"/></g><g><path d="M291.29187,247.98616h48.80319v2.91856h-48.80319z"/><path d="M340.02873,247.93325v18.31678h-7.11487v-18.31678z"/><path d="M339.82024,266.30028h-48.80319v-2.67035h48.80319z" data-paper-data="{&quot;index&quot;:null}"/><path d="M291.08337,266.35318v-18.31678h6.45354v18.31678z" data-paper-data="{&quot;index&quot;:null}"/><path d="M293.76441,262.76526l38.91343,-12.51854l4.35057,1.90499l-38.91343,12.51854z"/><path d="M298.33652,250.16357l38.91343,12.51854l-4.35057,1.90499l-38.91343,-12.51854z" data-paper-data="{&quot;index&quot;:null}"/></g></g></g><g fill="#a9a9a9" stroke-width="0"><g><path d="M416.75294,228.67663h48.8032v2.91856h-48.8032z"/><path d="M465.4898,228.62374v18.31678h-7.11487v-18.31678z"/><path d="M465.2813,246.99077h-48.80319v-2.67035h48.80319z" data-paper-data="{&quot;index&quot;:null}"/><path d="M416.54444,247.04366v-18.31678h6.45354v18.31678z" data-paper-data="{&quot;index&quot;:null}"/><path d="M419.22547,243.45574l38.91343,-12.51854l4.35057,1.90499l-38.91343,12.51854z"/><path d="M423.79759,230.85405l38.91343,12.51854l-4.35057,1.90499l-38.91343,-12.51854z" data-paper-data="{&quot;index&quot;:null}"/></g><g><path d="M372.08809,228.77939h48.8032v2.91856h-48.8032z"/><path d="M420.82495,228.72649v18.31678h-7.11487v-18.31678z"/><path d="M420.61646,247.09352h-48.80319v-2.67035h48.80319z" data-paper-data="{&quot;index&quot;:null}"/><path d="M371.8796,247.14642v-18.31678h6.45354v18.31678z" data-paper-data="{&quot;index&quot;:null}"/><path d="M374.56063,243.5585l38.91343,-12.51854l4.35057,1.90499l-38.91343,12.51854z"/><path d="M379.13275,230.95681l38.91343,12.51854l-4.35057,1.90499l-38.91343,-12.51854z" data-paper-data="{&quot;index&quot;:null}"/></g><g><g><path d="M326.95671,228.88339h48.8032v2.91856h-48.8032z"/><path d="M375.69358,228.8305v18.31678h-7.11487v-18.31678z"/><path d="M375.48508,247.19753h-48.8032v-2.67035h48.8032z" data-paper-data="{&quot;index&quot;:null}"/><path d="M326.74822,247.25041v-18.31678h6.45354v18.31678z" data-paper-data="{&quot;index&quot;:null}"/><path d="M329.42925,243.6625l38.91343,-12.51854l4.35057,1.90499l-38.91343,12.51854z"/><path d="M334.00137,231.06081l38.91343,12.51854l-4.35057,1.90499l-38.91343,-12.51854z" data-paper-data="{&quot;index&quot;:null}"/></g><g><path d="M282.29186,228.98616h48.8032v2.91856h-48.8032z"/><path d="M331.02873,228.93325v18.31678h-7.11487v-18.31678z"/><path d="M330.82024,247.30028h-48.8032v-2.67035h48.8032z" data-paper-data="{&quot;index&quot;:null}"/><path d="M282.08337,247.35318v-18.31678h6.45354v18.31678z" data-paper-data="{&quot;index&quot;:null}"/><path d="M284.76441,243.76526l38.91343,-12.51854l4.35057,1.90499l-38.91343,12.51854z"/><path d="M289.33652,231.16357l38.91343,12.51854l-4.35057,1.90499l-38.91343,-12.51854z" data-paper-data="{&quot;index&quot;:null}"/></g></g></g><g stroke-width="0"><path d="M209.18831,263.92432v-43.76728h54.27143v43.76728z" fill="#ecca82"/><path d="M204.51981,267.13393v-52.52075h7.87812v52.52075z" fill="#dbbb78"/><path d="M263.89742,222.63719h-52.52075v-7.87812h52.52075z" fill="#dbbb78"/><path d="M264.18922,215.19676v52.52075h-7.87812v-52.52075z" data-paper-data="{&quot;index&quot;:null}" fill="#dbbb78"/><path d="M204.81159,259.6935h52.52075v7.87812h-52.52075z" data-paper-data="{&quot;index&quot;:null}" fill="#dbbb78"/><path d="M223.12967,266.3753v-45.51798h1.45892v45.51798z" fill="#dbbb78"/><path d="M243.84619,264.6246v-45.51798h1.45892v45.51798z" fill="#dbbb78"/></g><g stroke-width="0"><path d="M144.18831,262.92431v-43.76728h54.27143v43.76728z" fill="#ecca82"/><path d="M139.51981,266.13394v-52.52075h7.87812v52.52075z" fill="#dbbb78"/><path d="M198.89743,221.63719h-52.52075v-7.87812h52.52075z" fill="#dbbb78"/><path d="M199.18921,214.19676v52.52075h-7.87811v-52.52075z" data-paper-data="{&quot;index&quot;:null}" fill="#dbbb78"/><path d="M139.81159,258.6935h52.52075v7.87812h-52.52075z" data-paper-data="{&quot;index&quot;:null}" fill="#dbbb78"/><path d="M158.12968,265.3753v-45.51798h1.45892v45.51798z" fill="#dbbb78"/><path d="M178.84619,263.6246v-45.51798h1.45892v45.51798z" fill="#dbbb78"/></g><g stroke-width="0"><path d="M157.18831,210.92431v-43.76728h54.27143v43.76728z" fill="#ecca82"/><path d="M152.51981,214.13394v-52.52075h7.87812v52.52075z" fill="#dbbb78"/><path d="M211.89743,169.63719h-52.52075v-7.87812h52.52075z" fill="#dbbb78"/><path d="M212.18921,162.19676v52.52075h-7.87811v-52.52075z" data-paper-data="{&quot;index&quot;:null}" fill="#dbbb78"/><path d="M152.81159,206.6935h52.52075v7.87812h-52.52075z" data-paper-data="{&quot;index&quot;:null}" fill="#dbbb78"/><path d="M171.12968,213.3753v-45.51798h1.45892v45.51798z" fill="#dbbb78"/><path d="M191.84619,211.6246v-45.51798h1.45892v45.51798z" fill="#dbbb78"/></g><g stroke-width="0"><path d="M139.18831,157.92431v-43.76728h54.27143v43.76728z" fill="#ecca82"/><path d="M134.51981,161.13394v-52.52075h7.87812v52.52075z" fill="#dbbb78"/><path d="M193.89743,116.63719h-52.52075v-7.87812h52.52075z" fill="#dbbb78"/><path d="M194.18921,109.19676v52.52075h-7.87811v-52.52075z" data-paper-data="{&quot;index&quot;:null}" fill="#dbbb78"/><path d="M134.81159,153.6935h52.52075v7.87812h-52.52075z" data-paper-data="{&quot;index&quot;:null}" fill="#dbbb78"/><path d="M153.12968,160.3753v-45.51798h1.45892v45.51798z" fill="#dbbb78"/><path d="M173.84619,158.6246v-45.51798h1.45892v45.51798z" fill="#dbbb78"/></g><path d="M8.10853,256.2514l96.87363,-96.87363l10.25305,10.25305l-96.87363,96.87363z" fill="#d3962e" stroke-width="0"/></g></g></svg>