<svg version="1.1" xmlns="http://www.w3.org/2000/svg" xmlns:xlink="http://www.w3.org/1999/xlink" width="487.73443" height="345.45402" viewBox="0,0,487.73443,345.45402"><defs><linearGradient x1="116.94364" y1="388.28999" x2="100.7596" y2="399.01283" gradientUnits="userSpaceOnUse" id="color-1"><stop offset="0" stop-color="#8e8e8e"/><stop offset="1" stop-color="#818181"/></linearGradient><linearGradient x1="339.55258" y1="312.99793" x2="306.9669" y2="368.26428" gradientUnits="userSpaceOnUse" id="color-2"><stop offset="0" stop-color="#8e8e8e"/><stop offset="1" stop-color="#818181"/></linearGradient><linearGradient x1="383.99569" y1="313.09788" x2="340.89745" y2="347.08398" gradientUnits="userSpaceOnUse" id="color-3"><stop offset="0" stop-color="#8e8e8e"/><stop offset="1" stop-color="#818181"/></linearGradient><linearGradient x1="149.51258" y1="323.8148" x2="176.76645" y2="355.85916" gradientUnits="userSpaceOnUse" id="color-4"><stop offset="0" stop-color="#8e8e8e"/><stop offset="1" stop-color="#818181"/></linearGradient><linearGradient x1="67.74004" y1="316.56514" x2="52.2375" y2="366.88271" gradientUnits="userSpaceOnUse" id="color-5"><stop offset="0" stop-color="#8e8e8e"/><stop offset="1" stop-color="#818181"/></linearGradient><linearGradient x1="108.25" y1="195.90002" x2="108.25" y2="257.90002" gradientUnits="userSpaceOnUse" id="color-6"><stop offset="0" stop-color="#65ffff"/><stop offset="1" stop-color="#d9efff"/></linearGradient></defs><g transform="translate(6.23443,-74.80002)"><g data-paper-data="{&quot;isPaintingLayer&quot;:true}" fill-rule="nonzero" stroke-linejoin="miter" stroke-miterlimit="10" stroke-dasharray="" stroke-dashoffset="0" style="mix-blend-mode: normal"><path d="M5.5,278.80003v-204h476v204z" fill="#cecece" stroke="none" stroke-width="0" stroke-linecap="butt"/><g stroke="none" stroke-linecap="butt"><path d="M95.46654,394.58576l6.54362,-7.86422l17.53865,3.77381l-6.27486,12.029l-12.68749,-0.75551z" data-paper-data="{&quot;origPos&quot;:null,&quot;origRot&quot;:0}" fill="#534c42" stroke-width="0"/><path d="M97.76141,393.72636l5.8725,-7.05764l15.73983,3.38678l-5.63134,10.79525l-11.38627,-0.67802z" data-paper-data="{&quot;origPos&quot;:null,&quot;origRot&quot;:0}" fill="url(#color-1)" stroke-width="NaN"/></g><path d="M-4.12143,353.67138v-74.52655c0,0 48.16365,7.45265 85.52755,7.45265c39.39214,0 140.66021,-7.67744 225.01971,-9.4622c91.48035,-1.93542 164.82687,2.00956 164.82687,2.00956v74.52655z" fill="#7c7262" stroke="none" stroke-width="0" stroke-linecap="butt"/><path d="M-4.40698,417.59975v-74.52655c0,0 48.226,7.45265 85.63824,7.45265c39.44313,0 140.84223,-7.67744 225.31085,-9.4622c91.59874,-1.93542 165.04016,2.00956 165.04016,2.00956v74.52655z" fill="#786e5f" stroke="none" stroke-width="0" stroke-linecap="butt"/><path d="M-3.88012,420.25404v-37.05188c0,0 48.05824,3.70519 85.34037,3.70519c39.30594,0 140.35234,-3.81693 224.5272,-4.70428c91.28013,-0.96221 164.46613,0.9991 164.46613,0.9991v37.05188z" fill="#6f6558" stroke="none" stroke-width="0" stroke-linecap="butt"/><path d="M-6.23443,290.69768v-32.95167h483.3732v32.95167z" fill="#949494" stroke="none" stroke-width="0" stroke-linecap="butt"/><path d="M-6.13878,290.69768v-13.30453h482.90993v13.30453z" fill="#b5b5b5" stroke="none" stroke-width="0" stroke-linecap="butt"/><g stroke="none" stroke-linecap="butt"><path d="M285.48718,355.27859l8.82339,-36.16014l54.29939,0.37413l-2.92623,52.24412l-36.84514,7.45925z" data-paper-data="{&quot;origPos&quot;:null,&quot;origRot&quot;:0}" fill="#534c42" stroke-width="0"/><path d="M291.96013,350.02997l7.91844,-32.45141l48.73018,0.33577l-2.62616,46.88573l-33.06613,6.69417z" data-paper-data="{&quot;origPos&quot;:null,&quot;origRot&quot;:0}" fill="url(#color-2)" stroke-width="NaN"/></g><g stroke="none" stroke-linecap="butt"><path d="M326.1283,332.49622l17.42583,-24.92571l46.70589,11.96112l-16.71013,38.12603l-33.78712,-2.39454z" data-paper-data="{&quot;origPos&quot;:null,&quot;origRot&quot;:0}" fill="#534c42" stroke-width="0"/><path d="M332.91312,330.32845l15.63862,-22.36922l41.91551,10.73433l-14.99634,34.21564l-30.32177,-2.14891z" data-paper-data="{&quot;origPos&quot;:null,&quot;origRot&quot;:0}" fill="url(#color-3)" stroke-width="NaN"/></g><g stroke="none" stroke-linecap="butt"><path d="M164.34489,365.4779l-21.6308,-13.73023l13.81668,-31.35114l33.70676,14.15045l-4.29109,23.1124z" data-paper-data="{&quot;origRot&quot;:0}" fill="#534c42" stroke-width="0"/><path d="M161.57228,360.20094l-18.70351,-12.32205l11.9468,-28.13558l29.14518,12.69916l-3.71032,20.74185z" data-paper-data="{&quot;origRot&quot;:0}" fill="url(#color-4)" stroke-width="NaN"/></g><g stroke="none" stroke-linecap="butt"><path d="M30.91761,360.50711l-0.6379,-30.4996l46.92872,-10.22854l9.39478,42.16174l-30.08404,13.08147z" data-paper-data="{&quot;origRot&quot;:0}" fill="#534c42" stroke-width="0"/><path d="M35.1313,355.27456l-0.57247,-27.37144l42.11548,-9.17942l8.43114,37.83744l-26.99847,11.73975z" data-paper-data="{&quot;origRot&quot;:0}" fill="url(#color-5)" stroke-width="NaN"/></g><path d="M66.5,170.80003c0,-23.74824 19.25176,-43 43,-43c23.74825,0 43,19.25176 43,43c0,23.74824 -19.25176,43 -43,43c-23.74824,0 -43,-19.25176 -43,-43z" fill="#b3b3b3" stroke="none" stroke-width="0" stroke-linecap="butt"/><path d="M73.5,170.80003c0,-19.88225 16.11775,-36 36,-36c19.88225,0 36,16.11775 36,36c0,19.88225 -16.11775,36 -36,36c-19.88225,0 -36,-16.11775 -36,-36z" fill="#949494" stroke="none" stroke-width="0" stroke-linecap="butt"/><path d="M240.5,164.80003h-23" fill="none" stroke="#949494" stroke-width="2" stroke-linecap="round"/><path d="M232.5,163.80003v-8h14" fill="none" stroke="#949494" stroke-width="2" stroke-linecap="round"/><path d="M217.5,145.80003h19v10" fill="none" stroke="#949494" stroke-width="2" stroke-linecap="round"/><path d="M39.5,233.80001v-6h21" fill="none" stroke="#949494" stroke-width="2" stroke-linecap="round"/><path d="M29.5,219.80001h19v8" fill="none" stroke="#949494" stroke-width="2" stroke-linecap="round"/><path d="M40.5,91.80004v24" fill="none" stroke="#949494" stroke-width="2" stroke-linecap="round"/><path d="M54.5,100.80004v7h-15" fill="none" stroke="#949494" stroke-width="2" stroke-linecap="round"/><path d="M40.5,100.80004h-10" fill="none" stroke="#949494" stroke-width="2" stroke-linecap="round"/><path d="M428.5,222.80001h-52" fill="none" stroke="#949494" stroke-width="2" stroke-linecap="round"/><path d="M416.5,223.80001v6h-20" fill="none" stroke="#949494" stroke-width="2" stroke-linecap="round"/><path d="M404.5,222.80001v-8" fill="none" stroke="#949494" stroke-width="2" stroke-linecap="round"/><path d="M442.5,95.80003v12h-13" fill="none" stroke="#949494" stroke-width="2" stroke-linecap="round"/><path d="M445.5,117.80003h-10v-10" fill="none" stroke="#949494" stroke-width="2" stroke-linecap="round"/><path d="M88.75,257.90002c0,0 0,-49.1204 0,-57.5c0,-2.34421 -5,-4.5 -5,-4.5h51c0,0 -7,2.70529 -7,5.5c0,8.95736 0,56.5 0,56.5z" fill="url(#color-6)" stroke="none" stroke-width="0" stroke-linecap="butt"/><g fill="#a9a9a9" stroke="none" stroke-width="0" stroke-linecap="butt"><g><path d="M328.09842,209.95482v48.80319h-2.91856v-48.80319z"/><path d="M328.1513,258.69169h-18.31678v-7.11487h18.31678z"/><path d="M309.78427,258.48317v-48.80319h2.67035v48.80319z" data-paper-data="{&quot;index&quot;:null}"/><path d="M309.73139,209.74632h18.31678v6.45354h-18.31678z" data-paper-data="{&quot;index&quot;:null}"/><path d="M313.31931,212.42733l12.51854,38.91343l-1.90499,4.35057l-12.51854,-38.91343z"/><path d="M325.921,216.99947l-12.51854,38.91343l-1.90499,-4.35057l12.51854,-38.91343z" data-paper-data="{&quot;index&quot;:null}"/></g><g><path d="M327.99566,165.28998v48.8032h-2.91856v-48.8032z"/><path d="M328.04855,214.02682h-18.31678v-7.11487h18.31678z"/><path d="M309.68152,213.81834v-48.8032h2.67035v48.8032z" data-paper-data="{&quot;index&quot;:null}"/><path d="M309.62863,165.08146h18.31678v6.45354h-18.31678z" data-paper-data="{&quot;index&quot;:null}"/><path d="M313.21655,167.7625l12.51854,38.91343l-1.90499,4.35057l-12.51854,-38.91343z"/><path d="M325.81823,172.33464l-12.51854,38.91343l-1.90499,-4.35057l12.51854,-38.91343z" data-paper-data="{&quot;index&quot;:null}"/></g><g><g><path d="M327.89166,120.15861v48.80319h-2.91856v-48.80319z"/><path d="M327.94455,168.89547h-18.31678v-7.11487h18.31678z"/><path d="M309.57752,168.68697v-48.8032h2.67035v48.8032z" data-paper-data="{&quot;index&quot;:null}"/><path d="M309.52463,119.95011h18.31678v6.45354h-18.31678z" data-paper-data="{&quot;index&quot;:null}"/><path d="M313.11255,122.63113l12.51854,38.91343l-1.90499,4.35057l-12.51854,-38.91343z"/><path d="M325.71424,127.20325l-12.51854,38.91343l-1.90499,-4.35057l12.51854,-38.91343z" data-paper-data="{&quot;index&quot;:null}"/></g><g><path d="M327.78889,75.49375v48.80319h-2.91856v-48.80319z"/><path d="M327.8418,124.23061h-18.31678v-7.11487h18.31678z"/><path d="M309.47477,124.02212v-48.8032h2.67035v48.8032z" data-paper-data="{&quot;index&quot;:null}"/><path d="M309.42187,75.28525h18.31678v6.45354h-18.31678z" data-paper-data="{&quot;index&quot;:null}"/><path d="M313.00978,77.96629l12.51854,38.91343l-1.90499,4.35057l-12.51854,-38.91343z"/><path d="M325.61148,82.53839l-12.51854,38.91343l-1.90499,-4.35057l12.51854,-38.91343z" data-paper-data="{&quot;index&quot;:null}"/></g></g></g></g></g></svg>