<svg version="1.1" xmlns="http://www.w3.org/2000/svg" xmlns:xlink="http://www.w3.org/1999/xlink" width="51" height="136" viewBox="0,0,51,136"><g transform="translate(-214.5,-112)"><g data-paper-data="{&quot;isPaintingLayer&quot;:true}" fill-rule="nonzero" stroke-linecap="butt" stroke-linejoin="miter" stroke-miterlimit="10" stroke-dasharray="" stroke-dashoffset="0" style="mix-blend-mode: normal"><path d="M217.5,244c0,0 -1,-1.22634 -1,-5c0,-13.89171 0,-98.44052 0,-120c0,-3.18914 1,-3.5 1,-3.5c0,0 1.26634,-1.5 4.75,-1.5c9.83065,0 29.35515,0 35,0c2.99409,0 4.25,2.5 4.25,2.5c0,0 2,-0.11619 2,4c0,23.96586 0,106.6587 0,119.5c0,3.28348 -1,5 -1,5c0,0 -1.70349,1 -5.75,1c-10.25593,0 -29.13911,0 -34.5,0c-2.79122,0 -4.75,-2 -4.75,-2z" fill="#ffffff" stroke="#efefef" stroke-width="4"/><text transform="translate(219.25,131.9099) scale(0.39361,0.39361)" font-size="40" xml:space="preserve" fill="#000000" fill-rule="nonzero" stroke="none" stroke-width="1" stroke-linecap="butt" stroke-linejoin="miter" stroke-miterlimit="10" stroke-dasharray="" stroke-dashoffset="0" font-family="Sans Serif" font-weight="normal" text-anchor="start" style="mix-blend-mode: normal"><tspan x="0" dy="0">God </tspan><tspan x="0" dy="46.150000000000006px">Mode</tspan></text><text transform="translate(228.75,194.14035) scale(0.31449,0.31449)" font-size="40" xml:space="preserve" fill="#00d871" fill-rule="nonzero" stroke="none" stroke-width="1" stroke-linecap="butt" stroke-linejoin="miter" stroke-miterlimit="10" stroke-dasharray="" stroke-dashoffset="0" font-family="Sans Serif" font-weight="normal" text-anchor="start" style="mix-blend-mode: normal"><tspan x="0" dy="0">On</tspan></text><text transform="translate(229.25,239.64035) scale(0.31449,0.31449)" font-size="40" xml:space="preserve" fill="#d90000" fill-rule="nonzero" stroke="none" stroke-width="1" stroke-linecap="butt" stroke-linejoin="miter" stroke-miterlimit="10" stroke-dasharray="" stroke-dashoffset="0" font-family="Sans Serif" font-weight="normal" text-anchor="start" style="mix-blend-mode: normal"><tspan x="0" dy="0">Off</tspan></text></g></g></svg>