<svg version="1.1" xmlns="http://www.w3.org/2000/svg" xmlns:xlink="http://www.w3.org/1999/xlink" width="146.1974" height="211.96508" viewBox="0,0,146.1974,211.96508"><defs><linearGradient x1="86.15489" y1="339.9432" x2="80.84861" y2="349.37482" gradientUnits="userSpaceOnUse" id="color-1"><stop offset="0" stop-color="#8e8e8e"/><stop offset="1" stop-color="#818181"/></linearGradient><linearGradient x1="132.78058" y1="277.42758" x2="97.59675" y2="322.93573" gradientUnits="userSpaceOnUse" id="color-2"><stop offset="0" stop-color="#8e8e8e"/><stop offset="1" stop-color="#818181"/></linearGradient><linearGradient x1="128.13398" y1="354.53672" x2="125.20798" y2="364.91109" gradientUnits="userSpaceOnUse" id="color-3"><stop offset="0" stop-color="#8e8e8e"/><stop offset="1" stop-color="#818181"/></linearGradient><linearGradient x1="144.8752" y1="282.32537" x2="110.29166" y2="305.18269" gradientUnits="userSpaceOnUse" id="color-4"><stop offset="0" stop-color="#8e8e8e"/><stop offset="1" stop-color="#818181"/></linearGradient></defs><g transform="translate(-64.08146,-175.36289)"><g data-paper-data="{&quot;isPaintingLayer&quot;:true}" fill-rule="nonzero" stroke="none" stroke-linecap="butt" stroke-linejoin="miter" stroke-miterlimit="10" stroke-dasharray="" stroke-dashoffset="0" style="mix-blend-mode: normal"><path d="M123.75686,235.74692l13.37287,-41.46371l50.28576,2.229l-21.4816,55.93968z" fill="#999999" stroke-width="0"/><g data-paper-data="{&quot;index&quot;:null}"><path d="M81.86802,345.01692l3.44487,-7.09419l0.08172,4.09139l-4.95594,10.97525l-0.7862,-1.124z" data-paper-data="{&quot;origPos&quot;:null,&quot;origRot&quot;:0}" fill="#534c42" stroke-width="0"/><path d="M82.377,344.29415l3.09155,-6.36659l0.07333,3.67179l-4.44765,9.84958l-0.70556,-1.00871z" data-paper-data="{&quot;origPos&quot;:null,&quot;origRot&quot;:0}" fill="url(#color-1)" stroke-width="NaN"/></g><path d="M86.67641,307.75967l29.34645,-73.38094c0,0 1.29628,8.52933 4.43087,9.77084c3.30475,1.30891 14.62761,-2.46416 22.36204,-1.32045c8.38732,1.24025 13.08793,7.34515 13.08793,7.34515l-27.44344,69.28972z" data-paper-data="{&quot;index&quot;:null}" fill="#9a8a7e" stroke-width="0"/><path d="M65.01466,363.09522l27.44344,-69.28972c0,0 1.30152,8.5314 4.44016,9.77452c3.30903,1.3106 14.64288,-2.45812 22.38647,-1.31078c8.39724,1.24419 13.10582,7.35224 13.10582,7.35224l-27.44344,69.28972z" data-paper-data="{&quot;index&quot;:null}" fill="#887c6d" stroke-width="0"/><path d="M64.08146,365.58049l13.64388,-34.44832c0,0 2.6674,5.04169 5.79513,6.28049c3.29752,1.30604 13.1802,1.11485 20.56869,3.08678c8.01215,2.13842 13.42975,6.3937 13.42975,6.3937l-13.64388,34.44832z" data-paper-data="{&quot;index&quot;:null}" fill="#807566" stroke-width="0"/><g data-paper-data="{&quot;index&quot;:null}"><path d="M91.69648,306.63169l17.33184,-32.0285l24.57884,10.13729l-20.57021,48.04547l-19.51834,0.29242z" data-paper-data="{&quot;origPos&quot;:null,&quot;origRot&quot;:0}" fill="#534c42" stroke-width="0"/><path d="M96.57567,302.91884l15.55421,-28.74352l22.0579,9.09758l-18.46046,43.1177l-17.51646,0.2624z" data-paper-data="{&quot;origPos&quot;:null,&quot;origRot&quot;:0}" fill="url(#color-2)" stroke-width="NaN"/></g><g><g data-paper-data="{&quot;index&quot;:null}"><path d="M124.32962,367.52751l-1.07982,0.38493l4.03307,-11.34077l2.49777,-3.06974l-2.48246,7.47537z" data-paper-data="{&quot;origPos&quot;:null,&quot;origRot&quot;:0}" fill="#534c42" stroke-width="0"/><path d="M124.80556,365.99926l-0.96907,0.34545l3.61942,-10.17761l2.24161,-2.75492l-2.22785,6.70867z" data-paper-data="{&quot;origPos&quot;:null,&quot;origRot&quot;:0}" fill="url(#color-3)" stroke-width="NaN"/></g><path d="M118.62156,313.53413l27.44344,-69.28972c0,0 6.08684,-1.83234 11.15405,2.25632c4.67276,3.77038 8.24394,13.4425 10.73279,14.42826c2.36072,0.935 8.14812,-4.7887 8.14812,-4.7887l-28.91818,73.55056z" data-paper-data="{&quot;index&quot;:null}" fill="#9a8a7e" stroke-width="0"/><path d="M95.05994,372.96214l27.44344,-69.28972c0,0 6.09284,-1.82995 11.16752,2.26166c4.67966,3.77311 8.25911,13.44851 10.75119,14.43555c2.36377,0.93622 8.15511,-4.78593 8.15511,-4.78593l-27.44344,69.28972z" data-paper-data="{&quot;index&quot;:null}" fill="#887c6d" stroke-width="0"/><path d="M94.15384,375.45815l13.64388,-34.44832c0,0 5.34625,0.00793 10.75916,3.18674c4.99155,2.93141 9.97031,9.00875 12.45373,9.99234c2.35555,0.93296 6.75634,-1.30926 6.75634,-1.30926l-13.64388,34.44832z" data-paper-data="{&quot;index&quot;:null}" fill="#807566" stroke-width="0"/><g data-paper-data="{&quot;index&quot;:null}" fill="none" stroke-width="1" font-family="sans-serif" font-weight="normal" font-size="12" text-anchor="start"/><g data-paper-data="{&quot;index&quot;:null}" fill="none" stroke-width="1" font-family="sans-serif" font-weight="normal" font-size="12" text-anchor="start"/></g><g data-paper-data="{&quot;index&quot;:null}"><path d="M107.08311,288.22162l18.10151,-19.64014l19.51134,20.59294l-22.59588,32.05805l-16.41902,-9.07856z" data-paper-data="{&quot;origPos&quot;:null,&quot;origRot&quot;:0}" fill="#534c42" stroke-width="0"/><path d="M111.35554,287.5822l16.24496,-17.62575l17.51018,18.48084l-20.27838,28.77l-14.73504,-8.1474z" data-paper-data="{&quot;origPos&quot;:null,&quot;origRot&quot;:0}" fill="url(#color-4)" stroke-width="NaN"/></g><path d="M103.46805,256.17394l6.01262,-38.2797l25.43085,11.44889l56.28643,18.34864l-10.29725,26.83552l-40.21945,-12.03705l-25.5542,29.04449z" fill="#aeaeae" stroke-width="0"/><path d="M139.12548,180.87095l28.30339,-5.50807l42.84999,4.71579l-23.24806,31.45513c0,0 -13.26284,-4.35827 -23.21132,-10.17013c-10.42999,-6.09315 -37.58666,-6.73897 -35.0116,-11.14682z" fill="#aeaeae" stroke-width="0"/></g></g></svg>