<svg version="1.1" xmlns="http://www.w3.org/2000/svg" xmlns:xlink="http://www.w3.org/1999/xlink" width="378.62665" height="338.1075" viewBox="0,0,378.62665,338.1075"><defs><radialGradient cx="369.93083" cy="232.84066" r="26.03542" gradientUnits="userSpaceOnUse" id="color-1"><stop offset="0" stop-color="#faff00"/><stop offset="1" stop-color="#faff00" stop-opacity="0"/></radialGradient></defs><g transform="translate(-50.68668,-10.94624)"><g data-paper-data="{&quot;isPaintingLayer&quot;:true}" fill-rule="nonzero" stroke-linecap="butt" stroke-linejoin="miter" stroke-miterlimit="10" stroke-dasharray="" stroke-dashoffset="0" style="mix-blend-mode: normal"><g><path d="M51.99999,329.55527v-205h299.24548l1.94315,13.05243l73.83979,0.76779l0.97158,191.17978z" fill="#ce9d5c" stroke="none" stroke-width="0"/><path d="M51.68668,347.56428v-213.21322h12.01201v213.21322z" fill="#916e41" stroke="#916e41" stroke-width="2"/><path d="M415.30031,348.05374v-205.7057h13.01302v205.7057z" fill="#916e41" stroke="#916e41" stroke-width="2"/><path d="M56.4212,328.81813v-15.63085h178.99361v15.63085z" fill="#916e41" stroke="#916e41" stroke-width="2"/><path d="M58.61066,312.50421v-13.51351h111.02088v13.51351z" fill="#916e41" stroke="#916e41" stroke-width="2"/><path d="M60.30996,297.9847v-13.51351h91.77851v13.51351z" fill="#916e41" stroke="#916e41" stroke-width="2"/><path d="M60.05488,283.46517v-13.51351h77.49353v13.51351z" fill="#916e41" stroke="#916e41" stroke-width="2"/><path d="M53.32554,268.94566v-13.51351h69.69376v13.51351z" fill="#916e41" stroke="#916e41" stroke-width="2"/><path d="M151.51127,201.68599v-15.63085h268.59721v15.63085z" fill="#916e41" stroke="#916e41" stroke-width="2"/><path d="M52.40318,139.11842v-15.63085h305.62424v15.63085z" fill="#916e41" stroke="#916e41" stroke-width="2"/><path d="M92.73172,132.06637v-37.53754h45.04505v37.53754z" fill="#916e41" stroke="#916e41" stroke-width="2"/><path d="M203.84283,129.06336v-117.11712h31.53153v117.11712z" fill="#916e41" stroke="#916e41" stroke-width="2"/><path d="M310.44942,123.05736v-24.02402h37.53754v24.02402z" fill="#916e41" stroke="#916e41" stroke-width="2"/><path d="M358.99999,141.55527v-19h70v19z" fill="#cfcfcf" stroke="none" stroke-width="0"/><g stroke="none" stroke-width="0"><path d="M388.56168,232.84066c0,14.37897 -8.34131,26.03542 -18.63085,26.03542c-10.28954,0 -18.63085,-11.65645 -18.63085,-26.03542c0,-14.37896 8.34131,-26.03541 18.63085,-26.03541c10.28954,0 18.63085,11.65645 18.63085,26.03542z" fill="url(#color-1)"/><path d="M366.39254,271.99909v-30.10619h4.90776v30.10619z" fill="#e57e00"/><path d="M368.35368,271.99909v-30.10619h3.27348v30.10619z" fill="#d17300"/><path d="M377.83745,235.88552c0,7.40124 -1.89229,10.13257 -8.66172,10.13257c-3.26119,0 -6.62138,-1.80606 -7.30457,-5.91519c-0.36438,-2.19159 0.96825,-6.20771 1.40749,-8.35929c0.44669,-2.18813 4.75309,-2.42239 4.75309,-4.35637c0,-5.41021 -3.33276,-9.56517 -2.3059,-10.17811c0.3779,-0.22558 1.62883,2.00668 3.44989,2.00668c1.54048,0 1.70717,5.21357 3.06534,5.7808c4.6101,1.92536 5.59638,5.17193 5.59638,10.88891z" fill="#ffef00"/><path d="M374.78678,237.28229c0,4.15266 -1.06171,5.68514 -4.85987,5.68514c-1.82978,0 -3.71509,-1.01333 -4.09841,-3.31886c-0.20445,-1.22965 0.54327,-3.483 0.78971,-4.6902c0.25063,-1.2277 2.66684,-1.35913 2.66684,-2.44425c0,-3.03553 1.59972,-1.65958 2.36176,-1.34132c2.58661,1.08028 3.13999,2.90185 3.13999,6.1095z" fill="#ffb000"/></g><path d="M152.15014,189.07387v-3.5h261.5v3.5z" fill="#715534" stroke="none" stroke-width="0"/><path d="M63.66666,254.62042v-3.5h60.66667v3.5z" fill="#715534" stroke="none" stroke-width="0"/><path d="M169.66666,313.62042v-3.5h67v3.5z" fill="#715534" stroke="none" stroke-width="0"/><path d="M152.99999,301.62042v-3.5h17.66667v3.5z" fill="#715534" stroke="none" stroke-width="0"/><path d="M138.33333,284.62042v-3.5h14.66667v3.5z" fill="#715534" stroke="none" stroke-width="0"/><path d="M124,270.28709v-3.5h14.66666v3.5z" fill="#715534" stroke="none" stroke-width="0"/></g></g></g></svg>