<svg version="1.1" xmlns="http://www.w3.org/2000/svg" xmlns:xlink="http://www.w3.org/1999/xlink" width="454.2772" height="234.04968" viewBox="0,0,454.2772,234.04968"><defs><linearGradient x1="303.24753" y1="394.79454" x2="295.11476" y2="405.51738" gradientUnits="userSpaceOnUse" id="color-1"><stop offset="0" stop-color="#8e8e8e"/><stop offset="1" stop-color="#818181"/></linearGradient><linearGradient x1="321.43539" y1="319.50246" x2="287.82944" y2="374.76882" gradientUnits="userSpaceOnUse" id="color-2"><stop offset="0" stop-color="#8e8e8e"/><stop offset="1" stop-color="#818181"/></linearGradient><linearGradient x1="367.27006" y1="319.6024" x2="322.82237" y2="353.58853" gradientUnits="userSpaceOnUse" id="color-3"><stop offset="0" stop-color="#8e8e8e"/><stop offset="1" stop-color="#818181"/></linearGradient><linearGradient x1="550.53125" y1="394.79454" x2="556.65617" y2="405.51738" gradientUnits="userSpaceOnUse" id="color-4"><stop offset="0" stop-color="#8e8e8e"/><stop offset="1" stop-color="#818181"/></linearGradient><linearGradient x1="536.83366" y1="319.50246" x2="562.14288" y2="374.76882" gradientUnits="userSpaceOnUse" id="color-5"><stop offset="0" stop-color="#8e8e8e"/><stop offset="1" stop-color="#818181"/></linearGradient><linearGradient x1="502.31478" y1="319.6024" x2="535.7891" y2="353.58853" gradientUnits="userSpaceOnUse" id="color-6"><stop offset="0" stop-color="#8e8e8e"/><stop offset="1" stop-color="#818181"/></linearGradient></defs><g transform="translate(-143.92599,-192.70892)"><g data-paper-data="{&quot;isPaintingLayer&quot;:true}" fill-rule="nonzero" stroke="none" stroke-linecap="butt" stroke-linejoin="miter" stroke-miterlimit="10" stroke-dasharray="" stroke-dashoffset="0" style="mix-blend-mode: normal"><path d="M198.80739,269.93334v-58.33333h13.33334v58.33333z" fill="#cb9537" stroke-width="0"/><path d="M195.80739,269.93333v-58.33333h13.33333v58.33333z" fill="#dea23b" stroke-width="0"/><g stroke-width="0"><path d="M162.61236,278.96067l7.51489,-8.03223l109.22341,99.95413l-7.51489,8.03223z" fill="#ce8508"/><path d="M165.57744,276.25254l4.78221,-5.11142l108.75863,99.52878l-4.78221,5.11142z" fill="#b07207"/></g><g stroke-width="0"><path d="M144.00577,278.77393l-0.07977,-10.99927l148.03129,-2.70533l0.07977,10.99927z" fill="#ce8508"/><path d="M144.29171,274.76842l-0.05076,-6.99954l147.40136,-2.69382l0.05076,6.99954z" fill="#b07207"/></g><g data-paper-data="{&quot;index&quot;:null}"><path d="M291.4561,401.09031l3.28829,-7.86422l8.8135,3.77381l-3.15324,12.029l-6.3757,-0.75551z" data-paper-data="{&quot;origPos&quot;:null,&quot;origRot&quot;:0}" fill="#534c42" stroke-width="0"/><path d="M292.60934,400.23091l2.95105,-7.05764l7.90956,3.38678l-2.82986,10.79525l-5.72182,-0.67802z" data-paper-data="{&quot;origPos&quot;:null,&quot;origRot&quot;:0}" fill="url(#color-1)" stroke-width="NaN"/></g><path d="M239.94803,364.68043l1.46325,-79.03105c0,0 24.20315,7.45265 42.97922,7.45265c19.7953,0 70.68443,-7.67744 113.07669,-9.4622c45.97062,-1.93542 82.82864,2.00956 82.82864,2.00956v74.52655z" data-paper-data="{&quot;index&quot;:null}" fill="#9a8a7e" stroke-width="0"/><path d="M241.26777,424.10432v-74.52655c0,0 24.23448,7.45265 43.03485,7.45265c19.82092,0 70.7759,-7.67744 113.22299,-9.4622c46.03011,-1.93542 82.93583,2.00956 82.93583,2.00956v74.52655z" data-paper-data="{&quot;index&quot;:null}" fill="#887c6d" stroke-width="0"/><path d="M241.53254,426.75859v-37.05188c0,0 24.15018,3.70519 42.88516,3.70519c19.75198,0 70.52972,-3.81693 112.82919,-4.70428c45.87,-0.96221 82.64736,0.9991 82.64736,0.9991v37.05188z" data-paper-data="{&quot;index&quot;:null}" fill="#807566" stroke-width="0"/><g data-paper-data="{&quot;index&quot;:null}"><path d="M263.62742,361.78314l9.09965,-36.16014l55.99953,0.37413l-3.01785,52.24412l-37.99878,7.45925z" data-paper-data="{&quot;origPos&quot;:null,&quot;origRot&quot;:0}" fill="#534c42" stroke-width="0"/><path d="M270.30305,356.53449l8.16637,-32.45141l50.25595,0.33577l-2.70838,46.88573l-34.10145,6.69417z" data-paper-data="{&quot;origPos&quot;:null,&quot;origRot&quot;:0}" fill="url(#color-2)" stroke-width="NaN"/></g><g data-paper-data="{&quot;index&quot;:null}"><path d="M305.54103,339.00079l17.97144,-24.92571l48.16827,11.96112l-17.23333,38.12603l-34.84501,-2.39454z" data-paper-data="{&quot;origPos&quot;:null,&quot;origRot&quot;:0}" fill="#534c42" stroke-width="0"/><path d="M312.53828,336.83302l16.12827,-22.36922l43.22791,10.73433l-15.46588,34.21564l-31.27116,-2.14891z" data-paper-data="{&quot;origPos&quot;:null,&quot;origRot&quot;:0}" fill="url(#color-3)" stroke-width="NaN"/></g><path d="M241.78297,297.20222c0,0 0,-11.73307 0,-17.36511c0,-5.33583 10.63597,-15.96534 25.36545,-16.48978c33.13594,-1.1798 86.98856,-3.09677 87.07177,-3.09677c29.19035,0 74.8328,3 74.8328,3l-6.60539,33.95167z" data-paper-data="{&quot;index&quot;:null}" fill="#efb95a" stroke-width="0"/><path d="M241.5667,297.20223l0.25104,-13.9712c0,0 76.65358,-9.33333 109.09976,-9.33333c22.28736,0 78.15989,2.72676 88.04805,9.94118c1.77257,1.29327 -3.83217,14.36335 -3.83217,14.36335z" data-paper-data="{&quot;index&quot;:null}" fill="#dfac55" stroke-width="0"/><g><g data-paper-data="{&quot;index&quot;:null}"><path d="M557.4739,408.27339l-4.80165,0.75551l-2.37476,-12.029l6.6376,-3.77381l2.47647,7.86422z" data-paper-data="{&quot;origPos&quot;:null,&quot;origRot&quot;:0}" fill="#534c42" stroke-width="0"/><path d="M556.80416,406.67728l-4.3092,0.67802l-2.13122,-10.79525l5.95683,-3.38678l2.22249,7.05764z" data-paper-data="{&quot;origPos&quot;:null,&quot;origRot&quot;:0}" fill="url(#color-4)" stroke-width="NaN"/></g><path d="M417.19314,360.17594v-74.52655c0,0 27.75841,-3.94498 62.37967,-2.00956c31.92634,1.78476 70.25182,9.4622 85.16,9.4622c14.14058,0 32.36839,-7.45265 32.36839,-7.45265l1.102,79.03105z" data-paper-data="{&quot;index&quot;:null}" fill="#9a8a7e" stroke-width="0"/><path d="M417.06841,424.10433v-74.52655c0,0 27.79433,-3.94498 62.4604,-2.00956c31.96763,1.78476 70.3427,9.4622 85.27018,9.4622c14.15888,0 32.41028,-7.45265 32.41028,-7.45265v74.52655z" data-paper-data="{&quot;index&quot;:null}" fill="#887c6d" stroke-width="0"/><path d="M417.49556,426.7586v-37.05188c0,0 27.69766,-1.96131 62.24315,-0.9991c31.85646,0.88735 70.09805,4.70428 84.9736,4.70428c14.10964,0 32.29755,-3.70519 32.29755,-3.70519v37.05188z" data-paper-data="{&quot;index&quot;:null}" fill="#807566" stroke-width="0"/><path d="M416.10325,297.20223l-62.33606,-37.95167c0,0 101.37311,1 130.56347,1c0.08321,0 53.93583,1.91697 87.07177,3.09677c14.72948,0.52444 25.36545,11.15395 25.36545,16.48978c0,5.63204 0,17.36511 0,17.36511z" data-paper-data="{&quot;index&quot;:null}" fill="#efb95a" stroke-width="0"/><path d="M403.41747,298.20223c0,0 -44.76683,-20.07008 -42.99426,-21.36335c9.88816,-7.21442 104.92279,-2.94118 127.21014,-2.94118c32.44619,0 109.09976,9.33333 109.09976,9.33333l0.25104,13.9712z" data-paper-data="{&quot;index&quot;:null}" fill="#dfac55" stroke-width="0"/><g data-paper-data="{&quot;index&quot;:null}"><path d="M562.23285,385.7005l-28.61753,-7.45925l-2.27279,-52.24412l42.17421,-0.37413l6.8531,36.16014z" data-paper-data="{&quot;origPos&quot;:null,&quot;origRot&quot;:0}" fill="#534c42" stroke-width="0"/><path d="M559.06556,377.99875l-25.68239,-6.69417l-2.03973,-46.88573l37.84862,-0.33577l6.15023,32.45141z" data-paper-data="{&quot;origPos&quot;:null,&quot;origRot&quot;:0}" fill="url(#color-5)" stroke-width="NaN"/></g><g data-paper-data="{&quot;index&quot;:null}"><path d="M538.21412,361.76769l-26.24238,2.39454l-12.97872,-38.12603l36.27635,-11.96112l13.5346,24.92571z" data-paper-data="{&quot;origPos&quot;:null,&quot;origRot&quot;:0}" fill="#534c42" stroke-width="0"/><path d="M534.03053,357.26486l-23.55085,2.14891l-11.64762,-34.21564l32.55568,-10.73433l12.14648,22.36922z" data-paper-data="{&quot;origPos&quot;:null,&quot;origRot&quot;:0}" fill="url(#color-6)" stroke-width="NaN"/></g></g><path d="M228.14072,216.1c-6.64545,0 -37.34944,0 -49,0c-2.80042,0 -5.5659,-0.86917 -7.0238,-2.1781c-3.15406,-2.83176 -8.14287,-7.72175 -8.14287,-10.3219c0,-2.73565 5.06841,-6.84742 8.21771,-9.13825c1.4194,-1.03249 3.88112,-1.69508 6.28229,-1.69508c11.09694,0 42.89017,0 49.66667,0c2.47755,0 4.83334,2.70102 4.83334,4.83333c0,2.72136 0,9.76478 0,14.33333c0,2.43481 -2.35579,4.16667 -4.83333,4.16667z" fill="#c18d34" stroke-width="0"/><text transform="translate(186.80739,199.18333) scale(0.1509,0.1509)" font-size="40" xml:space="preserve" fill="#dea23b" fill-rule="nonzero" stroke="none" stroke-width="1" stroke-linecap="butt" stroke-linejoin="miter" stroke-miterlimit="10" stroke-dasharray="" stroke-dashoffset="0" font-family="Sans Serif" font-weight="normal" text-anchor="start" style="mix-blend-mode: normal"><tspan x="0" dy="0">You will</tspan><tspan x="0" dy="46.15px">need a jump</tspan><tspan x="0" dy="46.15px">boost.</tspan></text></g></g></svg>