<svg version="1.1" xmlns="http://www.w3.org/2000/svg" xmlns:xlink="http://www.w3.org/1999/xlink" width="562.83813" height="380.00507" viewBox="0,0,562.83813,380.00507"><g transform="translate(32.3735,4.6548)"><g data-paper-data="{&quot;isPaintingLayer&quot;:true}" fill-rule="nonzero" stroke-linejoin="miter" stroke-miterlimit="10" stroke-dasharray="" stroke-dashoffset="0" style="mix-blend-mode: normal"><path d="M-32.3735,375.35028v-378.53345h562.83813v378.53345z" fill="#212121" stroke="none" stroke-width="0" stroke-linecap="butt"/><text transform="translate(5.05973,35.99744) scale(1.11376,1.11376)" font-size="40" xml:space="preserve" fill="#ffffff" fill-rule="nonzero" stroke="none" stroke-width="1" stroke-linecap="butt" stroke-linejoin="miter" stroke-miterlimit="10" stroke-dasharray="" stroke-dashoffset="0" font-family="Serif" font-weight="normal" text-anchor="start" style="mix-blend-mode: normal"><tspan x="0" dy="0">2D PHYSICS</tspan><tspan x="0" dy="48px">ENGINE</tspan></text><g fill="none" stroke="#888888" stroke-width="3.5"><path d="M330.15941,212.82686c-15.69507,-14.13951 -16.9561,-38.32522 -2.81659,-54.02029c14.13951,-15.69507 38.32522,-16.9561 54.02029,-2.81659c15.69507,14.13951 16.9561,38.32522 2.81659,54.02029c-14.13951,15.69507 -38.32522,16.9561 -54.02029,2.81659z" stroke-linecap="butt"/><path d="M380.99993,156.68705l-25.11826,27.50815" stroke-linecap="round"/></g><path d="M195.45346,361.6862v-76h34.75v76z" fill="none" stroke="#888888" stroke-width="3.5" stroke-linecap="butt"/><path d="M300.45346,361.6862v-76h34.75v76z" fill="none" stroke="#888888" stroke-width="3.5" stroke-linecap="butt"/><path d="M196.26091,285.33439l-4.17072,-31.72704l138.80581,-18.24689l4.17071,31.72704z" fill="none" stroke="#888888" stroke-width="3.5" stroke-linecap="butt"/><path d="M192.0423,249.95192l-6.0668,-75.75747l34.63911,-2.77396l6.0668,75.75747z" fill="none" stroke="#888888" stroke-width="3.5" stroke-linecap="butt"/><path d="M295.7151,238.41658l-28.06682,-70.62757l32.29352,-12.83318l28.06682,70.62757z" fill="none" stroke="#888888" stroke-width="3.5" stroke-linecap="butt"/><path d="M187.34029,170.92872l-11.74789,-29.76553l130.22421,-51.39703l11.74789,29.76554z" fill="none" stroke="#888888" stroke-width="3.5" stroke-linecap="butt"/><path d="M187.1219,134.42269l-11.6276,-29.81273l88.04072,-34.33777l11.6276,29.81273z" fill="none" stroke="#888888" stroke-width="3.5" stroke-linecap="butt"/><path d="M400.71276,170.85028l55.5,-17" fill="none" stroke="#eaeaea" stroke-width="3.5" stroke-linecap="round"/><path d="M403.71276,192.35028l55.5,-17" fill="none" stroke="#eaeaea" stroke-width="3.5" stroke-linecap="round"/><path d="M448.21276,134.35027l-55.5,17" fill="none" stroke="#eaeaea" stroke-width="3.5" stroke-linecap="round"/></g></g></svg>