<svg version="1.1" xmlns="http://www.w3.org/2000/svg" xmlns:xlink="http://www.w3.org/1999/xlink" width="482.27755" height="420.654" viewBox="0,0,482.27755,420.654"><defs><linearGradient x1="118.7094" y1="388.28995" x2="102.42385" y2="399.01279" gradientUnits="userSpaceOnUse" id="color-1"><stop offset="0" stop-color="#8e8e8e"/><stop offset="1" stop-color="#818181"/></linearGradient><linearGradient x1="-4.13878" y1="284.04542" x2="474.7563" y2="284.04542" gradientUnits="userSpaceOnUse" id="color-2"><stop offset="0" stop-color="#8bce39"/><stop offset="1" stop-color="#8bce39"/></linearGradient><linearGradient x1="342.71466" y1="312.99791" x2="309.92459" y2="368.26424" gradientUnits="userSpaceOnUse" id="color-3"><stop offset="0" stop-color="#8e8e8e"/><stop offset="1" stop-color="#818181"/></linearGradient><linearGradient x1="387.43654" y1="313.09785" x2="344.06797" y2="347.08394" gradientUnits="userSpaceOnUse" id="color-4"><stop offset="0" stop-color="#8e8e8e"/><stop offset="1" stop-color="#818181"/></linearGradient><linearGradient x1="151.48263" y1="323.81476" x2="178.90745" y2="355.85914" gradientUnits="userSpaceOnUse" id="color-5"><stop offset="0" stop-color="#8e8e8e"/><stop offset="1" stop-color="#818181"/></linearGradient><linearGradient x1="69.19717" y1="316.56511" x2="53.59739" y2="366.88267" gradientUnits="userSpaceOnUse" id="color-6"><stop offset="0" stop-color="#8e8e8e"/><stop offset="1" stop-color="#818181"/></linearGradient></defs><g transform="translate(4.13878,0.39999)"><g data-paper-data="{&quot;isPaintingLayer&quot;:true}" fill-rule="nonzero" stroke-linecap="butt" stroke-linejoin="miter" stroke-miterlimit="10" stroke-dasharray="" stroke-dashoffset="0" style="mix-blend-mode: normal"><path d="M444.13877,233.25001c0,7.31777 -10.96902,13.25 -24.5,13.25c-13.53098,0 -24.5,-5.93223 -24.5,-13.25c0,-3.86814 -3.43512,-11.35648 1.45296,-10.4859c2.04817,0.36478 13.63708,8.70625 24.06447,8.93253c11.76576,0.25532 22.46245,-7.63601 24.02506,-7.80596c3.4128,-0.37119 -0.54249,6.19989 -0.54249,9.35933z" fill="#5f5f5f" stroke="#3a3a3a" stroke-width="1.5"/><path d="M390.13877,212.00001c0,-17.67311 14.32689,-32 32,-32c17.67311,0 32,14.32689 32,32c0,17.67311 -14.32689,32 -32,32c-17.67311,0 -32,-14.32689 -32,-32z" fill="none" stroke="#767676" stroke-width="12.5"/><path d="M175.5,262.80001c0,0 18,-49.29458 18,-76c0,-7.24688 16.38257,-51.68392 -7.52128,-79.55289c-22.55708,-26.29882 -85.47872,-35.98226 -85.47872,-46.44711c0,-6.63014 4.57967,-1.04803 11.1657,-0.71799c24.55758,1.23065 83.46237,32.66727 96.15073,34.3975c16.09122,2.19425 31.39703,-30.32518 39.8986,-33.99706c17.70546,-7.6471 -15.67448,28.36482 9.37318,34.11217c27.33288,6.27172 104.41179,-54.79462 104.41179,-54.79462c0,0 24.53518,-2.87579 3.93459,13.91976c-14.80663,12.07177 -74.2,41.07335 -83.37447,56.98006c-23.55159,40.83382 -11.60802,87.63239 -10.11207,106.14478c1.54348,19.10057 28.55195,48.9554 28.55195,48.9554z" fill="#cea84a" stroke="none" stroke-width="0"/><g stroke="none"><path d="M97.09759,394.58572l6.58466,-7.86422l17.64866,3.77381l-6.31422,12.029l-12.76707,-0.75551z" data-paper-data="{&quot;origPos&quot;:null,&quot;origRot&quot;:0}" fill="#534c42" stroke-width="0"/><path d="M99.40685,393.72632l5.90934,-7.05764l15.83856,3.38678l-5.66666,10.79525l-11.45769,-0.67802z" data-paper-data="{&quot;origPos&quot;:null,&quot;origRot&quot;:0}" fill="url(#color-1)" stroke-width="NaN"/></g><path d="M-3.11505,353.67134v-74.52655c0,0 48.46576,7.45265 86.06402,7.45265c39.63923,0 141.5425,-7.67744 226.43115,-9.4622c92.05416,-1.93542 165.86075,2.00956 165.86075,2.00956v74.52655z" fill="#9a8a7e" stroke="none" stroke-width="0"/><path d="M-3.40239,417.59973v-74.52655c0,0 48.5285,7.45265 86.17541,7.45265c39.69054,0 141.72566,-7.67744 226.72411,-9.4622c92.17329,-1.93542 166.07538,2.00956 166.07538,2.00956v74.52655z" fill="#887c6d" stroke="none" stroke-width="0"/><path d="M-2.87222,420.254v-37.05188c0,0 48.35969,3.70519 85.87567,3.70519c39.55249,0 141.2327,-3.81693 225.93555,-4.70428c91.85269,-0.96221 165.49775,0.9991 165.49775,0.9991v37.05188z" fill="#807566" stroke="none" stroke-width="0"/><path d="M-2.22876,290.69768v-32.95167h480.36753v32.95167z" fill="#8bce39" stroke="none" stroke-width="0"/><path d="M-4.13878,290.69768v-13.30453h478.89508v13.30453z" fill="url(#color-2)" stroke="none" stroke-width="0"/><g stroke="none"><path d="M288.31014,355.27855l8.87873,-36.16014l54.63998,0.37413l-2.94458,52.24412l-37.07625,7.45925z" data-paper-data="{&quot;origPos&quot;:null,&quot;origRot&quot;:0}" fill="#534c42" stroke-width="0"/><path d="M294.82369,350.02993l7.96811,-32.45141l49.03584,0.33577l-2.64263,46.88573l-33.27354,6.69417z" data-paper-data="{&quot;origPos&quot;:null,&quot;origRot&quot;:0}" fill="url(#color-3)" stroke-width="NaN"/></g><g stroke="none"><path d="M329.20618,332.4962l17.53513,-24.92571l46.99885,11.96112l-16.81494,38.12603l-33.99905,-2.39454z" data-paper-data="{&quot;origPos&quot;:null,&quot;origRot&quot;:0}" fill="#534c42" stroke-width="0"/><path d="M336.03355,330.32843l15.73671,-22.36922l42.17843,10.73433l-15.0904,34.21564l-30.51196,-2.14891z" data-paper-data="{&quot;origPos&quot;:null,&quot;origRot&quot;:0}" fill="url(#color-4)" stroke-width="NaN"/></g><g stroke="none"><path d="M166.40798,365.47786l-21.76648,-13.73023l13.90335,-31.35114l33.91819,14.15045l-4.31801,23.1124z" data-paper-data="{&quot;origRot&quot;:0}" fill="#534c42" stroke-width="0"/><path d="M163.61798,360.2009l-18.82083,-12.32205l12.02174,-28.13558l29.32799,12.69916l-3.73359,20.74185z" data-paper-data="{&quot;origRot&quot;:0}" fill="url(#color-5)" stroke-width="NaN"/></g><g stroke="none"><path d="M32.14378,360.50707l-0.6419,-30.4996l47.22308,-10.22854l9.45371,42.16174l-30.27274,13.08147z" data-paper-data="{&quot;origRot&quot;:0}" fill="#534c42" stroke-width="0"/><path d="M36.3839,355.27452l-0.57606,-27.37144l42.37965,-9.17942l8.48402,37.83744l-27.16782,11.73975z" data-paper-data="{&quot;origRot&quot;:0}" fill="url(#color-6)" stroke-width="NaN"/></g><path d="M257.75,180c0,12.97869 -7.94695,23.5 -17.75,23.5c-9.80305,0 -17.75,-10.52131 -17.75,-23.5c0,-12.97869 7.94695,-23.5 17.75,-23.5c9.80305,0 17.75,10.52131 17.75,23.5z" fill="#a0833a" stroke="none" stroke-width="0"/><path d="M254.53989,180c0,10.63148 -6.50973,19.25 -14.53989,19.25c-8.03016,0 -14.53989,-8.61852 -14.53989,-19.25c0,-10.63148 6.50973,-19.25 14.53989,-19.25c8.03016,0 14.53989,8.61852 14.53989,19.25z" fill="#846c2f" stroke="none" stroke-width="0"/><path d="M123.74999,66.9v-8h298.16667v8z" fill="#a0833a" stroke="none" stroke-width="0"/><path d="M353.5,62.8v-62h10v62z" fill="#a0833a" stroke="none" stroke-width="0"/><path d="M126.5,18.60001v-19h8v19z" fill="#a0833a" stroke="none" stroke-width="0"/><g stroke="none" stroke-width="0"><path d="M101.5,257.80001v-194h8v194z" fill="#b29240"/><path d="M123.5,259.80001v-194h8v194z" fill="#b29240"/><path d="M108.75,154.05001l-0.25,-11.5l15.5,2.75l-0.25,12.25z" fill="#a0833a"/><path d="M108.5,177.30001l-0.25,-11.5l15.5,2.75l-0.25,12.25z" fill="#a0833a"/><path d="M109.25,200.55001l-0.25,-11.5l15.5,2.75l-0.25,12.25z" fill="#a0833a"/><path d="M109,223.80001l-0.25,-11.5l15.5,2.75l-0.25,12.25z" fill="#a0833a"/><path d="M108.75,249.05001l-0.25,-11.5l15.5,2.75l-0.25,12.25z" fill="#a0833a"/><path d="M108.25,86.05001l-0.25,-11.5l15.5,2.75l-0.25,12.25z" fill="#a0833a"/><path d="M108,109.30001l-0.25,-11.5l15.5,2.75l-0.25,12.25z" fill="#a0833a"/><path d="M108.75,132.55001l-0.25,-11.5l15.5,2.75l-0.25,12.25z" fill="#a0833a"/></g><path d="M395.13877,211.75001c0,-15.04976 12.20024,-27.25 27.25,-27.25c15.04976,0 27.25,12.20024 27.25,27.25c0,15.04976 -12.20024,27.25 -27.25,27.25c-15.04976,0 -27.25,-12.20024 -27.25,-27.25z" fill="none" stroke="#3a3a3a" stroke-width="1.5"/><path d="M383.13877,212.25001c0,-21.40103 17.34897,-38.75 38.75,-38.75c21.40103,0 38.75,17.34897 38.75,38.75c0,21.40103 -17.34897,38.75 -38.75,38.75c-21.40103,0 -38.75,-17.34897 -38.75,-38.75z" fill="none" stroke="#3a3a3a" stroke-width="1.5"/></g></g></svg>