<svg version="1.1" xmlns="http://www.w3.org/2000/svg" xmlns:xlink="http://www.w3.org/1999/xlink" width="425.13154" height="413.08886" viewBox="0,0,425.13154,413.08886"><g transform="translate(-24.7593,26.01558)"><g data-paper-data="{&quot;isPaintingLayer&quot;:true}" fill-rule="nonzero" stroke="none" stroke-width="0" stroke-linecap="butt" stroke-linejoin="miter" stroke-miterlimit="10" stroke-dasharray="" stroke-dashoffset="0" style="mix-blend-mode: normal"><path d="M220,180c0,-11.04569 8.95431,-20 20,-20c11.04569,0 20,8.95431 20,20c0,11.04569 -8.95431,20 -20,20c-11.04569,0 -20,-8.95431 -20,-20z" fill="#b27f44"/><g><path d="M91.76916,26.45746l53.58713,-52.47304l93.57505,179.89083l-11.43192,11.19425z" fill="#fff1d0"/><path d="M87.19936,30.65233l4.28697,-4.19784l135.87019,138.75494l-4.28697,4.19784z" fill="#b27f44"/><path d="M85.6044,32.14415l1.90532,-1.86571l135.96347,138.8502l-1.90532,1.86571z" fill="#cc914e"/></g><g><path d="M399.05668,37.64355l50.83416,55.14425l-182.62934,88.11087l-10.84462,-11.76411z" fill="#fff1d0"/><path d="M395.00144,32.9494l4.06673,4.41154l-142.78686,131.62657l-4.06673,-4.41154z" fill="#b27f44"/><path d="M393.55836,31.3102l1.80744,1.96068l-142.88489,131.71694l-1.80743,-1.96068z" fill="#cc914e"/></g><g><path d="M388.1109,333.48655l-52.47345,53.58673l-97.33189,-177.88622l11.19434,-11.43183z" fill="#fff1d0"/><path d="M392.5916,329.19665l-4.19788,4.28694l-138.7539,-135.87125l4.19788,-4.28694z" fill="#b27f44"/><path d="M394.15489,327.67166l-1.86572,1.90531l-138.84916,-135.96454l1.86572,-1.9053z" fill="#cc914e"/></g><g><path d="M71.91306,311.14995l-47.15376,-58.32257l187.95535,-76.09065l10.05946,12.44216z" fill="#fff1d0"/><path d="M75.65558,316.09703l-3.7723,-4.6658l151.01658,-122.09682l3.7723,4.66581z" fill="#b27f44"/><path d="M76.9894,317.8263l-1.67658,-2.07369l151.12027,-122.18064l1.67658,2.07369z" fill="#cc914e"/></g><path d="M223.25,180c0,-9.25077 7.49923,-16.75 16.75,-16.75c9.25077,0 16.75,7.49923 16.75,16.75c0,9.25077 -7.49923,16.75 -16.75,16.75c-9.25077,0 -16.75,-7.49923 -16.75,-16.75z" fill="#cc914e"/></g></g></svg>