<svg version="1.1" xmlns="http://www.w3.org/2000/svg" xmlns:xlink="http://www.w3.org/1999/xlink" width="329.64987" height="234.21509" viewBox="0,0,329.64987,234.21509"><defs><linearGradient x1="250.62761" y1="128.67647" x2="250.62761" y2="319.01016" gradientUnits="userSpaceOnUse" id="color-1"><stop offset="0" stop-color="#313131"/><stop offset="1" stop-color="#262626"/></linearGradient><radialGradient cx="274" cy="276" r="33.32846" gradientUnits="userSpaceOnUse" id="color-2"><stop offset="0" stop-color="#8af668"/><stop offset="1" stop-color="#8af668" stop-opacity="0"/></radialGradient><linearGradient x1="260.13554" y1="276.00055" x2="286.46801" y2="276.00055" gradientUnits="userSpaceOnUse" id="color-3"><stop offset="0" stop-color="#96ff73"/><stop offset="1" stop-color="#5cd240"/></linearGradient><radialGradient cx="135.98872" cy="276.68823" r="36.5" gradientUnits="userSpaceOnUse" id="color-4"><stop offset="0" stop-color="#5cd2ff"/><stop offset="1" stop-color="#5cd2ff" stop-opacity="0"/></radialGradient><linearGradient x1="133.79743" y1="276.73676" x2="150.51116" y2="276.73676" gradientUnits="userSpaceOnUse" id="color-5"><stop offset="0" stop-color="#84edff"/><stop offset="1" stop-color="#119fff"/></linearGradient><linearGradient x1="121.46627" y1="276.70124" x2="137.99108" y2="276.70124" gradientUnits="userSpaceOnUse" id="color-6"><stop offset="0" stop-color="#84edff"/><stop offset="1" stop-color="#119fff"/></linearGradient><linearGradient x1="126.62581" y1="265.37836" x2="145.15759" y2="265.37836" gradientUnits="userSpaceOnUse" id="color-7"><stop offset="0" stop-color="#84edff"/><stop offset="1" stop-color="#119fff"/></linearGradient><linearGradient x1="121.34527" y1="273.05011" x2="150.13924" y2="273.05011" gradientUnits="userSpaceOnUse" id="color-8"><stop offset="0" stop-color="#84edff"/><stop offset="1" stop-color="#119fff"/></linearGradient><linearGradient x1="139.87702" y1="270.21057" x2="142.16858" y2="270.21057" gradientUnits="userSpaceOnUse" id="color-9"><stop offset="0" stop-color="#84edff"/><stop offset="1" stop-color="#119fff"/></linearGradient><linearGradient x1="131.00967" y1="270.0113" x2="132.80306" y2="270.0113" gradientUnits="userSpaceOnUse" id="color-10"><stop offset="0" stop-color="#84edff"/><stop offset="1" stop-color="#119fff"/></linearGradient><radialGradient cx="272.98872" cy="227.68823" r="36.5" gradientUnits="userSpaceOnUse" id="color-11"><stop offset="0" stop-color="#5cd2ff"/><stop offset="1" stop-color="#5cd2ff" stop-opacity="0"/></radialGradient><linearGradient x1="270.79742" y1="227.73676" x2="287.51116" y2="227.73676" gradientUnits="userSpaceOnUse" id="color-12"><stop offset="0" stop-color="#84edff"/><stop offset="1" stop-color="#119fff"/></linearGradient><linearGradient x1="258.46627" y1="227.70124" x2="274.99108" y2="227.70124" gradientUnits="userSpaceOnUse" id="color-13"><stop offset="0" stop-color="#84edff"/><stop offset="1" stop-color="#119fff"/></linearGradient><linearGradient x1="263.62581" y1="216.37836" x2="282.1576" y2="216.37836" gradientUnits="userSpaceOnUse" id="color-14"><stop offset="0" stop-color="#84edff"/><stop offset="1" stop-color="#119fff"/></linearGradient><linearGradient x1="258.34527" y1="224.05011" x2="287.13924" y2="224.05011" gradientUnits="userSpaceOnUse" id="color-15"><stop offset="0" stop-color="#84edff"/><stop offset="1" stop-color="#119fff"/></linearGradient><linearGradient x1="276.87702" y1="221.21057" x2="279.16858" y2="221.21057" gradientUnits="userSpaceOnUse" id="color-16"><stop offset="0" stop-color="#84edff"/><stop offset="1" stop-color="#119fff"/></linearGradient><linearGradient x1="268.00968" y1="221.0113" x2="269.80305" y2="221.0113" gradientUnits="userSpaceOnUse" id="color-17"><stop offset="0" stop-color="#84edff"/><stop offset="1" stop-color="#119fff"/></linearGradient><radialGradient cx="136.98872" cy="223.48133" r="28.44706" gradientUnits="userSpaceOnUse" id="color-18"><stop offset="0" stop-color="#ffeb52"/><stop offset="1" stop-color="#ffeb52" stop-opacity="0"/></radialGradient></defs><g transform="translate(-85.74286,-128.67647)"><g data-paper-data="{&quot;isPaintingLayer&quot;:true}" stroke-miterlimit="10" stroke-dasharray="" stroke-dashoffset="0" style="mix-blend-mode: normal"><g fill-rule="nonzero" stroke="none" stroke-width="0" stroke-linecap="butt" stroke-linejoin="miter"><path d="M85.74837,317.80539l-0.00551,-159.58814c0,0 0.83812,-13.24026 8.54559,-21.17329c7.48423,-7.7033 21.03968,-7.92709 21.03968,-7.92709l270.73611,-0.4404c0,0 13.5375,0.47245 21.48941,9.24829c6.24941,6.89692 7.3499,18.122 7.3499,18.122l0.26742,162.9634z" data-paper-data="{&quot;origPos&quot;:null,&quot;origRot&quot;:0,&quot;index&quot;:null}" fill="url(#color-1)"/><path d="M86.08706,300.28424v-99.58961c0,0 77.37575,17.43046 116.82492,16.89467c39.44917,-0.53579 68.01188,-17.03278 116.93882,-17.90992c48.80192,-0.8749 94.97615,15.24235 94.97615,15.24235v85.36252z" data-paper-data="{&quot;origPos&quot;:null}" fill="#343434"/><path d="M85.74471,362.89156l0.08926,-85.36252c0,0 63.46683,-16.11725 112.40355,-15.24234c49.0621,0.87714 81.3362,26.26606 120.89435,26.80185c39.55816,0.53579 95.9499,-25.7866 95.9499,-25.7866l0.31096,99.58961z" data-paper-data="{&quot;origPos&quot;:null,&quot;index&quot;:null}" fill="#3b3b3b"/></g><path d="" data-paper-data="{&quot;origPos&quot;:null}" fill="#ffffff" fill-rule="evenodd" stroke="none" stroke-width="1" stroke-linecap="round" stroke-linejoin="round"/><path d="" data-paper-data="{&quot;origPos&quot;:null}" fill="#000000" fill-rule="evenodd" stroke="none" stroke-width="1" stroke-linecap="round" stroke-linejoin="round"/><path d="M194.91155,185.68067c-1.06948,0 -2.05583,-0.22019 -2.95905,-0.66056c-0.89872,-0.44487 -1.34809,-1.10768 -1.34809,-1.98843v-29.98142h-7.61668c-0.81334,0 -1.44919,-0.39544 -1.90754,-1.18632c-0.45835,-0.79537 -0.68752,-1.70758 -0.68752,-2.73661c0,-0.92119 0.20221,-1.78621 0.60664,-2.59506c0.40443,-0.80885 1.06724,-1.21328 1.98843,-1.21328h23.85437c0.9167,0 1.57726,0.40443 1.98169,1.21328c0.40892,0.80885 0.61338,1.67387 0.61338,2.59506c0,1.02904 -0.22243,1.94124 -0.6673,2.73661c-0.44038,0.79088 -1.08296,1.18632 -1.92776,1.18632h-7.62342v29.98142c0,0.88075 -0.45161,1.54356 -1.35483,1.98843c-0.89872,0.44038 -1.88283,0.66056 -2.95231,0.66056zM211.30983,185.68067c-1.21328,0 -2.21535,-0.27636 -3.00623,-0.82907c-0.79088,-0.55272 -1.18632,-1.15935 -1.18632,-1.81992v-21.03688c0,-0.7729 0.39544,-1.39752 1.18632,-1.87384c0.79088,-0.48082 1.79295,-0.72123 3.00623,-0.72123c1.06948,0 1.97045,0.24041 2.70291,0.72123c0.73695,0.47632 1.10543,1.10094 1.10543,1.87384v2.04235c0.36848,-0.80885 0.89423,-1.59074 1.57726,-2.34567c0.68303,-0.75493 1.45593,-1.38179 2.31871,-1.88058c0.86727,-0.49879 1.75925,-0.74819 2.67595,-0.74819h1.60422c0.80885,0 1.5166,0.36848 2.12323,1.10543c0.60664,0.73695 0.90996,1.60197 0.90996,2.59506c0,1.03353 -0.30332,1.91877 -0.90996,2.65573c-0.60664,0.73246 -1.31438,1.09869 -2.12323,1.09869h-1.60422c-0.99309,0 -1.95023,0.34151 -2.87142,1.02455c-0.9167,0.67854 -1.67163,1.62669 -2.26478,2.84446c-0.58866,1.21328 -0.883,2.66696 -0.883,4.36106v8.28399c0,0.66056 -0.4224,1.2672 -1.2672,1.81992c-0.8448,0.55272 -1.87609,0.82907 -3.09386,0.82907zM234.44735,186.23338c-1.91428,0 -3.57243,-0.59765 -4.97444,-1.79295c-1.39752,-1.1998 -2.09627,-3.05117 -2.09627,-5.55411c0,-2.17042 0.55272,-3.86227 1.65815,-5.07554c1.10543,-1.21777 2.62427,-2.06482 4.55653,-2.54114c1.93226,-0.48082 4.16783,-0.72123 6.70673,-0.72123h1.98843v-0.55272c0,-0.62461 -0.12807,-1.24923 -0.3842,-1.87384c-0.25614,-0.62461 -0.68078,-1.14812 -1.27394,-1.57052c-0.58866,-0.42689 -1.41549,-0.64034 -2.48048,-0.64034c-1.50986,0 -2.63326,0.14829 -3.37021,0.44487c-0.73695,0.29209 -1.30764,0.59541 -1.71207,0.90996c-0.40443,0.31455 -0.86502,0.47183 -1.38179,0.47183c-0.9167,0 -1.62444,-0.4606 -2.12323,-1.38179c-0.49879,-0.92119 -0.74819,-1.87833 -0.74819,-2.87142c0,-0.88524 0.50553,-1.65815 1.5166,-2.31871c1.01556,-0.66505 2.24906,-1.18182 3.70049,-1.5503c1.45593,-0.36848 2.86468,-0.55272 4.22625,-0.55272c3.01971,0 5.44851,0.51677 7.2864,1.5503c1.84238,1.02904 3.18597,2.36364 4.03078,4.00381c0.84929,1.63568 1.27394,3.39268 1.27394,5.27101v13.14383c0,0.73695 -0.39544,1.36381 -1.18632,1.88058c-0.79088,0.51227 -1.7952,0.76841 -3.01297,0.76841c-1.06499,0 -1.96596,-0.25614 -2.70291,-0.76841c-0.73695,-0.51677 -1.10543,-1.14363 -1.10543,-1.88058v-1.21328c-0.99309,1.14138 -2.15244,2.16368 -3.47806,3.06689c-1.32562,0.89872 -2.96354,1.34809 -4.91377,1.34809zM238.14785,179.99175c0.58866,0 1.1953,-0.22917 1.81992,-0.68752c0.62461,-0.46284 1.16609,-1.08072 1.62444,-1.85362c0.46284,-0.7729 0.69426,-1.6177 0.69426,-2.5344v-0.22243h-0.21569c-1.03353,0 -2.01988,0.06516 -2.95905,0.19547c-0.93917,0.12582 -1.69409,0.40218 -2.26478,0.82907c-0.57069,0.4224 -0.85603,1.07398 -0.85603,1.95472c0,0.80885 0.20221,1.39752 0.60664,1.76599c0.40892,0.36848 0.92569,0.55272 1.5503,0.55272zM264.26652,186.23338c-1.69409,0 -3.2781,-0.55272 -4.752,-1.65815c-1.46941,-1.10543 -2.64674,-2.55013 -3.53198,-4.3341c-0.88524,-1.78397 -1.32786,-3.68926 -1.32786,-5.71588v-3.86227c0,-2.13447 0.44262,-4.07571 1.32786,-5.82373c0.88524,-1.75251 2.06257,-3.15227 3.53198,-4.19929c1.47391,-1.05151 3.11183,-1.57726 4.91377,-1.57726c1.69409,0 3.13879,0.43363 4.3341,1.3009c1.1998,0.86277 2.09403,1.8289 2.68269,2.89838v-16.29161c0,-0.7729 0.4224,-1.39752 1.2672,-1.87384c0.84929,-0.48082 1.88058,-0.72123 3.09386,-0.72123c1.21328,0 2.21535,0.24041 3.00623,0.72123c0.79537,0.47632 1.19306,1.10094 1.19306,1.87384v36.06129c0,0.66056 -0.39769,1.2672 -1.19306,1.81992c-0.79088,0.55272 -1.79295,0.82907 -3.00623,0.82907c-1.02904,0 -1.92102,-0.27636 -2.67595,-0.82907c-0.75493,-0.55272 -1.13239,-1.15935 -1.13239,-1.81992v-1.21328c-0.55272,1.14138 -1.53907,2.16368 -2.95905,3.06689c-1.41549,0.89872 -3.00623,1.34809 -4.77222,1.34809zM267.19186,178.77847c0.80885,0 1.52558,-0.22917 2.1502,-0.68752c0.62911,-0.46284 1.13688,-0.97961 1.52334,-1.5503c0.38645,-0.57069 0.57968,-1.00208 0.57968,-1.29416v-4.58349c0,-0.88524 -0.21345,-1.63118 -0.64034,-2.23782c-0.4224,-0.60664 -0.95489,-1.07622 -1.59748,-1.40875c-0.64259,-0.33253 -1.29641,-0.49879 -1.96146,-0.49879c-0.73695,0 -1.41774,0.20446 -2.04235,0.61338c-0.62461,0.40443 -1.11217,0.91895 -1.46267,1.54356c-0.3505,0.62461 -0.52575,1.28742 -0.52575,1.98843v3.86227c0,0.701 0.17525,1.38404 0.52575,2.04909c0.3505,0.66056 0.82907,1.19306 1.43571,1.59748c0.60664,0.40443 1.27843,0.60664 2.01539,0.60664z" fill="#ffffff" fill-rule="nonzero" stroke="none" stroke-width="1" stroke-linecap="square" stroke-linejoin="miter"/><path d="M298.00463,186.23338c-2.72313,0 -5.13396,-0.48756 -7.23248,-1.46267c-2.09852,-0.97511 -3.74768,-2.34567 -4.94747,-4.11166c-1.1953,-1.77049 -1.79295,-3.81508 -1.79295,-6.13379v-4.03078c0,-2.06257 0.57069,-3.95888 1.71207,-5.68892c1.14138,-1.73004 2.66921,-3.11857 4.58349,-4.16558c1.91428,-1.05151 4.04875,-1.57726 6.40341,-1.57726c2.13447,0 4.09369,0.44262 5.87765,1.32786c1.78846,0.88524 3.23541,2.10975 4.34084,3.67353c1.10543,1.56378 1.65815,3.39493 1.65815,5.49345c0,1.65815 -0.26737,2.84671 -0.80211,3.56569c-0.53474,0.71449 -1.21777,1.15486 -2.04909,1.32112c-0.82683,0.16626 -1.66264,0.2494 -2.50744,0.2494h-10.65662v0.33028c0,1.36157 0.51452,2.45801 1.54356,3.28933c1.03353,0.82683 2.39734,1.24024 4.09144,1.24024c1.13688,0 2.10975,-0.17525 2.91861,-0.52575c0.81334,-0.3505 1.53232,-0.68977 2.15694,-1.0178c0.62461,-0.33253 1.2335,-0.49879 1.82666,-0.49879c0.66056,0 1.22901,0.22019 1.70533,0.66056c0.48082,0.44038 0.84031,0.95489 1.07847,1.54356c0.23816,0.58866 0.35724,1.10543 0.35724,1.5503c0,0.69651 -0.4224,1.43122 -1.2672,2.20412c-0.8448,0.7729 -2.03112,1.42672 -3.55895,1.96146c-1.52783,0.53474 -3.341,0.80211 -5.43953,0.80211zM292.59207,169.88784h6.84827c0.40443,0 0.69876,-0.09212 0.883,-0.27636c0.18424,-0.18424 0.27636,-0.53474 0.27636,-1.05151c0,-0.73246 -0.19322,-1.34809 -0.57968,-1.84688c-0.38645,-0.49879 -0.88524,-0.86727 -1.49638,-1.10543c-0.60664,-0.23816 -1.25821,-0.35724 -1.95472,-0.35724c-0.66505,0 -1.3009,0.11908 -1.90754,0.35724c-0.60664,0.23816 -1.10318,0.60664 -1.48963,1.10543c-0.38645,0.49879 -0.57968,1.11442 -0.57968,1.84688z" fill="#ffffff" fill-rule="nonzero" stroke="none" stroke-width="1" stroke-linecap="square" stroke-linejoin="miter"/><text transform="translate(156.50456,236.9545) scale(0.63266,0.67057)" font-size="40" xml:space="preserve" fill="#ffffff" fill-rule="nonzero" stroke="none" stroke-width="1" stroke-linecap="butt" stroke-linejoin="miter" stroke-miterlimit="10" stroke-dasharray="" stroke-dashoffset="0" font-family="Sans Serif" font-weight="normal" text-anchor="start" style="mix-blend-mode: normal"><tspan x="0" dy="0">x10</tspan></text><text transform="translate(210.28932,246.44314) scale(1.38662,1.38662)" font-size="40" xml:space="preserve" fill="#ffffff" fill-rule="nonzero" stroke="#ffffff" stroke-width="1" stroke-linecap="butt" stroke-linejoin="miter" stroke-miterlimit="10" stroke-dasharray="" stroke-dashoffset="0" font-family="Sans Serif" font-weight="normal" text-anchor="start" style="mix-blend-mode: normal"><tspan x="0" dy="0">=</tspan></text><text transform="translate(303.60512,233.5867) scale(0.68763,0.68763)" font-size="40" xml:space="preserve" fill="#ffffff" fill-rule="nonzero" stroke="none" stroke-width="1" stroke-linecap="butt" stroke-linejoin="miter" stroke-miterlimit="10" stroke-dasharray="" stroke-dashoffset="0" font-family="Sans Serif" font-weight="normal" text-anchor="start" style="mix-blend-mode: normal"><tspan x="0" dy="0">x1</tspan></text><text transform="translate(348.79076,229.19536) scale(0.44276,0.44276)" font-size="40" xml:space="preserve" fill="#ffffff" fill-rule="nonzero" stroke="#ffffff" stroke-width="1" stroke-linecap="butt" stroke-linejoin="miter" stroke-miterlimit="10" stroke-dasharray="" stroke-dashoffset="0" font-family="Sans Serif" font-weight="normal" text-anchor="start" style="mix-blend-mode: normal"><tspan x="0" dy="0">trade?</tspan></text><text transform="translate(166.54329,285.4708) scale(0.63266,0.67057)" font-size="40" xml:space="preserve" fill="#ffffff" fill-rule="nonzero" stroke="none" stroke-width="1" stroke-linecap="butt" stroke-linejoin="miter" stroke-miterlimit="10" stroke-dasharray="" stroke-dashoffset="0" font-family="Sans Serif" font-weight="normal" text-anchor="start" style="mix-blend-mode: normal"><tspan x="0" dy="0">x3</tspan></text><text transform="translate(209.79252,295.87558) scale(1.38662,1.38662)" font-size="40" xml:space="preserve" fill="#ffffff" fill-rule="nonzero" stroke="#ffffff" stroke-width="1" stroke-linecap="butt" stroke-linejoin="miter" stroke-miterlimit="10" stroke-dasharray="" stroke-dashoffset="0" font-family="Sans Serif" font-weight="normal" text-anchor="start" style="mix-blend-mode: normal"><tspan x="0" dy="0">=</tspan></text><text transform="translate(302.65026,283.93527) scale(0.68763,0.68763)" font-size="40" xml:space="preserve" fill="#ffffff" fill-rule="nonzero" stroke="none" stroke-width="1" stroke-linecap="butt" stroke-linejoin="miter" stroke-miterlimit="10" stroke-dasharray="" stroke-dashoffset="0" font-family="Sans Serif" font-weight="normal" text-anchor="start" style="mix-blend-mode: normal"><tspan x="0" dy="0">x1</tspan></text><text transform="translate(349.66816,276.33746) scale(0.44276,0.44276)" font-size="40" xml:space="preserve" fill="#ffffff" fill-rule="nonzero" stroke="#ffffff" stroke-width="1" stroke-linecap="butt" stroke-linejoin="miter" stroke-miterlimit="10" stroke-dasharray="" stroke-dashoffset="0" font-family="Sans Serif" font-weight="normal" text-anchor="start" style="mix-blend-mode: normal"><tspan x="0" dy="0">trade?</tspan></text><text transform="translate(164.16628,335.61203) scale(0.61776,0.61776)" font-size="40" xml:space="preserve" fill="#ffffff" fill-rule="nonzero" stroke="#ffffff" stroke-width="1" stroke-linecap="butt" stroke-linejoin="miter" stroke-miterlimit="10" stroke-dasharray="" stroke-dashoffset="0" font-family="Sans Serif" font-weight="normal" text-anchor="start" style="mix-blend-mode: normal"><tspan x="0" dy="0">Space To Close</tspan></text><path d="M240.67155,276c0,-18.40679 14.92166,-33.32845 33.32845,-33.32845c18.40679,0 33.32846,14.92166 33.32846,33.32845c0,18.40679 -14.92166,33.32845 -33.32846,33.32845c-18.40679,0 -33.32845,-14.92166 -33.32845,-33.32845z" fill="url(#color-2)" fill-rule="nonzero" stroke="none" stroke-width="0" stroke-linecap="butt" stroke-linejoin="miter"/><path d="M287.84984,276.92407l-7.19619,16.95657h-14.34136l-6.17675,-16.88273l6.79725,-18.85536l13.68357,-0.02207z" fill="url(#color-3)" fill-rule="nonzero" stroke="#066300" stroke-width="2" stroke-linecap="round" stroke-linejoin="miter"/><path d="M273.92988,270.85009v10.30094" fill="none" fill-rule="nonzero" stroke="#066300" stroke-width="2" stroke-linecap="round" stroke-linejoin="miter"/><g fill-rule="nonzero" stroke-linejoin="miter"><path d="M99.48872,276.68823c0,-20.15839 16.34161,-36.5 36.5,-36.5c20.15839,0 36.5,16.34161 36.5,36.5c0,20.15839 -16.34161,36.5 -36.5,36.5c-20.15839,0 -36.5,-16.34161 -36.5,-36.5z" fill="url(#color-4)" stroke="none" stroke-width="0" stroke-linecap="butt"/><path d="M133.79743,261.58905c1.88547,0.00258 4.71463,-0.28397 5.04564,-0.16912c2.29773,0.79725 6.42988,2.43918 6.73745,2.80285c1.62489,1.92131 5.64149,6.90225 4.8215,8.26891c-2.6581,4.43016 -13.63521,19.52345 -13.63521,19.52345" data-paper-data="{&quot;index&quot;:null}" fill="url(#color-5)" stroke="#007bef" stroke-width="2" stroke-linecap="round"/><path d="M136.94054,292.16613c0,0 -12.70703,-15.25333 -15.36512,-19.68349c-0.81999,-1.36667 3.19661,-6.34761 4.8215,-8.26892c0.30757,-0.36368 5.44245,-2.20615 7.7402,-3.0034c0.36437,-0.12642 2.39303,0.04641 4.45562,0.04971" fill="url(#color-6)" stroke="#007bef" stroke-width="2" stroke-linecap="round"/><path d="M145.15759,264.78056l-5.3802,1.39486l-7.07396,-0.19926l-6.07763,-1.39487" fill="url(#color-7)" stroke="#007bef" stroke-width="2" stroke-linecap="round"/><path d="M150.13924,272.15342l-7.87102,1.99267l-10.95965,-0.09963l-9.76278,-1.99202" fill="url(#color-8)" stroke="#007bef" stroke-width="2" stroke-linecap="round"/><path d="M139.87702,266.37468l2.29156,7.67176" fill="url(#color-9)" stroke="#007bef" stroke-width="2" stroke-linecap="round"/><path d="M131.00969,273.94681l1.7934,-7.87102" fill="url(#color-10)" stroke="#007bef" stroke-width="2" stroke-linecap="round"/></g><g fill-rule="nonzero" stroke-linejoin="miter"><path d="M236.48872,227.68823c0,-20.15839 16.34161,-36.5 36.5,-36.5c20.15839,0 36.5,16.34161 36.5,36.5c0,20.15839 -16.34161,36.5 -36.5,36.5c-20.15839,0 -36.5,-16.34161 -36.5,-36.5z" fill="url(#color-11)" stroke="none" stroke-width="0" stroke-linecap="butt"/><path d="M270.79742,212.58905c1.88547,0.00258 4.71463,-0.28397 5.04564,-0.16912c2.29773,0.79725 6.42988,2.43918 6.73745,2.80285c1.62489,1.92131 5.64149,6.90225 4.8215,8.26891c-2.6581,4.43016 -13.63521,19.52345 -13.63521,19.52345" data-paper-data="{&quot;index&quot;:null}" fill="url(#color-12)" stroke="#007bef" stroke-width="2" stroke-linecap="round"/><path d="M273.94054,243.16613c0,0 -12.70703,-15.25333 -15.36512,-19.68349c-0.81999,-1.36667 3.19661,-6.34761 4.8215,-8.26892c0.30757,-0.36368 5.44245,-2.20615 7.7402,-3.0034c0.36437,-0.12642 2.39303,0.04641 4.45562,0.04971" fill="url(#color-13)" stroke="#007bef" stroke-width="2" stroke-linecap="round"/><path d="M282.1576,215.78056l-5.3802,1.39486l-7.07396,-0.19926l-6.07763,-1.39487" fill="url(#color-14)" stroke="#007bef" stroke-width="2" stroke-linecap="round"/><path d="M287.13924,223.15342l-7.87102,1.99267l-10.95965,-0.09963l-9.76278,-1.99202" fill="url(#color-15)" stroke="#007bef" stroke-width="2" stroke-linecap="round"/><path d="M279.16858,225.04644l-2.29156,-7.67176" fill="url(#color-16)" stroke="#007bef" stroke-width="2" stroke-linecap="round"/><path d="M269.80309,217.07579l-1.7934,7.87102" fill="url(#color-17)" stroke="#007bef" stroke-width="2" stroke-linecap="round"/></g><g fill-rule="nonzero" stroke-linejoin="miter"><path d="M160.23872,223.48133c0,15.34971 -10.40938,27.7931 -23.25,27.7931c-12.84062,0 -23.25,-12.44339 -23.25,-27.7931c0,-15.34971 10.40938,-27.7931 23.25,-27.7931c12.84062,0 23.25,12.44339 23.25,27.7931z" fill="url(#color-18)" stroke="none" stroke-width="0" stroke-linecap="butt"/><path d="M148.34019,223.48133c0,7.74865 -5.08223,14.03017 -11.35147,14.03017c-6.26924,0 -11.35147,-6.28152 -11.35147,-14.03017c0,-7.74865 5.08223,-14.03017 11.35147,-14.03017c6.26924,0 11.35147,6.28152 11.35147,14.03017z" fill="#ffeb52" stroke="#ffb759" stroke-width="1.5" stroke-linecap="butt"/><path d="M137.12549,227.62357l-0.27353,-8.28448" fill="none" stroke="#ffa42c" stroke-width="2" stroke-linecap="round"/></g></g></g></svg>