<svg version="1.1" xmlns="http://www.w3.org/2000/svg" xmlns:xlink="http://www.w3.org/1999/xlink" width="541.49098" height="341.41794" viewBox="0,0,541.49098,341.41794"><defs><linearGradient x1="636.67797" y1="33.70949" x2="636.67797" y2="164.87854" gradientUnits="userSpaceOnUse" id="color-1"><stop offset="0" stop-color="#3e48ff"/><stop offset="1" stop-color="#85a5ff"/></linearGradient><linearGradient x1="240.08264" y1="196.31719" x2="240.08264" y2="359.98085" gradientUnits="userSpaceOnUse" id="color-2"><stop offset="0" stop-color="#212dff"/><stop offset="1" stop-color="#7aa5ff"/></linearGradient></defs><g transform="translate(0.90835,-18.56292)"><g data-paper-data="{&quot;isPaintingLayer&quot;:true}" fill-rule="nonzero" stroke-linejoin="miter" stroke-miterlimit="10" stroke-dasharray="" stroke-dashoffset="0" style="mix-blend-mode: normal"><path d="M257.09198,119.38355c0,0 23.66008,0.19847 25.40641,-1.30703c1.74633,-1.5055 1.54871,-4.11418 1.54871,-4.11418l-0.12631,-48.35243l-6.06604,-0.00833c0,0 -2.08724,0.07076 -3.06263,-0.81549c-0.97539,-0.88626 -0.84377,-2.73391 -0.84377,-2.73391l-0.09229,-10.63925c0,0 -0.14855,-2.09175 0.90744,-2.99462c1.05599,-0.90287 3.34202,-0.89436 3.34202,-0.89436c0,0 11.87734,-23.13543 12.32975,-23.81515c0.49703,-0.94844 0.09548,-0.73237 3.07727,-3.35957c3.43725,-2.25462 3.8102,-1.73904 5.16798,-1.72805c2.19824,0.11764 67.44492,0.1614 69.3341,0.0721c2.17048,0.02701 3.48768,-0.50743 6.30998,2.38577c1.64081,1.68204 3.15609,3.56005 3.31137,4.17695c1.22416,1.11549 12.43936,23.6297 12.43936,23.6297c0,0 2.16724,-0.16543 3.31408,0.79085c1.14684,0.95628 0.94642,2.76171 0.94642,2.76171l0.04591,8.98037c0,0 0.31757,2.2547 -0.61205,3.43645c-0.92962,1.18175 -3.27359,0.98054 -3.27359,0.98054l-6.16826,-0.0152l0.3023,48.24502c0,0 -0.22853,3.22093 1.25368,4.58484c1.48221,1.36391 4.91127,1.08804 4.91127,1.08804c0,0 17.10528,-1.06181 21.62367,4.31981c5.99423,5.70672 2.61981,29.84532 2.59065,31.62944c-0.05098,3.11958 -24.50042,-18.44297 -24.50042,-18.44297l-136.39308,-1.08896zM295.70832,107.48158c-0.36014,8.29609 7.62633,10.37718 8.30457,10.43282c5.20718,0.76948 49.87866,0.35488 57.82877,0.03386c5.26603,-0.21264 10,-3.37996 10,-10c0,-6.6107 -4.73397,-9.4588 -10,-9.66667c-15.62578,-0.6168 -36.30755,-0.56931 -57.55901,0.20436c-3.87218,0.14097 -8.39545,4.87519 -8.57432,8.99563z" fill="url(#color-1)" stroke="none" stroke-width="0" stroke-linecap="butt"/><path d="M-0.90835,359.98085v-163.66366c0,0 62.13648,0 67,0c1.37496,0 4.40411,0.01082 8.52504,-6.15722c2.91357,-4.36092 3.48624,-17.21293 4.08569,-19.2594c0.2125,-2.32068 -1.0109,-7.72569 2.88927,-11.58338c5.04984,-3.5 5.22445,-2.19999 7.98609,-2.44085c0.3074,0.08397 73.72741,-0.9596 75.67185,-0.98386c1.24707,-0.01556 5.48526,-2.76273 7.00173,-5.32378c1.66189,-2.80666 2.55044,-6.28119 2.30575,-9.40607c-0.19388,-2.47607 1.47372,-67.15348 1.78631,-70.03049c0.45525,-4.19012 4.40927,-8.83005 5.2664,-9.08915c1.43908,-0.61865 6.58108,-1.0386 9.23151,-1.31721c3.26522,-0.34323 53.79389,-0.49574 58.79956,-0.35482c4.10771,0.11564 6.90231,3.66686 7.7309,4.59224c1.33925,1.49569 1.58512,4.91253 1.42702,9.47221c-0.13342,3.8481 1.04906,47.6472 1.19825,51.13418c0.04587,1.07205 -1.06332,1.45558 4.60922,6.0802c0.61283,0.49962 3.13252,1.46697 7.13524,1.574c27.81324,0.7437 129.73214,2.61552 133.75566,3.52174c1.80662,0.40691 4.96849,1.82886 7.11798,3.69801c4.13817,3.59847 3.80942,5.85076 3.85786,7.26031c0.0646,1.87981 -1.10125,42.05668 0.74364,44.23937c4.44086,5.25398 6.94276,4.81603 14.95521,5.1086c7.3733,0.26923 48.90177,1.26539 48.90177,1.26539v161.66366z" fill="url(#color-2)" stroke="none" stroke-width="0" stroke-linecap="butt"/><path d="M248.16597,48.10448h-65" fill="none" stroke="#212dff" stroke-width="12" stroke-linecap="round"/><path d="M440.58263,183.19044h94" fill="none" stroke="#212dff" stroke-width="12" stroke-linecap="round"/></g></g></svg>