<svg version="1.1" xmlns="http://www.w3.org/2000/svg" xmlns:xlink="http://www.w3.org/1999/xlink" width="504.89783" height="369.81727" viewBox="0,0,504.89783,369.81727"><defs><linearGradient x1="243.95496" y1="-2.07793" x2="243.95496" y2="372.90409" gradientUnits="userSpaceOnUse" id="color-1"><stop offset="0" stop-color="#b2e9ff"/><stop offset="1" stop-color="#c7f0ff"/></linearGradient><linearGradient x1="239.5511" y1="-4.90865" x2="239.5511" y2="159.09137" gradientUnits="userSpaceOnUse" id="color-2"><stop offset="0" stop-color="#9ae4ff"/><stop offset="1" stop-color="#9ae4ff" stop-opacity="0"/></linearGradient><linearGradient x1="101.3034" y1="191.24762" x2="101.3034" y2="362.01476" gradientUnits="userSpaceOnUse" id="color-3"><stop offset="0" stop-color="#95e3ff"/><stop offset="1" stop-color="#c0edff"/></linearGradient><linearGradient x1="325.36726" y1="148.88348" x2="325.36726" y2="333.263" gradientUnits="userSpaceOnUse" id="color-4"><stop offset="0" stop-color="#83deff"/><stop offset="1" stop-color="#afe8ff"/></linearGradient></defs><g transform="translate(12.44891,4.90863)"><g data-paper-data="{&quot;isPaintingLayer&quot;:true}" stroke-miterlimit="10" stroke-dasharray="" stroke-dashoffset="0" style="mix-blend-mode: normal"><path d="M-9.54505,-2.07793h496.90396c-0.11019,0.48613 -0.18496,0.98569 -0.22146,1.49585c-0.00598,0.25011 -0.01298,0.49322 -0.02581,0.72408c-0.64604,11.62481 0.43845,30.11007 0.63427,41.22757c0.04821,2.73718 1.89531,5.27012 1.90281,7.96717c0.10452,37.58736 0.18791,75.17549 0,112.76252c-0.04585,9.17148 -1.26966,18.39249 -1.87336,27.55688c-0.27447,4.16665 0.17952,9.56987 -0.02946,12.98892c-0.40611,6.64447 -1.8707,13.42052 -1.90281,20.12583c-0.07898,16.49084 -0.12598,32.98254 0,49.47309c0.05043,6.60058 2.29622,13.48309 2.53708,20.21623c0.33713,9.42443 0.71032,17.49943 1.99671,26.81919c1.84857,13.39269 2.14333,26.57507 2.05938,39.85143c-14.91862,-0.05554 -29.84001,0.17589 -44.75922,0.15651c-2.07461,-0.0027 -6.25184,-2.08548 -8.28401,-2.53708c-1.11921,-0.24872 -3.75558,0.04008 -4.08397,0c-5.74834,-0.70153 -11.37876,-2.17687 -17.10577,-3.03529c-16.33738,-2.44882 -32.00192,0.79818 -47.99883,3.12301c-0.96437,0.14015 -2.02507,0.33105 -3.14571,0.55969c-1.34221,-0.7568 -2.63555,-1.38166 -3.6636,-1.63867c-9.9585,-2.48963 -23.72318,-1.25584 -34.39741,1.41272c-2.23665,0.55916 -7.29166,4.52659 -9.02108,4.65271c-0.0068,0.0005 -0.0136,0.00099 -0.0204,0.00148c-2.85856,-0.36544 -5.91233,-0.26863 -8.62184,-0.46119c-12.99873,-0.92379 -26.44616,-1.12607 -39.99634,-1.03991c-3.52664,-1.09418 -7.43972,-2.23005 -10.80929,-2.30601c-19.64577,-0.44285 -38.29375,1.34556 -58.39036,0.63427c-5.70016,-0.20175 -9.45878,-3.83215 -15.11084,-0.65281c-0.00618,0.00348 -0.01236,0.00697 -0.01852,0.01047c-1.39057,-0.32735 -2.74305,-0.65989 -4.0403,-0.9869c-1.84288,-0.46455 -4.68385,-1.52396 -6.79793,-1.54211c-13.05304,-0.11205 -26.15861,-1.09839 -39.16054,0.06116c-3.18029,0.28363 -6.60862,1.38009 -9.88684,2.47592h-5.42347l-1.15046,-0.16435l-0.79652,-0.68273l-0.68495,-0.34247l-0.05573,-0.09753l-0.27864,-0.06966l-0.24922,-0.12462l-0.49498,-0.10999l-0.05697,-0.03418l-0.04349,0.01186l-1.64758,-0.36613l-0.42921,-0.1073l-0.05853,-0.03902l-0.37891,-0.13532l-0.1681,-0.29417l-2.1853,-0.54633l-2.12133,-0.75762l-0.30304,0.15152l-0.39033,-0.09758h-28.54217l-5,1.25l-0.03681,0.06442c-5.79667,-0.40621 -12.4239,-0.66028 -15.89411,-0.68015c-13.7423,-0.07868 -27.48517,-0.05722 -41.22757,0c-5.90849,0.0246 -11.90725,1.78337 -17.83597,1.90281c-3.16346,0.06373 -6.46292,-0.30015 -9.75808,-0.62586c-0.0529,-1.59783 -0.11961,-3.19402 -0.20283,-4.78814c-0.1148,-2.19904 -0.64487,-4.9399 -1.2542,-7.62933z" data-paper-data="{&quot;index&quot;:null}" fill="url(#color-1)" fill-rule="nonzero" stroke="none" stroke-width="0" stroke-linecap="butt" stroke-linejoin="miter"/><path d="M-12.4489,159.09137v-164h504v164z" fill="url(#color-2)" fill-rule="nonzero" stroke="none" stroke-width="0" stroke-linecap="butt" stroke-linejoin="miter"/><path d="M27.68521,277.41837c22.90254,-34.11705 49.46667,-86.27483 84.92808,-86.1706c37.06247,0.10141 61.59114,51.76439 82.94961,82.23303c20.44738,31.32072 55.477,88.53391 55.477,88.53391l-247.97756,-0.00001c-0.0457,-3.90079 -0.15048,-7.79578 -0.35317,-11.67842c-0.24314,-4.65747 -2.34907,-11.74535 -3.12552,-15.62762c-0.69738,-3.48691 -1.41309,-6.96129 -2.14695,-10.42591c9.5478,-15.19074 20.59342,-32.48154 30.24852,-46.86437z" fill="url(#color-3)" fill-rule="nonzero" stroke="none" stroke-width="0" stroke-linecap="butt" stroke-linejoin="miter"/><path d="M168.14658,362.07156c0,0 48.80779,-83.3117 74.53212,-120.14837c25.72431,-36.83665 55.56138,-91.43904 95.39194,-91.32649c41.62887,0.10949 69.1797,54.17762 93.1697,87.07504c13.09124,19.27627 36.14891,57.99906 53.55757,87.73583c-0.15074,0.89398 -0.29486,1.78815 -0.43129,2.68248c-1.54764,10.14491 -2.21468,20.53671 -3.29418,30.74293c-0.21379,2.0213 -0.44581,4.04685 -0.68845,6.07566z" fill="url(#color-4)" fill-rule="nonzero" stroke="none" stroke-width="0" stroke-linecap="butt" stroke-linejoin="miter"/><path d="M153.86819,89.7212h179.43211c9.30934,0 16.85629,7.64054 16.85629,17.06524v73.839c0,9.42472 -7.54695,17.0652 -16.85629,17.0652h-179.43211c-9.30967,0 -16.85669,-7.64049 -16.85669,-17.0652v-73.83899c0,-9.42472 7.54703,-17.06524 16.85669,-17.06524z" fill="#ffffff" fill-rule="evenodd" stroke="none" stroke-width="1" stroke-linecap="round" stroke-linejoin="round"/><g fill-rule="nonzero" stroke="none" stroke-width="1" stroke-linecap="butt" stroke-linejoin="miter"><g><path d="M267.22222,139.32638c0.05803,5.5336 -2.48663,10.23572 -7.84929,11.24613l-40.57273,0.42546c-5.38265,-0.89772 -8.02537,-5.54546 -8.08339,-11.07906c-0.04502,-4.29331 2.50764,-8.23219 6.19792,-9.70215c-0.2839,-0.56953 0.73504,-0.58022 0.72805,-1.24806c-0.02201,-2.09895 0.41713,-4.39357 2.45504,-4.41495c0.27789,-0.00291 0.46415,0.09055 0.64941,0.08862c-0.37854,-0.75936 0.6394,-0.86546 0.6304,-1.72412c-0.03502,-3.33923 1.41308,-6.59862 4.56256,-6.63164c0.92631,-0.00971 1.57674,0.17429 2.50706,0.54622v0c-0.05803,-5.5336 4.24865,-10.06336 9.52965,-10.02333c5.37264,-0.05634 9.67973,4.28769 9.82938,9.72491c3.50499,-1.46803 7.68044,-0.84387 10.58303,2.08363c2.99522,2.92652 2.67271,7.50993 1.13699,11.2473c3.8119,1.29587 7.55719,5.07329 7.69585,9.46103z" fill="#007af4"/><path d="M267.10733,137.20536c0.05803,5.5336 -4.24966,9.96796 -9.62228,10.0243l-37.0527,0.38854c-5.37264,0.05634 -9.77235,-4.28672 -9.73875,-9.91668c-0.04502,-4.29331 2.51164,-7.85056 6.20192,-9.3205c-0.2839,-0.56953 -0.47516,-1.14002 -0.48217,-1.80787c-0.02201,-2.09895 1.62736,-3.83375 3.66526,-3.85512c0.27789,-0.00291 0.46415,0.09055 0.64941,0.08862c-0.2849,-0.66493 -0.47816,-1.42625 -0.48716,-2.28492c-0.03402,-3.24382 2.53165,-5.94242 5.68115,-5.97544c0.92631,-0.00971 1.57674,0.17429 2.50706,0.54622v0c-0.05803,-5.5336 4.24865,-10.06336 9.52866,-10.11873c5.37264,-0.05634 9.67973,4.28769 9.82938,9.72491c3.50499,-1.46803 7.68044,-0.84387 10.58303,2.08363c2.90259,2.9275 3.59804,7.40481 2.06231,11.1422c3.8119,1.29587 6.62889,4.89219 6.67491,9.2809z" fill="#00a6f9"/><path d="M258.84398,147.74386l-12.13477,0.12724l-24.7179,-24.83554c-0.2849,-0.66493 -0.38354,-1.2364 -0.39153,-1.99966c-0.03402,-3.24382 2.53165,-5.94242 5.68115,-5.97544c0.92631,-0.00971 1.57673,0.17429 2.50706,0.54622c-0.05803,-5.5336 4.24865,-10.06336 9.52766,-10.21413c5.37264,-0.05634 9.67973,4.28769 9.82938,9.72491c3.50499,-1.46803 7.68044,-0.84388 10.58303,2.08362c2.90358,3.0229 3.59804,7.40481 2.06231,11.1422c3.8129,1.39128 6.62989,4.98759 6.6759,9.3763c0.05803,5.5336 -4.24966,9.96796 -9.62228,10.0243z" fill="#0093f7"/></g><g fill="#ffffff"><path d="M240.43456,115.17004c1.44024,-0.05059 2.73235,1.50071 2.73235,1.50071l8.58861,8.84589c1.35358,1.39413 1.35358,3.67546 0,5.06963c-1.35358,1.39413 -3.56855,1.39413 -4.92216,0l-6.3988,-6.46376l-6.27575,6.46376c-1.35358,1.39413 -3.56855,1.39413 -4.92216,0c-1.35358,-1.39413 -1.35358,-3.67546 0,-5.06963l8.30549,-8.64831c0,0 1.45219,-1.64769 2.89241,-1.6983z" data-paper-data="{&quot;origPos&quot;:null}"/><path d="M240.43456,119.05292c1.96884,0 3.69162,1.64762 3.69162,3.67546v16.47623c0,2.02783 -1.72274,3.67546 -3.69162,3.67546c-1.96884,0 -3.69162,-1.64762 -3.69162,-3.67546v-16.47623c0,-2.15458 1.72274,-3.67546 3.69162,-3.67546z"/></g></g><text transform="translate(181.69444,180.15623) scale(0.5,0.5)" font-size="40" xml:space="preserve" fill="#000000" fill-rule="nonzero" stroke="#000000" stroke-width="2" stroke-linecap="butt" stroke-linejoin="miter" stroke-miterlimit="10" stroke-dasharray="" stroke-dashoffset="0" font-family="Sans Serif" font-weight="normal" text-anchor="start" style="mix-blend-mode: normal"><tspan x="0" dy="0">Connecting...</tspan></text></g></g></svg>