<svg version="1.1" xmlns="http://www.w3.org/2000/svg" xmlns:xlink="http://www.w3.org/1999/xlink" width="554.69467" height="242.07131" viewBox="0,0,554.69467,242.07131"><defs><linearGradient x1="116.24093" y1="388.28995" x2="99.75235" y2="399.01279" gradientUnits="userSpaceOnUse" id="color-1"><stop offset="0" stop-color="#8e8e8e"/><stop offset="1" stop-color="#818181"/></linearGradient><linearGradient x1="149.42273" y1="323.81476" x2="177.18945" y2="355.85914" gradientUnits="userSpaceOnUse" id="color-2"><stop offset="0" stop-color="#8e8e8e"/><stop offset="1" stop-color="#818181"/></linearGradient><linearGradient x1="66.11144" y1="316.56511" x2="50.31718" y2="366.88267" gradientUnits="userSpaceOnUse" id="color-3"><stop offset="0" stop-color="#8e8e8e"/><stop offset="1" stop-color="#818181"/></linearGradient></defs><g transform="translate(8.13878,-178.1827)"><g data-paper-data="{&quot;isPaintingLayer&quot;:true}" fill-rule="nonzero" stroke="none" stroke-linecap="butt" stroke-linejoin="miter" stroke-miterlimit="10" stroke-dasharray="" stroke-dashoffset="0" style="mix-blend-mode: normal"><g data-paper-data="{&quot;index&quot;:null}" fill="#a9a9a9" stroke-width="0"><g><path d="M227.89305,313.63017l-48.80175,0.37501l-0.02243,-2.91847l48.80175,-0.37502z"/><path d="M179.15803,314.05757l-0.14075,-18.31624l7.11466,-0.05468l0.14075,18.31624z"/><path d="M179.22539,295.68949l48.80175,-0.37502l0.02052,2.67027l-48.80175,0.37502z" data-paper-data="{&quot;index&quot;:null}"/><path d="M227.96041,295.26209l0.14075,18.31624l-6.45335,0.04959l-0.14075,-18.31624z" data-paper-data="{&quot;index&quot;:null}"/><path d="M225.30702,298.8705l-38.81608,12.8172l-4.36508,-1.87151l38.81609,-12.81719z"/><path d="M220.83187,311.50695l-39.00848,-12.21915l4.33581,-1.93837l39.00847,12.21915z" data-paper-data="{&quot;index&quot;:null}"/></g><g><path d="M272.55579,313.1842l-48.80176,0.37501l-0.02243,-2.91847l48.80176,-0.37502z"/><path d="M223.82078,313.6116l-0.14075,-18.31624l7.11466,-0.05467l0.14075,18.31624z"/><path d="M223.88812,295.24352l48.80176,-0.37502l0.02051,2.67027l-48.80176,0.37501z" data-paper-data="{&quot;index&quot;:null}"/><path d="M272.62315,294.81612l0.14075,18.31624l-6.45335,0.04959l-0.14075,-18.31624z" data-paper-data="{&quot;index&quot;:null}"/><path d="M269.96976,298.42453l-38.81609,12.81719l-4.36508,-1.8715l38.81609,-12.81719z"/><path d="M265.4946,311.06098l-39.00847,-12.21915l4.3358,-1.93836l39.00848,12.21915z" data-paper-data="{&quot;index&quot;:null}"/></g><g><g><path d="M317.68503,312.7334l-48.80175,0.37501l-0.02243,-2.91847l48.80175,-0.37502z"/><path d="M268.95002,313.1608l-0.14075,-18.31624l7.11466,-0.05467l0.14075,18.31624z"/><path d="M269.01737,294.79272l48.80176,-0.37501l0.02052,2.67027l-48.80176,0.37501z" data-paper-data="{&quot;index&quot;:null}"/><path d="M317.75238,294.36532l0.14075,18.31624l-6.45335,0.04959l-0.14075,-18.31624z" data-paper-data="{&quot;index&quot;:null}"/><path d="M315.09901,297.97373l-38.81609,12.81719l-4.36508,-1.8715l38.81609,-12.81719z"/><path d="M310.62386,310.61018l-39.00848,-12.21915l4.33581,-1.93837l39.00847,12.21915z" data-paper-data="{&quot;index&quot;:null}"/></g><g><path d="M362.34777,312.28741l-48.80175,0.37502l-0.02243,-2.91847l48.80175,-0.37502z"/><path d="M313.61275,312.71484l-0.14075,-18.31624l7.11466,-0.05467l0.14075,18.31624z"/><path d="M313.6801,294.34675l48.80176,-0.37502l0.02052,2.67027l-48.80176,0.37501z" data-paper-data="{&quot;index&quot;:null}"/><path d="M362.41513,293.91934l0.14075,18.31624l-6.45335,0.0496l-0.14075,-18.31624z" data-paper-data="{&quot;index&quot;:null}"/><path d="M359.76174,297.52776l-38.81609,12.81719l-4.36508,-1.8715l38.81608,-12.8172z"/><path d="M355.2866,310.1642l-39.00848,-12.21915l4.33581,-1.93837l39.00847,12.21915z" data-paper-data="{&quot;index&quot;:null}"/></g></g></g><g data-paper-data="{&quot;index&quot;:null}" fill="#a9a9a9" stroke-width="0"><g><path d="M399.83941,272.36448l39.52992,28.62058l-1.71159,2.36399l-39.52992,-28.62057z"/><path d="M431.81005,299.18048l10.74185,-14.83634l5.76295,4.17251l-10.74185,14.83634z"/><path d="M446.6094,290.51663l-39.52991,-28.62058l1.56602,-2.16294l39.52991,28.62057z" data-paper-data="{&quot;index&quot;:null}"/><path d="M413.95754,263.51384l-10.74185,14.83634l-5.22728,-3.78467l10.74185,-14.83634z" data-paper-data="{&quot;index&quot;:null}"/><path d="M413.43881,265.21599l24.17786,32.96059l-4.64109,-1.00837l-24.17785,-32.96058z"/><path d="M402.70412,273.00172l38.86082,12.68089l2.40672,4.0944l-38.86083,-12.68089z" data-paper-data="{&quot;index&quot;:null}"/></g><g><path d="M363.72176,246.0876l39.52992,28.62059l-1.71159,2.36399l-39.52992,-28.62058z"/><path d="M395.69239,272.90361l10.74185,-14.83634l5.76295,4.17251l-10.74185,14.83634z"/><path d="M410.49176,264.23976l-39.52992,-28.62058l1.56602,-2.16295l39.52993,28.62059z" data-paper-data="{&quot;index&quot;:null}"/><path d="M377.83989,237.23696l-10.74185,14.83634l-5.22728,-3.78468l10.74185,-14.83634z" data-paper-data="{&quot;index&quot;:null}"/><path d="M377.32116,238.93911l24.17786,32.96059l-4.64108,-1.00837l-24.17786,-32.96059z"/><path d="M366.58647,246.72484l38.86083,12.68089l2.40672,4.0944l-38.86083,-12.68089z" data-paper-data="{&quot;index&quot;:null}"/></g><g><g><path d="M327.22696,219.53612l39.52991,28.62058l-1.71159,2.36399l-39.52991,-28.62057z"/><path d="M359.1976,246.35213l10.74185,-14.83634l5.76294,4.17251l-10.74185,14.83634z"/><path d="M373.99696,237.68827l-39.52992,-28.62058l1.56602,-2.16295l39.52992,28.62058z" data-paper-data="{&quot;index&quot;:null}"/><path d="M341.34509,210.68548l-10.74185,14.83634l-5.22727,-3.78467l10.74185,-14.83634z" data-paper-data="{&quot;index&quot;:null}"/><path d="M340.82636,212.38763l24.17786,32.96058l-4.64108,-1.00837l-24.17786,-32.96059z"/><path d="M330.09167,220.17336l38.86083,12.68089l2.40672,4.0944l-38.86083,-12.68089z" data-paper-data="{&quot;index&quot;:null}"/></g><g><path d="M291.10932,193.25923l39.52991,28.62058l-1.71159,2.364l-39.52991,-28.62058z"/><path d="M323.07993,220.07525l10.74185,-14.83634l5.76295,4.17251l-10.74185,14.83634z"/><path d="M337.87931,211.4114l-39.52992,-28.62058l1.56602,-2.16295l39.52992,28.62058z" data-paper-data="{&quot;index&quot;:null}"/><path d="M305.22744,184.40859l-10.74186,14.83634l-5.22727,-3.78468l10.74185,-14.83634z" data-paper-data="{&quot;index&quot;:null}"/><path d="M304.70872,186.11075l24.17786,32.96058l-4.64108,-1.00837l-24.17786,-32.96059z"/><path d="M293.97402,193.89647l38.86082,12.68089l2.40672,4.0944l-38.86083,-12.68089z" data-paper-data="{&quot;index&quot;:null}"/></g></g></g><g fill="#a9a9a9" stroke-width="0"><g><path d="M202.44534,272.72848l-39.52991,28.62057l-1.71159,-2.36399l39.52991,-28.62058z"/><path d="M163.00017,301.353l-10.74186,-14.83634l5.76295,-4.17251l10.74186,14.83634z"/><path d="M152.39773,286.35369l39.52991,-28.62057l1.56602,2.16294l-39.52991,28.62058z" data-paper-data="{&quot;index&quot;:null}"/><path d="M191.8429,257.72917l10.74186,14.83634l-5.22728,3.78467l-10.74185,-14.83634z" data-paper-data="{&quot;index&quot;:null}"/><path d="M191.77543,262.20762l-24.17785,32.96058l-4.64109,1.00837l24.17786,-32.96059z"/><path d="M195.46232,275.09612l-38.86083,12.68089l2.40672,-4.0944l38.86083,-12.68089z" data-paper-data="{&quot;index&quot;:null}"/></g><g><path d="M238.56299,246.45159l-39.52992,28.62058l-1.71158,-2.36399l39.52992,-28.62059z"/><path d="M199.11782,275.07612l-10.74185,-14.83634l5.76295,-4.17251l10.74186,14.83634z"/><path d="M188.51538,260.07682l39.52992,-28.62059l1.56602,2.16295l-39.52992,28.62058z" data-paper-data="{&quot;index&quot;:null}"/><path d="M227.96055,231.45229l10.74185,14.83634l-5.22728,3.78467l-10.74185,-14.83634z" data-paper-data="{&quot;index&quot;:null}"/><path d="M227.89308,235.93074l-24.17786,32.96059l-4.64108,1.00837l24.17786,-32.96059z"/><path d="M231.57996,248.81925l-38.86083,12.68089l2.40672,-4.0944l38.86083,-12.68089z" data-paper-data="{&quot;index&quot;:null}"/></g><g><g><path d="M275.05779,219.90011l-39.52992,28.62057l-1.71159,-2.36399l39.52991,-28.62058z"/><path d="M235.61262,248.52464l-10.74185,-14.83634l5.76295,-4.17251l10.74185,14.83634z"/><path d="M225.01018,233.52532l39.52992,-28.62058l1.56602,2.16295l-39.52992,28.62058z" data-paper-data="{&quot;index&quot;:null}"/><path d="M264.45535,204.90081l10.74185,14.83634l-5.22728,3.78467l-10.74185,-14.83634z" data-paper-data="{&quot;index&quot;:null}"/><path d="M264.38788,209.37926l-24.17786,32.96059l-4.64108,1.00837l24.17786,-32.96058z"/><path d="M268.07477,222.26776l-38.86083,12.68089l2.40672,-4.0944l38.86083,-12.68089z" data-paper-data="{&quot;index&quot;:null}"/></g><g><path d="M311.17543,193.62322l-39.52991,28.62058l-1.71159,-2.364l39.52991,-28.62057z"/><path d="M271.73028,222.24776l-10.74185,-14.83634l5.76295,-4.17251l10.74185,14.83634z"/><path d="M261.12782,207.24845l39.52992,-28.62058l1.56603,2.16295l-39.52992,28.62058z" data-paper-data="{&quot;index&quot;:null}"/><path d="M300.573,178.62392l10.74185,14.83634l-5.22727,3.78468l-10.74186,-14.83634z" data-paper-data="{&quot;index&quot;:null}"/><path d="M300.50552,183.10238l-24.17786,32.96059l-4.64108,1.00837l24.17786,-32.96058z"/><path d="M304.19242,195.99087l-38.86083,12.68089l2.40672,-4.0944l38.86082,-12.68089z" data-paper-data="{&quot;index&quot;:null}"/></g></g></g><path d="M191.51647,257.9804l-38.90668,1.43691l111.87373,-80.7977l39.90668,-0.43691z" fill="#c89a3a" stroke-width="0"/><g><path d="M94.35969,394.58572l6.66675,-7.86422l17.86868,3.77381l-6.39294,12.029l-12.92623,-0.75551z" data-paper-data="{&quot;origPos&quot;:null,&quot;origRot&quot;:0}" fill="#534c42" stroke-width="0"/><path d="M96.69773,393.72632l5.98301,-7.05764l16.03602,3.38678l-5.73731,10.79525l-11.60053,-0.67802z" data-paper-data="{&quot;origPos&quot;:null,&quot;origRot&quot;:0}" fill="url(#color-1)" stroke-width="NaN"/></g><path d="M-7.70851,353.67134v-74.52655c0,0 20.36981,7.45265 36.1721,7.45265c16.66009,0 59.48931,-7.67744 95.16741,-9.4622c38.68971,-1.93542 69.7101,2.00956 69.7101,2.00956v74.52655z" fill="#7c7262" stroke-width="0"/><path d="M-7.82928,417.59973v-74.52655c0,0 20.39619,7.45265 36.21891,7.45265c16.68165,0 59.56629,-7.67744 95.29054,-9.4622c38.73978,-1.93542 69.80031,2.00956 69.80031,2.00956v74.52655z" fill="#786e5f" stroke-width="0"/><path d="M-7.60645,420.254v-37.05188c0,0 20.32524,3.70519 36.09294,3.70519c16.62363,0 59.3591,-3.81693 94.95911,-4.70428c38.60504,-0.96221 69.55753,0.9991 69.55753,0.9991v37.05188z" fill="#6f6558" stroke-width="0"/><path d="M-7.7563,290.69768v-32.95167h201.89507v32.95167z" fill="#949494" stroke-width="0"/><path d="M-8.13878,290.69768v-13.30453h201.27622v13.30453z" fill="#b5b5b5" stroke-width="0"/><g><path d="M164.53416,365.47786l-22.03784,-13.73023l14.07668,-31.35114l34.34104,14.15045l-4.37184,23.1124z" data-paper-data="{&quot;origRot&quot;:0}" fill="#534c42" stroke-width="0"/><path d="M161.70937,360.2009l-19.05547,-12.32205l12.17161,-28.13558l29.69362,12.69916l-3.78014,20.74185z" data-paper-data="{&quot;origRot&quot;:0}" fill="url(#color-2)" stroke-width="NaN"/></g><g><path d="M28.59611,360.50707l-0.6499,-30.4996l47.8118,-10.22854l9.57157,42.16174l-30.65014,13.08147z" data-paper-data="{&quot;origRot&quot;:0}" fill="#534c42" stroke-width="0"/><path d="M32.88909,355.27452l-0.58324,-27.37144l42.90799,-9.17942l8.58979,37.83744l-27.50652,11.73975z" data-paper-data="{&quot;origRot&quot;:0}" fill="url(#color-3)" stroke-width="NaN"/></g><path d="M263.5,200.8v-22h217v22z" fill="#c89a3a" stroke-width="0"/><g fill="#c89a3a" stroke-width="0"><g><path d="M152.5,257.8v-9h40v9z"/><path d="M165.5,249.8v-10h31v10z"/></g><g><path d="M174.5,240.80001v-9h40v9z"/><path d="M187.5,232.80001v-10h31v10z"/></g></g><g fill="#c89a3a" stroke-width="0"><g><path d="M198.5,225.80001v-9h40v9z"/><path d="M211.5,217.80001v-10h31v10z"/></g><g><path d="M220.5,208.80001v-9h40v9z"/><path d="M233.5,200.80001v-10h31v10z"/></g></g><g fill="#c89a3a" stroke-width="0"><g><path d="M208.5,218.80001v-9h40v9z"/><path d="M221.5,210.80001v-10h31v10z"/></g><g><path d="M230.5,201.80001v-9h40v9z"/><path d="M243.5,193.80001v-10h31v10z"/></g></g><g data-paper-data="{&quot;index&quot;:null}" fill="#a9a9a9" stroke-width="0"><g><path d="M411.89305,311.63017l-48.80175,0.37501l-0.02243,-2.91847l48.80176,-0.37502z"/><path d="M363.15804,312.05757l-0.14076,-18.31624l7.11466,-0.05468l0.14076,18.31624z"/><path d="M363.22539,293.68949l48.80175,-0.37502l0.02052,2.67027l-48.80175,0.37502z" data-paper-data="{&quot;index&quot;:null}"/><path d="M411.96041,293.2621l0.14075,18.31624l-6.45335,0.04959l-0.14075,-18.31624z" data-paper-data="{&quot;index&quot;:null}"/><path d="M409.30703,296.8705l-38.81608,12.8172l-4.36508,-1.87151l38.81609,-12.81719z"/><path d="M404.83188,309.50695l-39.00848,-12.21915l4.33581,-1.93837l39.00847,12.21915z" data-paper-data="{&quot;index&quot;:null}"/></g><g><path d="M456.55579,311.1842l-48.80176,0.37502l-0.02243,-2.91847l48.80176,-0.37502z"/><path d="M407.82078,311.6116l-0.14075,-18.31624l7.11466,-0.05466l0.14075,18.31624z"/><path d="M407.88812,293.24352l48.80177,-0.37501l0.02051,2.67027l-48.80176,0.37501z" data-paper-data="{&quot;index&quot;:null}"/><path d="M456.62315,292.81612l0.14075,18.31624l-6.45335,0.04959l-0.14075,-18.31624z" data-paper-data="{&quot;index&quot;:null}"/><path d="M453.96976,296.42453l-38.81609,12.81719l-4.36508,-1.8715l38.81608,-12.81719z"/><path d="M449.49461,309.06098l-39.00847,-12.21915l4.3358,-1.93836l39.00848,12.21915z" data-paper-data="{&quot;index&quot;:null}"/></g><g><g><path d="M501.68503,310.7334l-48.80175,0.37501l-0.02242,-2.91847l48.80174,-0.37502z"/><path d="M452.95002,311.16081l-0.14075,-18.31624l7.11466,-0.05467l0.14075,18.31624z"/><path d="M453.01738,292.79272l48.80175,-0.37501l0.02052,2.67027l-48.80176,0.37502z" data-paper-data="{&quot;index&quot;:null}"/><path d="M501.75239,292.36532l0.14075,18.31624l-6.45334,0.04959l-0.14075,-18.31624z" data-paper-data="{&quot;index&quot;:null}"/><path d="M499.09901,295.97373l-38.81608,12.81719l-4.36508,-1.8715l38.81608,-12.81719z"/><path d="M494.62386,308.61018l-39.00847,-12.21915l4.3358,-1.93837l39.00847,12.21915z" data-paper-data="{&quot;index&quot;:null}"/></g><g><path d="M546.34777,310.28742l-48.80175,0.37502l-0.02242,-2.91848l48.80174,-0.37502z"/><path d="M497.61276,310.71484l-0.14075,-18.31624l7.11467,-0.05467l0.14075,18.31624z"/><path d="M497.6801,292.34675l48.80176,-0.37501l0.02052,2.67028l-48.80176,0.37501z" data-paper-data="{&quot;index&quot;:null}"/><path d="M546.41513,291.91935l0.14076,18.31624l-6.45335,0.0496l-0.14075,-18.31624z" data-paper-data="{&quot;index&quot;:null}"/><path d="M543.76174,295.52777l-38.81609,12.81719l-4.36507,-1.87151l38.81608,-12.8172z"/><path d="M539.2866,308.1642l-39.00848,-12.21915l4.3358,-1.93837l39.00847,12.21915z" data-paper-data="{&quot;index&quot;:null}"/></g></g></g></g></g></svg>