<svg version="1.1" xmlns="http://www.w3.org/2000/svg" xmlns:xlink="http://www.w3.org/1999/xlink" width="280.78078" height="322.62352" viewBox="0,0,280.78078,322.62352"><defs><radialGradient cx="318.00001" cy="130" r="36.5" gradientUnits="userSpaceOnUse" id="color-1"><stop offset="0" stop-color="#5cd2ff"/><stop offset="1" stop-color="#5cd2ff" stop-opacity="0"/></radialGradient><linearGradient x1="315.80872" y1="130.04853" x2="332.52245" y2="130.04853" gradientUnits="userSpaceOnUse" id="color-2"><stop offset="0" stop-color="#84edff"/><stop offset="1" stop-color="#119fff"/></linearGradient><linearGradient x1="303.47756" y1="130.01301" x2="320.00237" y2="130.01301" gradientUnits="userSpaceOnUse" id="color-3"><stop offset="0" stop-color="#84edff"/><stop offset="1" stop-color="#119fff"/></linearGradient><linearGradient x1="308.6371" y1="118.69013" x2="327.16889" y2="118.69013" gradientUnits="userSpaceOnUse" id="color-4"><stop offset="0" stop-color="#84edff"/><stop offset="1" stop-color="#119fff"/></linearGradient><linearGradient x1="303.35657" y1="126.36188" x2="332.15054" y2="126.36188" gradientUnits="userSpaceOnUse" id="color-5"><stop offset="0" stop-color="#84edff"/><stop offset="1" stop-color="#119fff"/></linearGradient><linearGradient x1="321.88831" y1="123.52234" x2="324.17987" y2="123.52234" gradientUnits="userSpaceOnUse" id="color-6"><stop offset="0" stop-color="#84edff"/><stop offset="1" stop-color="#119fff"/></linearGradient><linearGradient x1="313.02097" y1="123.32307" x2="314.81435" y2="123.32307" gradientUnits="userSpaceOnUse" id="color-7"><stop offset="0" stop-color="#84edff"/><stop offset="1" stop-color="#119fff"/></linearGradient><radialGradient cx="317.00001" cy="84.7931" r="28.44706" gradientUnits="userSpaceOnUse" id="color-8"><stop offset="0" stop-color="#ffeb52"/><stop offset="1" stop-color="#ffeb52" stop-opacity="0"/></radialGradient><radialGradient cx="318.00001" cy="173" r="33.32846" gradientUnits="userSpaceOnUse" id="color-9"><stop offset="0" stop-color="#8af668"/><stop offset="1" stop-color="#8af668" stop-opacity="0"/></radialGradient><linearGradient x1="304.13554" y1="173.00056" x2="330.46801" y2="173.00056" gradientUnits="userSpaceOnUse" id="color-10"><stop offset="0" stop-color="#96ff73"/><stop offset="1" stop-color="#5cd240"/></linearGradient></defs><g transform="translate(-213.62091,-9)"><g data-paper-data="{&quot;isPaintingLayer&quot;:true}" stroke-dasharray="" stroke-dashoffset="0" style="mix-blend-mode: normal"><path d="M241.37235,197.13636c0,0 -4.87234,-1.7559 -4.87234,-7.15909c0,-19.8904 0,-140.94893 0,-171.81818c0,-4.56627 4.87234,-5.01136 4.87234,-5.01136c0,0 6.17004,-2.14773 23.14362,-2.14773c47.89827,0 149.02828,0 176.53191,0c14.58823,0 26.45213,8.41318 26.45213,14.30682c0,17.31475 -2,147.71587 -2,166.10227c0,4.70135 -4.87234,7.15909 -4.87234,7.15909c0,0 -8.29998,1.43182 -28.01596,1.43182c-49.97038,0 -141.97566,0 -168.09574,0c-13.59977,0 -23.14362,-2.86364 -23.14362,-2.86364z" fill="#ffffff" fill-rule="nonzero" stroke="#efefef" stroke-width="4" stroke-linecap="butt" stroke-linejoin="miter" stroke-miterlimit="10"/><path d="M246.36539,44.69838c-4.42915,-4.48547 -4.41207,-11.72359 0.0523,-16.18795c4.48146,-4.48146 11.7588,-4.48146 16.24125,0.00101l0.01509,0.01509c4.50761,-3.9947 11.41383,-3.83479 15.72934,0.48073c4.31451,4.31451 4.47542,11.22175 0.48073,15.72934l0.01509,0.01509l-14.22883,14.22883c-0.53302,0.53302 -1.25714,0.83273 -2.01143,0.83273c-0.75428,0 -1.47839,-0.2997 -2.01143,-0.83273l-14.22883,-14.22883z" data-paper-data="{&quot;index&quot;:null}" fill="#ff363f" fill-rule="evenodd" stroke="none" stroke-width="1" stroke-linecap="butt" stroke-linejoin="round" stroke-miterlimit="2"/><path d="M434.07478,22.87076c0.37974,-1.17121 1.47235,-1.96535 2.70485,-1.96535c1.2325,0 2.32511,0.79414 2.70485,1.96535c1.00733,3.10059 2.06261,6.34774 2.71418,8.35306c0.38108,1.17256 1.47367,1.96535 2.70619,1.96535c2.10793,0 5.52296,0 8.7821,0c1.2325,0 2.32377,0.79414 2.70485,1.96535c0.38108,1.17256 -0.03597,2.45569 -1.03265,3.18054c-2.6369,1.91604 -5.40037,3.9227 -7.10589,5.16186c-0.99666,0.72485 -1.41371,2.00932 -1.03265,3.18054c0.65157,2.00531 1.70685,5.25248 2.71285,8.35306c0.38108,1.17121 -0.03597,2.45569 -1.03265,3.18054c-0.99666,0.72351 -2.34776,0.72351 -3.34442,0c-2.6369,-1.91604 -5.39905,-3.92403 -7.10457,-5.16321c-0.99666,-0.72351 -2.34776,-0.72351 -3.34442,0c-1.70552,1.23916 -4.46767,3.24716 -7.10457,5.16321c-0.99666,0.72351 -2.34776,0.72351 -3.34442,0c-0.99666,-0.72485 -1.41371,-2.00932 -1.03265,-3.18054c1.00599,-3.10059 2.06129,-6.34774 2.71285,-8.35306c0.38108,-1.17121 -0.03597,-2.45569 -1.03265,-3.18054c-1.70552,-1.23916 -4.46901,-3.24582 -7.10589,-5.16186c-0.99666,-0.72485 -1.41371,-2.00798 -1.03265,-3.18054c0.38108,-1.17121 1.47235,-1.96535 2.70485,-1.96535c3.25914,0 6.67419,0 8.7821,0c1.2325,0 2.32511,-0.7928 2.70619,-1.96535c0.65157,-2.00531 1.70685,-5.25248 2.71418,-8.35306z" data-paper-data="{&quot;index&quot;:null}" fill="#ffbc3f" fill-rule="evenodd" stroke="none" stroke-width="1" stroke-linecap="butt" stroke-linejoin="round" stroke-miterlimit="2"/><text transform="translate(294.49577,50.06601) scale(0.66134,0.66134)" font-size="40" xml:space="preserve" fill="#000000" fill-rule="nonzero" stroke="none" stroke-width="1" stroke-linecap="butt" stroke-linejoin="miter" stroke-miterlimit="10" stroke-dasharray="" stroke-dashoffset="0" font-family="Sans Serif" font-weight="normal" text-anchor="start" style="mix-blend-mode: normal"><tspan x="0" dy="0">You get:</tspan></text><path d="M213.62092,331.62352v-183.18318h280.78078v183.18318z" fill="none" fill-rule="nonzero" stroke="none" stroke-width="NaN" stroke-linecap="butt" stroke-linejoin="miter" stroke-miterlimit="10"/><text transform="translate(245.35535,138.63342) scale(0.66331,0.66331)" font-size="40" xml:space="preserve" fill="#000000" fill-rule="nonzero" stroke="#000000" stroke-width="1" stroke-linecap="butt" stroke-linejoin="miter" stroke-miterlimit="10" stroke-dasharray="" stroke-dashoffset="0" font-family="Sans Serif" font-weight="normal" text-anchor="start" style="mix-blend-mode: normal"><tspan x="0" dy="0">+3</tspan></text><text transform="translate(244.42194,94.68262) scale(0.66331,0.66331)" font-size="40" xml:space="preserve" fill="#000000" fill-rule="nonzero" stroke="#000000" stroke-width="1" stroke-linecap="butt" stroke-linejoin="miter" stroke-miterlimit="10" stroke-dasharray="" stroke-dashoffset="0" font-family="Sans Serif" font-weight="normal" text-anchor="start" style="mix-blend-mode: normal"><tspan x="0" dy="0">+10</tspan></text><text transform="translate(248.13033,180.71735) scale(0.66331,0.66331)" font-size="40" xml:space="preserve" fill="#000000" fill-rule="nonzero" stroke="#000000" stroke-width="1" stroke-linecap="butt" stroke-linejoin="miter" stroke-miterlimit="10" stroke-dasharray="" stroke-dashoffset="0" font-family="Sans Serif" font-weight="normal" text-anchor="start" style="mix-blend-mode: normal"><tspan x="0" dy="0">+1</tspan></text><g fill-rule="nonzero" stroke-linejoin="miter" stroke-miterlimit="10"><path d="M281.50001,130c0,-20.15839 16.34161,-36.5 36.5,-36.5c20.15839,0 36.5,16.34161 36.5,36.5c0,20.15839 -16.34161,36.5 -36.5,36.5c-20.15839,0 -36.5,-16.34161 -36.5,-36.5z" fill="url(#color-1)" stroke="none" stroke-width="0" stroke-linecap="butt"/><path d="M315.80872,114.90082c1.88547,0.00258 4.71463,-0.28397 5.04564,-0.16912c2.29773,0.79725 6.42988,2.43918 6.73745,2.80285c1.62489,1.92131 5.64149,6.90225 4.8215,8.26891c-2.6581,4.43016 -13.63521,19.52345 -13.63521,19.52345" data-paper-data="{&quot;index&quot;:null}" fill="url(#color-2)" stroke="#007bef" stroke-width="2" stroke-linecap="round"/><path d="M318.95183,145.4779c0,0 -12.70703,-15.25333 -15.36512,-19.68349c-0.81999,-1.36667 3.19661,-6.34761 4.8215,-8.26892c0.30757,-0.36368 5.44245,-2.20615 7.7402,-3.0034c0.36437,-0.12642 2.39303,0.04641 4.45562,0.04971" fill="url(#color-3)" stroke="#007bef" stroke-width="2" stroke-linecap="round"/><path d="M327.16889,118.09233l-5.3802,1.39486l-7.07396,-0.19926l-6.07763,-1.39487" fill="url(#color-4)" stroke="#007bef" stroke-width="2" stroke-linecap="round"/><path d="M332.15054,125.46519l-7.87102,1.99267l-10.95965,-0.09963l-9.76278,-1.99202" fill="url(#color-5)" stroke="#007bef" stroke-width="2" stroke-linecap="round"/><path d="M321.88831,119.68645l2.29156,7.67176" fill="url(#color-6)" stroke="#007bef" stroke-width="2" stroke-linecap="round"/><path d="M314.81439,119.38756l-1.7934,7.87102" fill="url(#color-7)" stroke="#007bef" stroke-width="2" stroke-linecap="round"/></g><path d="M340.25001,84.7931c0,15.34971 -10.40938,27.7931 -23.25,27.7931c-12.84062,0 -23.25,-12.44339 -23.25,-27.7931c0,-15.34971 10.40938,-27.7931 23.25,-27.7931c12.84062,0 23.25,12.44339 23.25,27.7931z" fill="url(#color-8)" fill-rule="nonzero" stroke="none" stroke-width="0" stroke-linecap="butt" stroke-linejoin="miter" stroke-miterlimit="10"/><path d="M328.35148,84.7931c0,7.74865 -5.08223,14.03017 -11.35147,14.03017c-6.26924,0 -11.35147,-6.28152 -11.35147,-14.03017c0,-7.74865 5.08223,-14.03017 11.35147,-14.03017c6.26924,0 11.35147,6.28152 11.35147,14.03017z" fill="#ffeb52" fill-rule="nonzero" stroke="#ffb759" stroke-width="1.5" stroke-linecap="butt" stroke-linejoin="miter" stroke-miterlimit="10"/><path d="M317.13678,88.93534l-0.27353,-8.28448" fill="none" fill-rule="nonzero" stroke="#ffa42c" stroke-width="2" stroke-linecap="round" stroke-linejoin="miter" stroke-miterlimit="10"/><g fill-rule="nonzero" stroke-linejoin="miter" stroke-miterlimit="10"><path d="M284.67154,173c0,-18.40679 14.92166,-33.32845 33.32846,-33.32845c18.40679,0 33.32846,14.92166 33.32846,33.32845c0,18.40679 -14.92166,33.32845 -33.32846,33.32845c-18.40679,0 -33.32846,-14.92166 -33.32846,-33.32845z" fill="url(#color-9)" stroke="none" stroke-width="0" stroke-linecap="butt"/><path d="M331.84986,173.92407l-7.19619,16.95657h-14.34136l-6.17675,-16.88273l6.79725,-18.85536l13.68357,-0.02207z" fill="url(#color-10)" stroke="#066300" stroke-width="2" stroke-linecap="round"/><path d="M317.9299,178.15103v-10.30094" fill="none" stroke="#066300" stroke-width="2" stroke-linecap="round"/></g></g></g></svg>