<svg version="1.1" xmlns="http://www.w3.org/2000/svg" xmlns:xlink="http://www.w3.org/1999/xlink" width="478.27755" height="162.508" viewBox="0,0,478.27755,162.508"><defs><linearGradient x1="121.94364" y1="388.28995" x2="105.7596" y2="399.01279" gradientUnits="userSpaceOnUse" id="color-1"><stop offset="0" stop-color="#8e8e8e"/><stop offset="1" stop-color="#818181"/></linearGradient><linearGradient x1="344.55258" y1="312.99791" x2="311.9669" y2="368.26424" gradientUnits="userSpaceOnUse" id="color-2"><stop offset="0" stop-color="#8e8e8e"/><stop offset="1" stop-color="#818181"/></linearGradient><linearGradient x1="388.99569" y1="313.09785" x2="345.89745" y2="347.08394" gradientUnits="userSpaceOnUse" id="color-3"><stop offset="0" stop-color="#8e8e8e"/><stop offset="1" stop-color="#818181"/></linearGradient><linearGradient x1="154.51258" y1="323.81476" x2="181.76644" y2="355.85914" gradientUnits="userSpaceOnUse" id="color-4"><stop offset="0" stop-color="#8e8e8e"/><stop offset="1" stop-color="#818181"/></linearGradient><linearGradient x1="72.74004" y1="316.56511" x2="57.2375" y2="366.88267" gradientUnits="userSpaceOnUse" id="color-5"><stop offset="0" stop-color="#8e8e8e"/><stop offset="1" stop-color="#818181"/></linearGradient></defs><g transform="translate(0.13878,-257.74601)"><g data-paper-data="{&quot;isPaintingLayer&quot;:true}" fill-rule="nonzero" stroke="none" stroke-linecap="butt" stroke-linejoin="miter" stroke-miterlimit="10" stroke-dasharray="" stroke-dashoffset="0" style="mix-blend-mode: normal"><g><path d="M100.46654,394.58572l6.54362,-7.86422l17.53865,3.77381l-6.27486,12.029l-12.68749,-0.75551z" data-paper-data="{&quot;origPos&quot;:null,&quot;origRot&quot;:0}" fill="#534c42" stroke-width="0"/><path d="M102.76141,393.72632l5.8725,-7.05764l15.73983,3.38678l-5.63134,10.79525l-11.38627,-0.67802z" data-paper-data="{&quot;origPos&quot;:null,&quot;origRot&quot;:0}" fill="url(#color-1)" stroke-width="NaN"/></g><path d="M0.87857,353.67134v-74.52655c0,0 48.16365,7.45265 85.52755,7.45265c39.39214,0 140.66021,-7.67744 225.01971,-9.4622c91.48035,-1.93542 164.82687,2.00956 164.82687,2.00956v74.52655z" fill="#7c7262" stroke-width="0"/><path d="M0.59302,417.59973v-74.52655c0,0 48.226,7.45265 85.63824,7.45265c39.44313,0 140.84223,-7.67744 225.31085,-9.4622c91.59874,-1.93542 165.04016,2.00956 165.04016,2.00956v74.52655z" fill="#786e5f" stroke-width="0"/><path d="M1.11988,420.254v-37.05188c0,0 48.05824,3.70519 85.34037,3.70519c39.30594,0 140.35234,-3.81693 224.5272,-4.70428c91.28013,-0.96221 164.46613,0.9991 164.46613,0.9991v37.05188z" fill="#6f6558" stroke-width="0"/><path d="M0.76557,290.69768v-32.95167h477.3732v32.95167z" fill="#949494" stroke-width="0"/><path d="M-0.13878,290.69768v-13.30453h475.90993v13.30453z" fill="#b5b5b5" stroke-width="0"/><g><path d="M290.48718,355.27855l8.82339,-36.16014l54.29939,0.37413l-2.92623,52.24412l-36.84514,7.45925z" data-paper-data="{&quot;origPos&quot;:null,&quot;origRot&quot;:0}" fill="#534c42" stroke-width="0"/><path d="M296.96013,350.02993l7.91844,-32.45141l48.73018,0.33577l-2.62616,46.88573l-33.06613,6.69417z" data-paper-data="{&quot;origPos&quot;:null,&quot;origRot&quot;:0}" fill="url(#color-2)" stroke-width="NaN"/></g><g><path d="M331.1283,332.4962l17.42583,-24.92571l46.70589,11.96112l-16.71013,38.12603l-33.78712,-2.39454z" data-paper-data="{&quot;origPos&quot;:null,&quot;origRot&quot;:0}" fill="#534c42" stroke-width="0"/><path d="M337.91312,330.32843l15.63862,-22.36922l41.91551,10.73433l-14.99634,34.21564l-30.32177,-2.14891z" data-paper-data="{&quot;origPos&quot;:null,&quot;origRot&quot;:0}" fill="url(#color-3)" stroke-width="NaN"/></g><g><path d="M169.34488,365.47786l-21.6308,-13.73023l13.81668,-31.35114l33.70676,14.15045l-4.29109,23.1124z" data-paper-data="{&quot;origRot&quot;:0}" fill="#534c42" stroke-width="0"/><path d="M166.57227,360.2009l-18.70351,-12.32205l11.9468,-28.13558l29.14518,12.69916l-3.71032,20.74185z" data-paper-data="{&quot;origRot&quot;:0}" fill="url(#color-4)" stroke-width="NaN"/></g><g><path d="M35.91761,360.50707l-0.6379,-30.4996l46.92872,-10.22854l9.39478,42.16174l-30.08404,13.08147z" data-paper-data="{&quot;origRot&quot;:0}" fill="#534c42" stroke-width="0"/><path d="M40.1313,355.27452l-0.57247,-27.37144l42.11548,-9.17942l8.43114,37.83744l-26.99847,11.73975z" data-paper-data="{&quot;origRot&quot;:0}" fill="url(#color-5)" stroke-width="NaN"/></g></g></g></svg>