<svg version="1.1" xmlns="http://www.w3.org/2000/svg" xmlns:xlink="http://www.w3.org/1999/xlink" width="91" height="91" viewBox="0,0,91,91"><defs><radialGradient cx="240" cy="180" r="45.5" gradientUnits="userSpaceOnUse" id="color-1"><stop offset="0" stop-color="#5cd2ff"/><stop offset="1" stop-color="#5cd2ff" stop-opacity="0"/></radialGradient><linearGradient x1="237.2684" y1="180.06049" x2="258.10332" y2="180.06049" gradientUnits="userSpaceOnUse" id="color-2"><stop offset="0" stop-color="#84edff"/><stop offset="1" stop-color="#119fff"/></linearGradient><linearGradient x1="221.89668" y1="180.01621" x2="242.49611" y2="180.01621" gradientUnits="userSpaceOnUse" id="color-3"><stop offset="0" stop-color="#84edff"/><stop offset="1" stop-color="#119fff"/></linearGradient><linearGradient x1="228.32844" y1="165.90139" x2="251.42969" y2="165.90139" gradientUnits="userSpaceOnUse" id="color-4"><stop offset="0" stop-color="#84edff"/><stop offset="1" stop-color="#119fff"/></linearGradient><linearGradient x1="221.74582" y1="175.46481" x2="257.6397" y2="175.46481" gradientUnits="userSpaceOnUse" id="color-5"><stop offset="0" stop-color="#84edff"/><stop offset="1" stop-color="#119fff"/></linearGradient><linearGradient x1="244.84707" y1="171.9251" x2="247.70368" y2="171.9251" gradientUnits="userSpaceOnUse" id="color-6"><stop offset="0" stop-color="#84edff"/><stop offset="1" stop-color="#119fff"/></linearGradient><linearGradient x1="233.79325" y1="171.6767" x2="236.02885" y2="171.6767" gradientUnits="userSpaceOnUse" id="color-7"><stop offset="0" stop-color="#84edff"/><stop offset="1" stop-color="#119fff"/></linearGradient></defs><g transform="translate(-194.5,-134.5)"><g data-paper-data="{&quot;isPaintingLayer&quot;:true}" fill-rule="nonzero" stroke-linejoin="miter" stroke-miterlimit="10" stroke-dasharray="" stroke-dashoffset="0" style="mix-blend-mode: normal"><path d="M194.5,180c0,-25.12896 20.37104,-45.5 45.5,-45.5c25.12896,0 45.5,20.37104 45.5,45.5c0,25.12896 -20.37104,45.5 -45.5,45.5c-25.12896,0 -45.5,-20.37104 -45.5,-45.5z" fill="url(#color-1)" stroke="none" stroke-width="0" stroke-linecap="butt"/><path d="M237.2684,161.17773c2.35038,0.00322 5.87713,-0.35399 6.28976,-0.21082c2.8643,0.99383 8.01533,3.04061 8.39874,3.49396c2.02554,2.39506 7.03254,8.60418 6.01036,10.30782c-3.31352,5.52252 -16.99732,24.33746 -16.99732,24.33746" data-paper-data="{&quot;index&quot;:null}" fill="url(#color-2)" stroke="#007bef" stroke-width="2" stroke-linecap="round"/><path d="M241.18652,199.29437c0,0 -15.84027,-19.01443 -19.15378,-24.53695c-1.02218,-1.70365 3.98482,-7.91277 6.01036,-10.30783c0.38341,-0.45335 6.78443,-2.75013 9.64874,-3.74396c0.45421,-0.15759 2.98309,0.05785 5.55427,0.06196" fill="url(#color-3)" stroke="#007bef" stroke-width="2" stroke-linecap="round"/><path d="M251.4297,165.15619l-6.70682,1.7388l-8.81822,-0.2484l-7.57622,-1.7388" fill="url(#color-4)" stroke="#007bef" stroke-width="2" stroke-linecap="round"/><path d="M257.6397,174.34701l-9.81182,2.48401l-13.66203,-0.1242l-12.17003,-2.48321" fill="url(#color-5)" stroke="#007bef" stroke-width="2" stroke-linecap="round"/><path d="M247.70368,176.70681l-2.85661,-9.56342" fill="url(#color-6)" stroke="#007bef" stroke-width="2" stroke-linecap="round"/><path d="M233.79325,176.58261l2.23561,-9.81182" fill="url(#color-7)" stroke="#007bef" stroke-width="2" stroke-linecap="round"/></g></g></svg>