<svg version="1.1" xmlns="http://www.w3.org/2000/svg" xmlns:xlink="http://www.w3.org/1999/xlink" width="484.27755" height="461.10582" viewBox="0,0,484.27755,461.10582"><defs><linearGradient x1="123.47517" y1="388.28996" x2="107.0881" y2="399.0128" gradientUnits="userSpaceOnUse" id="color-1"><stop offset="0" stop-color="#8e8e8e"/><stop offset="1" stop-color="#818181"/></linearGradient><linearGradient x1="348.87674" y1="312.99791" x2="315.88227" y2="368.26424" gradientUnits="userSpaceOnUse" id="color-2"><stop offset="0" stop-color="#8e8e8e"/><stop offset="1" stop-color="#818181"/></linearGradient><linearGradient x1="393.87739" y1="313.09786" x2="350.23848" y2="347.08395" gradientUnits="userSpaceOnUse" id="color-3"><stop offset="0" stop-color="#8e8e8e"/><stop offset="1" stop-color="#818181"/></linearGradient><linearGradient x1="156.45268" y1="323.81476" x2="184.04845" y2="355.85915" gradientUnits="userSpaceOnUse" id="color-4"><stop offset="0" stop-color="#8e8e8e"/><stop offset="1" stop-color="#818181"/></linearGradient><linearGradient x1="73.65431" y1="316.56512" x2="57.95729" y2="366.88268" gradientUnits="userSpaceOnUse" id="color-5"><stop offset="0" stop-color="#8e8e8e"/><stop offset="1" stop-color="#818181"/></linearGradient><radialGradient cx="247.75" cy="145.58722" r="26.5" gradientUnits="userSpaceOnUse" id="color-6"><stop offset="0" stop-color="#ffffa5"/><stop offset="1" stop-color="#ffffa5" stop-opacity="0"/></radialGradient></defs><g transform="translate(0.13878,40.85181)"><g data-paper-data="{&quot;isPaintingLayer&quot;:true}" fill-rule="nonzero" stroke="none" stroke-linecap="butt" stroke-linejoin="miter" stroke-miterlimit="10" stroke-dasharray="" stroke-dashoffset="0" style="mix-blend-mode: normal"><path d="M153.89989,257.18724v-298.03904h252v298.03904z" fill="#ce9d5c" stroke-width="0"/><path d="M194.83227,11.58153c0,0 0,-18.04008 0,-22.33333c0,-1.73958 2.27809,-3.66667 4.66667,-3.66667c6.23398,0 34.41237,0 46,0c3.08981,0 5,2.33716 5,4.33333c0,4.46358 0,21.66667 0,21.66667z" fill="#fbba88" stroke-width="0"/><path d="M200.49894,10.91486c0,0 0,-4.77412 0,-6.66667c0,-1.40355 2.15104,-3.66667 4.33333,-3.66667c5.26165,0 27.49881,0 37,0c2.66928,0 4.33333,2.26312 4.33333,3.66667c0,1.89254 0,6.66667 0,6.66667z" fill="#fff7f6" stroke-width="0"/><path d="M478.16666,224.5539v6h-70v-6z" data-paper-data="{&quot;index&quot;:null}" fill="#b27f44" stroke-width="0"/><g><path d="M101.72864,394.58573l6.62571,-7.86422l17.75867,3.77381l-6.35358,12.029l-12.84665,-0.75551z" data-paper-data="{&quot;origPos&quot;:null,&quot;origRot&quot;:0}" fill="#534c42" stroke-width="0"/><path d="M104.05229,393.72633l5.94617,-7.05764l15.93729,3.38678l-5.70199,10.79525l-11.52911,-0.67802z" data-paper-data="{&quot;origPos&quot;:null,&quot;origRot&quot;:0}" fill="url(#color-1)" stroke-width="NaN"/></g><path d="M0.89133,353.67135v-74.52655c0,0 48.76786,7.45265 86.60049,7.45265c39.88632,0 142.42479,-7.67744 227.84259,-9.4622c92.62797,-1.93542 166.89463,2.00956 166.89463,2.00956v74.52655z" fill="#7c7262" stroke-width="0"/><path d="M0.6022,417.59974v-74.52655c0,0 48.831,7.45265 86.71257,7.45265c39.93794,0 142.6091,-7.67744 228.13738,-9.4622c92.74785,-1.93542 167.11059,2.00956 167.11059,2.00956v74.52655z" fill="#786e5f" stroke-width="0"/><path d="M1.13567,420.25401v-37.05188c0,0 48.66113,3.70519 86.41097,3.70519c39.79903,0 142.11306,-3.81693 227.3439,-4.70428c92.42524,-0.96221 166.52936,0.9991 166.52936,0.9991v37.05188z" fill="#6f6558" stroke-width="0"/><path d="M0.77692,290.69768v-32.95167h483.36185v32.95167z" fill="#949494" stroke-width="0"/><path d="M-0.13878,290.69768v-13.30453h481.88023v13.30453z" fill="#b5b5b5" stroke-width="0"/><g><path d="M294.13309,355.27856l8.93408,-36.16014l54.98058,0.37413l-2.96294,52.24412l-37.30736,7.45925z" data-paper-data="{&quot;origPos&quot;:null,&quot;origRot&quot;:0}" fill="#534c42" stroke-width="0"/><path d="M300.68724,350.02994l8.01778,-32.45141l49.3415,0.33577l-2.65911,46.88573l-33.48095,6.69417z" data-paper-data="{&quot;origPos&quot;:null,&quot;origRot&quot;:0}" fill="url(#color-2)" stroke-width="NaN"/></g><g><path d="M335.28405,332.4962l17.64444,-24.92571l47.29182,11.96112l-16.91976,38.12603l-34.21098,-2.39454z" data-paper-data="{&quot;origPos&quot;:null,&quot;origRot&quot;:0}" fill="#534c42" stroke-width="0"/><path d="M342.15399,330.32844l15.83481,-22.36922l42.44134,10.73433l-15.18447,34.21564l-30.70216,-2.14891z" data-paper-data="{&quot;origPos&quot;:null,&quot;origRot&quot;:0}" fill="url(#color-3)" stroke-width="NaN"/></g><g><path d="M171.47107,365.47787l-21.90216,-13.73023l13.99001,-31.35114l34.12961,14.15045l-4.34492,23.1124z" data-paper-data="{&quot;origRot&quot;:0}" fill="#534c42" stroke-width="0"/><path d="M168.66367,360.20091l-18.93815,-12.32205l12.09667,-28.13558l29.51081,12.69916l-3.75687,20.74185z" data-paper-data="{&quot;origRot&quot;:0}" fill="url(#color-4)" stroke-width="NaN"/></g><g><path d="M36.36994,360.50708l-0.6459,-30.4996l47.51744,-10.22854l9.51264,42.16174l-30.46144,13.08147z" data-paper-data="{&quot;origRot&quot;:0}" fill="#534c42" stroke-width="0"/><path d="M40.63649,355.27453l-0.57965,-27.37144l42.64382,-9.17942l8.53691,37.83744l-27.33717,11.73975z" data-paper-data="{&quot;origRot&quot;:0}" fill="url(#color-5)" stroke-width="NaN"/></g><path d="M155.5,188.80001v-151h18v151z" fill="#916e41" stroke-width="0"/><path d="M225.5,257.80001v-11h15v11z" fill="#6d6d6d" stroke-width="0"/><path d="M308.5,257.80001v-14.85714h84v14.85714z" fill="#916e41" stroke-width="0"/><path d="M390.5,257.80001v-69h17v69z" fill="#916e41" stroke-width="0"/><path d="M160.5,51.88723v-18h116v18z" fill="#916e41" stroke-width="0"/><path d="M395.5,193.88723v-60.64048c2.3799,-0.03732 4.76398,-0.17027 7,-0.26523v60.90571z" fill="#6d6d6d" stroke-width="0"/><path d="M395.5,17.88723h7v47.93795c-2.33115,-0.20944 -4.70012,-0.27704 -7,-0.15992z" fill="#6d6d6d" stroke-width="0"/><path d="M391.5,194.88723v-61.69276c4.71929,0.22971 9.80946,-0.24433 14,-0.30724c0.66547,-0.00999 1.33282,0.00161 2,0.00968v61.99032z" fill="#916e41" stroke-width="0"/><path d="M391.5,-1.11277h16v67.60617c-5.02046,-1.10247 -10.63381,-1.5042 -15.60182,-0.59061c-0.1372,0.02523 -0.26979,0.05021 -0.39818,0.07492z" fill="#916e41" stroke-width="0"/><path d="M154.16216,63.99295v-63.39673h18.01802v63.39673z" fill="#916e41" stroke-width="0"/><path d="M151.5,188.88723v-190h19v190z" fill="#916e41" stroke-width="0"/><path d="M204.5,65.88723v-18h83v18z" fill="#916e41" stroke-width="0"/><path d="M214.5,81.88724v-18h83v18z" fill="#916e41" stroke-width="0"/><path d="M227.5,98.88724v-18h83v18z" fill="#916e41" stroke-width="0"/><path d="M237.5,114.88724v-18h83v18z" fill="#916e41" stroke-width="0"/><path d="M347.5,195.88724v-18h51v18z" data-paper-data="{&quot;index&quot;:null}" fill="#916e41" stroke-width="0"/><path d="M337.5,211.88724v-18h56v18z" data-paper-data="{&quot;index&quot;:null}" fill="#916e41" stroke-width="0"/><path d="M324.5,228.88724v-18h83v18z" data-paper-data="{&quot;index&quot;:null}" fill="#916e41" stroke-width="0"/><path d="M314.5,244.88724v-18h83v18z" data-paper-data="{&quot;index&quot;:null}" fill="#916e41" stroke-width="0"/><path d="M170.5,105.88723v-60h80v60z" fill="#916e41" stroke-width="0"/><path d="M152.49999,257.88723v-15h247v15z" fill="#916e41" stroke-width="0"/><path d="M142.5,257.88723v-9h25v9z" fill="#916e41" stroke-width="0"/><path d="M391.30544,68.35389v-13h16.33333v13z" fill="#916e41" stroke-width="0"/><path d="M391.63877,138.68723v-5.66667h15.66667v5.66667z" fill="#916e41" stroke-width="0"/><path d="M407.5,220.88723v-9h70v9z" fill="#dc9c54" stroke-width="0"/><path d="M407.5,226.88723v-6h70v6z" fill="#b27f44" stroke-width="0"/><path d="M474.5,257.88723v-51h9v51z" fill="#b27f44" stroke-width="0"/><path d="M407.5,257.88723v-51h9v51z" fill="#b27f44" stroke-width="0"/><path d="M154.5,242.90002v-54h19v54z" fill="#b88c53" stroke-width="0"/><path d="M171.5,39.48724v-6h105v6z" fill="#705633" stroke-width="0"/><path d="M276.5,52.23724v-4h10.75v4z" fill="#705633" stroke-width="0"/><path d="M287.25,68.23724v-4h10.25v4z" fill="#705633" stroke-width="0"/><path d="M297.25,84.98724v-4h13.25v4z" fill="#705633" stroke-width="0"/><path d="M310.25,100.98724v-4h10.25v4z" fill="#705633" stroke-width="0"/><path d="M221.25,145.58722c0,-14.63555 11.86445,-26.5 26.5,-26.5c14.63554,0 26.5,11.86445 26.5,26.5c0,14.63555 -11.86446,26.5 -26.5,26.5c-14.63555,0 -26.5,-11.86445 -26.5,-26.5z" fill="url(#color-6)" stroke-width="0"/><path d="M217.25,139.58722v-6.5c0,0 21.46634,-5.5 32,-5.5c10.95018,0 31.5,5.5 31.5,5.5v6.5z" fill="#d9cfc2" stroke-width="0"/><path d="M163.5,127.88723v-23h157v23z" fill="#916e41" stroke-width="0"/><path d="M347.39285,181.80867v-4h43.96429v4z" fill="#705633" stroke-width="0"/><path d="M337.67857,197.95153v-4h10.10715v4z" fill="#705633" stroke-width="0"/><path d="M324.53571,214.95153v-4h12.82143v4z" fill="#705633" stroke-width="0"/><path d="M314.53571,230.80867v-4h9.96429v4z" fill="#705633" stroke-width="0"/><path d="M207.95785,208.64365v-4.33333h87v4.33333z" fill="#e0c8b1" stroke-width="0"/><path d="M207.95785,209.31031v-2.33333h87v2.33333z" fill="#c6b09c" stroke-width="0"/><path d="M212.29118,242.64365v-33.33333h2.66667v33.33333z" fill="#e0c8b1" stroke-width="0"/><path d="M287.95785,242.64365v-33.33333h2.66666v33.33333z" fill="#e0c8b1" stroke-width="0"/><path d="M187.83227,26.2482c0,0 0,-8.87269 0,-11.66667c0,-1.56634 1.69137,-3.66667 3.66667,-3.66667c7.09564,0 49.39769,0 61.66667,0c2.11139,0 3.33333,2.32715 3.33333,4c0,2.81582 0,11.33333 0,11.33333z" fill="#ff8d88" stroke-width="0"/><path d="M187.49894,27.2482v-4.33333h69v4.33333z" fill="#fbba88" stroke-width="0"/><path d="M187.49894,33.2482v-7h5v7z" fill="#fbba88" stroke-width="0"/><path d="M251.49894,33.2482v-7h5v7z" fill="#fbba88" stroke-width="0"/></g></g></svg>