<svg version="1.1" xmlns="http://www.w3.org/2000/svg" xmlns:xlink="http://www.w3.org/1999/xlink" width="73" height="73" viewBox="0,0,73,73"><defs><radialGradient cx="240" cy="180" r="36.5" gradientUnits="userSpaceOnUse" id="color-1"><stop offset="0" stop-color="#5cd2ff"/><stop offset="1" stop-color="#5cd2ff" stop-opacity="0"/></radialGradient><linearGradient x1="237.80871" y1="180.04853" x2="254.52244" y2="180.04853" gradientUnits="userSpaceOnUse" id="color-2"><stop offset="0" stop-color="#84edff"/><stop offset="1" stop-color="#119fff"/></linearGradient><linearGradient x1="225.47755" y1="180.01301" x2="242.00236" y2="180.01301" gradientUnits="userSpaceOnUse" id="color-3"><stop offset="0" stop-color="#84edff"/><stop offset="1" stop-color="#119fff"/></linearGradient><linearGradient x1="230.63709" y1="168.69013" x2="249.16888" y2="168.69013" gradientUnits="userSpaceOnUse" id="color-4"><stop offset="0" stop-color="#84edff"/><stop offset="1" stop-color="#119fff"/></linearGradient><linearGradient x1="225.35656" y1="176.36188" x2="254.15053" y2="176.36188" gradientUnits="userSpaceOnUse" id="color-5"><stop offset="0" stop-color="#84edff"/><stop offset="1" stop-color="#119fff"/></linearGradient><linearGradient x1="243.8883" y1="173.52234" x2="246.17986" y2="173.52234" gradientUnits="userSpaceOnUse" id="color-6"><stop offset="0" stop-color="#84edff"/><stop offset="1" stop-color="#119fff"/></linearGradient><linearGradient x1="235.02096" y1="173.32307" x2="236.81434" y2="173.32307" gradientUnits="userSpaceOnUse" id="color-7"><stop offset="0" stop-color="#84edff"/><stop offset="1" stop-color="#119fff"/></linearGradient></defs><g transform="translate(-203.5,-143.5)"><g data-paper-data="{&quot;isPaintingLayer&quot;:true}" fill-rule="nonzero" stroke-linejoin="miter" stroke-miterlimit="10" stroke-dasharray="" stroke-dashoffset="0" style="mix-blend-mode: normal"><g><path d="M203.5,180c0,-20.15839 16.34161,-36.5 36.5,-36.5c20.15839,0 36.5,16.34161 36.5,36.5c0,20.15839 -16.34161,36.5 -36.5,36.5c-20.15839,0 -36.5,-16.34161 -36.5,-36.5z" fill="url(#color-1)" stroke="none" stroke-width="0" stroke-linecap="butt"/><path d="M237.80871,164.90082c1.88547,0.00258 4.71463,-0.28397 5.04564,-0.16912c2.29773,0.79725 6.42988,2.43918 6.73745,2.80285c1.62489,1.92131 5.64149,6.90225 4.8215,8.26891c-2.6581,4.43016 -13.63521,19.52345 -13.63521,19.52345" data-paper-data="{&quot;index&quot;:null}" fill="url(#color-2)" stroke="#007bef" stroke-width="2" stroke-linecap="round"/><path d="M240.95182,195.4779c0,0 -12.70703,-15.25333 -15.36512,-19.68349c-0.81999,-1.36667 3.19661,-6.34761 4.8215,-8.26892c0.30757,-0.36368 5.44245,-2.20615 7.7402,-3.0034c0.36437,-0.12642 2.39303,0.04641 4.45562,0.04971" fill="url(#color-3)" stroke="#007bef" stroke-width="2" stroke-linecap="round"/><path d="M249.16888,168.09233l-5.3802,1.39486l-7.07396,-0.19926l-6.07763,-1.39487" fill="url(#color-4)" stroke="#007bef" stroke-width="2" stroke-linecap="round"/><path d="M254.15053,175.46519l-7.87102,1.99267l-10.95965,-0.09963l-9.76278,-1.99202" fill="url(#color-5)" stroke="#007bef" stroke-width="2" stroke-linecap="round"/><path d="M246.17986,177.35821l-2.29156,-7.67176" fill="url(#color-6)" stroke="#007bef" stroke-width="2" stroke-linecap="round"/><path d="M236.81438,169.38756l-1.7934,7.87102" fill="url(#color-7)" stroke="#007bef" stroke-width="2" stroke-linecap="round"/></g></g></g></svg>