<svg version="1.1" xmlns="http://www.w3.org/2000/svg" xmlns:xlink="http://www.w3.org/1999/xlink" width="564.86402" height="80.59333" viewBox="0,0,564.86402,80.59333"><defs><linearGradient x1="174.19749" y1="305.92429" x2="206.30256" y2="339.00618" gradientUnits="userSpaceOnUse" id="color-1"><stop offset="0" stop-color="#e7b215"/><stop offset="1" stop-color="#b07e00"/></linearGradient><radialGradient cx="181.21255" cy="309.79222" r="25.84865" gradientUnits="userSpaceOnUse" id="color-2"><stop offset="0" stop-color="#fffd00"/><stop offset="1" stop-color="#ffcf19"/></radialGradient><linearGradient x1="190.24108" y1="310.02556" x2="190.24108" y2="334.03643" gradientUnits="userSpaceOnUse" id="color-3"><stop offset="0" stop-color="#e2ae13"/><stop offset="1" stop-color="#b28001"/></linearGradient></defs><g transform="translate(31.46556,-285.90123)"><g data-paper-data="{&quot;isPaintingLayer&quot;:true}" stroke-miterlimit="10" stroke-dasharray="" stroke-dashoffset="0" style="mix-blend-mode: normal"><path d="M-9.66259,292.60042c25.93304,-8.08184 78.4937,-6.59089 78.4937,-6.59089l354.51678,0.65736c0,0 56.36869,-0.94324 84.48599,6.94793c28.11718,7.89114 25.31007,22.21115 25.31007,22.21115l0.21529,18.14298c0,0 2.09409,17.42214 -24.32461,25.4451c-26.4187,8.02295 -83.42258,6.69296 -83.42258,6.69296l-361.35511,0.38319c0,0 -47.41348,0.4087 -70.77272,-6.68881c-23.35924,-7.09749 -22.85165,-21.75807 -22.85165,-21.75807l-1.81328,-20.86594c0,0 -4.41505,-16.49515 21.51815,-24.57696z" data-paper-data="{&quot;origRot&quot;:0,&quot;index&quot;:null}" fill="#5c5c5c" fill-rule="evenodd" stroke="none" stroke-width="1" stroke-linecap="round" stroke-linejoin="round" opacity="0.42445"/><g fill-rule="nonzero" stroke="none" stroke-width="0" stroke-linecap="butt" stroke-linejoin="miter"><path d="M174.56011,339.38846c-8.86557,-9.13531 -9.02791,-24.11773 -0.36263,-33.46417c8.6653,-9.34644 22.87687,-9.51759 31.74242,-0.38228c8.86557,9.13531 9.02791,24.11773 0.36263,33.46417c-8.6653,9.34644 -22.87687,9.51759 -31.74242,0.38228z" data-paper-data="{&quot;origPos&quot;:null,&quot;origRot&quot;:0}" fill="url(#color-1)"/><path d="M177.71878,335.98151c-7.08077,-7.29621 -7.21042,-19.26239 -0.2896,-26.72722c6.92083,-7.46484 18.27134,-7.60153 25.3521,-0.30532c7.08077,7.29621 7.21042,19.26239 0.28961,26.72722c-6.92083,7.46484 -18.27135,7.60153 -25.3521,0.30532z" data-paper-data="{&quot;origPos&quot;:null,&quot;origRot&quot;:0}" fill="url(#color-2)"/><path d="M186.20794,334.03643v-24.01086h8.06632v24.01086z" data-paper-data="{&quot;origPos&quot;:null}" fill="url(#color-3)"/></g><g fill-rule="nonzero" stroke="none" stroke-linecap="butt" stroke-linejoin="miter"><path d="M358.36687,324.24993c0,12.76739 -10.34972,23.11721 -23.11653,23.11721c-12.7675,0 -23.1172,-10.34982 -23.1172,-23.11721c0,-12.76739 10.3497,-23.11721 23.1172,-23.11721c12.76682,0 23.11653,10.34982 23.11653,23.11721z" fill="#6dd02b" stroke-width="29.91286"/><path d="M354.87803,324.24993c0,10.8401 -8.78766,19.62774 -19.62764,19.62774c-10.84068,0 -19.62774,-8.78764 -19.62774,-19.62774c0,-10.8401 8.78707,-19.62774 19.62774,-19.62774c10.84,0 19.62764,8.78764 19.62764,19.62774z" fill="#bbff8f" stroke-width="29.91286"/><path d="M350.51605,324.24993c0,8.4312 -6.83456,15.26576 -15.26566,15.26576c-8.43178,0 -15.26634,-6.83456 -15.26634,-15.26576c0,-8.4311 6.83456,-15.26634 15.26634,-15.26634c8.4311,0 15.26566,6.83524 15.26566,15.26634z" fill="#6dd02b" stroke-width="29.91286"/><path d="M335.22332,335.05336l-6.83695,-10.69422l6.83695,-10.69422l6.83695,10.69422z" fill="#bbff8f" stroke-width="0"/></g><g fill-rule="nonzero" stroke-linecap="round" stroke-linejoin="miter"><path d="M25.3012,319.80431l17.86031,18.68717l-21.00241,-19.84479" fill="none" stroke="#00bcff" stroke-width="2.5"/><path d="M37.86957,328.40373l-8.59941,-8.76479" fill="none" stroke="#00bcff" stroke-width="2.5"/><path d="M54.73764,323.11178l2.64597,-3.30747" fill="none" stroke="#00bcff" stroke-width="2.5"/><path d="M60.19497,319.63894l-16.53733,16.86807l-17.3642,-17.52957" fill="none" stroke="#00bcff" stroke-width="2.5"/><path d="M49.4457,330.88432l6.28418,-11.41076l7.4418,0.16537l-20.34092,18.19107" fill="none" stroke="#00bcff" stroke-width="2.5"/><path d="M31.42002,319.96969l4.13432,2.97672" fill="none" stroke="#00bcff" stroke-width="2.5"/><path d="M34.89285,319.63894l-10.91463,-0.99224" fill="none" stroke="#00bcff" stroke-width="2.5"/><path d="M53.42646,319.80431l-10.71619,19.64635l-8.73171,-20.24169z" fill="#0889ff" stroke="#0889ff" stroke-width="2.5"/><path d="M30.92389,310.62611h24.30988l5.54,5.54h-35.80331z" fill="#00bcff" stroke="#00bcff" stroke-width="2.5"/><path d="M64.49465,317.73715h-44.65078" fill="none" stroke="#42deff" stroke-width="2.5"/><path d="M28.93941,307.73206h26.54241" fill="none" stroke="#cdffff" stroke-width="5"/><path d="M21.91105,317.57178l8.6821,-8.6821l6.28418,1.32299h20.34092l7.85524,8.35135" fill="none" stroke="#42deff" stroke-width="2.5"/><path d="M66.43779,318.77073l-23.8551,23.8551l-24.64062,-24.64062" fill="none" stroke="#42deff" stroke-width="5"/><path d="M18.68626,315.75268l10.33583,-10.33582h27.03852l12.32031,12.3203" data-paper-data="{&quot;index&quot;:null}" fill="none" stroke="#cdffff" stroke-width="5"/><path d="M71.02691,316.82761l-28.77495,28.77495l-28.27883,-28.27883l14.05673,-14.05673h28.77495z" data-paper-data="{&quot;index&quot;:null}" fill="none" stroke="#000000" stroke-width="3.5"/></g></g></g></svg>