<svg version="1.1" xmlns="http://www.w3.org/2000/svg" xmlns:xlink="http://www.w3.org/1999/xlink" width="195.4281" height="217.53674" viewBox="0,0,195.4281,217.53674"><g transform="translate(-28.95935,-120.35466)"><g data-paper-data="{&quot;isPaintingLayer&quot;:true}" stroke-miterlimit="10" stroke-dasharray="" stroke-dashoffset="0" style="mix-blend-mode: normal"><path d="M199.32164,314.7842c4.0627,0.45285 3.28434,1.36727 3.28434,1.36727l-0.51476,19.88899c0,0 1.03005,0.98137 -2.96369,1.46917c-3.99373,0.4878 -12.0862,0.36904 -12.0862,0.36904l-141.20733,-0.13327c0,0 -8.78816,0.0665 -12.82091,-0.39477c-4.03275,-0.46129 -3.33334,-1.45306 -3.33334,-1.45306l-0.01139,-19.84115c0,0 -0.18224,-0.82519 3.40884,-1.23035c3.59108,-0.40516 10.98428,-0.39351 10.98428,-0.39351l142.87657,-0.02755c0,0 8.32087,-0.07368 12.38355,0.37918z" data-paper-data="{&quot;origRot&quot;:0,&quot;index&quot;:null}" fill="#0085ff" fill-rule="evenodd" stroke="none" stroke-width="1" stroke-linecap="round" stroke-linejoin="round" opacity="0.42445"/><text transform="translate(31.19733,330.87889) scale(0.39653,0.39653)" font-size="40" xml:space="preserve" fill="#ffffff" fill-rule="nonzero" stroke="#ffffff" stroke-width="3" stroke-linecap="butt" stroke-linejoin="miter" stroke-miterlimit="10" stroke-dasharray="" stroke-dashoffset="0" font-family="Sans Serif" font-weight="normal" text-anchor="start" style="mix-blend-mode: normal"><tspan x="0" dy="0">Space or click To Close</tspan></text><path d="M220.61054,123.51167c4.58854,3.72669 3.70944,11.25166 3.70944,11.25166l-0.58139,163.67312c0,0 1.16337,8.07599 -3.34729,12.09027c-4.51064,4.01428 -13.65052,3.03701 -13.65052,3.03701l-159.48394,-1.0967c0,0 -9.92563,0.54737 -14.48033,-3.24878c-4.5547,-3.79615 -3.76477,-11.9577 -3.76477,-11.9577l-0.01285,-163.27934c0,0 -0.20583,-6.79082 3.85005,-10.12496c4.05588,-3.33412 12.40599,-3.23829 12.40599,-3.23829l161.36923,-0.22676c0,0 9.39785,-0.60625 13.98637,3.12044z" data-paper-data="{&quot;origRot&quot;:0,&quot;index&quot;:null}" fill="#0085ff" fill-rule="evenodd" stroke="none" stroke-width="1" stroke-linecap="round" stroke-linejoin="round" opacity="0.42445"/><text transform="translate(30.1777,141.04924) scale(0.35927,0.35927)" font-size="40" xml:space="preserve" fill="#ffffff" fill-rule="nonzero" stroke="#ffffff" stroke-width="3" stroke-linecap="butt" stroke-linejoin="miter" stroke-miterlimit="10" stroke-dasharray="" stroke-dashoffset="0" font-family="Sans Serif" font-weight="normal" text-anchor="start" style="mix-blend-mode: normal"><tspan x="0" dy="0">[1] Hi!</tspan><tspan x="0" dy="46.150000000000006px">[2] Did you finish the game?</tspan><tspan x="0" dy="46.150000000000006px">[3] Yes</tspan><tspan x="0" dy="46.150000000000006px">[4] Help please!</tspan><tspan x="0" dy="46.150000000000006px">[5] No</tspan><tspan x="0" dy="46.150000000000006px">[6] This Way!</tspan><tspan x="0" dy="46.150000000000006px">[7] Lol!</tspan><tspan x="0" dy="46.150000000000006px">[8] I Am Lagging :(</tspan><tspan x="0" dy="46.150000000000006px">[9] Got to go!</tspan><tspan x="0" dy="46.150000000000006px">[0] (No longer available)</tspan><tspan x="0" dy="46.150000000000006px"> custom chat</tspan></text></g></g></svg>