<svg version="1.1" xmlns="http://www.w3.org/2000/svg" xmlns:xlink="http://www.w3.org/1999/xlink" width="53" height="161.24307" viewBox="0,0,53,161.24307"><g transform="translate(-18.5,-58.05693)"><g data-paper-data="{&quot;isPaintingLayer&quot;:true}" fill-rule="nonzero" stroke-linecap="butt" stroke-linejoin="miter" stroke-miterlimit="10" stroke-dasharray="" stroke-dashoffset="0" style="mix-blend-mode: normal"><path d="M18.5,209.63334c0,-30.32083 0,-124.72099 0,-141.33333c0,-4.82574 4.24846,-10 8,-10c6.08309,0 24.88224,0 36.16667,0c5.22099,0 8.83333,5.76845 8.83333,12c0,18.06903 0,107.29335 0,138.33333c0,6.68117 -5.39576,10.66667 -9.83333,10.66667c-6.06367,0 -22.57848,0 -33.33333,0c-5.73583,0 -9.83333,-3.7903 -9.83333,-9.66667z" fill="#ffffff" stroke="none" stroke-width="0"/><g stroke="none"><path d="M25.12613,136.65436c0,-8.15489 0,-27.03039 0,-32c0,-2.33906 2.51959,-4.7925 4.87387,-4.7925c4.58253,0 20.84931,0 29,0c2.86462,0 4.72673,1.87864 4.72673,3.7925c0,4.66663 0,24.57482 0,33c0,2.33668 -1.66708,3.79008 -3.39339,3.79008c-4.25504,0 -22.61389,0 -31,0c-2.57301,0 -4.20721,-1.45587 -4.20721,-3.79008z" fill="#d1d1d1" stroke-width="0"/><text transform="translate(31.5,127.32102) scale(0.5,0.5)" font-size="40" xml:space="preserve" fill="#000000" fill-rule="nonzero" stroke="none" stroke-width="1" stroke-linecap="butt" stroke-linejoin="miter" stroke-miterlimit="10" stroke-dasharray="" stroke-dashoffset="0" font-family="Sans Serif" font-weight="normal" text-anchor="start" style="mix-blend-mode: normal"><tspan x="0" dy="0">on</tspan></text></g><g stroke="none"><path d="M26.12613,187.63033c0,-8.15489 0,-27.03039 0,-32c0,-2.33906 2.51959,-4.79249 4.87388,-4.79249c4.58254,0 20.84931,0 29,0c2.86462,0 4.72673,1.87864 4.72673,3.79249c0,4.66663 0,24.57483 0,33c0,2.33668 -1.66707,3.79009 -3.39339,3.79009c-4.25505,0 -22.61389,0 -31,0c-2.57301,0 -4.20721,-1.45587 -4.20721,-3.79009z" fill="#d1d1d1" stroke-width="0"/><text transform="translate(32.83333,177.96367) scale(0.5,0.5)" font-size="40" xml:space="preserve" fill="#000000" fill-rule="nonzero" stroke="none" stroke-width="1" stroke-linecap="butt" stroke-linejoin="miter" stroke-miterlimit="10" stroke-dasharray="" stroke-dashoffset="0" font-family="Sans Serif" font-weight="normal" text-anchor="start" style="mix-blend-mode: normal"><tspan x="0" dy="0">off</tspan></text></g><text transform="translate(25,74.98977) scale(0.3901,0.3901)" font-size="40" xml:space="preserve" fill="#000000" fill-rule="nonzero" stroke="#d1d1d1" stroke-width="2" stroke-linecap="butt" stroke-linejoin="miter" stroke-miterlimit="10" stroke-dasharray="" stroke-dashoffset="0" font-family="Sans Serif" font-weight="normal" text-anchor="start" style="mix-blend-mode: normal"><tspan x="0" dy="0">God</tspan><tspan x="0" dy="46.15px">mode</tspan></text></g></g></svg>