<svg version="1.1" xmlns="http://www.w3.org/2000/svg" xmlns:xlink="http://www.w3.org/1999/xlink" width="498.74498" height="479.47984" viewBox="0,0,498.74498,479.47984"><defs><linearGradient x1="95.79185" y1="391.29297" x2="79.10109" y2="402.01581" gradientUnits="userSpaceOnUse" id="color-1"><stop offset="0" stop-color="#8e8e8e"/><stop offset="1" stop-color="#818181"/></linearGradient><linearGradient x1="325.3708" y1="316.00093" x2="291.76484" y2="371.26726" gradientUnits="userSpaceOnUse" id="color-2"><stop offset="0" stop-color="#8e8e8e"/><stop offset="1" stop-color="#818181"/></linearGradient><linearGradient x1="371.20545" y1="316.10087" x2="326.75777" y2="350.08696" gradientUnits="userSpaceOnUse" id="color-3"><stop offset="0" stop-color="#8e8e8e"/><stop offset="1" stop-color="#818181"/></linearGradient><linearGradient x1="129.38055" y1="326.81778" x2="157.48774" y2="358.86216" gradientUnits="userSpaceOnUse" id="color-4"><stop offset="0" stop-color="#8e8e8e"/><stop offset="1" stop-color="#818181"/></linearGradient><linearGradient x1="45.04766" y1="319.56813" x2="29.05973" y2="369.88569" gradientUnits="userSpaceOnUse" id="color-5"><stop offset="0" stop-color="#8e8e8e"/><stop offset="1" stop-color="#818181"/></linearGradient></defs><g transform="translate(34.11661,56.22281)"><g data-paper-data="{&quot;isPaintingLayer&quot;:true}" fill-rule="nonzero" stroke="none" stroke-linecap="butt" stroke-linejoin="miter" stroke-miterlimit="10" stroke-dasharray="" stroke-dashoffset="0" style="mix-blend-mode: normal"><path d="M204.1917,259.80001v-109h15v109z" fill="#d88c09" stroke-width="0"/><g><path d="M71.59254,397.58874l6.7485,-7.86422l18.08779,3.77381l-6.47133,12.029l-13.08474,-0.75551z" data-paper-data="{&quot;origPos&quot;:null,&quot;origRot&quot;:0}" fill="#534c42" stroke-width="0"/><path d="M73.95926,396.72934l6.05638,-7.05764l16.23265,3.38678l-5.80766,10.79525l-11.74278,-0.67802z" data-paper-data="{&quot;origPos&quot;:null,&quot;origRot&quot;:0}" fill="url(#color-1)" stroke-width="NaN"/></g><path d="M-34.1166,361.17886l3.00301,-79.03105c0,0 49.67168,7.45265 88.20546,7.45265c40.62553,0 145.06435,-7.67744 232.0652,-9.4622c94.34465,-1.93542 169.98769,2.00956 169.98769,2.00956v74.52655z" fill="#9a8a7e" stroke-width="0"/><path d="M-31.40808,420.60275v-74.52655c0,0 49.73598,7.45265 88.31962,7.45265c40.67812,0 145.25207,-7.67744 232.36545,-9.4622c94.46674,-1.93542 170.20766,2.00956 170.20766,2.00956v74.52655z" fill="#887c6d" stroke-width="0"/><path d="M-30.86472,423.25702v-37.05188c0,0 49.56297,3.70519 88.01242,3.70519c40.53663,0 144.74684,-3.81693 231.55726,-4.70428c94.13816,-0.96221 169.61565,0.9991 169.61565,0.9991v37.05188z" fill="#807566" stroke-width="0"/><path d="M-30.20525,293.7007v-32.95167c0,0 220.11014,-34 304.39696,-34c79.54515,0 189.92305,-4 189.92305,-4l-2,70.95167z" fill="#efb95a" stroke-width="0"/><path d="M-32.1628,293.7007v-13.30453c0,0 213.93706,-33 302.35451,-33c60.73415,0 165.98055,-12.27024 192.92628,-5.05582c4.83035,1.29327 -3.46987,38.05582 -3.46987,38.05582l1,14.30453z" fill="#dfac55" stroke-width="0"/><g><path d="M267.56282,358.28157l9.09965,-36.16014l55.99953,0.37413l-3.01785,52.24412l-37.99878,7.45925z" data-paper-data="{&quot;origPos&quot;:null,&quot;origRot&quot;:0}" fill="#534c42" stroke-width="0"/><path d="M274.23845,353.03295l8.16637,-32.45141l50.25595,0.33577l-2.70838,46.88573l-34.10145,6.69417z" data-paper-data="{&quot;origPos&quot;:null,&quot;origRot&quot;:0}" fill="url(#color-2)" stroke-width="NaN"/></g><g><path d="M309.47643,335.49922l17.97144,-24.92571l48.16827,11.96112l-17.23333,38.12603l-34.84501,-2.39454z" data-paper-data="{&quot;origPos&quot;:null,&quot;origRot&quot;:0}" fill="#534c42" stroke-width="0"/><path d="M316.47369,333.33145l16.12827,-22.36922l43.22791,10.73433l-15.46588,34.21564l-31.27116,-2.14891z" data-paper-data="{&quot;origPos&quot;:null,&quot;origRot&quot;:0}" fill="url(#color-3)" stroke-width="NaN"/></g><g><path d="M142.62749,368.48088l-22.30807,-13.73023l14.24929,-31.35114l34.76214,14.15045l-4.42545,23.1124z" data-paper-data="{&quot;origRot&quot;:0}" fill="#534c42" stroke-width="0"/><path d="M139.76807,363.20392l-19.28913,-12.32205l12.32086,-28.13558l30.05773,12.69916l-3.82649,20.74185z" data-paper-data="{&quot;origRot&quot;:0}" fill="url(#color-4)" stroke-width="NaN"/></g><g><path d="M5.02255,363.51009l-0.65787,-30.4996l48.39808,-10.22854l9.68894,42.16174l-31.02598,13.08147z" data-paper-data="{&quot;origRot&quot;:0}" fill="#534c42" stroke-width="0"/><path d="M9.36816,358.27754l-0.59039,-27.37144l43.43414,-9.17942l8.69512,37.83744l-27.84381,11.73975z" data-paper-data="{&quot;origRot&quot;:0}" fill="url(#color-5)" stroke-width="NaN"/></g><path d="M398.1917,224.80001v-78h15v78z" fill="#d88c09" stroke-width="0"/><path d="M332.1917,225.80001v-78h15v78z" fill="#d88c09" stroke-width="0"/><path d="M270.1917,227.80001v-78h15v78z" fill="#d88c09" stroke-width="0"/><path d="M189.1917,155.80001v-11h235v11z" fill="#ce8508" stroke-width="0"/><path d="M189.6917,151.80001v-7h234v7z" fill="#b07207" stroke-width="0"/><path d="M207,110.9v-108.5h11.5v108.5z" fill="#d88c09" stroke-width="0"/><path d="M400.5,110.9v-155.04655h11.5v155.04655z" fill="#d88c09" stroke-width="0"/><g stroke-width="0"><path d="M191.23393,9.46546l-2.57417,-10.69456l228.47471,-54.99371l2.57417,10.69456z" fill="#ce8508"/><path d="M190.78398,5.45952l-1.63811,-6.80563l227.50247,-54.75969l1.63811,6.80563z" fill="#b07207"/></g></g></g></svg>