<svg version="1.1" xmlns="http://www.w3.org/2000/svg" xmlns:xlink="http://www.w3.org/1999/xlink" width="42.5" height="52" viewBox="0,0,42.5,52"><defs><radialGradient cx="240" cy="180" r="26" gradientUnits="userSpaceOnUse" id="color-1"><stop offset="0" stop-color="#ffeb52"/><stop offset="1" stop-color="#ffeb52" stop-opacity="0"/></radialGradient></defs><g transform="translate(-218.75,-154)"><g data-paper-data="{&quot;isPaintingLayer&quot;:true}" fill-rule="nonzero" stroke-linejoin="miter" stroke-miterlimit="10" stroke-dasharray="" stroke-dashoffset="0" style="mix-blend-mode: normal"><path d="M261.25,180c0,14.35941 -9.51395,26 -21.25,26c-11.73605,0 -21.25,-11.64059 -21.25,-26c0,-14.35941 9.51395,-26 21.25,-26c11.73605,0 21.25,11.64059 21.25,26z" fill="url(#color-1)" stroke="none" stroke-width="0" stroke-linecap="butt"/><path d="M250.375,180c0,7.24874 -4.64505,13.125 -10.375,13.125c-5.72995,0 -10.375,-5.87626 -10.375,-13.125c0,-7.24874 4.64505,-13.125 10.375,-13.125c5.72995,0 10.375,5.87626 10.375,13.125z" fill="#ffeb52" stroke="#ffb759" stroke-width="1.5" stroke-linecap="butt"/><path d="M239.875,176.125l0.25,7.75" fill="none" stroke="#ffa42c" stroke-width="2" stroke-linecap="round"/></g></g></svg>