<svg version="1.1" xmlns="http://www.w3.org/2000/svg" xmlns:xlink="http://www.w3.org/1999/xlink" width="178.5" height="162.10344" viewBox="0,0,178.5,162.10344"><defs><linearGradient x1="241.82321" y1="130.91357" x2="241.82321" y2="173.65236" gradientUnits="userSpaceOnUse" id="color-1"><stop offset="0" stop-color="#3182d8"/><stop offset="1" stop-color="#1e5084"/></linearGradient><linearGradient x1="241.82321" y1="144.16497" x2="241.82321" y2="160.40096" gradientUnits="userSpaceOnUse" id="color-2"><stop offset="0" stop-color="#307fd4"/><stop offset="1" stop-color="#1f5186"/></linearGradient></defs><g transform="translate(-152.75324,-43.28591)"><g data-paper-data="{&quot;isPaintingLayer&quot;:true}" stroke="none" stroke-miterlimit="10" stroke-dasharray="" stroke-dashoffset="0" style="mix-blend-mode: normal"><g><g><g><path d="M205.84524,183.06093v-69.83604h66.31717v69.83604z" fill="none" fill-rule="nonzero" stroke-width="0" stroke-linecap="butt" stroke-linejoin="miter"/><path d="M205.84524,183.06093v-69.83604h66.31717v69.83604z" fill="none" fill-rule="nonzero" stroke-width="0" stroke-linecap="butt" stroke-linejoin="miter"/><path d="M229.41543,130.91357h24.81559c5.21147,0 9.43595,4.09335 9.43595,9.14309v24.4526c0,5.04936 -4.22446,9.14309 -9.43595,9.14309h-24.81559c-5.21135,0 -9.43603,-4.09375 -9.43603,-9.14309v-24.4526c0,-5.04973 4.22467,-9.14309 9.43603,-9.14309z" fill="url(#color-1)" fill-rule="evenodd" stroke-width="14" stroke-linecap="round" stroke-linejoin="round"/><path d="M226.99559,152.28296c0,-8.38838 6.80012,-15.1885 15.1885,-15.1885c8.38838,0 15.1885,6.80012 15.1885,15.1885c0,8.38838 -6.80012,15.1885 -15.1885,15.1885c-8.38838,0 -15.1885,-6.80012 -15.1885,-15.1885z" fill="#ffffff" fill-rule="nonzero" stroke-width="0" stroke-linecap="butt" stroke-linejoin="miter"/><path d="M233.70519,152.28296c0,-4.48345 3.63455,-8.11799 8.11799,-8.11799c4.48345,0 8.11799,3.63455 8.11799,8.11799c0,4.48345 -3.63455,8.11799 -8.11799,8.11799c-4.48345,0 -8.11799,-3.63455 -8.11799,-8.11799z" fill="url(#color-2)" fill-rule="nonzero" stroke-width="0" stroke-linecap="butt" stroke-linejoin="miter"/><path d="M241.30772,150.18473c0,-1.76998 1.43485,-3.20482 3.20482,-3.20482c1.76998,0 3.20482,1.43485 3.20482,3.20482c0,1.76998 -1.43485,3.20482 -3.20482,3.20482c-1.76998,0 -3.20482,-1.43485 -3.20482,-3.20482z" fill="#ffffff" fill-rule="nonzero" stroke-width="0" stroke-linecap="butt" stroke-linejoin="miter"/></g><path d="M307.17917,205.38935v-119.62989h12.37323v119.62989z" fill="#b69940" fill-rule="nonzero" stroke-width="0" stroke-linecap="butt" stroke-linejoin="miter"/><path d="M163.17917,204.38935v-116.6299h12.37323v116.6299z" fill="#b69940" fill-rule="nonzero" stroke-width="0" stroke-linecap="butt" stroke-linejoin="miter"/><path d="M175.15327,205.18762v-34.72488h132.71506v34.72488z" fill="#ecc653" fill-rule="nonzero" stroke-width="0" stroke-linecap="butt" stroke-linejoin="miter"/><path d="M199.12724,193.35988v-98.71977h93.74552v98.71977z" fill="none" fill-rule="nonzero" stroke-width="0" stroke-linecap="butt" stroke-linejoin="miter"/><path d="M199.12724,193.35988v-98.71977h93.74552v98.71977z" fill="none" fill-rule="nonzero" stroke-width="0" stroke-linecap="butt" stroke-linejoin="miter"/><path d="M170.36363,172.05929v-11.57496h143.7857v11.57496z" fill="#d1af49" fill-rule="nonzero" stroke-width="0" stroke-linecap="butt" stroke-linejoin="miter"/><path d="M152.75324,91.78591v-48.5h36v48.5c0,0 -13.27131,8 -19.5,8c-5.72957,0 -16.5,-8 -16.5,-8z" fill="#ff3b3b" fill-rule="nonzero" stroke-width="0" stroke-linecap="butt" stroke-linejoin="miter"/><path d="M187.25324,91.78591v-48.5h36v48.5c0,0 -13.27131,8 -19.5,8c-5.72957,0 -16.5,-8 -16.5,-8z" fill="#ffffff" fill-rule="nonzero" stroke-width="0" stroke-linecap="butt" stroke-linejoin="miter"/><path d="M224.25324,91.78591v-48.5h36v48.5c0,0 -13.27131,8 -19.5,8c-5.72957,0 -16.5,-8 -16.5,-8z" fill="#ff3b3b" fill-rule="nonzero" stroke-width="0" stroke-linecap="butt" stroke-linejoin="miter"/><path d="M258.75324,91.78591v-48.5h36v48.5c0,0 -13.2713,8 -19.5,8c-5.72956,0 -16.5,-8 -16.5,-8z" fill="#ffffff" fill-rule="nonzero" stroke-width="0" stroke-linecap="butt" stroke-linejoin="miter"/><path d="M295.25324,92.78591v-48.5h36v48.5c0,0 -13.2713,8 -19.5,8c-5.72956,0 -16.5,-8 -16.5,-8z" fill="#ff3b3b" fill-rule="nonzero" stroke-width="0" stroke-linecap="butt" stroke-linejoin="miter"/></g><text transform="translate(233.5,194.42481) scale(0.58741,0.58741)" font-size="40" xml:space="preserve" fill="#b69940" fill-rule="nonzero" stroke="none" stroke-width="1" stroke-linecap="butt" stroke-linejoin="miter" stroke-miterlimit="10" stroke-dasharray="" stroke-dashoffset="0" font-family="Sans Serif" font-weight="normal" text-anchor="start" style="mix-blend-mode: normal"><tspan x="0" dy="0">$</tspan></text></g></g></g></svg>