<svg version="1.1" xmlns="http://www.w3.org/2000/svg" xmlns:xlink="http://www.w3.org/1999/xlink" width="504.89783" height="369.81727" viewBox="0,0,504.89783,369.81727"><defs><linearGradient x1="243.95495" y1="-2.07793" x2="243.95495" y2="372.90409" gradientUnits="userSpaceOnUse" id="color-1"><stop offset="0" stop-color="#b2e9ff"/><stop offset="1" stop-color="#c7f0ff"/></linearGradient><linearGradient x1="239.55109" y1="-4.90865" x2="239.55109" y2="159.09137" gradientUnits="userSpaceOnUse" id="color-2"><stop offset="0" stop-color="#9ae4ff"/><stop offset="1" stop-color="#9ae4ff" stop-opacity="0"/></linearGradient><linearGradient x1="101.30339" y1="191.24762" x2="101.30339" y2="362.01476" gradientUnits="userSpaceOnUse" id="color-3"><stop offset="0" stop-color="#95e3ff"/><stop offset="1" stop-color="#c0edff"/></linearGradient><linearGradient x1="325.36726" y1="148.88348" x2="325.36726" y2="333.263" gradientUnits="userSpaceOnUse" id="color-4"><stop offset="0" stop-color="#83deff"/><stop offset="1" stop-color="#afe8ff"/></linearGradient></defs><g transform="translate(12.44892,4.90863)"><g data-paper-data="{&quot;isPaintingLayer&quot;:true}" stroke="none" stroke-miterlimit="10" stroke-dasharray="" stroke-dashoffset="0" style="mix-blend-mode: normal"><g fill-rule="nonzero" stroke-width="0" stroke-linecap="butt" stroke-linejoin="miter"><path d="M-9.54506,-2.07793h496.90396c-0.11019,0.48613 -0.18496,0.98569 -0.22146,1.49585c-0.00598,0.25011 -0.01298,0.49322 -0.02581,0.72408c-0.64604,11.62481 0.43845,30.11007 0.63427,41.22757c0.04821,2.73718 1.89531,5.27012 1.90281,7.96717c0.10452,37.58736 0.18791,75.17549 0,112.76252c-0.04585,9.17148 -1.26966,18.39249 -1.87336,27.55688c-0.27447,4.16665 0.17952,9.56987 -0.02946,12.98892c-0.40611,6.64447 -1.8707,13.42052 -1.90281,20.12583c-0.07898,16.49084 -0.12598,32.98254 0,49.47309c0.05043,6.60058 2.29622,13.48309 2.53708,20.21623c0.33713,9.42443 0.71032,17.49943 1.99671,26.81919c1.84857,13.39269 2.14333,26.57507 2.05938,39.85143c-14.91862,-0.05554 -29.84001,0.17589 -44.75922,0.15651c-2.07461,-0.0027 -6.25184,-2.08548 -8.28401,-2.53708c-1.11921,-0.24872 -3.75558,0.04008 -4.08397,0c-5.74834,-0.70153 -11.37876,-2.17687 -17.10577,-3.03529c-16.33738,-2.44882 -32.00192,0.79818 -47.99883,3.12301c-0.96437,0.14015 -2.02507,0.33105 -3.14571,0.55969c-1.34221,-0.7568 -2.63555,-1.38166 -3.6636,-1.63867c-9.9585,-2.48963 -23.72318,-1.25584 -34.39741,1.41272c-2.23665,0.55916 -7.29166,4.52659 -9.02108,4.65271c-0.0068,0.0005 -0.0136,0.00099 -0.0204,0.00148c-2.85856,-0.36544 -5.91233,-0.26863 -8.62184,-0.46119c-12.99873,-0.92379 -26.44616,-1.12607 -39.99634,-1.03991c-3.52664,-1.09418 -7.43972,-2.23005 -10.80929,-2.30601c-19.64577,-0.44285 -38.29375,1.34556 -58.39036,0.63427c-5.70016,-0.20175 -9.45878,-3.83215 -15.11084,-0.65281c-0.00618,0.00348 -0.01236,0.00697 -0.01852,0.01047c-1.39057,-0.32735 -2.74305,-0.65989 -4.0403,-0.9869c-1.84288,-0.46455 -4.68385,-1.52396 -6.79793,-1.54211c-13.05304,-0.11205 -26.15861,-1.09839 -39.16054,0.06116c-3.18029,0.28363 -6.60862,1.38009 -9.88684,2.47592h-5.42347l-1.15046,-0.16435l-0.79652,-0.68273l-0.68495,-0.34247l-0.05573,-0.09753l-0.27864,-0.06966l-0.24922,-0.12462l-0.49498,-0.10999l-0.05697,-0.03418l-0.04349,0.01186l-1.64758,-0.36613l-0.42921,-0.1073l-0.05853,-0.03902l-0.37891,-0.13532l-0.1681,-0.29417l-2.1853,-0.54633l-2.12133,-0.75762l-0.30304,0.15152l-0.39033,-0.09758h-28.54217l-5,1.25l-0.03681,0.06442c-5.79667,-0.40621 -12.4239,-0.66028 -15.89411,-0.68015c-13.7423,-0.07868 -27.48517,-0.05722 -41.22757,0c-5.90849,0.0246 -11.90725,1.78337 -17.83597,1.90281c-3.16346,0.06373 -6.46292,-0.30015 -9.75808,-0.62586c-0.0529,-1.59783 -0.11961,-3.19402 -0.20283,-4.78814c-0.1148,-2.19904 -0.64487,-4.9399 -1.2542,-7.62933z" data-paper-data="{&quot;index&quot;:null}" fill="url(#color-1)"/><path d="M-12.44891,159.09137v-164h504v164z" fill="url(#color-2)"/><path d="M27.6852,277.41837c22.90254,-34.11705 49.46667,-86.27483 84.92808,-86.1706c37.06247,0.10141 61.59114,51.76439 82.94961,82.23303c20.44738,31.32072 55.477,88.53391 55.477,88.53391l-247.97756,-0.00001c-0.0457,-3.90079 -0.15048,-7.79578 -0.35317,-11.67842c-0.24314,-4.65747 -2.34907,-11.74535 -3.12552,-15.62762c-0.69738,-3.48691 -1.41309,-6.96129 -2.14695,-10.42591c9.5478,-15.19074 20.59342,-32.48154 30.24852,-46.86437z" fill="url(#color-3)"/><path d="M168.14657,362.07156c0,0 48.80779,-83.3117 74.53212,-120.14837c25.72431,-36.83665 55.56138,-91.43904 95.39194,-91.32649c41.62887,0.10949 69.1797,54.17762 93.1697,87.07504c13.09124,19.27627 36.14891,57.99906 53.55757,87.73583c-0.15074,0.89398 -0.29486,1.78815 -0.43129,2.68248c-1.54764,10.14491 -2.21468,20.53671 -3.29418,30.74293c-0.21379,2.0213 -0.44581,4.04685 -0.68845,6.07566z" fill="url(#color-4)"/></g><path d="M161.28415,112.28208h179.43211c9.30934,0 16.85629,7.64054 16.85629,17.06524v73.839c0,9.42472 -7.54695,17.0652 -16.85629,17.0652h-179.43211c-9.30967,0 -16.85669,-7.64049 -16.85669,-17.0652v-73.83899c0,-9.42472 7.54703,-17.06524 16.85669,-17.06524z" fill="#ffffff" fill-rule="evenodd" stroke-width="1" stroke-linecap="round" stroke-linejoin="round"/><path d="M172.64225,133.45684c0,0.60207 -0.40941,1.03556 -1.13188,1.5172c-1.08372,0.74657 -2.48052,1.20415 -4.19037,1.20415c-4.23852,0 -8.47705,-3.51558 -8.47705,-8.59745c0,-5.08142 4.23852,-8.597 8.47705,-8.597c1.70986,0 3.10668,0.45711 4.19037,1.20366c0.72247,0.48211 1.13188,0.91513 1.13188,1.51766c0,0.74611 -0.57798,1.17958 -1.20413,1.17958c-0.50573,0 -0.84288,-0.24081 -1.15594,-0.48117c-0.52981,-0.40941 -1.58945,-0.93968 -2.93807,-0.93968c-3.01033,0 -5.77982,2.60092 -5.77982,6.11696c0,3.51652 2.7695,6.11696 5.77982,6.11696c1.34862,0 2.40824,-0.52983 2.93807,-0.93922c0.31307,-0.24083 0.65022,-0.48166 1.15594,-0.48166c0.62615,0 1.20413,0.43347 1.20413,1.18005z" fill="#000000" fill-rule="evenodd" stroke-width="1" stroke-linecap="round" stroke-linejoin="round"/><path d="M176.20647,136.13045c-0.6984,0 -1.27637,-0.57843 -1.27637,-1.27637v-14.76307c0,-0.69792 0.57798,-1.27637 1.27637,-1.27637c0.6984,0 1.27637,0.57845 1.27637,1.27637v14.76308c0,0.69794 -0.57798,1.27637 -1.27637,1.27637z" fill="#000000" fill-rule="evenodd" stroke-width="1" stroke-linecap="round" stroke-linejoin="round"/><path d="M192.58259,129.7722c0,4.31123 -3.58831,6.40596 -6.35782,6.40596c-2.7695,0 -6.33372,-2.09473 -6.33372,-6.40596c0,-4.28669 3.56422,-6.43004 6.33372,-6.43004c2.7695,0 6.35782,2.14335 6.35782,6.43004zM182.41973,129.7722c0,2.72133 1.9507,4.19037 3.80505,4.19037c1.87842,0 3.82912,-1.46904 3.82912,-4.19037c0,-2.74539 -1.95069,-4.21446 -3.82912,-4.21446c-1.85437,0 -3.80505,1.46903 -3.80505,4.21446z" fill="#000000" fill-rule="evenodd" stroke-width="1" stroke-linecap="round" stroke-linejoin="round"/><g fill-rule="nonzero" stroke-linecap="butt" stroke-linejoin="miter"><path d="M278.47805,197.14845c0,5.44131 -2.58232,9.86812 -8.02364,10.7904h-41.0404c-5.44131,-0.92226 -8.02364,-5.34908 -8.02364,-10.88262c0,-4.15015 2.67455,-7.83918 6.36357,-9.22256c-0.27669,-0.55336 0.83003,-0.55337 0.83003,-1.19895c0,-2.1212 0.46113,-4.33462 2.58232,-4.33462c0.18447,0 0.46113,0.09223 0.64558,0.09223c-0.27669,-0.64558 0.73781,-0.83002 0.73781,-1.66005c0,-3.22789 1.47563,-6.4558 4.70352,-6.4558c0.92226,0 1.66007,0.18445 2.58232,0.55336v0c0,-5.44131 4.3346,-9.7759 9.7759,-9.7759c5.34908,0 9.59146,4.24237 9.59146,9.68369c3.59681,-1.47563 7.8392,-0.73781 10.69817,2.1212c2.95121,2.95123 2.67455,7.4703 1.01447,11.06709c3.87349,1.3834 7.65473,4.98018 7.56251,9.22256z" data-paper-data="{&quot;origPos&quot;:null}" fill="#c40e0e" stroke-width="1"/><path d="M278.57026,195.30816c0,5.44131 -4.42683,10.05259 -9.7759,10.05259h-37.53582c-5.44131,0 -9.86812,-4.61128 -9.86812,-10.05259c0,-4.24239 2.67455,-8.02364 6.45578,-9.40702c-0.27669,-0.55336 -0.46113,-1.10669 -0.46113,-1.75228c0,-2.1212 1.66005,-3.78126 3.78126,-3.78126c0.18447,0 0.46115,0.09223 0.6456,0.09223c-0.27669,-0.73781 -0.46115,-1.47563 -0.46115,-2.30565c0,-3.22789 2.67457,-5.81021 5.90246,-5.81021c0.92226,0 1.66005,0.18445 2.58232,0.55337c0,-5.44131 4.33462,-9.86814 9.77591,-9.86814c5.34908,0 9.59144,4.3346 9.59144,9.68369c3.59681,-1.47563 7.83918,-0.73781 10.69817,2.1212c2.95121,2.95123 3.68905,7.37805 2.02895,10.97485c3.87349,1.3834 6.64026,5.25684 6.64026,9.49922z" data-paper-data="{&quot;origPos&quot;:null}" fill="#e83838" stroke-width="1"/><path d="M268.79436,205.36077h-12.35825l-24.71646,-24.90091c-0.27669,-0.64558 -0.36892,-1.56784 -0.36892,-2.30565c0,-3.22789 2.67455,-5.81023 5.90244,-5.81023c0.92226,0 1.66007,0.18445 2.58232,0.55337c0,-5.44131 4.3346,-9.86812 9.7759,-9.86812c5.34908,0 9.59146,4.33462 9.59146,9.59146c3.59681,-1.3834 7.8392,-0.64558 10.69817,2.21342c2.95121,3.04345 3.68904,7.47026 2.02895,11.06709c3.87349,1.3834 6.64025,5.07239 6.64025,9.40702c0,5.44131 -4.42683,10.05259 -9.7759,10.05259z" data-paper-data="{&quot;origPos&quot;:null}" fill="#d91c1c" stroke-width="1"/><g data-paper-data="{&quot;origPos&quot;:null}" fill="#c40e0e" stroke-width="1"><path d="M255.42163,200.01167c-0.64558,0 -1.38339,-0.27669 -1.93673,-0.83003l-10.88261,-10.88261c-1.01447,-1.01448 -1.01447,-2.76678 0,-3.78126c1.01447,-1.01448 2.76678,-1.01448 3.78126,0l10.97483,10.88261c1.01447,1.01448 1.01447,2.76678 0,3.78126c-0.55336,0.55336 -1.19892,0.83003 -1.93673,0.83003z" data-paper-data="{&quot;origPos&quot;:null}"/><path d="M258.09615,186.36227c0,0.64558 -0.27669,1.38339 -0.83003,1.93673l-10.88262,10.88262c-1.01447,1.01448 -2.76678,1.01448 -3.78128,0c-1.01447,-1.01448 -1.01447,-2.76678 0,-3.78126l10.97485,-10.97483c1.01447,-1.01448 2.76678,-1.01448 3.78126,0c0.55336,0.55336 0.73781,1.29115 0.73781,1.93671z" data-paper-data="{&quot;origPos&quot;:null}"/></g><g data-paper-data="{&quot;origPos&quot;:null}" fill="#ffffff" stroke-width="1"><path d="M255.42163,198.07491c-0.64558,0 -1.38339,-0.27669 -1.93673,-0.83003l-10.88261,-10.88261c-1.01447,-1.01448 -1.01447,-2.76678 0,-3.78126c1.01447,-1.01448 2.76678,-1.01448 3.78126,0l10.97483,10.97485c1.01447,1.01448 1.01447,2.76678 0,3.78126c-0.55336,0.46113 -1.19892,0.73781 -1.93673,0.73781z"/><path d="M258.09615,184.51777c0,0.64558 -0.27669,1.38339 -0.83003,1.93673l-10.88262,10.88261c-1.01447,1.01448 -2.76678,1.01448 -3.78128,0c-1.01447,-1.01448 -1.01447,-2.76678 0,-3.78126l10.97485,-10.97485c1.01447,-1.01448 2.76678,-1.01448 3.78126,0c0.55336,0.55336 0.73781,1.19894 0.73781,1.93673z"/></g><path d="M208.4365,211.41118v-60.01069h76.74836v60.01069z" data-paper-data="{&quot;origPos&quot;:null}" fill="none" stroke-width="0"/></g><path d="M195.5396,130.78376v-5.4231c0,-0.63884 0.507,-1.16829 1.14627,-1.16829c0.63927,0 1.16829,0.52947 1.16829,1.16829v5.4231c0,2.20433 1.25649,3.08566 2.6893,3.08566c2.11617,0 3.04199,-1.8953 3.17427,-2.8436v-5.66516c0,-0.63884 0.52904,-1.16829 1.16829,-1.16829c0.63927,0 1.16829,0.52947 1.16829,1.16829v9.28029c0,0.6613 -0.52903,1.19077 -1.16829,1.19077c-0.63927,0 -1.16829,-0.52947 -1.16829,-1.19077v-1.45487c-0.11023,0.77195 -1.43282,2.6893 -3.94579,2.6893c-2.13823,0 -4.23234,-1.34466 -4.23234,-5.09161z" fill="#000000" fill-rule="evenodd" stroke-width="1" stroke-linecap="round" stroke-linejoin="round"/><path d="M219.61103,121.15037v13.53467c0,0.63968 -0.55107,1.16829 -1.19034,1.16829c-0.63927,0 -1.16831,-0.52863 -1.16831,-1.16829v-1.18991c-0.1543,0.99196 -1.52097,2.38027 -3.61511,2.38027c-2.4468,0 -5.3786,-1.89532 -5.3786,-5.8856c0,-3.92373 2.95381,-5.86355 5.3786,-5.86355c1.63123,0 3.04198,0.83807 3.61511,2.11617v-0.88174c0,-0.06571 0,-0.15386 0.02206,-0.22001v-3.99028c0,-0.63882 0.52904,-1.16829 1.14627,-1.16829c0.63927,0 1.19034,0.52947 1.19034,1.16829zM217.36259,129.98979c0,-2.75544 -1.85164,-3.85717 -3.3506,-3.85717c-1.60917,0 -3.41673,1.25648 -3.41673,3.85717c0,2.62316 1.80756,3.87964 3.41673,3.87964c1.49894,0 3.3506,-1.14625 3.3506,-3.87964z" fill="#000000" fill-rule="evenodd" stroke-width="1" stroke-linecap="round" stroke-linejoin="round"/><path d="M237.33395,122.38523h-6.5469v4.82708h5.35654c0.57313,0 1.0581,0.44086 1.0581,1.01441c0,0.57313 -0.48495,1.0136 -1.0581,1.0136h-5.35654v5.37858c0,0.6613 -0.52903,1.23443 -1.16829,1.23443c-0.6613,0 -1.2124,-0.57313 -1.2124,-1.23443v-13.02765c0,-0.74948 0.55109,-1.30012 1.30057,-1.30012h7.62702c0.57313,0 1.05807,0.46249 1.05807,1.03563c0,0.59518 -0.48494,1.05851 -1.05807,1.05851z" fill="#000000" fill-rule="evenodd" stroke-width="1" stroke-linecap="round" stroke-linejoin="round"/><path d="M240.48616,130.78376v-5.4231c0,-0.63884 0.507,-1.16829 1.14627,-1.16829c0.63927,0 1.16833,0.52947 1.16833,1.16829v5.4231c0,2.20433 1.25646,3.08566 2.68928,3.08566c2.11617,0 3.04199,-1.8953 3.17427,-2.8436v-5.66516c0,-0.63884 0.52904,-1.16829 1.16829,-1.16829c0.63927,0 1.16829,0.52947 1.16829,1.16829v9.28029c0,0.6613 -0.52904,1.19077 -1.16829,1.19077c-0.63927,0 -1.16829,-0.52947 -1.16829,-1.19077v-1.45487c-0.11023,0.77195 -1.43282,2.6893 -3.94579,2.6893c-2.13823,0 -4.23234,-1.34466 -4.23234,-5.09161z" fill="#000000" fill-rule="evenodd" stroke-width="1" stroke-linecap="round" stroke-linejoin="round"/><path d="M254.81438,135.83172c-0.63927,0 -1.16829,-0.52945 -1.16829,-1.16829v-13.51305c0,-0.63882 0.52904,-1.16829 1.16829,-1.16829c0.63927,0 1.16831,0.52947 1.16831,1.16829v13.51307c0,0.63884 -0.52904,1.16829 -1.16831,1.16829z" fill="#000000" fill-rule="evenodd" stroke-width="1" stroke-linecap="round" stroke-linejoin="round"/><path d="M259.79619,135.83172c-0.63927,0 -1.16831,-0.52945 -1.16831,-1.16829v-13.51305c0,-0.63882 0.52904,-1.16829 1.16831,-1.16829c0.63927,0 1.16831,0.52947 1.16831,1.16829v13.51307c0,0.63884 -0.52904,1.16829 -1.16831,1.16829z" fill="#000000" fill-rule="evenodd" stroke-width="1" stroke-linecap="round" stroke-linejoin="round"/><path d="M287.38366,128.19626c0,4.65158 -3.8135,7.86951 -7.6711,7.86951c-3.8576,0 -7.67112,-3.21791 -7.67112,-7.86949c0,-4.65117 3.81352,-7.8691 7.67112,-7.8691c3.8576,0 7.6711,3.21793 7.6711,7.8691zM274.53235,128.19626c0,3.3506 2.49091,5.59902 5.18021,5.59902c2.6893,0 5.18021,-2.24842 5.18021,-5.59902c0,-3.3506 -2.46886,-5.62107 -5.18021,-5.62107c-2.6893,0 -5.18021,2.27047 -5.18021,5.62107z" fill="#000000" fill-rule="evenodd" stroke-width="1" stroke-linecap="round" stroke-linejoin="round"/><path d="M295.60588,134.72111c0,0.9038 -1.03604,1.301 -2.27049,1.301c-1.32261,0 -2.62316,-0.46333 -2.62316,-2.9979v-6.70163h-0.83763c-0.57313,0 -0.94786,-0.37472 -0.94786,-0.94786c0,-0.55109 0.37472,-0.92583 0.94787,-0.92583h0.83763v-1.71938c0,-0.61721 0.52906,-1.14584 1.14627,-1.14584c0.63927,0 1.16829,0.52863 1.16829,1.14584v1.71938h1.60917c0.57313,0 0.96993,0.37474 0.96993,0.92583c0,0.57313 -0.39679,0.94787 -0.96993,0.94787h-1.60917v6.72326c0,0.6613 0.26453,0.96992 0.77153,0.96992c0.28656,0 0.61721,-0.08818 0.85969,-0.11023c0.55109,-0.08818 0.94787,0.26451 0.94787,0.8156z" fill="#000000" fill-rule="evenodd" stroke-width="1" stroke-linecap="round" stroke-linejoin="round"/><path d="M308.10449,129.4311v5.42226c0,0.63927 -0.507,1.16872 -1.14627,1.16872c-0.63927,0 -1.16829,-0.52945 -1.16829,-1.16872v-5.42226c0,-2.20478 -1.25648,-3.0865 -2.6893,-3.0865c-2.11617,0 -3.04199,1.89575 -3.17425,2.84403v5.66473c0,0.63927 -0.52904,1.16872 -1.16831,1.16872c-0.63927,0 -1.16829,-0.52945 -1.16829,-1.16872v-13.51219c0,-0.6397 0.52903,-1.16874 1.16829,-1.16874c0.63927,0 1.16831,0.52904 1.16831,1.16874v5.68679c0.11023,-0.7711 1.43282,-2.68889 3.94576,-2.68889c2.13821,0 4.23234,1.34425 4.23234,5.09206z" fill="#000000" fill-rule="evenodd" stroke-width="1" stroke-linecap="round" stroke-linejoin="round"/><path d="M321.55097,129.80543c0,0.9038 -0.507,1.25648 -1.45487,1.25648l-7.38456,-0.02205c0.2425,2.05003 1.85164,3.06445 3.61513,3.06445c0.90377,0 1.52101,-0.22085 2.20435,-0.6397c0.37472,-0.19796 0.61722,-0.35268 0.92583,-0.35268c0.507,0 0.8156,0.35269 0.8156,0.83765c0,0.28657 -0.11023,0.59516 -0.59518,0.99236c-0.83763,0.68293 -2.05005,1.08013 -3.43878,1.08013c-2.86563,0 -5.92967,-1.83004 -5.92967,-5.81989c0,-3.96782 3.1963,-5.8856 5.70923,-5.8856c2.51297,0 5.5329,1.98391 5.5329,5.48881zM312.71156,129.36455h6.56896c-0.19838,-2.09371 -1.78553,-3.01995 -3.26243,-3.01995c-1.45487,0 -3.10813,0.92624 -3.30651,3.01995z" fill="#000000" fill-rule="evenodd" stroke-width="1" stroke-linecap="round" stroke-linejoin="round"/><path d="M330.94147,125.4192c0,0.66089 -0.50701,1.10175 -1.49894,1.10175c-1.93982,0 -3.1963,1.49896 -3.3506,2.66768v5.66473c0,0.63927 -0.52904,1.16872 -1.16829,1.16872c-0.63927,0 -1.16829,-0.52945 -1.16829,-1.16872v-9.28029c0,-0.6613 0.52904,-1.19036 1.16829,-1.19036c0.63927,0 1.16829,0.52906 1.16829,1.19036v1.45487c0.11023,-0.7711 1.49896,-2.68889 3.65922,-2.68889c0.77153,0 1.19034,0.48454 1.19034,1.08013z" fill="#000000" fill-rule="evenodd" stroke-width="1" stroke-linecap="round" stroke-linejoin="round"/><path d="M200.78469,144.4978c0,0.17635 -0.08818,0.33065 -0.1543,0.52947l-3.10813,9.05944c-0.19838,0.57313 -0.61721,0.88215 -1.10216,0.88215c-0.507,0 -0.90377,-0.30902 -1.14627,-0.88215l-2.97586,-7.27435l-2.9979,7.27435c-0.22042,0.57313 -0.63925,0.88215 -1.1242,0.88215c-0.507,0 -0.9038,-0.30902 -1.10219,-0.88215l-3.10812,-9.05942c-0.06614,-0.19882 -0.1543,-0.35311 -0.1543,-0.52947c0,-0.61721 0.48495,-1.10219 1.10216,-1.10219c0.41883,0 0.85968,0.26454 0.99196,0.63927l2.42477,7.49475l2.90972,-7.4066c0.17633,-0.46291 0.55109,-0.72743 1.05807,-0.72743c0.507,0 0.85971,0.26453 1.05808,0.72743l2.90972,7.4066l2.42477,-7.49475c0.11023,-0.39677 0.57313,-0.63927 0.99196,-0.63927c0.61721,0 1.10217,0.48497 1.10217,1.10219z" fill="#000000" fill-rule="evenodd" stroke-width="1" stroke-linecap="round" stroke-linejoin="round"/><path d="M213.94461,149.2151c0,3.94579 -3.28446,5.86355 -5.81946,5.86355c-2.535,0 -5.79742,-1.91776 -5.79742,-5.86355c0,-3.92373 3.26242,-5.8856 5.79742,-5.8856c2.535,0 5.81946,1.96187 5.81946,5.8856zM204.6423,149.2151c0,2.49091 1.78553,3.83555 3.48287,3.83555c1.71937,0 3.5049,-1.34464 3.5049,-3.83555c0,-2.51252 -1.78553,-3.85761 -3.5049,-3.85761c-1.69735,0 -3.48287,1.34509 -3.48287,3.85761z" fill="#000000" fill-rule="evenodd" stroke-width="1" stroke-linecap="round" stroke-linejoin="round"/><path d="M226.66368,148.444v5.42226c0,0.63925 -0.507,1.16874 -1.14627,1.16874c-0.63927,0 -1.16829,-0.52945 -1.16829,-1.16874v-5.42226c0,-2.20478 -1.25649,-3.0865 -2.6893,-3.0865c-2.11617,0 -3.04199,1.89573 -3.17427,2.84403v5.66473c0,0.63925 -0.52903,1.16874 -1.16829,1.16874c-0.63927,0 -1.16829,-0.52945 -1.16829,-1.16874v-9.28029c0,-0.6613 0.52904,-1.19036 1.16829,-1.19036c0.63927,0 1.16829,0.52906 1.16829,1.19036v1.45487c0.11023,-0.7711 1.43282,-2.68889 3.94579,-2.68889c2.13823,0 4.23234,1.34425 4.23234,5.09206z" fill="#000000" fill-rule="evenodd" stroke-width="1" stroke-linecap="round" stroke-linejoin="round"/><path d="M228.73577,143.8365l1.14625,-3.41673c0.2425,-0.66089 0.61722,-0.92581 1.21239,-0.92581h0.72743c0.74948,0 0.85969,0.39679 0.48497,1.12422l-1.74144,3.46081c-0.28656,0.57313 -0.72743,0.68336 -1.16829,0.68336h-0.13226c-0.55109,0 -0.72742,-0.39637 -0.52904,-0.92583z" fill="#000000" fill-rule="evenodd" stroke-width="1" stroke-linecap="round" stroke-linejoin="round"/><path d="M240.30857,153.73398c0,0.90378 -1.03604,1.301 -2.27047,1.301c-1.32261,0 -2.62316,-0.46333 -2.62316,-2.9979v-6.70164h-0.83766c-0.57313,0 -0.94786,-0.37472 -0.94786,-0.94786c0,-0.55109 0.37472,-0.92583 0.94787,-0.92583h0.83766v-1.71938c0,-0.61721 0.52904,-1.14584 1.14627,-1.14584c0.63927,0 1.16829,0.52863 1.16829,1.14584v1.71938h1.60917c0.57313,0 0.9699,0.37472 0.9699,0.92583c0,0.57313 -0.39677,0.94787 -0.9699,0.94787h-1.60917v6.72326c0,0.6613 0.26453,0.96992 0.77153,0.96992c0.28656,0 0.61721,-0.08818 0.85971,-0.11023c0.55109,-0.08817 0.94787,0.26451 0.94787,0.81562z" fill="#000000" fill-rule="evenodd" stroke-width="1" stroke-linecap="round" stroke-linejoin="round"/><path d="M256.05782,144.77341c0.13226,0.19796 0.30862,0.44045 0.30862,0.81517c0,0.55109 -0.41883,0.88216 -0.94787,0.88216c-0.35269,0 -0.68334,-0.15473 -1.01399,-0.59516c-0.44088,-0.55152 -1.0581,-0.92626 -1.96187,-0.92626c-1.10216,0 -1.76347,0.55152 -1.76347,1.34466c0,0.55152 0.30862,1.08011 1.47691,1.41078l1.3667,0.37474c1.8737,0.507 3.28446,1.34466 3.28446,3.19672c0,2.31413 -2.18229,3.48244 -4.47482,3.48244c-1.91779,0 -3.26242,-0.83765 -3.83557,-1.74143c-0.11023,-0.15387 -0.46291,-0.59516 -0.46291,-1.12422c0,-0.46291 0.28656,-0.94743 0.90377,-0.94743c0.507,0 0.77153,0.3086 0.99196,0.63882c0.55109,0.92581 1.45487,1.23486 2.40274,1.23486c1.27851,0 2.16026,-0.52947 2.16026,-1.41121c0,-0.6613 -0.46291,-1.14627 -1.56508,-1.45443l-1.47691,-0.39723c-2.13821,-0.59516 -3.06406,-1.74144 -3.06406,-3.24039c0,-2.07208 1.8737,-3.26242 4.01191,-3.26242c1.58713,0 2.9538,0.63927 3.6592,1.71983z" fill="#000000" fill-rule="evenodd" stroke-width="1" stroke-linecap="round" stroke-linejoin="round"/><path d="M269.7027,148.54241c0,0.90421 -0.507,1.25646 -1.45485,1.25646l-7.38456,-0.02203c0.2425,2.05003 1.85164,3.06402 3.61511,3.06402c0.90377,0 1.52099,-0.21999 2.20435,-0.63882c0.37472,-0.19884 0.61721,-0.35269 0.92581,-0.35269c0.507,0 0.81562,0.35269 0.81562,0.83763c0,0.28613 -0.11021,0.59518 -0.59518,0.99154c-0.83763,0.68377 -2.05006,1.08013 -3.4388,1.08013c-2.86563,0 -5.92967,-1.82918 -5.92967,-5.81948c0,-3.96782 3.1963,-5.8856 5.70923,-5.8856c2.51297,0 5.5329,1.98391 5.5329,5.48883zM260.86329,148.10154h6.56892c-0.19838,-2.09414 -1.7855,-3.01952 -3.26242,-3.01952c-1.45487,0 -3.10813,0.9254 -3.30651,3.01952z" fill="#000000" fill-rule="evenodd" stroke-width="1" stroke-linecap="round" stroke-linejoin="round"/><path d="M282.70832,148.54241c0,0.90421 -0.507,1.25646 -1.45487,1.25646l-7.38456,-0.02203c0.2425,2.05003 1.85162,3.06402 3.6151,3.06402c0.90377,0 1.52099,-0.21999 2.20435,-0.63882c0.37472,-0.19884 0.61722,-0.35269 0.92583,-0.35269c0.507,0 0.8156,0.35269 0.8156,0.83763c0,0.28613 -0.11021,0.59518 -0.59518,0.99154c-0.83763,0.68377 -2.05005,1.08013 -3.43878,1.08013c-2.86563,0 -5.92967,-1.82918 -5.92967,-5.81948c0,-3.96782 3.1963,-5.8856 5.70923,-5.8856c2.51297,0 5.5329,1.98391 5.5329,5.48883zM273.86891,148.10154h6.56892c-0.19838,-2.09414 -1.7855,-3.01952 -3.26243,-3.01952c-1.45487,0 -3.10812,0.9254 -3.30651,3.01952z" fill="#000000" fill-rule="evenodd" stroke-width="1" stroke-linecap="round" stroke-linejoin="round"/><path d="M301.40115,144.17825c0,0.22003 -0.06614,0.37431 -0.13226,0.52861l-5.8856,13.44649c-0.2425,0.55152 -0.6613,0.79357 -1.10216,0.79357c-0.61721,0 -1.03604,-0.48452 -1.03604,-1.05808c0,-0.22042 0.06614,-0.37474 0.13226,-0.52861l1.36669,-3.15263l-4.21029,-9.50071c-0.06614,-0.1543 -0.13226,-0.3086 -0.13226,-0.52861c0,-0.57313 0.46292,-1.05851 1.08013,-1.05851c0.44088,0 0.85968,0.24248 1.10216,0.79357l3.30652,7.69359l3.32857,-7.69359c0.2425,-0.55109 0.6613,-0.79357 1.10216,-0.79357c0.61721,0 1.08013,0.48538 1.08013,1.05851z" fill="#000000" fill-rule="evenodd" stroke-width="1" stroke-linecap="round" stroke-linejoin="round"/><path d="M314.56108,148.9392c0,3.94579 -3.28446,5.86355 -5.81946,5.86355c-2.535,0 -5.79743,-1.91776 -5.79743,-5.86355c0,-3.9233 3.26243,-5.8856 5.79743,-5.8856c2.535,0 5.81946,1.96229 5.81946,5.8856zM305.25875,148.9392c0,2.49091 1.78552,3.83555 3.48287,3.83555c1.71937,0 3.50492,-1.34464 3.50492,-3.83555c0,-2.51294 -1.78553,-3.85718 -3.50492,-3.85718c-1.69735,0 -3.48287,1.34423 -3.48287,3.85718z" fill="#000000" fill-rule="evenodd" stroke-width="1" stroke-linecap="round" stroke-linejoin="round"/><path d="M316.76543,149.71114v-5.42312c0,-0.63927 0.507,-1.16829 1.14627,-1.16829c0.63927,0 1.16831,0.52904 1.16831,1.16829v5.42312c0,2.20391 1.25648,3.08566 2.68928,3.08566c2.11617,0 3.04198,-1.89532 3.17425,-2.84317v-5.66559c0,-0.63927 0.52904,-1.16829 1.16831,-1.16829c0.63927,0 1.16829,0.52904 1.16829,1.16829v9.28029c0,0.6613 -0.52903,1.19036 -1.16829,1.19036c-0.63927,0 -1.16831,-0.52906 -1.16831,-1.19036v-1.45444c-0.11023,0.7711 -1.43281,2.68886 -3.94576,2.68886c-2.13823,0 -4.23234,-1.34421 -4.23234,-5.0916z" fill="#000000" fill-rule="evenodd" stroke-width="1" stroke-linecap="round" stroke-linejoin="round"/><path d="M265.70894,134.31797c0,0.68482 -0.55516,1.23997 -1.23997,1.23997c-0.6848,0 -1.23998,-0.55516 -1.23998,-1.23997c0,-0.68482 0.55516,-1.23997 1.23998,-1.23997c0.6848,0 1.23997,0.55515 1.23997,1.23997z" fill="#000000" fill-rule="nonzero" stroke-width="0" stroke-linecap="butt" stroke-linejoin="miter"/></g></g></svg>