<svg version="1.1" xmlns="http://www.w3.org/2000/svg" xmlns:xlink="http://www.w3.org/1999/xlink" width="507.5" height="440.77731" viewBox="0,0,507.5,440.77731"><defs><radialGradient cx="107.90858" cy="69.8118" r="29.33566" gradientUnits="userSpaceOnUse" id="color-1"><stop offset="0" stop-color="#faff00"/><stop offset="1" stop-color="#faff00" stop-opacity="0"/></radialGradient><radialGradient cx="45.34101" cy="250.48748" r="29.33566" gradientUnits="userSpaceOnUse" id="color-2"><stop offset="0" stop-color="#faff00"/><stop offset="1" stop-color="#faff00" stop-opacity="0"/></radialGradient></defs><g transform="translate(25.875,64.92329)"><g data-paper-data="{&quot;isPaintingLayer&quot;:true}" fill-rule="nonzero" stroke-linejoin="miter" stroke-miterlimit="10" stroke-dasharray="" stroke-dashoffset="0" style="mix-blend-mode: normal"><path d="M348.99737,363.12303v-160.66066h123.12312v160.66066z" fill="#989898" stroke="none" stroke-width="0" stroke-linecap="butt"/><path d="M15.66404,361.62152v-51.05105h460.96097v51.05105z" fill="#989898" stroke="none" stroke-width="0" stroke-linecap="butt"/><path d="M6.65503,346.60652v-340.84085h142.64264v340.84085z" fill="#989898" stroke="none" stroke-width="0" stroke-linecap="butt"/><path d="M4.5,365.05252v-188.45946h18v188.45946z" fill="#6d6d6d" stroke="none" stroke-width="0" stroke-linecap="butt"/><path d="M133.5,309.55402v-173h18v173z" fill="#6d6d6d" stroke="none" stroke-width="0" stroke-linecap="butt"/><path d="M133.5,311.80001v-11h207.58333v11z" fill="#6d6d6d" stroke="none" stroke-width="0" stroke-linecap="butt"/><path d="M340,375.85402v-174h13.75v174z" fill="#6d6d6d" stroke="none" stroke-width="0" stroke-linecap="butt"/><path d="M407.5,370.85402v-168h10.75v168z" fill="#6d6d6d" stroke="none" stroke-width="0" stroke-linecap="butt"/><path d="M470.875,365.10402v-163.32733h10.75v163.32733z" fill="#6d6d6d" stroke="none" stroke-width="0" stroke-linecap="butt"/><path d="M5.5,139.85402v-138.02402h17v138.02403z" fill="#6d6d6d" stroke="none" stroke-width="0" stroke-linecap="butt"/><path d="M134.25881,142.85402v-133.02402h17.23418v133.02403z" fill="#6d6d6d" stroke="none" stroke-width="0" stroke-linecap="butt"/><path d="M6.82752,15.94879v-15.01502l144.64865,-65.85706l-0.5045,80.87208z" fill="#6d6d6d" stroke="none" stroke-width="0" stroke-linecap="butt"/><path d="M21.33333,311.28735v-15.66667h51.33333v15.66667z" fill="#6d6d6d" stroke="none" stroke-width="0" stroke-linecap="butt"/><path d="M72.66667,253.62069v-15.33333h69.33333v15.33333z" fill="#6d6d6d" stroke="none" stroke-width="0" stroke-linecap="butt"/><path d="M17.66667,195.62069v-19h55v19z" fill="#6d6d6d" stroke="none" stroke-width="0" stroke-linecap="butt"/><path d="M76,135.62069v-19.66667h74.33333v19.66667z" fill="#6d6d6d" stroke="none" stroke-width="0" stroke-linecap="butt"/><path d="M-25.875,136.22996v-0.0156h30v0.0156z" fill="#6d6d6d" stroke="none" stroke-width="0" stroke-linecap="butt"/><path d="M75.87725,121.75888v-5.5h58.5v5.5z" fill="#d4d4d4" stroke="none" stroke-width="0" stroke-linecap="butt"/><path d="M4.37725,182.25888v-5.5h68.5v5.5z" fill="#d4d4d4" stroke="none" stroke-width="0" stroke-linecap="butt"/><path d="M72.87726,243.75888v-5.5h60.5v5.5z" fill="#d4d4d4" stroke="none" stroke-width="0" stroke-linecap="butt"/><path d="M22.37726,301.25888v-5.5h50v5.5z" fill="#d4d4d4" stroke="none" stroke-width="0" stroke-linecap="butt"/><g stroke="none" stroke-width="0" stroke-linecap="butt"><path d="M128.90107,69.8118c0,16.20164 -9.39866,29.33566 -20.99249,29.33566c-11.59384,0 -20.99249,-13.13402 -20.99249,-29.33566c0,-16.20164 9.39866,-29.33566 20.99249,-29.33566c11.59384,0 20.99249,13.13402 20.99249,29.33566z" fill="url(#color-1)"/><path d="M103.92177,113.93394v-33.92244h5.52987v33.92244z" fill="#e57e00"/><path d="M106.13151,113.93394v-33.92244h3.68843v33.92244z" fill="#d17300"/><path d="M116.81743,73.24263c0,8.33942 -2.13214,11.41697 -9.75967,11.41697c-3.67458,0 -7.4607,-2.035 -8.2305,-6.665c-0.41057,-2.46939 1.09098,-6.9946 1.5859,-9.41891c0.50332,-2.4655 5.35559,-2.72944 5.35559,-4.90858c0,-6.09601 -3.75522,-10.77765 -2.59819,-11.46829c0.4258,-0.25417 1.8353,2.26105 3.88721,2.26105c1.73576,0 1.92357,5.87444 3.4539,6.51357c5.19447,2.16942 6.30577,5.82753 6.30577,12.26919z" fill="#ffef00"/><path d="M113.38006,74.81645c0,4.67904 -1.19629,6.40578 -5.47591,6.40578c-2.06172,0 -4.18601,-1.14179 -4.61793,-3.73957c-0.23036,-1.38552 0.61213,-3.9245 0.88981,-5.28472c0.2824,-1.38332 3.00489,-1.53142 3.00489,-2.75408c0,-3.42032 1.8025,-1.86995 2.66113,-1.51135c2.91449,1.21721 3.53802,3.26968 3.53802,6.88394z" fill="#ffb000"/></g><g stroke="none" stroke-width="0" stroke-linecap="butt"><path d="M66.3335,250.48748c0,16.20163 -9.39866,29.33566 -20.9925,29.33566c-11.59384,0 -20.99249,-13.13403 -20.99249,-29.33566c0,-16.20163 9.39865,-29.33566 20.99249,-29.33566c11.59384,0 20.9925,13.13403 20.9925,29.33566z" fill="url(#color-2)"/><path d="M41.3542,294.60962v-33.92244h5.52987v33.92244z" fill="#e57e00"/><path d="M43.56394,294.60962v-33.92244h3.68842v33.92244z" fill="#d17300"/><path d="M54.24986,253.91831c0,8.33942 -2.13214,11.41697 -9.75967,11.41697c-3.67458,0 -7.4607,-2.035 -8.2305,-6.665c-0.41057,-2.4694 1.09098,-6.9946 1.5859,-9.41891c0.50332,-2.4655 5.35559,-2.72944 5.35559,-4.90858c0,-6.096 -3.75522,-10.77764 -2.5982,-11.46829c0.4258,-0.25417 1.83531,2.26105 3.8872,2.26105c1.73576,0 1.92357,5.87444 3.4539,6.51357c5.19447,2.16942 6.30577,5.82753 6.30577,12.26919z" fill="#ffef00"/><path d="M50.81249,255.49213c0,4.67904 -1.19629,6.40578 -5.47591,6.40578c-2.06172,0 -4.18601,-1.14179 -4.61793,-3.73957c-0.23036,-1.38552 0.61212,-3.9245 0.88981,-5.28472c0.28241,-1.38332 3.0049,-1.53142 3.0049,-2.75408c0,-3.42032 1.8025,-1.86996 2.66114,-1.51135c2.9145,1.21721 3.53802,3.26968 3.53802,6.88394z" fill="#ffb000"/></g><path d="M114.37726,341.54105h-13v-12" fill="none" stroke="#a45a00" stroke-width="2" stroke-linecap="round"/><path d="M128.37726,350.54105h-19v-8.5" fill="none" stroke="#a45a00" stroke-width="2" stroke-linecap="round"/><path d="M214.37726,338.04105v14h-23" fill="none" stroke="#a45a00" stroke-width="2" stroke-linecap="round"/><path d="M202.37726,325.54105v26.5" fill="none" stroke="#a45a00" stroke-width="2" stroke-linecap="round"/><path d="M190.37726,341.04105h11.5" fill="none" stroke="#a45a00" stroke-width="2" stroke-linecap="round"/><path d="M110.125,205.04105v-13.5h-16.5v-27" fill="none" stroke="#a45a00" stroke-width="2" stroke-linecap="round"/><path d="M103.625,192.04105v-7h17.5" fill="none" stroke="#a45a00" stroke-width="2" stroke-linecap="round"/><path d="M94.125,180.54105h-4.5" fill="none" stroke="#a45a00" stroke-width="2" stroke-linecap="round"/><path d="M66.625,49.04105h-22v-10.5" fill="none" stroke="#a45a00" stroke-width="2" stroke-linecap="round"/><path d="M57.29167,49.20888v10.66667h-19.66667" fill="none" stroke="#a45a00" stroke-width="2" stroke-linecap="round"/><path d="M381.96285,244.90773v-7h-18.66667v-19.33334" fill="none" stroke="#a45a00" stroke-width="2" stroke-linecap="round"/><path d="M363.62951,226.24105h12" fill="none" stroke="#a45a00" stroke-width="2" stroke-linecap="round"/><path d="M392.62951,322.57439h-16.33333v-18" fill="none" stroke="#a45a00" stroke-width="2" stroke-linecap="round"/><path d="M375.62951,314.90772h-12.33333" fill="none" stroke="#a45a00" stroke-width="2" stroke-linecap="round"/><path d="M386.29618,316.24105v6" fill="none" stroke="#a45a00" stroke-width="2" stroke-linecap="round"/><path d="M459.29617,277.57439h-18.33333v-17.66667" fill="none" stroke="#a45a00" stroke-width="2" stroke-linecap="round"/><path d="M452.96284,277.24105v8.33333h-18.33333" fill="none" stroke="#a45a00" stroke-width="2" stroke-linecap="round"/><path d="M439.96284,271.90772h-5" fill="none" stroke="#a45a00" stroke-width="2" stroke-linecap="round"/></g></g></svg>