<svg version="1.1" xmlns="http://www.w3.org/2000/svg" xmlns:xlink="http://www.w3.org/1999/xlink" width="590.94392" height="315.62836" viewBox="0,0,590.94392,315.62836"><defs><linearGradient x1="342.22745" y1="392.79447" x2="358.91821" y2="403.51731" gradientUnits="userSpaceOnUse" id="color-1"><stop offset="0" stop-color="#8e8e8e"/><stop offset="1" stop-color="#818181"/></linearGradient><linearGradient x1="112.64851" y1="317.50243" x2="146.25447" y2="372.76876" gradientUnits="userSpaceOnUse" id="color-2"><stop offset="0" stop-color="#8e8e8e"/><stop offset="1" stop-color="#818181"/></linearGradient><linearGradient x1="66.81385" y1="317.60237" x2="111.26154" y2="351.58846" gradientUnits="userSpaceOnUse" id="color-3"><stop offset="0" stop-color="#8e8e8e"/><stop offset="1" stop-color="#818181"/></linearGradient><linearGradient x1="308.63874" y1="328.31928" x2="280.53156" y2="360.36366" gradientUnits="userSpaceOnUse" id="color-4"><stop offset="0" stop-color="#8e8e8e"/><stop offset="1" stop-color="#818181"/></linearGradient><linearGradient x1="392.97164" y1="321.06963" x2="408.95957" y2="371.38719" gradientUnits="userSpaceOnUse" id="color-5"><stop offset="0" stop-color="#8e8e8e"/><stop offset="1" stop-color="#818181"/></linearGradient></defs><g transform="translate(58.66486,-109.13017)"><g data-paper-data="{&quot;isPaintingLayer&quot;:true}" fill-rule="nonzero" stroke="none" stroke-linecap="butt" stroke-linejoin="miter" stroke-miterlimit="10" stroke-dasharray="" stroke-dashoffset="0" style="mix-blend-mode: normal"><g data-paper-data="{&quot;index&quot;:null}"><path d="M361.14654,406.27332l-13.08474,0.75551l-6.47133,-12.029l18.08779,-3.77381l6.7485,7.86422z" data-paper-data="{&quot;origPos&quot;:null,&quot;origRot&quot;:0}" fill="#534c42" stroke-width="0"/><path d="M359.32145,404.67721l-11.74278,0.67802l-5.80766,-10.79525l16.23265,-3.38678l6.05638,7.05764z" data-paper-data="{&quot;origPos&quot;:null,&quot;origRot&quot;:0}" fill="url(#color-1)" stroke-width="NaN"/></g><path d="M-21.12546,358.17587v-74.52655c0,0 75.64304,-3.94498 169.98769,-2.00956c87.00085,1.78476 191.43967,9.4622 232.0652,9.4622c38.53378,0 88.20546,-7.45265 88.20546,-7.45265l3.00301,79.03105z" data-paper-data="{&quot;index&quot;:null}" fill="#9a8a7e" stroke-width="0"/><path d="M-21.46535,422.10426v-74.52655c0,0 75.74092,-3.94498 170.20766,-2.00956c87.11338,1.78476 191.68733,9.4622 232.36545,9.4622c38.58364,0 88.31962,-7.45265 88.31962,-7.45265v74.52655z" data-paper-data="{&quot;index&quot;:null}" fill="#887c6d" stroke-width="0"/><path d="M-20.30131,424.75853v-37.05188c0,0 75.47749,-1.96131 169.61565,-0.9991c86.81042,0.88735 191.02063,4.70428 231.55726,4.70428c38.44945,0 88.01242,-3.70519 88.01242,-3.70519v37.05188z" data-paper-data="{&quot;index&quot;:null}" fill="#807566" stroke-width="0"/><path d="M-24.09546,295.2022l-2,-70.95167c0,0 110.3779,4 189.92305,4c84.28682,0 304.39696,34 304.39696,34v32.95167z" data-paper-data="{&quot;index&quot;:null}" fill="#efb95a" stroke-width="0"/><path d="M-58.66486,296.2022c0,0 19.72681,-54.07008 24.55716,-55.36335c26.94573,-7.21442 141.20114,8.05882 201.93529,8.05882c88.41745,0 302.35451,33 302.35451,33v13.30453z" data-paper-data="{&quot;index&quot;:null}" fill="#dfac55" stroke-width="0"/><g data-paper-data="{&quot;index&quot;:null}"><path d="M146.37393,383.70043l-37.99878,-7.45925l-3.01785,-52.24412l55.99953,-0.37413l9.09965,36.16014z" data-paper-data="{&quot;origPos&quot;:null,&quot;origRot&quot;:0}" fill="#534c42" stroke-width="0"/><path d="M142.16836,375.99871l-34.10145,-6.69417l-2.70838,-46.88573l50.25595,-0.33577l8.16637,32.45141z" data-paper-data="{&quot;origPos&quot;:null,&quot;origRot&quot;:0}" fill="url(#color-2)" stroke-width="NaN"/></g><g data-paper-data="{&quot;index&quot;:null}"><path d="M114.48151,359.76762l-34.84501,2.39454l-17.23333,-38.12603l48.16827,-11.96112l17.97144,24.92571z" data-paper-data="{&quot;origPos&quot;:null,&quot;origRot&quot;:0}" fill="#534c42" stroke-width="0"/><path d="M108.92648,355.26479l-31.27116,2.14891l-15.46588,-34.21564l43.22791,-10.73433l16.12827,22.36922z" data-paper-data="{&quot;origPos&quot;:null,&quot;origRot&quot;:0}" fill="url(#color-3)" stroke-width="NaN"/></g><g data-paper-data="{&quot;index&quot;:null}"><path d="M273.1139,362.16386l-4.42545,-23.1124l34.76214,-14.15045l14.24929,31.35114l-22.30807,13.73023z" data-paper-data="{&quot;origRot&quot;:0}" fill="#534c42" stroke-width="0"/><path d="M278.98825,357.6888l-3.82649,-20.74185l30.05773,-12.69916l12.32086,28.13558l-19.28913,12.32205z" data-paper-data="{&quot;origRot&quot;:0}" fill="url(#color-4)" stroke-width="NaN"/></g><g data-paper-data="{&quot;index&quot;:null}"><path d="M406.59358,379.52666l-31.02598,-13.08147l9.68894,-42.16174l48.39808,10.22854l-0.65787,30.4996z" data-paper-data="{&quot;origRot&quot;:0}" fill="#534c42" stroke-width="0"/><path d="M404.95608,372.80537l-27.84381,-11.73975l8.69512,-37.83744l43.43414,9.17942l-0.59039,27.37144z" data-paper-data="{&quot;origRot&quot;:0}" fill="url(#color-5)" stroke-width="NaN"/></g><g stroke-width="0"><path d="M129.70805,141.4292c0,0 13.37551,-15.63468 22.43722,-22.82573c7.30132,-5.79407 34.41853,-8.08015 34.41853,-8.08015l-38.82768,44.0565z" fill="#ff8d7a"/><path d="M148.53506,154.66172l38.38726,-43.69798l-15.90407,48.82825z" fill="#ffeeec"/><path d="M170.53688,160.54998l18.18805,-51.4198l8.09511,54.92125z" fill="#ff8d7a"/><path d="M195.30405,163.08869l-5.66733,-51.03938l28.72378,50.57706z" data-paper-data="{&quot;index&quot;:null}" fill="#ffeeec"/><path d="M218.52429,161.02849l-29.08231,-51.01748c0,0 26.08952,7.73993 32.06354,14.89476c7.41439,8.8799 17.33987,26.903 17.33987,26.903z" data-paper-data="{&quot;index&quot;:null}" fill="#ff8d7a"/></g><g stroke-width="0"><path d="M279.66071,155.94667c0,0 9.03175,-18.48716 16.00278,-27.7192c5.61678,-7.43856 31.29635,-16.44575 31.29635,-16.44575l-26.55126,52.37933z" fill="#66b8ff"/><path d="M301.20256,164.04017l26.21471,-51.92191l-3.16326,51.25555z" fill="#ffeeec"/><path d="M323.97791,164.22823l4.7251,-54.33668l21.59703,51.14139z" fill="#66b8ff"/><path d="M348.5912,160.48073l-18.27412,-47.9916l40.47937,41.7674z" data-paper-data="{&quot;index&quot;:null}" fill="#ffeeec"/><path d="M370.55467,152.66858l-40.9368,-42.10394c0,0 27.19659,0.95653 34.77266,6.38641c9.40271,6.73906 23.52718,21.70057 23.52718,21.70057z" data-paper-data="{&quot;index&quot;:null}" fill="#66b8ff"/></g><g stroke-width="0"><path d="M422.68541,182.95398c0,0 11.39902,-17.12921 19.53056,-25.35745c6.55184,-6.62977 33.1976,-12.1591 33.1976,-12.1591l-33.24994,48.4046z" fill="#66ffb9"/><path d="M442.96661,193.82728l32.85581,-47.99574l-9.91894,50.38603z" fill="#ffeeec"/><path d="M465.51673,197.02794l11.87483,-53.23336l14.63865,53.54983z" fill="#66ffb9"/><path d="M490.40948,196.5709l-11.76183,-49.98796l34.5955,46.75731z" data-paper-data="{&quot;index&quot;:null}" fill="#ffeeec"/><path d="M513.21366,191.73427l-35.00437,-47.15144c0,0 26.83076,4.5475 33.62156,10.93229c8.4281,7.9242 20.44821,24.62342 20.44821,24.62342z" data-paper-data="{&quot;index&quot;:null}" fill="#66ffb9"/></g></g></g></svg>