<svg version="1.1" xmlns="http://www.w3.org/2000/svg" xmlns:xlink="http://www.w3.org/1999/xlink" width="629.27385" height="198.80078" viewBox="0,0,629.27385,198.80078"><defs><linearGradient x1="48.26821" y1="231.68074" x2="48.26821" y2="274.16493" gradientUnits="userSpaceOnUse" id="color-1"><stop offset="0" stop-color="#000000"/><stop offset="1" stop-color="#454545"/></linearGradient><linearGradient x1="48.26944" y1="245.23758" x2="48.26944" y2="261.37685" gradientUnits="userSpaceOnUse" id="color-2"><stop offset="0" stop-color="#0f0f0f"/><stop offset="1" stop-color="#353535"/></linearGradient><linearGradient x1="125.41604" y1="231.45057" x2="125.41604" y2="273.93476" gradientUnits="userSpaceOnUse" id="color-3"><stop offset="0" stop-color="#a20101"/><stop offset="1" stop-color="#510000"/></linearGradient><linearGradient x1="125.41727" y1="245.00741" x2="125.41727" y2="261.14667" gradientUnits="userSpaceOnUse" id="color-4"><stop offset="0" stop-color="#a70101"/><stop offset="1" stop-color="#550000"/></linearGradient><linearGradient x1="197.25687" y1="232.58065" x2="197.25687" y2="275.06484" gradientUnits="userSpaceOnUse" id="color-5"><stop offset="0" stop-color="#307ed1"/><stop offset="1" stop-color="#1f5388"/></linearGradient><linearGradient x1="197.2581" y1="246.13749" x2="197.2581" y2="262.27675" gradientUnits="userSpaceOnUse" id="color-6"><stop offset="0" stop-color="#307ed1"/><stop offset="1" stop-color="#1f548a"/></linearGradient><linearGradient x1="347.64852" y1="232.99522" x2="347.64852" y2="275.47941" gradientUnits="userSpaceOnUse" id="color-7"><stop offset="0" stop-color="#171717"/><stop offset="1" stop-color="#b1b1b1"/></linearGradient><linearGradient x1="347.64975" y1="246.55206" x2="347.64975" y2="262.69132" gradientUnits="userSpaceOnUse" id="color-8"><stop offset="0" stop-color="#0d0d0d"/><stop offset="1" stop-color="#a9a9a9"/></linearGradient><linearGradient x1="428.26911" y1="233.45591" x2="428.26911" y2="275.9401" gradientUnits="userSpaceOnUse" id="color-9"><stop offset="0" stop-color="#ff0501"/><stop offset="1" stop-color="#ffab00"/></linearGradient><linearGradient x1="428.27034" y1="246.55206" x2="428.27034" y2="262.69132" gradientUnits="userSpaceOnUse" id="color-10"><stop offset="0" stop-color="#ff0600"/><stop offset="1" stop-color="#ffa401"/></linearGradient><linearGradient x1="48.26821" y1="295.68074" x2="48.26821" y2="338.16493" gradientUnits="userSpaceOnUse" id="color-11"><stop offset="0" stop-color="#3fff00"/><stop offset="1" stop-color="#259001"/></linearGradient><linearGradient x1="48.26944" y1="309.23758" x2="48.26944" y2="325.37685" gradientUnits="userSpaceOnUse" id="color-12"><stop offset="0" stop-color="#3efb00"/><stop offset="1" stop-color="#259201"/></linearGradient><linearGradient x1="272" y1="233.62501" x2="272" y2="276.37501" gradientUnits="userSpaceOnUse" id="color-13"><stop offset="0" stop-color="#000000"/><stop offset="1" stop-color="#454545"/></linearGradient><linearGradient x1="271.75108" y1="248.33281" x2="271.75108" y2="262.33415" gradientUnits="userSpaceOnUse" id="color-14"><stop offset="0" stop-color="#0f0f0f"/><stop offset="1" stop-color="#353535"/></linearGradient><linearGradient x1="124.90965" y1="295.18533" x2="124.90965" y2="337.525" gradientUnits="userSpaceOnUse" id="color-15"><stop offset="0" stop-color="#ffffff"/><stop offset="1" stop-color="#a2a2a2"/></linearGradient><linearGradient x1="124.91087" y1="308.69605" x2="124.91087" y2="324.78042" gradientUnits="userSpaceOnUse" id="color-16"><stop offset="0" stop-color="#ffffff"/><stop offset="1" stop-color="#a4a4a4"/></linearGradient><linearGradient x1="26.02114" y1="316.02723" x2="71.38704" y2="316.02723" gradientUnits="userSpaceOnUse" id="color-17"><stop offset="0" stop-color="#0044ff"/><stop offset="1" stop-color="#94b1ff"/></linearGradient><linearGradient x1="48.70538" y1="307.99891" x2="48.70538" y2="324.85863" gradientUnits="userSpaceOnUse" id="color-18"><stop offset="0" stop-color="#0044ff"/><stop offset="1" stop-color="#94b1ff"/></linearGradient></defs><g transform="translate(48.71558,-208.19922)"><g data-paper-data="{&quot;isPaintingLayer&quot;:true}" stroke="none" stroke-miterlimit="10" stroke-dasharray="" stroke-dashoffset="0" style="mix-blend-mode: normal"><path d="M-24.42648,220.96614c28.89011,-15.40187 87.44411,-12.56052 87.44411,-12.56052l394.94132,1.25276c0,0 62.79625,-1.79756 94.11969,13.24095c31.3233,15.03845 28.19611,42.32863 28.19611,42.32863l0.23984,34.57577c0,0 2.33287,33.20206 -27.09828,48.49171c-29.43115,15.28965 -92.93502,12.75503 -92.93502,12.75503l-402.5594,0.73025c0,0 -52.8199,0.77887 -78.84273,-12.74714c-26.02283,-13.52596 -25.45736,-41.46519 -25.45736,-41.46519l-2.02004,-39.76502c0,0 -4.91849,-31.43546 23.9718,-46.83726z" data-paper-data="{&quot;origRot&quot;:0,&quot;index&quot;:null}" fill="#202020" fill-rule="evenodd" stroke-width="1" stroke-linecap="round" stroke-linejoin="round" opacity="0.42445"/><path d="M105.27416,237.76622c1.92445,-3.83791 5.82488,-3.12989 5.82488,-3.12989l26.30803,0.31217c0,0 4.18301,-0.44792 6.26955,3.29944c2.08652,3.74735 1.87822,10.54765 1.87822,10.54765l0.01597,8.61576c0,0 0.1554,8.27345 -1.80508,12.08339c-1.96049,3.80994 -6.19064,3.17836 -6.19064,3.17836l-26.81549,0.18197c0,0 -3.51847,0.19408 -5.25192,-3.1764c-1.73345,-3.37046 -1.69577,-10.33249 -1.69577,-10.33249l-0.13456,-9.90883c0,0 -0.32763,-7.83323 1.59682,-11.67113z" data-paper-data="{&quot;origRot&quot;:0,&quot;index&quot;:null}" fill="#000000" fill-rule="evenodd" stroke-width="1" stroke-linecap="round" stroke-linejoin="round" opacity="0.42445"/><path d="M105.67346,300.275c1.92445,-3.83791 5.82488,-3.12989 5.82488,-3.12989l26.30803,0.31217c0,0 4.18302,-0.44792 6.26955,3.29944c2.08652,3.74735 1.87822,10.54765 1.87822,10.54765l0.01597,8.61576c0,0 0.1554,8.27345 -1.80508,12.08339c-1.96049,3.80995 -6.19063,3.17836 -6.19063,3.17836l-26.81549,0.18197c0,0 -3.51847,0.19408 -5.25191,-3.1764c-1.73345,-3.37047 -1.69578,-10.33249 -1.69578,-10.33249l-0.13456,-9.90883c0,0 -0.32764,-7.83324 1.59682,-11.67113z" data-paper-data="{&quot;origRot&quot;:0,&quot;index&quot;:null}" fill="#000000" fill-rule="evenodd" stroke-width="1" stroke-linecap="round" stroke-linejoin="round" opacity="0.42445"/><path d="M178.51791,238.16552c1.92445,-3.83791 5.82488,-3.12989 5.82488,-3.12989l26.30803,0.31217c0,0 4.18302,-0.44792 6.26955,3.29944c2.08652,3.74735 1.87822,10.54765 1.87822,10.54765l0.01597,8.61576c0,0 0.1554,8.27345 -1.80508,12.08339c-1.96049,3.80994 -6.19064,3.17836 -6.19064,3.17836l-26.81549,0.18197c0,0 -3.51847,0.19408 -5.25191,-3.17639c-1.73344,-3.37047 -1.69577,-10.33249 -1.69577,-10.33249l-0.13456,-9.90884c0,0 -0.32763,-7.83323 1.59682,-11.67113z" data-paper-data="{&quot;origRot&quot;:0,&quot;index&quot;:null}" fill="#000000" fill-rule="evenodd" stroke-width="1" stroke-linecap="round" stroke-linejoin="round" opacity="0.42445"/><path d="M178.91721,300.6743c1.92445,-3.83791 5.82488,-3.12989 5.82488,-3.12989l26.30803,0.31217c0,0 4.18302,-0.44792 6.26955,3.29944c2.08652,3.74735 1.87822,10.54765 1.87822,10.54765l0.01598,8.61575c0,0 0.1554,8.27345 -1.80509,12.08339c-1.96049,3.80995 -6.19063,3.17836 -6.19063,3.17836l-26.81549,0.18197c0,0 -3.51847,0.19408 -5.25191,-3.17639c-1.73344,-3.37047 -1.69577,-10.33249 -1.69577,-10.33249l-0.13456,-9.90884c0,0 -0.32763,-7.83324 1.59682,-11.67113z" data-paper-data="{&quot;origRot&quot;:0,&quot;index&quot;:null}" fill="#000000" fill-rule="evenodd" stroke-width="1" stroke-linecap="round" stroke-linejoin="round" opacity="0.42445"/><path d="M252.92774,301.07358c1.92445,-3.83791 5.82488,-3.12989 5.82488,-3.12989l26.30803,0.31217c0,0 4.18301,-0.44792 6.26955,3.29944c2.08653,3.74735 1.87822,10.54765 1.87822,10.54765l0.01597,8.61575c0,0 0.1554,8.27345 -1.80508,12.08339c-1.96048,3.80995 -6.19064,3.17836 -6.19064,3.17836l-26.81549,0.18197c0,0 -3.51847,0.19408 -5.25191,-3.17639c-1.73344,-3.37047 -1.69577,-10.33249 -1.69577,-10.33249l-0.13456,-9.90884c0,0 -0.32763,-7.83324 1.59682,-11.67113z" data-paper-data="{&quot;origRot&quot;:0,&quot;index&quot;:null}" fill="#000000" fill-rule="evenodd" stroke-width="1" stroke-linecap="round" stroke-linejoin="round" opacity="0.42445"/><path d="M328.07255,238.96412c1.92445,-3.83791 5.82488,-3.12989 5.82488,-3.12989l26.30803,0.31217c0,0 4.18302,-0.44792 6.26955,3.29944c2.08652,3.74735 1.87821,10.54765 1.87821,10.54765l0.01598,8.61576c0,0 0.1554,8.27345 -1.80509,12.08339c-1.96049,3.80994 -6.19063,3.17836 -6.19063,3.17836l-26.81549,0.18197c0,0 -3.51847,0.19408 -5.25191,-3.17639c-1.73345,-3.37047 -1.69577,-10.33249 -1.69577,-10.33249l-0.13456,-9.90884c0,0 -0.32763,-7.83323 1.59682,-11.67113z" data-paper-data="{&quot;origRot&quot;:0,&quot;index&quot;:null}" fill="#000000" fill-rule="evenodd" stroke-width="1" stroke-linecap="round" stroke-linejoin="round" opacity="0.42445"/><path d="M328.47184,301.4729c1.92444,-3.83791 5.82488,-3.12989 5.82488,-3.12989l26.30803,0.31217c0,0 4.18302,-0.44792 6.26955,3.29944c2.08652,3.74735 1.87822,10.54765 1.87822,10.54765l0.01598,8.61575c0,0 0.1554,8.27345 -1.80509,12.08339c-1.96049,3.80995 -6.19063,3.17836 -6.19063,3.17836l-26.81549,0.18197c0,0 -3.51847,0.19408 -5.25191,-3.17639c-1.73344,-3.37047 -1.69578,-10.33249 -1.69578,-10.33249l-0.13456,-9.90884c0,0 -0.32763,-7.83324 1.59682,-11.67113z" data-paper-data="{&quot;origRot&quot;:0,&quot;index&quot;:null}" fill="#000000" fill-rule="evenodd" stroke-width="1" stroke-linecap="round" stroke-linejoin="round" opacity="0.42445"/><path d="M408.98414,238.59663c1.92444,-3.83791 5.82488,-3.12989 5.82488,-3.12989l26.30803,0.31217c0,0 4.18301,-0.44792 6.26955,3.29944c2.08653,3.74735 1.87821,10.54765 1.87821,10.54765l0.01598,8.61576c0,0 0.1554,8.27345 -1.80508,12.08339c-1.96049,3.80994 -6.19064,3.17836 -6.19064,3.17836l-26.81549,0.18197c0,0 -3.51847,0.19408 -5.25191,-3.17639c-1.73345,-3.37047 -1.69578,-10.33249 -1.69578,-10.33249l-0.13456,-9.90884c0,0 -0.32764,-7.83323 1.59682,-11.67113z" data-paper-data="{&quot;origRot&quot;:0,&quot;index&quot;:null}" fill="#000000" fill-rule="evenodd" stroke-width="1" stroke-linecap="round" stroke-linejoin="round" opacity="0.42445"/><path d="M409.38344,301.10541c1.92445,-3.83791 5.82488,-3.12989 5.82488,-3.12989l26.30803,0.31217c0,0 4.18301,-0.44792 6.26955,3.29944c2.08652,3.74735 1.87821,10.54765 1.87821,10.54765l0.01598,8.61575c0,0 0.1554,8.27345 -1.80508,12.08339c-1.96049,3.80995 -6.19064,3.17836 -6.19064,3.17836l-26.81549,0.18197c0,0 -3.51847,0.19408 -5.25192,-3.17639c-1.73344,-3.37047 -1.69577,-10.33249 -1.69577,-10.33249l-0.13456,-9.90884c0,0 -0.32763,-7.83324 1.59682,-11.67113z" data-paper-data="{&quot;origRot&quot;:0,&quot;index&quot;:null}" fill="#000000" fill-rule="evenodd" stroke-width="1" stroke-linecap="round" stroke-linejoin="round" opacity="0.42445"/><path d="M28.56398,300.12631c1.92444,-3.83791 5.82488,-3.12989 5.82488,-3.12989l26.30803,0.31217c0,0 4.18302,-0.44792 6.26955,3.29944c2.08652,3.74735 1.87821,10.54765 1.87821,10.54765l0.01597,8.61576c0,0 0.1554,8.27345 -1.80508,12.08339c-1.96049,3.80995 -6.19063,3.17836 -6.19063,3.17836l-26.81549,0.18197c0,0 -3.51847,0.19408 -5.25191,-3.1764c-1.73344,-3.37047 -1.69578,-10.33249 -1.69578,-10.33249l-0.13456,-9.90883c0,0 -0.32763,-7.83324 1.59682,-11.67113z" data-paper-data="{&quot;origRot&quot;:0,&quot;index&quot;:null}" fill="#000000" fill-rule="evenodd" stroke-width="1" stroke-linecap="round" stroke-linejoin="round" opacity="0.42445"/><g><path d="M28.62537,237.61755c1.92444,-3.83791 5.82487,-3.12989 5.82487,-3.12989l26.30803,0.31217c0,0 4.18302,-0.44792 6.26955,3.29944c2.08652,3.74735 1.87821,10.54765 1.87821,10.54765l0.01597,8.61576c0,0 0.1554,8.27345 -1.80508,12.08339c-1.96049,3.80995 -6.19064,3.17836 -6.19064,3.17836l-26.81549,0.18197c0,0 -3.51847,0.19408 -5.25191,-3.1764c-1.73344,-3.37047 -1.69578,-10.33249 -1.69578,-10.33249l-0.13456,-9.90883c0,0 -0.32764,-7.83323 1.59682,-11.67113z" data-paper-data="{&quot;origRot&quot;:0,&quot;index&quot;:null}" fill="#000000" fill-rule="evenodd" stroke-width="1" stroke-linecap="round" stroke-linejoin="round" opacity="0.42445"/><path d="M12.50456,283.51743v-69.42003h65.92212v69.42003z" fill="none" fill-rule="nonzero" stroke-width="0" stroke-linecap="butt" stroke-linejoin="miter"/><path d="M12.50458,283.51743v-69.42003h65.92212v69.42003z" fill="none" fill-rule="nonzero" stroke-width="0" stroke-linecap="butt" stroke-linejoin="miter"/><path d="M35.93435,231.68074h24.66776c5.18043,0 9.37974,4.06897 9.37974,9.08863v24.30694c0,5.01928 -4.19929,9.08863 -9.37974,9.08863h-24.66776c-5.18031,0 -9.37982,-4.06936 -9.37982,-9.08863v-24.30694c0,-5.01965 4.19951,-9.08863 9.37982,-9.08863z" fill="url(#color-1)" fill-rule="evenodd" stroke-width="14" stroke-linecap="round" stroke-linejoin="round"/><path d="M33.17018,252.92283c0,-8.33841 6.75961,-15.09802 15.09802,-15.09802c8.33841,0 15.09802,6.75961 15.09802,15.09802c0,8.33841 -6.75961,15.09802 -15.09802,15.09802c-8.33841,0 -15.09802,-6.75961 -15.09802,-15.09802z" fill="#ffffff" fill-rule="nonzero" stroke-width="0" stroke-linecap="butt" stroke-linejoin="miter"/><path d="M40.1998,253.30721c0,-4.45674 3.6129,-8.06963 8.06963,-8.06963c4.45674,0 8.06963,3.6129 8.06963,8.06963c0,4.45674 -3.6129,8.06963 -8.06963,8.06963c-4.45674,0 -8.06963,-3.6129 -8.06963,-8.06963z" fill="url(#color-2)" fill-rule="nonzero" stroke-width="0" stroke-linecap="butt" stroke-linejoin="miter"/><path d="M47.19281,251.40131c0,-1.75942 1.4263,-3.18573 3.18573,-3.18573c1.75942,0 3.18573,1.42631 3.18573,3.18573c0,1.75942 -1.42631,3.18573 -3.18573,3.18573c-1.75942,0 -3.18573,-1.4263 -3.18573,-3.18573z" fill="#ffffff" fill-rule="nonzero" stroke-width="0" stroke-linecap="butt" stroke-linejoin="miter"/></g><path d="M105.7732,237.38738c1.92444,-3.83791 5.82487,-3.12989 5.82487,-3.12989l26.30803,0.31217c0,0 4.18302,-0.44792 6.26955,3.29944c2.08652,3.74735 1.87821,10.54765 1.87821,10.54765l0.01597,8.61576c0,0 0.1554,8.27345 -1.80508,12.08339c-1.96049,3.80995 -6.19064,3.17836 -6.19064,3.17836l-26.81549,0.18197c0,0 -3.51847,0.19408 -5.25191,-3.1764c-1.73344,-3.37047 -1.69578,-10.33249 -1.69578,-10.33249l-0.13456,-9.90883c0,0 -0.32764,-7.83323 1.59682,-11.67113z" data-paper-data="{&quot;origRot&quot;:0,&quot;index&quot;:null}" fill="#000000" fill-rule="evenodd" stroke-width="1" stroke-linecap="round" stroke-linejoin="round" opacity="0.42445"/><path d="M89.65239,283.28727v-69.42003h65.92212v69.42003z" fill="none" fill-rule="nonzero" stroke-width="0" stroke-linecap="butt" stroke-linejoin="miter"/><path d="M89.65241,283.28727v-69.42003h65.92212v69.42003z" fill="none" fill-rule="nonzero" stroke-width="0" stroke-linecap="butt" stroke-linejoin="miter"/><path d="M113.08218,231.45057h24.66776c5.18043,0 9.37974,4.06897 9.37974,9.08863v24.30694c0,5.01928 -4.19929,9.08863 -9.37974,9.08863h-24.66776c-5.18031,0 -9.37982,-4.06936 -9.37982,-9.08863v-24.30694c0,-5.01965 4.19951,-9.08863 9.37982,-9.08863z" fill="url(#color-3)" fill-rule="evenodd" stroke-width="14" stroke-linecap="round" stroke-linejoin="round"/><path d="M110.31801,252.69266c0,-8.33841 6.75961,-15.09802 15.09802,-15.09802c8.33841,0 15.09802,6.75961 15.09802,15.09802c0,8.33841 -6.75961,15.09802 -15.09802,15.09802c-8.33841,0 -15.09802,-6.75961 -15.09802,-15.09802z" fill="#ffffff" fill-rule="nonzero" stroke-width="0" stroke-linecap="butt" stroke-linejoin="miter"/><path d="M117.34763,253.07704c0,-4.45674 3.6129,-8.06963 8.06963,-8.06963c4.45674,0 8.06963,3.6129 8.06963,8.06963c0,4.45674 -3.6129,8.06963 -8.06963,8.06963c-4.45674,0 -8.06963,-3.6129 -8.06963,-8.06963z" fill="url(#color-4)" fill-rule="nonzero" stroke-width="0" stroke-linecap="butt" stroke-linejoin="miter"/><path d="M124.34064,251.17114c0,-1.75942 1.4263,-3.18573 3.18573,-3.18573c1.75942,0 3.18573,1.42631 3.18573,3.18573c0,1.75942 -1.42631,3.18573 -3.18573,3.18573c-1.75942,0 -3.18573,-1.4263 -3.18573,-3.18573z" fill="#ffffff" fill-rule="nonzero" stroke-width="0" stroke-linecap="butt" stroke-linejoin="miter"/><path d="M177.61403,238.51746c1.92444,-3.83791 5.82487,-3.12989 5.82487,-3.12989l26.30803,0.31217c0,0 4.18302,-0.44792 6.26955,3.29944c2.08652,3.74735 1.87821,10.54765 1.87821,10.54765l0.01597,8.61576c0,0 0.1554,8.27345 -1.80508,12.08339c-1.96049,3.80995 -6.19064,3.17836 -6.19064,3.17836l-26.81549,0.18197c0,0 -3.51847,0.19408 -5.25191,-3.1764c-1.73344,-3.37047 -1.69578,-10.33249 -1.69578,-10.33249l-0.13456,-9.90883c0,0 -0.32764,-7.83323 1.59682,-11.67113z" data-paper-data="{&quot;origRot&quot;:0,&quot;index&quot;:null}" fill="#000000" fill-rule="evenodd" stroke-width="1" stroke-linecap="round" stroke-linejoin="round" opacity="0.42445"/><path d="M161.49322,284.41733v-69.42003h65.92212v69.42003z" fill="none" fill-rule="nonzero" stroke-width="0" stroke-linecap="butt" stroke-linejoin="miter"/><path d="M161.49324,284.41733v-69.42003h65.92212v69.42003z" fill="none" fill-rule="nonzero" stroke-width="0" stroke-linecap="butt" stroke-linejoin="miter"/><path d="M184.92301,232.58065h24.66776c5.18043,0 9.37974,4.06897 9.37974,9.08863v24.30694c0,5.01928 -4.19929,9.08863 -9.37974,9.08863h-24.66776c-5.18031,0 -9.37982,-4.06936 -9.37982,-9.08863v-24.30694c0,-5.01965 4.19951,-9.08863 9.37982,-9.08863z" fill="url(#color-5)" fill-rule="evenodd" stroke-width="14" stroke-linecap="round" stroke-linejoin="round"/><path d="M182.15884,253.82274c0,-8.33841 6.75961,-15.09802 15.09802,-15.09802c8.33841,0 15.09802,6.75961 15.09802,15.09802c0,8.33841 -6.75961,15.09802 -15.09802,15.09802c-8.33841,0 -15.09802,-6.75961 -15.09802,-15.09802z" fill="#ffffff" fill-rule="nonzero" stroke-width="0" stroke-linecap="butt" stroke-linejoin="miter"/><path d="M189.18846,254.20712c0,-4.45674 3.6129,-8.06963 8.06963,-8.06963c4.45674,0 8.06963,3.6129 8.06963,8.06963c0,4.45674 -3.6129,8.06963 -8.06963,8.06963c-4.45674,0 -8.06963,-3.6129 -8.06963,-8.06963z" fill="url(#color-6)" fill-rule="nonzero" stroke-width="0" stroke-linecap="butt" stroke-linejoin="miter"/><path d="M196.18147,252.30122c0,-1.75942 1.4263,-3.18573 3.18573,-3.18573c1.75942,0 3.18573,1.42631 3.18573,3.18573c0,1.75942 -1.42631,3.18573 -3.18573,3.18573c-1.75942,0 -3.18573,-1.4263 -3.18573,-3.18573z" fill="#ffffff" fill-rule="nonzero" stroke-width="0" stroke-linecap="butt" stroke-linejoin="miter"/><path d="M328.00568,238.93203c1.92444,-3.83791 5.82487,-3.12989 5.82487,-3.12989l26.30803,0.31217c0,0 4.18302,-0.44792 6.26955,3.29944c2.08652,3.74735 1.87821,10.54765 1.87821,10.54765l0.01597,8.61576c0,0 0.1554,8.27345 -1.80508,12.08339c-1.96049,3.80995 -6.19064,3.17836 -6.19064,3.17836l-26.81549,0.18197c0,0 -3.51847,0.19408 -5.25191,-3.1764c-1.73344,-3.37047 -1.69578,-10.33249 -1.69578,-10.33249l-0.13456,-9.90883c0,0 -0.32764,-7.83323 1.59682,-11.67113z" data-paper-data="{&quot;origRot&quot;:0,&quot;index&quot;:null}" fill="#000000" fill-rule="evenodd" stroke-width="1" stroke-linecap="round" stroke-linejoin="round" opacity="0.42445"/><path d="M311.88487,284.83191v-69.42003h65.92212v69.42003z" fill="none" fill-rule="nonzero" stroke-width="0" stroke-linecap="butt" stroke-linejoin="miter"/><path d="M311.88489,284.83191v-69.42003h65.92212v69.42003z" fill="none" fill-rule="nonzero" stroke-width="0" stroke-linecap="butt" stroke-linejoin="miter"/><path d="M335.31466,232.99522h24.66776c5.18043,0 9.37974,4.06897 9.37974,9.08863v24.30694c0,5.01928 -4.19929,9.08863 -9.37974,9.08863h-24.66776c-5.18031,0 -9.37982,-4.06936 -9.37982,-9.08863v-24.30694c0,-5.01965 4.19951,-9.08863 9.37982,-9.08863z" fill="url(#color-7)" fill-rule="evenodd" stroke-width="14" stroke-linecap="round" stroke-linejoin="round"/><path d="M332.55048,254.23731c0,-8.33841 6.75961,-15.09802 15.09802,-15.09802c8.33841,0 15.09802,6.75961 15.09802,15.09802c0,8.33841 -6.75961,15.09802 -15.09802,15.09802c-8.33841,0 -15.09802,-6.75961 -15.09802,-15.09802z" fill="#ffffff" fill-rule="nonzero" stroke-width="0" stroke-linecap="butt" stroke-linejoin="miter"/><path d="M339.58011,254.62169c0,-4.45674 3.6129,-8.06963 8.06963,-8.06963c4.45674,0 8.06963,3.6129 8.06963,8.06963c0,4.45674 -3.6129,8.06963 -8.06963,8.06963c-4.45674,0 -8.06963,-3.6129 -8.06963,-8.06963z" fill="url(#color-8)" fill-rule="nonzero" stroke-width="0" stroke-linecap="butt" stroke-linejoin="miter"/><path d="M346.57312,252.71579c0,-1.75942 1.4263,-3.18573 3.18573,-3.18573c1.75942,0 3.18573,1.42631 3.18573,3.18573c0,1.75942 -1.42631,3.18573 -3.18573,3.18573c-1.75942,0 -3.18573,-1.4263 -3.18573,-3.18573z" fill="#ffffff" fill-rule="nonzero" stroke-width="0" stroke-linecap="butt" stroke-linejoin="miter"/><path d="M408.62627,239.39272c1.92444,-3.83791 5.82487,-3.12989 5.82487,-3.12989l26.30803,0.31217c0,0 4.18302,-0.44792 6.26955,3.29944c2.08652,3.74735 1.87821,10.54765 1.87821,10.54765l0.01597,8.61576c0,0 0.1554,8.27345 -1.80508,12.08339c-1.96049,3.80995 -6.19064,3.17836 -6.19064,3.17836l-26.81549,0.18197c0,0 -3.51847,0.19408 -5.25191,-3.1764c-1.73344,-3.37047 -1.69578,-10.33249 -1.69578,-10.33249l-0.13456,-9.90883c0,0 -0.32764,-7.83323 1.59682,-11.67113z" data-paper-data="{&quot;origRot&quot;:0,&quot;index&quot;:null}" fill="#000000" fill-rule="evenodd" stroke-width="1" stroke-linecap="round" stroke-linejoin="round" opacity="0.42445"/><path d="M392.50546,285.2926v-69.42003h65.92212v69.42003z" fill="none" fill-rule="nonzero" stroke-width="0" stroke-linecap="butt" stroke-linejoin="miter"/><path d="M392.50548,285.2926v-69.42003h65.92212v69.42003z" fill="none" fill-rule="nonzero" stroke-width="0" stroke-linecap="butt" stroke-linejoin="miter"/><path d="M415.93525,233.45591h24.66776c5.18043,0 9.37974,4.06897 9.37974,9.08863v24.30694c0,5.01928 -4.19929,9.08863 -9.37974,9.08863h-24.66776c-5.18031,0 -9.37982,-4.06936 -9.37982,-9.08863v-24.30694c0,-5.01965 4.19951,-9.08863 9.37982,-9.08863z" fill="url(#color-9)" fill-rule="evenodd" stroke-width="14" stroke-linecap="round" stroke-linejoin="round"/><path d="M413.17108,254.698c0,-8.33841 6.75961,-15.09802 15.09802,-15.09802c8.33841,0 15.09802,6.75961 15.09802,15.09802c0,8.33841 -6.75961,15.09802 -15.09802,15.09802c-8.33841,0 -15.09802,-6.75961 -15.09802,-15.09802z" fill="#ffffff" fill-rule="nonzero" stroke-width="0" stroke-linecap="butt" stroke-linejoin="miter"/><path d="M420.2007,254.62169c0,-4.45674 3.6129,-8.06963 8.06963,-8.06963c4.45674,0 8.06963,3.6129 8.06963,8.06963c0,4.45674 -3.6129,8.06963 -8.06963,8.06963c-4.45674,0 -8.06963,-3.6129 -8.06963,-8.06963z" fill="url(#color-10)" fill-rule="nonzero" stroke-width="0" stroke-linecap="butt" stroke-linejoin="miter"/><path d="M427.19371,253.17648c0,-1.75942 1.4263,-3.18573 3.18573,-3.18573c1.75942,0 3.18573,1.42631 3.18573,3.18573c0,1.75942 -1.42631,3.18573 -3.18573,3.18573c-1.75942,0 -3.18573,-1.4263 -3.18573,-3.18573z" fill="#ffffff" fill-rule="nonzero" stroke-width="0" stroke-linecap="butt" stroke-linejoin="miter"/><path d="M28.62537,301.61753c1.92444,-3.83791 5.82487,-3.12989 5.82487,-3.12989l26.30803,0.31217c0,0 4.18302,-0.44792 6.26955,3.29944c2.08652,3.74735 1.87821,10.54765 1.87821,10.54765l0.01597,8.61576c0,0 0.1554,8.27345 -1.80508,12.08339c-1.96049,3.80995 -6.19064,3.17836 -6.19064,3.17836l-26.81549,0.18197c0,0 -3.51847,0.19408 -5.25191,-3.1764c-1.73344,-3.37047 -1.69578,-10.33249 -1.69578,-10.33249l-0.13456,-9.90883c0,0 -0.32764,-7.83323 1.59682,-11.67113z" data-paper-data="{&quot;origRot&quot;:0,&quot;index&quot;:null}" fill="#000000" fill-rule="evenodd" stroke-width="1" stroke-linecap="round" stroke-linejoin="round" opacity="0.42445"/><path d="M12.50456,347.51744v-69.42003h65.92212v69.42003z" fill="none" fill-rule="nonzero" stroke-width="0" stroke-linecap="butt" stroke-linejoin="miter"/><path d="M12.50458,347.51744v-69.42003h65.92212v69.42003z" fill="none" fill-rule="nonzero" stroke-width="0" stroke-linecap="butt" stroke-linejoin="miter"/><path d="M35.93435,295.68074h24.66776c5.18043,0 9.37974,4.06897 9.37974,9.08863v24.30694c0,5.01928 -4.19929,9.08863 -9.37974,9.08863h-24.66776c-5.18031,0 -9.37982,-4.06936 -9.37982,-9.08863v-24.30694c0,-5.01965 4.19951,-9.08863 9.37982,-9.08863z" fill="url(#color-11)" fill-rule="evenodd" stroke-width="14" stroke-linecap="round" stroke-linejoin="round"/><path d="M33.17018,316.92283c0,-8.33841 6.75961,-15.09802 15.09802,-15.09802c8.33841,0 15.09802,6.75961 15.09802,15.09802c0,8.33841 -6.75961,15.09802 -15.09802,15.09802c-8.33841,0 -15.09802,-6.75961 -15.09802,-15.09802z" fill="#ffffff" fill-rule="nonzero" stroke-width="0" stroke-linecap="butt" stroke-linejoin="miter"/><path d="M40.1998,317.30719c0,-4.45674 3.6129,-8.06963 8.06963,-8.06963c4.45674,0 8.06963,3.6129 8.06963,8.06963c0,4.45674 -3.6129,8.06963 -8.06963,8.06963c-4.45674,0 -8.06963,-3.6129 -8.06963,-8.06963z" fill="url(#color-12)" fill-rule="nonzero" stroke-width="0" stroke-linecap="butt" stroke-linejoin="miter"/><path d="M47.19281,315.4013c0,-1.75942 1.4263,-3.18573 3.18573,-3.18573c1.75942,0 3.18573,1.42631 3.18573,3.18573c0,1.75942 -1.42631,3.18573 -3.18573,3.18573c-1.75942,0 -3.18573,-1.4263 -3.18573,-3.18573z" fill="#ffffff" fill-rule="nonzero" stroke-width="0" stroke-linecap="butt" stroke-linejoin="miter"/><path d="M104.62537,301.61753c1.92444,-3.83791 5.82487,-3.12989 5.82487,-3.12989l26.30803,0.31217c0,0 4.18302,-0.44792 6.26955,3.29944c2.08652,3.74735 1.87821,10.54765 1.87821,10.54765l0.01597,8.61576c0,0 0.1554,8.27345 -1.80508,12.08339c-1.96049,3.80995 -6.19064,3.17836 -6.19064,3.17836l-26.81549,0.18197c0,0 -3.51847,0.19408 -5.25191,-3.1764c-1.73344,-3.37047 -1.69578,-10.33249 -1.69578,-10.33249l-0.13456,-9.90883c0,0 -0.32764,-7.83323 1.59682,-11.67113z" data-paper-data="{&quot;origRot&quot;:0,&quot;index&quot;:null}" fill="#000000" fill-rule="evenodd" stroke-width="1" stroke-linecap="round" stroke-linejoin="round" opacity="0.42445"/><path d="M88.50456,347.51744v-69.42003h65.92212v69.42003z" fill="none" fill-rule="nonzero" stroke-width="0" stroke-linecap="butt" stroke-linejoin="miter"/><path d="M88.50458,347.51744v-69.42003h65.92212v69.42003z" fill="none" fill-rule="nonzero" stroke-width="0" stroke-linecap="butt" stroke-linejoin="miter"/><g fill-rule="nonzero" stroke-width="0" stroke-linecap="butt" stroke-linejoin="miter"><path d="M250.625,255.00001c0,-11.80508 9.56991,-21.375 21.375,-21.375c11.80509,0 21.375,9.56992 21.375,21.375c0,11.80509 -9.56991,21.375 -21.375,21.375c-11.80509,0 -21.375,-9.56991 -21.375,-21.375z" fill="url(#color-13)"/><g><path d="M258.65198,255.00001c0,-7.23384 5.86418,-13.09802 13.09802,-13.09802c7.23384,0 13.09802,5.86418 13.09802,13.09802c0,7.23384 -5.86418,13.09802 -13.09802,13.09802c-7.23384,0 -13.09802,-5.86418 -13.09802,-13.09802z" fill="#ffffff"/><path d="M264.7504,255.33347c0,-3.86637 3.13431,-7.00066 7.00066,-7.00066c3.86636,0 7.00067,3.13431 7.00067,7.00066c0,3.86636 -3.13431,7.00066 -7.00067,7.00066c-3.86636,0 -7.00066,-3.13431 -7.00066,-7.00066z" fill="url(#color-14)"/><path d="M270.81707,253.68004c0,-1.52635 1.23736,-2.76372 2.76372,-2.76372c1.52636,0 2.76372,1.23736 2.76372,2.76372c0,1.52635 -1.23737,2.76373 -2.76372,2.76373c-1.52636,0 -2.76372,-1.23737 -2.76372,-2.76373z" fill="#ffffff"/></g></g><g><path d="M112.61776,295.18533h24.58385c5.16281,0 9.34783,4.05513 9.34783,9.05771c0,0 0,12.48233 0,16.95494c0,2.92861 0,7.26931 0,7.26931c0,5.00221 -4.18501,9.05771 -9.34783,9.05771h-24.58385c-5.16269,0 -9.34791,-4.05552 -9.34791,-9.05771v-24.22425c0,-5.00257 4.18522,-9.05771 9.34791,-9.05771z" fill="url(#color-15)" fill-rule="evenodd" stroke-width="14" stroke-linecap="round" stroke-linejoin="round"/><path d="M109.86298,316.35516c0,-8.31004 6.73662,-15.04666 15.04666,-15.04666c8.31004,0 15.04666,6.73662 15.04666,15.04666c0,8.31004 -6.73662,15.04666 -15.04666,15.04666c-8.31004,0 -15.04666,-6.73662 -15.04666,-15.04666z" fill="#ffffff" fill-rule="nonzero" stroke-width="0" stroke-linecap="butt" stroke-linejoin="miter"/><path d="M116.86869,316.73824c0,-4.44158 3.6006,-8.04218 8.04218,-8.04218c4.44158,0 8.04218,3.6006 8.04218,8.04218c0,4.44158 -3.6006,8.04218 -8.04218,8.04218c-4.44158,0 -8.04218,-3.6006 -8.04218,-8.04218z" fill="url(#color-16)" fill-rule="nonzero" stroke-width="0" stroke-linecap="butt" stroke-linejoin="miter"/><path d="M123.83791,314.83882c0,-1.75344 1.42145,-3.1749 3.1749,-3.1749c1.75344,0 3.1749,1.42146 3.1749,3.1749c0,1.75344 -1.42146,3.1749 -3.1749,3.1749c-1.75344,0 -3.1749,-1.42145 -3.1749,-3.1749z" fill="#f7f7f7" fill-rule="nonzero" stroke-width="0" stroke-linecap="butt" stroke-linejoin="miter"/></g><path d="M12.09397,347.23758v-72.51892h68.86486v72.51892z" fill="none" fill-rule="nonzero" stroke-width="0" stroke-linecap="butt" stroke-linejoin="miter"/><path d="M12.09399,347.23758v-72.51892h68.86486v72.51892z" fill="none" fill-rule="nonzero" stroke-width="0" stroke-linecap="butt" stroke-linejoin="miter"/><path d="M-23.5,407v-163.02703h156v163.02703z" fill="none" fill-rule="nonzero" stroke-width="0" stroke-linecap="butt" stroke-linejoin="miter"/><g><path d="M35.81967,293.83689h25.76892c5.41168,0 9.79844,4.25061 9.79844,9.49434c0,0 0,13.08404 0,17.77226c0,3.06978 0,7.61973 0,7.61973c0,5.24334 -4.38675,9.49434 -9.79844,9.49434h-25.76892c-5.41156,0 -9.79853,-4.25101 -9.79853,-9.49434v-25.39199c0,-5.24372 4.38697,-9.49434 9.79853,-9.49434z" fill="url(#color-17)" fill-rule="evenodd" stroke-width="14" stroke-linecap="round" stroke-linejoin="round"/><path d="M32.9321,316.02723c0,-8.71063 7.06136,-15.77199 15.77199,-15.77199c8.71063,0 15.77199,7.06136 15.77199,15.77199c0,8.71063 -7.06136,15.77199 -15.77199,15.77199c-8.71063,0 -15.77199,-7.06136 -15.77199,-15.77199z" fill="#ffffff" fill-rule="nonzero" stroke-width="0" stroke-linecap="butt" stroke-linejoin="miter"/><path d="M40.27552,316.42877c0,-4.65569 3.77417,-8.42986 8.42986,-8.42986c4.65569,0 8.42986,3.77417 8.42986,8.42986c0,4.65569 -3.77417,8.42986 -8.42986,8.42986c-4.65569,0 -8.42986,-3.77417 -8.42986,-8.42986z" fill="url(#color-18)" fill-rule="nonzero" stroke-width="0" stroke-linecap="butt" stroke-linejoin="miter"/><path d="M47.58069,314.43778c0,-1.83796 1.48997,-3.32794 3.32794,-3.32794c1.83796,0 3.32794,1.48998 3.32794,3.32794c0,1.83796 -1.48998,3.32794 -3.32794,3.32794c-1.83796,0 -3.32794,-1.48997 -3.32794,-3.32794z" fill="#f7f7f7" fill-rule="nonzero" stroke-width="0" stroke-linecap="butt" stroke-linejoin="miter"/></g></g></g></svg>