<svg version="1.1" xmlns="http://www.w3.org/2000/svg" xmlns:xlink="http://www.w3.org/1999/xlink" width="497.20529" height="180.31125" viewBox="0,0,497.20529,180.31125"><defs><radialGradient cx="113.4815" cy="293.8" r="31.5" gradientUnits="userSpaceOnUse" id="color-1"><stop offset="0" stop-color="#c0fdf8"/><stop offset="1" stop-color="#0ac4f5"/></radialGradient><radialGradient cx="212.48151" cy="294.80001" r="31.5" gradientUnits="userSpaceOnUse" id="color-2"><stop offset="0" stop-color="#c0fdf8"/><stop offset="1" stop-color="#0ac4f5"/></radialGradient><radialGradient cx="313.48151" cy="292.80001" r="31.5" gradientUnits="userSpaceOnUse" id="color-3"><stop offset="0" stop-color="#c0fdf8"/><stop offset="1" stop-color="#0ac4f5"/></radialGradient></defs><g transform="translate(15.87149,-166.67811)"><g data-paper-data="{&quot;isPaintingLayer&quot;:true}" fill-rule="nonzero" stroke-linecap="butt" stroke-linejoin="miter" stroke-miterlimit="10" stroke-dasharray="" stroke-dashoffset="0" style="mix-blend-mode: normal"><path d="M281.9815,251.6661l121,-80h69v78z" fill="#dd8f09" stroke="none" stroke-width="0"/><path d="M104.9815,343.3l-115,-91l486,-1l-116,86z" fill="#dd8f09" stroke="none" stroke-width="0"/><path d="M-15.87149,255.76857l6.84947,-8.60668l116.85651,90.9128l-6.84947,8.60668z" fill="#ce8508" stroke="none" stroke-width="0"/><path d="M-13.13214,252.8323l4.35876,-5.47698l116.35925,90.52593l-4.35876,5.47698z" fill="#b07207" stroke="none" stroke-width="0"/><path d="M360.97799,343.68137l-6.84947,-8.60669l116.85651,-90.91279l6.84947,8.60668z" data-paper-data="{&quot;index&quot;:null}" fill="#ce8508" stroke="none" stroke-width="0"/><path d="M358.73591,340.35823l-4.35876,-5.47699l116.35924,-90.52593l4.35876,5.47698z" data-paper-data="{&quot;index&quot;:null}" fill="#b07207" stroke="none" stroke-width="0"/><path d="M100.11131,346.98936l-0.1971,-10.99899l260.93748,-3.13649l0.19711,10.99899z" fill="#ce8508" stroke="none" stroke-width="0"/><path d="M100.59482,342.98306l-0.12542,-6.99936l259.82711,-3.12314l0.12543,6.99936z" fill="#b07207" stroke="none" stroke-width="0"/><g stroke="none" stroke-width="0"><path d="M-13.81059,257.77392l-0.26343,-10.99927l488.84763,-2.70533l0.26343,10.99927z" fill="#ce8508"/><path d="M-12.86629,253.76843l-0.16763,-6.99954l486.76741,-2.69382l0.16763,6.99954z" fill="#b07207"/></g><path d="M81.9815,293.8c0,-17.39697 14.10303,-31.5 31.5,-31.5c17.39697,0 31.5,14.10303 31.5,31.5c0,17.39697 -14.10303,31.5 -31.5,31.5c-17.39697,0 -31.5,-14.10303 -31.5,-31.5z" fill="url(#color-1)" stroke="#b07207" stroke-width="6"/><path d="M180.98151,294.80001c0,-17.39697 14.10303,-31.5 31.5,-31.5c17.39697,0 31.5,14.10303 31.5,31.5c0,17.39697 -14.10303,31.5 -31.5,31.5c-17.39697,0 -31.5,-14.10303 -31.5,-31.5z" fill="url(#color-2)" stroke="#b07207" stroke-width="6"/><path d="M281.98151,292.80001c0,-17.39697 14.10303,-31.5 31.5,-31.5c17.39697,0 31.5,14.10303 31.5,31.5c0,17.39697 -14.10303,31.5 -31.5,31.5c-17.39697,0 -31.5,-14.10303 -31.5,-31.5z" fill="url(#color-3)" stroke="#b07207" stroke-width="6"/><g stroke="none" stroke-width="0"><path d="M403.64158,172.77732l0.57555,-6.09921l75.1043,0.83443l-0.57555,6.09921z" fill="#ce8508"/><path d="M404.01067,170.5612l0.36626,-3.88132l74.78471,0.83087l-0.36626,3.88132z" fill="#b07207"/></g><g stroke="none" stroke-width="0"><path d="M481.3338,253.69773l-10.99927,0.04579l-2.70533,-84.9718l10.99927,-0.04579z" fill="#ce8508"/><path d="M477.32832,253.53359l-6.99954,0.02914l-2.69382,-84.61023l6.99954,-0.02914z" fill="#b07207"/></g><g stroke="none" stroke-width="0"><path d="M279.01123,254.0761l-8.12042,-4.12001l135.06096,-82.67327l8.12042,4.12001z" fill="#ce8508"/><path d="M276.34572,252.40201l-5.16754,-2.62183l134.48623,-82.32146l5.16754,2.62183z" fill="#b07207"/></g></g></g></svg>