<svg version="1.1" xmlns="http://www.w3.org/2000/svg" xmlns:xlink="http://www.w3.org/1999/xlink" width="69.30844" height="31.24317" viewBox="0,0,69.30844,31.24317"><g transform="translate(-205.53328,-164.37499)"><g data-paper-data="{&quot;isPaintingLayer&quot;:true}" stroke-width="1" stroke-miterlimit="10" stroke-dasharray="" stroke-dashoffset="0" style="mix-blend-mode: normal"><path d="M208.2085,166.9783c3.18196,-3.13236 9.63112,-2.5545 9.63112,-2.5545l43.49897,0.25478c0,0 6.9164,-0.36558 10.36637,2.69288c3.44996,3.05845 3.10553,8.6086 3.10553,8.6086l0.02642,7.03185c0,0 0.25694,6.75247 -2.98461,9.862c-3.24156,3.10953 -10.2359,2.59405 -10.2359,2.59405l-44.33804,0.14851c0,0 -5.8176,0.1584 -8.68376,-2.59245c-2.86616,-2.75084 -2.80388,-8.43298 -2.80388,-8.43298l-0.22249,-8.08721c0,0 -0.54172,-6.39319 2.64027,-9.52553z" data-paper-data="{&quot;origRot&quot;:0,&quot;index&quot;:null}" fill="#000000" fill-rule="evenodd" stroke="none" stroke-linecap="round" stroke-linejoin="round" opacity="0.42445"/><text transform="translate(214.99999,186.12499) scale(0.5,0.5)" font-size="40" xml:space="preserve" fill="#ffffff" fill-rule="nonzero" stroke="#ffffff" stroke-width="1" stroke-linecap="butt" stroke-linejoin="miter" stroke-miterlimit="10" stroke-dasharray="" stroke-dashoffset="0" font-family="Sans Serif" font-weight="normal" text-anchor="start" style="mix-blend-mode: normal"><tspan x="0" dy="0">trade</tspan></text></g></g></svg>