<svg version="1.1" xmlns="http://www.w3.org/2000/svg" xmlns:xlink="http://www.w3.org/1999/xlink" width="481.98195" height="384.09043" viewBox="0,0,481.98195,384.09043"><defs><linearGradient x1="240.08261" y1="196.31719" x2="240.08261" y2="359.98085" gradientUnits="userSpaceOnUse" id="color-1"><stop offset="0" stop-color="#212dff"/><stop offset="1" stop-color="#7aa5ff"/></linearGradient></defs><g transform="translate(0.90835,24.10956)"><g data-paper-data="{&quot;isPaintingLayer&quot;:true}" fill-rule="nonzero" stroke-linejoin="miter" stroke-miterlimit="10" stroke-dasharray="" stroke-dashoffset="0" style="mix-blend-mode: normal"><path d="M-0.90835,359.98087v-161.66366c0,0 41.52847,-0.99616 48.90177,-1.26539c8.01245,-0.29257 10.51435,0.14538 14.95521,-5.1086c1.84489,-2.18269 0.67904,-25.35956 0.74364,-27.23937c0.04844,-1.40955 -0.28031,-8.66184 3.85786,-12.26031c2.14949,-1.86915 5.31136,-2.2911 7.11798,-2.69801c4.02352,-0.90622 105.94242,-0.77804 133.75566,-1.52174c4.00272,-0.10703 6.52241,-4.07438 7.13524,-4.574c5.67254,-4.62462 4.56335,-6.00815 4.60922,-7.0802c0.14919,-3.48698 1.33167,-58.28608 1.19825,-62.13418c-0.1581,-4.55968 0.08777,-7.97652 1.42702,-9.47221c0.82859,-0.92538 3.62319,-4.4766 7.7309,-4.59224c5.00567,-0.14092 55.53434,0.01159 58.79956,0.35482c2.65043,0.27861 7.79243,0.69856 9.23151,1.31721c0.85713,0.2591 4.81115,4.89903 5.2664,9.08915c0.31259,2.87701 1.98019,67.55442 1.78631,70.03049c-0.24469,3.12488 0.64386,6.59941 2.30575,9.40607c1.51647,2.56105 5.75466,5.30822 7.00173,5.32378c1.94444,0.02426 75.36445,1.06783 75.67185,0.98386c2.76164,0.24086 2.93625,-1.05915 7.98609,2.44085c3.90017,3.85769 2.67677,9.2627 2.88927,11.58338c0.59945,2.04647 1.17212,14.89848 4.08569,19.2594c4.12093,6.16804 7.15008,6.15722 8.52504,6.15722c4.86352,0 67,0 67,0v163.66366z" data-paper-data="{&quot;index&quot;:null}" fill="url(#color-1)" stroke="none" stroke-width="0" stroke-linecap="butt"/><path d="M227.49928,21.60448v65" data-paper-data="{&quot;index&quot;:null}" fill="none" stroke="#212dff" stroke-width="12" stroke-linecap="round"/><path d="M249.49928,19.60448v65" data-paper-data="{&quot;index&quot;:null}" fill="none" stroke="#212dff" stroke-width="12" stroke-linecap="round"/><path d="M298.49928,19.60448v65" data-paper-data="{&quot;index&quot;:null}" fill="none" stroke="#212dff" stroke-width="12" stroke-linecap="round"/><path d="M274.49928,17.60448v65" data-paper-data="{&quot;index&quot;:null}" fill="none" stroke="#212dff" stroke-width="12" stroke-linecap="round"/><path d="M221.33263,25.05v-21.25h83v21.25c0,0 -6.76738,-0.02143 -11.87276,-0.05466c-2.44254,-0.0159 -1.36233,-1.96112 -6.0032,-1.80475c-4.77719,0.16097 -3.54574,1.72015 -5.9994,1.70435c-3.95952,-0.0255 -8.12221,-0.0522 -12.24631,-0.07846c-2.00356,-0.01275 -0.80378,-1.59479 -5.9967,-1.56183c-4.82713,0.03064 -4.44503,1.45998 -7.25873,1.4428c-2.10631,-0.01285 -6.65371,0.02359 -11.74332,0.07737c-1.35914,0.01436 -0.19289,-1.4626 -5.51098,-1.45381c-4.3651,0.00721 -3.17934,1.56023 -5.49909,1.58986c-5.81584,0.07428 -10.86951,0.13913 -10.86951,0.13913z" fill="#212dff" stroke="none" stroke-width="0" stroke-linecap="butt"/><path d="M308.40094,-2.09454h-90.09009" fill="none" stroke="#212dff" stroke-width="12" stroke-linecap="round"/><path d="M228.82136,-18.10956h72.07207" fill="none" stroke="#212dff" stroke-width="12" stroke-linecap="round"/><path d="M318.58263,140.19044h73" fill="none" stroke="#212dff" stroke-width="12" stroke-linecap="round"/><path d="M173.58263,149.19044h-73" fill="none" stroke="#212dff" stroke-width="12" stroke-linecap="round"/><path d="M118.58263,67.19044h39l18,18v11h-73v-10.99999z" fill="#212dff" stroke="#212dff" stroke-width="12" stroke-linecap="round"/><path d="M109.58263,96.19045v46" fill="none" stroke="#212dff" stroke-width="12" stroke-linecap="round"/><path d="M166.58263,144.19045v-46" fill="none" stroke="#212dff" stroke-width="12" stroke-linecap="round"/><path d="M128.58263,159.19045v-58" fill="none" stroke="#212dff" stroke-width="12" stroke-linecap="round"/><path d="M147.58263,150.19045v-53" fill="none" stroke="#212dff" stroke-width="12" stroke-linecap="round"/></g></g></svg>