<svg version="1.1" xmlns="http://www.w3.org/2000/svg" xmlns:xlink="http://www.w3.org/1999/xlink" width="486.27755" height="440.65401" viewBox="0,0,486.27755,440.65401"><defs><linearGradient x1="117.98567" y1="388.28995" x2="101.53093" y2="399.01279" gradientUnits="userSpaceOnUse" id="color-1"><stop offset="0" stop-color="#8e8e8e"/><stop offset="1" stop-color="#818181"/></linearGradient><linearGradient x1="344.31812" y1="312.99791" x2="311.1874" y2="368.26424" gradientUnits="userSpaceOnUse" id="color-2"><stop offset="0" stop-color="#8e8e8e"/><stop offset="1" stop-color="#818181"/></linearGradient><linearGradient x1="389.50462" y1="313.09785" x2="345.68549" y2="347.08394" gradientUnits="userSpaceOnUse" id="color-3"><stop offset="0" stop-color="#8e8e8e"/><stop offset="1" stop-color="#818181"/></linearGradient><linearGradient x1="151.09939" y1="323.81476" x2="178.80912" y2="355.85914" gradientUnits="userSpaceOnUse" id="color-4"><stop offset="0" stop-color="#8e8e8e"/><stop offset="1" stop-color="#818181"/></linearGradient><linearGradient x1="67.95906" y1="316.56511" x2="52.19721" y2="366.88267" gradientUnits="userSpaceOnUse" id="color-5"><stop offset="0" stop-color="#8e8e8e"/><stop offset="1" stop-color="#818181"/></linearGradient></defs><g transform="translate(6.13878,20.39999)"><g data-paper-data="{&quot;isPaintingLayer&quot;:true}" fill-rule="nonzero" stroke="none" stroke-linecap="butt" stroke-linejoin="miter" stroke-miterlimit="10" stroke-dasharray="" stroke-dashoffset="0" style="mix-blend-mode: normal"><path d="M10.49947,264.8v-16h131v16z" fill="#6d6d6d" stroke-width="0"/><path d="M139.5,260.8v-12h134v12z" fill="#6d6d6d" stroke-width="0"/><g><path d="M96.14934,394.58572l6.65307,-7.86422l17.83201,3.77381l-6.37982,12.029l-12.8997,-0.75551z" data-paper-data="{&quot;origPos&quot;:null,&quot;origRot&quot;:0}" fill="#534c42" stroke-width="0"/><path d="M98.48259,393.72632l5.97073,-7.05764l16.00311,3.38678l-5.72553,10.79525l-11.57673,-0.67802z" data-paper-data="{&quot;origPos&quot;:null,&quot;origRot&quot;:0}" fill="url(#color-1)" stroke-width="NaN"/></g><path d="M-5.10441,353.67134v-74.52655c0,0 48.96927,7.45265 86.95814,7.45265c40.05105,0 143.01298,-7.67744 228.78354,-9.4622c93.01051,-1.93542 167.58388,2.00956 167.58388,2.00956v74.52655z" fill="#7c7262" stroke-width="0"/><path d="M-5.39474,417.59973v-74.52655c0,0 49.03266,7.45265 87.07069,7.45265c40.10288,0 143.19805,-7.67744 229.07955,-9.4622c93.13088,-1.93542 167.80074,2.00956 167.80074,2.00956v74.52655z" fill="#786e5f" stroke-width="0"/><path d="M-4.85906,420.254v-37.05188c0,0 48.8621,3.70519 86.76783,3.70519c39.96341,0 142.69997,-3.81693 228.2828,-4.70428c92.80695,-0.96221 167.21711,0.9991 167.21711,0.9991v37.05188z" fill="#6f6558" stroke-width="0"/><path d="M-5.2193,290.69768v-32.95167h485.35807v32.95167z" fill="#949494" stroke-width="0"/><path d="M-6.13878,290.69768v-13.30453h483.87033v13.30453z" fill="#b5b5b5" stroke-width="0"/><g><path d="M289.34839,355.27855l8.97097,-36.16014l55.20764,0.37413l-2.97517,52.24412l-37.46144,7.45925z" data-paper-data="{&quot;origPos&quot;:null,&quot;origRot&quot;:0}" fill="#534c42" stroke-width="0"/><path d="M295.92962,350.02993l8.05089,-32.45141l49.54528,0.33577l-2.67009,46.88573l-33.61922,6.69417z" data-paper-data="{&quot;origPos&quot;:null,&quot;origRot&quot;:0}" fill="url(#color-2)" stroke-width="NaN"/></g><g><path d="M330.66931,332.4962l17.7173,-24.92571l47.48712,11.96112l-16.98963,38.12603l-34.35227,-2.39454z" data-paper-data="{&quot;origPos&quot;:null,&quot;origRot&quot;:0}" fill="#534c42" stroke-width="0"/><path d="M337.56761,330.32843l15.9002,-22.36922l42.61663,10.73433l-15.24717,34.21564l-30.82895,-2.14891z" data-paper-data="{&quot;origPos&quot;:null,&quot;origRot&quot;:0}" fill="url(#color-3)" stroke-width="NaN"/></g><g><path d="M166.17979,365.47786l-21.99261,-13.73023l14.04779,-31.35114l34.27056,14.15045l-4.36287,23.1124z" data-paper-data="{&quot;origRot&quot;:0}" fill="#534c42" stroke-width="0"/><path d="M163.36081,360.2009l-19.01636,-12.32205l12.14663,-28.13558l29.63268,12.69916l-3.77238,20.74185z" data-paper-data="{&quot;origRot&quot;:0}" fill="url(#color-4)" stroke-width="NaN"/></g><g><path d="M30.52072,360.50707l-0.64857,-30.4996l47.71368,-10.22854l9.55192,42.16174l-30.58724,13.08147z" data-paper-data="{&quot;origRot&quot;:0}" fill="#534c42" stroke-width="0"/><path d="M34.80489,355.27452l-0.58204,-27.37144l42.81994,-9.17942l8.57216,37.83744l-27.45006,11.73975z" data-paper-data="{&quot;origRot&quot;:0}" fill="url(#color-5)" stroke-width="NaN"/></g><path d="M6.49947,163.8v-178.8h15v178.8z" fill="#6d6d6d" stroke-width="0"/><path d="M13.49947,163.8v-13h128v13z" fill="#6d6d6d" stroke-width="0"/><path d="M285.49947,257.8v-19h76v19z" fill="#6d6d6d" stroke-width="0"/><path d="M271.49947,257.8v-10h88v10z" fill="#6d6d6d" stroke-width="0"/><path d="M309.49947,240.80001v-19h76v19z" fill="#6d6d6d" stroke-width="0"/><path d="M295.49947,239.80001v-10h88v10z" fill="#6d6d6d" stroke-width="0"/><path d="M333.49947,222.80001v-19h76v19z" fill="#6d6d6d" stroke-width="0"/><path d="M319.49947,221.80001v-10h88v10z" fill="#6d6d6d" stroke-width="0"/><path d="M357.49947,204.80001v-19h76v19z" fill="#6d6d6d" stroke-width="0"/><path d="M343.49947,204.80001v-10h88v10z" fill="#6d6d6d" stroke-width="0"/><path d="M358.49947,206.80001v-19h76v19z" fill="#6d6d6d" stroke-width="0"/><path d="M382.49947,188.80001v-19h76v19z" fill="#6d6d6d" stroke-width="0"/><path d="M368.49947,188.80001v-10h88v10z" fill="#6d6d6d" stroke-width="0"/><path d="M396.49947,179.80001v-19h76v19z" fill="#6d6d6d" stroke-width="0"/><path d="M382.49947,179.80001v-10h88v10z" fill="#6d6d6d" stroke-width="0"/><path d="M423.49947,258.8v-90h49v90z" fill="#6d6d6d" stroke-width="0"/><path d="M361.49947,257.8v-52h68v52z" fill="#6d6d6d" stroke-width="0"/><path d="M349.49947,256.8v-28h41v28z" fill="#6d6d6d" stroke-width="0"/><path d="M469.49987,257.8v-239h10v239z" fill="#6d6d6d" stroke-width="0"/><g data-paper-data="{&quot;index&quot;:null}" fill="#6d6d6d" stroke-width="0"><path d="M121.49946,162.80001v-19h76v19z"/><path d="M97.49946,145.80001v-19h76v19z"/><path d="M99.49946,144.80001v-10h88v10z"/><path d="M73.49946,127.80001v-19h76v19z"/><path d="M75.49946,126.80001v-10h88v10z"/><path d="M49.49946,109.80001v-19h76v19z"/><path d="M51.49946,109.80001v-10h88v10z"/><path d="M48.49946,111.80001v-19h76v19z"/><path d="M24.49946,93.80001v-19h76v19z"/><path d="M26.49946,93.80001v-10h88v10z"/><path d="M10.49946,84.80001v-19h76v19z"/><path d="M12.49946,84.80001v-10h88v10z"/><path d="M10.49946,163.80001v-90h49v90z"/><path d="M53.49946,162.80001v-52h68v52z"/><path d="M92.49946,161.80001v-28h41v28z"/></g><path d="M406.5,116.3v-136h13v136z" fill="#6d6d6d" stroke-width="0"/><path d="M468.5,20.60001v-41h11v41z" fill="#6d6d6d" stroke-width="0"/><path d="M80.5,0.90001v-16h272v16z" fill="#6d6d6d" stroke-width="0"/><path d="M339.5,117.30001v-136h13v136z" fill="#6d6d6d" stroke-width="0"/></g></g></svg>