<svg version="1.1" xmlns="http://www.w3.org/2000/svg" xmlns:xlink="http://www.w3.org/1999/xlink" width="81.02892" height="81.28289" viewBox="0,0,81.02892,81.28289"><g transform="translate(-199.48554,-139.35856)"><g data-paper-data="{&quot;isPaintingLayer&quot;:true}" fill-rule="nonzero" stroke="#aeaeae" stroke-linecap="butt" stroke-linejoin="miter" stroke-miterlimit="10" stroke-dasharray="" stroke-dashoffset="0" style="mix-blend-mode: normal"><g><path d="M216.88532,180c0,-12.76589 10.3488,-23.11469 23.11469,-23.11469c12.76589,0 23.11469,10.3488 23.11469,23.11469c0,12.76589 -10.3488,23.11469 -23.11469,23.11469c-12.76589,0 -23.11469,-10.3488 -23.11469,-23.11469z" data-paper-data="{&quot;origPos&quot;:null}" fill="#7b7b7b" stroke-width="7.5"/><path d="M232.34919,203.87306l15.15921,-0.16406l-7.69736,13.82614z" data-paper-data="{&quot;origPos&quot;:null,&quot;origRot&quot;:0,&quot;index&quot;:null}" fill="#aeaeae" stroke-width="3"/><path d="M233.80519,204.739c0,0 3.77294,-0.04053 6.18781,-0.06647c2.32223,-0.02494 -0.21298,10.92497 -0.21298,10.92497z" data-paper-data="{&quot;origPos&quot;:null,&quot;origRot&quot;:0,&quot;index&quot;:null}" fill="#aeaeae" stroke-width="0"/><path d="M263.75574,188.13348l-0.18369,-15.15898l13.83609,7.67946z" data-paper-data="{&quot;origPos&quot;:null,&quot;origRot&quot;:0,&quot;index&quot;:null}" fill="#aeaeae" stroke-width="3"/><path d="M264.61978,186.67638c0,0 -0.04542,-3.77288 -0.07448,-6.18771c-0.02795,-2.32219 10.92524,0.19884 10.92524,0.19884z" data-paper-data="{&quot;origPos&quot;:null,&quot;origRot&quot;:0,&quot;index&quot;:null}" fill="#aeaeae" stroke-width="0"/><path d="M216.24427,173.12658l0.18369,15.15898l-13.8361,-7.67946z" data-paper-data="{&quot;origPos&quot;:null,&quot;origRot&quot;:0,&quot;index&quot;:null}" fill="#aeaeae" stroke-width="3"/><path d="M215.38022,174.5837c0,0 0.04542,3.77288 0.07448,6.18771c0.02795,2.32219 -10.92524,-0.19884 -10.92524,-0.19884z" data-paper-data="{&quot;origPos&quot;:null,&quot;origRot&quot;:0,&quot;index&quot;:null}" fill="#aeaeae" stroke-width="0"/><path d="M216.45525,192.65054l10.60389,10.83449l-15.30938,4.00432z" data-paper-data="{&quot;origPos&quot;:null,&quot;origRot&quot;:0,&quot;index&quot;:null}" fill="#aeaeae" stroke-width="3"/><path d="M216.83696,194.30101c0,0 2.63896,2.69677 4.32802,4.42285c1.62427,1.65986 -8.03732,7.40284 -8.03732,7.40284z" data-paper-data="{&quot;origPos&quot;:null,&quot;origRot&quot;:0,&quot;index&quot;:null}" fill="#aeaeae" stroke-width="0"/><path d="M226.81561,158.13639l-10.8851,10.55193l-3.93102,-15.32835z" data-paper-data="{&quot;origPos&quot;:null,&quot;origRot&quot;:0,&quot;index&quot;:null}" fill="#aeaeae" stroke-width="3"/><path d="M225.26802,158.62056c0,0 -2.70938,2.62603 -4.44351,4.30681c-1.66762,1.61631 -7.3643,-8.07265 -7.3643,-8.07265z" data-paper-data="{&quot;origPos&quot;:null,&quot;origRot&quot;:0,&quot;index&quot;:null}" fill="#aeaeae" stroke-width="0"/><path d="M251.33813,203.26132l10.33243,-11.09366l4.70812,15.10779z" data-paper-data="{&quot;origPos&quot;:null,&quot;origRot&quot;:0,&quot;index&quot;:null}" fill="#aeaeae" stroke-width="3"/><path d="M252.96916,202.80366c0,0 2.57183,-2.76086 4.21793,-4.52795c1.58295,-1.69929 7.76665,7.68632 7.76665,7.68632z" data-paper-data="{&quot;origPos&quot;:null,&quot;origRot&quot;:0,&quot;index&quot;:null}" fill="#aeaeae" stroke-width="0"/><path d="M246.7524,156.12694l-15.15921,0.16406l7.69736,-13.82614z" data-paper-data="{&quot;origPos&quot;:null,&quot;origRot&quot;:0,&quot;index&quot;:null}" fill="#aeaeae" stroke-width="3"/><path d="M245.29642,155.26099c0,0 -3.77294,0.04053 -6.18781,0.06647c-2.32223,0.02494 0.21298,-10.92497 0.21298,-10.92497z" data-paper-data="{&quot;origPos&quot;:null,&quot;origRot&quot;:0,&quot;index&quot;:null}" fill="#aeaeae" stroke-width="0"/><path d="M262.88456,167.66191l-10.76256,-10.67689l15.24864,-4.22972z" data-paper-data="{&quot;origPos&quot;:null,&quot;origRot&quot;:0,&quot;index&quot;:null}" fill="#aeaeae" stroke-width="3"/><path d="M262.47854,166.01723c0,0 -2.67845,-2.65755 -4.39279,-4.35853c-1.64857,-1.63572 7.92724,-7.52059 7.92724,-7.52059z" data-paper-data="{&quot;origPos&quot;:null,&quot;origRot&quot;:0,&quot;index&quot;:null}" fill="#aeaeae" stroke-width="0"/></g></g></g></svg>