<svg version="1.1" xmlns="http://www.w3.org/2000/svg" xmlns:xlink="http://www.w3.org/1999/xlink" width="505" height="440.77731" viewBox="0,0,505,440.77731"><g transform="translate(25.875,64.92329)"><g data-paper-data="{&quot;isPaintingLayer&quot;:true}" fill-rule="nonzero" stroke="none" stroke-width="0" stroke-linecap="butt" stroke-linejoin="miter" stroke-miterlimit="10" stroke-dasharray="" stroke-dashoffset="0" style="mix-blend-mode: normal"><path d="M4.5,365.05252v-188.45946h18v188.45946z" fill="#6d6d6d"/><path d="M133.5,309.55402v-173h18v173z" fill="#6d6d6d"/><path d="M133.5,311.80001v-11h201.33333v11z" fill="#6d6d6d"/><path d="M333.5,375.85402v-174h19v174z" fill="#6d6d6d"/><path d="M407.5,370.85402v-168h12v168z" fill="#6d6d6d"/><path d="M5.5,139.85402v-138.02402h17v138.02403z" fill="#6d6d6d"/><path d="M134.25881,142.85402v-133.02402h17.23418v133.02403z" fill="#6d6d6d"/><path d="M6.82752,15.94879v-15.01502l144.64865,-65.85706l-0.5045,80.87208z" fill="#6d6d6d"/><path d="M21.33333,311.28735v-15.66667h51.33333v15.66667z" fill="#6d6d6d"/><path d="M72.66667,253.62069v-15.33333h69.33333v15.33333z" fill="#6d6d6d"/><path d="M17.66667,195.62069v-19h55v19z" fill="#6d6d6d"/><path d="M76,135.62069v-19.66667h74.33333v19.66667z" fill="#6d6d6d"/><path d="M-25.875,136.22996v-0.0156h30v0.0156z" fill="#6d6d6d"/><path d="M467.875,365.85402v-163.32732h11.25v163.32733z" fill="#6d6d6d"/></g></g></svg>