<svg version="1.1" xmlns="http://www.w3.org/2000/svg" xmlns:xlink="http://www.w3.org/1999/xlink" width="356.9737" height="235.09461" viewBox="0,0,356.9737,235.09461"><defs><linearGradient x1="236.07501" y1="378.62847" x2="243.18288" y2="378.62847" gradientUnits="userSpaceOnUse" id="color-1"><stop offset="0" stop-color="#f2f2f2"/><stop offset="1" stop-color="#f2f2f2" stop-opacity="0"/></linearGradient><linearGradient x1="243.64644" y1="378.80016" x2="236.53857" y2="378.80016" gradientUnits="userSpaceOnUse" id="color-2"><stop offset="0" stop-color="#f2f2f2"/><stop offset="1" stop-color="#f2f2f2" stop-opacity="0"/></linearGradient><linearGradient x1="189.07501" y1="379.05704" x2="196.18288" y2="379.05704" gradientUnits="userSpaceOnUse" id="color-3"><stop offset="0" stop-color="#f2f2f2"/><stop offset="1" stop-color="#f2f2f2" stop-opacity="0"/></linearGradient><linearGradient x1="196.64644" y1="379.22873" x2="189.53856" y2="379.22873" gradientUnits="userSpaceOnUse" id="color-4"><stop offset="0" stop-color="#f2f2f2"/><stop offset="1" stop-color="#f2f2f2" stop-opacity="0"/></linearGradient></defs><g transform="translate(-48.01314,-153.40542)"><g data-paper-data="{&quot;isPaintingLayer&quot;:true}" fill-rule="nonzero" stroke-linecap="butt" stroke-linejoin="miter" stroke-miterlimit="10" stroke-dasharray="" stroke-dashoffset="0" style="mix-blend-mode: normal"><path d="M329.76072,278.13973v-56.85714h30.85714v56.85714z" fill="#dacfb6" stroke="none" stroke-width="0"/><path d="M131,377.60002l-2,-131l97,-85l132,121l-1,99zM266.75,308.94588l-0.75,-32.25l-64.25,-1.25l0.25,31.25z" fill="#ecc86c" stroke="none" stroke-width="0"/><path d="M353.5,340.80003v-119.07143h10v119.07143z" fill="#a0833a" stroke="none" stroke-width="0"/><path d="M126.5,381.30003v-133.95h8v133.95z" fill="#a0833a" stroke="none" stroke-width="0"/><g fill="#a0833a" stroke="none" stroke-width="0"><path d="M221.01314,159.34693l5.3571,-5.94151l178.6166,161.04769l-5.3571,5.94151z"/><path d="M53.37023,321.39459l-5.35709,-5.94151l178.61661,-161.04769l5.3571,5.94151z" data-paper-data="{&quot;index&quot;:null}"/></g><path d="M320,245.25003c0,-5.01427 0,-24 0,-24h10v29c0,0 -2.53197,0 -4,0c-1.79796,0 -6,-2.71131 -6,-5z" fill="#a0833a" stroke="none" stroke-width="0"/><path d="M352.5,381.55403v-40h11v40z" fill="#d0b060" stroke="none" stroke-width="0"/><path d="M200.5,308.44587v-32.5h65.5v32.5z" fill="none" stroke="#a0833a" stroke-width="3"/><g stroke="none" stroke-width="0"><path d="M236.07501,387.89977v-18.5426h7.10787v18.5426z" fill="url(#color-1)"/><path d="M236.53857,388.07145v-18.54259h7.10787v18.54259z" data-paper-data="{&quot;index&quot;:null}" fill="url(#color-2)"/></g><g stroke="none" stroke-width="0"><path d="M189.07501,388.32834v-18.5426h7.10787v18.5426z" fill="url(#color-3)"/><path d="M189.53856,388.50002v-18.54259h7.10787v18.54259z" data-paper-data="{&quot;index&quot;:null}" fill="url(#color-4)"/></g></g></g></svg>