<svg version="1.1" xmlns="http://www.w3.org/2000/svg" xmlns:xlink="http://www.w3.org/1999/xlink" width="481.27755" height="260.1143" viewBox="0,0,481.27755,260.1143"><defs><linearGradient x1="120.7094" y1="388.28995" x2="104.42385" y2="399.01279" gradientUnits="userSpaceOnUse" id="color-1"><stop offset="0" stop-color="#8e8e8e"/><stop offset="1" stop-color="#818181"/></linearGradient><linearGradient x1="344.71466" y1="312.99791" x2="311.92459" y2="368.26424" gradientUnits="userSpaceOnUse" id="color-2"><stop offset="0" stop-color="#8e8e8e"/><stop offset="1" stop-color="#818181"/></linearGradient><linearGradient x1="389.43654" y1="313.09785" x2="346.06797" y2="347.08394" gradientUnits="userSpaceOnUse" id="color-3"><stop offset="0" stop-color="#8e8e8e"/><stop offset="1" stop-color="#818181"/></linearGradient><linearGradient x1="153.48263" y1="323.81476" x2="180.90745" y2="355.85914" gradientUnits="userSpaceOnUse" id="color-4"><stop offset="0" stop-color="#8e8e8e"/><stop offset="1" stop-color="#818181"/></linearGradient><linearGradient x1="71.19717" y1="316.56511" x2="55.59739" y2="366.88267" gradientUnits="userSpaceOnUse" id="color-5"><stop offset="0" stop-color="#8e8e8e"/><stop offset="1" stop-color="#818181"/></linearGradient></defs><g transform="translate(2.13878,-160.13971)"><g data-paper-data="{&quot;isPaintingLayer&quot;:true}" fill-rule="nonzero" stroke-linejoin="miter" stroke-miterlimit="10" stroke-dasharray="" stroke-dashoffset="0" style="mix-blend-mode: normal"><g stroke="none" stroke-linecap="butt"><path d="M99.09759,394.58572l6.58466,-7.86422l17.64866,3.77381l-6.31422,12.029l-12.76707,-0.75551z" data-paper-data="{&quot;origPos&quot;:null,&quot;origRot&quot;:0}" fill="#534c42" stroke-width="0"/><path d="M101.40685,393.72632l5.90934,-7.05764l15.83856,3.38678l-5.66666,10.79525l-11.45769,-0.67802z" data-paper-data="{&quot;origPos&quot;:null,&quot;origRot&quot;:0}" fill="url(#color-1)" stroke-width="NaN"/></g><path d="M-1.11505,353.67134v-74.52655c0,0 48.46576,7.45265 86.06402,7.45265c39.63923,0 141.5425,-7.67744 226.43115,-9.4622c92.05416,-1.93542 165.86075,2.00956 165.86075,2.00956v74.52655z" fill="#7c7262" stroke="none" stroke-width="0" stroke-linecap="butt"/><path d="M-1.40239,417.59973v-74.52655c0,0 48.5285,7.45265 86.17541,7.45265c39.69054,0 141.72566,-7.67744 226.72411,-9.4622c92.17329,-1.93542 166.07538,2.00956 166.07538,2.00956v74.52655z" fill="#786e5f" stroke="none" stroke-width="0" stroke-linecap="butt"/><path d="M-0.87222,420.254v-37.05188c0,0 48.35969,3.70519 85.87567,3.70519c39.55249,0 141.2327,-3.81693 225.93555,-4.70428c91.85269,-0.96221 165.49775,0.9991 165.49775,0.9991v37.05188z" fill="#6f6558" stroke="none" stroke-width="0" stroke-linecap="butt"/><path d="M-1.22876,290.69768v-32.95167h480.36753v32.95167z" fill="#949494" stroke="none" stroke-width="0" stroke-linecap="butt"/><path d="M-2.13878,290.69768v-13.30453h478.89508v13.30453z" fill="#b5b5b5" stroke="none" stroke-width="0" stroke-linecap="butt"/><g stroke="none" stroke-linecap="butt"><path d="M290.31014,355.27855l8.87873,-36.16014l54.63998,0.37413l-2.94458,52.24412l-37.07625,7.45925z" data-paper-data="{&quot;origPos&quot;:null,&quot;origRot&quot;:0}" fill="#534c42" stroke-width="0"/><path d="M296.82369,350.02993l7.96811,-32.45141l49.03584,0.33577l-2.64263,46.88573l-33.27354,6.69417z" data-paper-data="{&quot;origPos&quot;:null,&quot;origRot&quot;:0}" fill="url(#color-2)" stroke-width="NaN"/></g><g stroke="none" stroke-linecap="butt"><path d="M331.20618,332.4962l17.53513,-24.92571l46.99885,11.96112l-16.81494,38.12603l-33.99905,-2.39454z" data-paper-data="{&quot;origPos&quot;:null,&quot;origRot&quot;:0}" fill="#534c42" stroke-width="0"/><path d="M338.03355,330.32843l15.73671,-22.36922l42.17843,10.73433l-15.0904,34.21564l-30.51196,-2.14891z" data-paper-data="{&quot;origPos&quot;:null,&quot;origRot&quot;:0}" fill="url(#color-3)" stroke-width="NaN"/></g><g stroke="none" stroke-linecap="butt"><path d="M168.40798,365.47786l-21.76648,-13.73023l13.90335,-31.35114l33.91819,14.15045l-4.31801,23.1124z" data-paper-data="{&quot;origRot&quot;:0}" fill="#534c42" stroke-width="0"/><path d="M165.61798,360.2009l-18.82083,-12.32205l12.02174,-28.13558l29.32799,12.69916l-3.73359,20.74185z" data-paper-data="{&quot;origRot&quot;:0}" fill="url(#color-4)" stroke-width="NaN"/></g><g stroke="none" stroke-linecap="butt"><path d="M34.14378,360.50707l-0.6419,-30.4996l47.22308,-10.22854l9.45371,42.16174l-30.27274,13.08147z" data-paper-data="{&quot;origRot&quot;:0}" fill="#534c42" stroke-width="0"/><path d="M38.3839,355.27452l-0.57606,-27.37144l42.37965,-9.17942l8.48402,37.83744l-27.16782,11.73975z" data-paper-data="{&quot;origRot&quot;:0}" fill="url(#color-5)" stroke-width="NaN"/></g><g><path d="M131.17417,238.06468c0,0 0.41171,-29.49877 28.07917,-28.56071c29.26591,0.99226 29.23604,29.00159 29.23604,29.00159l-57.31521,-0.4409z" fill="#161616" stroke="none" stroke-width="0" stroke-linecap="round"/><path d="M304.63712,238.15462c0,0 0.62129,-29.49513 28.2814,-28.3605c29.25813,1.20016 29.02924,29.20859 29.02924,29.20859z" fill="#161616" stroke="none" stroke-width="0" stroke-linecap="round"/><path d="M306.08461,238.35715h-119.01256c0,0 -1.13581,-28.33586 -28.39284,-28.27679c-28.39056,0.06152 -24.754,29.41242 -24.754,29.41242l-17.4885,-3.63398c0,0 -3.05667,-8.62204 -3.77622,-12.63638c-0.71889,-4.01067 -0.53913,-11.43868 -0.53913,-11.43868c0,0 1.76633,-1.00646 3.17842,-2.86156c1.7268,-2.26854 2.43491,-14.55901 7.5413,-21.48331c9.17313,-12.43879 21.65062,-19.36348 23.44228,-20.866c3.10705,-2.60565 39.87126,-5.80145 57.72171,-6.33887c21.93054,-0.66027 41.55509,2.27649 55.97348,4.77575c8.41325,1.45834 40.13401,20.28076 40.13401,20.28076l53.21364,10.14038c0,0 9.75232,3.41353 13.18161,6.31522c3.45986,2.92758 7.4866,11.17328 7.4866,11.17328c0,0 3.32155,1.96638 3.68907,4.25024c0.26266,1.63226 -0.98788,4.47333 -1.15059,7.59951c-0.20051,3.85283 0.64125,7.90998 0.64125,7.90998c0,0 -0.05892,4.78264 -2.27122,5.67808c-2.21229,0.89545 -16.80711,2.04412 -16.80711,2.04412c0,0 6.17125,-29.20657 -24.17928,-30.14119c-26.83251,-0.8263 -27.83194,28.09708 -27.83194,28.09708z" fill="#b9b9b9" stroke="none" stroke-width="0" stroke-linecap="round"/><path d="M119.11609,194.42902l3.08622,-5.58455l5.73153,1.32266l-0.88177,6.1724l-7.78899,8.08291l-2.49836,0.29392z" fill="#ff0000" stroke="none" stroke-width="0" stroke-linecap="round"/><path d="M373.42174,212.50534l-8.5238,-3.96797l-3.52709,-3.67407l6.76025,-2.05746z" fill="#f1f1f1" stroke="none" stroke-width="0" stroke-linecap="round"/><path d="M305.31708,194.13508l-156.51461,-9.99343c0,0 -4.1293,-0.47938 -5.32344,-1.02455c-1.03703,-0.47343 -1.43683,-2.06167 -1.43683,-2.06167c0,0 1.07101,-2.47228 2.3437,-3.97077c1.66028,-1.95482 6.76795,-6.75746 6.76795,-6.75746c0,0 28.07192,-5.7283 43.71438,-6.65123c16.13873,-0.9522 41.77955,-0.24001 51.75756,0.68122c0.32998,0.03047 1.37684,0.20795 1.66998,0.2385c7.22626,0.7528 19.03009,4.72146 27.29261,9.09952c7.75844,4.11097 22.4051,12.92846 28.25262,17.32376c1.83292,1.37771 1.47607,3.11609 1.47607,3.11609z" fill="#666666" stroke="none" stroke-width="0" stroke-linecap="round"/><path d="M164.47357,185.02805l8.61932,-18.36292l9.119,-0.99934l-10.11833,19.11242z" fill="#3f3f3f" stroke="none" stroke-width="0" stroke-linecap="round"/><path d="M223.68459,163.54218h7.99474l5.12164,26.60748l-12.24195,-1.12427z" fill="#3f3f3f" stroke="none" stroke-width="0" stroke-linecap="round"/><path d="M248.67952,199.66393c0,2.23204 -2.56609,4.04144 -5.73153,4.04144c-3.16544,0 -5.73153,-1.80942 -5.73153,-4.04144c0,-2.23204 2.56609,-4.04145 5.73153,-4.04145c3.16544,0 5.73153,1.80942 5.73153,4.04145z" fill="#9c9c9c" stroke="none" stroke-width="0" stroke-linecap="butt"/><path d="M182.25264,195.40203c0,1.74504 -2.4016,3.15969 -5.36411,3.15969c-2.96252,0 -5.36411,-1.41463 -5.36411,-3.15969c0,-1.74504 2.4016,-3.15969 5.36411,-3.15969c2.96252,0 5.36411,1.41463 5.36411,3.15969z" fill="#9c9c9c" stroke="none" stroke-width="0" stroke-linecap="butt"/><path d="M170.20176,194.29982l15.72494,1.1757v2.35141l-17.34152,-1.61658z" fill="#dbdbdb" stroke="none" stroke-width="0" stroke-linecap="round"/><path d="M235.159,197.67993l15.72494,1.76356l0.14697,2.05747l-16.16584,-1.91051z" fill="#dbdbdb" stroke="none" stroke-width="0" stroke-linecap="round"/><path d="M146.22403,211.90029l-1.42763,-2.14145l-12.84868,-0.71383l-6.78126,-10.35032" fill="none" stroke="#6d6d6d" stroke-width="1" stroke-linecap="round"/><path d="M165.31863,210.47266l0.71383,-14.45477l2.6768,-10.35032l9.45807,-19.62994" fill="none" stroke="#6d6d6d" stroke-width="1" stroke-linecap="round"/><path d="M227.95598,163.36082l1.96299,25.51891l1.07072,23.19902l0.17845,25.69738" fill="none" stroke="#6d6d6d" stroke-width="1" stroke-linecap="round"/><path d="M296.83918,183.70456l0.71383,3.74755l4.46134,17.13157l-1.60607,17.66694l-4.2829,15.8824" fill="none" stroke="#6d6d6d" stroke-width="1" stroke-linecap="round"/><path d="M350.01846,213.50638l7.13816,-8.9227l9.99343,-2.3199" fill="none" stroke="#6d6d6d" stroke-width="1" stroke-linecap="round"/><path d="M287.11232,178.5462l7.31225,2.07181l3.89986,5.97167l1.58433,4.75298l-9.50594,0.85309l-4.87485,-3.29052z" fill="#dbdbdb" stroke="none" stroke-width="0" stroke-linecap="round"/><g stroke="none"><path d="M137.21702,239.37087c0,-11.72955 9.50868,-21.23823 21.23823,-21.23823c11.72955,0 21.23823,9.50868 21.23823,21.23823c0,11.72955 -9.50868,21.23823 -21.23823,21.23823c-11.72955,0 -21.23823,-9.50868 -21.23823,-21.23823z" fill="#2a2a2a" stroke-width="0" stroke-linecap="butt"/><path d="M142.56253,239.37087c0,-8.7773 7.11541,-15.89271 15.89271,-15.89271c8.7773,0 15.89272,7.11541 15.89272,15.89271c0,8.7773 -7.11542,15.89271 -15.89272,15.89271c-8.7773,0 -15.89271,-7.11541 -15.89271,-15.89271z" fill="#a5a5a5" stroke-width="0" stroke-linecap="butt"/><path d="M154.07187,250.89964l2.78122,-3.49641c0,0 1.16696,-0.96745 1.70313,-0.96745c0.52302,0 1.4754,0.96745 1.4754,0.96745l2.38391,4.1321c0,0 -1.71326,1.14156 -4.14447,1.09817c-3.40555,-0.06078 -4.1992,-1.73388 -4.1992,-1.73388z" fill="#000000" stroke-width="0" stroke-linecap="round"/><path d="M148.11636,247.56216c0,0 -1.67163,-1.20578 -2.61318,-3.92914c-0.75386,-2.18047 -0.16805,-4.33507 -0.16805,-4.33507l4.21158,0.79462c0,0 1.37786,0.5985 1.59662,1.21104c0.15957,0.44679 -0.18143,2.20086 -0.18143,2.20086z" fill="#000000" stroke-width="0" stroke-linecap="round"/><path d="M152.08954,234.13282l-4.75268,-2.1556c0,0 0.79697,-1.95445 2.87771,-3.66718c1.85771,-1.52916 4.25888,-2.20303 4.25888,-2.20303l0.47679,5.40353c0,0 -0.27286,1.68266 -0.74742,2.11768c-0.47897,0.43903 -2.11328,0.50462 -2.11328,0.50462z" fill="#000000" stroke-width="0" stroke-linecap="round"/><path d="M162.49926,226.90164c0,0 2.95824,0.95974 4.12698,1.88384c1.10573,0.87431 2.70689,3.51967 2.70689,3.51967l-4.1321,1.90713c0,0 -1.8163,-0.22584 -2.36419,-0.72155c-0.56413,-0.5104 -0.97327,-2.29807 -0.97327,-2.29807z" fill="#000000" stroke-width="0" stroke-linecap="round"/><path d="M165.30169,241.35343c0.12794,-0.65245 1.56383,-1.34028 1.56383,-1.34028l4.92674,-1.43034c0,0 -0.03824,3.57778 -0.56213,5.05542c-0.50868,1.43476 -2.53695,3.68557 -2.53695,3.68557l-2.62229,-3.258c0,0 -0.90558,-2.01668 -0.76918,-2.71235z" fill="#000000" stroke-width="0" stroke-linecap="round"/><path d="M154.31669,238.5362c0,-0.3884 0.31485,-0.70325 0.70325,-0.70325c0.3884,0 0.70325,0.31485 0.70325,0.70325c0,0.3884 -0.31485,0.70325 -0.70325,0.70325c-0.3884,0 -0.70325,-0.31485 -0.70325,-0.70325z" fill="#2c2c2c" stroke-width="0.5" stroke-linecap="butt"/><path d="M157.5747,235.83443c0,-0.3884 0.31485,-0.70325 0.70325,-0.70325c0.3884,0 0.70325,0.31485 0.70325,0.70325c0,0.3884 -0.31485,0.70325 -0.70325,0.70325c-0.3884,0 -0.70325,-0.31485 -0.70325,-0.70325z" fill="#2c2c2c" stroke-width="0.5" stroke-linecap="butt"/><path d="M161.38896,238.29781c0,-0.3884 0.31485,-0.70325 0.70325,-0.70325c0.3884,0 0.70325,0.31485 0.70325,0.70325c0,0.3884 -0.31485,0.70325 -0.70325,0.70325c-0.3884,0 -0.70325,-0.31485 -0.70325,-0.70325z" fill="#2c2c2c" stroke-width="0.5" stroke-linecap="butt"/><path d="M159.95861,242.90669c0,-0.3884 0.31485,-0.70325 0.70325,-0.70325c0.3884,0 0.70325,0.31485 0.70325,0.70325c0,0.3884 -0.31485,0.70325 -0.70325,0.70325c-0.3884,0 -0.70325,-0.31485 -0.70325,-0.70325z" fill="#2c2c2c" stroke-width="0.5" stroke-linecap="butt"/><path d="M155.42919,242.50938c0,-0.3884 0.31485,-0.70325 0.70325,-0.70325c0.3884,0 0.70325,0.31485 0.70325,0.70325c0,0.3884 -0.31485,0.70325 -0.70325,0.70325c-0.3884,0 -0.70325,-0.31485 -0.70325,-0.70325z" fill="#2c2c2c" stroke-width="0.5" stroke-linecap="butt"/><path d="M156.19053,239.37087c0,-1.25077 1.01394,-2.26472 2.26472,-2.26472c1.25077,0 2.26472,1.01394 2.26472,2.26472c0,1.25077 -1.01394,2.26472 -2.26472,2.26472c-1.25077,0 -2.26472,-1.01394 -2.26472,-2.26472z" fill="#2c2c2c" stroke-width="0" stroke-linecap="butt"/><path d="M134.2693,239.37087c0,-13.35752 10.82842,-24.18594 24.18594,-24.18594c13.35752,0 24.18594,10.82842 24.18594,24.18594c0,13.35752 -10.82842,24.18594 -24.18594,24.18594c-13.35752,0 -24.18594,-10.82842 -24.18594,-24.18594z" fill="none" stroke-width="0" stroke-linecap="butt"/></g><g stroke="none"><path d="M311.43088,239.37087c0,-11.72955 9.50868,-21.23823 21.23823,-21.23823c11.72955,0 21.23823,9.50868 21.23823,21.23823c0,11.72955 -9.50868,21.23823 -21.23823,21.23823c-11.72955,0 -21.23823,-9.50868 -21.23823,-21.23823z" fill="#2a2a2a" stroke-width="0" stroke-linecap="butt"/><path d="M316.77639,239.37087c0,-8.7773 7.11541,-15.89271 15.89271,-15.89271c8.7773,0 15.89272,7.11541 15.89272,15.89271c0,8.7773 -7.11542,15.89271 -15.89272,15.89271c-8.7773,0 -15.89271,-7.11541 -15.89271,-15.89271z" fill="#a5a5a5" stroke-width="0" stroke-linecap="butt"/><path d="M328.28573,250.89964l2.78122,-3.49641c0,0 1.16696,-0.96745 1.70313,-0.96745c0.52302,0 1.4754,0.96745 1.4754,0.96745l2.38391,4.1321c0,0 -1.71326,1.14156 -4.14447,1.09817c-3.40555,-0.06078 -4.1992,-1.73388 -4.1992,-1.73388z" fill="#000000" stroke-width="0" stroke-linecap="round"/><path d="M322.33022,247.56216c0,0 -1.67163,-1.20578 -2.61318,-3.92914c-0.75386,-2.18047 -0.16805,-4.33507 -0.16805,-4.33507l4.21158,0.79462c0,0 1.37786,0.5985 1.59662,1.21104c0.15957,0.44679 -0.18143,2.20086 -0.18143,2.20086z" fill="#000000" stroke-width="0" stroke-linecap="round"/><path d="M326.30341,234.13282l-4.75268,-2.1556c0,0 0.79697,-1.95445 2.87771,-3.66718c1.85771,-1.52916 4.25888,-2.20303 4.25888,-2.20303l0.47679,5.40353c0,0 -0.27286,1.68266 -0.74742,2.11768c-0.47897,0.43903 -2.11328,0.50462 -2.11328,0.50462z" fill="#000000" stroke-width="0" stroke-linecap="round"/><path d="M336.71313,226.90164c0,0 2.95824,0.95974 4.12698,1.88384c1.10573,0.87431 2.70689,3.51967 2.70689,3.51967l-4.1321,1.90713c0,0 -1.8163,-0.22584 -2.36419,-0.72155c-0.56413,-0.5104 -0.97327,-2.29807 -0.97327,-2.29807z" fill="#000000" stroke-width="0" stroke-linecap="round"/><path d="M339.51555,241.35343c0.12794,-0.65245 1.56383,-1.34028 1.56383,-1.34028l4.92674,-1.43034c0,0 -0.03824,3.57778 -0.56213,5.05542c-0.50868,1.43476 -2.53695,3.68557 -2.53695,3.68557l-2.62229,-3.258c0,0 -0.90558,-2.01668 -0.76918,-2.71235z" fill="#000000" stroke-width="0" stroke-linecap="round"/><path d="M328.53055,238.5362c0,-0.3884 0.31485,-0.70325 0.70325,-0.70325c0.3884,0 0.70325,0.31485 0.70325,0.70325c0,0.3884 -0.31485,0.70325 -0.70325,0.70325c-0.3884,0 -0.70325,-0.31485 -0.70325,-0.70325z" fill="#2c2c2c" stroke-width="0.5" stroke-linecap="butt"/><path d="M331.78856,235.83443c0,-0.3884 0.31485,-0.70325 0.70325,-0.70325c0.3884,0 0.70325,0.31485 0.70325,0.70325c0,0.3884 -0.31485,0.70325 -0.70325,0.70325c-0.3884,0 -0.70325,-0.31485 -0.70325,-0.70325z" fill="#2c2c2c" stroke-width="0.5" stroke-linecap="butt"/><path d="M335.60282,238.29781c0,-0.3884 0.31485,-0.70325 0.70325,-0.70325c0.3884,0 0.70325,0.31485 0.70325,0.70325c0,0.3884 -0.31485,0.70325 -0.70325,0.70325c-0.3884,0 -0.70325,-0.31485 -0.70325,-0.70325z" fill="#2c2c2c" stroke-width="0.5" stroke-linecap="butt"/><path d="M334.17247,242.90669c0,-0.3884 0.31485,-0.70325 0.70325,-0.70325c0.3884,0 0.70325,0.31485 0.70325,0.70325c0,0.3884 -0.31485,0.70325 -0.70325,0.70325c-0.3884,0 -0.70325,-0.31485 -0.70325,-0.70325z" fill="#2c2c2c" stroke-width="0.5" stroke-linecap="butt"/><path d="M329.64305,242.50938c0,-0.3884 0.31485,-0.70325 0.70325,-0.70325c0.3884,0 0.70325,0.31485 0.70325,0.70325c0,0.3884 -0.31485,0.70325 -0.70325,0.70325c-0.3884,0 -0.70325,-0.31485 -0.70325,-0.70325z" fill="#2c2c2c" stroke-width="0.5" stroke-linecap="butt"/><path d="M330.4044,239.37087c0,-1.25077 1.01394,-2.26472 2.26472,-2.26472c1.25077,0 2.26472,1.01394 2.26472,2.26472c0,1.25077 -1.01394,2.26472 -2.26472,2.26472c-1.25077,0 -2.26472,-1.01394 -2.26472,-2.26472z" fill="#2c2c2c" stroke-width="0" stroke-linecap="butt"/><path d="M308.48317,239.37087c0,-13.35752 10.82842,-24.18594 24.18594,-24.18594c13.35752,0 24.18594,10.82842 24.18594,24.18594c0,13.35752 -10.82842,24.18594 -24.18594,24.18594c-13.35752,0 -24.18594,-10.82842 -24.18594,-24.18594z" fill="none" stroke-width="0" stroke-linecap="butt"/></g></g></g></g></svg>