<svg version="1.1" xmlns="http://www.w3.org/2000/svg" xmlns:xlink="http://www.w3.org/1999/xlink" width="721.08917" height="623.84373" viewBox="0,0,721.08917,623.84373"><defs><linearGradient x1="106.90672" y1="436.338" x2="86.97299" y2="447.06084" gradientUnits="userSpaceOnUse" id="color-1"><stop offset="0" stop-color="#8e8e8e"/><stop offset="1" stop-color="#818181"/></linearGradient><linearGradient x1="381.09178" y1="361.04596" x2="340.95638" y2="416.31229" gradientUnits="userSpaceOnUse" id="color-2"><stop offset="0" stop-color="#8e8e8e"/><stop offset="1" stop-color="#818181"/></linearGradient><linearGradient x1="435.83192" y1="361.1459" x2="382.74827" y2="395.13199" gradientUnits="userSpaceOnUse" id="color-3"><stop offset="0" stop-color="#8e8e8e"/><stop offset="1" stop-color="#818181"/></linearGradient><linearGradient x1="147.02154" y1="371.86281" x2="180.58984" y2="403.90719" gradientUnits="userSpaceOnUse" id="color-4"><stop offset="0" stop-color="#8e8e8e"/><stop offset="1" stop-color="#818181"/></linearGradient><linearGradient x1="46.30315" y1="364.61316" x2="27.20884" y2="414.93072" gradientUnits="userSpaceOnUse" id="color-5"><stop offset="0" stop-color="#8e8e8e"/><stop offset="1" stop-color="#818181"/></linearGradient><linearGradient x1="286.04357" y1="-94.37268" x2="335.84814" y2="-94.37268" gradientUnits="userSpaceOnUse" id="color-6"><stop offset="0" stop-color="#59b5e3"/><stop offset="1" stop-color="#7fd9ff"/></linearGradient></defs><g transform="translate(175.17987,126.40851)"><g data-paper-data="{&quot;isPaintingLayer&quot;:true}" fill-rule="nonzero" stroke-linejoin="miter" stroke-miterlimit="10" stroke-dasharray="" stroke-dashoffset="0" style="mix-blend-mode: normal"><g stroke="none" stroke-linecap="butt"><path d="M539.70449,466.19681v31.23841h-586.7767v-31.23841z" data-paper-data="{&quot;index&quot;:null}" fill="#949494" stroke-width="0"/><path d="M539.15395,465.72281v12.61279h-587.33775v-12.61279z" data-paper-data="{&quot;index&quot;:null}" fill="#b5b5b5" stroke-width="0"/><g><path d="M80.45361,442.63377l8.05971,-7.86422l21.60217,3.77381l-7.72869,12.029l-15.62705,-0.75551z" data-paper-data="{&quot;origPos&quot;:null,&quot;origRot&quot;:0}" fill="#534c42" stroke-width="0"/><path d="M83.28018,441.77437l7.23311,-7.05764l19.38657,3.38678l-6.93606,10.79525l-14.02434,-0.67802z" data-paper-data="{&quot;origPos&quot;:null,&quot;origRot&quot;:0}" fill="url(#color-1)" stroke-width="NaN"/></g><path d="M-42.24221,401.71939v-74.52655c0,0 57.69578,7.45265 102.45442,7.45265c47.18829,0 168.49844,-7.67744 269.55366,-9.4622c109.58534,-1.93542 197.44797,2.00956 197.44797,2.00956v74.52655z" fill="#7c7262" stroke-width="0"/><path d="M-42.58427,465.64778v-74.52655c0,0 57.77047,7.45265 102.58702,7.45265c47.24938,0 168.71648,-7.67744 269.9024,-9.4622c109.72715,-1.93542 197.70347,2.00956 197.70347,2.00956v74.52655z" fill="#786e5f" stroke-width="0"/><path d="M-41.95314,468.30205v-37.05188c0,0 57.56951,3.70519 102.2302,3.70519c47.08502,0 168.12963,-3.81693 268.96368,-4.70428c109.34551,-0.96221 197.01584,0.9991 197.01584,0.9991v37.05188z" fill="#6f6558" stroke-width="0"/><path d="M-42.37757,338.74573v-32.95167h571.85075v32.95167z" fill="#949494" stroke-width="0"/><path d="M-43.4609,338.74573v-13.30453h570.09787v13.30453z" fill="#b5b5b5" stroke-width="0"/><g><path d="M314.50002,403.3266l10.86767,-36.16014l66.87998,0.37413l-3.6042,52.24412l-45.38178,7.45925z" data-paper-data="{&quot;origPos&quot;:null,&quot;origRot&quot;:0}" fill="#534c42" stroke-width="0"/><path d="M322.47268,398.07798l9.75307,-32.45141l60.02045,0.33577l-3.2346,46.88573l-40.7272,6.69417z" data-paper-data="{&quot;origPos&quot;:null,&quot;origRot&quot;:0}" fill="url(#color-2)" stroke-width="NaN"/></g><g><path d="M364.55726,380.54425l21.46321,-24.92571l57.52715,11.96112l-20.58168,38.12603l-41.61523,-2.39454z" data-paper-data="{&quot;origPos&quot;:null,&quot;origRot&quot;:0}" fill="#534c42" stroke-width="0"/><path d="M372.91402,378.37648l19.26192,-22.36922l51.6269,10.73433l-18.47083,34.21564l-37.347,-2.14891z" data-paper-data="{&quot;origPos&quot;:null,&quot;origRot&quot;:0}" fill="url(#color-3)" stroke-width="NaN"/></g><g><path d="M165.29034,413.52591l-26.64242,-13.73023l17.01787,-31.35114l41.51627,14.15045l-5.2853,23.1124z" data-paper-data="{&quot;origRot&quot;:0}" fill="#534c42" stroke-width="0"/><path d="M161.87534,408.24895l-23.03691,-12.32205l14.71475,-28.13558l35.8978,12.69916l-4.56995,20.74185z" data-paper-data="{&quot;origRot&quot;:0}" fill="url(#color-4)" stroke-width="NaN"/></g><g><path d="M0.94938,408.55512l-0.78569,-30.4996l57.8016,-10.22854l11.57146,42.16174l-37.0542,13.08147z" data-paper-data="{&quot;origRot&quot;:0}" fill="#534c42" stroke-width="0"/><path d="M6.13933,403.32257l-0.70512,-27.37144l51.87318,-9.17942l10.38454,37.83744l-33.25374,11.73975z" data-paper-data="{&quot;origRot&quot;:0}" fill="url(#color-5)" stroke-width="NaN"/></g></g><path d="M101.1251,106.3v-142" fill="none" stroke="#7b7b7b" stroke-width="3.5" stroke-linecap="round"/><g fill="#a9a9a9" stroke="none" stroke-width="0" stroke-linecap="butt"><g><path d="M59.21058,269.45836l44.10698,20.88842l-1.24918,2.63771l-44.10698,-20.88842z"/><path d="M103.28026,290.27059l-7.83983,16.5542l-6.43022,-3.04526l7.83983,-16.5542z"/><path d="M95.23048,306.78096l-44.10697,-20.88842l1.14294,-2.41339l44.10697,20.88842z" data-paper-data="{&quot;index&quot;:null}"/><path d="M51.16081,285.96873l7.83983,-16.5542l5.83253,2.7622l-7.83983,16.5542z" data-paper-data="{&quot;index&quot;:null}"/><path d="M55.11954,283.87359l40.52699,5.34156l3.11657,3.58378l-40.52699,-5.34156z"/><path d="M64.64538,274.44145l29.81078,27.96939l-4.74728,-0.14042l-29.81078,-27.96939z" data-paper-data="{&quot;index&quot;:null}"/></g><g><path d="M18.79975,250.43407l44.10698,20.88842l-1.24918,2.63771l-44.10698,-20.88842z"/><path d="M62.86941,271.24629l-7.83983,16.5542l-6.43022,-3.04526l7.83983,-16.5542z"/><path d="M54.81965,287.75668l-44.10697,-20.88842l1.14294,-2.41339l44.10697,20.88842z" data-paper-data="{&quot;index&quot;:null}"/><path d="M10.74998,266.94445l7.83983,-16.5542l5.83253,2.7622l-7.83983,16.5542z" data-paper-data="{&quot;index&quot;:null}"/><path d="M14.70871,264.8493l40.52699,5.34156l3.11657,3.58378l-40.52699,-5.34156z"/><path d="M24.23455,255.41717l29.81078,27.96939l-4.74728,-0.14042l-29.81078,-27.96939z" data-paper-data="{&quot;index&quot;:null}"/></g><g><g><path d="M-22.03326,231.21122l44.10698,20.88842l-1.24918,2.63771l-44.10698,-20.88842z"/><path d="M22.03642,252.02346l-7.83983,16.5542l-6.43022,-3.04526l7.83983,-16.5542z"/><path d="M13.98665,268.53384l-44.10698,-20.88842l1.14294,-2.41339l44.10698,20.88842z" data-paper-data="{&quot;index&quot;:null}"/><path d="M-30.08302,247.7216l7.83983,-16.5542l5.83253,2.7622l-7.83983,16.5542z" data-paper-data="{&quot;index&quot;:null}"/><path d="M-26.1243,245.62646l40.52699,5.34156l3.11657,3.58378l-40.52699,-5.34156z"/><path d="M-16.59845,236.19432l29.81078,27.96939l-4.74728,-0.14042l-29.81078,-27.96939z" data-paper-data="{&quot;index&quot;:null}"/></g><g><path d="M-62.4441,212.18695l44.10698,20.88842l-1.24918,2.63771l-44.10698,-20.88842z"/><path d="M-18.37442,232.99916l-7.83983,16.5542l-6.43022,-3.04526l7.83983,-16.5542z"/><path d="M-26.42418,249.50955l-44.10698,-20.88842l1.14294,-2.41339l44.10698,20.88842z" data-paper-data="{&quot;index&quot;:null}"/><path d="M-70.49385,228.69732l7.83983,-16.5542l5.83253,2.7622l-7.83983,16.5542z" data-paper-data="{&quot;index&quot;:null}"/><path d="M-66.53512,226.60217l40.52699,5.34156l3.11657,3.58378l-40.52699,-5.34156z"/><path d="M-57.00928,217.17005l29.81078,27.96939l-4.74728,-0.14042l-29.81078,-27.96939z" data-paper-data="{&quot;index&quot;:null}"/></g></g></g><g stroke="none" stroke-width="0" stroke-linecap="butt"><path d="M-169.924,231.49788v-43.76728h61.09977v43.76728z" fill="#ecca82"/><path d="M-175.17987,234.70751v-52.52075h8.86933v52.52075z" fill="#dbbb78"/><path d="M-108.33146,190.21076h-59.12883v-7.87812h59.12883z" fill="#dbbb78"/><path d="M-108.00297,182.77033v52.52075h-8.86932v-52.52075z" data-paper-data="{&quot;index&quot;:null}" fill="#dbbb78"/><path d="M-174.85139,227.26707h59.12883v7.87812h-59.12883z" data-paper-data="{&quot;index&quot;:null}" fill="#dbbb78"/><path d="M-154.22855,233.94887v-45.51798h1.64248v45.51798z" fill="#dbbb78"/><path d="M-130.90553,232.19817v-45.51798h1.64248v45.51798z" fill="#dbbb78"/></g><g stroke="none" stroke-width="0" stroke-linecap="butt"><g fill="#efe517"><g><path d="M330.87656,36.04534v-87.65302h13.65539v87.65302z"/><path d="M330.62908,-51.48854h85.70056v12.77868h-85.70056z"/><path d="M416.56477,-51.11405v87.65302h-12.49404v-87.65302z" data-paper-data="{&quot;index&quot;:null}"/><path d="M416.81224,36.41983h-85.70056v-11.59087h85.70056z" data-paper-data="{&quot;index&quot;:null}"/><path d="M400.0251,31.60456l-58.57174,-69.89052l8.91309,-7.81385l58.57175,69.89052z"/><path d="M341.06428,23.39279l58.57174,-69.89049l8.9131,7.81383l-58.57175,69.89053z" data-paper-data="{&quot;index&quot;:null}"/></g><g><path d="M331.35733,116.26572v-87.65302h13.65539v87.65303z"/><path d="M331.10988,28.7318h85.70056v12.77868h-85.70056z"/><path d="M417.04555,29.10628v87.65302h-12.49404v-87.65302z" data-paper-data="{&quot;index&quot;:null}"/><path d="M417.29303,116.64018h-85.70056v-11.59088h85.70056z" data-paper-data="{&quot;index&quot;:null}"/><path d="M400.50591,111.82491l-58.57174,-69.89053l8.91309,-7.81383l58.57174,69.89053z"/><path d="M341.54509,103.61314l58.57175,-69.89052l8.9131,7.81383l-58.57174,69.89053z" data-paper-data="{&quot;index&quot;:null}"/></g><g><g><path d="M331.84396,197.32395v-87.65302h13.65539v87.65302z"/><path d="M331.59648,109.79006h85.70056v12.77868h-85.70056z"/><path d="M417.53218,110.16454v87.65302h-12.49404v-87.65302z" data-paper-data="{&quot;index&quot;:null}"/><path d="M417.77966,197.69843h-85.70056v-11.59088h85.70056z" data-paper-data="{&quot;index&quot;:null}"/><path d="M400.99249,192.88315l-58.57175,-69.89053l8.9131,-7.81383l58.57175,69.89049z"/><path d="M342.03168,184.6714l58.57174,-69.89049l8.9131,7.81383l-58.57175,69.89053z" data-paper-data="{&quot;index&quot;:null}"/></g><g><path d="M332.32473,277.54428v-87.65302h13.65537v87.65302z"/><path d="M332.07725,190.0104h85.70056v12.77868h-85.70056z"/><path d="M418.01298,190.38487v87.65302h-12.49404v-87.65302z" data-paper-data="{&quot;index&quot;:null}"/><path d="M418.26043,277.91876h-85.70056v-11.59088h85.70056z" data-paper-data="{&quot;index&quot;:null}"/><path d="M401.47327,273.10349l-58.57175,-69.89052l8.9131,-7.81383l58.57174,69.8905z"/><path d="M342.51249,264.89173l58.57174,-69.8905l8.91308,7.81384l-58.57175,69.89052z" data-paper-data="{&quot;index&quot;:null}"/></g></g></g><g fill="#efe517"><g><path d="M122.53943,-49.57301h-125.19692v-5.63232h125.19693z"/><path d="M-2.48734,-49.47093v-35.34824h18.2521v35.34824z"/><path d="M-1.95246,-84.91616h125.19693v5.15332h-125.19692z" data-paper-data="{&quot;index&quot;:null}"/><path d="M123.0743,-85.01822v35.34824h-16.55554v-35.34824z" data-paper-data="{&quot;index&quot;:null}"/><path d="M116.19653,-78.09414l-99.82629,24.15863l-11.1607,-3.6763l99.82629,-24.15863z"/><path d="M104.46747,-53.77505l-99.82629,-24.15863l11.16071,-3.6763l99.82629,24.15863z" data-paper-data="{&quot;index&quot;:null}"/></g><g><path d="M237.12006,-49.77131h-125.19692v-5.63232h125.19693z"/><path d="M112.09331,-49.66923v-35.34824h18.2521v35.34824z"/><path d="M112.62818,-85.11444h125.19693v5.15332h-125.19692z" data-paper-data="{&quot;index&quot;:null}"/><path d="M237.65493,-85.21652v35.34824h-16.55554v-35.34824z" data-paper-data="{&quot;index&quot;:null}"/><path d="M230.77716,-78.29246l-99.82629,24.15863l-11.1607,-3.6763l99.82628,-24.15863z"/><path d="M219.0481,-53.97336l-99.82628,-24.15863l11.1607,-3.6763l99.82629,24.15863z" data-paper-data="{&quot;index&quot;:null}"/></g><g><g><path d="M352.89753,-49.97201h-125.19693v-5.63232h125.19693z"/><path d="M227.87075,-49.86995v-35.34824h18.25209v35.34824z"/><path d="M228.40563,-85.31516h125.19693v5.15331h-125.19692z" data-paper-data="{&quot;index&quot;:null}"/><path d="M353.43239,-85.41722v35.34823h-16.55555v-35.34823z" data-paper-data="{&quot;index&quot;:null}"/><path d="M346.55463,-78.49316l-99.82628,24.15863l-11.16071,-3.67631l99.82628,-24.15863z"/><path d="M334.82554,-54.17407l-99.82628,-24.15863l11.16071,-3.6763l99.82628,24.15863z" data-paper-data="{&quot;index&quot;:null}"/></g><g><path d="M467.47818,-50.17034h-125.19693v-5.63232h125.19693z"/><path d="M342.4514,-50.06824v-35.34823h18.2521v35.34823z"/><path d="M342.98628,-85.51345h125.19693v5.15332h-125.19693z" data-paper-data="{&quot;index&quot;:null}"/><path d="M468.01303,-85.61554v35.34824h-16.55555v-35.34824z" data-paper-data="{&quot;index&quot;:null}"/><path d="M461.13524,-78.69147l-99.82628,24.15862l-11.16071,-3.6763l99.82628,-24.15863z"/><path d="M449.40622,-54.37237l-99.82629,-24.15863l11.16071,-3.6763l99.82628,24.15863z" data-paper-data="{&quot;index&quot;:null}"/></g></g></g><g><path d="M434.59012,-38.36893v-63.88272h106.03627v63.88272z" fill="#666666"/><path d="M428.30058,-31.43094v-75.76786h30.50358v75.76786z" fill="#7a7a7a"/><path d="M472.35651,-32.42633v-75.76784h30.50359v75.76784z" fill="#7a7a7a"/><path d="M515.40572,-31.43691v-75.76787h30.50358v75.76787z" fill="#7a7a7a"/></g><g><path d="M275.72722,-51.54749c0,0 -1.55738,-40.27969 6.99977,-54.95546c8.55716,-14.6758 43.46465,-17.82773 43.46465,-17.82773l4.83699,74.01927z" fill="#7a7a7a"/><path d="M324.07365,-65.68788v-58.64209h18.1569v58.64209z" fill="#7a7a7a"/><path d="M284.18458,-66.39503c0,0 -3.2825,-25.55883 6.05404,-39.4914c9.33655,-13.93259 47.42336,-16.92488 47.42336,-16.92488v55.71109z" fill="#3c3c3c"/><path d="M286.55928,-68.3739c0,0 -3.0254,-23.55697 5.57988,-36.39829c8.60526,-12.84133 43.709,-15.59926 43.709,-15.59926v51.34759z" fill="url(#color-6)"/></g><path d="M277.67215,-49.72699v-15.83105h108.34875v15.83105z" fill="#7a7a7a"/><path d="M342.00425,-65.06329v-61.34522h50.78846v61.34522z" fill="#a6a6a6"/><path d="M-1.92591,-49.16217l-15.97807,-17.33451l15.97807,-17.3345z" fill="#efe517"/><g><path d="M69.07169,-38.05164c0,-2.87061 0,-12.20308 0,-12.20308h67.71796c0,0 0.32246,8.62937 0.32246,11.54346c0,1.776 -2.29102,4.28755 -4.51453,4.28755c-6.91995,0 -43.37778,0 -57.72151,0c-3.59787,0 -5.80439,-2.06274 -5.80439,-3.62794z" fill="#7a7a7a"/><path d="M71.00647,-41.63832c0,-1.79412 0,-7.62693 0,-7.62693h63.86671c0,0 0.30412,5.39335 0.30412,7.21467c0,1.11 -2.16071,2.67972 -4.25777,2.67972c-6.52641,0 -40.9108,0 -54.43877,0c-3.39326,0 -5.47429,-1.28921 -5.47429,-2.26748z" fill="#9f9f9f"/></g><g><path d="M73.26372,161.15548v-49.47195h59.97877v49.47195z" fill="#ecca82"/><path d="M68.10429,164.78342v-59.36635h8.7066v59.36635z" fill="#dbbb78"/><path d="M133.72619,114.48693h-58.04398v-8.90497h58.04398z" fill="#dbbb78"/><path d="M134.04869,106.07672v59.36636h-8.70661v-59.36636z" data-paper-data="{&quot;index&quot;:null}" fill="#dbbb78"/><path d="M68.42674,156.37322h58.04398v8.90496h-58.04398z" data-paper-data="{&quot;index&quot;:null}" fill="#dbbb78"/><path d="M88.67121,163.92592v-51.45084h1.61234v51.45084z" fill="#dbbb78"/><path d="M111.56633,161.94704v-51.45084h1.61235v51.45084z" fill="#dbbb78"/></g></g><path d="M324.81651,306.57658v-28.52852h99.0991v28.52853z" fill="#7d7d7d" stroke="none" stroke-width="0" stroke-linecap="butt"/></g></g></svg>