<svg version="1.1" xmlns="http://www.w3.org/2000/svg" xmlns:xlink="http://www.w3.org/1999/xlink" width="59.75" height="53.82144" viewBox="0,0,59.75,53.82144"><g transform="translate(-210.125,-153.71428)"><g data-paper-data="{&quot;isPaintingLayer&quot;:true}" fill-rule="nonzero" stroke-linejoin="miter" stroke-miterlimit="10" stroke-dasharray="" stroke-dashoffset="0" style="mix-blend-mode: normal"><path d="M223.78572,200.25359v-26.42857h32.57143v26.42857z" fill="#c65ff2" stroke="none" stroke-width="0" stroke-linecap="butt"/><path d="M223.25,187.5143v-27.75h33.5v27.75z" fill="#9600e8" stroke="none" stroke-width="0" stroke-linecap="butt"/><path d="M226.375,177.2143c0,-2.51786 0,-5.81626 0,-7.25c0,-1.35211 0.75433,-3.1375 2,-3.1375c5.11953,0 18.53829,0 22,0c1.58383,0 3.25,1.61986 3.25,2.8875c0,1.63028 0,5.86195 0,8.5c0,1.31749 -1.66617,2.2375 -3.25,2.2375c-3.30393,0 -15.67796,0 -21.25,0c-1.6866,0 -2.75,-1.41407 -2.75,-3.2375z" fill="#eee5f2" stroke="none" stroke-width="0" stroke-linecap="butt"/><path d="M236.5,173.6393c0,-1.933 1.567,-3.5 3.5,-3.5c1.933,0 3.5,1.567 3.5,3.5c0,1.933 -1.567,3.5 -3.5,3.5c-1.933,0 -3.5,-1.567 -3.5,-3.5z" fill="#c65ff2" stroke="none" stroke-width="0" stroke-linecap="butt"/><path d="M210.125,153.71428c0,0 5.99653,5.1234 8.48764,6.27669c1.69215,0.7834 5.01236,-0.02669 5.01236,-0.02669v8.25c0,0 -4.29045,-0.51188 -7.08836,-2.04499c-3.22464,-1.76692 -6.41164,-12.45501 -6.41164,-12.45501z" fill="#c65ff2" stroke="none" stroke-width="0" stroke-linecap="butt"/><path d="M263.46336,166.16931c-2.79791,1.53311 -7.08836,2.04499 -7.08836,2.04499v-8.25c0,0 3.32021,0.81009 5.01236,0.02669c2.49111,-1.15329 8.48764,-6.27669 8.48764,-6.27669c0,0 -3.187,10.68809 -6.41164,12.45501z" data-paper-data="{&quot;index&quot;:null}" fill="#c65ff2" stroke="none" stroke-width="0" stroke-linecap="butt"/><path d="M223.375,159.71428h33" fill="none" stroke="#a600ff" stroke-width="2.5" stroke-linecap="round"/><path d="M256.375,187.7143h-33" fill="none" stroke="#a600ff" stroke-width="2.5" stroke-linecap="round"/><g fill="#eee5f2" stroke="none" stroke-width="0" stroke-linecap="butt"><path d="M223.125,188.9643h6.75c0,0 -1.92561,3.71368 -2.56919,4.95487c-0.38737,0.74708 -1.34033,0.94459 -1.65464,0.2918c-0.58718,-1.21952 -2.52617,-5.24666 -2.52617,-5.24666z"/><path d="M229.69643,188.9643h6.75c0,0 -1.92561,3.71368 -2.56919,4.95487c-0.38737,0.74708 -1.34033,0.94459 -1.65464,0.2918c-0.58718,-1.21952 -2.52617,-5.24666 -2.52617,-5.24666z"/></g><g fill="#eee5f2" stroke="none" stroke-width="0" stroke-linecap="butt"><path d="M236.55357,188.9643h6.75c0,0 -1.92562,3.71368 -2.56919,4.95487c-0.38737,0.74708 -1.34033,0.94459 -1.65464,0.2918c-0.58718,-1.21952 -2.52617,-5.24666 -2.52617,-5.24666z"/><path d="M243.125,188.9643h6.75c0,0 -1.92561,3.71368 -2.56919,4.95487c-0.38737,0.74708 -1.34033,0.94459 -1.65464,0.2918c-0.58718,-1.21952 -2.52617,-5.24666 -2.52617,-5.24666z"/></g><path d="M249.83929,188.9643h6.75c0,0 -1.92562,3.71368 -2.56919,4.95487c-0.38737,0.74708 -1.34033,0.94459 -1.65464,0.2918c-0.58718,-1.21952 -2.52617,-5.24666 -2.52617,-5.24666z" fill="#eee5f2" stroke="none" stroke-width="0" stroke-linecap="butt"/><g><path d="M223.64286,205.5393v-5.57143h32.57143v5.57143z" fill="#9600e8" stroke="none" stroke-width="0" stroke-linecap="butt"/><path d="M256.94643,199.09525h-33" fill="none" stroke="#a600ff" stroke-width="2.5" stroke-linecap="round"/><path d="M223.51786,206.28573h33" fill="none" stroke="#a600ff" stroke-width="2.5" stroke-linecap="round"/></g></g></g></svg>