<svg version="1.1" xmlns="http://www.w3.org/2000/svg" xmlns:xlink="http://www.w3.org/1999/xlink" width="65.10533" height="62" viewBox="0,0,65.10533,62"><g transform="translate(-206.77731,-149)"><g data-paper-data="{&quot;isPaintingLayer&quot;:true}" stroke-miterlimit="10" stroke-dasharray="" stroke-dashoffset="0" style="mix-blend-mode: normal"><g><path d="M244.04516,163.18822v0c1.64078,0 2.75967,1.38582 2.75967,2.7345c0,0 0,6.97241 0,11.62223c0,5.08231 0,12.43799 0,12.43799c0,1.34866 -0.86058,3.02691 -2.50133,3.02691h-0.09394c-1.64078,0 -2.59528,-1.67823 -2.59528,-3.02691l-0.17343,-23.75675c0,-1.34866 0.96355,-3.03799 2.60431,-3.03799z" fill="#ffffff" fill-rule="evenodd" stroke="none" stroke-width="1" stroke-linecap="round" stroke-linejoin="round"/><path d="M233.94526,175.14399c-0.92574,-1.04254 -0.70653,-3.00655 0.29404,-3.92191c0,0 4.89491,-4.40008 8.32314,-7.53636c0.42128,0.57437 0.69334,1.2243 1.19205,1.75847c0.87733,0.93976 0.98662,1.48458 2.0001,2.19735l-7.76414,7.14887c-1.00056,0.91536 -2.95038,1.43368 -3.95125,0.39117z" data-paper-data="{&quot;origRot&quot;:0}" fill="#ffffff" fill-rule="evenodd" stroke="none" stroke-width="1" stroke-linecap="round" stroke-linejoin="round"/><path d="M218.3372,211v-62h53.54545v62z" fill="none" fill-rule="nonzero" stroke="none" stroke-width="0" stroke-linecap="butt" stroke-linejoin="miter"/><text transform="translate(208.11736,191.9353) scale(0.89336,0.89336)" font-size="40" xml:space="preserve" fill="#ffffff" fill-rule="nonzero" stroke="#ffffff" stroke-width="3" stroke-linecap="butt" stroke-linejoin="miter" stroke-miterlimit="10" stroke-dasharray="" stroke-dashoffset="0" font-family="Sans Serif" font-weight="normal" text-anchor="start" style="mix-blend-mode: normal"><tspan x="0" dy="0">+</tspan></text></g></g></g></svg>