<svg version="1.1" xmlns="http://www.w3.org/2000/svg" xmlns:xlink="http://www.w3.org/1999/xlink" width="496.94443" height="345.43899" viewBox="0,0,496.94443,345.43899"><defs><linearGradient x1="116.7094" y1="388.28996" x2="100.42385" y2="399.0128" gradientUnits="userSpaceOnUse" id="color-1"><stop offset="0" stop-color="#8e8e8e"/><stop offset="1" stop-color="#818181"/></linearGradient><linearGradient x1="340.71466" y1="312.99791" x2="307.92459" y2="368.26425" gradientUnits="userSpaceOnUse" id="color-2"><stop offset="0" stop-color="#8e8e8e"/><stop offset="1" stop-color="#818181"/></linearGradient><linearGradient x1="385.43654" y1="313.09786" x2="342.06797" y2="347.08395" gradientUnits="userSpaceOnUse" id="color-3"><stop offset="0" stop-color="#8e8e8e"/><stop offset="1" stop-color="#818181"/></linearGradient><linearGradient x1="149.48263" y1="323.81477" x2="176.90745" y2="355.85915" gradientUnits="userSpaceOnUse" id="color-4"><stop offset="0" stop-color="#8e8e8e"/><stop offset="1" stop-color="#818181"/></linearGradient><linearGradient x1="67.19717" y1="316.56512" x2="51.59739" y2="366.88268" gradientUnits="userSpaceOnUse" id="color-5"><stop offset="0" stop-color="#8e8e8e"/><stop offset="1" stop-color="#818181"/></linearGradient><linearGradient x1="108.25" y1="195.90002" x2="108.25" y2="257.90002" gradientUnits="userSpaceOnUse" id="color-6"><stop offset="0" stop-color="#65ffff"/><stop offset="1" stop-color="#d9efff"/></linearGradient></defs><g transform="translate(5.40239,-74.81503)"><g data-paper-data="{&quot;isPaintingLayer&quot;:true}" fill-rule="nonzero" stroke-linejoin="miter" stroke-miterlimit="10" stroke-dasharray="" stroke-dashoffset="0" style="mix-blend-mode: normal"><path d="M-3.5,272.80001v-197.98498h495.04204v197.98499z" fill="#cecece" stroke="none" stroke-width="0" stroke-linecap="butt"/><g stroke="none" stroke-linecap="butt"><path d="M95.09759,394.58573l6.58466,-7.86422l17.64866,3.77381l-6.31422,12.029l-12.76707,-0.75551z" data-paper-data="{&quot;origPos&quot;:null,&quot;origRot&quot;:0}" fill="#534c42" stroke-width="0"/><path d="M97.40685,393.72633l5.90934,-7.05764l15.83856,3.38678l-5.66666,10.79525l-11.45769,-0.67802z" data-paper-data="{&quot;origPos&quot;:null,&quot;origRot&quot;:0}" fill="url(#color-1)" stroke-width="NaN"/></g><path d="M-5.11505,353.67135v-74.52655c0,0 48.46576,7.45265 86.06402,7.45265c39.63923,0 141.5425,-7.67744 226.43115,-9.4622c92.05416,-1.93542 165.86075,2.00956 165.86075,2.00956v74.52655z" fill="#7c7262" stroke="none" stroke-width="0" stroke-linecap="butt"/><path d="M-5.40239,417.59974v-74.52655c0,0 48.5285,7.45265 86.17541,7.45265c39.69054,0 141.72566,-7.67744 226.72411,-9.4622c92.17329,-1.93542 166.07538,2.00956 166.07538,2.00956v74.52655z" fill="#786e5f" stroke="none" stroke-width="0" stroke-linecap="butt"/><path d="M-4.87222,420.25401v-37.05188c0,0 48.35969,3.70519 85.87567,3.70519c39.55249,0 141.2327,-3.81693 225.93555,-4.70428c91.85269,-0.96221 165.49775,0.9991 165.49775,0.9991v37.05188z" fill="#6f6558" stroke="none" stroke-width="0" stroke-linecap="butt"/><path d="M-5.22876,290.69768v-32.95167h480.36753v32.95167z" fill="#949494" stroke="none" stroke-width="0" stroke-linecap="butt"/><path d="M-5.13878,290.69768v-13.30453h478.89508v13.30453z" fill="#b5b5b5" stroke="none" stroke-width="0" stroke-linecap="butt"/><g stroke="none" stroke-linecap="butt"><path d="M286.31014,355.27856l8.87873,-36.16014l54.63998,0.37413l-2.94458,52.24412l-37.07625,7.45925z" data-paper-data="{&quot;origPos&quot;:null,&quot;origRot&quot;:0}" fill="#534c42" stroke-width="0"/><path d="M292.82369,350.02994l7.96811,-32.45141l49.03584,0.33577l-2.64263,46.88573l-33.27354,6.69417z" data-paper-data="{&quot;origPos&quot;:null,&quot;origRot&quot;:0}" fill="url(#color-2)" stroke-width="NaN"/></g><g stroke="none" stroke-linecap="butt"><path d="M327.20618,332.4962l17.53513,-24.92571l46.99885,11.96112l-16.81494,38.12603l-33.99905,-2.39454z" data-paper-data="{&quot;origPos&quot;:null,&quot;origRot&quot;:0}" fill="#534c42" stroke-width="0"/><path d="M334.03355,330.32844l15.73671,-22.36922l42.17843,10.73433l-15.0904,34.21564l-30.51196,-2.14891z" data-paper-data="{&quot;origPos&quot;:null,&quot;origRot&quot;:0}" fill="url(#color-3)" stroke-width="NaN"/></g><g stroke="none" stroke-linecap="butt"><path d="M164.40798,365.47787l-21.76648,-13.73023l13.90335,-31.35114l33.91819,14.15045l-4.31801,23.1124z" data-paper-data="{&quot;origRot&quot;:0}" fill="#534c42" stroke-width="0"/><path d="M161.61798,360.20091l-18.82083,-12.32205l12.02174,-28.13558l29.32799,12.69916l-3.73359,20.74185z" data-paper-data="{&quot;origRot&quot;:0}" fill="url(#color-4)" stroke-width="NaN"/></g><g stroke="none" stroke-linecap="butt"><path d="M30.14378,360.50708l-0.6419,-30.4996l47.22308,-10.22854l9.45371,42.16174l-30.27274,13.08147z" data-paper-data="{&quot;origRot&quot;:0}" fill="#534c42" stroke-width="0"/><path d="M34.3839,355.27453l-0.57606,-27.37144l42.37965,-9.17942l8.48402,37.83744l-27.16782,11.73975z" data-paper-data="{&quot;origRot&quot;:0}" fill="url(#color-5)" stroke-width="NaN"/></g><path d="M66.5,170.80003c0,-23.74824 19.25176,-43 43,-43c23.74825,0 43,19.25176 43,43c0,23.74824 -19.25176,43 -43,43c-23.74824,0 -43,-19.25176 -43,-43z" fill="#b3b3b3" stroke="none" stroke-width="0" stroke-linecap="butt"/><path d="M73.5,170.80003c0,-19.88225 16.11775,-36 36,-36c19.88225,0 36,16.11775 36,36c0,19.88225 -16.11775,36 -36,36c-19.88225,0 -36,-16.11775 -36,-36z" fill="#949494" stroke="none" stroke-width="0" stroke-linecap="butt"/><path d="M88.75,257.90002c0,0 0,-49.1204 0,-57.5c0,-2.34421 -5,-4.5 -5,-4.5h51c0,0 -7,2.70529 -7,5.5c0,8.95736 0,56.5 0,56.5z" fill="url(#color-6)" stroke="none" stroke-width="0" stroke-linecap="butt"/><g fill="#a9a9a9" stroke="none" stroke-width="0" stroke-linecap="butt"><g><path d="M269.87467,249.08298l-48.1691,7.8415l-0.46894,-2.88064l48.1691,-7.8415z"/><path d="M221.77953,256.96601l-2.94307,-18.07879l7.02243,-1.14319l2.94307,18.07879z"/><path d="M219.03419,238.80412l48.1691,-7.8415l0.42906,2.63565l-48.1691,7.8415z" data-paper-data="{&quot;index&quot;:null}"/><path d="M267.12932,230.92108l2.94307,18.07879l-6.36969,1.03693l-2.94307,-18.07879z" data-paper-data="{&quot;index&quot;:null}"/><path d="M265.05962,234.89316l-36.39641,18.60834l-4.60013,-1.18121l36.39641,-18.60834z"/><path d="M262.57169,248.06575l-40.41926,-6.10344l3.98796,-2.57927l40.41926,6.10344z" data-paper-data="{&quot;index&quot;:null}"/></g><g><path d="M313.94269,241.80499l-48.16911,7.8415l-0.46894,-2.88064l48.16911,-7.8415z"/><path d="M265.84755,249.68803l-2.94307,-18.07879l7.02243,-1.14319l2.94307,18.07879z"/><path d="M263.1022,231.52614l48.16911,-7.8415l0.42906,2.63565l-48.16911,7.8415z" data-paper-data="{&quot;index&quot;:null}"/><path d="M311.19734,223.64309l2.94307,18.07879l-6.36969,1.03693l-2.94307,-18.07879z" data-paper-data="{&quot;index&quot;:null}"/><path d="M309.12763,227.61518l-36.39641,18.60834l-4.60013,-1.18121l36.39641,-18.60834z"/><path d="M306.6397,240.78775l-40.41926,-6.10344l3.98796,-2.57927l40.41926,6.10344z" data-paper-data="{&quot;index&quot;:null}"/></g><g><g><path d="M358.47097,234.45081l-48.1691,7.8415l-0.46894,-2.88064l48.1691,-7.8415z"/><path d="M310.37583,242.33386l-2.94307,-18.07879l7.02243,-1.14319l2.94307,18.07879z"/><path d="M307.63048,224.17196l48.16911,-7.8415l0.42906,2.63565l-48.16911,7.8415z" data-paper-data="{&quot;index&quot;:null}"/><path d="M355.72562,216.28892l2.94307,18.07879l-6.36969,1.03693l-2.94307,-18.07879z" data-paper-data="{&quot;index&quot;:null}"/><path d="M353.65591,220.261l-36.39641,18.60834l-4.60013,-1.18121l36.39641,-18.60834z"/><path d="M351.16799,233.43359l-40.41926,-6.10344l3.98796,-2.57927l40.41926,6.10344z" data-paper-data="{&quot;index&quot;:null}"/></g><g><path d="M402.53898,227.17281l-48.1691,7.8415l-0.46894,-2.88064l48.1691,-7.8415z"/><path d="M354.44385,235.05588l-2.94307,-18.07879l7.02243,-1.14319l2.94307,18.07879z"/><path d="M351.69849,216.89399l48.16911,-7.8415l0.42906,2.63565l-48.16911,7.8415z" data-paper-data="{&quot;index&quot;:null}"/><path d="M399.79364,209.01093l2.94307,18.07879l-6.36969,1.03693l-2.94307,-18.07879z" data-paper-data="{&quot;index&quot;:null}"/><path d="M397.72392,212.983l-36.39641,18.60834l-4.60013,-1.18121l36.39641,-18.60834z"/><path d="M395.23601,226.1556l-40.41926,-6.10344l3.98796,-2.57927l40.41926,6.10344z" data-paper-data="{&quot;index&quot;:null}"/></g></g></g><path d="M344.82228,257.95403v-21.25h69.98333v21.25z" fill="#eae09d" stroke="none" stroke-width="0" stroke-linecap="butt"/><path d="M345.05561,242.45403v-5.5h69.75v5.5z" fill="#c8bf86" stroke="none" stroke-width="0" stroke-linecap="butt"/><path d="M47.36819,109.05403v14" fill="none" stroke="#949494" stroke-width="2" stroke-linecap="round"/><path d="M48.36819,117.05403h12v12" fill="none" stroke="#949494" stroke-width="2" stroke-linecap="round"/><path d="M232.36819,167.05403h-37" fill="none" stroke="#949494" stroke-width="2" stroke-linecap="round"/><path d="M191.36819,159.05403h32v8" fill="none" stroke="#949494" stroke-width="2" stroke-linecap="round"/><path d="M211.36819,158.05403v-6h19" fill="none" stroke="#949494" stroke-width="2" stroke-linecap="round"/><path d="M428.36819,97.05403v7h-23" fill="none" stroke="#949494" stroke-width="2" stroke-linecap="round"/><path d="M429.36819,118.05403h-13v-12" fill="none" stroke="#949494" stroke-width="2" stroke-linecap="round"/><path d="M438.36819,215.05403v9h-28" fill="none" stroke="#949494" stroke-width="2" stroke-linecap="round"/><path d="M445.36819,237.05403h-15v-14" fill="none" stroke="#949494" stroke-width="2" stroke-linecap="round"/></g></g></svg>