<svg version="1.1" xmlns="http://www.w3.org/2000/svg" xmlns:xlink="http://www.w3.org/1999/xlink" width="259.13199" height="334.04952" viewBox="0,0,259.13199,334.04952"><g transform="translate(-151.5,-147.3)"><g data-paper-data="{&quot;isPaintingLayer&quot;:true}" fill-rule="nonzero" stroke="none" stroke-width="0" stroke-linecap="butt" stroke-linejoin="miter" stroke-miterlimit="10" stroke-dasharray="" stroke-dashoffset="0" style="mix-blend-mode: normal"><path d="M151.5,481.34952v-240.46228h21v240.46228z" fill="#6d6d6d"/><path d="M390.5,479.34952v-221.54951c0.76623,-1.52161 0,-18.91277 0,-18.91277h17v240.46229z" fill="#6d6d6d"/><path d="M275.76886,260.61838v-21h126.89393c0.05667,0.76512 -0.22092,20.15696 -0.48258,20.66667z" fill="#6d6d6d"/><g fill="#6d6d6d"><path d="M347.5,412.88724v-18h51v18z" data-paper-data="{&quot;index&quot;:null}"/><path d="M337.5,428.88724v-18h56v18z" data-paper-data="{&quot;index&quot;:null}"/><path d="M324.5,445.88724v-18h83v18z" data-paper-data="{&quot;index&quot;:null}"/><path d="M314.5,461.88724v-18h83v18z" data-paper-data="{&quot;index&quot;:null}"/></g><g data-paper-data="{&quot;index&quot;:null}" fill="#6d6d6d"><path d="M162.5,330.88723v-18h51v18z" data-paper-data="{&quot;index&quot;:null}"/><path d="M167.5,346.88724v-18h56v18z" data-paper-data="{&quot;index&quot;:null}"/><path d="M153.5,363.88724v-18h83v18z" data-paper-data="{&quot;index&quot;:null}"/><path d="M163.5,379.88724v-18h83v18z" data-paper-data="{&quot;index&quot;:null}"/></g><path d="M163.05031,253.45312l-9.68229,-11.45658l101.58167,-85.84966l9.68229,11.45658z" fill="#6d6d6d"/><path d="M410.63199,239.99654l-9.68229,11.45658l-53.08344,-44.86237c1.63093,0.30214 3.27044,0.54423 4.92486,0.6841c6.07433,0.51352 12.63707,0.02516 18.70889,0.02516c0.14744,0 0.29537,0 0.44378,0z" data-paper-data="{&quot;index&quot;:null}" fill="#6d6d6d"/><path d="M343.5,248.3v-42h12v42z" fill="#6d6d6d"/><path d="M350.5,244.3v-32h17v32z" fill="#6d6d6d"/><path d="M365.5,242.3v-18h13v18z" fill="#6d6d6d"/><path d="M370.5,245.3v-15h18v15z" fill="#6d6d6d"/><path d="M344.5,206.3v-59h11v59z" fill="#b4b4b4"/><path d="M253.5,171.3v-15h50v15z" fill="#6d6d6d"/><path d="M293.5,171.55001v-24.25h11v24.25z" fill="#b4b4b4"/><path d="M360.5,230.3v-16h16v16z" fill="#6d6d6d"/></g></g></svg>