<svg version="1.1" xmlns="http://www.w3.org/2000/svg" xmlns:xlink="http://www.w3.org/1999/xlink" width="264.18788" height="166.508" viewBox="0,0,264.18788,166.508"><defs><linearGradient x1="130.83637" y1="392.79448" x2="138.96915" y2="403.51732" gradientUnits="userSpaceOnUse" id="color-1"><stop offset="0" stop-color="#8e8e8e"/><stop offset="1" stop-color="#818181"/></linearGradient><linearGradient x1="112.64851" y1="317.50244" x2="146.25447" y2="372.76877" gradientUnits="userSpaceOnUse" id="color-2"><stop offset="0" stop-color="#8e8e8e"/><stop offset="1" stop-color="#818181"/></linearGradient><linearGradient x1="66.81385" y1="317.60238" x2="111.26154" y2="351.58847" gradientUnits="userSpaceOnUse" id="color-3"><stop offset="0" stop-color="#8e8e8e"/><stop offset="1" stop-color="#818181"/></linearGradient></defs><g transform="translate(70.05198,-258.25053)"><g data-paper-data="{&quot;isPaintingLayer&quot;:true}" fill-rule="nonzero" stroke="none" stroke-linecap="butt" stroke-linejoin="miter" stroke-miterlimit="10" stroke-dasharray="" stroke-dashoffset="0" style="mix-blend-mode: normal"><g data-paper-data="{&quot;index&quot;:null}"><path d="M140.05494,406.27333l-6.3757,0.75551l-3.15324,-12.029l8.8135,-3.77381l3.28829,7.86422z" data-paper-data="{&quot;origPos&quot;:null,&quot;origRot&quot;:0}" fill="#534c42" stroke-width="0"/><path d="M139.16564,404.67722l-5.72182,0.67802l-2.82986,-10.79525l7.90956,-3.38678l2.95105,7.05764z" data-paper-data="{&quot;origPos&quot;:null,&quot;origRot&quot;:0}" fill="url(#color-1)" stroke-width="NaN"/></g><path d="M-46.21192,358.17588v-74.52655c0,0 36.85802,-3.94498 82.82864,-2.00956c42.39226,1.78476 93.28139,9.4622 113.07669,9.4622c18.77607,0 42.97922,-7.45265 42.97922,-7.45265l1.46325,79.03105z" data-paper-data="{&quot;index&quot;:null}" fill="#9a8a7e" stroke-width="0"/><path d="M-46.37753,422.10427v-74.52655c0,0 36.90572,-3.94498 82.93583,-2.00956c42.44709,1.78476 93.40207,9.4622 113.22299,9.4622c18.80037,0 43.03485,-7.45265 43.03485,-7.45265v74.52655z" data-paper-data="{&quot;index&quot;:null}" fill="#887c6d" stroke-width="0"/><path d="M-45.81034,424.75854v-37.05188c0,0 36.77736,-1.96131 82.64736,-0.9991c42.29947,0.88735 93.07721,4.70428 112.82919,4.70428c18.73498,0 42.88516,-3.70519 42.88516,-3.70519v37.05188z" data-paper-data="{&quot;index&quot;:null}" fill="#807566" stroke-width="0"/><path d="M-47.65909,295.20221l-8.77073,-33.95167c0,0 60.6047,-3 99.36408,-3c0.11049,0 71.61679,1.91697 115.61517,3.09677c19.55802,0.52444 33.68061,11.15395 33.68061,16.48978c0,5.63204 0,17.36511 0,17.36511z" data-paper-data="{&quot;index&quot;:null}" fill="#efb95a" stroke-width="0"/><path d="M-64.50346,296.20221c0,0 -7.44205,-13.07008 -5.08841,-14.36335c13.12965,-7.21442 87.31801,-9.94118 116.91149,-9.94118c43.08252,0 144.86426,9.33333 144.86426,9.33333l0.33333,13.9712z" data-paper-data="{&quot;index&quot;:null}" fill="#dfac55" stroke-width="0"/><g data-paper-data="{&quot;index&quot;:null}"><path d="M146.37393,383.70044l-37.99878,-7.45925l-3.01785,-52.24412l55.99953,-0.37413l9.09965,36.16014z" data-paper-data="{&quot;origPos&quot;:null,&quot;origRot&quot;:0}" fill="#534c42" stroke-width="0"/><path d="M142.16836,375.99872l-34.10145,-6.69417l-2.70838,-46.88573l50.25595,-0.33577l8.16637,32.45141z" data-paper-data="{&quot;origPos&quot;:null,&quot;origRot&quot;:0}" fill="url(#color-2)" stroke-width="NaN"/></g><g data-paper-data="{&quot;index&quot;:null}"><path d="M114.48151,359.76763l-34.84501,2.39454l-17.23333,-38.12603l48.16827,-11.96112l17.97144,24.92571z" data-paper-data="{&quot;origPos&quot;:null,&quot;origRot&quot;:0}" fill="#534c42" stroke-width="0"/><path d="M108.92648,355.2648l-31.27116,2.14891l-15.46588,-34.21564l43.22791,-10.73433l16.12827,22.36922z" data-paper-data="{&quot;origPos&quot;:null,&quot;origRot&quot;:0}" fill="url(#color-3)" stroke-width="NaN"/></g></g></g></svg>