<svg version="1.1" xmlns="http://www.w3.org/2000/svg" xmlns:xlink="http://www.w3.org/1999/xlink" width="484.27755" height="421.36679" viewBox="0,0,484.27755,421.36679"><defs><linearGradient x1="123.47517" y1="388.28995" x2="107.0881" y2="399.01279" gradientUnits="userSpaceOnUse" id="color-1"><stop offset="0" stop-color="#8e8e8e"/><stop offset="1" stop-color="#818181"/></linearGradient><linearGradient x1="348.87674" y1="312.99791" x2="315.88227" y2="368.26424" gradientUnits="userSpaceOnUse" id="color-2"><stop offset="0" stop-color="#8e8e8e"/><stop offset="1" stop-color="#818181"/></linearGradient><linearGradient x1="393.87739" y1="313.09785" x2="350.23848" y2="347.08394" gradientUnits="userSpaceOnUse" id="color-3"><stop offset="0" stop-color="#8e8e8e"/><stop offset="1" stop-color="#818181"/></linearGradient><linearGradient x1="156.45268" y1="323.81476" x2="184.04845" y2="355.85914" gradientUnits="userSpaceOnUse" id="color-4"><stop offset="0" stop-color="#8e8e8e"/><stop offset="1" stop-color="#818181"/></linearGradient><linearGradient x1="73.65431" y1="316.56511" x2="57.95729" y2="366.88267" gradientUnits="userSpaceOnUse" id="color-5"><stop offset="0" stop-color="#8e8e8e"/><stop offset="1" stop-color="#818181"/></linearGradient></defs><g transform="translate(0.13878,1.11278)"><g data-paper-data="{&quot;isPaintingLayer&quot;:true}" fill-rule="nonzero" stroke="none" stroke-linecap="butt" stroke-linejoin="miter" stroke-miterlimit="10" stroke-dasharray="" stroke-dashoffset="0" style="mix-blend-mode: normal"><path d="M478.16666,224.55389v6h-70v-6z" data-paper-data="{&quot;index&quot;:null}" fill="#b27f44" stroke-width="0"/><g><path d="M101.72864,394.58572l6.62571,-7.86422l17.75867,3.77381l-6.35358,12.029l-12.84665,-0.75551z" data-paper-data="{&quot;origPos&quot;:null,&quot;origRot&quot;:0}" fill="#534c42" stroke-width="0"/><path d="M104.05229,393.72632l5.94617,-7.05764l15.93729,3.38678l-5.70199,10.79525l-11.52911,-0.67802z" data-paper-data="{&quot;origPos&quot;:null,&quot;origRot&quot;:0}" fill="url(#color-1)" stroke-width="NaN"/></g><path d="M0.89133,353.67134v-74.52655c0,0 48.76786,7.45265 86.60049,7.45265c39.88632,0 142.42479,-7.67744 227.84259,-9.4622c92.62797,-1.93542 166.89463,2.00956 166.89463,2.00956v74.52655z" fill="#7c7262" stroke-width="0"/><path d="M0.6022,417.59973v-74.52655c0,0 48.831,7.45265 86.71257,7.45265c39.93794,0 142.6091,-7.67744 228.13738,-9.4622c92.74785,-1.93542 167.11059,2.00956 167.11059,2.00956v74.52655z" fill="#786e5f" stroke-width="0"/><path d="M1.13567,420.254v-37.05188c0,0 48.66113,3.70519 86.41097,3.70519c39.79903,0 142.11306,-3.81693 227.3439,-4.70428c92.42524,-0.96221 166.52936,0.9991 166.52936,0.9991v37.05188z" fill="#6f6558" stroke-width="0"/><path d="M0.77692,290.69768v-32.95167h483.36185v32.95167z" fill="#949494" stroke-width="0"/><path d="M-0.13878,290.69768v-13.30453h481.88023v13.30453z" fill="#b5b5b5" stroke-width="0"/><g><path d="M294.13309,355.27855l8.93408,-36.16014l54.98058,0.37413l-2.96294,52.24412l-37.30736,7.45925z" data-paper-data="{&quot;origPos&quot;:null,&quot;origRot&quot;:0}" fill="#534c42" stroke-width="0"/><path d="M300.68724,350.02993l8.01778,-32.45141l49.3415,0.33577l-2.65911,46.88573l-33.48095,6.69417z" data-paper-data="{&quot;origPos&quot;:null,&quot;origRot&quot;:0}" fill="url(#color-2)" stroke-width="NaN"/></g><g><path d="M335.28405,332.4962l17.64444,-24.92571l47.29182,11.96112l-16.91976,38.12603l-34.21098,-2.39454z" data-paper-data="{&quot;origPos&quot;:null,&quot;origRot&quot;:0}" fill="#534c42" stroke-width="0"/><path d="M342.15399,330.32843l15.83481,-22.36922l42.44134,10.73433l-15.18447,34.21564l-30.70216,-2.14891z" data-paper-data="{&quot;origPos&quot;:null,&quot;origRot&quot;:0}" fill="url(#color-3)" stroke-width="NaN"/></g><g><path d="M171.47107,365.47786l-21.90216,-13.73023l13.99001,-31.35114l34.12961,14.15045l-4.34492,23.1124z" data-paper-data="{&quot;origRot&quot;:0}" fill="#534c42" stroke-width="0"/><path d="M168.66367,360.2009l-18.93815,-12.32205l12.09667,-28.13558l29.51081,12.69916l-3.75687,20.74185z" data-paper-data="{&quot;origRot&quot;:0}" fill="url(#color-4)" stroke-width="NaN"/></g><g><path d="M36.36994,360.50707l-0.6459,-30.4996l47.51744,-10.22854l9.51264,42.16174l-30.46144,13.08147z" data-paper-data="{&quot;origRot&quot;:0}" fill="#534c42" stroke-width="0"/><path d="M40.63649,355.27452l-0.57965,-27.37144l42.64382,-9.17942l8.53691,37.83744l-27.33717,11.73975z" data-paper-data="{&quot;origRot&quot;:0}" fill="url(#color-5)" stroke-width="NaN"/></g><path d="M155.5,188.8v-151h18v151z" fill="#6d6d6d" stroke-width="0"/><path d="M225.5,257.8v-11h15v11z" fill="#6d6d6d" stroke-width="0"/><path d="M308.5,257.8v-16h84v16z" fill="#6d6d6d" stroke-width="0"/><path d="M390.5,257.8v-69h17v69z" fill="#6d6d6d" stroke-width="0"/><path d="M160.5,51.88722v-18h116v18z" fill="#6d6d6d" stroke-width="0"/><path d="M395.5,193.88722v-60.64048c2.3799,-0.03732 4.76398,-0.17027 7,-0.26523v60.90571z" fill="#6d6d6d" stroke-width="0"/><path d="M395.5,17.88722h7v47.93795c-2.33115,-0.20944 -4.70012,-0.27704 -7,-0.15992z" fill="#6d6d6d" stroke-width="0"/><path d="M391.5,194.88722v-61.69276c4.71929,0.22971 9.80946,-0.24433 14,-0.30724c0.66547,-0.00999 1.33282,0.00161 2,0.00968v61.99032z" fill="#6d6d6d" stroke-width="0"/><path d="M391.5,-1.11278h16v67.60617c-5.02046,-1.10247 -10.63381,-1.5042 -15.60182,-0.59061c-0.1372,0.02523 -0.26979,0.05021 -0.39818,0.07492z" fill="#6d6d6d" stroke-width="0"/><path d="M154.16216,63.99294v-63.39673h18.01802v63.39673z" fill="#6d6d6d" stroke-width="0"/><path d="M151.5,188.88722v-190h19v190z" fill="#6d6d6d" stroke-width="0"/><path d="M204.5,65.88722v-18h83v18z" fill="#6d6d6d" stroke-width="0"/><path d="M214.5,81.88723v-18h83v18z" fill="#6d6d6d" stroke-width="0"/><path d="M227.5,98.88723v-18h83v18z" fill="#6d6d6d" stroke-width="0"/><path d="M237.5,114.88723v-18h83v18z" fill="#6d6d6d" stroke-width="0"/><path d="M347.5,195.88723v-18h51v18z" data-paper-data="{&quot;index&quot;:null}" fill="#6d6d6d" stroke-width="0"/><path d="M337.5,211.88723v-18h56v18z" data-paper-data="{&quot;index&quot;:null}" fill="#6d6d6d" stroke-width="0"/><path d="M324.5,228.88723v-18h83v18z" data-paper-data="{&quot;index&quot;:null}" fill="#6d6d6d" stroke-width="0"/><path d="M314.5,244.88723v-18h83v18z" data-paper-data="{&quot;index&quot;:null}" fill="#6d6d6d" stroke-width="0"/><path d="M163.5,127.88722v-23h157v23z" fill="#6d6d6d" stroke-width="0"/><path d="M170.5,105.88722v-60h80v60z" fill="#6d6d6d" stroke-width="0"/><path d="M152.49999,257.88722v-15h247v15z" fill="#6d6d6d" stroke-width="0"/><path d="M142.5,257.88722v-9h25v9z" fill="#6d6d6d" stroke-width="0"/><path d="M391.30544,68.35389v-13h16.33333v13z" fill="#6d6d6d" stroke-width="0"/><path d="M391.63877,138.68722v-5.66667h15.66667v5.66667z" fill="#6d6d6d" stroke-width="0"/><path d="M407.5,220.88722v-9h70v9z" fill="#dc9c54" stroke-width="0"/><path d="M407.5,226.88722v-6h70v6z" fill="#b27f44" stroke-width="0"/><path d="M474.5,257.88722v-51h9v51z" fill="#b27f44" stroke-width="0"/><path d="M407.5,257.88723v-51h9v51z" fill="#b27f44" stroke-width="0"/></g></g></svg>