<svg version="1.1" xmlns="http://www.w3.org/2000/svg" xmlns:xlink="http://www.w3.org/1999/xlink" width="493.52284" height="383.35445" viewBox="0,0,493.52284,383.35445"><defs><linearGradient x1="95.79187" y1="391.29297" x2="79.10111" y2="402.01581" gradientUnits="userSpaceOnUse" id="color-1"><stop offset="0" stop-color="#8e8e8e"/><stop offset="1" stop-color="#818181"/></linearGradient><linearGradient x1="325.3708" y1="316.00093" x2="291.76484" y2="371.26726" gradientUnits="userSpaceOnUse" id="color-2"><stop offset="0" stop-color="#8e8e8e"/><stop offset="1" stop-color="#818181"/></linearGradient><linearGradient x1="371.20547" y1="316.10087" x2="326.75777" y2="350.08696" gradientUnits="userSpaceOnUse" id="color-3"><stop offset="0" stop-color="#8e8e8e"/><stop offset="1" stop-color="#818181"/></linearGradient><linearGradient x1="129.38056" y1="326.81778" x2="157.48775" y2="358.86216" gradientUnits="userSpaceOnUse" id="color-4"><stop offset="0" stop-color="#8e8e8e"/><stop offset="1" stop-color="#818181"/></linearGradient><linearGradient x1="45.04768" y1="319.56813" x2="29.05975" y2="369.88569" gradientUnits="userSpaceOnUse" id="color-5"><stop offset="0" stop-color="#8e8e8e"/><stop offset="1" stop-color="#818181"/></linearGradient></defs><g transform="translate(31.40806,-39.90258)"><g data-paper-data="{&quot;isPaintingLayer&quot;:true}" fill-rule="nonzero" stroke-linecap="butt" stroke-linejoin="miter" stroke-miterlimit="10" stroke-dasharray="" stroke-dashoffset="0" style="mix-blend-mode: normal"><g stroke="none"><path d="M71.59256,397.58874l6.7485,-7.86422l18.08779,3.77381l-6.47133,12.029l-13.08474,-0.75551z" data-paper-data="{&quot;origPos&quot;:null,&quot;origRot&quot;:0}" fill="#534c42" stroke-width="0"/><path d="M73.95928,396.72934l6.05638,-7.05764l16.23265,3.38678l-5.80766,10.79525l-11.74278,-0.67802z" data-paper-data="{&quot;origPos&quot;:null,&quot;origRot&quot;:0}" fill="url(#color-1)" stroke-width="NaN"/></g><path d="M-30.95888,361.49463l0.47685,-79.34682c0,0 49.04014,7.45265 87.57392,7.45265c40.62553,0 145.06435,-7.67744 232.0652,-9.4622c94.34465,-1.93542 169.98769,2.00956 169.98769,2.00956v74.52655z" fill="#9a8a7e" stroke="none" stroke-width="0"/><path d="M-31.40806,420.60275l0.63154,-74.52655c0,0 49.10444,7.45265 87.68808,7.45265c40.67812,0 145.25207,-7.67744 232.36545,-9.4622c94.46674,-1.93542 170.20766,2.00956 170.20766,2.00956v74.52655z" fill="#887c6d" stroke="none" stroke-width="0"/><path d="M-30.8647,423.25702v-37.05188c0,0 49.56297,3.70519 88.01242,3.70519c40.53663,0 144.74684,-3.81693 231.55726,-4.70428c94.13816,-0.96221 169.61565,0.9991 169.61565,0.9991v37.05188z" fill="#807566" stroke="none" stroke-width="0"/><path d="M-30.20523,293.7007c0,0 0,-12.02062 0,-17.70131c0,-5.27277 7.65198,-15.25036 17.37607,-15.25036c50.83868,0 474.94394,0 474.94394,0v32.95167z" fill="#f9f9f9" stroke="none" stroke-width="0"/><path d="M-31.21547,294.33224l0.63154,-13.93607h489.23207v13.30453z" fill="#e4e4e4" stroke="none" stroke-width="0"/><g stroke="none"><path d="M267.56282,358.28157l9.09965,-36.16014l55.99953,0.37413l-3.01785,52.24412l-37.99878,7.45925z" data-paper-data="{&quot;origPos&quot;:null,&quot;origRot&quot;:0}" fill="#534c42" stroke-width="0"/><path d="M274.23846,353.03295l8.16637,-32.45141l50.25595,0.33577l-2.70838,46.88573l-34.10145,6.69417z" data-paper-data="{&quot;origPos&quot;:null,&quot;origRot&quot;:0}" fill="url(#color-2)" stroke-width="NaN"/></g><g stroke="none"><path d="M309.47643,335.49922l17.97144,-24.92571l48.16827,11.96112l-17.23333,38.12603l-34.84501,-2.39454z" data-paper-data="{&quot;origPos&quot;:null,&quot;origRot&quot;:0}" fill="#534c42" stroke-width="0"/><path d="M316.47369,333.33145l16.12827,-22.36922l43.22791,10.73433l-15.46588,34.21564l-31.27116,-2.14891z" data-paper-data="{&quot;origPos&quot;:null,&quot;origRot&quot;:0}" fill="url(#color-3)" stroke-width="NaN"/></g><g stroke="none"><path d="M142.62751,368.48088l-22.30807,-13.73023l14.24929,-31.35114l34.76214,14.15045l-4.42545,23.1124z" data-paper-data="{&quot;origRot&quot;:0}" fill="#534c42" stroke-width="0"/><path d="M139.76809,363.20392l-19.28913,-12.32205l12.32086,-28.13558l30.05773,12.69916l-3.82649,20.74185z" data-paper-data="{&quot;origRot&quot;:0}" fill="url(#color-4)" stroke-width="NaN"/></g><g stroke="none"><path d="M5.02256,363.51009l-0.65787,-30.4996l48.39808,-10.22854l9.68894,42.16174l-31.02598,13.08147z" data-paper-data="{&quot;origRot&quot;:0}" fill="#534c42" stroke-width="0"/><path d="M9.36817,358.27754l-0.59039,-27.37144l43.43414,-9.17942l8.69512,37.83744l-27.84381,11.73975z" data-paper-data="{&quot;origRot&quot;:0}" fill="url(#color-5)" stroke-width="NaN"/></g><path d="M276.50001,151.80001v-85h13v85z" fill="#6d6d6d" stroke="#6d6d6d" stroke-width="2"/><path d="M267.90276,79.47143l-3.3868,-12.55108l95.5813,-25.79178l3.3868,12.55108z" fill="#6d6d6d" stroke="#6d6d6d" stroke-width="2"/><path d="M357.51595,53.67966l3.3868,-12.55108l95.5813,25.79178l-3.3868,12.55107z" data-paper-data="{&quot;index&quot;:null}" fill="#6d6d6d" stroke="#6d6d6d" stroke-width="2"/><path d="M435.50001,156.80001v-85h13v85z" fill="#6d6d6d" stroke="#6d6d6d" stroke-width="2"/><path d="M410.50001,157.8v-13h38v13z" fill="#6d6d6d" stroke="#6d6d6d" stroke-width="2"/><path d="M394.50001,171.8v-13h54v13z" fill="#6d6d6d" stroke="#6d6d6d" stroke-width="2"/><path d="M379.5,185.80001v-13h69v13z" fill="#6d6d6d" stroke="#6d6d6d" stroke-width="2"/><path d="M362.5,199.80001v-13h86v13z" fill="#6d6d6d" stroke="#6d6d6d" stroke-width="2"/><path d="M344.50001,214.80001v-13h104v13z" fill="#6d6d6d" stroke="#6d6d6d" stroke-width="2"/><path d="M-30.19261,105.67501v-5.75h178v5.75z" fill="#9600e8" stroke="none" stroke-width="0"/></g></g></svg>