<svg version="1.1" xmlns="http://www.w3.org/2000/svg" xmlns:xlink="http://www.w3.org/1999/xlink" width="378.62665" height="338.1075" viewBox="0,0,378.62665,338.1075"><g transform="translate(-52.6867,40.815)"><g data-paper-data="{&quot;isPaintingLayer&quot;:true}" fill="#916e41" fill-rule="nonzero" stroke="#916e41" stroke-width="2" stroke-linecap="butt" stroke-linejoin="miter" stroke-miterlimit="10" stroke-dasharray="" stroke-dashoffset="0" style="mix-blend-mode: normal"><path d="M53.6867,295.80303v-213.21322h12.01201v213.21322z"/><path d="M417.30033,296.2925v-205.7057h13.01302v205.7057z"/><path d="M58.42122,277.05688v-15.63085h178.99361v15.63085z"/><path d="M60.61068,260.74296v-13.51351h111.02088v13.51351z"/><path d="M62.30998,246.22346v-13.51351h91.77851v13.51351z"/><path d="M62.0549,231.70392v-13.51351h77.49353v13.51351z"/><path d="M55.32556,217.18442v-13.51351h69.69376v13.51351z"/><path d="M153.51128,149.92475v-15.63085h268.59721v15.63085z"/><path d="M54.4032,87.35718v-15.63085h305.62424v15.63085z"/><path d="M94.73174,80.30513v-37.53754h45.04505v37.53754z"/><path d="M205.84286,77.30212v-117.11712h31.53153v117.11712z"/><path d="M312.44946,71.29612v-24.02402h37.53754v24.02402z"/></g></g></svg>