<svg version="1.1" xmlns="http://www.w3.org/2000/svg" xmlns:xlink="http://www.w3.org/1999/xlink" width="548.63878" height="242.07131" viewBox="0,0,548.63878,242.07131"><defs><linearGradient x1="422.17618" y1="388.28995" x2="438.66476" y2="399.01279" gradientUnits="userSpaceOnUse" id="color-1"><stop offset="0" stop-color="#8e8e8e"/><stop offset="1" stop-color="#818181"/></linearGradient><linearGradient x1="388.99438" y1="323.81476" x2="361.22766" y2="355.85914" gradientUnits="userSpaceOnUse" id="color-2"><stop offset="0" stop-color="#8e8e8e"/><stop offset="1" stop-color="#818181"/></linearGradient><linearGradient x1="472.30567" y1="316.56511" x2="488.09993" y2="366.88267" gradientUnits="userSpaceOnUse" id="color-3"><stop offset="0" stop-color="#8e8e8e"/><stop offset="1" stop-color="#818181"/></linearGradient></defs><g transform="translate(2.08289,-178.1827)"><g data-paper-data="{&quot;isPaintingLayer&quot;:true}" fill-rule="nonzero" stroke="none" stroke-linecap="butt" stroke-linejoin="miter" stroke-miterlimit="10" stroke-dasharray="" stroke-dashoffset="0" style="mix-blend-mode: normal"><g data-paper-data="{&quot;index&quot;:null}" fill="#a9a9a9" stroke-width="0"><g><path d="M140.28929,274.72848l-39.52992,28.62057l-1.71159,-2.36399l39.52992,-28.62058z"/><path d="M100.84411,303.35299l-10.74185,-14.83634l5.76295,-4.17251l10.74185,14.83634z"/><path d="M90.24169,288.35368l39.52991,-28.62057l1.56602,2.16294l-39.52991,28.62058z" data-paper-data="{&quot;index&quot;:null}"/><path d="M129.68685,259.72917l10.74185,14.83634l-5.22728,3.78467l-10.74185,-14.83634z" data-paper-data="{&quot;index&quot;:null}"/><path d="M129.61938,264.20763l-24.17785,32.96058l-4.64109,1.00837l24.17786,-32.96059z"/><path d="M133.30628,277.09612l-38.86083,12.68089l2.40672,-4.0944l38.86082,-12.68089z" data-paper-data="{&quot;index&quot;:null}"/></g><g><path d="M176.40694,248.4516l-39.52992,28.62058l-1.71159,-2.36399l39.52992,-28.62059z"/><path d="M136.96177,277.07612l-10.74185,-14.83634l5.76295,-4.17251l10.74185,14.83634z"/><path d="M126.35932,262.07682l39.52993,-28.62059l1.56602,2.16295l-39.52992,28.62058z" data-paper-data="{&quot;index&quot;:null}"/><path d="M165.8045,233.45228l10.74185,14.83634l-5.22728,3.78468l-10.74185,-14.83634z" data-paper-data="{&quot;index&quot;:null}"/><path d="M165.73703,237.93074l-24.17786,32.96059l-4.64108,1.00837l24.17786,-32.96059z"/><path d="M169.42392,250.81924l-38.86083,12.68089l2.40672,-4.0944l38.86083,-12.68089z" data-paper-data="{&quot;index&quot;:null}"/></g><g><g><path d="M212.90174,221.90012l-39.52991,28.62057l-1.71159,-2.36399l39.52991,-28.62058z"/><path d="M173.45657,250.52464l-10.74185,-14.83634l5.76294,-4.17251l10.74185,14.83634z"/><path d="M162.85413,235.52532l39.52992,-28.62058l1.56602,2.16295l-39.52992,28.62058z" data-paper-data="{&quot;index&quot;:null}"/><path d="M202.29929,206.90081l10.74185,14.83634l-5.22727,3.78467l-10.74185,-14.83634z" data-paper-data="{&quot;index&quot;:null}"/><path d="M202.23183,211.37925l-24.17786,32.96059l-4.64108,1.00837l24.17786,-32.96058z"/><path d="M205.91872,224.26776l-38.86083,12.68089l2.40672,-4.0944l38.86083,-12.68089z" data-paper-data="{&quot;index&quot;:null}"/></g><g><path d="M249.01938,195.62323l-39.52991,28.62058l-1.71159,-2.364l39.52991,-28.62058z"/><path d="M209.57423,224.24776l-10.74185,-14.83634l5.76295,-4.17251l10.74185,14.83634z"/><path d="M198.97178,209.24845l39.52992,-28.62058l1.56602,2.16295l-39.52992,28.62058z" data-paper-data="{&quot;index&quot;:null}"/><path d="M238.41695,180.62391l10.74185,14.83634l-5.22727,3.78468l-10.74186,-14.83634z" data-paper-data="{&quot;index&quot;:null}"/><path d="M238.34947,185.10237l-24.17786,32.96059l-4.64108,1.00837l24.17786,-32.96058z"/><path d="M242.03638,197.99087l-38.86083,12.68089l2.40672,-4.0944l38.86082,-12.68089z" data-paper-data="{&quot;index&quot;:null}"/></g></g></g><g fill="#a9a9a9" stroke-width="0"><path d="M389.55579,311.1842l-48.80176,0.37502l-0.02243,-2.91847l48.80176,-0.37502z"/><path d="M340.82078,311.6116l-0.14075,-18.31624l7.11466,-0.05466l0.14075,18.31624z"/><path d="M340.88812,293.24352l48.80177,-0.37501l0.02051,2.67027l-48.80176,0.37501z" data-paper-data="{&quot;index&quot;:null}"/><path d="M389.62315,292.81612l0.14075,18.31624l-6.45335,0.04959l-0.14075,-18.31624z" data-paper-data="{&quot;index&quot;:null}"/><path d="M386.96976,296.42453l-38.81609,12.81719l-4.36508,-1.8715l38.81608,-12.81719z"/><path d="M382.49461,309.06098l-39.00847,-12.21915l4.3358,-1.93836l39.00848,12.21915z" data-paper-data="{&quot;index&quot;:null}"/></g><g data-paper-data="{&quot;index&quot;:null}" fill="#a9a9a9" stroke-width="0"><g><path d="M291.54649,307.71169l48.80175,0.37502l-0.02243,2.91847l-48.80175,-0.37501z"/><path d="M333.14442,311.00289l0.14075,-18.31624l7.11466,0.05468l-0.14075,18.31624z"/><path d="M340.1712,295.35976l-48.80175,-0.37502l0.02052,-2.67027l48.80175,0.37502z" data-paper-data="{&quot;index&quot;:null}"/><path d="M297.91005,292.31168l-0.14075,18.31624l-6.45335,-0.04959l0.14075,-18.31624z" data-paper-data="{&quot;index&quot;:null}"/><path d="M298.47516,293.999l38.81609,12.81719l-4.36508,1.87151l-38.81608,-12.8172z"/><path d="M294.24944,306.56858l39.00847,-12.21915l4.33581,1.93837l-39.00848,12.21915z" data-paper-data="{&quot;index&quot;:null}"/></g><g><path d="M246.88375,307.26572l48.80176,0.37502l-0.02243,2.91847l-48.80176,-0.37501z"/><path d="M288.48167,310.55693l0.14075,-18.31624l7.11466,0.05467l-0.14075,18.31624z"/><path d="M295.50848,294.91378l-48.80176,-0.37501l0.02051,-2.67027l48.80176,0.37502z" data-paper-data="{&quot;index&quot;:null}"/><path d="M253.24731,291.86571l-0.14075,18.31624l-6.45335,-0.04959l0.14075,-18.31624z" data-paper-data="{&quot;index&quot;:null}"/><path d="M253.81243,293.55303l38.81609,12.81719l-4.36508,1.8715l-38.81609,-12.81719z"/><path d="M249.5867,306.12262l39.00848,-12.21915l4.3358,1.93836l-39.00847,12.21915z" data-paper-data="{&quot;index&quot;:null}"/></g><g><g><path d="M201.75451,306.81492l48.80175,0.37502l-0.02243,2.91847l-48.80175,-0.37501z"/><path d="M243.35243,310.10613l0.14075,-18.31624l7.11466,0.05467l-0.14075,18.31624z"/><path d="M250.37922,294.46299l-48.80176,-0.37501l0.02052,-2.67027l48.80176,0.37501z" data-paper-data="{&quot;index&quot;:null}"/><path d="M208.11808,291.41491l-0.14075,18.31624l-6.45335,-0.04959l0.14075,-18.31624z" data-paper-data="{&quot;index&quot;:null}"/><path d="M208.68318,293.10223l38.81609,12.81719l-4.36508,1.8715l-38.81609,-12.81719z"/><path d="M204.45745,305.67181l39.00847,-12.21915l4.33581,1.93837l-39.00848,12.21915z" data-paper-data="{&quot;index&quot;:null}"/></g><g><path d="M157.09177,306.36894l48.80175,0.37502l-0.02243,2.91847l-48.80175,-0.37502z"/><path d="M198.6897,309.66017l0.14075,-18.31624l7.11466,0.05467l-0.14075,18.31624z"/><path d="M205.71649,294.01701l-48.80176,-0.37501l0.02052,-2.67027l48.80176,0.37502z" data-paper-data="{&quot;index&quot;:null}"/><path d="M163.45533,290.96894l-0.14075,18.31624l-6.45335,-0.0496l0.14075,-18.31624z" data-paper-data="{&quot;index&quot;:null}"/><path d="M164.02046,292.65625l38.81608,12.8172l-4.36508,1.8715l-38.81609,-12.81719z"/><path d="M159.79471,305.22583l39.00847,-12.21915l4.33581,1.93837l-39.00848,12.21915z" data-paper-data="{&quot;index&quot;:null}"/></g></g></g><g data-paper-data="{&quot;index&quot;:null}" fill="#a9a9a9" stroke-width="0"><g><path d="M337.68336,270.36448l39.52991,28.62058l-1.71159,2.36399l-39.52991,-28.62057z"/><path d="M369.65399,297.18049l10.74186,-14.83634l5.76295,4.17251l-10.74186,14.83634z"/><path d="M384.45336,288.51664l-39.52991,-28.62058l1.56602,-2.16294l39.52991,28.62057z" data-paper-data="{&quot;index&quot;:null}"/><path d="M351.80148,261.51384l-10.74185,14.83634l-5.22728,-3.78467l10.74186,-14.83634z" data-paper-data="{&quot;index&quot;:null}"/><path d="M351.28276,263.21598l24.17786,32.96059l-4.64109,-1.00837l-24.17785,-32.96058z"/><path d="M340.54807,271.00172l38.86083,12.68089l2.40672,4.0944l-38.86083,-12.68089z" data-paper-data="{&quot;index&quot;:null}"/></g><g><path d="M301.5657,244.08759l39.52992,28.62059l-1.71158,2.36399l-39.52992,-28.62058z"/><path d="M333.53633,270.90361l10.74186,-14.83634l5.76295,4.17251l-10.74185,14.83634z"/><path d="M348.33571,262.23976l-39.52992,-28.62058l1.56602,-2.16295l39.52992,28.62059z" data-paper-data="{&quot;index&quot;:null}"/><path d="M315.68384,235.23696l-10.74185,14.83634l-5.22728,-3.78467l10.74185,-14.83634z" data-paper-data="{&quot;index&quot;:null}"/><path d="M315.16511,236.93911l24.17786,32.96059l-4.64108,-1.00837l-24.17786,-32.96059z"/><path d="M304.43043,244.72485l38.86083,12.68089l2.40672,4.0944l-38.86083,-12.68089z" data-paper-data="{&quot;index&quot;:null}"/></g><g><g><path d="M265.07092,217.53611l39.52991,28.62058l-1.71159,2.36399l-39.52992,-28.62057z"/><path d="M297.04154,244.35213l10.74185,-14.83634l5.76295,4.17251l-10.74185,14.83634z"/><path d="M311.84091,235.68827l-39.52992,-28.62058l1.56602,-2.16295l39.52992,28.62058z" data-paper-data="{&quot;index&quot;:null}"/><path d="M279.18904,208.68548l-10.74185,14.83634l-5.22728,-3.78467l10.74185,-14.83634z" data-paper-data="{&quot;index&quot;:null}"/><path d="M278.67031,210.38764l24.17786,32.96058l-4.64108,-1.00837l-24.17786,-32.96059z"/><path d="M267.93562,218.17336l38.86083,12.68089l2.40672,4.0944l-38.86083,-12.68089z" data-paper-data="{&quot;index&quot;:null}"/></g><g><path d="M228.95327,191.25923l39.52991,28.62057l-1.71159,2.364l-39.52991,-28.62058z"/><path d="M260.92388,218.07525l10.74185,-14.83634l5.76295,4.17251l-10.74185,14.83634z"/><path d="M275.72326,209.4114l-39.52992,-28.62058l1.56603,-2.16295l39.52992,28.62058z" data-paper-data="{&quot;index&quot;:null}"/><path d="M243.07139,182.4086l-10.74186,14.83634l-5.22727,-3.78468l10.74185,-14.83634z" data-paper-data="{&quot;index&quot;:null}"/><path d="M242.55267,184.11076l24.17786,32.96058l-4.64108,-1.00837l-24.17786,-32.96059z"/><path d="M231.81798,191.89647l38.86082,12.68089l2.40672,4.0944l-38.86083,-12.68089z" data-paper-data="{&quot;index&quot;:null}"/></g></g></g><path d="M234.02691,178.1827l39.90668,0.43691l111.87373,80.7977l-38.90668,-1.43691z" data-paper-data="{&quot;index&quot;:null}" fill="#c89a3a" stroke-width="0"/><g data-paper-data="{&quot;index&quot;:null}"><path d="M438.84116,401.7688l-12.92623,0.75551l-6.39294,-12.029l17.86868,-3.77381l6.66675,7.86422z" data-paper-data="{&quot;origPos&quot;:null,&quot;origRot&quot;:0}" fill="#534c42" stroke-width="0"/><path d="M437.03819,400.17269l-11.60053,0.67802l-5.73731,-10.79525l16.03602,-3.38678l5.98301,7.05764z" data-paper-data="{&quot;origPos&quot;:null,&quot;origRot&quot;:0}" fill="url(#color-1)" stroke-width="NaN"/></g><path d="M345.07601,353.67135v-74.52655c0,0 31.02039,-3.94498 69.7101,-2.00956c35.6781,1.78476 78.50732,9.4622 95.16741,9.4622c15.80229,0 36.1721,-7.45265 36.1721,-7.45265v74.52655z" data-paper-data="{&quot;index&quot;:null}" fill="#7c7262" stroke-width="0"/><path d="M344.93663,417.59974v-74.52655c0,0 31.06053,-3.94498 69.80031,-2.00956c35.72425,1.78476 78.60889,9.4622 95.29054,9.4622c15.82272,0 36.21891,-7.45265 36.21891,-7.45265v74.52655z" data-paper-data="{&quot;index&quot;:null}" fill="#786e5f" stroke-width="0"/><path d="M345.41398,420.25401v-37.05188c0,0 30.95249,-1.96131 69.55753,-0.9991c35.60001,0.88735 78.33548,4.70428 94.95911,4.70428c15.7677,0 36.09294,-3.70519 36.09294,-3.70519v37.05188z" data-paper-data="{&quot;index&quot;:null}" fill="#6f6558" stroke-width="0"/><path d="M344.27834,290.69768v-32.95167h201.89507v32.95167z" data-paper-data="{&quot;index&quot;:null}" fill="#949494" stroke-width="0"/><path d="M345.27967,290.69768v-13.30453h201.27622v13.30453z" data-paper-data="{&quot;index&quot;:null}" fill="#b5b5b5" stroke-width="0"/><g data-paper-data="{&quot;index&quot;:null}"><path d="M351.87491,357.65934l-4.37184,-23.1124l34.34104,-14.15045l14.07668,31.35114l-22.03784,13.73023z" data-paper-data="{&quot;origRot&quot;:0}" fill="#534c42" stroke-width="0"/><path d="M357.67812,353.18428l-3.78014,-20.74185l29.69362,-12.69916l12.17161,28.13558l-19.05547,12.32205z" data-paper-data="{&quot;origRot&quot;:0}" fill="url(#color-2)" stroke-width="NaN"/></g><g data-paper-data="{&quot;index&quot;:null}"><path d="M483.73767,375.02214l-30.65014,-13.08147l9.57157,-42.16174l47.8118,10.22854l-0.6499,30.4996z" data-paper-data="{&quot;origRot&quot;:0}" fill="#534c42" stroke-width="0"/><path d="M482.12,368.30085l-27.50652,-11.73975l8.58979,-37.83744l42.90799,9.17942l-0.58324,27.37144z" data-paper-data="{&quot;origRot&quot;:0}" fill="url(#color-3)" stroke-width="NaN"/></g><path d="M-2.08289,200.8v-22h277v22z" data-paper-data="{&quot;index&quot;:null}" fill="#c89a3a" stroke-width="0"/><g data-paper-data="{&quot;index&quot;:null}" fill="#c89a3a" stroke-width="0"><g><path d="M345.91711,257.8v-9h40v9z"/><path d="M341.91711,249.8v-10h31v10z"/></g><g><path d="M323.91711,240.80001v-9h40v9z"/><path d="M319.91711,232.80001v-10h31v10z"/></g></g><g data-paper-data="{&quot;index&quot;:null}" fill="#c89a3a" stroke-width="0"><g><path d="M299.91711,225.80001v-9h40v9z"/><path d="M295.91711,217.80001v-10h31v10z"/></g><g><path d="M277.91711,208.80001v-9h40v9z"/><path d="M273.91711,200.80001v-10h31v10z"/></g></g><g data-paper-data="{&quot;index&quot;:null}" fill="#c89a3a" stroke-width="0"><g><path d="M289.91711,218.80001v-9h40v9z"/><path d="M285.91711,210.80001v-10h31v10z"/></g><g><path d="M267.91711,201.80001v-9h40v9z"/><path d="M263.91711,193.80001v-10h31v10z"/></g></g><g fill="#a9a9a9" stroke-width="0"><g><path d="M112.68503,309.7334l-48.80175,0.37501l-0.02242,-2.91847l48.80174,-0.37502z"/><path d="M63.95002,310.16081l-0.14075,-18.31624l7.11466,-0.05467l0.14075,18.31624z"/><path d="M64.01738,291.79272l48.80175,-0.37501l0.02052,2.67027l-48.80176,0.37502z" data-paper-data="{&quot;index&quot;:null}"/><path d="M112.75239,291.36532l0.14075,18.31624l-6.45334,0.04959l-0.14075,-18.31624z" data-paper-data="{&quot;index&quot;:null}"/><path d="M110.09901,294.97373l-38.81608,12.81719l-4.36508,-1.8715l38.81608,-12.81719z"/><path d="M105.62386,307.61018l-39.00847,-12.21915l4.3358,-1.93837l39.00847,12.21915z" data-paper-data="{&quot;index&quot;:null}"/></g><g><path d="M157.34777,309.28742l-48.80175,0.37502l-0.02242,-2.91848l48.80174,-0.37502z"/><path d="M108.61276,309.71484l-0.14075,-18.31624l7.11467,-0.05467l0.14075,18.31624z"/><path d="M108.6801,291.34675l48.80176,-0.37501l0.02052,2.67028l-48.80176,0.37501z" data-paper-data="{&quot;index&quot;:null}"/><path d="M157.41513,290.91935l0.14076,18.31624l-6.45335,0.0496l-0.14075,-18.31624z" data-paper-data="{&quot;index&quot;:null}"/><path d="M154.76174,294.52777l-38.81609,12.81719l-4.36507,-1.87151l38.81608,-12.8172z"/><path d="M150.2866,307.1642l-39.00848,-12.21915l4.3358,-1.93837l39.00847,12.21915z" data-paper-data="{&quot;index&quot;:null}"/></g></g></g></g></svg>