<svg version="1.1" xmlns="http://www.w3.org/2000/svg" xmlns:xlink="http://www.w3.org/1999/xlink" width="112.10027" height="38.79807" viewBox="0,0,112.10027,38.79807"><g transform="translate(-188.94637,-160.5431)"><g data-paper-data="{&quot;isPaintingLayer&quot;:true}" fill-rule="nonzero" stroke-linecap="butt" stroke-miterlimit="10" stroke-dasharray="" stroke-dashoffset="0" style="mix-blend-mode: normal"><path d="M200.19638,187.76105v-15.96794h89.60027v15.96794z" data-paper-data="{&quot;zoomLevel&quot;:2.5}" fill="#bebebe" stroke="#919191" stroke-width="22.5" stroke-linejoin="round"/><text transform="translate(232.53034,188.10492) scale(0.62023,0.62023)" font-size="40" xml:space="preserve" fill="#ffffff" fill-rule="nonzero" stroke="#ffffff" stroke-width="2" stroke-linecap="butt" stroke-linejoin="miter" stroke-miterlimit="10" stroke-dasharray="" stroke-dashoffset="0" font-family="Sans Serif" font-weight="normal" text-anchor="start" style="mix-blend-mode: normal"><tspan x="0" dy="0">stats</tspan></text><path d="M204.46444,174.07348c0,-4.21461 3.41662,-7.63122 7.63122,-7.63122c4.21461,0 7.63122,3.41662 7.63122,7.63122c0,4.21461 -3.41662,7.63122 -7.63122,7.63122c-4.21461,0 -7.63122,-3.41662 -7.63122,-7.63122z" fill="#ffffff" stroke="none" stroke-width="0" stroke-linejoin="miter"/><path d="M200.94606,196.66207c0,-6.45292 4.9652,-11.68404 11.09007,-11.68404c6.12488,0 11.09007,5.23112 11.09007,11.68404c0,1.80763 0.04464,2.18472 -0.24466,2.32021c-0.24104,0.11289 -0.7139,0.25525 -1.63755,0.09763c-0.51859,-0.0885 -1.18961,0.13268 -1.95154,0.14557c-2.06662,0.03496 -4.80208,-0.02933 -6.97907,-0.02933c-2.33218,0 -4.53642,0.23598 -6.37201,0.10587c-0.70874,-0.05024 -1.36252,-0.30855 -1.94749,-0.24977c-1.87885,0.18876 -3.04782,0.65693 -3.04782,-2.39019z" fill="#ffffff" stroke="none" stroke-width="0" stroke-linejoin="miter"/></g></g></svg>