<svg version="1.1" xmlns="http://www.w3.org/2000/svg" xmlns:xlink="http://www.w3.org/1999/xlink" width="523.27755" height="626.5324" viewBox="0,0,523.27755,626.5324"><defs><linearGradient x1="82.43008" y1="404.28995" x2="64.72333" y2="415.01279" gradientUnits="userSpaceOnUse" id="color-1"><stop offset="0" stop-color="#8e8e8e"/><stop offset="1" stop-color="#818181"/></linearGradient><linearGradient x1="325.98377" y1="328.99791" x2="290.33219" y2="384.26424" gradientUnits="userSpaceOnUse" id="color-2"><stop offset="0" stop-color="#8e8e8e"/><stop offset="1" stop-color="#818181"/></linearGradient><linearGradient x1="374.60843" y1="329.09785" x2="327.45518" y2="363.08394" gradientUnits="userSpaceOnUse" id="color-3"><stop offset="0" stop-color="#8e8e8e"/><stop offset="1" stop-color="#818181"/></linearGradient><linearGradient x1="118.06336" y1="339.81476" x2="147.88148" y2="371.85914" gradientUnits="userSpaceOnUse" id="color-4"><stop offset="0" stop-color="#8e8e8e"/><stop offset="1" stop-color="#818181"/></linearGradient><linearGradient x1="28.59703" y1="332.56511" x2="11.63589" y2="382.88267" gradientUnits="userSpaceOnUse" id="color-5"><stop offset="0" stop-color="#8e8e8e"/><stop offset="1" stop-color="#818181"/></linearGradient></defs><g transform="translate(51.13878,190.2784)"><g data-paper-data="{&quot;isPaintingLayer&quot;:true}" fill-rule="nonzero" stroke="none" stroke-linecap="butt" stroke-linejoin="miter" stroke-miterlimit="10" stroke-dasharray="" stroke-dashoffset="0" style="mix-blend-mode: normal"><g><g><path d="M58.93226,410.58572l7.15929,-7.86422l19.18882,3.77381l-6.86525,12.029l-13.88122,-0.75551z" data-paper-data="{&quot;origPos&quot;:null,&quot;origRot&quot;:0}" fill="#534c42" stroke-width="0"/><path d="M61.44304,409.72632l6.42503,-7.05764l17.22076,3.38678l-6.16118,10.79525l-12.45758,-0.67802z" data-paper-data="{&quot;origPos&quot;:null,&quot;origRot&quot;:0}" fill="url(#color-1)" stroke-width="NaN"/></g><path d="M-50.02571,369.67134v-74.52655c0,0 52.69526,7.45265 93.57463,7.45265c43.09846,0 153.89459,-7.67744 246.19128,-9.4622c100.08752,-1.93542 180.33504,2.00956 180.33504,2.00956v74.52655z" fill="#7c7262" stroke-width="0"/><path d="M-50.33813,433.59973v-74.52655c0,0 52.76347,7.45265 93.69574,7.45265c43.15424,0 154.09374,-7.67744 246.50981,-9.4622c100.21704,-1.93542 180.5684,2.00956 180.5684,2.00956v74.52655z" fill="#786e5f" stroke-width="0"/><path d="M-49.76169,436.254v-37.05188c0,0 52.57993,3.70519 93.36984,3.70519c43.00415,0 153.55776,-3.81693 245.65243,-4.70428c99.86847,-0.96221 179.94036,0.9991 179.94036,0.9991v37.05188z" fill="#6f6558" stroke-width="0"/><path d="M-50.14934,306.69768v-32.95167h522.28811v32.95167z" fill="#949494" stroke-width="0"/><path d="M-51.13878,306.69768v-13.30453h520.68717v13.30453z" fill="#b5b5b5" stroke-width="0"/><g><path d="M266.83149,371.27855l9.65356,-36.16014l59.40829,0.37413l-3.20155,52.24412l-40.31181,7.45925z" data-paper-data="{&quot;origPos&quot;:null,&quot;origRot&quot;:0}" fill="#534c42" stroke-width="0"/><path d="M273.91347,366.02993l8.66347,-32.45141l53.31509,0.33577l-2.87325,46.88573l-36.17725,6.69417z" data-paper-data="{&quot;origPos&quot;:null,&quot;origRot&quot;:0}" fill="url(#color-2)" stroke-width="NaN"/></g><g><path d="M311.29644,348.4962l19.06538,-24.92571l51.10033,11.96112l-18.28234,38.12603l-36.96607,-2.39454z" data-paper-data="{&quot;origPos&quot;:null,&quot;origRot&quot;:0}" fill="#534c42" stroke-width="0"/><path d="M318.71962,346.32843l17.11002,-22.36922l45.85925,10.73433l-16.4073,34.21564l-33.17467,-2.14891z" data-paper-data="{&quot;origPos&quot;:null,&quot;origRot&quot;:0}" fill="url(#color-3)" stroke-width="NaN"/></g><g><path d="M134.29121,381.47786l-23.66599,-13.73023l15.11666,-31.35114l36.87815,14.15045l-4.69483,23.1124z" data-paper-data="{&quot;origRot&quot;:0}" fill="#534c42" stroke-width="0"/><path d="M131.25773,376.2009l-20.46328,-12.32205l13.07085,-28.13558l31.88738,12.69916l-4.05941,20.74185z" data-paper-data="{&quot;origRot&quot;:0}" fill="url(#color-4)" stroke-width="NaN"/></g><g><path d="M-11.68992,376.50707l-0.69792,-30.4996l51.34413,-10.22854l10.27871,42.16174l-32.91457,13.08147z" data-paper-data="{&quot;origRot&quot;:0}" fill="#534c42" stroke-width="0"/><path d="M-7.07978,371.27452l-0.62633,-27.37144l46.07803,-9.17942l9.2244,37.83744l-29.53869,11.73975z" data-paper-data="{&quot;origRot&quot;:0}" fill="url(#color-5)" stroke-width="NaN"/></g></g><g stroke-width="0"><path d="M430.70283,241.07041v6h-403.9759v-6z" data-paper-data="{&quot;index&quot;:null}" fill="#b27f44"/><path d="M22.87957,237.40374v-9h403.97591v9z" fill="#dc9c54"/><path d="M22.87957,243.40374v-6h403.97591v6z" fill="#b27f44"/><path d="M426.54222,274.40374v-51h34.93976v51z" fill="#b27f44"/><path d="M-17.51802,275.40374v-51h43.93976v51z" fill="#b27f44"/><path d="M371.48198,228.31652v-158h12v158z" fill="#b27f44"/><path d="M231.48198,182.31652v-158h12v158z" fill="#b27f44"/><path d="M231.48198,25.31652v-158h12v158z" fill="#b27f44"/><path d="M371.48198,81.31652v-211h12v211z" fill="#b27f44"/><g fill="#b27f44"><path d="M225.91785,-128.71684c0,0 39.81906,-61.56156 85.58559,-61.56156c45.76652,0 76.57658,61.56156 76.57658,61.56156z"/><path d="M328.01995,228.64052v-78.07808h48.04805v78.07808z"/></g><path d="M299.49142,228.64052v-37.53754h75.07508v37.53754z" fill="#b27f44"/><path d="M317.32733,-7.92809v-15.01502h58.55856v15.01502z" fill="#b27f44"/><path d="M241.24624,55.63047v-15.01501h58.55856v15.01501z" fill="#b27f44"/><path d="M299.30931,191.77161v-7.50751h30.03003v7.50751z" fill="#dc9c54"/><path d="M328.006,152.73258v-7.50751h43.37538v7.50751z" fill="#dc9c54"/><path d="M243.62777,40.81215v-4.33333h56v4.33333z" fill="#dc9c54"/><path d="M317.29444,-21.38349v-6.66667h55v6.66667z" fill="#dc9c54"/></g><g stroke-width="0"><path d="M-37.91248,225.36124v-15.01502h88.58859v15.01502z" fill="#b27f44"/><path d="M-37.85242,211.52641v-6.00601h88.60961v6.00601z" fill="#dc9c54"/></g><g stroke-width="0"><path d="M48.42085,166.02791v-15.01502h88.58859v15.01502z" fill="#b27f44"/><path d="M48.48091,152.19308v-6.00601h88.60961v6.00601z" fill="#dc9c54"/></g><g stroke-width="0"><path d="M109.75418,112.36125v-15.01502h88.58859v15.01502z" fill="#b27f44"/><path d="M109.81424,98.52641v-6.00601h88.60961v6.00601z" fill="#dc9c54"/></g><g stroke-width="0"><path d="M143.08751,59.69458v-15.01501h88.58859v15.01501z" fill="#b27f44"/><path d="M143.14757,45.85974v-6.00601h88.60961v6.00601z" fill="#dc9c54"/></g><g stroke-width="0"><path d="M100.42085,-2.63876v-15.01502h88.58859v15.01502z" fill="#b27f44"/><path d="M100.48091,-16.47359v-6.00601h88.60961v6.00601z" fill="#dc9c54"/></g><g stroke-width="0"><path d="M40.08751,-65.30542v-15.01502h88.58859v15.01502z" fill="#b27f44"/><path d="M40.14757,-79.14026v-6.00601h88.60961v6.00601z" fill="#dc9c54"/></g></g></g></svg>