<svg version="1.1" xmlns="http://www.w3.org/2000/svg" xmlns:xlink="http://www.w3.org/1999/xlink" width="504.89783" height="369.81726" viewBox="0,0,504.89783,369.81726"><defs><linearGradient x1="243.95497" y1="-2.07794" x2="243.95497" y2="372.90411" gradientUnits="userSpaceOnUse" id="color-1"><stop offset="0" stop-color="#7f62d6"/><stop offset="1" stop-color="#7f83bd"/></linearGradient><linearGradient x1="239.5511" y1="-4.90867" x2="239.5511" y2="159.09138" gradientUnits="userSpaceOnUse" id="color-2"><stop offset="0" stop-color="#a294ff"/><stop offset="1" stop-color="#a294ff" stop-opacity="0"/></linearGradient><linearGradient x1="101.3034" y1="191.24763" x2="101.3034" y2="362.01477" gradientUnits="userSpaceOnUse" id="color-3"><stop offset="0" stop-color="#9381ea"/><stop offset="1" stop-color="#9c8fff"/></linearGradient><linearGradient x1="326.36726" y1="148.88347" x2="326.36726" y2="333.263" gradientUnits="userSpaceOnUse" id="color-4"><stop offset="0" stop-color="#8f81ea"/><stop offset="1" stop-color="#9d94ff"/></linearGradient></defs><g transform="translate(12.44889,4.90862)"><g data-paper-data="{&quot;isPaintingLayer&quot;:true}" fill-rule="nonzero" stroke="none" stroke-width="0" stroke-linecap="butt" stroke-linejoin="miter" stroke-miterlimit="10" stroke-dasharray="" stroke-dashoffset="0" style="mix-blend-mode: normal"><path d="M-9.54504,-2.07794h496.90396c-0.11019,0.48613 -0.18496,0.98569 -0.22146,1.49585c-0.00598,0.25011 -0.01298,0.49322 -0.02581,0.72408c-0.64604,11.62481 0.43845,30.11007 0.63427,41.22757c0.04821,2.73718 1.89531,5.27012 1.90281,7.96717c0.10452,37.58736 0.18791,75.17549 0,112.76252c-0.04585,9.17148 -1.26966,18.39249 -1.87336,27.55688c-0.27447,4.16665 0.17952,9.56987 -0.02946,12.98892c-0.40611,6.64447 -1.8707,13.42052 -1.90281,20.12583c-0.07898,16.49084 -0.12598,32.98254 0,49.47309c0.05043,6.60058 2.29622,13.48309 2.53708,20.21623c0.33713,9.42443 0.71032,17.49943 1.99671,26.81919c1.84857,13.39269 2.14333,26.57507 2.05938,39.85143c-14.91862,-0.05554 -29.84001,0.17589 -44.75922,0.15651c-2.07461,-0.0027 -6.25184,-2.08548 -8.28401,-2.53708c-1.11921,-0.24872 -3.75558,0.04008 -4.08397,0c-5.74834,-0.70153 -11.37876,-2.17687 -17.10577,-3.03529c-16.33738,-2.44882 -32.00192,0.79818 -47.99883,3.12301c-0.96437,0.14015 -2.02507,0.33105 -3.14571,0.55969c-1.34221,-0.7568 -2.63555,-1.38166 -3.6636,-1.63867c-9.9585,-2.48963 -23.72318,-1.25584 -34.39741,1.41272c-2.23665,0.55916 -7.29166,4.52659 -9.02108,4.65271c-0.0068,0.0005 -0.0136,0.00099 -0.0204,0.00148c-2.85856,-0.36544 -5.91233,-0.26863 -8.62184,-0.46119c-12.99873,-0.92379 -26.44616,-1.12607 -39.99634,-1.03991c-3.52664,-1.09418 -7.43972,-2.23005 -10.80929,-2.30601c-19.64577,-0.44285 -38.29375,1.34556 -58.39036,0.63427c-5.70016,-0.20175 -9.45878,-3.83215 -15.11084,-0.65281c-0.00618,0.00348 -0.01236,0.00697 -0.01852,0.01047c-1.39057,-0.32735 -2.74305,-0.65989 -4.0403,-0.9869c-1.84288,-0.46455 -4.68385,-1.52396 -6.79793,-1.54211c-13.05304,-0.11205 -26.15861,-1.09839 -39.16054,0.06116c-3.18029,0.28363 -6.60862,1.38009 -9.88684,2.47592h-5.42347l-1.15046,-0.16435l-0.79652,-0.68273l-0.68495,-0.34247l-0.05573,-0.09753l-0.27864,-0.06966l-0.24922,-0.12462l-0.49498,-0.10999l-0.05697,-0.03418l-0.04349,0.01186l-1.64758,-0.36613l-0.42921,-0.1073l-0.05853,-0.03902l-0.37891,-0.13532l-0.1681,-0.29417l-2.1853,-0.54633l-2.12133,-0.75762l-0.30304,0.15152l-0.39033,-0.09758h-28.54217l-5,1.25l-0.03681,0.06442c-5.79667,-0.40621 -12.4239,-0.66028 -15.89411,-0.68015c-13.7423,-0.07868 -27.48517,-0.05722 -41.22757,0c-5.90849,0.0246 -11.90725,1.78337 -17.83597,1.90281c-3.16346,0.06373 -6.46292,-0.30015 -9.75808,-0.62586c-0.0529,-1.59783 -0.11961,-3.19402 -0.20283,-4.78814c-0.1148,-2.19904 -0.64487,-4.9399 -1.2542,-7.62933z" data-paper-data="{&quot;index&quot;:null}" fill="url(#color-1)"/><path d="M-12.44889,159.09138v-164h504v164z" fill="url(#color-2)"/><path d="M27.68521,277.41837c22.90254,-34.11705 49.46667,-86.27483 84.92808,-86.1706c37.06247,0.10141 61.59114,51.76439 82.94961,82.23303c20.44738,31.32072 55.477,88.53391 55.477,88.53391l-247.97756,-0.00001c-0.0457,-3.90079 -0.15048,-7.79578 -0.35317,-11.67842c-0.24314,-4.65747 -2.34907,-11.74535 -3.12552,-15.62762c-0.69738,-3.48691 -1.41309,-6.96129 -2.14695,-10.42591c9.5478,-15.19074 20.59342,-32.48154 30.24852,-46.86437z" fill="url(#color-3)"/><path d="M169.14658,362.07157c0,0 48.80779,-83.3117 74.53212,-120.14837c25.72431,-36.83665 55.56138,-91.43904 95.39194,-91.32649c41.62887,0.10949 69.1797,54.17762 93.1697,87.07504c13.09124,19.27627 36.14891,57.99906 53.55757,87.73583c-0.15074,0.89398 -0.29486,1.78815 -0.43129,2.68248c-1.54764,10.14491 -2.21468,20.53671 -3.29418,30.74293c-0.21379,2.0213 -0.44581,4.04685 -0.68845,6.07566z" fill="url(#color-4)"/></g></g></svg>