<svg version="1.1" xmlns="http://www.w3.org/2000/svg" xmlns:xlink="http://www.w3.org/1999/xlink" width="69.30844" height="23.3454" viewBox="0,0,69.30844,23.3454"><g transform="translate(-205.53326,-166.97766)"><g data-paper-data="{&quot;isPaintingLayer&quot;:true}" stroke-width="1" stroke-miterlimit="10" stroke-dasharray="" stroke-dashoffset="0" style="mix-blend-mode: normal"><path d="M208.20849,174.17884c3.18196,-1.72979 9.63112,-1.41067 9.63112,-1.41067l43.49897,0.1407c0,0 6.9164,-0.20188 10.36637,1.48709c3.44996,1.68897 3.10553,4.75394 3.10553,4.75394l0.02642,3.88321c0,0 0.25694,3.72892 -2.98461,5.4461c-3.24156,1.71718 -10.2359,1.43252 -10.2359,1.43252l-44.33804,0.08201c0,0 -5.8176,0.08747 -8.68376,-1.43163c-2.86616,-1.5191 -2.80388,-4.65696 -2.80388,-4.65696l-0.22249,-4.46601c0,0 -0.54172,-3.53052 2.64027,-5.2603z" data-paper-data="{&quot;origRot&quot;:0,&quot;index&quot;:null}" fill="#000000" fill-rule="evenodd" stroke="none" stroke-linecap="round" stroke-linejoin="round" opacity="0.42445"/><text transform="translate(215.73027,185.0562) scale(0.42135,0.42135)" font-size="40" xml:space="preserve" fill="#ffffff" fill-rule="nonzero" stroke="#ffffff" stroke-width="1" stroke-linecap="butt" stroke-linejoin="miter" stroke-miterlimit="10" stroke-dasharray="" stroke-dashoffset="0" font-family="Sans Serif" font-weight="normal" text-anchor="start" style="mix-blend-mode: normal"><tspan x="0" dy="0">pause</tspan></text></g></g></svg>