<svg version="1.1" xmlns="http://www.w3.org/2000/svg" xmlns:xlink="http://www.w3.org/1999/xlink" width="259.13199" height="334.04952" viewBox="0,0,259.13199,334.04952"><defs><radialGradient cx="372.41667" cy="328.58723" r="26.5" gradientUnits="userSpaceOnUse" id="color-1"><stop offset="0" stop-color="#ffffa5"/><stop offset="1" stop-color="#ffffa5" stop-opacity="0"/></radialGradient><radialGradient cx="321.16561" cy="225.1" r="29.66667" gradientUnits="userSpaceOnUse" id="color-2"><stop offset="0" stop-color="#ffae3e"/><stop offset="1" stop-color="#ffae3e" stop-opacity="0"/></radialGradient></defs><g transform="translate(-151.5,-147.30003)"><g data-paper-data="{&quot;isPaintingLayer&quot;:true}" fill-rule="nonzero" stroke="none" stroke-linecap="butt" stroke-linejoin="miter" stroke-miterlimit="10" stroke-dasharray="" stroke-dashoffset="0" style="mix-blend-mode: normal"><path d="M303.43209,219.30004v-71h41v71z" fill="#717171" stroke-width="0"/><path d="M160.68209,449.81279v-204.57995c0,0 80.75191,-76.93281 101,-76.93281c11.76166,0 42.66305,2.17786 42.66305,2.17786c0,0 36.09224,24.67239 40.22986,29.39909c15.47281,17.67571 55.10709,30.35586 55.10709,30.35586v219.57995z" fill="#ce9d5c" stroke-width="0"/><path d="M151.5,481.34956v-240.46228h21v240.46228z" fill="#916e41" stroke-width="0"/><path d="M390.5,479.34956v-221.54951c0.76623,-1.52161 0,-18.91277 0,-18.91277h17v240.46229z" fill="#916e41" stroke-width="0"/><path d="M275.76886,260.61842v-21h126.89393c0.05667,0.76512 -0.22092,20.15696 -0.48258,20.66667z" fill="#916e41" stroke-width="0"/><g fill="#916e41" stroke-width="0"><path d="M347.75,412.88728v-18h51v18z" data-paper-data="{&quot;index&quot;:null}"/><path d="M337.75,428.88728v-18h56v18z" data-paper-data="{&quot;index&quot;:null}"/><path d="M324.75,445.88728v-18h83v18z" data-paper-data="{&quot;index&quot;:null}"/><path d="M314.75,461.88728v-18h83v18z" data-paper-data="{&quot;index&quot;:null}"/></g><g data-paper-data="{&quot;index&quot;:null}" fill="#916e41" stroke-width="0"><path d="M162.5,330.88725v-18h51v18z" data-paper-data="{&quot;index&quot;:null}"/><path d="M167.5,346.88728v-18h56v18z" data-paper-data="{&quot;index&quot;:null}"/><path d="M153.5,363.88728v-18h83v18z" data-paper-data="{&quot;index&quot;:null}"/><path d="M163.5,379.88728v-18h83v18z" data-paper-data="{&quot;index&quot;:null}"/></g><path d="M163.05031,253.45316l-9.68229,-11.45658l101.58167,-85.84966l9.68229,11.45658z" fill="#916e41" stroke-width="0"/><path d="M410.63199,239.99658l-9.68229,11.45658l-53.08344,-44.86237c1.63093,0.30214 3.27044,0.54423 4.92486,0.6841c6.07433,0.51352 12.63707,0.02516 18.70889,0.02516c0.14744,0 0.29537,0 0.44378,0z" data-paper-data="{&quot;index&quot;:null}" fill="#916e41" stroke-width="0"/><path d="M350.5,244.30004v-32h17v32z" fill="#916e41" stroke-width="0"/><path d="M365.5,242.30004v-18h13v18z" fill="#916e41" stroke-width="0"/><path d="M370.5,245.30004v-15h18v15z" fill="#916e41" stroke-width="0"/><path d="M344.5,207.63337v-60.33333h11v60.33333z" fill="#b4b4b4" stroke-width="0"/><path d="M253.5,171.30004v-15h50v15z" fill="#916e41" stroke-width="0"/><path d="M293.5,171.55005v-24.25h11v24.25z" fill="#b4b4b4" stroke-width="0"/><path d="M360.5,230.30004v-16h16v16z" fill="#916e41" stroke-width="0"/><path d="M173.39285,316.8087v-4h39.96429v4z" fill="#705633" stroke-width="0"/><path d="M213.14285,332.5587v-4h10.21429v4z" fill="#705633" stroke-width="0"/><path d="M223.39285,349.80871v-4h12.96429v4z" fill="#705633" stroke-width="0"/><path d="M236.64285,366.05871v-4h9.96429v4z" fill="#705633" stroke-width="0"/><path d="M347.64285,398.80871v-4h42.71429v4z" fill="#705633" stroke-width="0"/><path d="M337.64285,414.80871v-4h9.96429v4z" fill="#705633" stroke-width="0"/><path d="M324.89285,431.80871v-4h12.71429v4z" fill="#705633" stroke-width="0"/><path d="M314.64285,447.80871v-4h9.71429v4z" fill="#705633" stroke-width="0"/><path d="M361.83227,394.76668c0,0 0,-1.80744 0,-2.66667c0,-0.80373 3.93368,-2.33333 6.66667,-2.33333c2.28699,0 6.84543,0 10.66667,0c3.47075,0 6.33333,1.5296 6.33333,2.33333c0,0.85923 0,2.66667 0,2.66667z" fill="#fbba88" stroke-width="0"/><path d="M371.16561,391.43334v-53.33333h5.33333v53.33333z" fill="#fbba88" stroke-width="0"/><path d="M345.91667,328.58723c0,-14.63555 11.86445,-26.5 26.5,-26.5c14.63554,0 26.5,11.86445 26.5,26.5c0,14.63555 -11.86446,26.5 -26.5,26.5c-14.63555,0 -26.5,-11.86445 -26.5,-26.5z" fill="url(#color-1)" stroke-width="0"/><path d="M360.83227,338.43334l2.66667,-31h19.66667l3,31c0,0 -8.62455,2 -13,2c-4.04264,0 -12.33333,-2 -12.33333,-2z" fill="#faece2" stroke-width="0"/><path d="M176.83227,304.43334v-43h33v43z" fill="#fbba88" stroke-width="0"/><path d="M176.83227,312.1v-9h4v9z" fill="#fbba88" stroke-width="0"/><path d="M205.83227,312.43334v-9h4v9z" fill="#fbba88" stroke-width="0"/><path d="M178.49894,275.1v-8.66667h28.66666v8.66667z" fill="#e3a87b" stroke-width="0"/><path d="M178.83228,288.10001v-8.66667h28.66666v8.66667z" fill="#e3a87b" stroke-width="0"/><path d="M179.16561,301.1v-8.66667h28.66666v8.66667z" fill="#e3a87b" stroke-width="0"/><path d="M190.99894,271.43334c0,-0.82842 0.67157,-1.5 1.5,-1.5c0.82843,0 1.5,0.67158 1.5,1.5c0,0.82842 -0.67157,1.5 -1.5,1.5c-0.82843,0 -1.5,-0.67158 -1.5,-1.5z" fill="#b48561" stroke-width="0.5"/><path d="M191.33227,284.76667c0,-0.82842 0.67157,-1.5 1.5,-1.5c0.82843,0 1.5,0.67158 1.5,1.5c0,0.82842 -0.67157,1.5 -1.5,1.5c-0.82843,0 -1.5,-0.67158 -1.5,-1.5z" fill="#b48561" stroke-width="0.5"/><path d="M191.66561,296.76667c0,-0.82842 0.67157,-1.5 1.5,-1.5c0.82843,0 1.5,0.67158 1.5,1.5c0,0.82842 -0.67157,1.5 -1.5,1.5c-0.82843,0 -1.5,-0.67158 -1.5,-1.5z" fill="#b48561" stroke-width="0.5"/><path d="M293.49894,239.76667v-68.33334h11v68.33334z" fill="#b4b4b4" stroke-width="0"/><path d="M288.49894,239.1c0,0 0,-18.69976 0,-24.66666c0,-3.39812 3.80485,-8 7.33333,-8c9.15182,0 49.33334,0 49.33334,0v32.66666z" fill="#b4b4b4" stroke-width="0"/><path d="M295.49894,240.43334c0,0 0,-17.3751 0,-20.33334c0,-2.68113 3.30938,-7.66666 6.33333,-7.66666c7.63115,0 43.66667,0 43.66667,0l-0.33333,28z" fill="#656565" stroke-width="0"/><path d="M276.49151,243.30004v-3.5h67v3.5z" fill="#705633" stroke-width="0"/><path d="M343.5,248.30004v-40.66667h12v40.66667z" fill="#916e41" stroke-width="0"/><path d="M291.49894,225.1c0,-16.38445 13.28222,-29.66667 29.66667,-29.66667c16.38445,0 29.66667,13.28222 29.66667,29.66667c0,16.38445 -13.61555,17.66667 -30,17.66667c-16.38445,0 -29.33333,-1.28222 -29.33333,-17.66667z" fill="url(#color-2)" stroke-width="0"/></g></g></svg>