<svg version="1.1" xmlns="http://www.w3.org/2000/svg" xmlns:xlink="http://www.w3.org/1999/xlink" width="67.37384" height="94.49541" viewBox="0,0,67.37384,94.49541"><defs><linearGradient x1="233.1441" y1="243.03542" x2="233.1441" y2="200.20223" gradientUnits="userSpaceOnUse" id="color-1"><stop offset="0" stop-color="#1a1a1a"/><stop offset="1" stop-color="#1a1a1a" stop-opacity="0"/></linearGradient><linearGradient x1="226.62285" y1="190.00241" x2="198.02417" y2="190.00241" gradientUnits="userSpaceOnUse" id="color-2"><stop offset="0" stop-color="#1a1a1a" stop-opacity="0"/><stop offset="1" stop-color="#1a1a1a"/></linearGradient><linearGradient x1="232.23178" y1="149.8438" x2="231.34757" y2="155.96408" gradientUnits="userSpaceOnUse" id="color-3"><stop offset="0" stop-color="#000000"/><stop offset="1" stop-color="#151515"/></linearGradient><linearGradient x1="231.11943" y1="150.12938" x2="230.68154" y2="153.16039" gradientUnits="userSpaceOnUse" id="color-4"><stop offset="0" stop-color="#292929"/><stop offset="1" stop-color="#313131"/></linearGradient><linearGradient x1="222.41126" y1="148.62337" x2="221.52705" y2="154.74367" gradientUnits="userSpaceOnUse" id="color-5"><stop offset="0" stop-color="#000000"/><stop offset="1" stop-color="#151515"/></linearGradient><linearGradient x1="223.39729" y1="149.21211" x2="222.9594" y2="152.2431" gradientUnits="userSpaceOnUse" id="color-6"><stop offset="0" stop-color="#292929"/><stop offset="1" stop-color="#313131"/></linearGradient><linearGradient x1="162.52368" y1="145.89809" x2="217.61113" y2="153.85668" gradientUnits="userSpaceOnUse" id="color-7"><stop offset="0" stop-color="#1a1a1a"/><stop offset="1" stop-color="#1a1a1a" stop-opacity="0"/></linearGradient><linearGradient x1="162.52368" y1="145.89809" x2="217.61113" y2="153.85668" gradientUnits="userSpaceOnUse" id="color-8"><stop offset="0" stop-color="#1a1a1a"/><stop offset="1" stop-color="#1a1a1a" stop-opacity="0"/></linearGradient><linearGradient x1="229.51738" y1="164.13877" x2="224.20363" y2="200.91928" gradientUnits="userSpaceOnUse" id="color-9"><stop offset="0" stop-color="#1a1a1a" stop-opacity="0"/><stop offset="1" stop-color="#1a1a1a"/></linearGradient><linearGradient x1="229.51738" y1="164.13877" x2="224.20363" y2="200.91928" gradientUnits="userSpaceOnUse" id="color-10"><stop offset="0" stop-color="#1a1a1a" stop-opacity="0"/><stop offset="1" stop-color="#1a1a1a"/></linearGradient><linearGradient x1="240.4" y1="150.79309" x2="239.39704" y2="157.73531" gradientUnits="userSpaceOnUse" id="color-11"><stop offset="0" stop-color="#000000"/><stop offset="1" stop-color="#151515"/></linearGradient><linearGradient x1="241.51846" y1="151.46088" x2="241.02175" y2="154.89894" gradientUnits="userSpaceOnUse" id="color-12"><stop offset="0" stop-color="#292929"/><stop offset="1" stop-color="#313131"/></linearGradient></defs><g transform="translate(-206.68808,-133.12729)"><g data-paper-data="{&quot;isPaintingLayer&quot;:true}" fill-rule="nonzero" stroke-linejoin="miter" stroke-miterlimit="10" stroke-dasharray="" stroke-dashoffset="0" style="mix-blend-mode: normal"><g><g fill="none" stroke="#000000" stroke-width="1.5" stroke-linecap="round"><path d="M228.7248,206.58002c0,0 0.70242,2.60188 1.33338,5.40784c0.13051,0.58038 0.49726,1.16949 0.58899,1.74611c0.19236,1.20924 -0.05188,2.36357 -0.05188,3.2673"/><path d="M230.61412,216.30861c0,0 0.11937,7.24762 -0.70817,10.56408"/></g><g fill="none" stroke="#000000" stroke-width="1.5" stroke-linecap="round"><path d="M241.5248,206.58002c0,0 1.87048,7.00311 1.87048,10.42126"/><path d="M243.41412,216.30861c0,0 1.43897,3.20251 -0.23097,5.50047c-0.53919,0.74197 0.03336,1.49576 -0.03659,2.21682c-0.10374,1.06942 -0.24599,2.06683 -0.44061,2.8468"/></g><g fill="none" stroke="#000000" stroke-width="1.5" stroke-linecap="round"><path d="M259.64162,186.71535c-1.17664,-0.86781 -2.41197,-2.22813 -3.88984,-3.67904c-0.69217,-0.67954 -1.64469,-1.12895 -2.31983,-1.80693c-2.40771,-2.41785 -4.21723,-4.81323 -4.21723,-4.81323"/><path d="M273.31192,191.38586c-4.50967,-0.84856 -13.86619,-4.74576 -13.86619,-4.74576"/></g><g stroke="none" stroke-width="1" stroke-linecap="butt"><g><path d="M249.49978,204.47246c0,1.56799 -1.26584,2.83382 -2.82861,2.83382c-5.15715,0 -17.78432,0 -22.93624,0c-1.56276,0 -2.83382,-1.26585 -2.83382,-2.83382c0,-5.15192 0,-32.01364 0,-37.17077c0,-1.56277 1.27105,-2.82862 2.83382,-2.82862c5.15192,0 17.77911,0 22.93624,0c1.56276,0 2.82861,1.26584 2.82861,2.82862c0,1.75096 0,13.52832 0,13.52832l-1.5,1.25l1.5,1.375c0,0 0,18.23371 0,21.01745z" fill="#ffffff"/><path d="M249.49979,204.47246c0,1.56799 -1.26584,2.83382 -2.82861,2.83382c-5.15715,0 -17.78432,0 -22.93624,0c-1.56276,0 -2.83382,-1.26585 -2.83382,-2.83382c0,-0.60493 0,-1.64245 0,-1.64245l1.5,-1.125l-1.5,-1.25c0,0 0,-29.41262 0,-33.15332c0,-1.56277 1.27105,-2.82862 2.83382,-2.82862c5.15192,0 17.77911,0 22.93624,0c1.56276,0 2.82861,1.26584 2.82861,2.82862c0,1.4859 0,13.40332 0,13.40332l-1.625,1.375l1.625,1.375c0,0 0,18.05777 0,21.01745z" fill="url(#color-1)"/><path d="M249.49979,204.47246c0,1.56799 -1.26584,2.83382 -2.82861,2.83382c-5.15715,0 -17.78432,0 -22.93624,0c-1.56276,0 -2.83382,-1.26585 -2.83382,-2.83382c0,-0.27475 0,-1.39245 0,-1.39245l1.375,-1.375l-1.375,-1.375c0,0 0,-28.72429 0,-33.02832c0,-1.56277 1.27105,-2.82862 2.83382,-2.82862c5.15192,0 17.77911,0 22.93624,0c1.56276,0 2.82861,1.26584 2.82861,2.82862c0,1.65339 0,13.40332 0,13.40332l-1.5,1.375l1.5,1.625c0,0 0,17.95675 0,20.76745z" fill="url(#color-2)"/></g><g fill="none" font-family="sans-serif" font-weight="normal" font-size="12" text-anchor="start"><g/><g data-paper-data="{&quot;index&quot;:null}"/></g></g><g fill="none" stroke="#000000" stroke-width="1.5" stroke-linecap="round"><path d="M229.87015,188.23147c-3.39475,-3.08753 -9.31754,-11.31268 -9.31754,-11.31268"/><path d="M243.01191,194.25772c-1.59814,-0.4744 -3.66641,-1.78954 -5.81148,-2.79442c-1.48193,-0.69422 -3.06585,-1.04434 -4.28964,-1.66813c-1.88083,-0.95869 -3.20627,-1.67803 -3.20627,-1.67803"/></g><g><g data-paper-data="{&quot;index&quot;:null}" fill="#d6c3c8" stroke-width="0"><g stroke="none" stroke-linecap="butt"><path d="M216.11238,134.18695c4.58817,0.66286 24.32804,3.51472 35.43874,5.1199c-0.01103,0.05807 -0.02082,0.11665 -0.02936,0.17572c-0.28585,1.97855 0.94113,3.82673 2.80538,4.3733c-0.45072,0.54324 -0.76212,1.21358 -0.87044,1.96337c-0.29201,2.02122 0.99475,3.90638 2.92686,4.40683c-0.26292,2.04828 1.09022,3.94295 3.0837,4.37878c-0.83306,5.76623 -1.72964,11.97214 -2.21731,15.34772c-0.25599,1.7719 -1.89944,3.00569 -3.67724,2.74885c-5.84135,-0.84391 -36.29768,-5.24399 -42.14494,-6.08876c-1.7719,-0.25599 -2.99893,-1.90448 -2.74294,-3.67638c0.84391,-5.84135 2.91231,-20.15829 3.75707,-26.00556c0.25599,-1.7719 1.89856,-2.99977 3.67048,-2.74378z"/><path d=""/><path d="M251.55112,139.30684c-0.01103,0.05807 -0.02082,0.11665 -0.02936,0.17573c-0.28585,1.97855 0.94113,3.82673 2.80538,4.3733c-0.45072,0.54324 -0.76212,1.21358 -0.87044,1.96337c-0.29201,2.02122 0.99475,3.90638 2.92686,4.40683c-0.26292,2.04828 1.09022,3.94295 3.0837,4.37878c-0.83306,5.76623 -1.72964,11.97214 -2.21731,15.34772c-0.25599,1.7719 -1.89944,3.00569 -3.67724,2.74885c-5.84136,-0.84391 -36.29768,-5.24399 -42.14494,-6.08876c-1.77191,-0.25599 -2.99894,-1.90448 -2.74295,-3.67638c0.84391,-5.84136 2.91231,-20.15829 3.75707,-26.00556c0.25599,-1.7719 1.89857,-2.99978 3.67048,-2.74379c4.58815,0.66286 24.32804,3.51472 35.43875,5.1199z"/><path d=""/><path d="M251.55112,139.30684c-0.01103,0.05807 -0.02082,0.11665 -0.02936,0.17573c-0.28585,1.97855 0.94113,3.82673 2.80538,4.3733c-0.45072,0.54324 -0.76212,1.21358 -0.87044,1.96337c-0.29201,2.02122 0.99475,3.90638 2.92686,4.40683c-0.26292,2.04828 1.09022,3.94295 3.0837,4.37878c-0.83306,5.76623 -1.72964,11.97214 -2.21731,15.34772c-0.25599,1.7719 -1.89944,3.00569 -3.67724,2.74885c-5.84136,-0.84391 -36.29768,-5.24399 -42.14494,-6.08876c-1.77191,-0.25599 -2.99894,-1.90448 -2.74295,-3.67638c0.84391,-5.84136 2.91231,-20.15829 3.75707,-26.00556c0.25599,-1.7719 1.89857,-2.99978 3.67048,-2.74379c4.58815,0.66286 24.32804,3.51472 35.43875,5.1199z"/><path d=""/></g><g stroke-linecap="round"><g><path d="M232.23178,149.8438l-0.88421,6.12028" stroke="url(#color-3)"/><path d="M230.68154,153.16039l0.43789,-3.03099" stroke="url(#color-4)"/></g><g data-paper-data="{&quot;index&quot;:null}"><path d="M221.52705,154.74365l0.88421,-6.12028" stroke="url(#color-5)"/><path d="M223.39729,149.21211l-0.43789,3.03099" stroke="url(#color-6)"/></g></g></g><g><g stroke="none" stroke-width="1" stroke-linecap="butt"><path d="M266.07547,143.09822c-0.95822,6.63255 -3.3044,22.87227 -4.26165,29.49812c-0.29037,2.00987 -2.15452,3.40935 -4.1644,3.11898c-6.63255,-0.95822 -41.17917,-5.94923 -47.80502,-6.90648c-2.01655,-0.29134 -3.40839,-2.16122 -3.11802,-4.17109c0.55317,-3.82892 1.57016,-10.86829 2.5151,-17.40893c2.30867,0.16585 4.38905,-1.46097 4.76061,-3.77375c2.26265,0.07585 4.26777,-1.56194 4.59899,-3.85461c0.12287,-0.85049 -0.00069,-1.67973 -0.31663,-2.41543c2.20363,0.00389 4.13183,-1.61286 4.45606,-3.85713c0.00968,-0.06701 0.01783,-0.13389 0.02448,-0.2006c2.81375,0.40651 9.20885,1.33042 9.20885,1.33042l1.92002,2.09608l2.23683,-1.49553c0,0 23.81119,3.44005 26.83249,3.87654c2.00988,0.29037 3.40266,2.15355 3.1123,4.16341z" fill="#ffffff"/><path d="" fill="#ffffff"/><path d="M262.96319,138.9348c2.00988,0.29037 3.40266,2.15356 3.11229,4.16342c-0.95822,6.63255 -3.3044,22.87226 -4.26165,29.49812c-0.29037,2.00987 -2.15451,3.40935 -4.1644,3.11898c-6.63255,-0.95822 -41.17917,-5.94923 -47.80503,-6.90648c-2.01655,-0.29134 -3.40839,-2.16122 -3.11802,-4.17109c0.55317,-3.82892 1.57016,-10.86829 2.5151,-17.40893c2.30867,0.16585 4.38905,-1.46097 4.76061,-3.77375c2.26265,0.07585 4.26777,-1.56194 4.59899,-3.85461c0.12287,-0.85049 -0.00069,-1.67973 -0.31663,-2.41543c2.20363,0.00389 4.13183,-1.61286 4.45606,-3.85713c0.00968,-0.06701 0.01783,-0.13389 0.02448,-0.20061c3.18376,0.45996 8.81296,1.27322 8.81296,1.27322l2.03217,2.71851l2.52056,-2.06077c0,0 23.98621,3.46533 26.8325,3.87654z" fill="url(#color-7)"/><path d="" fill="url(#color-8)"/><path d="M262.96319,138.9348c2.00988,0.29037 3.40266,2.15356 3.11229,4.16342c-0.95822,6.63255 -3.3044,22.87226 -4.26165,29.49812c-0.29037,2.00987 -2.15451,3.40935 -4.1644,3.11898c-6.63255,-0.95822 -41.17917,-5.94923 -47.80503,-6.90648c-2.01655,-0.29134 -3.40839,-2.16122 -3.11802,-4.17109c0.55317,-3.82892 1.57016,-10.86829 2.5151,-17.40893c2.30867,0.16585 4.38905,-1.46097 4.76061,-3.77375c2.26265,0.07585 4.26777,-1.56194 4.59899,-3.85461c0.12287,-0.85049 -0.00069,-1.67973 -0.31663,-2.41543c2.20363,0.00389 4.13183,-1.61286 4.45606,-3.85713c0.00968,-0.06701 0.01783,-0.13389 0.02448,-0.20061c2.01569,0.29121 8.61501,1.24463 8.61501,1.24463l2.23011,2.74711l2.91645,-2.00357c0,0 22.84805,3.3009 26.43661,3.81935z" fill="url(#color-9)"/><path d="" fill="url(#color-10)"/></g><g fill="none" stroke-linecap="round"><g><path d="M240.4,150.79309l-1.00296,6.94223" stroke="url(#color-11)" stroke-width="5"/><path d="M241.02175,154.89894l0.4967,-3.43806" stroke="url(#color-12)" stroke-width="2.5"/></g><g data-paper-data="{&quot;index&quot;:null}"><path d="M251.47573,152.6182l-1.00296,6.94223" stroke="#adadad" stroke-width="5"/><path d="M249.71729,156.3802l0.4967,-3.43806" stroke="#c5c5c5" stroke-width="2.5"/></g></g></g><path d="M233.02223,150.97944l0.88652,-6.13629l24.14928,3.48889l-1.20109,8.31369l-9.83558,-4.65419l-5.45459,-3.79456l-6.27202,-0.58834z" fill="#ffffff" stroke="none" stroke-width="0" stroke-linecap="butt"/></g></g></g></g></svg>