<svg version="1.1" xmlns="http://www.w3.org/2000/svg" xmlns:xlink="http://www.w3.org/1999/xlink" width="10.96877" height="10.4531" viewBox="0,0,10.96877,10.4531"><g transform="translate(-234.51563,-176.10678)"><g data-paper-data="{&quot;isPaintingLayer&quot;:true}" fill="#ff0000" fill-rule="nonzero" stroke="none" stroke-width="1" stroke-linecap="square" stroke-linejoin="miter" stroke-miterlimit="10" stroke-dasharray="" stroke-dashoffset="0" style="mix-blend-mode: normal"><path d="M245.48435,181.35673c0,0.02083 -0.01562,0.3125 -0.04687,0.875h-7.35937c0.15625,0.52083 0.44791,0.92188 0.875,1.20313c0.42709,0.28125 0.96354,0.42188 1.60938,0.42188c0.48959,0 0.91146,-0.06771 1.26563,-0.20312c0.35416,-0.14583 0.70834,-0.375 1.0625,-0.6875l1.875,1.95313c-0.98959,1.09375 -2.42709,1.64063 -4.3125,1.64063c-1.17709,0 -2.21354,-0.22396 -3.10937,-0.67187c-0.89584,-0.44792 -1.59375,-1.06771 -2.09375,-1.85937c-0.48959,-0.80208 -0.73437,-1.70833 -0.73437,-2.71875c0,-0.98958 0.23959,-1.88021 0.71875,-2.67187c0.47916,-0.79167 1.14063,-1.41146 1.98438,-1.85937c0.85416,-0.44792 1.80729,-0.67187 2.85938,-0.67187c1.01041,0 1.92188,0.20833 2.73438,0.625c0.82291,0.41667 1.47396,1.02083 1.95313,1.8125c0.47916,0.79167 0.71875,1.72917 0.71875,2.8125zM240.09372,178.62235c-0.54166,0 -1,0.15625 -1.375,0.46875c-0.36459,0.3125 -0.59375,0.73438 -0.6875,1.26563h4.14063c-0.10416,-0.53125 -0.33854,-0.95312 -0.70312,-1.26562c-0.36459,-0.3125 -0.82291,-0.46875 -1.375,-0.46875z"/></g></g></svg>