<svg version="1.1" xmlns="http://www.w3.org/2000/svg" xmlns:xlink="http://www.w3.org/1999/xlink" width="24.625" height="36.90799" viewBox="0,0,24.625,36.90799"><g transform="translate(-225.05357,-165.23784)"><g data-paper-data="{&quot;isPaintingLayer&quot;:true}" fill="#ffffff" fill-rule="nonzero" stroke="none" stroke-width="0" stroke-linecap="butt" stroke-linejoin="miter" stroke-miterlimit="10" stroke-dasharray="" stroke-dashoffset="0" style="mix-blend-mode: normal"><path d="M225.05357,178.09583c0,-3.85689 1.25103,-8.66761 3.91871,-10.97206c2.29827,-1.98535 4.18705,-1.88508 7.50986,-1.88508c2.57915,0 4.12574,0.4285 6.14725,1.67661c3.60586,2.22632 4.99561,6.57998 4.99561,11.18053c0,7.1797 -5.8203,13 -13,13c-7.1797,0 -9.57143,-5.8203 -9.57143,-13z"/><path d="M225.05357,192.34583v-14.75h22.57143v14.75z"/><path d="M225.05357,199.64583c0,-1.83013 0,-7.5 0,-7.5h9.25c0,0 -0.58206,0.10796 -1.0748,0.56421c-0.36165,0.33487 -0.6752,0.97268 -0.6752,1.31079c0,1.05983 0,4.10846 0,6.125c0,1.28339 -1.08253,2 -1.875,2c-0.67203,0 -2.28439,0 -3.5,0c-1.26723,0 -2.125,-1.44338 -2.125,-2.5z"/><path d="M245.5,202.14584c-1.21562,0 -2.82797,0 -3.5,0c-0.79247,0 -1.875,-0.71661 -1.875,-2c0,-2.01655 0,-5.06517 0,-6.125c0,-0.33811 -0.31355,-0.97592 -0.6752,-1.31079c-0.49275,-0.45625 -1.0748,-0.56421 -1.0748,-0.56421h9.25c0,0 0,5.66987 0,7.5c0,1.05662 -0.85777,2.5 -2.125,2.5z" data-paper-data="{&quot;index&quot;:null}"/><path d="M247.17857,179.25655c-1.83013,0 -7.5,0 -7.5,0l-0.00722,-7.46091c0,0 5.99067,-0.03909 8.00722,-0.03909c1.28339,0 2,1.08253 2,1.875c0,0.67203 0,2.28438 0,3.5c0,1.26724 -1.44338,2.125 -2.5,2.125z"/></g></g></svg>