<svg version="1.1" xmlns="http://www.w3.org/2000/svg" xmlns:xlink="http://www.w3.org/1999/xlink" width="10.76562" height="13.32809" viewBox="0,0,10.76562,13.32809"><g transform="translate(-234.61719,-173.33597)"><g data-paper-data="{&quot;isPaintingLayer&quot;:true}" fill="#ff0000" fill-rule="nonzero" stroke="none" stroke-width="1" stroke-linecap="square" stroke-linejoin="miter" stroke-miterlimit="10" stroke-dasharray="" stroke-dashoffset="0" style="mix-blend-mode: normal"><path d="M242.02343,178.5703c1.08334,0.21875 1.91146,0.66146 2.48438,1.32813c0.58334,0.66667 0.875,1.47396 0.875,2.42188c0,0.77083 -0.20834,1.48438 -0.625,2.14063c-0.41666,0.65625 -1.05209,1.1875 -1.90625,1.59375c-0.84375,0.40625 -1.89584,0.60938 -3.15625,0.60938c-0.91666,0 -1.82812,-0.10937 -2.73437,-0.32812c-0.89584,-0.22917 -1.67709,-0.55208 -2.34375,-0.96875l1.34375,-2.78125c0.51041,0.35417 1.08334,0.625 1.71875,0.8125c0.64584,0.1875 1.28125,0.28125 1.90625,0.28125c0.63541,0 1.13541,-0.11979 1.5,-0.35937c0.375,-0.23958 0.5625,-0.57292 0.5625,-1c0,-0.85417 -0.66146,-1.28125 -1.98437,-1.28125h-1.54687v-2.32812l2.32813,-2.51562h-5.15625v-2.85936h9.4375v2.31249z"/></g></g></svg>