<svg version="1.1" xmlns="http://www.w3.org/2000/svg" xmlns:xlink="http://www.w3.org/1999/xlink" width="29.02587" height="80.13183" viewBox="0,0,29.02587,80.13183"><g transform="translate(-225.48968,-141.84628)"><g data-paper-data="{&quot;isPaintingLayer&quot;:true}" fill-rule="nonzero" stroke="none" stroke-width="1" stroke-linecap="butt" stroke-linejoin="miter" stroke-miterlimit="10" stroke-dasharray="" stroke-dashoffset="0" style="mix-blend-mode: normal"><g fill="#000000"><path d="M254.29933,216.67664c0,2.93338 -1.26584,5.30147 -2.82861,5.30147c-5.15715,0 -17.78432,0 -22.93624,0c-1.56276,0 -2.83382,-2.36813 -2.83382,-5.30147c0,-9.63815 0,-59.89071 0,-69.5386c0,-2.92362 1.27105,-5.29174 2.83382,-5.29174c5.15192,0 17.77911,0 22.93624,0c1.56276,0 2.82861,2.36812 2.82861,5.29174c0,9.64793 0,59.90044 0,69.5386z"/><path d="M254.29934,216.67662c0,2.93338 -1.26584,5.30147 -2.82861,5.30147c-5.15715,0 -17.78432,0 -22.93624,0c-1.56276,0 -2.83382,-2.36813 -2.83382,-5.30147c0,-9.63815 0,-59.89071 0,-69.5386c0,-2.92362 1.27105,-5.29174 2.83382,-5.29174c5.15192,0 17.77911,0 22.93624,0c1.56276,0 2.82861,2.36812 2.82861,5.29174c0,9.64793 0,59.90044 0,69.5386z"/><path d="M254.51555,221.97809h-29.02587v-80.13181h28.68756z"/></g><g fill="none" font-family="sans-serif" font-weight="normal" font-size="12" text-anchor="start"><g/><g data-paper-data="{&quot;index&quot;:null}"/></g></g></g></svg>