<svg version="1.1" xmlns="http://www.w3.org/2000/svg" xmlns:xlink="http://www.w3.org/1999/xlink" width="360.37522" height="138.82248" viewBox="0,0,360.37522,138.82248"><g transform="translate(-130.45215,-223.06909)"><g data-paper-data="{&quot;isPaintingLayer&quot;:true}" fill="#000000" fill-rule="nonzero" stroke="none" stroke-width="0" stroke-linecap="butt" stroke-linejoin="miter" stroke-miterlimit="10" stroke-dasharray="" stroke-dashoffset="0" style="mix-blend-mode: normal"><g><path d="M223.70345,223.31041v35.62056h-93.2513c0.5703,-0.33873 1.08983,-0.72925 1.47539,-1.26144c2.97189,-4.10213 2.42532,-8.6422 2.42532,-13.24198c0,-3.58122 0.60784,-7.71789 -0.05811,-11.23133c-0.29474,-1.55504 -1.17225,-2.95641 -1.5015,-4.5045c-0.37105,-1.74464 0.06307,-3.58708 0.15083,-5.3813z"/><path d="M150.33558,258.93093v-35.62056h72.86787v35.62056z"/><path d="M223.37012,223.0691v8.04336h-89.74441c-0.31872,-0.79565 -0.65512,-1.58692 -0.83246,-2.42076c-0.38771,-1.82295 0.10367,-3.75267 0.16044,-5.6226z"/><path d="M223.37012,250.61874v8.04335h-92.49566c0.40262,-0.27682 0.76519,-0.5952 1.05307,-0.99256c1.62296,-2.24019 2.19661,-4.61098 2.383,-7.05079z" data-paper-data="{&quot;index&quot;:null}"/></g><g><path d="M246.79582,252.19207v109.19949h-24.26817l-1.15872,-1.15872l-0.53519,0.53519l-0.92472,-1.51067c-3.74514,-0.19084 -7.45187,-0.30705 -11.17946,-0.33847c-0.42493,-0.60485 -0.90648,-1.22539 -1.50159,-1.82102c-0.80424,-0.80494 -2.04811,-1.06685 -2.85905,-1.86504c-0.06333,-0.06234 -0.12313,-0.12745 -0.17995,-0.19489c-0.25442,-1.38903 -0.47546,-2.78922 -1.1741,-3.98892c-1.09995,-1.8888 -2.88389,-3.30336 -4.0837,-5.13036c0,0 -0.0269,-0.04035 -0.0793,-0.10988c0.19662,-4.41975 0.42362,-9.00747 -0.22303,-13.11479c-0.16393,-1.04127 -0.85105,-1.95648 -1,-3c-0.18386,-1.28806 0.2477,-2.62326 0.01461,-3.90334c-0.43473,-2.38745 -1.52515,-4.62021 -2,-7c-0.20198,-1.01228 0.16298,-2.07982 -0.01461,-3.09666c-0.17207,-0.9852 -0.55236,-1.91807 -0.94189,-2.84851c0,-9.47689 0,-18.95378 0,-28.43067c0,0 0,-4.4679 -4.45194,-4.49983c-1.45506,-1.82532 -3.62323,-3.43271 -4.93275,-5.32066c-1.73984,-7.31644 -0.69113,-14.92927 -0.03036,-22.40226z"/><path d="M246.70423,231.89157v39h-62.05685c-1.05718,-8.75382 1.03958,-17.81977 1.03958,-26.47674c0,-3.98733 0.16494,-8.01654 0,-12c-0.00715,-0.17256 -0.03411,-0.34747 -0.06998,-0.52326z"/><g><path d="M246.7958,224.17341v38.19948c0,0 -14.09197,0 -18.09159,0c-2.16328,0 -6.20305,-1.07519 -7.65229,-2.37041c-1.37049,-1.22484 -3.46116,-2.64644 -4.4628,-3.54163c-1.80788,-1.61574 -4.12476,-3.55635 -6.88328,-3.56088c-2.59517,-0.00426 -11.06935,-0.01325 -15.00161,-0.0197c-2.58255,-0.00424 -6.60407,0.97407 -7.66394,2.28333c-0.54175,0.66923 -1.40533,1.736 -2.30385,2.84594c0.39499,-4.57437 0.95052,-9.13871 0.95052,-13.59471c0,-3.98733 0.16494,-8.01654 0,-12c-0.03568,-0.8617 -0.56558,-1.78212 -0.23093,-2.57698c0.64673,-1.53607 2.45943,-2.42343 3,-4c0.18009,-0.52523 0.31287,-1.08321 0.40491,-1.66445z"/><path d="M246.79583,223.83389v7.13617h-61.39025c-0.07568,-0.39163 -0.1001,-0.77462 0.05045,-1.1322c0.64673,-1.53607 2.45943,-2.42343 3,-4c0.21489,-0.62673 0.36242,-1.3001 0.45376,-2.00397z" data-paper-data="{&quot;index&quot;:null}"/></g><path d="M246.79582,343.6921v18.19948h-23.76817l-1.65872,-1.65872l-0.53519,0.53519l-0.92472,-1.51067c-3.74514,-0.19084 -7.45187,-0.30705 -11.17946,-0.33847c-0.42493,-0.60485 -0.90648,-1.22539 -1.50159,-1.82102c-0.80424,-0.80494 -2.04811,-1.06685 -2.85905,-1.86504c-0.06333,-0.06234 -0.12313,-0.12745 -0.17995,-0.19489c-0.25442,-1.38903 -0.47546,-2.78922 -1.1741,-3.98892c-1.09995,-1.8888 -2.88389,-3.30336 -4.0837,-5.13036c0,0 -0.0269,-0.04035 -0.0793,-0.10988c0.03124,-0.7022 0.06324,-1.40864 0.09239,-2.11671z"/></g><g><path d="M233.20421,361.39158v-109.19949h88.59159v109.19949z"/><path d="M233.20421,270.89153v-39h88.5v39z"/><g><path d="M233.20725,262.37286v-38.19948h88.58859v38.19948c0,0 -14.09197,0 -18.09159,0c-2.16328,0 -6.20305,-1.07519 -7.65229,-2.37041c-1.37049,-1.22484 -3.46115,-2.64644 -4.4628,-3.54163c-1.80788,-1.61574 -4.12476,-3.55635 -6.88328,-3.56088c-2.59516,-0.00426 -11.06935,-0.01325 -15.00161,-0.0197c-2.58255,-0.00424 -6.60406,0.97407 -7.66394,2.28333c-0.7197,0.88905 -2.00738,2.47971 -3.19041,3.9411c-1.39566,1.72404 -5.73017,3.26818 -8.14567,3.26818c-4.66342,0 -17.497,0 -17.497,0z"/><path d="M321.7958,223.83389v7.13617h-88.59159v-7.13617z" data-paper-data="{&quot;index&quot;:null}"/></g><path d="M233.20421,361.89158v-18.19948h88.59159v18.19948z"/></g><g><path d="M319.57807,361.39158v-109.19949h88.59159v109.19949z"/><path d="M319.57807,270.89153v-39h88.5v39z"/><g><path d="M319.5811,262.37286v-38.19948h88.58859v38.19948c0,0 -14.09197,0 -18.09159,0c-2.16328,0 -6.20305,-1.07519 -7.65229,-2.37041c-1.37049,-1.22484 -3.46115,-2.64644 -4.4628,-3.54163c-1.80788,-1.61574 -4.12476,-3.55635 -6.88328,-3.56088c-2.59516,-0.00426 -11.06935,-0.01325 -15.00161,-0.0197c-2.58255,-0.00424 -6.60406,0.97407 -7.66394,2.28333c-0.7197,0.88905 -2.00738,2.47971 -3.19041,3.9411c-1.39566,1.72404 -5.73017,3.26818 -8.14567,3.26818c-4.66342,0 -17.497,0 -17.497,0z"/><path d="M408.16971,224.00054v7.13617h-88.59159v-7.13617z" data-paper-data="{&quot;index&quot;:null}"/></g><path d="M319.57807,361.89158v-18.19948h88.59159v18.19948z"/></g><g><path d="M402.23577,361.39158v-109.19949h88.59159v109.19949z"/><path d="M402.23577,270.89153v-39h88.5v39z"/><g><path d="M402.23878,262.37286v-38.19948h88.58859v38.19948c0,0 -14.09197,0 -18.09159,0c-2.16328,0 -6.20305,-1.07519 -7.65229,-2.37041c-1.37049,-1.22484 -3.46116,-2.64644 -4.4628,-3.54163c-1.80788,-1.61574 -4.12476,-3.55635 -6.88328,-3.56088c-2.59517,-0.00426 -11.06935,-0.01325 -15.00161,-0.0197c-2.58255,-0.00424 -6.60407,0.97407 -7.66394,2.28333c-0.7197,0.88905 -2.00738,2.47971 -3.19041,3.9411c-1.39566,1.72404 -5.73017,3.26818 -8.14567,3.26818c-4.66341,0 -17.49699,0 -17.49699,0z"/><path d="M490.82737,224.00054v7.13617h-88.59159v-7.13617z" data-paper-data="{&quot;index&quot;:null}"/></g><path d="M402.23577,361.89158v-18.19948h88.59159v18.19948z"/></g></g></g></svg>