<svg version="1.1" xmlns="http://www.w3.org/2000/svg" xmlns:xlink="http://www.w3.org/1999/xlink" width="88.5916" height="138.05768" viewBox="0,0,88.5916,138.05768"><defs><linearGradient x1="238.49999" y1="139.57937" x2="238.49999" y2="248.77884" gradientUnits="userSpaceOnUse" id="color-1"><stop offset="0" stop-color="#544f3d"/><stop offset="1" stop-color="#2d2417"/></linearGradient><linearGradient x1="237.95421" y1="119.27884" x2="237.95421" y2="158.27884" gradientUnits="userSpaceOnUse" id="color-2"><stop offset="0" stop-color="#000000"/><stop offset="1" stop-color="#000000" stop-opacity="0"/></linearGradient><linearGradient x1="240.00151" y1="111.56071" x2="240.00151" y2="149.76018" gradientUnits="userSpaceOnUse" id="color-3"><stop offset="0" stop-color="#285329"/><stop offset="1" stop-color="#1e3e1e"/></linearGradient><linearGradient x1="239.99999" y1="111.22116" x2="239.99999" y2="118.35733" gradientUnits="userSpaceOnUse" id="color-4"><stop offset="0" stop-color="#356f36"/><stop offset="1" stop-color="#356f36" stop-opacity="0"/></linearGradient><linearGradient x1="238.49999" y1="231.07937" x2="238.49999" y2="254.27884" gradientUnits="userSpaceOnUse" id="color-5"><stop offset="0" stop-color="#1b1b1c" stop-opacity="0"/><stop offset="1" stop-color="#1b1b1c"/></linearGradient></defs><g transform="translate(-195.7042,-111.22116)"><g data-paper-data="{&quot;isPaintingLayer&quot;:true}" fill-rule="nonzero" stroke="none" stroke-width="0" stroke-linecap="butt" stroke-linejoin="miter" stroke-miterlimit="10" stroke-dasharray="" stroke-dashoffset="0" style="mix-blend-mode: normal"><path d="M195.7042,248.77884v-109.19949h88.59159v109.19949z" fill="url(#color-1)"/><path d="M195.7042,158.27884v-39h88.5v39z" fill="url(#color-2)"/><g><path d="M195.7072,149.76018v-38.19948h88.58859v38.19948c0,0 -14.09197,0 -18.09159,0c-2.16328,0 -6.20305,-1.07519 -7.65229,-2.37041c-1.37049,-1.22484 -3.46116,-2.64644 -4.4628,-3.54163c-1.80788,-1.61574 -4.12476,-3.55635 -6.88328,-3.56088c-2.59517,-0.00426 -11.06935,-0.01325 -15.00161,-0.0197c-2.58255,-0.00424 -6.60407,0.97407 -7.66394,2.28333c-0.7197,0.88905 -2.00738,2.47971 -3.19041,3.9411c-1.39566,1.72404 -5.73017,3.26818 -8.14567,3.26818c-4.66341,0 -17.49699,0 -17.49699,0z" fill="url(#color-3)"/><path d="M284.2958,111.22116v7.13617h-88.59159v-7.13617z" data-paper-data="{&quot;index&quot;:null}" fill="url(#color-4)"/></g><path d="M195.7042,249.27884v-18.19948h88.59159v18.19948z" fill="url(#color-5)"/></g></g></svg>