<svg version="1.1" xmlns="http://www.w3.org/2000/svg" xmlns:xlink="http://www.w3.org/1999/xlink" width="11.50002" height="13.59376" viewBox="0,0,11.50002,13.59376"><g transform="translate(-234.24999,-173.20312)"><g data-paper-data="{&quot;isPaintingLayer&quot;:true}" fill="#ff0000" fill-rule="nonzero" stroke="none" stroke-width="1" stroke-linecap="square" stroke-linejoin="miter" stroke-miterlimit="10" stroke-dasharray="" stroke-dashoffset="0" style="mix-blend-mode: normal"><path d="M240.01561,186.79686c-1.125,0 -2.125,-0.26562 -3,-0.79687c-0.86459,-0.54166 -1.54166,-1.32291 -2.03125,-2.34375c-0.48959,-1.03125 -0.73437,-2.25 -0.73437,-3.65625c0,-1.40625 0.24479,-2.61979 0.73438,-3.64062c0.48959,-1.03125 1.16666,-1.8125 2.03125,-2.34375c0.875,-0.54166 1.875,-0.8125 3,-0.8125c1.10416,0 2.08854,0.27084 2.95313,0.8125c0.875,0.53125 1.55729,1.3125 2.04688,2.34375c0.48959,1.02084 0.73438,2.23438 0.73438,3.64063c0,1.40625 -0.24479,2.625 -0.73437,3.65625c-0.48959,1.02084 -1.17187,1.80209 -2.04687,2.34375c-0.86459,0.53125 -1.84896,0.79688 -2.95312,0.79688zM240.01561,183.76561c0.61459,0 1.10416,-0.30209 1.46875,-0.90625c0.375,-0.60416 0.5625,-1.55729 0.5625,-2.85937c0,-1.30209 -0.1875,-2.25521 -0.5625,-2.85937c-0.36459,-0.60416 -0.85416,-0.90625 -1.46875,-0.90625c-0.63541,0 -1.14062,0.30209 -1.51562,0.90625c-0.36459,0.60416 -0.54687,1.55729 -0.54687,2.85938c0,1.30209 0.18229,2.25521 0.54688,2.85938c0.375,0.60416 0.88021,0.90625 1.51563,0.90625z"/></g></g></svg>