<svg version="1.1" xmlns="http://www.w3.org/2000/svg" xmlns:xlink="http://www.w3.org/1999/xlink" width="63.18225" height="28.53573" viewBox="0,0,63.18225,28.53573"><defs><linearGradient x1="223.40888" y1="181.39286" x2="228.75184" y2="181.39286" gradientUnits="userSpaceOnUse" id="color-1"><stop offset="0" stop-color="#254e26"/><stop offset="1" stop-color="#1e3e1e"/></linearGradient><linearGradient x1="223.40888" y1="181.39286" x2="228.75184" y2="181.39286" gradientUnits="userSpaceOnUse" id="color-2"><stop offset="0" stop-color="#326a33"/><stop offset="1" stop-color="#326a33" stop-opacity="0"/></linearGradient><linearGradient x1="232.50184" y1="183.26786" x2="227.15888" y2="183.26786" gradientUnits="userSpaceOnUse" id="color-3"><stop offset="0" stop-color="#254e26"/><stop offset="1" stop-color="#1e3e1e"/></linearGradient><linearGradient x1="232.50184" y1="183.26786" x2="227.15888" y2="183.26786" gradientUnits="userSpaceOnUse" id="color-4"><stop offset="0" stop-color="#326a33"/><stop offset="1" stop-color="#326a33" stop-opacity="0"/></linearGradient><linearGradient x1="227.90888" y1="185.89286" x2="233.25184" y2="185.89286" gradientUnits="userSpaceOnUse" id="color-5"><stop offset="0" stop-color="#254e26"/><stop offset="1" stop-color="#1e3e1e"/></linearGradient><linearGradient x1="227.90888" y1="185.89286" x2="233.25184" y2="185.89286" gradientUnits="userSpaceOnUse" id="color-6"><stop offset="0" stop-color="#326a33"/><stop offset="1" stop-color="#326a33" stop-opacity="0"/></linearGradient><linearGradient x1="237.00184" y1="187.11252" x2="231.65888" y2="187.11252" gradientUnits="userSpaceOnUse" id="color-7"><stop offset="0" stop-color="#254e26"/><stop offset="1" stop-color="#1e3e1e"/></linearGradient><linearGradient x1="237.00184" y1="187.11252" x2="231.65888" y2="187.11252" gradientUnits="userSpaceOnUse" id="color-8"><stop offset="0" stop-color="#326a33"/><stop offset="1" stop-color="#326a33" stop-opacity="0"/></linearGradient><linearGradient x1="217.49816" y1="183.39286" x2="222.84112" y2="183.39286" gradientUnits="userSpaceOnUse" id="color-9"><stop offset="0" stop-color="#254e26"/><stop offset="1" stop-color="#1e3e1e"/></linearGradient><linearGradient x1="217.49816" y1="183.39286" x2="222.84112" y2="183.39286" gradientUnits="userSpaceOnUse" id="color-10"><stop offset="0" stop-color="#326a33"/><stop offset="1" stop-color="#326a33" stop-opacity="0"/></linearGradient><linearGradient x1="226.59112" y1="184.94539" x2="221.24816" y2="184.94539" gradientUnits="userSpaceOnUse" id="color-11"><stop offset="0" stop-color="#254e26"/><stop offset="1" stop-color="#1e3e1e"/></linearGradient><linearGradient x1="226.59112" y1="184.94539" x2="221.24816" y2="184.94539" gradientUnits="userSpaceOnUse" id="color-12"><stop offset="0" stop-color="#326a33"/><stop offset="1" stop-color="#326a33" stop-opacity="0"/></linearGradient><linearGradient x1="232.08745" y1="180.10715" x2="237.43041" y2="180.10715" gradientUnits="userSpaceOnUse" id="color-13"><stop offset="0" stop-color="#254e26"/><stop offset="1" stop-color="#1e3e1e"/></linearGradient><linearGradient x1="232.08745" y1="180.10714" x2="237.43041" y2="180.10714" gradientUnits="userSpaceOnUse" id="color-14"><stop offset="0" stop-color="#326a33"/><stop offset="1" stop-color="#326a33" stop-opacity="0"/></linearGradient><linearGradient x1="241.18041" y1="182.16938" x2="235.83745" y2="182.16938" gradientUnits="userSpaceOnUse" id="color-15"><stop offset="0" stop-color="#254e26"/><stop offset="1" stop-color="#1e3e1e"/></linearGradient><linearGradient x1="241.18041" y1="182.16938" x2="235.83745" y2="182.16938" gradientUnits="userSpaceOnUse" id="color-16"><stop offset="0" stop-color="#326a33"/><stop offset="1" stop-color="#326a33" stop-opacity="0"/></linearGradient><linearGradient x1="238.81959" y1="182.42858" x2="244.16256" y2="182.42858" gradientUnits="userSpaceOnUse" id="color-17"><stop offset="0" stop-color="#254e26"/><stop offset="1" stop-color="#1e3e1e"/></linearGradient><linearGradient x1="238.81959" y1="182.42858" x2="244.16256" y2="182.42858" gradientUnits="userSpaceOnUse" id="color-18"><stop offset="0" stop-color="#326a33"/><stop offset="1" stop-color="#326a33" stop-opacity="0"/></linearGradient><linearGradient x1="247.91255" y1="184.12154" x2="242.56959" y2="184.12154" gradientUnits="userSpaceOnUse" id="color-19"><stop offset="0" stop-color="#254e26"/><stop offset="1" stop-color="#1e3e1e"/></linearGradient><linearGradient x1="247.91255" y1="184.12154" x2="242.56959" y2="184.12154" gradientUnits="userSpaceOnUse" id="color-20"><stop offset="0" stop-color="#326a33"/><stop offset="1" stop-color="#326a33" stop-opacity="0"/></linearGradient><linearGradient x1="243.31959" y1="186.49168" x2="248.66255" y2="186.49168" gradientUnits="userSpaceOnUse" id="color-21"><stop offset="0" stop-color="#254e26"/><stop offset="1" stop-color="#1e3e1e"/></linearGradient><linearGradient x1="243.31959" y1="186.49168" x2="248.66255" y2="186.49168" gradientUnits="userSpaceOnUse" id="color-22"><stop offset="0" stop-color="#326a33"/><stop offset="1" stop-color="#326a33" stop-opacity="0"/></linearGradient><linearGradient x1="252.41255" y1="187.59293" x2="247.0696" y2="187.59293" gradientUnits="userSpaceOnUse" id="color-23"><stop offset="0" stop-color="#254e26"/><stop offset="1" stop-color="#1e3e1e"/></linearGradient><linearGradient x1="252.41255" y1="187.59293" x2="247.0696" y2="187.59293" gradientUnits="userSpaceOnUse" id="color-24"><stop offset="0" stop-color="#326a33"/><stop offset="1" stop-color="#326a33" stop-opacity="0"/></linearGradient><linearGradient x1="247.49817" y1="179.89287" x2="252.84112" y2="179.89287" gradientUnits="userSpaceOnUse" id="color-25"><stop offset="0" stop-color="#254e26"/><stop offset="1" stop-color="#1e3e1e"/></linearGradient><linearGradient x1="247.49817" y1="179.89286" x2="252.84112" y2="179.89286" gradientUnits="userSpaceOnUse" id="color-26"><stop offset="0" stop-color="#326a33"/><stop offset="1" stop-color="#326a33" stop-opacity="0"/></linearGradient><linearGradient x1="256.59112" y1="181.9551" x2="251.24817" y2="181.9551" gradientUnits="userSpaceOnUse" id="color-27"><stop offset="0" stop-color="#254e26"/><stop offset="1" stop-color="#1e3e1e"/></linearGradient><linearGradient x1="256.59112" y1="181.9551" x2="251.24817" y2="181.9551" gradientUnits="userSpaceOnUse" id="color-28"><stop offset="0" stop-color="#326a33"/><stop offset="1" stop-color="#326a33" stop-opacity="0"/></linearGradient><linearGradient x1="193.40888" y1="181.39286" x2="198.75184" y2="181.39286" gradientUnits="userSpaceOnUse" id="color-29"><stop offset="0" stop-color="#254e26"/><stop offset="1" stop-color="#1e3e1e"/></linearGradient><linearGradient x1="193.40888" y1="181.39286" x2="198.75184" y2="181.39286" gradientUnits="userSpaceOnUse" id="color-30"><stop offset="0" stop-color="#326a33"/><stop offset="1" stop-color="#326a33" stop-opacity="0"/></linearGradient><linearGradient x1="202.50184" y1="183.26786" x2="197.15888" y2="183.26786" gradientUnits="userSpaceOnUse" id="color-31"><stop offset="0" stop-color="#254e26"/><stop offset="1" stop-color="#1e3e1e"/></linearGradient><linearGradient x1="202.50184" y1="183.26786" x2="197.15888" y2="183.26786" gradientUnits="userSpaceOnUse" id="color-32"><stop offset="0" stop-color="#326a33"/><stop offset="1" stop-color="#326a33" stop-opacity="0"/></linearGradient><linearGradient x1="197.90888" y1="185.89286" x2="203.25184" y2="185.89286" gradientUnits="userSpaceOnUse" id="color-33"><stop offset="0" stop-color="#254e26"/><stop offset="1" stop-color="#1e3e1e"/></linearGradient><linearGradient x1="197.90888" y1="185.89286" x2="203.25184" y2="185.89286" gradientUnits="userSpaceOnUse" id="color-34"><stop offset="0" stop-color="#326a33"/><stop offset="1" stop-color="#326a33" stop-opacity="0"/></linearGradient><linearGradient x1="207.00184" y1="187.11251" x2="201.65888" y2="187.11251" gradientUnits="userSpaceOnUse" id="color-35"><stop offset="0" stop-color="#254e26"/><stop offset="1" stop-color="#1e3e1e"/></linearGradient><linearGradient x1="207.00184" y1="187.11251" x2="201.65888" y2="187.11251" gradientUnits="userSpaceOnUse" id="color-36"><stop offset="0" stop-color="#326a33"/><stop offset="1" stop-color="#326a33" stop-opacity="0"/></linearGradient><linearGradient x1="202.08745" y1="185.35715" x2="207.43041" y2="185.35715" gradientUnits="userSpaceOnUse" id="color-37"><stop offset="0" stop-color="#254e26"/><stop offset="1" stop-color="#1e3e1e"/></linearGradient><linearGradient x1="202.08745" y1="185.35714" x2="207.43041" y2="185.35714" gradientUnits="userSpaceOnUse" id="color-38"><stop offset="0" stop-color="#326a33"/><stop offset="1" stop-color="#326a33" stop-opacity="0"/></linearGradient><linearGradient x1="211.18041" y1="186.65482" x2="205.83745" y2="186.65482" gradientUnits="userSpaceOnUse" id="color-39"><stop offset="0" stop-color="#254e26"/><stop offset="1" stop-color="#1e3e1e"/></linearGradient><linearGradient x1="211.18041" y1="186.65482" x2="205.83745" y2="186.65482" gradientUnits="userSpaceOnUse" id="color-40"><stop offset="0" stop-color="#326a33"/><stop offset="1" stop-color="#326a33" stop-opacity="0"/></linearGradient><linearGradient x1="208.81959" y1="181.17858" x2="214.16256" y2="181.17858" gradientUnits="userSpaceOnUse" id="color-41"><stop offset="0" stop-color="#254e26"/><stop offset="1" stop-color="#1e3e1e"/></linearGradient><linearGradient x1="208.81959" y1="181.17858" x2="214.16256" y2="181.17858" gradientUnits="userSpaceOnUse" id="color-42"><stop offset="0" stop-color="#326a33"/><stop offset="1" stop-color="#326a33" stop-opacity="0"/></linearGradient><linearGradient x1="217.91255" y1="183.05358" x2="212.56959" y2="183.05358" gradientUnits="userSpaceOnUse" id="color-43"><stop offset="0" stop-color="#254e26"/><stop offset="1" stop-color="#1e3e1e"/></linearGradient><linearGradient x1="217.91255" y1="183.05358" x2="212.56959" y2="183.05358" gradientUnits="userSpaceOnUse" id="color-44"><stop offset="0" stop-color="#326a33"/><stop offset="1" stop-color="#326a33" stop-opacity="0"/></linearGradient><linearGradient x1="213.31959" y1="185.67858" x2="218.66255" y2="185.67858" gradientUnits="userSpaceOnUse" id="color-45"><stop offset="0" stop-color="#254e26"/><stop offset="1" stop-color="#1e3e1e"/></linearGradient><linearGradient x1="213.31959" y1="185.67858" x2="218.66255" y2="185.67858" gradientUnits="userSpaceOnUse" id="color-46"><stop offset="0" stop-color="#326a33"/><stop offset="1" stop-color="#326a33" stop-opacity="0"/></linearGradient><linearGradient x1="222.41255" y1="186.89824" x2="217.0696" y2="186.89824" gradientUnits="userSpaceOnUse" id="color-47"><stop offset="0" stop-color="#254e26"/><stop offset="1" stop-color="#1e3e1e"/></linearGradient><linearGradient x1="222.41255" y1="186.89824" x2="217.0696" y2="186.89824" gradientUnits="userSpaceOnUse" id="color-48"><stop offset="0" stop-color="#326a33"/><stop offset="1" stop-color="#326a33" stop-opacity="0"/></linearGradient></defs><g transform="translate(-193.40887,-165.73213)"><g data-paper-data="{&quot;isPaintingLayer&quot;:true}" fill-rule="nonzero" stroke="none" stroke-width="0" stroke-linecap="butt" stroke-linejoin="miter" stroke-miterlimit="10" stroke-dasharray="" stroke-dashoffset="0" style="mix-blend-mode: normal"><g><g><g><g><path d="M223.40888,194.01786c0,0 2.43809,-7.08613 2.54765,-11.50502c0.13506,-5.44758 -2.04765,-13.99498 -2.04765,-13.99498c0,0 3.38589,8.5553 4,13.75c1.23224,10.4234 0.75,12 0.75,12z" fill="url(#color-1)"/><path d="M223.40888,194.01786c0,0 2.43809,-7.08612 2.54764,-11.50501c0.13506,-5.44758 -2.04764,-13.99499 -2.04764,-13.99499c0,0 3.38589,8.5553 4,13.75c1.23224,10.4234 0.75,12 0.75,12z" fill="url(#color-2)"/></g><g data-paper-data="{&quot;index&quot;:null}"><path d="M227.25184,194.26786c0,0 -0.48224,-1.347 0.75,-10.25243c0.61411,-4.43819 4,-11.74757 4,-11.74757c0,0 -2.18271,7.30263 -2.04765,11.95688c0.10956,3.77536 2.54765,9.82953 2.54765,9.82953z" fill="url(#color-3)"/><path d="M227.25184,194.26786c0,0 -0.48224,-1.347 0.75,-10.25243c0.61411,-4.43819 4,-11.74757 4,-11.74757c0,0 -2.1827,7.30264 -2.04764,11.95689c0.10955,3.77536 2.54764,9.82952 2.54764,9.82952z" fill="url(#color-4)"/></g></g><g><g><path d="M227.90888,194.10524c0,0 2.43809,-4.60942 2.54765,-7.48385c0.13506,-3.54357 -2.04765,-9.10353 -2.04765,-9.10353c0,0 3.38589,5.5651 4,8.94418c1.23224,6.78027 0.75,7.80582 0.75,7.80582z" fill="url(#color-5)"/><path d="M227.90888,194.10524c0,0 2.43809,-4.60942 2.54764,-7.48384c0.13506,-3.54357 -2.04764,-9.10354 -2.04764,-9.10354c0,0 3.38589,5.5651 4,8.94418c1.23224,6.78027 0.75,7.80582 0.75,7.80582z" fill="url(#color-6)"/></g><g data-paper-data="{&quot;index&quot;:null}"><path d="M231.75184,194.26786c0,0 -0.48224,-0.8762 0.75,-6.66905c0.61411,-2.88698 4,-7.64163 4,-7.64163c0,0 -2.18271,4.75026 -2.04765,7.77778c0.10956,2.45582 2.54765,6.39397 2.54765,6.39397z" fill="url(#color-7)"/><path d="M231.75184,194.26786c0,0 -0.48224,-0.8762 0.75,-6.66906c0.61411,-2.88698 4,-7.64163 4,-7.64163c0,0 -2.1827,4.75026 -2.04764,7.77778c0.10955,2.45582 2.54764,6.39396 2.54764,6.39396z" fill="url(#color-8)"/></g></g></g><g><g><path d="M217.49816,193.84657c0,0 2.43809,-5.86743 2.54765,-9.52635c0.13506,-4.51069 -2.04765,-11.58808 -2.04765,-11.58808c0,0 3.38589,7.08394 4,11.38524c1.23224,8.63075 0.75,9.9362 0.75,9.9362z" fill="url(#color-9)"/><path d="M217.49816,193.84657c0,0 2.43809,-5.86743 2.54764,-9.52634c0.13506,-4.51069 -2.04764,-11.58809 -2.04764,-11.58809c0,0 3.38589,7.08394 4,11.38524c1.23224,8.63075 0.75,9.9362 0.75,9.9362z" fill="url(#color-10)"/></g><g data-paper-data="{&quot;index&quot;:null}"><path d="M221.34112,194.05358c0,0 -0.48224,-1.11534 0.75,-8.48918c0.61411,-3.67489 4,-9.72719 4,-9.72719c0,0 -2.18271,6.04671 -2.04765,9.9005c0.10956,3.12606 2.54765,8.13902 2.54765,8.13902z" fill="url(#color-11)"/><path d="M221.34112,194.05357c0,0 -0.48224,-1.11534 0.75,-8.48918c0.61411,-3.67489 4,-9.72719 4,-9.72719c0,0 -2.1827,6.04671 -2.04764,9.9005c0.10955,3.12606 2.54764,8.13901 2.54764,8.13901z" fill="url(#color-12)"/></g></g><g><g><g><path d="M232.08745,193.9929c0,0 2.43809,-7.79376 2.54765,-12.65393c0.13506,-5.99158 -2.04765,-15.39254 -2.04765,-15.39254c0,0 3.38589,9.40964 4,15.12309c1.23224,11.46429 0.75,13.19834 0.75,13.19834z" fill="url(#color-13)"/><path d="M232.08745,193.99289c0,0 2.43809,-7.79375 2.54764,-12.65391c0.13506,-5.99158 -2.04764,-15.39255 -2.04764,-15.39255c0,0 3.38589,9.40964 4,15.12309c1.23224,11.46429 0.75,13.19834 0.75,13.19834z" fill="url(#color-14)"/></g><g data-paper-data="{&quot;index&quot;:null}"><path d="M235.93041,194.26787c0,0 -0.48224,-1.48151 0.75,-11.27625c0.61411,-4.88139 4,-12.92071 4,-12.92071c0,0 -2.18271,8.03189 -2.04765,13.15091c0.10956,4.15237 2.54765,10.81112 2.54765,10.81112z" fill="url(#color-15)"/><path d="M235.93041,194.26785c0,0 -0.48224,-1.48151 0.75,-11.27625c0.61411,-4.88139 4,-12.9207 4,-12.9207c0,0 -2.1827,8.03189 -2.04764,13.15092c0.10955,4.15237 2.54764,10.81111 2.54764,10.81111z" fill="url(#color-16)"/></g></g><g><g><g><path d="M238.81959,193.82785c0,0 2.43809,-6.39816 2.54765,-10.38803c0.13506,-4.91869 -2.04765,-12.63624 -2.04765,-12.63624c0,0 3.38589,7.72469 4,12.41505c1.23224,9.41142 0.75,10.83495 0.75,10.83495z" fill="url(#color-17)"/><path d="M238.81959,193.82785c0,0 2.43809,-6.39815 2.54764,-10.38802c0.13506,-4.91869 -2.04764,-12.63625 -2.04764,-12.63625c0,0 3.38589,7.72469 4,12.41505c1.23224,9.41142 0.75,10.83495 0.75,10.83495z" fill="url(#color-18)"/></g><g data-paper-data="{&quot;index&quot;:null}"><path d="M242.66256,194.05358c0,0 -0.48224,-1.21622 0.75,-9.25705c0.61411,-4.0073 4,-10.60703 4,-10.60703c0,0 -2.18271,6.59364 -2.04765,10.79602c0.10956,3.40882 2.54765,8.87521 2.54765,8.87521z" fill="url(#color-19)"/><path d="M242.66256,194.05358c0,0 -0.48224,-1.21622 0.75,-9.25705c0.61411,-4.0073 4,-10.60703 4,-10.60703c0,0 -2.1827,6.59365 -2.04764,10.79603c0.10955,3.40882 2.54764,8.8752 2.54764,8.8752z" fill="url(#color-20)"/></g></g><g><g><path d="M243.31959,193.90674c0,0 2.43809,-4.1619 2.54765,-6.75726c0.13506,-3.19953 -2.04765,-8.21969 -2.04765,-8.21969c0,0 3.38589,5.0248 4,8.07581c1.23224,6.12199 0.75,7.04797 0.75,7.04797z" fill="url(#color-21)"/><path d="M243.31959,193.90674c0,0 2.43809,-4.1619 2.54764,-6.75725c0.13506,-3.19953 -2.04764,-8.2197 -2.04764,-8.2197c0,0 3.38589,5.0248 4,8.07581c1.23224,6.12199 0.75,7.04797 0.75,7.04797z" fill="url(#color-22)"/></g><g data-paper-data="{&quot;index&quot;:null}"><path d="M247.16255,194.05358c0,0 -0.48224,-0.79113 0.75,-6.02157c0.61411,-2.60669 4,-6.89972 4,-6.89972c0,0 -2.18271,4.28907 -2.04765,7.02266c0.10956,2.21739 2.54765,5.7732 2.54765,5.7732z" fill="url(#color-23)"/><path d="M247.16255,194.05358c0,0 -0.48224,-0.79113 0.75,-6.02158c0.61411,-2.60669 4,-6.89972 4,-6.89972c0,0 -2.1827,4.28907 -2.04764,7.02266c0.10955,2.21739 2.54764,5.77319 2.54764,5.77319z" fill="url(#color-24)"/></g></g></g><g><g><path d="M247.49817,193.77862c0,0 2.43809,-7.79376 2.54765,-12.65393c0.13506,-5.99158 -2.04765,-15.39254 -2.04765,-15.39254c0,0 3.38589,9.40965 4,15.1231c1.23224,11.46429 0.75,13.19833 0.75,13.19833z" fill="url(#color-25)"/><path d="M247.49817,193.77861c0,0 2.43809,-7.79375 2.54764,-12.65392c0.13506,-5.99158 -2.04764,-15.39255 -2.04764,-15.39255c0,0 3.38589,9.40965 4,15.1231c1.23224,11.46429 0.75,13.19834 0.75,13.19834z" fill="url(#color-26)"/></g><g data-paper-data="{&quot;index&quot;:null}"><path d="M251.34112,194.05358c0,0 -0.48224,-1.48151 0.75,-11.27625c0.61411,-4.88139 4,-12.92071 4,-12.92071c0,0 -2.18271,8.03189 -2.04765,13.15091c0.10956,4.15237 2.54765,10.81112 2.54765,10.81112z" fill="url(#color-27)"/><path d="M251.34112,194.05357c0,0 -0.48224,-1.48151 0.75,-11.27625c0.61411,-4.88139 4,-12.9207 4,-12.9207c0,0 -2.1827,8.03189 -2.04764,13.15092c0.10955,4.15237 2.54764,10.81111 2.54764,10.81111z" fill="url(#color-28)"/></g></g></g><g><g><g><g><path d="M193.40888,194.01786c0,0 2.43809,-7.08613 2.54765,-11.50502c0.13506,-5.44758 -2.04765,-13.99498 -2.04765,-13.99498c0,0 3.38589,8.5553 4,13.75c1.23224,10.4234 0.75,12 0.75,12z" fill="url(#color-29)"/><path d="M193.40888,194.01786c0,0 2.43809,-7.08612 2.54764,-11.50501c0.13506,-5.44758 -2.04764,-13.99499 -2.04764,-13.99499c0,0 3.38589,8.5553 4,13.75c1.23224,10.4234 0.75,12 0.75,12z" fill="url(#color-30)"/></g><g data-paper-data="{&quot;index&quot;:null}"><path d="M197.25184,194.26786c0,0 -0.48224,-1.347 0.75,-10.25243c0.61411,-4.43819 4,-11.74757 4,-11.74757c0,0 -2.18271,7.30263 -2.04765,11.95688c0.10956,3.77536 2.54765,9.82953 2.54765,9.82953z" fill="url(#color-31)"/><path d="M197.25184,194.26786c0,0 -0.48224,-1.347 0.75,-10.25243c0.61411,-4.43819 4,-11.74757 4,-11.74757c0,0 -2.1827,7.30264 -2.04764,11.95689c0.10955,3.77536 2.54764,9.82952 2.54764,9.82952z" fill="url(#color-32)"/></g></g><g><g><path d="M197.90888,194.10524c0,0 2.43809,-4.60942 2.54765,-7.48385c0.13506,-3.54357 -2.04765,-9.10353 -2.04765,-9.10353c0,0 3.38589,5.5651 4,8.94418c1.23224,6.78027 0.75,7.80582 0.75,7.80582z" fill="url(#color-33)"/><path d="M197.90888,194.10524c0,0 2.43809,-4.60942 2.54764,-7.48384c0.13506,-3.54357 -2.04764,-9.10354 -2.04764,-9.10354c0,0 3.38589,5.5651 4,8.94418c1.23224,6.78027 0.75,7.80582 0.75,7.80582z" fill="url(#color-34)"/></g><g data-paper-data="{&quot;index&quot;:null}"><path d="M201.75184,194.26786c0,0 -0.48224,-0.8762 0.75,-6.66905c0.61411,-2.88698 4,-7.64163 4,-7.64163c0,0 -2.18271,4.75026 -2.04765,7.77778c0.10956,2.45582 2.54765,6.39397 2.54765,6.39397z" fill="url(#color-35)"/><path d="M201.75184,194.26786c0,0 -0.48224,-0.8762 0.75,-6.66906c0.61411,-2.88698 4,-7.64163 4,-7.64163c0,0 -2.1827,4.75026 -2.04764,7.77778c0.10955,2.45582 2.54764,6.39396 2.54764,6.39396z" fill="url(#color-36)"/></g></g></g><g><g><path d="M202.08745,194.09484c0,0 2.43809,-4.90427 2.54765,-7.96256c0.13506,-3.77024 -2.04765,-9.68585 -2.04765,-9.68585c0,0 3.38589,5.92107 4,9.5163c1.23224,7.21397 0.75,8.30514 0.75,8.30514z" fill="url(#color-37)"/><path d="M202.08745,194.09483c0,0 2.43809,-4.90427 2.54764,-7.96255c0.13506,-3.77024 -2.04764,-9.68586 -2.04764,-9.68586c0,0 3.38589,5.92107 4,9.5163c1.23224,7.21397 0.75,8.30514 0.75,8.30514z" fill="url(#color-38)"/></g><g data-paper-data="{&quot;index&quot;:null}"><path d="M205.93041,194.26787c0,0 -0.48224,-0.93225 0.75,-7.09565c0.61411,-3.07164 4,-8.13044 4,-8.13044c0,0 -2.18271,5.05412 -2.04765,8.27529c0.10956,2.6129 2.54765,6.80296 2.54765,6.80296z" fill="url(#color-39)"/><path d="M205.93041,194.26785c0,0 -0.48224,-0.93225 0.75,-7.09565c0.61411,-3.07164 4,-8.13043 4,-8.13043c0,0 -2.1827,5.05412 -2.04764,8.2753c0.10955,2.6129 2.54764,6.80296 2.54764,6.80296z" fill="url(#color-40)"/></g></g><g><g><g><path d="M208.81959,193.80358c0,0 2.43809,-7.08613 2.54765,-11.50502c0.13506,-5.44758 -2.04765,-13.99498 -2.04765,-13.99498c0,0 3.38589,8.5553 4,13.75c1.23224,10.4234 0.75,12 0.75,12z" fill="url(#color-41)"/><path d="M208.81959,193.80358c0,0 2.43809,-7.08612 2.54764,-11.50501c0.13506,-5.44758 -2.04764,-13.99499 -2.04764,-13.99499c0,0 3.38589,8.5553 4,13.75c1.23224,10.4234 0.75,12 0.75,12z" fill="url(#color-42)"/></g><g data-paper-data="{&quot;index&quot;:null}"><path d="M212.66256,194.05358c0,0 -0.48224,-1.347 0.75,-10.25243c0.61411,-4.43819 4,-11.74757 4,-11.74757c0,0 -2.18271,7.30263 -2.04765,11.95688c0.10956,3.77536 2.54765,9.82953 2.54765,9.82953z" fill="url(#color-43)"/><path d="M212.66256,194.05358c0,0 -0.48224,-1.347 0.75,-10.25243c0.61411,-4.43819 4,-11.74757 4,-11.74757c0,0 -2.1827,7.30264 -2.04764,11.95689c0.10955,3.77536 2.54764,9.82952 2.54764,9.82952z" fill="url(#color-44)"/></g></g><g><g><path d="M213.31959,193.89096c0,0 2.43809,-4.60942 2.54765,-7.48385c0.13506,-3.54357 -2.04765,-9.10353 -2.04765,-9.10353c0,0 3.38589,5.5651 4,8.94418c1.23224,6.78027 0.75,7.80582 0.75,7.80582z" fill="url(#color-45)"/><path d="M213.31959,193.89096c0,0 2.43809,-4.60942 2.54764,-7.48384c0.13506,-3.54357 -2.04764,-9.10354 -2.04764,-9.10354c0,0 3.38589,5.5651 4,8.94418c1.23224,6.78027 0.75,7.80582 0.75,7.80582z" fill="url(#color-46)"/></g><g data-paper-data="{&quot;index&quot;:null}"><path d="M217.16255,194.05358c0,0 -0.48224,-0.8762 0.75,-6.66905c0.61411,-2.88698 4,-7.64163 4,-7.64163c0,0 -2.18271,4.75026 -2.04765,7.77778c0.10956,2.45582 2.54765,6.39397 2.54765,6.39397z" fill="url(#color-47)"/><path d="M217.16255,194.05358c0,0 -0.48224,-0.8762 0.75,-6.66906c0.61411,-2.88698 4,-7.64163 4,-7.64163c0,0 -2.1827,4.75026 -2.04764,7.77778c0.10955,2.45582 2.54764,6.39396 2.54764,6.39396z" fill="url(#color-48)"/></g></g></g></g></g></g></g></svg>