<svg version="1.1" xmlns="http://www.w3.org/2000/svg" xmlns:xlink="http://www.w3.org/1999/xlink" width="281.9649" height="132.96398" viewBox="0,0,281.9649,132.96398"><defs><linearGradient x1="240.25002" y1="174.55467" x2="240.25002" y2="210.17524" gradientUnits="userSpaceOnUse" id="color-1"><stop offset="0" stop-color="#c1ad7e"/><stop offset="1" stop-color="#8f7f5d"/></linearGradient><linearGradient x1="240.25002" y1="174.55467" x2="240.25002" y2="210.17524" gradientUnits="userSpaceOnUse" id="color-2"><stop offset="0" stop-color="#ab996f"/><stop offset="1" stop-color="#786b4e"/></linearGradient><linearGradient x1="240.25002" y1="162.06909" x2="240.25002" y2="170.11244" gradientUnits="userSpaceOnUse" id="color-3"><stop offset="0" stop-color="#e7cf96"/><stop offset="1" stop-color="#e7cf96" stop-opacity="0"/></linearGradient><linearGradient x1="240.25002" y1="197.66207" x2="240.25002" y2="189.6187" gradientUnits="userSpaceOnUse" id="color-4"><stop offset="0" stop-color="#8a7c5a"/><stop offset="1" stop-color="#8a7c5a" stop-opacity="0"/></linearGradient><linearGradient x1="234.7395" y1="223.09821" x2="234.7395" y2="258.71878" gradientUnits="userSpaceOnUse" id="color-5"><stop offset="0" stop-color="#c1ad7e"/><stop offset="1" stop-color="#8f7f5d"/></linearGradient><linearGradient x1="84.73949" y1="223.09821" x2="84.73949" y2="258.71878" gradientUnits="userSpaceOnUse" id="color-6"><stop offset="0" stop-color="#ab996f"/><stop offset="1" stop-color="#786b4e"/></linearGradient><linearGradient x1="234.7395" y1="223.09821" x2="234.7395" y2="258.71878" gradientUnits="userSpaceOnUse" id="color-7"><stop offset="0" stop-color="#ab996f"/><stop offset="1" stop-color="#786b4e"/></linearGradient><linearGradient x1="234.7395" y1="210.61263" x2="234.7395" y2="218.65599" gradientUnits="userSpaceOnUse" id="color-8"><stop offset="0" stop-color="#e7cf96"/><stop offset="1" stop-color="#e7cf96" stop-opacity="0"/></linearGradient><linearGradient x1="234.7395" y1="246.20561" x2="234.7395" y2="238.16225" gradientUnits="userSpaceOnUse" id="color-9"><stop offset="0" stop-color="#8a7c5a"/><stop offset="1" stop-color="#8a7c5a" stop-opacity="0"/></linearGradient><linearGradient x1="245.74551" y1="125.99611" x2="245.74551" y2="161.61668" gradientUnits="userSpaceOnUse" id="color-10"><stop offset="0" stop-color="#c1ad7e"/><stop offset="1" stop-color="#8f7f5d"/></linearGradient><linearGradient x1="395.74551" y1="125.99611" x2="395.74551" y2="161.61668" gradientUnits="userSpaceOnUse" id="color-11"><stop offset="0" stop-color="#ab996f"/><stop offset="1" stop-color="#786b4e"/></linearGradient><linearGradient x1="245.74551" y1="113.51053" x2="245.74551" y2="121.55389" gradientUnits="userSpaceOnUse" id="color-12"><stop offset="0" stop-color="#e7cf96"/><stop offset="1" stop-color="#e7cf96" stop-opacity="0"/></linearGradient><linearGradient x1="245.74551" y1="149.10351" x2="245.74551" y2="141.06015" gradientUnits="userSpaceOnUse" id="color-13"><stop offset="0" stop-color="#8a7c5a"/><stop offset="1" stop-color="#8a7c5a" stop-opacity="0"/></linearGradient></defs><g transform="translate(-106.99029,-113.51053)"><g data-paper-data="{&quot;isPaintingLayer&quot;:true}" fill-rule="nonzero" stroke="none" stroke-width="0" stroke-linecap="butt" stroke-linejoin="miter" stroke-miterlimit="10" stroke-dasharray="" stroke-dashoffset="0" style="mix-blend-mode: normal"><path d="" fill="#404040"/><path d="" fill="#404040"/><g><path d="M212.10933,197.93096c-0.01767,-2.15912 -0.06775,-4.31386 -0.13561,-6.4397c-0.06632,-2.07761 0.39579,-4.28346 -0.34254,-6.22658c-0.62228,-1.63771 -2.33991,-2.60808 -3.50987,-3.91212c-1.22658,-2.54511 -1.34882,-5.51807 -2.49613,-8.09989c-1.67737,-3.7746 -3.97096,-7.30452 -6.05212,-10.94227h105.50125c0.00078,0.27463 0.00152,0.49843 0.00152,0.65233c0,4.5045 -0.10125,9.01015 0,13.51351c0.05796,2.5779 -0.5189,5.29768 0.34254,7.72808c0.22363,0.63094 6.32456,6.98202 7.31051,7.76397c1.22852,0.97431 2.75637,1.52552 3.9839,2.50107c0.83472,0.66338 0.41696,2.34234 0.37505,3.02789c0.03726,0.13932 0.11487,0.28643 0.19334,0.4337z" fill="url(#color-1)"/><path d="M200.81606,162.31039h78.86787v35.62057l-67.5746,-0.00001c-0.01767,-2.15912 -0.06775,-4.31385 -0.13561,-6.4397c-0.06632,-2.07761 0.39579,-4.28346 -0.34254,-6.22658c-0.62228,-1.63771 -2.33991,-2.60808 -3.50987,-3.91212c-1.22658,-2.54511 -1.34882,-5.51807 -2.49613,-8.09989c-1.34833,-3.03416 -3.09483,-5.91022 -4.80911,-8.81127z" fill="url(#color-2)"/><path d="M204.07909,170.11245c-1.4502,-2.71311 -3.11017,-5.34655 -4.64368,-8.04336h105.63824c0.00097,0.38563 0.00217,0.69681 0.00217,0.89364c0,2.38309 -0.02834,4.7665 -0.04004,7.14972z" fill="url(#color-3)"/><path d="M212.10696,197.66206c-0.01949,-2.06909 -0.0682,-4.13321 -0.13324,-6.1708c-0.01967,-0.6163 0.00715,-1.24389 0.03535,-1.87255h98.30939c1.11277,1.13879 2.06873,2.07861 2.41042,2.34959c1.22852,0.97431 2.75637,1.52552 3.9839,2.50107c0.83472,0.66338 0.41696,2.34234 0.37505,3.02789c0.01442,0.05391 0.03488,0.10899 0.05909,0.16479z" data-paper-data="{&quot;index&quot;:null}" fill="url(#color-4)"/></g><g><path d="M183.82009,210.85394c1.11503,2.45826 2.36751,4.86121 3.63972,7.23214c1.31881,2.45776 3.20697,4.6055 4.33993,7.15428c1.42449,3.20461 1.92011,6.79221 3.50987,9.91813c0.83204,0.69796 2.05738,1.10043 2.49613,2.09388c0.37752,0.85483 -0.29866,1.84898 -0.34254,2.78243c-0.0705,1.49984 0,3.00301 0,4.5045c0,0.64506 0,1.29014 0,1.9352l-90.47292,0c0.57241,-0.9004 1.10695,-2.03799 1.68224,-3.63417c0.5397,-1.49744 -0.14296,-3.19759 0.0727,-4.77464c0.28416,-2.07793 3.13367,-2.9318 4.04078,-4.82275c1.54254,-3.21555 1.33952,-7.00592 2.0275,-10.50533c0.61063,-3.10599 2.47662,-5.88764 3.003,-9.00901c0.15794,-0.93654 -0.20694,-1.92786 -0.2572,-2.87465z" fill="url(#color-5)"/><path d="M124.17342,210.85394v35.62057h-17.18313c0.57241,-0.9004 1.10695,-2.03799 1.68224,-3.63418c0.5397,-1.49744 -0.14296,-3.19759 0.0727,-4.77464c0.28416,-2.07793 3.13367,-2.9318 4.04078,-4.82275c1.54254,-3.21555 1.33952,-7.00592 2.0275,-10.50533c0.61063,-3.10599 2.47662,-5.88764 3.003,-9.00901c0.15794,-0.93654 -0.20694,-1.92786 -0.2572,-2.87465z" fill="url(#color-6)"/><path d="M195.30555,246.4745v-11.32401c0.00135,0.00267 0.00271,0.00534 0.00406,0.008c0.83204,0.69796 2.05738,1.10043 2.49613,2.09388c0.37752,0.85483 -0.29866,1.84898 -0.34254,2.78243c-0.0705,1.49984 0,3.00301 0,4.5045c0,0.64506 0,1.29013 0,1.9352z" fill="url(#color-7)"/><path d="M183.71116,210.61263c1.14208,2.54239 2.43484,5.02499 3.74865,7.47344c0.10289,0.19174 0.20924,0.38161 0.31843,0.56992h-71.60389c0.66505,-1.61328 1.35414,-3.21948 1.64216,-4.9274c0.17142,-1.01645 -0.27301,-2.09742 -0.26267,-3.11596z" fill="url(#color-8)"/><path d="M197.89206,238.16225c-0.09466,0.6122 -0.39984,1.25563 -0.42884,1.87255c-0.0705,1.49984 0,3.00301 0,4.5045c0,0.55543 0,1.11087 0,1.6663h-90.30735c0.51092,-0.85649 0.99719,-1.92391 1.51667,-3.36527c0.5287,-1.46693 -0.11564,-3.12838 0.06062,-4.67808z" data-paper-data="{&quot;index&quot;:null}" fill="url(#color-9)"/></g><g><path d="M331.56637,149.3724c0.0014,-0.14579 0.00659,-0.2905 0.01697,-0.4337c-0.11592,-3.88738 0.40645,-5.57932 -2.62795,-8.98411c-2.19367,-2.46145 -5.25268,-3.99943 -7.69908,-6.20988c-0.63018,-0.56939 -1.79159,-0.72721 -2.02752,-1.5431c-0.39794,-1.37616 0.30094,-2.852 0.34254,-4.28393c0.1308,-4.5026 0,-9.00901 0,-13.51352c0,-0.21524 -0.01582,-0.43304 -0.04145,-0.65233h69.18884c0.14958,2.98273 0.45325,6.16745 -0.01121,8.94052c-0.5229,3.12195 -2.48443,5.88634 -3.00301,9.00901c-0.91175,5.49022 -0.47745,11.75352 -0.21175,17.67104z" fill="url(#color-10)"/><path d="M356.31158,149.3724v-35.62056h32.40713c0.14958,2.98273 0.45325,6.16745 -0.01121,8.94052c-0.5229,3.12195 -2.48443,5.88634 -3.00301,9.00901c-0.91175,5.49022 -0.47745,11.75352 -0.21175,17.67103z" fill="url(#color-11)"/><path d="M319.62305,121.55389c-0.01511,-2.38321 -0.05172,-4.76673 -0.05172,-7.14972c0,-0.29402 -0.02952,-0.59279 -0.07324,-0.89364h69.20886c0.12549,2.65245 0.39363,5.47907 0.1484,8.04336z" fill="url(#color-12)"/><path d="M331.57363,149.1035c0.00253,-0.05514 0.00574,-0.11007 0.0097,-0.1648c-0.10268,-3.44333 0.29544,-5.16413 -1.72108,-7.87856h55.30364c0.04389,2.68023 0.19383,5.39462 0.31468,8.04335z" data-paper-data="{&quot;index&quot;:null}" fill="url(#color-13)"/></g></g></g></svg>