<svg version="1.1" xmlns="http://www.w3.org/2000/svg" xmlns:xlink="http://www.w3.org/1999/xlink" width="28.59868" height="42.83322" viewBox="0,0,28.59868,42.83322"><defs><linearGradient x1="237.94365" y1="239.1641" x2="237.94365" y2="196.3309" gradientUnits="userSpaceOnUse" id="color-1"><stop offset="0" stop-color="#1a1a1a"/><stop offset="1" stop-color="#1a1a1a" stop-opacity="0"/></linearGradient><linearGradient x1="231.4224" y1="186.13107" x2="202.82372" y2="186.13107" gradientUnits="userSpaceOnUse" id="color-2"><stop offset="0" stop-color="#1a1a1a" stop-opacity="0"/><stop offset="1" stop-color="#1a1a1a"/></linearGradient></defs><g transform="translate(-225.70066,-160.60174)"><g data-paper-data="{&quot;isPaintingLayer&quot;:true}" fill-rule="nonzero" stroke="none" stroke-width="1" stroke-linecap="butt" stroke-linejoin="miter" stroke-miterlimit="10" stroke-dasharray="" stroke-dashoffset="0" style="mix-blend-mode: normal"><g data-paper-data="{&quot;index&quot;:null}"><g><path d="M254.29933,200.60114c0,1.56799 -1.26584,2.83382 -2.82861,2.83382c-5.15715,0 -17.78432,0 -22.93624,0c-1.56276,0 -2.83382,-1.26585 -2.83382,-2.83382c0,-5.15192 0,-32.01364 0,-37.17077c0,-1.56277 1.27105,-2.82862 2.83382,-2.82862c5.15192,0 17.77911,0 22.93624,0c1.56276,0 2.82861,1.26584 2.82861,2.82862c0,5.15715 0,32.01884 0,37.17077z" fill="#ffffff"/><path d="M254.29934,200.60113c0,1.56799 -1.26584,2.83382 -2.82861,2.83382c-5.15715,0 -17.78432,0 -22.93624,0c-1.56276,0 -2.83382,-1.26585 -2.83382,-2.83382c0,-5.15192 0,-32.01364 0,-37.17077c0,-1.56277 1.27105,-2.82862 2.83382,-2.82862c5.15192,0 17.77911,0 22.93624,0c1.56276,0 2.82861,1.26584 2.82861,2.82862c0,5.15715 0,32.01884 0,37.17077z" fill="url(#color-1)"/><path d="M254.29934,200.60113c0,1.56799 -1.26584,2.83382 -2.82861,2.83382c-5.15715,0 -17.78432,0 -22.93624,0c-1.56276,0 -2.83382,-1.26585 -2.83382,-2.83382c0,-5.15192 0,-32.01364 0,-37.17077c0,-1.56277 1.27105,-2.82862 2.83382,-2.82862c5.15192,0 17.77911,0 22.93624,0c1.56276,0 2.82861,1.26584 2.82861,2.82862c0,5.15715 0,32.01884 0,37.17077z" fill="url(#color-2)"/></g><g fill="none" font-family="sans-serif" font-weight="normal" font-size="12" text-anchor="start"><g/><g data-paper-data="{&quot;index&quot;:null}"/></g></g></g></g></svg>