<svg version="1.1" xmlns="http://www.w3.org/2000/svg" xmlns:xlink="http://www.w3.org/1999/xlink" width="278.27208" height="183.14268" viewBox="0,0,278.27208,183.14268"><defs><linearGradient x1="268.50537" y1="194.76309" x2="224.02094" y2="155.42009" gradientUnits="userSpaceOnUse" id="color-1"><stop offset="0" stop-color="#94583b"/><stop offset="1" stop-color="#cb7851"/></linearGradient><linearGradient x1="200.13517" y1="208.81709" x2="259.5215" y2="208.81709" gradientUnits="userSpaceOnUse" id="color-2"><stop offset="0" stop-color="#94583b"/><stop offset="1" stop-color="#cb7851"/></linearGradient><linearGradient x1="272.15283" y1="208.81709" x2="212.7665" y2="208.81709" gradientUnits="userSpaceOnUse" id="color-3"><stop offset="0" stop-color="#94583b"/><stop offset="1" stop-color="#cb7851"/></linearGradient><linearGradient x1="166.95307" y1="273.82533" x2="192.27048" y2="220.10602" gradientUnits="userSpaceOnUse" id="color-4"><stop offset="0" stop-color="#94583b"/><stop offset="1" stop-color="#cb7851"/></linearGradient><linearGradient x1="172.51024" y1="295.85334" x2="226.40846" y2="270.91906" gradientUnits="userSpaceOnUse" id="color-5"><stop offset="0" stop-color="#94583b"/><stop offset="1" stop-color="#cb7851"/></linearGradient></defs><g transform="translate(-67.33907,-92.94171)"><g data-paper-data="{&quot;isPaintingLayer&quot;:true}" fill-rule="nonzero" stroke="none" stroke-linecap="butt" stroke-linejoin="miter" stroke-miterlimit="10" stroke-dasharray="" stroke-dashoffset="0" style="mix-blend-mode: normal"><g><path d="M270.1222,186.30626c-5.08246,-4.67241 -11.3702,-14.09184 -11.3702,-14.09184c0,0 -1.29185,-7.48043 0.2489,-11.26023c1.71192,-0.03871 3.38693,-0.17329 4.99874,-0.43586c14.59132,-2.37697 22.93072,-4.57495 25.34464,-15.82927c0.18163,-0.8468 1.62476,-4.85431 2.54632,-11.07094c0.57464,-3.87642 2.68454,-18.18869 2.68454,-18.18869l-11.38138,-4.16855l-2.43123,-4.64229l14.23591,5.65824l2.77031,-19.33512l-0.16157,30.03599l6.40067,0.26329l-0.7885,2.2536l-5.27588,0.63152c0,0 -0.42461,8.27842 -0.13231,8.53693c0.25608,0.22649 2.56765,-2.22177 5.00104,-5.00307c1.45665,-1.66491 7.14245,-9.06088 7.14245,-9.06088l-7.35288,-14.45596l1.07758,-2.09245l10.05818,12.57307l16.75923,-19.00232l-5.90458,11.38099l16.69702,2.87252l-6.06932,1.73049l-12.97185,-0.04909c0,0 -9.8303,13.96841 -12.34134,18.82769c-3.49408,6.76164 -1.74368,8.98693 -1.74368,8.98693c0,0 2.63222,-0.71483 6.06764,-1.18154c2.32557,-0.31594 5.56316,-0.90765 9.0423,-1.53423c0.88563,-0.1595 13.03404,-21.09169 13.03404,-21.09169l3.43509,-1.59725l-8.4543,21.31221l7.69266,-0.90689l4.96588,2.36868c0,0 -11.05335,3.18566 -21.34739,5.75471c-1.56338,0.39017 23.01222,8.87247 23.01222,8.87247l-0.26941,3.37707c0,0 -19.27677,-7.09869 -26.73294,-9.72035c-1.73457,-0.60989 -5.0311,-0.48084 -6.30545,-0.17495c-1.75731,0.42182 -3.7646,1.02325 -5.18405,1.98836c-2.69282,1.8309 -3.57898,4.76726 -3.81797,5.53638c-3.05307,9.8252 -11.98613,14.84799 -20.45561,23.92482c-3.4149,3.65978 -7.96873,6.10504 -12.72353,8.00754z" data-paper-data="{&quot;index&quot;:null}" fill="url(#color-1)" stroke-width="NaN"/><path d="M212.74889,264.68776c1.26705,-2.82562 2.55188,-6.81423 2.55188,-11.37066c0,-9.09312 0,-20.44771 0,-29.33333c0,-8.4982 -12.95974,-20.81092 -14.7933,-34.45786c3.88583,-1.97721 7.31721,-5.45279 10.90383,-7.73439c0.73412,-0.467 1.68585,-0.50406 2.42795,-0.95828c2.07888,-1.27244 3.24734,-3.47876 4.27057,-5.77315c1.91164,3.36202 4.70035,6.94596 8.08738,11.09038c9.5,11.62437 30.16666,18.68567 30.16666,26.33334c0,10.70071 0,25.65142 0,37.5c0,6.0265 1.33657,11.25048 2.52513,14.70452c0.95154,2.76525 0.89379,4.77149 -0.61478,5.34843c-5.00563,1.91438 -16.55293,6.04764 -22.94188,6.04764c-6.68299,0 -18.37647,-4.34648 -23.03438,-6.18949c-1.25322,-0.49587 -0.7815,-2.45863 0.45096,-5.20711z" fill="url(#color-2)" stroke-width="NaN"/><path d="M259.99007,269.89487c-4.65791,1.84301 -16.35139,6.18949 -23.03438,6.18949c-6.38895,0 -17.93625,-4.13327 -22.94188,-6.04764c-1.50857,-0.57694 -1.56632,-2.58319 -0.61478,-5.34843c1.18856,-3.45404 2.52513,-8.67802 2.52513,-14.70452c0,-11.84858 0,-26.79929 0,-37.5c0,-7.64767 20.66666,-14.70897 30.16666,-26.33334c9.35518,-11.44716 14.14582,-18.61838 8.49811,-28.64785c-0.42495,-0.75464 -1.99889,-4.71259 -5.42705,-9.97981c-2.13766,-3.28441 -10.03897,-15.40306 -10.03897,-15.40306l-11.28707,4.41755l-4.89664,-1.86672l14.41222,-5.19278l-10.73422,-16.31863l19.77758,22.60605l4.96897,-4.04317l0.90235,2.21047l-3.53362,3.96828c0,0 5.16633,6.48241 5.55654,6.48241c0.34187,0 0.45144,-3.36531 0.43163,-7.0608c-0.01186,-2.21215 -0.65258,-11.51904 -0.65258,-11.51904l-15.08477,-5.95728l-0.57905,-2.28127l15.86383,2.75462l-0.03509,-25.3369l3.11689,12.43688l14.41024,-8.90993l-3.3999,5.31713l-9.74933,8.55698c0,0 1.8904,16.9758 3.2287,22.27927c1.86223,7.37973 4.64764,7.887 4.64764,7.887c0,0 1.49814,-2.27928 3.76232,-4.90482c1.53271,-1.77733 3.56589,-4.36544 5.75689,-7.1397c0.55773,-0.7062 -4.2097,-24.43408 -4.2097,-24.43408l1.51495,-3.47217l7.78633,21.56521l5.16153,-5.77565l5.28902,-1.51556c0,0 -6.16925,9.70904 -12.17821,18.45315c-0.9126,1.32799 23.11568,-8.59933 23.11568,-8.59933l2.03548,2.70813c0,0 -19.14245,7.45331 -26.46447,10.42917c-1.70336,0.69229 -4.08719,2.97287 -4.83912,4.04626c-1.03689,1.48017 -2.14205,3.2605 -2.56594,4.92381c-0.80415,3.15544 0.47738,5.94205 0.80789,6.67651c4.22217,9.38238 0.85826,19.06288 0.52736,31.47301c-0.39074,14.6543 -15,27.97717 -15,37c0,8.88562 0,20.24021 0,29.33333c0,4.55644 1.28483,8.54505 2.55188,11.37066c1.23247,2.74848 1.70419,4.71124 0.45096,5.20711z" data-paper-data="{&quot;index&quot;:null}" fill="url(#color-3)" stroke-width="NaN"/></g><g><path d="M147.27382,264.36761c-11.36694,-4.99133 -21.55776,-6.07539 -28.24484,-13.89452c-0.52347,-0.61208 -2.49782,-2.9593 -5.69497,-3.5771c-1.6853,-0.32566 -3.76688,-0.08495 -5.54786,0.22198c-1.29151,0.22257 -4.37074,1.40667 -5.72315,2.65235c-5.81339,5.35464 -20.71621,19.49294 -20.71621,19.49294l-1.58194,-2.99577c0,0 19.22367,-17.50316 17.63335,-17.2438c-10.47141,1.70778 -21.88401,3.14919 -21.88401,3.14919l3.62573,-4.1382l7.42495,-2.20672l-16.18788,-16.23693l3.78668,0.10987c0,0 19.43118,14.42809 20.30777,14.22465c3.44358,-0.79921 6.6515,-1.53501 8.91264,-2.16375c3.34025,-0.9288 6.04071,-1.31228 6.04071,-1.31228c0,0 0.7286,-2.73586 -5.15301,-7.5665c-4.22684,-3.47155 -18.7768,-12.41863 -18.7768,-12.41863l-11.89673,5.171l-6.25918,0.80868l14.20303,-9.23667l-9.9213,-8.12152l22.90413,10.8333l4.27126,-15.52435l1.81672,1.49634l-1.04211,16.18498c0,0 8.14562,4.54727 10.14162,5.50108c3.3344,1.59337 6.42528,2.92894 6.57102,2.6197c0.16636,-0.35298 -3.49496,-7.78987 -3.49496,-7.78987l-5.09604,1.50468l-1.61484,-1.75861l5.77571,-2.77112l-12.01732,-27.52763l10.18522,16.66681l10.84142,-10.82315l-0.39893,5.22519l-8.80787,8.32671c0,0 7.59375,12.31372 9.65342,15.64758c3.3031,5.34654 6.21236,8.45762 6.71382,9.16373c6.66468,9.3845 15.19391,8.10823 29.53698,4.5259c1.58438,-0.39572 3.17626,-0.93397 4.76414,-1.57489c2.90897,2.86334 1.89654,11.81149 1.89654,11.81149c0,0 0.7278,9.57141 -2.0947,15.87191c-5.11961,0.13121 -10.26908,-0.31555 -14.85224,-2.32806z" fill="url(#color-4)" stroke-width="NaN"/><path d="M150.75766,247.18229c-0.0084,-0.80535 -0.01531,-3.87252 -2.07001,-6.39871c-1.08308,-1.33162 -2.8336,-2.4834 -4.39615,-3.39143c-1.13312,-0.65848 -4.25419,-1.72742 -6.0908,-1.64055c-7.89483,0.37341 -28.39764,1.64616 -28.39764,1.64616l0.71032,-3.31249c0,0 25.97588,-1.07875 24.59004,-1.90084c-9.125,-5.41308 -18.80061,-11.63462 -18.80061,-11.63462l5.43656,-0.84517l7.10953,3.07475l-1.98772,-22.8415l2.83279,2.51522c0,0 5.63567,23.53678 6.43836,23.94354c3.15334,1.59795 6.08529,3.09322 8.22259,4.06277c3.1573,1.43226 5.474,2.87188 5.474,2.87188c0,0 2.31501,-1.62989 0.90665,-9.10952c-1.01212,-5.37526 -6.42397,-21.57598 -6.42397,-21.57598l-12.44114,-3.67279l-5.31818,-3.39825l16.81951,2.03617l-2.39297,-12.59622l10.60625,23.01017l13.24122,-9.16073l0.43229,2.31357l-11.18947,11.74032c0,0 3.32613,8.71582 4.24418,10.72852c1.53363,3.36229 3.04605,6.3706 3.35633,6.22706c0.35416,-0.16384 2.32131,-8.21634 2.32131,-8.21634l-4.87321,-2.11791l-0.10913,-2.38506l6.20735,1.58323l8.45836,-28.82087l-2.8906,19.31749l15.2606,-1.33831l-3.66035,3.75014l-12.09877,0.72974c0,0 -2.08291,14.31622 -2.64401,18.19463c-0.89984,6.21982 -0.66651,10.47285 -0.73534,11.33617c-0.27652,3.4684 0.20298,6.29929 1.374,8.73963c-0.10389,0.58045 -0.17305,1.17949 -0.20575,1.79679c-0.12412,2.34274 0.85481,5.15855 0.50379,7.44361c-0.20048,1.30508 -1.83258,1.92357 -2.5458,3.03476c-1.72784,2.69194 -3.06428,5.96159 -4.77672,8.83714c-5.0237,-8.90455 -10.40443,-15.64119 -10.49767,-24.57617z" fill="url(#color-5)" stroke-width="NaN"/></g></g></g></svg>