<svg version="1.1" xmlns="http://www.w3.org/2000/svg" xmlns:xlink="http://www.w3.org/1999/xlink" width="33.55209" height="259.3852" viewBox="0,0,33.55209,259.3852"><defs><linearGradient x1="246.24821" y1="78.26723" x2="252.8741" y2="79.00344" gradientUnits="userSpaceOnUse" id="color-1"><stop offset="0" stop-color="#f5d016"/><stop offset="1" stop-color="#f5d016" stop-opacity="0"/></linearGradient><linearGradient x1="242.90468" y1="78.33027" x2="252.18093" y2="78.33027" gradientUnits="userSpaceOnUse" id="color-2"><stop offset="0" stop-color="#ecf352"/><stop offset="1" stop-color="#ecf352" stop-opacity="0"/></linearGradient><linearGradient x1="227.90469" y1="78.26966" x2="237.18094" y2="78.26966" gradientUnits="userSpaceOnUse" id="color-3"><stop offset="0" stop-color="#ecf352" stop-opacity="0"/><stop offset="1" stop-color="#ecf352"/></linearGradient><linearGradient x1="233.50407" y1="77.9339" x2="226.87818" y2="78.67011" gradientUnits="userSpaceOnUse" id="color-4"><stop offset="0" stop-color="#f5d016"/><stop offset="1" stop-color="#f5d016" stop-opacity="0"/></linearGradient><linearGradient x1="240.4768" y1="50.70006" x2="240.4768" y2="60.43775" gradientUnits="userSpaceOnUse" id="color-5"><stop offset="0" stop-color="#58595b"/><stop offset="1" stop-color="#3c3c3e"/></linearGradient><linearGradient x1="240.6526" y1="58.92702" x2="240.6526" y2="65.94773" gradientUnits="userSpaceOnUse" id="color-6"><stop offset="0" stop-color="#58595b"/><stop offset="1" stop-color="#424244"/></linearGradient><linearGradient x1="240.36166" y1="90.31396" x2="240.36166" y2="258.34297" gradientUnits="userSpaceOnUse" id="color-7"><stop offset="0" stop-color="#58595b"/><stop offset="1" stop-color="#404044"/></linearGradient><linearGradient x1="240.36166" y1="90.31396" x2="240.36166" y2="258.34297" gradientUnits="userSpaceOnUse" id="color-8"><stop offset="0" stop-color="#58595b"/><stop offset="1" stop-color="#404044"/></linearGradient><linearGradient x1="240.37616" y1="256.34297" x2="240.37616" y2="309.29997" gradientUnits="userSpaceOnUse" id="color-9"><stop offset="0" stop-color="#4f4f4f"/><stop offset="1" stop-color="#404044"/></linearGradient><linearGradient x1="240.1" y1="207.35002" x2="240.1" y2="215.85002" gradientUnits="userSpaceOnUse" id="color-10"><stop offset="0" stop-color="#444448"/><stop offset="1" stop-color="#39393c"/></linearGradient><linearGradient x1="240.3" y1="225.55001" x2="240.3" y2="234.05001" gradientUnits="userSpaceOnUse" id="color-11"><stop offset="0" stop-color="#39393c"/><stop offset="1" stop-color="#343437"/></linearGradient><linearGradient x1="240.64277" y1="49.91476" x2="240.63507" y2="59.65245" gradientUnits="userSpaceOnUse" id="color-12"><stop offset="0" stop-color="#58595b"/><stop offset="1" stop-color="#3c3c3e"/></linearGradient><linearGradient x1="240.81206" y1="58.14186" x2="240.8065" y2="65.16258" gradientUnits="userSpaceOnUse" id="color-13"><stop offset="0" stop-color="#58595b"/><stop offset="1" stop-color="#424244"/></linearGradient><linearGradient x1="240.49628" y1="89.52856" x2="240.36327" y2="257.55751" gradientUnits="userSpaceOnUse" id="color-14"><stop offset="0" stop-color="#58595b"/><stop offset="1" stop-color="#404044"/></linearGradient><linearGradient x1="240.49628" y1="89.52856" x2="240.36327" y2="257.55751" gradientUnits="userSpaceOnUse" id="color-15"><stop offset="0" stop-color="#58595b"/><stop offset="1" stop-color="#404044"/></linearGradient><linearGradient x1="240.37936" y1="255.55752" x2="240.33743" y2="308.5145" gradientUnits="userSpaceOnUse" id="color-16"><stop offset="0" stop-color="#4f4f4f"/><stop offset="1" stop-color="#404044"/></linearGradient><linearGradient x1="240.14197" y1="206.56436" x2="240.13525" y2="215.06436" gradientUnits="userSpaceOnUse" id="color-17"><stop offset="0" stop-color="#444448"/><stop offset="1" stop-color="#39393c"/></linearGradient><linearGradient x1="240.32757" y1="224.76452" x2="240.32084" y2="233.26452" gradientUnits="userSpaceOnUse" id="color-18"><stop offset="0" stop-color="#39393c"/><stop offset="1" stop-color="#343437"/></linearGradient><linearGradient x1="240.625" y1="179.25" x2="240.625" y2="194.75" gradientUnits="userSpaceOnUse" id="color-19"><stop offset="0" stop-color="#4b4b4e"/><stop offset="1" stop-color="#49494c"/></linearGradient></defs><g transform="translate(-224.03046,-49.91477)"><g data-paper-data="{&quot;isPaintingLayer&quot;:true}" stroke-dasharray="" stroke-dashoffset="0" style="mix-blend-mode: normal"><g><g data-paper-data="{&quot;index&quot;:null}" fill="none" fill-rule="nonzero" stroke-linecap="round" stroke-linejoin="miter" stroke-miterlimit="10"><path d="M240.34945,178.9123c0,0 0.66664,0.3952 0.63065,0.76614c-0.03245,0.33456 -0.09258,0.95447 -0.09258,0.95447" stroke="#d0cc63" stroke-width="0.25"/><path d="M241.37017,178.27343l-0.2064,2.12777" stroke="#d0cc63" stroke-width="0.25"/><path d="M241.47166,181.71679l-0.29904,-1.84587c0,0 0.81486,5.26875 0.28537,5.79423c-0.40274,0.39968 2.5564,2.70542 2.01818,3.29651c-1.43942,1.58085 -3.51105,1.5906 -3.51105,1.5906" data-paper-data="{&quot;index&quot;:null}" stroke="#5997ff" stroke-width="1"/></g><g fill="none" fill-rule="nonzero" stroke-linecap="round" stroke-linejoin="miter" stroke-miterlimit="10"><path d="M238.45414,179.38347c0,0 0.11654,-0.61181 0.17943,-0.94201c0.06973,-0.3661 0.82057,-0.55799 0.82057,-0.55799" stroke="#d0cc63" stroke-width="0.25"/><path d="M238.65414,176.98348l-0.4,2.1" stroke="#d0cc63" stroke-width="0.25"/><path d="M240.9987,189.6312c0,0 -1.27584,-1.94686 -2.21289,-3.86856c-0.35037,-0.71855 -0.42291,-1.68358 -0.69707,-2.18035c-0.36044,-0.65312 0.30598,-5.01021 0.30598,-5.01021l-0.18544,1.3481" data-paper-data="{&quot;index&quot;:null}" stroke="#ff5a5a" stroke-width="1"/></g><g><g stroke="none" stroke-linecap="butt"><path d="" fill="#f5d016" fill-rule="evenodd" stroke-width="1" stroke-linejoin="round" stroke-miterlimit="2"/><path d="" fill="url(#color-1)" fill-rule="nonzero" stroke-width="0" stroke-linejoin="miter" stroke-miterlimit="10"/><path d="" fill="url(#color-2)" fill-rule="nonzero" stroke-width="0" stroke-linejoin="miter" stroke-miterlimit="10"/><path d="" data-paper-data="{&quot;index&quot;:null}" fill="url(#color-3)" fill-rule="nonzero" stroke-width="0" stroke-linejoin="miter" stroke-miterlimit="10"/><path d="" data-paper-data="{&quot;index&quot;:null}" fill="url(#color-4)" fill-rule="nonzero" stroke-width="0" stroke-linejoin="miter" stroke-miterlimit="10"/><path d="" fill="#ecf352" fill-rule="evenodd" stroke-width="1" stroke-linejoin="round" stroke-miterlimit="2"/></g><g fill-rule="evenodd" stroke="none" stroke-width="1" stroke-linecap="butt" stroke-linejoin="round" stroke-miterlimit="2"><g fill="url(#color-5)"><path d=""/></g><g fill="#323232"><path d=""/></g><g fill="url(#color-6)"><path d=""/></g></g><g stroke="none" stroke-width="1" stroke-linecap="butt"><path d="M246.35717,207.66196h0.52699c2.207,0 4,1.793 4,4c0,2.208 -1.793,4 -4,4h-0.52699v5.53804l-1.4,2.2l1.4,2.09995h0.52699c2.207,0 4,1.792 4,4c0,2.208 -1.793,4 -4,4h-0.52699v4.15245l-1.28572,2l1.28572,1.71429v13.99426c0,1.646 -1.336,2.982 -2.982,2.982h-5.965c-1.646,0 -2.982,-1.336 -2.982,-2.982v-4.13712l1.42857,-1.71429l-1.42857,-1.85715v-14.15245h-0.544c-2.208,0 -4,-1.792 -4,-4c0,-2.208 1.792,-4 4,-4h0.544v-6.49996l1.2,-1.8l-1.2,-1.53804h-0.544c-2.208,0 -4,-1.792 -4,-4c0,-2.207 1.792,-4 4,-4h0.544v-10.29526l2.85714,-2.85714l-2.85714,-2.71429v-10.64828l3.87184,2.05302c0,0 1.96884,2.58084 2.6771,1.68685c0.70826,-0.89398 1.98702,-5.62651 1.98702,-5.62651c0,0 0.49922,3.06817 1.11745,4.80101c0.89013,2.49498 2.02697,3.93865 2.2756,3.93865v8.22383l-2.28571,2.14286l2.28571,3.14286z" fill="url(#color-7)" fill-rule="nonzero" stroke-linejoin="miter" stroke-miterlimit="10"/><path d="" fill="url(#color-8)" fill-rule="nonzero" stroke-linejoin="miter" stroke-miterlimit="10"/><path d="M229.42716,260.34297h-0.534c-1.104,0 -2,-0.896 -2,-2c0,-1.103 0.896,-2 2,-2h23c1.103,0 2,0.897 2,2c0,1.104 -0.897,2 -2,2h-0.464l0.11753,5.1769l-1.79555,2.71289l1.90216,1.98276l0.77386,34.08545c1.356,0.027 2.449,1.136 2.449,2.499c0,1.38 -1.12,2.5 -2.5,2.5h-24c-1.38,0 -2.5,-1.12 -2.5,-2.5c0,-1.38 1.12,-2.5 2.5,-2.5h0.053l0.11549,-5.08648l3.50608,-3.27098l-3.35666,-3.31003z" fill="url(#color-9)" fill-rule="evenodd" stroke-linejoin="round" stroke-miterlimit="2"/></g><path d="M246.9,211.60002h-13.6" fill="none" fill-rule="nonzero" stroke="url(#color-10)" stroke-width="8.5" stroke-linecap="round" stroke-linejoin="miter" stroke-miterlimit="10"/><path d="M233.5,229.80001h13.6" fill="none" fill-rule="nonzero" stroke="url(#color-11)" stroke-width="8.5" stroke-linecap="round" stroke-linejoin="miter" stroke-miterlimit="10"/></g></g><g><g fill="none" fill-rule="nonzero" stroke-linecap="round" stroke-linejoin="miter" stroke-miterlimit="10"><g data-paper-data="{&quot;index&quot;:null}"><path d="M241.27769,187.78473c0,0 0.05965,0.61995 0.09183,0.95455c0.03569,0.37096 -0.63126,0.76564 -0.63126,0.76564" stroke="#d0cc63" stroke-width="0.25"/><path d="M241.75848,190.14457l-0.20471,-2.12793" stroke="#d0cc63" stroke-width="0.25"/><path d="M240.36314,177.86465c0,0 2.07162,0.01139 3.50979,1.59338c0.53775,0.59152 -2.42322,2.89492 -2.02079,3.29492c0.52907,0.52589 -0.28996,5.794 -0.28996,5.794l0.30051,-1.84563" data-paper-data="{&quot;index&quot;:null}" stroke="#5997ff" stroke-width="1"/></g><g data-paper-data="{&quot;index&quot;:null}"><path d="M239.84212,190.53302c0,0 -0.75068,-0.19249 -0.82013,-0.55864c-0.06263,-0.33024 -0.17869,-0.94216 -0.17869,-0.94216" stroke="#d0cc63" stroke-width="0.25"/><path d="M238.64308,189.33207l0.39834,2.10031" stroke="#d0cc63" stroke-width="0.25"/><path d="M238.59888,188.49534l0.18437,1.34824c0,0 -0.66297,-4.35763 -0.30201,-5.01045c0.27455,-0.49656 0.34786,-1.46153 0.69879,-2.1798c0.93857,-1.92096 2.21595,-3.86681 2.21595,-3.86681" data-paper-data="{&quot;index&quot;:null}" stroke="#ff5a5a" stroke-width="1"/></g></g><g><g fill-rule="evenodd" stroke="none" stroke-width="1" stroke-linecap="butt" stroke-linejoin="round" stroke-miterlimit="2"><path d="M249.37419,89.81359l-17.394,-0.01377l-0.53071,-3.27816l1.65325,-1.6451l-2.12718,-1.28227l-1.71265,-10.57874l1.1464,-2.02932l-1.76062,-1.76462l-0.64903,-4.00895l24.39399,0.01931l-1.9761,16.08751l-1.81028,1.61489l1.32235,2.35734z" fill="#a4a4a4"/><path d="M244.85006,89.81l-8.83765,-0.007l-0.147,-2.96118l1.52131,-1.15349l-1.7834,-4.12621l-0.45027,-9.07077l1.86495,2.73649l0.66276,1.81006l1.43938,-0.30792l3.25704,-2.64369l1.02531,2.50655l2.88436,-3.64306l-0.51482,6.04128l-1.43291,1.01857l1.07967,3.12653z" fill="#c4c4c4"/></g><g fill-rule="evenodd" stroke="none" stroke-width="1" stroke-linecap="butt" stroke-linejoin="round" stroke-miterlimit="2"><g fill="url(#color-12)"><path d="M240.13986,52.91437l0.00084,-1.061c-0.31786,-0.17725 -0.53259,-0.51642 -0.53229,-0.90542c0.00045,-0.571 0.46382,-1.03364 1.03382,-1.03318c0.571,0.00045 1.03364,0.46382 1.03318,1.03481c-0.0003,0.389 -0.21558,0.72783 -0.53471,0.90458l-0.00085,1.065c2.02399,0.0206 3.94492,0.09812 4.90582,0.22688c0.79491,0.10663 1.64127,0.9213 1.70062,1.73735c0.02911,0.40353 -2.41958,2.00003 -2.41958,2.00003c0,0 1.69084,2.21159 1.08613,2.36292c-2.23645,0.55923 -9.94542,0.52612 -12.082,-0.00956c-1.04579,-0.26183 -0.80335,-3.35463 -0.74068,-4.20458c0.05459,-0.73496 0.40241,-1.78668 1.1165,-1.89512c0.57358,-0.08659 2.4939,1.30804 2.4939,1.30804c0,0 1.97589,-1.53107 2.93928,-1.53074z"/></g><g fill="#323232"><path d="M246.62698,59.6505c0,0 -10.17143,0.11895 -12.35228,-0.28977c-0.63585,-0.1195 -0.67931,-1.60053 -0.72908,-2.13658c-0.05875,-0.62328 2.5922,0.69411 2.5922,0.69411l2.45853,-1.09049l2.0347,1.15099c0,0 -0.20555,-1.33642 1.36712,-1.66389c0.76143,-0.15855 2.63821,1.71332 2.63821,1.71332c0,0 2.89268,-1.21166 2.90837,-0.87595c0.02741,0.60903 -0.91776,2.49827 -0.91776,2.49827z"/></g><g fill="url(#color-13)"><path d="M250.56739,58.14958l1.90811,1.91113l-0.6636,1.9894l3.31153,0.66272l2.45913,2.46302l-33.55209,-0.02656l4.46194,-4.45488l3.11465,-0.55115l-0.58577,-1.97374c-0.27372,0.09941 19.5461,-0.01995 19.5461,-0.01995z"/></g></g><g stroke="none" stroke-width="1" stroke-linecap="butt"><path d="M237.99979,105.93959l-2.78678,-5.42349l0.71501,-2.61693l-2.8191,-1.47794l-3.54613,-6.90131l21.86699,0.01731l-1.84785,3.77593l-2.02009,1.06417l0.22312,2.60779l-4.38518,8.96075l-1.39371,2.66665l1.38944,2.73863l-0.01922,24.27356l-2.43078,1.81107l2.42735,2.51685l-0.00696,8.79123l0.097,0.00008c1.646,0.0013 2.98094,1.33836 2.97963,2.98436l-0.00346,4.36947l-2.45327,2.58438l2.44955,2.11926l-0.02223,28.08458c-0.73352,-0.00058 -3.97337,-3.25109 -3.97337,-3.25109l-2.58233,2.57924l-1.66271,-5.00132c0,0 -2.47337,3.33138 -3.70873,3.3304l0.00834,-10.5434l2.23258,-2.56268l-2.22844,-2.67174l0.01508,-19.04655c0.0013,-1.646 1.33836,-2.98094 2.98436,-2.97963l0.468,0.00037l0.01764,-22.30194l2.23216,-2.03191l-2.22905,-1.90034z" fill="url(#color-14)" fill-rule="nonzero" stroke-linejoin="miter" stroke-miterlimit="10"/><path d="" fill="url(#color-15)" fill-rule="nonzero" stroke-linejoin="miter" stroke-miterlimit="10"/><path d="" fill="url(#color-16)" fill-rule="evenodd" stroke-linejoin="round" stroke-miterlimit="2"/></g><path d="" fill="none" fill-rule="nonzero" stroke="url(#color-17)" stroke-width="8.5" stroke-linecap="round" stroke-linejoin="miter" stroke-miterlimit="10"/><path d="" fill="none" fill-rule="nonzero" stroke="url(#color-18)" stroke-width="8.5" stroke-linecap="round" stroke-linejoin="miter" stroke-miterlimit="10"/></g></g><path d="M237.125,194.75v-15.5h7v15.5z" fill="url(#color-19)" fill-rule="nonzero" stroke="none" stroke-width="none" stroke-linecap="butt" stroke-linejoin="miter" stroke-miterlimit="10"/></g></g></svg>