<svg version="1.1" xmlns="http://www.w3.org/2000/svg" xmlns:xlink="http://www.w3.org/1999/xlink" width="34.85729" height="258.5999" viewBox="0,0,34.85729,258.5999"><defs><linearGradient x1="246.24821" y1="78.26722" x2="252.8741" y2="79.00343" gradientUnits="userSpaceOnUse" id="color-1"><stop offset="0" stop-color="#f5d016"/><stop offset="1" stop-color="#f5d016" stop-opacity="0"/></linearGradient><linearGradient x1="242.90468" y1="78.33026" x2="252.18093" y2="78.33026" gradientUnits="userSpaceOnUse" id="color-2"><stop offset="0" stop-color="#ecf352"/><stop offset="1" stop-color="#ecf352" stop-opacity="0"/></linearGradient><linearGradient x1="227.90469" y1="78.26965" x2="237.18094" y2="78.26965" gradientUnits="userSpaceOnUse" id="color-3"><stop offset="0" stop-color="#ecf352" stop-opacity="0"/><stop offset="1" stop-color="#ecf352"/></linearGradient><linearGradient x1="233.50407" y1="77.93389" x2="226.87818" y2="78.6701" gradientUnits="userSpaceOnUse" id="color-4"><stop offset="0" stop-color="#f5d016"/><stop offset="1" stop-color="#f5d016" stop-opacity="0"/></linearGradient><linearGradient x1="240.4768" y1="50.70005" x2="240.4768" y2="60.43774" gradientUnits="userSpaceOnUse" id="color-5"><stop offset="0" stop-color="#58595b"/><stop offset="1" stop-color="#3c3c3e"/></linearGradient><linearGradient x1="240.6526" y1="58.92701" x2="240.6526" y2="65.94773" gradientUnits="userSpaceOnUse" id="color-6"><stop offset="0" stop-color="#58595b"/><stop offset="1" stop-color="#424244"/></linearGradient><linearGradient x1="240.36166" y1="90.31395" x2="240.36166" y2="258.34295" gradientUnits="userSpaceOnUse" id="color-7"><stop offset="0" stop-color="#58595b"/><stop offset="1" stop-color="#404044"/></linearGradient><linearGradient x1="240.37616" y1="256.34295" x2="240.37616" y2="309.29995" gradientUnits="userSpaceOnUse" id="color-8"><stop offset="0" stop-color="#4f4f4f"/><stop offset="1" stop-color="#404044"/></linearGradient><linearGradient x1="240.1" y1="207.35" x2="240.1" y2="215.85" gradientUnits="userSpaceOnUse" id="color-9"><stop offset="0" stop-color="#444448"/><stop offset="1" stop-color="#39393c"/></linearGradient><linearGradient x1="240.3" y1="225.55" x2="240.3" y2="234.05" gradientUnits="userSpaceOnUse" id="color-10"><stop offset="0" stop-color="#39393c"/><stop offset="1" stop-color="#343437"/></linearGradient></defs><g transform="translate(-222.57136,-50.70005)"><g data-paper-data="{&quot;isPaintingLayer&quot;:true}" stroke-dasharray="" stroke-dashoffset="0" style="mix-blend-mode: normal"><g><g stroke="none" stroke-linecap="butt"><path d="M249.23981,90.59195h-17.394l-4,-24.584h24.394z" fill="#f5d016" fill-rule="evenodd" stroke-width="1" stroke-linejoin="round" stroke-miterlimit="2"/><path d="M247.90468,90.52512l2.65035,-24.39866l6.6259,-0.08197l-2.65036,24.48958z" fill="url(#color-1)" fill-rule="nonzero" stroke-width="0" stroke-linejoin="miter" stroke-miterlimit="10"/><path d="M242.90468,90.52512l2.65035,-24.39866l6.6259,0.00894l-2.65036,24.39866z" fill="url(#color-2)" fill-rule="nonzero" stroke-width="0" stroke-linejoin="miter" stroke-miterlimit="10"/><path d="M230.55504,90.47345l-2.65035,-24.39866l6.53499,-0.00894l2.74126,24.39866z" data-paper-data="{&quot;index&quot;:null}" fill="url(#color-3)" fill-rule="nonzero" stroke-width="0" stroke-linejoin="miter" stroke-miterlimit="10"/><path d="M225.22171,90.29163l-2.65035,-24.21685l6.62589,0.08197l2.65035,24.21684z" data-paper-data="{&quot;index&quot;:null}" fill="url(#color-4)" fill-rule="nonzero" stroke-width="0" stroke-linejoin="miter" stroke-miterlimit="10"/><path d="M244.71567,90.59195h-8.83765l-2.03234,-24.584h12.39425z" fill="#ecf352" fill-rule="evenodd" stroke-width="1" stroke-linejoin="round" stroke-miterlimit="2"/></g><g fill-rule="evenodd" stroke="none" stroke-width="1" stroke-linecap="butt" stroke-linejoin="round" stroke-miterlimit="2"><g fill="url(#color-5)"><path d="M239.97626,53.70005v-1.061c-0.318,-0.177 -0.533,-0.516 -0.533,-0.905c0,-0.571 0.463,-1.034 1.033,-1.034c0.571,0 1.034,0.463 1.034,1.034c0,0.389 -0.215,0.728 -0.534,0.905v1.065c2.024,0.019 3.945,0.095 4.906,0.223c0.795,0.106 1.642,0.92 1.702,1.736c0.062,0.85 -0.179,4.075 -1.33,4.364c-2.236,0.561 -9.945,0.534 -12.082,0c-1.046,-0.261 -0.806,-3.354 -0.744,-4.204c0.054,-0.735 0.401,-1.787 1.115,-1.896c1.008,-0.153 3.198,-0.226 5.433,-0.227z"/></g><g fill="#323232"><path d="M246.46872,60.43105c0,0 -10.17133,0.127 -12.3525,-0.28c-0.63594,-0.119 -0.68057,-1.6 -0.73077,-2.136c-0.11064,-1.164 3.58879,-0.773 7.2501,-0.742c3.35914,0.029 6.69876,-0.398 6.74897,0.659c0.02789,0.609 -0.91579,2.499 -0.91579,2.499z"/></g><g fill="url(#color-6)"><path d="M250.40793,58.92701l7.02072,7.02072h-33.5521l6.9853,-6.9853c-0.27364,0.09963 19.54608,-0.03542 19.54608,-0.03542z"/></g></g><g fill-rule="evenodd" stroke="none" stroke-width="1" stroke-linecap="butt" stroke-linejoin="round" stroke-miterlimit="2"><path d="M237.87816,106.72695l-8.45,-16.413h21.867l-8.017,16.415v42.798h0.097c1.646,0 2.982,1.336 2.982,2.982v55.153h0.527c2.207,0 4,1.793 4,4c0,2.208 -1.793,4 -4,4h-0.527v9.838h0.527c2.207,0 4,1.792 4,4c0,2.208 -1.793,4 -4,4h-0.527v21.861c0,1.646 -1.336,2.982 -2.982,2.982h-5.965c-1.646,0 -2.982,-1.336 -2.982,-2.982v-21.861h-0.544c-2.208,0 -4,-1.792 -4,-4c0,-2.208 1.792,-4 4,-4h0.544v-9.838h-0.544c-2.208,0 -4,-1.792 -4,-4c0,-2.207 1.792,-4 4,-4h0.544v-55.153c0,-1.646 1.336,-2.982 2.982,-2.982h0.468z" fill="url(#color-7)"/><path d="M229.42716,260.34295h-0.534c-1.104,0 -2,-0.896 -2,-2c0,-1.103 0.896,-2 2,-2h23c1.103,0 2,0.897 2,2c0,1.104 -0.897,2 -2,2h-0.464l0.998,43.958c1.356,0.027 2.449,1.136 2.449,2.499c0,1.38 -1.12,2.5 -2.5,2.5h-24c-1.38,0 -2.5,-1.12 -2.5,-2.5c0,-1.38 1.12,-2.5 2.5,-2.5h0.053z" fill="url(#color-8)"/></g><path d="M233.3,211.6h13.6" fill="none" fill-rule="nonzero" stroke="url(#color-9)" stroke-width="8.5" stroke-linecap="round" stroke-linejoin="miter" stroke-miterlimit="10"/><path d="M233.5,229.8h13.6" fill="none" fill-rule="nonzero" stroke="url(#color-10)" stroke-width="8.5" stroke-linecap="round" stroke-linejoin="miter" stroke-miterlimit="10"/></g></g></g></svg>