<svg version="1.1" xmlns="http://www.w3.org/2000/svg" xmlns:xlink="http://www.w3.org/1999/xlink" width="95.23452" height="24.6976" viewBox="0,0,95.23452,24.6976"><defs><linearGradient x1="277.36213" y1="179.69801" x2="279.20828" y2="179.69801" gradientUnits="userSpaceOnUse" id="color-1"><stop offset="0" stop-color="#000000"/><stop offset="1" stop-color="#000000" stop-opacity="0"/></linearGradient><linearGradient x1="269.50881" y1="183.26871" x2="269.50881" y2="181.02686" gradientUnits="userSpaceOnUse" id="color-2"><stop offset="0" stop-color="#ffffff"/><stop offset="1" stop-color="#ffffff" stop-opacity="0"/></linearGradient><linearGradient x1="298.11757" y1="181.67792" x2="298.11757" y2="179.86757" gradientUnits="userSpaceOnUse" id="color-3"><stop offset="0" stop-color="#000000" stop-opacity="0"/><stop offset="1" stop-color="#000000"/></linearGradient><linearGradient x1="258.75783" y1="179.69801" x2="260.69171" y2="179.69801" gradientUnits="userSpaceOnUse" id="color-4"><stop offset="0" stop-color="#000000"/><stop offset="1" stop-color="#000000" stop-opacity="0"/></linearGradient><linearGradient x1="244.36346" y1="172.51642" x2="244.36346" y2="171.65928" gradientUnits="userSpaceOnUse" id="color-5"><stop offset="0" stop-color="#000000"/><stop offset="1" stop-color="#000000" stop-opacity="0"/></linearGradient><linearGradient x1="230.61237" y1="182.57732" x2="230.61237" y2="180.33547" gradientUnits="userSpaceOnUse" id="color-6"><stop offset="0" stop-color="#ffffff"/><stop offset="1" stop-color="#ffffff" stop-opacity="0"/></linearGradient><linearGradient x1="247.43365" y1="176.93241" x2="247.43365" y2="174.7149" gradientUnits="userSpaceOnUse" id="color-7"><stop offset="0" stop-color="#000000"/><stop offset="1" stop-color="#000000" stop-opacity="0"/></linearGradient><linearGradient x1="236.27999" y1="179.60085" x2="234.34608" y2="179.60085" gradientUnits="userSpaceOnUse" id="color-8"><stop offset="0" stop-color="#000000"/><stop offset="1" stop-color="#000000" stop-opacity="0"/></linearGradient><linearGradient x1="247.51841" y1="183.9059" x2="247.51841" y2="181.66405" gradientUnits="userSpaceOnUse" id="color-9"><stop offset="0" stop-color="#ffffff"/><stop offset="1" stop-color="#ffffff" stop-opacity="0"/></linearGradient><linearGradient x1="261.4245" y1="179.69801" x2="263.35839" y2="179.69801" gradientUnits="userSpaceOnUse" id="color-10"><stop offset="0" stop-color="#000000"/><stop offset="1" stop-color="#000000" stop-opacity="0"/></linearGradient><linearGradient x1="262.45362" y1="179.69801" x2="260.51972" y2="179.69801" gradientUnits="userSpaceOnUse" id="color-11"><stop offset="0" stop-color="#000000"/><stop offset="1" stop-color="#000000" stop-opacity="0"/></linearGradient><linearGradient x1="261.94187" y1="183.83405" x2="261.94187" y2="181.5922" gradientUnits="userSpaceOnUse" id="color-12"><stop offset="0" stop-color="#ffffff"/><stop offset="1" stop-color="#ffffff" stop-opacity="0"/></linearGradient><linearGradient x1="264.31589" y1="179.69802" x2="266.24978" y2="179.69802" gradientUnits="userSpaceOnUse" id="color-13"><stop offset="0" stop-color="#000000"/><stop offset="1" stop-color="#000000" stop-opacity="0"/></linearGradient><linearGradient x1="265.34501" y1="179.69802" x2="263.41112" y2="179.69802" gradientUnits="userSpaceOnUse" id="color-14"><stop offset="0" stop-color="#000000"/><stop offset="1" stop-color="#000000" stop-opacity="0"/></linearGradient><linearGradient x1="264.83326" y1="183.83405" x2="264.83326" y2="181.5922" gradientUnits="userSpaceOnUse" id="color-15"><stop offset="0" stop-color="#ffffff"/><stop offset="1" stop-color="#ffffff" stop-opacity="0"/></linearGradient><linearGradient x1="267.08104" y1="179.69802" x2="269.01494" y2="179.69802" gradientUnits="userSpaceOnUse" id="color-16"><stop offset="0" stop-color="#000000"/><stop offset="1" stop-color="#000000" stop-opacity="0"/></linearGradient><linearGradient x1="268.11018" y1="179.69802" x2="266.17628" y2="179.69802" gradientUnits="userSpaceOnUse" id="color-17"><stop offset="0" stop-color="#000000"/><stop offset="1" stop-color="#000000" stop-opacity="0"/></linearGradient><linearGradient x1="267.59841" y1="183.83405" x2="267.59841" y2="181.5922" gradientUnits="userSpaceOnUse" id="color-18"><stop offset="0" stop-color="#ffffff"/><stop offset="1" stop-color="#ffffff" stop-opacity="0"/></linearGradient><linearGradient x1="269.84622" y1="179.69802" x2="271.7801" y2="179.69802" gradientUnits="userSpaceOnUse" id="color-19"><stop offset="0" stop-color="#000000"/><stop offset="1" stop-color="#000000" stop-opacity="0"/></linearGradient><linearGradient x1="270.87535" y1="179.69802" x2="268.94144" y2="179.69802" gradientUnits="userSpaceOnUse" id="color-20"><stop offset="0" stop-color="#000000"/><stop offset="1" stop-color="#000000" stop-opacity="0"/></linearGradient><linearGradient x1="270.36359" y1="183.83405" x2="270.36359" y2="181.5922" gradientUnits="userSpaceOnUse" id="color-21"><stop offset="0" stop-color="#ffffff"/><stop offset="1" stop-color="#ffffff" stop-opacity="0"/></linearGradient><linearGradient x1="272.61138" y1="179.69802" x2="274.54526" y2="179.69802" gradientUnits="userSpaceOnUse" id="color-22"><stop offset="0" stop-color="#000000"/><stop offset="1" stop-color="#000000" stop-opacity="0"/></linearGradient><linearGradient x1="273.6405" y1="179.69802" x2="271.70661" y2="179.69802" gradientUnits="userSpaceOnUse" id="color-23"><stop offset="0" stop-color="#000000"/><stop offset="1" stop-color="#000000" stop-opacity="0"/></linearGradient><linearGradient x1="273.12874" y1="183.83405" x2="273.12874" y2="181.5922" gradientUnits="userSpaceOnUse" id="color-24"><stop offset="0" stop-color="#ffffff"/><stop offset="1" stop-color="#ffffff" stop-opacity="0"/></linearGradient><linearGradient x1="275.37654" y1="179.69802" x2="277.31043" y2="179.69802" gradientUnits="userSpaceOnUse" id="color-25"><stop offset="0" stop-color="#000000"/><stop offset="1" stop-color="#000000" stop-opacity="0"/></linearGradient><linearGradient x1="276.40567" y1="179.69802" x2="274.47177" y2="179.69802" gradientUnits="userSpaceOnUse" id="color-26"><stop offset="0" stop-color="#000000"/><stop offset="1" stop-color="#000000" stop-opacity="0"/></linearGradient><linearGradient x1="275.89391" y1="183.83405" x2="275.89391" y2="181.5922" gradientUnits="userSpaceOnUse" id="color-27"><stop offset="0" stop-color="#ffffff"/><stop offset="1" stop-color="#ffffff" stop-opacity="0"/></linearGradient><linearGradient x1="291.62209" y1="182.75442" x2="291.62209" y2="180.51257" gradientUnits="userSpaceOnUse" id="color-28"><stop offset="0" stop-color="#ffffff"/><stop offset="1" stop-color="#ffffff" stop-opacity="0"/></linearGradient><linearGradient x1="252.51877" y1="185.10922" x2="252.37497" y2="182.87199" gradientUnits="userSpaceOnUse" id="color-29"><stop offset="0" stop-color="#ffffff"/><stop offset="1" stop-color="#ffffff" stop-opacity="0"/></linearGradient><linearGradient x1="227.50661" y1="179.87154" x2="228.53773" y2="177.88088" gradientUnits="userSpaceOnUse" id="color-30"><stop offset="0" stop-color="#ffffff"/><stop offset="1" stop-color="#ffffff" stop-opacity="0"/></linearGradient><linearGradient x1="227.01817" y1="179.55619" x2="228.95207" y2="179.55619" gradientUnits="userSpaceOnUse" id="color-31"><stop offset="0" stop-color="#000000"/><stop offset="1" stop-color="#000000" stop-opacity="0"/></linearGradient><linearGradient x1="218.90918" y1="184.40264" x2="218.90918" y2="182.02928" gradientUnits="userSpaceOnUse" id="color-32"><stop offset="0" stop-color="#ffffff"/><stop offset="1" stop-color="#ffffff" stop-opacity="0"/></linearGradient></defs><g transform="translate(-209.23459,-160.80415)"><g data-paper-data="{&quot;isPaintingLayer&quot;:true}" fill-rule="nonzero" stroke-linejoin="miter" stroke-miterlimit="10" stroke-dasharray="" stroke-dashoffset="0" style="mix-blend-mode: normal"><path d="M257.90031,181.076l0.2661,2.04011l-18.62256,1.1385l-1.60114,-0.8724l-0.0887,-2.30621z" fill="#777777" stroke="none" stroke-width="NaN" stroke-linecap="butt"/><path d="M236.29145,178.25949v2.68863h-10.10274v-2.68863z" fill="#cfcfcf" stroke="none" stroke-width="NaN" stroke-linecap="butt"/><path d="M243.87887,171.41278c0,0 0.3245,-0.90934 0.67128,-1.13001c0.29013,-0.18463 0.67886,-0.03806 0.67886,-0.03806c0,0 -0.36069,0.75911 -0.39216,1.29412c-0.03148,0.535 0.56862,1.35294 0.56862,1.35294h-1.70588l0.17927,-1.47899z" fill="#303030" stroke="none" stroke-width="0" stroke-linecap="butt"/><path d="M270.13134,178.35184c0,0 30.39887,0 33.46074,0c0.48714,0 0.84695,0.54494 0.84695,0.89467c0,0.1496 0,0.65039 0,0.88889c0,0.55182 -0.48166,0.90875 -0.95806,0.90875c-0.45226,0 -2.96833,0.0341 -2.96833,0.0341c0,0 0.02065,3.2521 0.03533,4.10332c0.00506,0.29327 -0.1649,0.32213 -0.34216,0.32009c-0.10307,-0.00118 -0.20752,-0.00238 -0.28009,-0.00321c-0.17469,-0.002 -0.61892,-0.16847 -0.8193,-0.42959c-0.71533,-0.93214 -2.95229,-3.96725 -2.95229,-3.96725l-26.02277,-0.05745v-2.69231z" fill="#3a3a3a" stroke="none" stroke-width="0" stroke-linecap="butt"/><path d="M279.20828,178.35185v2.69231h-1.84615v-2.69231z" fill="url(#color-1)" stroke="none" stroke-width="0" stroke-linecap="butt"/><path d="M278.72744,177.79275v3.81052h-18.57675v-3.81052z" fill="#3a3a3a" stroke="none" stroke-width="0" stroke-linecap="butt"/><path d="M278.76112,179.37648v2.24185h-18.50462v-2.24185z" fill="url(#color-2)" stroke="none" stroke-width="0" stroke-linecap="butt"/><path d="M300.44517,181.07447v1.81034h-3.01724l-1.29311,-1.81034z" fill="url(#color-3)" stroke="none" stroke-width="0" stroke-linecap="butt"/><path d="M260.69172,177.79275v3.81052h-1.93389v-3.81052z" fill="url(#color-4)" stroke="none" stroke-width="0" stroke-linecap="butt"/><path d="M245.17299,171.65928v0.85714h-1.61905v-0.85714z" fill="url(#color-5)" stroke="none" stroke-width="0" stroke-linecap="butt"/><path d="M237.29363,170.91095c0,0 -2.27151,-6.84357 -2.53175,-7.65598c-0.55617,-1.73621 0.81628,-2.02776 0.81628,-2.02776l2.48638,-0.03037c0,0 1.40201,-0.17212 1.69219,0.71644c1.29372,3.96154 3.60077,10.05314 3.60077,10.05314h5.30536l1.44286,0.04762c0,0 0.59408,-1.1178 0.8485,-1.59651c0.20797,-0.39131 1.23846,-0.82453 1.80694,-0.61947c1.25165,0.4515 6.01123,2.16837 6.01123,2.16837l-0.00548,3.2892l1.50548,1.91556v5.0619h-25.48453c0,0 0,-2.47251 0,-3.40329c0,-0.64745 0.40971,-2.14746 0.62006,-2.40455c0.21795,-0.26639 0.66567,-0.81359 0.66567,-0.81359l0.33333,-3.64524z" fill="#303030" stroke="none" stroke-width="0" stroke-linecap="butt"/><path d="M234.97855,178.68509v2.24186h-8.73236v-2.24186z" fill="url(#color-6)" stroke="none" stroke-width="0" stroke-linecap="butt"/><path d="M258.69861,174.7149v2.21751h-22.52991v-2.21751z" fill="url(#color-7)" stroke="none" stroke-width="0" stroke-linecap="butt"/><path d="M236.27998,178.27935v2.64301h-1.9339v-2.64301z" data-paper-data="{&quot;index&quot;:null}" fill="url(#color-8)" stroke="none" stroke-width="0" stroke-linecap="butt"/><g fill="none" stroke="#303030" stroke-width="0.5"><g><path d="M244.14323,172.2069c-0.7824,0 -1.41666,-0.63425 -1.41666,-1.41666c0,-0.78241 0.63425,-1.41667 1.41666,-1.41667" stroke-linecap="butt"/><path d="M247.68489,169.37357h-3.6007" stroke-linecap="round"/></g><g data-paper-data="{&quot;index&quot;:null}"><path d="M247.6849,169.37357c0.7824,0 1.41666,0.63426 1.41666,1.41667c0,0.7824 -0.63425,1.41666 -1.41666,1.41666" stroke-linecap="butt"/><path d="M244.14321,172.2069h3.6007" stroke-linecap="round"/></g></g><path d="M258.7669,175.25563l1.50548,1.91556v5.0619h-25.48452c0,0 0,-3.25494 0,-4.13655c0,-0.41429 0.43114,-1.42227 0.6724,-1.707c0.28117,-0.33184 0.91331,-1.07787 0.91331,-1.07787z" fill="#3a3a3a" stroke="none" stroke-width="0" stroke-linecap="butt"/><g fill="none" stroke-width="3" stroke-linecap="round"><path d="M249.22867,178.57968h-0.0187h6.02906h-0.01673" stroke="#242424"/><path d="M255.2223,179.22139h0.01673h-6.02906h0.0187" stroke="#303030"/></g><path d="M260.30398,180.01367v2.24186h-25.57115v-2.24186z" fill="url(#color-9)" stroke="none" stroke-width="0" stroke-linecap="butt"/><g stroke="none" stroke-width="0" stroke-linecap="butt"><g><path d="M263.35839,177.79275v3.81052h-1.93389v-3.81052z" fill="url(#color-10)"/><path d="M262.45362,177.79275v3.81052h-1.9339v-3.81052z" data-paper-data="{&quot;index&quot;:null}" fill="url(#color-11)"/><path d="M262.8822,177.1856v5.02481h-1.9339v-5.02481z" fill="#3a3a3a"/></g><path d="M262.89619,179.94182v2.24185h-1.9701v-2.24185z" fill="url(#color-12)"/></g><g stroke="none" stroke-width="0" stroke-linecap="butt"><g><path d="M266.24978,177.79276v3.81052h-1.93389v-3.81052z" fill="url(#color-13)"/><path d="M265.34502,177.79276v3.81052h-1.9339v-3.81052z" data-paper-data="{&quot;index&quot;:null}" fill="url(#color-14)"/><path d="M265.77359,177.18561v5.02481h-1.9339v-5.02481z" fill="#3a3a3a"/></g><path d="M265.78759,179.94182v2.24186h-1.9701v-2.24186z" fill="url(#color-15)"/></g><g stroke="none" stroke-width="0" stroke-linecap="butt"><g><path d="M269.01493,177.79276v3.81052h-1.93389v-3.81052z" fill="url(#color-16)"/><path d="M268.11018,177.79276v3.81052h-1.9339v-3.81052z" data-paper-data="{&quot;index&quot;:null}" fill="url(#color-17)"/><path d="M268.53875,177.18561v5.02481h-1.9339v-5.02481z" fill="#3a3a3a"/></g><path d="M268.55275,179.94182v2.24186h-1.9701v-2.24186z" fill="url(#color-18)"/></g><g stroke="none" stroke-width="0" stroke-linecap="butt"><g><path d="M271.78011,177.79276v3.81052h-1.93389v-3.81052z" fill="url(#color-19)"/><path d="M270.87534,177.79276v3.81052h-1.9339v-3.81052z" data-paper-data="{&quot;index&quot;:null}" fill="url(#color-20)"/><path d="M271.30392,177.18561v5.02481h-1.9339v-5.02481z" fill="#3a3a3a"/></g><path d="M271.3179,179.94182v2.24186h-1.9701v-2.24186z" fill="url(#color-21)"/></g><g stroke="none" stroke-width="0" stroke-linecap="butt"><g><path d="M274.54527,177.79276v3.81052h-1.93389v-3.81052z" fill="url(#color-22)"/><path d="M273.64051,177.79276v3.81052h-1.9339v-3.81052z" data-paper-data="{&quot;index&quot;:null}" fill="url(#color-23)"/><path d="M274.06908,177.18561v5.02481h-1.9339v-5.02481z" fill="#3a3a3a"/></g><path d="M274.08308,179.94182v2.24186h-1.9701v-2.24186z" fill="url(#color-24)"/></g><g stroke="none" stroke-width="0" stroke-linecap="butt"><g><path d="M277.31043,177.79276v3.81052h-1.93389v-3.81052z" fill="url(#color-25)"/><path d="M276.40567,177.79276v3.81052h-1.9339v-3.81052z" data-paper-data="{&quot;index&quot;:null}" fill="url(#color-26)"/><path d="M276.83425,177.18561v5.02481h-1.9339v-5.02481z" fill="#3a3a3a"/></g><path d="M276.84823,179.94182v2.24186h-1.9701v-2.24186z" fill="url(#color-27)"/></g><path d="M304.46911,178.86219c0,0 0,0.68133 0,1.04066c0,0.2256 -0.15388,0.6592 -0.48002,0.92956c-0.23194,0.19229 -0.58137,0.27164 -0.88779,0.27164c-3.11314,0 -24.38768,0 -24.38768,0v-2.24186z" fill="url(#color-28)" stroke="none" stroke-width="0" stroke-linecap="butt"/><path d="M233.99696,162.97709c-0.09057,-0.25846 -0.06302,-0.73179 0.06192,-0.97548c0.08623,-0.16818 0.17724,-0.3457 0.23858,-0.46534c0.13375,-0.26087 0.81386,-0.73563 1.19036,-0.7321c0.60366,0.00566 2.44802,0.02294 3.50223,0.03282c0.45305,0.00425 0.91077,0.43691 1.04677,0.82502c0.25464,0.72664 1.12787,3.21854 1.53539,4.38148c0.13001,0.37103 0.01303,0.66148 -0.31053,0.75014c-1.22601,0.33596 -4.23169,1.15958 -4.90141,1.3431c-0.25867,0.07089 -0.59102,-0.10213 -0.72432,-0.48253c-0.44044,-1.25686 -1.41437,-4.03613 -1.63898,-4.6771z" fill="#1e1e1e" stroke="none" stroke-width="0" stroke-linecap="butt"/><path d="M257.82759,180.8784l0.33695,2.20848l-18.51088,1.19544l0.12231,-2.23724z" fill="url(#color-29)" stroke="none" stroke-width="0" stroke-linecap="butt"/><path d="M237.94078,181.16832l1.75572,0.84331l0.01083,2.27504l-1.85046,-0.82128z" data-paper-data="{&quot;index&quot;:null}" fill="url(#color-30)" stroke="none" stroke-width="0" stroke-linecap="butt"/><path d="M228.95207,178.23469v2.643h-1.9339v-2.643z" data-paper-data="{&quot;index&quot;:null}" fill="url(#color-31)" stroke="none" stroke-width="0" stroke-linecap="butt"/><g stroke="none" stroke-width="0" stroke-linecap="butt"><path d="M209.23459,172.47693c0,-0.46839 0.56488,-0.75614 1.20197,-0.57896c2.14219,0.59575 14.16041,3.9381 17.32597,4.81846c0.48679,0.13538 0.76424,0.53222 0.76424,1.01162c0,1.20956 0,3.43584 0,4.10958c0,0.37957 -0.49828,0.79908 -1.33062,0.79908c-3.80383,0 -14.58453,0 -16.66661,0c-0.6807,0 -1.29494,-0.53825 -1.29494,-1.36986c0,-2.49206 0,-7.61854 0,-8.78993z" fill="#3a3a3a"/><path d="M228.46935,180.28208c0,0 0,1.07356 0,1.5005c0,0.34789 -0.41612,0.87287 -1.12218,0.87287c-3.55479,0 -14.75592,0 -16.91021,0c-0.72149,0 -1.08794,-0.71618 -1.08794,-1.09537c0,-0.40958 0,-1.27799 0,-1.27799z" fill="url(#color-32)"/></g></g></g></svg>