<svg version="1.1" xmlns="http://www.w3.org/2000/svg" xmlns:xlink="http://www.w3.org/1999/xlink" width="11.34374" height="13.59374" viewBox="0,0,11.34374,13.59374"><g transform="translate(-234.32813,-173.20313)"><g data-paper-data="{&quot;isPaintingLayer&quot;:true}" fill="#ff0000" fill-rule="nonzero" stroke="none" stroke-width="1" stroke-linecap="square" stroke-linejoin="miter" stroke-miterlimit="10" stroke-dasharray="" stroke-dashoffset="0" style="mix-blend-mode: normal"><path d="M243.79686,179.64061c0.60416,0.35416 1.06771,0.78646 1.39063,1.29688c0.32291,0.51041 0.48438,1.09375 0.48438,1.75c0,0.82291 -0.23959,1.54688 -0.71875,2.17188c-0.46875,0.61459 -1.13541,1.09375 -2,1.4375c-0.85416,0.33334 -1.83854,0.5 -2.95312,0.5c-1.125,0 -2.11459,-0.16666 -2.96875,-0.5c-0.85416,-0.34375 -1.52084,-0.82291 -2,-1.4375c-0.46875,-0.625 -0.70312,-1.34896 -0.70312,-2.17187c0,-0.65625 0.16146,-1.23959 0.48438,-1.75c0.32291,-0.51041 0.78125,-0.94271 1.375,-1.29687c-0.44791,-0.30209 -0.79166,-0.67709 -1.03125,-1.125c-0.23959,-0.44791 -0.35937,-0.94792 -0.35937,-1.5c0,-0.76042 0.21354,-1.42709 0.64063,-2c0.4375,-0.58333 1.05209,-1.03125 1.84375,-1.34375c0.79166,-0.3125 1.69791,-0.46875 2.71875,-0.46875c1.02084,0 1.92188,0.15625 2.70313,0.46875c0.79166,0.3125 1.40625,0.76042 1.84375,1.34375c0.4375,0.57292 0.65625,1.23958 0.65625,2c0,0.55208 -0.125,1.05209 -0.375,1.5c-0.23959,0.44791 -0.58334,0.82291 -1.03125,1.125zM239.99999,175.79686c-0.45834,0 -0.83334,0.125 -1.125,0.375c-0.28125,0.23959 -0.42187,0.57813 -0.42187,1.01563c0,0.41667 0.13541,0.75 0.40625,1c0.28125,0.23959 0.66146,0.35938 1.14063,0.35938c0.46875,0 0.84375,-0.11979 1.125,-0.35937c0.29166,-0.25 0.4375,-0.58333 0.4375,-1c0,-0.4375 -0.14584,-0.77604 -0.4375,-1.01563c-0.28125,-0.25 -0.65625,-0.375 -1.125,-0.375zM239.99999,184.20311c0.59375,0 1.06771,-0.14584 1.42188,-0.4375c0.35416,-0.29166 0.53125,-0.6875 0.53125,-1.1875c0,-0.5 -0.17709,-0.89584 -0.53125,-1.1875c-0.35416,-0.29166 -0.82812,-0.4375 -1.42187,-0.4375c-0.60416,0 -1.08334,0.14584 -1.4375,0.4375c-0.35416,0.29166 -0.53125,0.6875 -0.53125,1.1875c0,0.5 0.17709,0.89584 0.53125,1.1875c0.35416,0.29166 0.83334,0.4375 1.4375,0.4375z"/></g></g></svg>