<svg version="1.1" xmlns="http://www.w3.org/2000/svg" xmlns:xlink="http://www.w3.org/1999/xlink" width="67.37384" height="94.49541" viewBox="0,0,67.37384,94.49541"><defs><linearGradient x1="233.1441" y1="116.96457" x2="233.1441" y2="159.79776" gradientUnits="userSpaceOnUse" id="color-1"><stop offset="0" stop-color="#1a1a1a"/><stop offset="1" stop-color="#1a1a1a" stop-opacity="0"/></linearGradient><linearGradient x1="226.62285" y1="169.9976" x2="198.02417" y2="169.9976" gradientUnits="userSpaceOnUse" id="color-2"><stop offset="0" stop-color="#1a1a1a" stop-opacity="0"/><stop offset="1" stop-color="#1a1a1a"/></linearGradient><linearGradient x1="232.23178" y1="210.15619" x2="231.34757" y2="204.03592" gradientUnits="userSpaceOnUse" id="color-3"><stop offset="0" stop-color="#000000"/><stop offset="1" stop-color="#151515"/></linearGradient><linearGradient x1="231.11943" y1="209.87062" x2="230.68154" y2="206.83961" gradientUnits="userSpaceOnUse" id="color-4"><stop offset="0" stop-color="#292929"/><stop offset="1" stop-color="#313131"/></linearGradient><linearGradient x1="222.41126" y1="211.37663" x2="221.52705" y2="205.25633" gradientUnits="userSpaceOnUse" id="color-5"><stop offset="0" stop-color="#000000"/><stop offset="1" stop-color="#151515"/></linearGradient><linearGradient x1="223.39729" y1="210.78789" x2="222.9594" y2="207.7569" gradientUnits="userSpaceOnUse" id="color-6"><stop offset="0" stop-color="#292929"/><stop offset="1" stop-color="#313131"/></linearGradient><linearGradient x1="162.52368" y1="214.10191" x2="217.61113" y2="206.14331" gradientUnits="userSpaceOnUse" id="color-7"><stop offset="0" stop-color="#1a1a1a"/><stop offset="1" stop-color="#1a1a1a" stop-opacity="0"/></linearGradient><linearGradient x1="162.52368" y1="214.10191" x2="217.61113" y2="206.14331" gradientUnits="userSpaceOnUse" id="color-8"><stop offset="0" stop-color="#1a1a1a"/><stop offset="1" stop-color="#1a1a1a" stop-opacity="0"/></linearGradient><linearGradient x1="229.51738" y1="195.86123" x2="224.20363" y2="159.08071" gradientUnits="userSpaceOnUse" id="color-9"><stop offset="0" stop-color="#1a1a1a" stop-opacity="0"/><stop offset="1" stop-color="#1a1a1a"/></linearGradient><linearGradient x1="229.51738" y1="195.86123" x2="224.20363" y2="159.08071" gradientUnits="userSpaceOnUse" id="color-10"><stop offset="0" stop-color="#1a1a1a" stop-opacity="0"/><stop offset="1" stop-color="#1a1a1a"/></linearGradient><linearGradient x1="240.4" y1="209.20691" x2="239.39704" y2="202.26469" gradientUnits="userSpaceOnUse" id="color-11"><stop offset="0" stop-color="#000000"/><stop offset="1" stop-color="#151515"/></linearGradient><linearGradient x1="241.51846" y1="208.53911" x2="241.02175" y2="205.10105" gradientUnits="userSpaceOnUse" id="color-12"><stop offset="0" stop-color="#292929"/><stop offset="1" stop-color="#313131"/></linearGradient></defs><g transform="translate(-206.68808,-132.37729)"><g data-paper-data="{&quot;isPaintingLayer&quot;:true}" fill-rule="nonzero" stroke-linejoin="miter" stroke-miterlimit="10" stroke-dasharray="" stroke-dashoffset="0" style="mix-blend-mode: normal"><g><g data-paper-data="{&quot;index&quot;:null}" fill="none" stroke="#000000" stroke-width="1.5" stroke-linecap="round"><path d="M230.59529,142.99872c0,0.90373 0.24424,2.05806 0.05188,3.2673c-0.09173,0.57662 -0.45848,1.16573 -0.58899,1.74611c-0.63096,2.80596 -1.33338,5.40784 -1.33338,5.40784"/><path d="M229.90595,133.1273c0.82754,3.31646 0.70817,10.56408 0.70817,10.56408"/></g><g data-paper-data="{&quot;index&quot;:null}" fill="none" stroke="#000000" stroke-width="1.5" stroke-linecap="round"><path d="M243.39528,142.99871c0,3.41815 -1.87048,10.42126 -1.87048,10.42126"/><path d="M242.70595,133.12729c0.19462,0.77997 0.33687,1.77738 0.44061,2.8468c0.06995,0.72106 -0.5026,1.47485 0.03659,2.21682c1.66994,2.29796 0.23097,5.50047 0.23097,5.50047"/></g><g data-paper-data="{&quot;index&quot;:null}" fill="none" stroke="#000000" stroke-width="1.5" stroke-linecap="round"><path d="M249.21472,183.58385c0,0 1.80952,-2.39538 4.21723,-4.81323c0.67514,-0.67798 1.62766,-1.12739 2.31983,-1.80693c1.47787,-1.45091 2.7132,-2.81123 3.88984,-3.67904"/><path d="M259.44573,173.3599c0,0 9.35652,-3.8972 13.86619,-4.74576"/></g><g data-paper-data="{&quot;index&quot;:null}" stroke="none" stroke-width="1" stroke-linecap="butt"><g><path d="M249.49978,176.54498l-1.5,1.375l1.5,1.25c0,0 0,11.77736 0,13.52832c0,1.56278 -1.26585,2.82862 -2.82861,2.82862c-5.15713,0 -17.78432,0 -22.93624,0c-1.56277,0 -2.83382,-1.26585 -2.83382,-2.82862c0,-5.15713 0,-32.01885 0,-37.17077c0,-1.56797 1.27106,-2.83382 2.83382,-2.83382c5.15192,0 17.77909,0 22.93624,0c1.56277,0 2.82861,1.26583 2.82861,2.83382c0,2.78374 0,21.01745 0,21.01745z" fill="#ffffff"/><path d="M249.49979,176.54498l-1.625,1.375l1.625,1.375c0,0 0,11.91742 0,13.40332c0,1.56278 -1.26585,2.82862 -2.82861,2.82862c-5.15713,0 -17.78432,0 -22.93624,0c-1.56277,0 -2.83382,-1.26585 -2.83382,-2.82862c0,-3.7407 0,-33.15332 0,-33.15332l1.5,-1.25l-1.5,-1.125c0,0 0,-1.03752 0,-1.64245c0,-1.56797 1.27106,-2.83382 2.83382,-2.83382c5.15192,0 17.77909,0 22.93624,0c1.56277,0 2.82861,1.26583 2.82861,2.83382c0,2.95968 0,21.01745 0,21.01745z" fill="url(#color-1)"/><path d="M249.49979,176.29498l-1.5,1.625l1.5,1.375c0,0 0,11.74993 0,13.40332c0,1.56278 -1.26585,2.82862 -2.82861,2.82862c-5.15713,0 -17.78432,0 -22.93624,0c-1.56277,0 -2.83382,-1.26585 -2.83382,-2.82862c0,-4.30403 0,-33.02832 0,-33.02832l1.375,-1.375l-1.375,-1.375c0,0 0,-1.1177 0,-1.39245c0,-1.56797 1.27106,-2.83382 2.83382,-2.83382c5.15192,0 17.77909,0 22.93624,0c1.56277,0 2.82861,1.26583 2.82861,2.83382c0,2.8107 0,20.76745 0,20.76745z" fill="url(#color-2)"/></g><g fill="none" font-family="sans-serif" font-weight="normal" font-size="12" text-anchor="start"><g/><g data-paper-data="{&quot;index&quot;:null}"/></g></g><g data-paper-data="{&quot;index&quot;:null}" fill="none" stroke="#000000" stroke-width="1.5" stroke-linecap="round"><path d="M220.55261,183.08122c0,0 5.92279,-8.22515 9.31754,-11.31268"/><path d="M229.70452,171.88286c0,0 1.32544,-0.71934 3.20627,-1.67803c1.22379,-0.62379 2.80771,-0.97391 4.28964,-1.66813c2.14507,-1.00488 4.21334,-2.32002 5.81148,-2.79442"/></g><g data-paper-data="{&quot;index&quot;:null}"><g data-paper-data="{&quot;index&quot;:null}" fill="#d6c3c8" stroke-width="0"><g stroke="none" stroke-linecap="butt"><path d="M216.11238,225.81306c-1.77192,0.25599 -3.41449,-0.97188 -3.67048,-2.74378c-0.84476,-5.84727 -2.91316,-20.16421 -3.75707,-26.00556c-0.25599,-1.7719 0.97104,-3.42039 2.74294,-3.67638c5.84726,-0.84477 36.30359,-5.24485 42.14494,-6.08876c1.7778,-0.25684 3.42125,0.97695 3.67724,2.74885c0.48767,3.37558 1.38425,9.58149 2.21731,15.34772c-1.99348,0.43583 -3.34662,2.3305 -3.0837,4.37878c-1.93211,0.50045 -3.21887,2.38561 -2.92686,4.40683c0.10832,0.74979 0.41972,1.42013 0.87044,1.96337c-1.86425,0.54657 -3.09123,2.39475 -2.80538,4.3733c0.00854,0.05907 0.01833,0.11765 0.02936,0.17572c-11.1107,1.60518 -30.85057,4.45704 -35.43874,5.1199z"/><path d=""/><path d="M251.55112,220.69316c-11.11071,1.60518 -30.8506,4.45704 -35.43875,5.1199c-1.77191,0.25599 -3.41449,-0.97189 -3.67048,-2.74379c-0.84476,-5.84727 -2.91316,-20.1642 -3.75707,-26.00556c-0.25599,-1.7719 0.97104,-3.42039 2.74295,-3.67638c5.84726,-0.84477 36.30358,-5.24485 42.14494,-6.08876c1.7778,-0.25684 3.42125,0.97695 3.67724,2.74885c0.48767,3.37558 1.38425,9.58149 2.21731,15.34772c-1.99348,0.43583 -3.34662,2.3305 -3.0837,4.37878c-1.93211,0.50045 -3.21887,2.38561 -2.92686,4.40683c0.10832,0.74979 0.41972,1.42013 0.87044,1.96337c-1.86425,0.54657 -3.09123,2.39475 -2.80538,4.3733c0.00854,0.05908 0.01833,0.11766 0.02936,0.17573z"/><path d=""/><path d="M251.55112,220.69316c-11.11071,1.60518 -30.8506,4.45704 -35.43875,5.1199c-1.77191,0.25599 -3.41449,-0.97189 -3.67048,-2.74379c-0.84476,-5.84727 -2.91316,-20.1642 -3.75707,-26.00556c-0.25599,-1.7719 0.97104,-3.42039 2.74295,-3.67638c5.84726,-0.84477 36.30358,-5.24485 42.14494,-6.08876c1.7778,-0.25684 3.42125,0.97695 3.67724,2.74885c0.48767,3.37558 1.38425,9.58149 2.21731,15.34772c-1.99348,0.43583 -3.34662,2.3305 -3.0837,4.37878c-1.93211,0.50045 -3.21887,2.38561 -2.92686,4.40683c0.10832,0.74979 0.41972,1.42013 0.87044,1.96337c-1.86425,0.54657 -3.09123,2.39475 -2.80538,4.3733c0.00854,0.05908 0.01833,0.11766 0.02936,0.17573z"/><path d=""/></g><g stroke-linecap="round"><g><path d="M232.23178,210.15619l-0.88421,-6.12028" stroke="url(#color-3)"/><path d="M230.68154,206.83961l0.43789,3.03099" stroke="url(#color-4)"/></g><g data-paper-data="{&quot;index&quot;:null}"><path d="M222.41126,211.37663l-0.88421,-6.12028" stroke="url(#color-5)"/><path d="M223.39729,210.78789l-0.43789,-3.03099" stroke="url(#color-6)"/></g></g></g><g><g stroke="none" stroke-width="1" stroke-linecap="butt"><path d="M266.07548,216.90178c0.29036,2.00986 -1.10242,3.87304 -3.1123,4.16341c-3.0213,0.43649 -26.83249,3.87654 -26.83249,3.87654l-2.23683,-1.49553l-1.92002,2.09608c0,0 -6.3951,0.92391 -9.20885,1.33042c-0.00665,-0.06671 -0.0148,-0.13359 -0.02448,-0.2006c-0.32423,-2.24427 -2.25243,-3.86102 -4.45606,-3.85713c0.31594,-0.7357 0.4395,-1.56494 0.31663,-2.41543c-0.33122,-2.29267 -2.33634,-3.93046 -4.59899,-3.85461c-0.37156,-2.31278 -2.45194,-3.9396 -4.76061,-3.77375c-0.94494,-6.54064 -1.96193,-13.58001 -2.5151,-17.40893c-0.29037,-2.00987 1.10147,-3.87975 3.11802,-4.17109c6.62585,-0.95725 41.17247,-5.94826 47.80502,-6.90648c2.00988,-0.29037 3.87403,1.10911 4.1644,3.11898c0.95725,6.62585 3.30343,22.86557 4.26165,29.49812z" fill="#ffffff"/><path d="" fill="#ffffff"/><path d="M262.96318,221.06521c-2.84629,0.41121 -26.8325,3.87654 -26.8325,3.87654l-2.52056,-2.06077l-2.03217,2.71851c0,0 -5.6292,0.81326 -8.81296,1.27322c-0.00665,-0.06672 -0.0148,-0.1336 -0.02448,-0.20061c-0.32423,-2.24427 -2.25243,-3.86102 -4.45606,-3.85713c0.31594,-0.7357 0.4395,-1.56494 0.31663,-2.41543c-0.33122,-2.29267 -2.33634,-3.93046 -4.59899,-3.85461c-0.37156,-2.31278 -2.45194,-3.9396 -4.76061,-3.77375c-0.94494,-6.54064 -1.96193,-13.58001 -2.5151,-17.40893c-0.29037,-2.00987 1.10147,-3.87975 3.11802,-4.17109c6.62586,-0.95725 41.17248,-5.94826 47.80503,-6.90648c2.00989,-0.29037 3.87403,1.10911 4.1644,3.11898c0.95725,6.62586 3.30343,22.86557 4.26165,29.49812c0.29037,2.00986 -1.10241,3.87305 -3.11229,4.16342z" fill="url(#color-7)"/><path d="" fill="url(#color-8)"/><path d="M262.96317,221.06519c-3.58856,0.51845 -26.43661,3.81935 -26.43661,3.81935l-2.91645,-2.00357l-2.23011,2.74711c0,0 -6.59932,0.95342 -8.61501,1.24463c-0.00665,-0.06672 -0.0148,-0.1336 -0.02448,-0.20061c-0.32423,-2.24427 -2.25243,-3.86102 -4.45606,-3.85713c0.31594,-0.7357 0.4395,-1.56494 0.31663,-2.41543c-0.33122,-2.29267 -2.33634,-3.93046 -4.59899,-3.85461c-0.37156,-2.31278 -2.45194,-3.9396 -4.76061,-3.77375c-0.94494,-6.54064 -1.96193,-13.58001 -2.5151,-17.40893c-0.29037,-2.00987 1.10147,-3.87975 3.11802,-4.17109c6.62586,-0.95725 41.17248,-5.94826 47.80503,-6.90648c2.00989,-0.29037 3.87403,1.10911 4.1644,3.11898c0.95725,6.62586 3.30343,22.86557 4.26165,29.49812c0.29037,2.00986 -1.10241,3.87305 -3.11229,4.16342z" fill="url(#color-9)"/><path d="" fill="url(#color-10)"/></g><g fill="none" stroke-linecap="round"><g><path d="M239.39704,202.26469l1.00296,6.94223" stroke="url(#color-11)" stroke-width="5"/><path d="M241.51845,208.53911l-0.4967,-3.43806" stroke="url(#color-12)" stroke-width="2.5"/></g><g data-paper-data="{&quot;index&quot;:null}"><path d="M251.47573,207.3818l-1.00296,-6.94223" stroke="#adadad" stroke-width="5"/><path d="M249.71729,203.6198l0.4967,3.43806" stroke="#c5c5c5" stroke-width="2.5"/></g></g></g><path d="M235.29475,212.39136l6.27202,-0.58834l5.45459,-3.79456l9.83558,-4.65419l1.20109,8.31369l-24.14928,3.48889l-0.88652,-6.13629z" fill="#ffffff" stroke="none" stroke-width="0" stroke-linecap="butt"/></g></g></g></g></svg>