<svg version="1.1" xmlns="http://www.w3.org/2000/svg" xmlns:xlink="http://www.w3.org/1999/xlink" width="91.24985" height="98.70034" viewBox="0,0,91.24985,98.70034"><defs><linearGradient x1="237.94365" y1="273.69863" x2="237.94365" y2="230.86545" gradientUnits="userSpaceOnUse" id="color-1"><stop offset="0" stop-color="#1a1a1a"/><stop offset="1" stop-color="#1a1a1a" stop-opacity="0"/></linearGradient><linearGradient x1="231.4224" y1="220.66561" x2="202.82372" y2="220.66561" gradientUnits="userSpaceOnUse" id="color-2"><stop offset="0" stop-color="#1a1a1a" stop-opacity="0"/><stop offset="1" stop-color="#1a1a1a"/></linearGradient><linearGradient x1="269.10862" y1="223.77064" x2="270.82042" y2="224.46201" gradientUnits="userSpaceOnUse" id="color-3"><stop offset="0" stop-color="#000000"/><stop offset="1" stop-color="#000000" stop-opacity="0"/></linearGradient><linearGradient x1="263.16397" y1="217.51879" x2="262.32442" y2="219.5975" gradientUnits="userSpaceOnUse" id="color-4"><stop offset="0" stop-color="#ffffff"/><stop offset="1" stop-color="#ffffff" stop-opacity="0"/></linearGradient><linearGradient x1="289.09515" y1="229.70755" x2="288.41719" y2="231.38616" gradientUnits="userSpaceOnUse" id="color-5"><stop offset="0" stop-color="#000000" stop-opacity="0"/><stop offset="1" stop-color="#000000"/></linearGradient><linearGradient x1="245.46714" y1="222.26085" x2="245.23866" y2="224.97212" gradientUnits="userSpaceOnUse" id="color-6"><stop offset="0" stop-color="#000000"/><stop offset="1" stop-color="#000000" stop-opacity="0"/></linearGradient><linearGradient x1="251.85814" y1="216.80349" x2="253.6513" y2="217.52771" gradientUnits="userSpaceOnUse" id="color-7"><stop offset="0" stop-color="#000000"/><stop offset="1" stop-color="#000000" stop-opacity="0"/></linearGradient><linearGradient x1="235.8218" y1="218.07191" x2="235.50081" y2="218.86669" gradientUnits="userSpaceOnUse" id="color-8"><stop offset="0" stop-color="#000000"/><stop offset="1" stop-color="#000000" stop-opacity="0"/></linearGradient><linearGradient x1="226.83909" y1="203.59348" x2="225.99954" y2="205.67219" gradientUnits="userSpaceOnUse" id="color-9"><stop offset="0" stop-color="#ffffff"/><stop offset="1" stop-color="#ffffff" stop-opacity="0"/></linearGradient><linearGradient x1="240.32232" y1="215.12704" x2="239.49188" y2="217.18318" gradientUnits="userSpaceOnUse" id="color-10"><stop offset="0" stop-color="#000000"/><stop offset="1" stop-color="#000000" stop-opacity="0"/></linearGradient><linearGradient x1="230.97962" y1="208.47583" x2="229.18644" y2="207.7516" gradientUnits="userSpaceOnUse" id="color-11"><stop offset="0" stop-color="#000000"/><stop offset="1" stop-color="#000000" stop-opacity="0"/></linearGradient><linearGradient x1="243.01243" y1="208.69275" x2="242.17287" y2="210.77146" gradientUnits="userSpaceOnUse" id="color-12"><stop offset="0" stop-color="#ffffff"/><stop offset="1" stop-color="#ffffff" stop-opacity="0"/></linearGradient><linearGradient x1="254.33076" y1="217.80213" x2="256.12392" y2="218.52636" gradientUnits="userSpaceOnUse" id="color-13"><stop offset="0" stop-color="#000000"/><stop offset="1" stop-color="#000000" stop-opacity="0"/></linearGradient><linearGradient x1="255.28499" y1="218.18753" x2="253.49182" y2="217.4633" gradientUnits="userSpaceOnUse" id="color-14"><stop offset="0" stop-color="#000000"/><stop offset="1" stop-color="#000000" stop-opacity="0"/></linearGradient><linearGradient x1="256.35939" y1="214.16083" x2="255.51984" y2="216.23954" gradientUnits="userSpaceOnUse" id="color-15"><stop offset="0" stop-color="#ffffff"/><stop offset="1" stop-color="#ffffff" stop-opacity="0"/></linearGradient><linearGradient x1="257.01175" y1="218.88493" x2="258.80491" y2="219.60915" gradientUnits="userSpaceOnUse" id="color-16"><stop offset="0" stop-color="#000000"/><stop offset="1" stop-color="#000000" stop-opacity="0"/></linearGradient><linearGradient x1="257.96598" y1="219.27032" x2="256.17282" y2="218.5461" gradientUnits="userSpaceOnUse" id="color-17"><stop offset="0" stop-color="#000000"/><stop offset="1" stop-color="#000000" stop-opacity="0"/></linearGradient><linearGradient x1="259.04037" y1="215.24363" x2="258.20082" y2="217.32234" gradientUnits="userSpaceOnUse" id="color-18"><stop offset="0" stop-color="#ffffff"/><stop offset="1" stop-color="#ffffff" stop-opacity="0"/></linearGradient><linearGradient x1="259.57568" y1="219.92045" x2="261.36885" y2="220.64468" gradientUnits="userSpaceOnUse" id="color-19"><stop offset="0" stop-color="#000000"/><stop offset="1" stop-color="#000000" stop-opacity="0"/></linearGradient><linearGradient x1="260.52993" y1="220.30585" x2="258.73676" y2="219.58163" gradientUnits="userSpaceOnUse" id="color-20"><stop offset="0" stop-color="#000000"/><stop offset="1" stop-color="#000000" stop-opacity="0"/></linearGradient><linearGradient x1="261.6043" y1="216.27916" x2="260.76475" y2="218.35787" gradientUnits="userSpaceOnUse" id="color-21"><stop offset="0" stop-color="#ffffff"/><stop offset="1" stop-color="#ffffff" stop-opacity="0"/></linearGradient><linearGradient x1="262.13964" y1="220.95599" x2="263.93279" y2="221.68021" gradientUnits="userSpaceOnUse" id="color-22"><stop offset="0" stop-color="#000000"/><stop offset="1" stop-color="#000000" stop-opacity="0"/></linearGradient><linearGradient x1="263.09388" y1="221.34139" x2="261.3007" y2="220.61715" gradientUnits="userSpaceOnUse" id="color-23"><stop offset="0" stop-color="#000000"/><stop offset="1" stop-color="#000000" stop-opacity="0"/></linearGradient><linearGradient x1="264.16826" y1="217.31469" x2="263.32871" y2="219.39341" gradientUnits="userSpaceOnUse" id="color-24"><stop offset="0" stop-color="#ffffff"/><stop offset="1" stop-color="#ffffff" stop-opacity="0"/></linearGradient><linearGradient x1="264.70358" y1="221.99151" x2="266.49673" y2="222.71574" gradientUnits="userSpaceOnUse" id="color-25"><stop offset="0" stop-color="#000000"/><stop offset="1" stop-color="#000000" stop-opacity="0"/></linearGradient><linearGradient x1="265.65781" y1="222.37691" x2="263.86465" y2="221.65269" gradientUnits="userSpaceOnUse" id="color-26"><stop offset="0" stop-color="#000000"/><stop offset="1" stop-color="#000000" stop-opacity="0"/></linearGradient><linearGradient x1="266.7322" y1="218.35022" x2="265.89264" y2="220.42893" gradientUnits="userSpaceOnUse" id="color-27"><stop offset="0" stop-color="#ffffff"/><stop offset="1" stop-color="#ffffff" stop-opacity="0"/></linearGradient><linearGradient x1="267.26752" y1="223.02704" x2="269.06068" y2="223.75127" gradientUnits="userSpaceOnUse" id="color-28"><stop offset="0" stop-color="#000000"/><stop offset="1" stop-color="#000000" stop-opacity="0"/></linearGradient><linearGradient x1="268.22176" y1="223.41244" x2="266.42859" y2="222.68821" gradientUnits="userSpaceOnUse" id="color-29"><stop offset="0" stop-color="#000000"/><stop offset="1" stop-color="#000000" stop-opacity="0"/></linearGradient><linearGradient x1="269.29614" y1="219.38575" x2="268.45659" y2="221.46446" gradientUnits="userSpaceOnUse" id="color-30"><stop offset="0" stop-color="#ffffff"/><stop offset="1" stop-color="#ffffff" stop-opacity="0"/></linearGradient><linearGradient x1="283.47548" y1="226.27687" x2="282.63593" y2="228.35559" gradientUnits="userSpaceOnUse" id="color-31"><stop offset="0" stop-color="#ffffff"/><stop offset="1" stop-color="#ffffff" stop-opacity="0"/></linearGradient><linearGradient x1="248.09954" y1="209.44959" x2="247.12839" y2="211.47015" gradientUnits="userSpaceOnUse" id="color-32"><stop offset="0" stop-color="#ffffff"/><stop offset="1" stop-color="#ffffff" stop-opacity="0"/></linearGradient><linearGradient x1="222.94604" y1="204.93929" x2="223.15664" y2="207.17123" gradientUnits="userSpaceOnUse" id="color-33"><stop offset="0" stop-color="#ffffff"/><stop offset="1" stop-color="#ffffff" stop-opacity="0"/></linearGradient><linearGradient x1="222.37505" y1="205.04876" x2="224.16823" y2="205.77299" gradientUnits="userSpaceOnUse" id="color-34"><stop offset="0" stop-color="#000000"/><stop offset="1" stop-color="#000000" stop-opacity="0"/></linearGradient><linearGradient x1="216.6711" y1="197.51825" x2="215.7823" y2="199.7189" gradientUnits="userSpaceOnUse" id="color-35"><stop offset="0" stop-color="#ffffff"/><stop offset="1" stop-color="#ffffff" stop-opacity="0"/></linearGradient><linearGradient x1="165.94323" y1="173.92187" x2="221.21647" y2="180.46669" gradientUnits="userSpaceOnUse" id="color-36"><stop offset="0" stop-color="#1a1a1a"/><stop offset="1" stop-color="#1a1a1a" stop-opacity="0"/></linearGradient><linearGradient x1="233.38221" y1="190.44041" x2="229.01239" y2="227.34497" gradientUnits="userSpaceOnUse" id="color-37"><stop offset="0" stop-color="#1a1a1a" stop-opacity="0"/><stop offset="1" stop-color="#1a1a1a"/></linearGradient><linearGradient x1="243.91938" y1="176.82032" x2="243.09459" y2="183.78597" gradientUnits="userSpaceOnUse" id="color-38"><stop offset="0" stop-color="#000000"/><stop offset="1" stop-color="#151515"/></linearGradient><linearGradient x1="245.05457" y1="177.45929" x2="244.64611" y2="180.90894" gradientUnits="userSpaceOnUse" id="color-39"><stop offset="0" stop-color="#292929"/><stop offset="1" stop-color="#313131"/></linearGradient><linearGradient x1="255.03823" y1="178.36112" x2="254.21344" y2="185.32678" gradientUnits="userSpaceOnUse" id="color-40"><stop offset="0" stop-color="#000000"/><stop offset="1" stop-color="#151515"/></linearGradient><linearGradient x1="253.78521" y1="178.7173" x2="253.37674" y2="182.16695" gradientUnits="userSpaceOnUse" id="color-41"><stop offset="0" stop-color="#292929"/><stop offset="1" stop-color="#313131"/></linearGradient></defs><g transform="translate(-203.19421,-158.68229)"><g data-paper-data="{&quot;isPaintingLayer&quot;:true}" fill-rule="nonzero" stroke-linejoin="miter" stroke-miterlimit="10" stroke-dasharray="" stroke-dashoffset="0" style="mix-blend-mode: normal"><g><g fill="none" stroke="#000000" stroke-width="1.5" stroke-linecap="round"><path d="M241.39922,235.72579c0,0 6.80483,2.49731 9.60115,4.4631"/><path d="M251.41382,240.37208c0,0 3.04588,6.5776 3.63316,9.94492"/></g><g fill="none" stroke="#000000" stroke-width="1.5" stroke-linecap="round"><path d="M233.95762,236.12839c0,0 1.87048,7.00311 1.87048,10.42126"/><path d="M235.83789,246.04541c0,0 0.67883,7.21675 0.10992,10.58722"/></g><g stroke="none" stroke-width="1" stroke-linecap="butt"><g><path d="M254.29933,235.13569c0,1.56799 -1.26584,2.83382 -2.82861,2.83382c-5.15715,0 -17.78432,0 -22.93624,0c-1.56276,0 -2.83382,-1.26585 -2.83382,-2.83382c0,-5.15192 0,-32.01364 0,-37.17077c0,-1.56277 1.27105,-2.82862 2.83382,-2.82862c5.15192,0 17.77911,0 22.93624,0c1.56276,0 2.82861,1.26584 2.82861,2.82862c0,5.15715 0,32.01884 0,37.17077z" fill="#ffffff"/><path d="M254.29934,235.13568c0,1.56799 -1.26584,2.83382 -2.82861,2.83382c-5.15715,0 -17.78432,0 -22.93624,0c-1.56276,0 -2.83382,-1.26585 -2.83382,-2.83382c0,-5.15192 0,-32.01364 0,-37.17077c0,-1.56277 1.27105,-2.82862 2.83382,-2.82862c5.15192,0 17.77911,0 22.93624,0c1.56276,0 2.82861,1.26584 2.82861,2.82862c0,5.15715 0,32.01884 0,37.17077z" fill="url(#color-1)"/><path d="M254.29934,235.13568c0,1.56799 -1.26584,2.83382 -2.82861,2.83382c-5.15715,0 -17.78432,0 -22.93624,0c-1.56276,0 -2.83382,-1.26585 -2.83382,-2.83382c0,-5.15192 0,-32.01364 0,-37.17077c0,-1.56277 1.27105,-2.82862 2.83382,-2.82862c5.15192,0 17.77911,0 22.93624,0c1.56276,0 2.82861,1.26584 2.82861,2.82862c0,5.15715 0,32.01884 0,37.17077z" fill="url(#color-2)"/></g><g fill="none" font-family="sans-serif" font-weight="normal" font-size="12" text-anchor="start"><g/><g data-paper-data="{&quot;index&quot;:null}"/></g></g><g><g fill="none" stroke="#000000" stroke-width="1.5" stroke-linecap="round"><path d="M257.0988,219.55861c-2.08988,-4.08529 -4.73646,-13.86937 -4.73646,-13.86937"/><path d="M270.10147,225.54501c-4.3665,-1.41097 -13.1563,-6.45794 -13.1563,-6.45794"/></g><g><path d="M232.99153,207.69749l0.9459,-2.10517l1.81133,-0.2093l16.84105,8.02964l-1.01074,1.792z" fill="#777777" stroke="none" stroke-width="NaN" stroke-linecap="butt"/><path d="M240.89321,233.05583c0.14702,-1.82385 0.95817,-11.88695 0.95817,-11.88695l7.32836,0.59071c0,0 -0.8147,10.10717 -0.95351,11.82925c-0.03878,0.4811 -0.40488,0.89662 -0.91866,0.8552c-1.53972,-0.12412 -4.72583,-0.38093 -5.59725,-0.45117c-0.43123,-0.03476 -0.86219,-0.37768 -0.81711,-0.93704z" fill="#737373" stroke="none" stroke-width="0" stroke-linecap="butt"/><path d="M221.12035,205.94049l1.00687,-2.49298l9.36757,3.78339l-1.00687,2.49298z" fill="#cfcfcf" stroke="none" stroke-width="NaN" stroke-linecap="butt"/><path d="M234.95916,218.91377l0.38764,-1.4385l1.58174,0.63884c0,0 -0.86274,0.53369 -1.03391,1.04154c-0.17118,0.50786 -0.12101,1.34681 -0.12101,1.34681c0,0 -0.41533,-0.00967 -0.61521,-0.28952c-0.23891,-0.33448 -0.19925,-1.29917 -0.19925,-1.29917z" fill="#303030" stroke="none" stroke-width="0" stroke-linecap="butt"/><path d="M261.8999,222.31098l1.00825,-2.49639l24.15062,9.69203c0,0 3.2108,-1.97652 4.22315,-2.57295c0.28359,-0.16708 0.75783,-0.15507 0.92056,-0.09151c0.0676,0.02641 0.1649,0.06441 0.26091,0.10191c0.16512,0.06449 0.31191,0.1549 0.19739,0.42493c-0.33239,0.78378 -1.56942,3.79149 -1.56942,3.79149c0,0 2.32021,0.97386 2.73956,1.14323c0.44173,0.17841 0.75468,0.68974 0.54802,1.20141c-0.08932,0.22114 -0.27686,0.68549 -0.33288,0.82421c-0.13097,0.32428 -0.66867,0.69482 -1.12036,0.51239c-2.83906,-1.14664 -31.02582,-12.53076 -31.02582,-12.53076z" fill="#3a3a3a" stroke="none" stroke-width="0" stroke-linecap="butt"/><path d="M268.60449,225.01884l1.00825,-2.49639l1.71181,0.69137l-1.00825,2.49639z" fill="url(#color-3)" stroke="none" stroke-width="0" stroke-linecap="butt"/><path d="M252.43614,219.09172l1.42701,-3.53323l17.22493,6.95683l-1.42701,3.53323z" fill="#3a3a3a" stroke="none" stroke-width="0" stroke-linecap="butt"/><path d="M253.12735,217.66286l0.83955,-2.07871l17.15805,6.92982l-0.83955,2.07871z" fill="url(#color-4)" stroke="none" stroke-width="0" stroke-linecap="butt"/><path d="M287.03069,229.52456l1.87697,-1.19434l2.79768,1.12993l-0.67796,1.6786z" fill="url(#color-5)" stroke="none" stroke-width="0" stroke-linecap="butt"/><path d="M241.57558,224.66342l0.22848,-2.71125l7.32617,0.61738l-0.22848,2.71125z" fill="url(#color-6)" stroke="none" stroke-width="0" stroke-linecap="butt"/><path d="M251.14464,218.57011l1.42701,-3.53323l1.79316,0.72423l-1.42701,3.53323z" fill="url(#color-7)" stroke="none" stroke-width="0" stroke-linecap="butt"/><path d="M234.7502,218.56353l0.32099,-0.79477l1.50123,0.60632l-0.32099,0.79477z" fill="url(#color-8)" stroke="none" stroke-width="0" stroke-linecap="butt"/><path d="M228.23828,215.60224l1.05604,-3.50481c0,0 -0.21022,-0.67505 -0.31255,-1.00367c-0.09876,-0.31716 0.08308,-1.86144 0.32554,-2.46178c0.34857,-0.86305 1.2745,-3.15563 1.2745,-3.15563l23.63003,9.54374l-1.89564,4.69355l-2.11329,1.21238l-1.2267,3.0519c0,0 -5.05618,-0.19049 -6.38583,-0.24057c-0.60391,-0.02275 -1.39717,-0.81036 -1.44346,-1.25107c-0.05663,-0.53915 -0.18888,-1.79809 -0.18888,-1.79809l-1.3557,-0.49618l-4.91929,-1.98681c0,0 -4.42042,4.78435 -7.10356,7.97312c-0.60182,0.71523 -1.83735,0.03059 -1.83735,0.03059l-2.29407,-0.95929c0,0 -1.16339,-0.7843 0.0025,-2.18589c0.54554,-0.65583 5.21461,-6.15074 5.21461,-6.15074z" fill="#303030" stroke="none" stroke-width="0" stroke-linecap="butt"/><path d="M221.33303,205.56738l0.83956,-2.07872l8.09691,3.27019l-0.83956,2.07872z" fill="url(#color-9)" stroke="none" stroke-width="0" stroke-linecap="butt"/><path d="M229.04668,212.96456l0.83044,-2.05614l20.89042,8.43726l-0.83044,2.05614z" fill="url(#color-10)" stroke="none" stroke-width="0" stroke-linecap="butt"/><path d="M228.69155,208.97694l0.98978,-2.45068l1.79317,0.72423l-0.98978,2.45068z" data-paper-data="{&quot;index&quot;:null}" fill="url(#color-11)" stroke="none" stroke-width="0" stroke-linecap="butt"/><g fill="none" stroke="#303030" stroke-width="0.5"><g><path d="M234.44062,220.90359c-0.72547,-0.29301 -1.07605,-1.11863 -0.78304,-1.84411c0.29301,-0.72547 1.11863,-1.07605 1.8441,-0.78304" stroke-linecap="butt"/><path d="M234.38588,220.88148l3.33868,1.34843" stroke-linecap="round"/></g><g data-paper-data="{&quot;index&quot;:null}"><path d="M238.78563,219.60277c0.72547,0.29301 1.07605,1.11863 0.78304,1.8441c-0.29301,0.72547 -1.11864,1.07605 -1.8441,0.78305" stroke-linecap="butt"/><path d="M238.84034,219.62487l-3.33868,-1.34843" stroke-linecap="round"/></g></g><path d="M229.46013,212.48794c0,0 -0.30676,-0.92847 -0.4432,-1.34146c-0.11707,-0.35436 -0.13936,-1.45045 0.01579,-1.83459c0.33016,-0.81746 1.5491,-3.83554 1.5491,-3.83554l23.63002,9.54373l-1.89564,4.69355l-2.11329,1.21238z" fill="#3a3a3a" stroke="none" stroke-width="0" stroke-linecap="butt"/><g fill="none" stroke-width="3" stroke-linecap="round"><path d="M248.16108,216.51642l0.01551,0.00627l-5.59033,-2.25783l0.01734,0.007" stroke="#242424"/><path d="M242.84393,213.67684l-0.01734,-0.007l5.59033,2.25783l-0.01551,-0.00627" stroke="#303030"/></g><path d="M229.69964,207.51366l0.83956,-2.07872l23.71035,9.57617l-0.83956,2.07872z" fill="url(#color-12)" stroke="none" stroke-width="0" stroke-linecap="butt"/><g stroke="none" stroke-width="0" stroke-linecap="butt"><g><path d="M253.61726,219.56875l1.42701,-3.53323l1.79316,0.72423l-1.42701,3.53323z" fill="url(#color-13)"/><path d="M252.77832,219.22992l1.42701,-3.53323l1.79317,0.72423l-1.42701,3.53323z" data-paper-data="{&quot;index&quot;:null}" fill="url(#color-14)"/><path d="M252.94833,219.95339l1.88175,-4.65916l1.79317,0.72423l-1.88175,4.65916z" fill="#3a3a3a"/></g><path d="M253.95992,217.38943l0.83955,-2.07871l1.82674,0.73779l-0.83955,2.07871z" fill="url(#color-15)"/></g><g stroke="none" stroke-width="0" stroke-linecap="butt"><g><path d="M256.29824,220.65155l1.42701,-3.53323l1.79316,0.72423l-1.42701,3.53323z" fill="url(#color-16)"/><path d="M255.45931,220.31272l1.42701,-3.53323l1.79317,0.72423l-1.42701,3.53323z" data-paper-data="{&quot;index&quot;:null}" fill="url(#color-17)"/><path d="M255.62932,221.03619l1.88175,-4.65916l1.79317,0.72423l-1.88175,4.65916z" fill="#3a3a3a"/></g><path d="M256.64091,218.47223l0.83956,-2.07872l1.82674,0.73779l-0.83956,2.07872z" fill="url(#color-18)"/></g><g stroke="none" stroke-width="0" stroke-linecap="butt"><g><path d="M258.86217,221.68707l1.42701,-3.53323l1.79316,0.72423l-1.42701,3.53323z" fill="url(#color-19)"/><path d="M258.02325,221.34825l1.42701,-3.53323l1.79317,0.72423l-1.42701,3.53323z" data-paper-data="{&quot;index&quot;:null}" fill="url(#color-20)"/><path d="M258.19326,222.07171l1.88175,-4.65916l1.79317,0.72423l-1.88175,4.65916z" fill="#3a3a3a"/></g><path d="M259.20486,219.50776l0.83956,-2.07872l1.82674,0.73779l-0.83956,2.07872z" fill="url(#color-21)"/></g><g stroke="none" stroke-width="0" stroke-linecap="butt"><g><path d="M261.42613,222.72261l1.42701,-3.53323l1.79316,0.72423l-1.42701,3.53323z" fill="url(#color-22)"/><path d="M260.58719,222.38378l1.42701,-3.53323l1.79317,0.72423l-1.42701,3.53323z" data-paper-data="{&quot;index&quot;:null}" fill="url(#color-23)"/><path d="M260.75721,223.10725l1.88175,-4.65916l1.79317,0.72423l-1.88175,4.65916z" fill="#3a3a3a"/></g><path d="M261.76879,220.54328l0.83956,-2.07872l1.82674,0.73779l-0.83956,2.07872z" fill="url(#color-24)"/></g><g stroke="none" stroke-width="0" stroke-linecap="butt"><g><path d="M263.99007,223.75814l1.42701,-3.53323l1.79316,0.72423l-1.42701,3.53323z" fill="url(#color-25)"/><path d="M263.15114,223.41931l1.42701,-3.53323l1.79317,0.72423l-1.42701,3.53323z" data-paper-data="{&quot;index&quot;:null}" fill="url(#color-26)"/><path d="M263.32115,224.14277l1.88175,-4.65916l1.79317,0.72423l-1.88175,4.65916z" fill="#3a3a3a"/></g><path d="M264.33275,221.57882l0.83956,-2.07872l1.82674,0.73779l-0.83956,2.07872z" fill="url(#color-27)"/></g><g stroke="none" stroke-width="0" stroke-linecap="butt"><g><path d="M266.55401,224.79367l1.42701,-3.53323l1.79316,0.72423l-1.42701,3.53323z" fill="url(#color-28)"/><path d="M265.71508,224.45484l1.42701,-3.53323l1.79317,0.72423l-1.42701,3.53323z" data-paper-data="{&quot;index&quot;:null}" fill="url(#color-29)"/><path d="M265.8851,225.17831l1.88175,-4.65916l1.79317,0.72423l-1.88175,4.65916z" fill="#3a3a3a"/></g><path d="M266.89668,222.61434l0.83956,-2.07872l1.82674,0.73779l-0.83956,2.07872z" fill="url(#color-30)"/></g><path d="M270.04875,225.05177l0.83956,-2.07872c0,0 19.7264,7.96713 22.613,9.13297c0.28412,0.11475 0.57841,0.31919 0.72146,0.58434c0.20116,0.37282 0.18146,0.8325 0.09698,1.04168c-0.13457,0.33318 -0.38972,0.96493 -0.38972,0.96493z" fill="url(#color-31)" stroke="none" stroke-width="0" stroke-linecap="butt"/><path d="M222.63728,223.03491c0.4483,-0.51021 2.39217,-2.72251 3.27125,-3.72297c0.26606,-0.3028 0.63902,-0.33877 0.85231,-0.17616c0.55226,0.42097 3.03078,2.31026 4.04176,3.0809c0.26681,0.20338 0.26651,0.5165 0.00701,0.81184c-0.81338,0.9257 -2.55626,2.90925 -3.06449,3.48765c-0.27145,0.30894 -0.85789,0.5387 -1.27956,0.37298c-0.9812,-0.38563 -2.69781,-1.06031 -3.25967,-1.28112c-0.35042,-0.13772 -0.80325,-0.83263 -0.82957,-1.1246c-0.01207,-0.13391 -0.02998,-0.33259 -0.04695,-0.52082c-0.02459,-0.27275 0.12712,-0.72195 0.30789,-0.92768z" fill="#1e1e1e" stroke="none" stroke-width="0" stroke-linecap="butt"/><path d="M235.13654,207.51867l0.72442,-2.12024l16.71617,8.04061l-1.13949,1.92158z" fill="url(#color-32)" stroke="none" stroke-width="0" stroke-linecap="butt"/><path d="M233.88899,205.48303l2.02337,-0.06853l-0.86202,2.10543l-1.94377,0.12444z" data-paper-data="{&quot;index&quot;:null}" fill="url(#color-33)" stroke="none" stroke-width="0" stroke-linecap="butt"/><path d="M221.88016,206.27411l0.98978,-2.45067l1.79317,0.72423l-0.98978,2.45067z" data-paper-data="{&quot;index&quot;:null}" fill="url(#color-34)" stroke="none" stroke-width="0" stroke-linecap="butt"/><g stroke="none" stroke-width="0" stroke-linecap="butt"><path d="M203.23446,204.95309c0.43868,-1.08615 2.3585,-5.83958 3.29175,-8.15029c0.31143,-0.77109 1.08254,-1.04015 1.71371,-0.78523c1.93057,0.77972 11.92676,4.817 15.45379,6.2415c0.77177,0.3117 1.07669,0.88729 0.93454,1.23924c-0.25231,0.62471 -1.08603,2.68899 -1.539,3.81053c-0.17953,0.44451 -0.5854,0.70857 -1.08747,0.6518c-3.26489,-0.36918 -15.66023,-1.77077 -17.86964,-2.0206c-0.65708,-0.0743 -1.0731,-0.55265 -0.89769,-0.98696z" fill="#3a3a3a"/><path d="M206.26352,197.75874c0,0 0.32521,-0.80522 0.4786,-1.18499c0.142,-0.3516 0.74999,-0.87843 1.41898,-0.60824c1.99752,0.80676 12.38355,5.00149 15.67966,6.33273c0.65468,0.26441 0.84392,0.90702 0.71364,1.2296c-0.15989,0.39587 -0.56192,1.39131 -0.56192,1.39131z" fill="url(#color-35)"/></g></g><g fill="none" stroke="#000000" stroke-width="1.5" stroke-linecap="round"><path d="M220.35345,210.86825c1.41097,-4.3665 6.45794,-13.1563 6.45794,-13.1563"/><path d="M225.3147,224.29556c-2.08988,-4.08528 -4.73645,-13.86937 -4.73645,-13.86937"/></g></g><g><g stroke="none" stroke-width="1" stroke-linecap="butt"><path d="M266.17139,164.38795c2.01666,0.23879 3.45671,2.06568 3.21793,4.08232c-0.788,6.65492 -2.7174,22.94941 -3.50461,29.5976c-0.23879,2.01665 -2.06648,3.46343 -4.08313,3.22464c-6.65492,-0.788 -41.31806,-4.89241 -47.96625,-5.67961c-2.02336,-0.23958 -3.46263,-2.0732 -3.22384,-4.08985c0.7872,-6.64821 2.71661,-22.94269 3.50461,-29.5976c0.23879,-2.01665 2.06567,-3.45669 4.08905,-3.21711c6.64821,0.7872 41.31132,4.89161 47.96626,5.67961z" fill="#ffffff"/><path d="M266.1714,164.38795c2.01666,0.23879 3.45671,2.06569 3.21793,4.08233c-0.788,6.65492 -2.7174,22.9494 -3.50461,29.5976c-0.23879,2.01665 -2.06647,3.46343 -4.08313,3.22464c-6.65492,-0.788 -41.31806,-4.89241 -47.96626,-5.67961c-2.02336,-0.23958 -3.46263,-2.0732 -3.22384,-4.08985c0.7872,-6.64821 2.71661,-22.94269 3.50461,-29.5976c0.23879,-2.01665 2.06567,-3.4567 4.08905,-3.21712c6.64821,0.7872 41.31132,4.89161 47.96626,5.67961z" fill="url(#color-36)"/><path d="M266.1714,164.38795c2.01666,0.23879 3.45671,2.06569 3.21793,4.08233c-0.788,6.65492 -2.7174,22.9494 -3.50461,29.5976c-0.23879,2.01665 -2.06647,3.46343 -4.08313,3.22464c-6.65492,-0.788 -41.31806,-4.89241 -47.96626,-5.67961c-2.02336,-0.23958 -3.46263,-2.0732 -3.22384,-4.08985c0.7872,-6.64821 2.71661,-22.94269 3.50461,-29.5976c0.23879,-2.01665 2.06567,-3.4567 4.08905,-3.21712c6.64821,0.7872 41.31132,4.89161 47.96626,5.67961z" fill="url(#color-37)"/></g><g fill="none" stroke-linecap="round"><g><path d="M243.91938,176.82032l-0.82479,6.96565" stroke="url(#color-38)" stroke-width="5"/><path d="M245.05457,177.45929l-0.40847,3.44965" stroke="url(#color-39)" stroke-width="2.5"/></g><g data-paper-data="{&quot;index&quot;:null}"><path d="M255.03823,178.36112l-0.82479,6.96565" stroke="url(#color-40)" stroke-width="5"/><path d="M253.37674,182.16695l0.40847,-3.44965" stroke="url(#color-41)" stroke-width="2.5"/></g></g></g></g></g></g></svg>