<svg version="1.1" xmlns="http://www.w3.org/2000/svg" xmlns:xlink="http://www.w3.org/1999/xlink" width="71.18534" height="96.16507" viewBox="0,0,71.18534,96.16507"><defs><linearGradient x1="240.24672" y1="114.95373" x2="234.55574" y2="157.40718" gradientUnits="userSpaceOnUse" id="color-1"><stop offset="0" stop-color="#1a1a1a"/><stop offset="1" stop-color="#1a1a1a" stop-opacity="0"/></linearGradient><linearGradient x1="226.73712" y1="166.65014" x2="198.39199" y2="162.85041" gradientUnits="userSpaceOnUse" id="color-2"><stop offset="0" stop-color="#1a1a1a" stop-opacity="0"/><stop offset="1" stop-color="#1a1a1a"/></linearGradient><linearGradient x1="227.77056" y1="207.26195" x2="228.94105" y2="201.1899" gradientUnits="userSpaceOnUse" id="color-3"><stop offset="0" stop-color="#000000"/><stop offset="1" stop-color="#151515"/></linearGradient><linearGradient x1="226.81324" y1="206.62757" x2="227.39292" y2="203.62047" gradientUnits="userSpaceOnUse" id="color-4"><stop offset="0" stop-color="#292929"/><stop offset="1" stop-color="#313131"/></linearGradient><linearGradient x1="218.09246" y1="205.19639" x2="219.26295" y2="199.12434" gradientUnits="userSpaceOnUse" id="color-5"><stop offset="0" stop-color="#000000"/><stop offset="1" stop-color="#151515"/></linearGradient><linearGradient x1="219.21698" y1="204.96332" x2="219.79665" y2="201.95623" gradientUnits="userSpaceOnUse" id="color-6"><stop offset="0" stop-color="#292929"/><stop offset="1" stop-color="#313131"/></linearGradient><linearGradient x1="160.61942" y1="188.14357" x2="215.27262" y2="198.67892" gradientUnits="userSpaceOnUse" id="color-7"><stop offset="0" stop-color="#1a1a1a"/><stop offset="1" stop-color="#1a1a1a" stop-opacity="0"/></linearGradient><linearGradient x1="160.61942" y1="188.14357" x2="215.27262" y2="198.67892" gradientUnits="userSpaceOnUse" id="color-8"><stop offset="0" stop-color="#1a1a1a"/><stop offset="1" stop-color="#1a1a1a" stop-opacity="0"/></linearGradient><linearGradient x1="229.89112" y1="192.86689" x2="236.92531" y2="156.37632" gradientUnits="userSpaceOnUse" id="color-9"><stop offset="0" stop-color="#1a1a1a" stop-opacity="0"/><stop offset="1" stop-color="#1a1a1a"/></linearGradient><linearGradient x1="229.89112" y1="192.86689" x2="236.92531" y2="156.37632" gradientUnits="userSpaceOnUse" id="color-10"><stop offset="0" stop-color="#1a1a1a" stop-opacity="0"/><stop offset="1" stop-color="#1a1a1a"/></linearGradient><linearGradient x1="235.79874" y1="209.04215" x2="237.12642" y2="202.15464" gradientUnits="userSpaceOnUse" id="color-11"><stop offset="0" stop-color="#000000"/><stop offset="1" stop-color="#151515"/></linearGradient><linearGradient x1="237.0743" y1="208.7778" x2="237.73181" y2="205.36684" gradientUnits="userSpaceOnUse" id="color-12"><stop offset="0" stop-color="#292929"/><stop offset="1" stop-color="#313131"/></linearGradient></defs><g transform="translate(-204.78233,-131.54246)"><g data-paper-data="{&quot;isPaintingLayer&quot;:true}" fill-rule="nonzero" stroke-linejoin="miter" stroke-miterlimit="10" stroke-dasharray="" stroke-dashoffset="0" style="mix-blend-mode: normal"><g><g data-paper-data="{&quot;index&quot;:null}" fill="none" stroke="#000000" stroke-width="1.5" stroke-linecap="round"><path d="M237.83272,141.27437c-0.43548,0.79187 -0.77772,1.92103 -1.52898,2.88792c-0.35824,0.46105 -0.96348,0.80052 -1.35751,1.24618c-1.905,2.15464 -3.77428,4.09602 -3.77428,4.09602"/><path d="M241.98555,132.29246c-0.87301,3.30478 -4.47009,9.59789 -4.47009,9.59789"/></g><g data-paper-data="{&quot;index&quot;:null}" fill="none" stroke="#000000" stroke-width="1.5" stroke-linecap="round"><path d="M240.64471,141.11927c1.55099,3.04602 3.06181,10.13542 3.06181,10.13542"/><path d="M235.55128,132.63534c0.52734,0.60675 1.10667,1.43103 1.68437,2.33694c0.38952,0.61082 0.22132,1.54233 1.03848,1.95887c2.53083,1.29004 2.70167,4.79683 2.70167,4.79683"/></g><g data-paper-data="{&quot;index&quot;:null}" fill="none" stroke="#000000" stroke-width="1.5" stroke-linecap="round"><path d="M248.93374,179.71565c0,0 3.00156,0.05337 6.37331,0.57717c0.94545,0.14688 1.86934,0.65253 2.82609,0.81226c2.04277,0.34104 3.86957,0.5393 5.26364,0.97993"/><path d="M263.22067,181.97092c0,0 8.65707,5.27141 11.997,8.41816"/></g><g data-paper-data="{&quot;index&quot;:null}" stroke="none" stroke-width="1" stroke-linecap="butt"><g><path d="M251.33376,155.34788c-0.36985,2.75906 -2.79245,20.83111 -2.79245,20.83111l-1.66939,1.16351l1.32062,1.43822c0,0 -1.56478,11.67294 -1.79742,13.40838c-0.20764,1.54892 -1.63045,2.63535 -3.17936,2.42772c-5.1114,-0.68519 -17.62664,-2.36289 -22.73289,-3.04739c-1.54891,-0.20763 -2.6405,-1.63114 -2.43287,-3.18005c0.6852,-5.11141 4.25415,-31.73497 4.93865,-36.84122c0.20833,-1.55407 1.6363,-2.63981 3.18521,-2.43218c5.10624,0.6845 17.62146,2.36219 22.73289,3.04739c1.54893,0.20763 2.63536,1.63042 2.42703,3.18451z" fill="#ffffff"/><path d="M251.33378,155.34788c-0.39322,2.93344 -2.79245,20.83111 -2.79245,20.83111l-1.79329,1.14691l1.4279,1.57872c0,0 -1.58339,11.81177 -1.78082,13.28449c-0.20764,1.54892 -1.63045,2.63535 -3.17936,2.42772c-5.1114,-0.68519 -17.62664,-2.36289 -22.73289,-3.04739c-1.54891,-0.20763 -2.6405,-1.63114 -2.43287,-3.18005c0.497,-3.70754 4.40488,-32.85939 4.40488,-32.85939l1.65278,-1.03963l-1.33722,-1.31432c0,0 0.13785,-1.02832 0.21822,-1.62789c0.20833,-1.55407 1.6363,-2.63981 3.18521,-2.43218c5.10624,0.6845 17.62146,2.36219 22.73289,3.04739c1.54893,0.20763 2.63536,1.63042 2.42703,3.18451z" fill="url(#color-1)"/><path d="M251.33378,155.34788c-0.37344,2.78579 -2.75925,20.58334 -2.75925,20.58334l-1.70261,1.4113l1.30402,1.5621c0,0 -1.56115,11.64576 -1.78082,13.28449c-0.20764,1.54892 -1.63045,2.63535 -3.17936,2.42772c-5.1114,-0.68519 -17.62664,-2.36289 -22.73289,-3.04739c-1.54891,-0.20763 -2.6405,-1.63114 -2.43287,-3.18005c0.57185,-4.26587 4.38827,-32.7355 4.38827,-32.7355l1.5455,-1.18012l-1.18012,-1.5455c0,0 0.14851,-1.1078 0.18501,-1.38011c0.20833,-1.55407 1.6363,-2.63981 3.18521,-2.43218c5.10624,0.6845 17.62146,2.36219 22.73289,3.04739c1.54893,0.20763 2.63536,1.63042 2.42703,3.18451z" fill="url(#color-2)"/></g><g fill="none" font-family="sans-serif" font-weight="normal" font-size="12" text-anchor="start"><g/><g data-paper-data="{&quot;index&quot;:null}"/></g></g><g data-paper-data="{&quot;index&quot;:null}"><g data-paper-data="{&quot;index&quot;:null}" fill="#d6c3c8" stroke-width="0"><g stroke="none" stroke-linecap="butt"><path d="M207.41009,216.77107c-1.75796,-0.33888 -2.90738,-2.03727 -2.56851,-3.7952c1.11829,-5.80118 3.85636,-20.00527 4.97351,-25.80057c0.33887,-1.75794 2.03841,-2.91323 3.79634,-2.57436c5.80116,1.11827 36.01741,6.94298 41.81271,8.06013c1.76379,0.34001 2.9121,2.04428 2.57323,3.80221c-0.64558,3.34898 -1.83244,9.50596 -2.93522,15.22674c-2.02621,-0.24158 -3.92557,1.10496 -4.34848,3.12628c-1.98941,-0.16042 -3.82295,1.1989 -4.2095,3.20418c-0.1434,0.74387 -0.0689,1.47924 0.17889,2.1402c-1.94042,-0.09461 -3.70535,1.24936 -4.08374,3.21232c-0.01129,0.05861 -0.02124,0.11716 -0.02985,0.17564c-11.02312,-2.1249 -30.60738,-5.9001 -35.15938,-6.77758z"/><path d=""/><path d="M207.41007,216.77107c-1.75794,-0.33888 -2.90737,-2.03728 -2.5685,-3.79521c1.11829,-5.80118 3.85636,-20.00526 4.97351,-25.80057c0.33886,-1.75793 2.0384,-2.91322 3.79634,-2.57435c5.80116,1.11827 36.0174,6.94298 41.81271,8.06013c1.76379,0.34001 2.9121,2.04428 2.57323,3.80221c-0.64558,3.34898 -1.83244,9.50596 -2.93522,15.22674c-2.02621,-0.24158 -3.92557,1.10496 -4.34848,3.12628c-1.98941,-0.16042 -3.82295,1.1989 -4.2095,3.20418c-0.1434,0.74387 -0.0689,1.47924 0.17889,2.1402c-1.94042,-0.09461 -3.70535,1.24936 -4.08374,3.21232c-0.01129,0.05862 -0.02124,0.11717 -0.02985,0.17565c-11.02313,-2.1249 -30.60741,-5.90011 -35.15939,-6.77758z"/><path d=""/><path d="M207.41007,216.77107c-1.75794,-0.33888 -2.90737,-2.03728 -2.5685,-3.79521c1.11829,-5.80118 3.85636,-20.00526 4.97351,-25.80057c0.33886,-1.75793 2.0384,-2.91322 3.79634,-2.57435c5.80116,1.11827 36.0174,6.94298 41.81271,8.06013c1.76379,0.34001 2.9121,2.04428 2.57323,3.80221c-0.64558,3.34898 -1.83244,9.50596 -2.93522,15.22674c-2.02621,-0.24158 -3.92557,1.10496 -4.34848,3.12628c-1.98941,-0.16042 -3.82295,1.1989 -4.2095,3.20418c-0.1434,0.74387 -0.0689,1.47924 0.17889,2.1402c-1.94042,-0.09461 -3.70535,1.24936 -4.08374,3.21232c-0.01129,0.05862 -0.02124,0.11717 -0.02985,0.17565c-11.02313,-2.1249 -30.60741,-5.90011 -35.15939,-6.77758z"/><path d=""/></g><g stroke-linecap="round"><g><path d="M228.94105,201.18992l-1.17049,6.07203" stroke="url(#color-3)"/><path d="M226.81324,206.62757l0.57968,-3.0071" stroke="url(#color-4)"/></g><g data-paper-data="{&quot;index&quot;:null}"><path d="M218.09247,205.19638l1.17049,-6.07203" stroke="url(#color-5)"/><path d="M219.21697,204.96332l0.57968,-3.0071" stroke="url(#color-6)"/></g></g></g><g><g stroke="none" stroke-width="1" stroke-linecap="butt"><path d="M257.53418,224.7269c-0.38439,1.99401 -2.31088,3.29782 -4.30492,2.91343c-2.99748,-0.57781 -26.62097,-5.13165 -26.62097,-5.13165l-1.62314,-2.14603l-2.50094,1.35104c0,0 -6.34469,-1.22306 -9.13626,-1.76118c0.01558,-0.0652 0.0298,-0.13106 0.04262,-0.19754c0.42922,-2.22659 -0.86261,-4.38599 -2.9458,-5.10453c0.5396,-0.59152 0.92811,-1.33446 1.09077,-2.17825c0.43848,-2.2746 -0.91912,-4.47908 -3.08166,-5.14899c0.40695,-2.30682 -1.02535,-4.5256 -3.26086,-5.12556c1.25088,-6.48907 2.59715,-13.47295 3.32942,-17.27169c0.38438,-1.99403 2.31219,-3.30446 4.31284,-2.91881c6.57362,1.26718 40.84791,7.87415 47.42818,9.14261c1.99404,0.38439 3.29657,2.31752 2.91218,4.31155c-1.26718,6.57362 -4.37299,22.68532 -5.64145,29.26559z" fill="#ffffff"/><path d="" fill="#ffffff"/><path d="M253.22925,227.64034c-2.82385,-0.54434 -26.62098,-5.13166 -26.62098,-5.13166l-1.70594,-2.77304l-2.81089,1.90234c0,0 -5.58483,-1.07657 -8.74349,-1.68546c0.01558,-0.06521 0.0298,-0.13107 0.04262,-0.19755c0.42922,-2.22659 -0.86261,-4.38599 -2.9458,-5.10453c0.5396,-0.59152 0.92811,-1.33446 1.09077,-2.17825c0.43848,-2.2746 -0.91912,-4.47908 -3.08166,-5.14899c0.40695,-2.30682 -1.02535,-4.5256 -3.26086,-5.12556c1.25088,-6.48907 2.59715,-13.47295 3.32942,-17.27169c0.38438,-1.99403 2.31219,-3.30446 4.31284,-2.91881c6.57363,1.26718 40.84792,7.87415 47.42819,9.14261c1.99405,0.38439 3.29657,2.31752 2.91218,4.31155c-1.26718,6.57363 -4.37299,22.68532 -5.64145,29.26559c-0.38438,1.99402 -2.31087,3.29784 -4.30491,2.91345z" fill="url(#color-7)"/><path d="" fill="url(#color-8)"/><path d="M253.22926,227.64033c-3.56027,-0.6863 -26.22822,-5.05594 -26.22822,-5.05594l-2.09872,-2.84875l-3.00727,1.86448c0,0 -6.5473,-1.2621 -8.5471,-1.6476c0.01558,-0.06521 0.0298,-0.13107 0.04262,-0.19755c0.42922,-2.22659 -0.86261,-4.38599 -2.9458,-5.10453c0.5396,-0.59152 0.92811,-1.33446 1.09077,-2.17825c0.43848,-2.2746 -0.91912,-4.47908 -3.08166,-5.14899c0.40695,-2.30682 -1.02535,-4.5256 -3.26086,-5.12556c1.25088,-6.48907 2.59715,-13.47295 3.32942,-17.27169c0.38438,-1.99403 2.31219,-3.30446 4.31284,-2.91881c6.57363,1.26718 40.84792,7.87415 47.42819,9.14261c1.99405,0.38439 3.29657,2.31752 2.91218,4.31155c-1.26718,6.57363 -4.37299,22.68532 -5.64145,29.26559c-0.38438,1.99402 -2.31087,3.29784 -4.30491,2.91345z" fill="url(#color-9)"/><path d="" fill="url(#color-10)"/></g><g fill="none" stroke-linecap="round"><g><path d="M235.79874,209.04215l1.32769,-6.8875" stroke="url(#color-11)" stroke-width="5"/><path d="M237.73181,205.36684l-0.65752,3.41096" stroke="url(#color-12)" stroke-width="2.5"/></g><g data-paper-data="{&quot;index&quot;:null}"><path d="M248.18859,204.06028l-1.32769,6.8875" stroke="#adadad" stroke-width="5"/><path d="M245.77502,210.22823l0.65752,-3.41096" stroke="#c5c5c5" stroke-width="2.5"/></g></g></g><path d="M229.93178,210.37751l6.11843,1.49975l6.39695,-1.79729l10.81771,-1.17361l-1.58998,8.24815l-23.95891,-4.6185l1.17356,-6.08792z" fill="#ffffff" stroke="none" stroke-width="0" stroke-linecap="butt"/></g><g data-paper-data="{&quot;index&quot;:null}" fill="none" stroke="#000000" stroke-width="1.5" stroke-linecap="round"><path d="M220.95974,180.93796c0,0 10.1177,-0.60393 14.65562,0.07755"/><path d="M235.42211,180.95931c0,0 1.39489,0.57316 3.32616,1.42569c1.25662,0.5547 2.52855,1.56147 4.00282,2.27181c2.13399,1.02821 4.45999,1.8009 5.83725,2.74018"/></g></g></g></g></svg>