<svg version="1.1" xmlns="http://www.w3.org/2000/svg" xmlns:xlink="http://www.w3.org/1999/xlink" width="10.84373" height="13.3281" viewBox="0,0,10.84373,13.3281"><g transform="translate(-234.57815,-173.33595)"><g data-paper-data="{&quot;isPaintingLayer&quot;:true}" fill="#ff0000" fill-rule="nonzero" stroke="none" stroke-width="1" stroke-linecap="square" stroke-linejoin="miter" stroke-miterlimit="10" stroke-dasharray="" stroke-dashoffset="0" style="mix-blend-mode: normal"><path d="M245.42189,183.74217v2.92188h-10.17187v-2.3125l4.89063,-4.57812c0.46875,-0.44791 0.78125,-0.82812 0.9375,-1.14062c0.16666,-0.3125 0.25,-0.63541 0.25,-0.96875c0,-0.41666 -0.14584,-0.73959 -0.4375,-0.96875c-0.28125,-0.23959 -0.69271,-0.35937 -1.23437,-0.35937c-0.48959,0 -0.9375,0.10938 -1.34375,0.32813c-0.40625,0.20834 -0.73959,0.52083 -1,0.9375l-2.73437,-1.53125c0.51041,-0.84375 1.22396,-1.51041 2.14063,-2c0.92709,-0.48958 2.01563,-0.73437 3.26563,-0.73437c1,0 1.88021,0.16666 2.64063,0.5c0.76041,0.32291 1.35416,0.78646 1.78125,1.39062c0.4375,0.59375 0.65625,1.29166 0.65625,2.09375c0,0.70834 -0.15625,1.375 -0.46875,2c-0.30209,0.625 -0.88541,1.33854 -1.75,2.14062l-2.46875,2.28125z"/></g></g></svg>