<svg version="1.1" xmlns="http://www.w3.org/2000/svg" xmlns:xlink="http://www.w3.org/1999/xlink" width="63.50443" height="94.27459" viewBox="0,0,63.50443,94.27459"><defs><linearGradient x1="228.29832" y1="243.06335" x2="230.98302" y2="200.31438" gradientUnits="userSpaceOnUse" id="color-1"><stop offset="0" stop-color="#1a1a1a"/><stop offset="1" stop-color="#1a1a1a" stop-opacity="0"/></linearGradient><linearGradient x1="225.1139" y1="189.72587" x2="196.57145" y2="187.93336" gradientUnits="userSpaceOnUse" id="color-2"><stop offset="0" stop-color="#1a1a1a" stop-opacity="0"/><stop offset="1" stop-color="#1a1a1a"/></linearGradient><linearGradient x1="235.09838" y1="150.52338" x2="233.82606" y2="156.57489" gradientUnits="userSpaceOnUse" id="color-3"><stop offset="0" stop-color="#000000"/><stop offset="1" stop-color="#151515"/></linearGradient><linearGradient x1="233.9701" y1="150.73751" x2="233.34" y2="153.73446" gradientUnits="userSpaceOnUse" id="color-4"><stop offset="0" stop-color="#292929"/><stop offset="1" stop-color="#313131"/></linearGradient><linearGradient x1="225.37556" y1="148.67977" x2="224.10324" y2="154.73131" gradientUnits="userSpaceOnUse" id="color-5"><stop offset="0" stop-color="#000000"/><stop offset="1" stop-color="#151515"/></linearGradient><linearGradient x1="226.32208" y1="149.33014" x2="225.69198" y2="152.32707" gradientUnits="userSpaceOnUse" id="color-6"><stop offset="0" stop-color="#292929"/><stop offset="1" stop-color="#313131"/></linearGradient><linearGradient x1="165.78326" y1="142.14473" x2="220.25178" y2="153.59666" gradientUnits="userSpaceOnUse" id="color-7"><stop offset="0" stop-color="#1a1a1a"/><stop offset="1" stop-color="#1a1a1a" stop-opacity="0"/></linearGradient><linearGradient x1="165.78326" y1="142.14473" x2="220.25178" y2="153.59666" gradientUnits="userSpaceOnUse" id="color-8"><stop offset="0" stop-color="#1a1a1a"/><stop offset="1" stop-color="#1a1a1a" stop-opacity="0"/></linearGradient><linearGradient x1="231.47879" y1="164.61638" x2="223.83263" y2="200.98365" gradientUnits="userSpaceOnUse" id="color-9"><stop offset="0" stop-color="#1a1a1a" stop-opacity="0"/><stop offset="1" stop-color="#1a1a1a"/></linearGradient><linearGradient x1="231.47879" y1="164.61638" x2="223.83263" y2="200.98365" gradientUnits="userSpaceOnUse" id="color-10"><stop offset="0" stop-color="#1a1a1a" stop-opacity="0"/><stop offset="1" stop-color="#1a1a1a"/></linearGradient><linearGradient x1="243.18953" y1="151.9911" x2="241.74634" y2="158.85534" gradientUnits="userSpaceOnUse" id="color-11"><stop offset="0" stop-color="#000000"/><stop offset="1" stop-color="#151515"/></linearGradient><linearGradient x1="244.26318" y1="152.72881" x2="243.54844" y2="156.12823" gradientUnits="userSpaceOnUse" id="color-12"><stop offset="0" stop-color="#292929"/><stop offset="1" stop-color="#313131"/></linearGradient></defs><g transform="translate(-208.62278,-133.2377)"><g data-paper-data="{&quot;isPaintingLayer&quot;:true}" fill-rule="nonzero" stroke-linejoin="miter" stroke-miterlimit="10" stroke-dasharray="" stroke-dashoffset="0" style="mix-blend-mode: normal"><g><g fill="none" stroke="#000000" stroke-width="1.5" stroke-linecap="round"><path d="M226.55124,206.13861c0,0 0.18552,2.68864 0.26141,5.56366c0.0157,0.59466 0.26148,1.24363 0.23987,1.8271c-0.04534,1.2236 -0.5084,2.30882 -0.68332,3.19546"/><path d="M226.52175,216.04891c0,0 -1.28575,7.13366 -2.73958,10.22722"/></g><g fill="none" stroke="#000000" stroke-width="1.5" stroke-linecap="round"><path d="M239.99845,207.16367c0,0 3.29168,6.4581 4.00548,9.80089"/><path d="M243.87771,216.28323c0,0 2.07601,2.83141 0.92276,5.42743c-0.37236,0.83821 0.34498,1.45582 0.42715,2.17559c0.12187,1.06751 0.19104,2.07263 0.16359,2.87605"/></g><g fill="none" stroke="#000000" stroke-width="1.5" stroke-linecap="round"><path d="M257.70692,188.65119c-1.17664,-0.86781 -2.41197,-2.22813 -3.88984,-3.67904c-0.69217,-0.67954 -1.64469,-1.12895 -2.31983,-1.80693c-2.40771,-2.41785 -4.21723,-4.81323 -4.21723,-4.81323"/><path d="M271.37722,193.3217c-4.50967,-0.84856 -13.86619,-4.74576 -13.86619,-4.74576"/></g><g stroke="none" stroke-width="1" stroke-linecap="butt"><g><path d="M247.03889,205.60136c-0.09828,1.56491 -1.44097,2.74891 -3.00067,2.65096c-5.14701,-0.32324 -17.74935,-1.11469 -22.89114,-1.4376c-1.55969,-0.09795 -2.74891,-1.44098 -2.65063,-3.00587c0.32291,-5.14179 2.00655,-31.95069 2.32979,-37.09768c0.09795,-1.5597 1.44584,-2.74339 3.00554,-2.64544c5.14179,0.32291 17.74415,1.11436 22.89114,1.4376c1.55969,0.09795 2.74371,1.44064 2.64576,3.00035c-0.10975,1.74752 -0.84793,13.50172 -0.84793,13.50172l-1.5754,1.15353l1.41087,1.46631c0,0 -1.14285,18.19786 -1.31733,20.97613z" fill="#ffffff"/><path d="M247.0389,205.60136c-0.09828,1.56491 -1.44097,2.74891 -3.00067,2.65096c-5.14701,-0.32324 -17.74935,-1.11469 -22.89114,-1.4376c-1.55969,-0.09795 -2.74891,-1.44098 -2.65063,-3.00587c0.03792,-0.60374 0.10295,-1.63922 0.10295,-1.63922l1.56756,-1.02877l-1.4187,-1.34156c0,0 1.84352,-29.35479 2.07798,-33.08813c0.09795,-1.5597 1.44584,-2.74339 3.00554,-2.64544c5.14179,0.32291 17.74415,1.11436 22.89114,1.4376c1.55969,0.09795 2.74371,1.44064 2.64576,3.00035c-0.09313,1.48298 -0.84009,13.37697 -0.84009,13.37697l-1.70799,1.27044l1.53562,1.47415c0,0 -1.13183,18.02226 -1.31733,20.97613z" fill="url(#color-1)"/><path d="M247.0389,205.60136c-0.09828,1.56491 -1.44097,2.74891 -3.00067,2.65096c-5.14701,-0.32324 -17.74935,-1.11469 -22.89114,-1.4376c-1.55969,-0.09795 -2.74891,-1.44098 -2.65063,-3.00587c0.01722,-0.27421 0.08728,-1.38971 0.08728,-1.38971l1.45848,-1.28611l-1.28611,-1.45848c0,0 1.80038,-28.66781 2.07015,-32.96338c0.09795,-1.5597 1.44584,-2.74339 3.00554,-2.64544c5.14179,0.32291 17.74415,1.11436 22.89114,1.4376c1.55969,0.09795 2.74371,1.44064 2.64576,3.00035c-0.10363,1.65014 -0.84009,13.37697 -0.84009,13.37697l-1.58323,1.27828l1.3952,1.71582c0,0 -1.12549,17.92144 -1.30166,20.72662z" fill="url(#color-2)"/></g><g fill="none" font-family="sans-serif" font-weight="normal" font-size="12" text-anchor="start"><g/><g data-paper-data="{&quot;index&quot;:null}"/></g></g><g fill="none" stroke="#000000" stroke-width="1.5" stroke-linecap="round"><path d="M228.62219,189.24291c-2.98533,-3.48496 -7.84156,-12.38157 -7.84156,-12.38157"/><path d="M240.91448,196.85351c-1.52691,-0.66907 -3.41598,-2.23072 -5.41975,-3.49404c-1.38432,-0.87277 -2.91254,-1.41675 -4.04946,-2.18759c-1.74731,-1.1847 -2.97323,-2.06297 -2.97323,-2.06297"/></g><g><g data-paper-data="{&quot;index&quot;:null}" fill="#d6c3c8" stroke-width="0"><g stroke="none" stroke-linecap="butt"><path d="M220.00919,133.87139c4.53662,0.95382 24.0547,5.05747 35.04057,7.36723c-0.01471,0.05725 -0.02821,0.11509 -0.0405,0.17349c-0.41132,1.95632 0.69543,3.87891 2.52107,4.54314c-0.48441,0.51342 -0.83789,1.16256 -0.99375,1.90393c-0.42018,1.99851 0.74386,3.96182 2.64016,4.58434c-0.39288,2.02737 0.83681,4.0044 2.79847,4.56634c-1.19872,5.70144 -2.48885,11.83763 -3.19058,15.17528c-0.36835,1.75199 -2.08707,2.87857 -3.84489,2.509c-5.77572,-1.21434 -35.88986,-7.54579 -41.67142,-8.76136c-1.75199,-0.36835 -2.87151,-2.09167 -2.50315,-3.84366c1.21434,-5.77572 4.19064,-19.9318 5.4062,-25.71338c0.36835,-1.75199 2.08581,-2.87272 3.83782,-2.50437z"/><path d=""/><path d="M255.04976,141.23862c-0.01471,0.05725 -0.02821,0.11509 -0.0405,0.1735c-0.41132,1.95632 0.69543,3.87891 2.52107,4.54314c-0.48441,0.51342 -0.83789,1.16256 -0.99375,1.90393c-0.42018,1.99851 0.74386,3.96182 2.64016,4.58434c-0.39288,2.02737 0.83681,4.0044 2.79847,4.56634c-1.19872,5.70144 -2.48885,11.83763 -3.19058,15.17528c-0.36835,1.75199 -2.08707,2.87857 -3.84489,2.509c-5.77573,-1.21434 -35.88986,-7.54579 -41.67142,-8.76136c-1.752,-0.36835 -2.87152,-2.09167 -2.50316,-3.84366c1.21434,-5.77573 4.19064,-19.9318 5.4062,-25.71338c0.36835,-1.75199 2.08582,-2.87273 3.83782,-2.50438c4.5366,0.95381 24.0547,5.05747 35.04058,7.36723z"/><path d=""/><path d="M255.04976,141.23862c-0.01471,0.05725 -0.02821,0.11509 -0.0405,0.1735c-0.41132,1.95632 0.69543,3.87891 2.52107,4.54314c-0.48441,0.51342 -0.83789,1.16256 -0.99375,1.90393c-0.42018,1.99851 0.74386,3.96182 2.64016,4.58434c-0.39288,2.02737 0.83681,4.0044 2.79847,4.56634c-1.19872,5.70144 -2.48885,11.83763 -3.19058,15.17528c-0.36835,1.75199 -2.08707,2.87857 -3.84489,2.509c-5.77573,-1.21434 -35.88986,-7.54579 -41.67142,-8.76136c-1.752,-0.36835 -2.87152,-2.09167 -2.50316,-3.84366c1.21434,-5.77573 4.19064,-19.9318 5.4062,-25.71338c0.36835,-1.75199 2.08582,-2.87273 3.83782,-2.50438c4.5366,0.95381 24.0547,5.05747 35.04058,7.36723z"/><path d=""/></g><g stroke-linecap="round"><g><path d="M235.09838,150.52338l-1.27232,6.05152" stroke="url(#color-3)"/><path d="M233.9701,150.73752l-0.6301,2.99694" stroke="url(#color-4)"/></g><g data-paper-data="{&quot;index&quot;:null}"><path d="M225.37556,148.67977l-1.27232,6.05152" stroke="url(#color-5)"/><path d="M225.69198,152.32707l0.6301,-2.99694" stroke="url(#color-6)"/></g></g></g><g><g stroke="none" stroke-width="1" stroke-linecap="butt"><path d="M269.30307,145.94761c-1.37882,6.55803 -4.75483,22.61529 -6.13226,29.1667c-0.41782,1.98729 -2.36735,3.26516 -4.35464,2.84734c-6.55803,-1.37882 -40.71651,-8.56058 -47.26791,-9.93801c-1.99389,-0.41922 -3.26378,-2.37397 -2.84595,-4.36126c0.79598,-3.7859 2.25937,-10.74618 3.61908,-17.21333c2.29341,0.31259 4.47321,-1.17838 4.99136,-3.4628c2.25322,0.21984 4.35861,-1.28688 4.83522,-3.55379c0.1768,-0.84093 0.10632,-1.67636 -0.1621,-2.4307c2.19891,0.14427 4.22619,-1.34635 4.69274,-3.56541c0.01393,-0.06626 0.02632,-0.13248 0.03721,-0.19863c2.78214,0.58494 9.10538,1.91439 9.10538,1.91439l1.78258,2.21414l2.32756,-1.34999c0,0 23.54366,4.95002 26.53102,5.57811c1.9873,0.41783 3.25855,2.36595 2.84074,4.35323z" fill="#ffffff"/><path d="" fill="#ffffff"/><path d="M266.46235,141.59437c1.9873,0.41783 3.25855,2.36596 2.84072,4.35324c-1.37882,6.55803 -4.75483,22.61528 -6.13226,29.1667c-0.41782,1.98729 -2.36734,3.26516 -4.35464,2.84734c-6.55803,-1.37882 -40.71651,-8.56058 -47.26792,-9.93801c-1.99389,-0.41922 -3.26378,-2.37397 -2.84595,-4.36126c0.79598,-3.7859 2.25937,-10.74618 3.61908,-17.21333c2.29341,0.31259 4.47321,-1.17838 4.99136,-3.4628c2.25322,0.21984 4.35861,-1.28688 4.83522,-3.55379c0.1768,-0.84093 0.10632,-1.67636 -0.1621,-2.4307c2.19891,0.14427 4.22619,-1.34635 4.69274,-3.56541c0.01393,-0.06626 0.02632,-0.13248 0.03721,-0.19864c3.14799,0.66186 8.71394,1.83209 8.71394,1.83209l1.85485,2.84245l2.64673,-1.896c0,0 23.71672,4.9864 26.53103,5.57811z" fill="url(#color-7)"/><path d="" fill="url(#color-8)"/><path d="M266.46235,141.59437c1.9873,0.41783 3.25855,2.36596 2.84072,4.35324c-1.37882,6.55803 -4.75483,22.61528 -6.13226,29.1667c-0.41782,1.98729 -2.36734,3.26516 -4.35464,2.84734c-6.55803,-1.37882 -40.71651,-8.56058 -47.26792,-9.93801c-1.99389,-0.41922 -3.26378,-2.37397 -2.84595,-4.36126c0.79598,-3.7859 2.25937,-10.74618 3.61908,-17.21333c2.29341,0.31259 4.47321,-1.17838 4.99136,-3.4628c2.25322,0.21984 4.35861,-1.28688 4.83522,-3.55379c0.1768,-0.84093 0.10632,-1.67636 -0.1621,-2.4307c2.19891,0.14427 4.22619,-1.34635 4.69274,-3.56541c0.01393,-0.06626 0.02632,-0.13248 0.03721,-0.19864c1.99304,0.41903 8.51822,1.79095 8.51822,1.79095l2.05057,2.88361l3.03817,-1.8137c0,0 22.59134,4.7498 26.13958,5.49581z" fill="url(#color-9)"/><path d="" fill="url(#color-10)"/></g><g fill="none" stroke-linecap="round"><g><path d="M241.74633,158.85534l1.4432,-6.86423" stroke="url(#color-11)" stroke-width="5"/><path d="M244.26316,152.72881l-0.71472,3.39943" stroke="url(#color-12)" stroke-width="2.5"/></g><g data-paper-data="{&quot;index&quot;:null}"><path d="M254.12649,154.51813l-1.4432,6.86423" stroke="#adadad" stroke-width="5"/><path d="M252.13195,158.16046l0.71472,-3.39943" stroke="#c5c5c5" stroke-width="2.5"/></g></g></g><path d="M235.81488,151.70706l1.27565,-6.06735l23.87795,5.0203l-1.7283,8.22028l-9.51909,-5.27134l-5.20177,-4.13435l-6.2218,-0.98672z" fill="#ffffff" stroke="none" stroke-width="0" stroke-linecap="butt"/></g></g></g></g></svg>