<svg version="1.1" xmlns="http://www.w3.org/2000/svg" xmlns:xlink="http://www.w3.org/1999/xlink" width="238.59159" height="138.55769" viewBox="0,0,238.59159,138.55769"><defs><linearGradient x1="313.5" y1="139.57937" x2="313.5" y2="248.77885" gradientUnits="userSpaceOnUse" id="color-1"><stop offset="0" stop-color="#544f3d"/><stop offset="1" stop-color="#2d2417"/></linearGradient><linearGradient x1="312.95421" y1="119.77884" x2="312.95421" y2="158.77884" gradientUnits="userSpaceOnUse" id="color-2"><stop offset="0" stop-color="#000000"/><stop offset="1" stop-color="#000000" stop-opacity="0"/></linearGradient><linearGradient x1="313.5" y1="111.56071" x2="313.5" y2="149.76019" gradientUnits="userSpaceOnUse" id="color-3"><stop offset="0" stop-color="#57b85a"/><stop offset="1" stop-color="#2e5830"/></linearGradient><linearGradient x1="313.5" y1="117.85733" x2="313.5" y2="110.72116" gradientUnits="userSpaceOnUse" id="color-4"><stop offset="0" stop-color="#7feb83" stop-opacity="0"/><stop offset="1" stop-color="#7feb83"/></linearGradient><linearGradient x1="313.5" y1="231.07937" x2="313.5" y2="254.27885" gradientUnits="userSpaceOnUse" id="color-5"><stop offset="0" stop-color="#1b1b1c" stop-opacity="0"/><stop offset="1" stop-color="#1b1b1c"/></linearGradient><linearGradient x1="238.5" y1="139.57937" x2="238.5" y2="248.77885" gradientUnits="userSpaceOnUse" id="color-6"><stop offset="0" stop-color="#544f3d"/><stop offset="1" stop-color="#2d2417"/></linearGradient><linearGradient x1="237.95421" y1="119.27884" x2="237.95421" y2="158.27884" gradientUnits="userSpaceOnUse" id="color-7"><stop offset="0" stop-color="#000000"/><stop offset="1" stop-color="#000000" stop-opacity="0"/></linearGradient><linearGradient x1="238.5" y1="111.56071" x2="238.5" y2="149.76019" gradientUnits="userSpaceOnUse" id="color-8"><stop offset="0" stop-color="#57b85a"/><stop offset="1" stop-color="#2e5830"/></linearGradient><linearGradient x1="238.5" y1="117.85733" x2="238.5" y2="110.72116" gradientUnits="userSpaceOnUse" id="color-9"><stop offset="0" stop-color="#7feb83" stop-opacity="0"/><stop offset="1" stop-color="#7feb83"/></linearGradient><linearGradient x1="238.5" y1="231.07936" x2="238.5" y2="254.27884" gradientUnits="userSpaceOnUse" id="color-10"><stop offset="0" stop-color="#1b1b1c" stop-opacity="0"/><stop offset="1" stop-color="#1b1b1c"/></linearGradient><linearGradient x1="163.5" y1="139.57937" x2="163.5" y2="248.77885" gradientUnits="userSpaceOnUse" id="color-11"><stop offset="0" stop-color="#544f3d"/><stop offset="1" stop-color="#2d2417"/></linearGradient><linearGradient x1="162.95421" y1="119.27884" x2="162.95421" y2="158.27884" gradientUnits="userSpaceOnUse" id="color-12"><stop offset="0" stop-color="#000000"/><stop offset="1" stop-color="#000000" stop-opacity="0"/></linearGradient><linearGradient x1="163.5" y1="111.56071" x2="163.5" y2="149.76019" gradientUnits="userSpaceOnUse" id="color-13"><stop offset="0" stop-color="#57b85a"/><stop offset="1" stop-color="#2e5830"/></linearGradient><linearGradient x1="163.5" y1="117.85733" x2="163.5" y2="110.72116" gradientUnits="userSpaceOnUse" id="color-14"><stop offset="0" stop-color="#7feb83" stop-opacity="0"/><stop offset="1" stop-color="#7feb83"/></linearGradient><linearGradient x1="163.5" y1="231.07937" x2="163.5" y2="254.27885" gradientUnits="userSpaceOnUse" id="color-15"><stop offset="0" stop-color="#1b1b1c" stop-opacity="0"/><stop offset="1" stop-color="#1b1b1c"/></linearGradient></defs><g transform="translate(-120.7042,-110.72115)"><g data-paper-data="{&quot;isPaintingLayer&quot;:true}" fill-rule="nonzero" stroke="none" stroke-width="0" stroke-linecap="butt" stroke-linejoin="miter" stroke-miterlimit="10" stroke-dasharray="" stroke-dashoffset="0" style="mix-blend-mode: normal"><g><path d="M270.70421,248.77885v-109.19949h88.59159v109.19949z" fill="url(#color-1)"/><path d="M270.70421,158.77884v-39h88.5v39z" fill="url(#color-2)"/><g><path d="M270.70721,149.76019v-38.19948h88.58858v38.19948c0,0 -14.09197,0 -18.09159,0c-2.16328,0 -6.20304,-1.07519 -7.65229,-2.37041c-1.37049,-1.22484 -3.46116,-2.64643 -4.4628,-3.54163c-1.80788,-1.61574 -4.12476,-3.55635 -6.88328,-3.56088c-2.59516,-0.00426 -11.06935,-0.01325 -15.00161,-0.0197c-2.58255,-0.00424 -6.60406,0.97407 -7.66394,2.28333c-0.7197,0.88905 -2.00738,2.47971 -3.19041,3.9411c-1.39566,1.72404 -5.73016,3.26818 -8.14567,3.26818c-4.66341,0 -17.49699,0 -17.49699,0z" fill="url(#color-3)"/><path d="M359.2958,110.72116v7.13617h-88.59159v-7.13617z" data-paper-data="{&quot;index&quot;:null}" fill="url(#color-4)"/></g><path d="M270.70421,249.27885v-18.19948h88.59159v18.19948z" fill="url(#color-5)"/></g><g><path d="M195.70421,248.77885v-109.19948h88.59159v109.19948z" fill="url(#color-6)"/><path d="M195.70421,158.27884v-39h88.5v39z" fill="url(#color-7)"/><g><path d="M195.70721,149.76019v-38.19948h88.58858v38.19948c0,0 -14.09197,0 -18.09159,0c-2.16328,0 -6.20304,-1.07518 -7.65229,-2.3704c-1.37049,-1.22483 -3.46115,-2.64644 -4.4628,-3.54163c-1.80788,-1.61574 -4.12476,-3.55635 -6.88328,-3.56088c-2.59516,-0.00426 -11.06935,-0.01325 -15.00161,-0.0197c-2.58255,-0.00424 -6.60406,0.97407 -7.66394,2.28333c-0.7197,0.88905 -2.00738,2.47971 -3.19041,3.9411c-1.39565,1.72404 -5.73016,3.26818 -8.14567,3.26818c-4.66341,0 -17.49699,0 -17.49699,0z" fill="url(#color-8)"/><path d="M284.2958,110.72116v7.13617h-88.59159v-7.13617z" data-paper-data="{&quot;index&quot;:null}" fill="url(#color-9)"/></g><path d="M195.70421,249.27884v-18.19948h88.59159v18.19948z" fill="url(#color-10)"/></g><g><path d="M120.70421,248.77885v-109.19949h88.59159v109.19949z" fill="url(#color-11)"/><path d="M120.70421,158.27884v-39h88.5v39z" fill="url(#color-12)"/><g><path d="M120.70721,149.76019v-38.19948h88.58859v38.19948c0,0 -14.09197,0 -18.09159,0c-2.16328,0 -6.20304,-1.07519 -7.65229,-2.37041c-1.37049,-1.22484 -3.46116,-2.64643 -4.4628,-3.54163c-1.80788,-1.61574 -4.12476,-3.55635 -6.88328,-3.56088c-2.59517,-0.00426 -11.06935,-0.01325 -15.00161,-0.0197c-2.58255,-0.00424 -6.60406,0.97407 -7.66394,2.28333c-0.7197,0.88905 -2.00738,2.47971 -3.19041,3.9411c-1.39566,1.72404 -5.73016,3.26818 -8.14567,3.26818c-4.66341,0 -17.49699,0 -17.49699,0z" fill="url(#color-13)"/><path d="M209.2958,110.72116v7.13617h-88.59159v-7.13617z" data-paper-data="{&quot;index&quot;:null}" fill="url(#color-14)"/></g><path d="M120.70421,249.27885v-18.19948h88.59159v18.19948z" fill="url(#color-15)"/></g></g></g></svg>