<svg version="1.1" xmlns="http://www.w3.org/2000/svg" xmlns:xlink="http://www.w3.org/1999/xlink" width="217.22835" height="192.16873" viewBox="0,0,217.22835,192.16873"><defs><linearGradient x1="271.50838" y1="194.76309" x2="227.02395" y2="155.42009" gradientUnits="userSpaceOnUse" id="color-1"><stop offset="0" stop-color="#94583b"/><stop offset="1" stop-color="#cb7851"/></linearGradient><linearGradient x1="207.34337" y1="186.49151" x2="252.876" y2="148.36651" gradientUnits="userSpaceOnUse" id="color-2"><stop offset="0" stop-color="#94583b"/><stop offset="1" stop-color="#cb7851"/></linearGradient><linearGradient x1="203.13818" y1="208.81709" x2="262.52451" y2="208.81709" gradientUnits="userSpaceOnUse" id="color-3"><stop offset="0" stop-color="#94583b"/><stop offset="1" stop-color="#cb7851"/></linearGradient><linearGradient x1="275.15584" y1="208.81709" x2="215.76951" y2="208.81709" gradientUnits="userSpaceOnUse" id="color-4"><stop offset="0" stop-color="#94583b"/><stop offset="1" stop-color="#cb7851"/></linearGradient></defs><g transform="translate(-131.38583,-83.91564)"><g data-paper-data="{&quot;isPaintingLayer&quot;:true}" fill-rule="nonzero" stroke="none" stroke-width="none" stroke-linecap="butt" stroke-linejoin="miter" stroke-miterlimit="10" stroke-dasharray="" stroke-dashoffset="0" style="mix-blend-mode: normal"><g><path d="M273.12521,186.30626c-5.08246,-4.67241 -11.3702,-14.09184 -11.3702,-14.09184c0,0 -1.29185,-7.48043 0.2489,-11.26023c1.71192,-0.03871 3.38693,-0.17329 4.99874,-0.43586c14.59132,-2.37697 22.93072,-4.57495 25.34464,-15.82927c0.18163,-0.8468 1.62476,-4.85431 2.54632,-11.07094c0.57464,-3.87642 2.68454,-18.18869 2.68454,-18.18869l-11.38138,-4.16855l-2.43123,-4.64229l14.23591,5.65824l2.77031,-19.33512l-0.16157,30.03599l6.40067,0.26329l-0.7885,2.2536l-5.27588,0.63152c0,0 -0.42461,8.27842 -0.13231,8.53693c0.25608,0.22649 2.56765,-2.22177 5.00104,-5.00307c1.45665,-1.66491 7.14245,-9.06088 7.14245,-9.06088l-7.35288,-14.45596l1.07758,-2.09245l10.05818,12.57307l16.75923,-19.00232l-5.90458,11.38099l16.69702,2.87252l-6.06932,1.73049l-12.97185,-0.04909c0,0 -9.8303,13.96841 -12.34134,18.82769c-3.49408,6.76164 -1.74368,8.98693 -1.74368,8.98693c0,0 2.63222,-0.71483 6.06764,-1.18154c2.32557,-0.31594 5.56316,-0.90765 9.0423,-1.53423c0.88563,-0.1595 13.03404,-21.09169 13.03404,-21.09169l3.43509,-1.59725l-8.4543,21.31221l7.69266,-0.90689l4.96588,2.36868c0,0 -11.05335,3.18566 -21.34739,5.75471c-1.56338,0.39017 23.01222,8.87247 23.01222,8.87247l-0.26941,3.37707c0,0 -19.27677,-7.09869 -26.73294,-9.72035c-1.73457,-0.60989 -5.0311,-0.48084 -6.30545,-0.17495c-1.75731,0.42182 -3.7646,1.02325 -5.18405,1.98836c-2.69282,1.8309 -3.57898,4.76726 -3.81797,5.53638c-3.05307,9.8252 -11.98613,14.84799 -20.45561,23.92482c-3.4149,3.65978 -7.96873,6.10504 -12.72353,8.00754z" data-paper-data="{&quot;index&quot;:null}" fill="url(#color-1)"/><path d="M193.45373,169.64517c-8.22079,-9.30265 -17.01468,-14.5653 -19.8008,-24.46951c-0.2181,-0.7753 -1.02448,-3.73457 -3.66678,-5.63765c-1.39282,-1.00316 -3.3831,-1.65868 -5.12836,-2.12789c-1.26561,-0.34026 -4.55744,-0.55845 -6.30788,0.00428c-7.52438,2.41896 -26.98616,8.9935 -26.98616,8.9935l-0.17793,-3.38312c0,0 24.79611,-7.81427 23.24386,-8.2466c-10.22075,-2.84663 -21.18387,-6.33018 -21.18387,-6.33018l5.02815,-2.23345l7.66531,1.11469l-7.87457,-21.53315l3.39061,1.68961c0,0 11.57762,21.25322 12.45861,21.43663c3.46091,0.72049 6.68131,1.39958 8.99748,1.77832c3.42154,0.55949 6.03345,1.34528 6.03345,1.34528c0,0 1.80996,-2.17712 -1.49989,-9.03082c-2.37864,-4.92544 -11.82741,-19.15471 -11.82741,-19.15471l-12.96843,-0.3019l-6.02028,-1.89407l16.76863,-2.41971l-5.59449,-11.53659l16.23895,19.44881l10.39468,-12.29633l1.02057,2.12084l-7.74132,14.25172c0,0 5.48361,7.5471 6.89468,9.25082c2.35725,2.84612 4.60173,5.35602 4.86385,5.13655c0.29919,-0.25051 0.09872,-8.53739 0.09872,-8.53739l-5.25686,-0.77403l-0.72723,-2.27411l6.40545,-0.09001l0.65115,-30.02936l2.24615,19.40299l14.38379,-5.271l-2.55594,4.57481l-11.49,3.85909c0,0 1.72188,14.36412 2.19143,18.25467c0.75302,6.2393 2.08719,10.28438 2.24584,11.13578c2.10854,11.31551 10.38542,13.73832 24.90709,16.50921c1.60411,0.30608 3.27487,0.48594 4.98511,0.57095c1.43792,3.8201 -3.23797,11.51624 -3.23797,11.51624c0,0 -3.35817,8.99246 -8.56519,13.52564c-4.70158,-2.03046 -9.18759,-4.59802 -12.50222,-8.34886z" fill="url(#color-2)"/><path d="M215.7519,264.68776c1.26705,-2.82562 2.55188,-6.81423 2.55188,-11.37066c0,-9.09312 0,-20.44771 0,-29.33333c0,-9.02283 -14.60926,-22.3457 -15,-37c-0.33089,-12.41013 -3.6948,-22.09063 0.52736,-31.47301c0.33051,-0.73445 1.61204,-3.52107 0.80789,-6.67651c-0.42389,-1.66331 -1.52904,-3.44363 -2.56594,-4.92381c-0.75193,-1.07338 -3.13576,-3.35397 -4.83912,-4.04626c-7.32202,-2.97586 -26.46447,-10.42916 -26.46447,-10.42916l2.03548,-2.70813c0,0 24.02828,9.92732 23.11568,8.59933c-6.00896,-8.74411 -12.1782,-18.45315 -12.1782,-18.45315l5.28901,1.51556l5.16153,5.77565l7.78633,-21.56521l1.51495,3.47217c0,0 -4.76743,23.72788 -4.2097,24.43408c2.191,2.77426 4.22419,5.36237 5.75689,7.1397c2.26417,2.62554 3.76232,4.90482 3.76232,4.90482c0,0 2.78541,-0.50727 4.64764,-7.887c1.3383,-5.30347 3.2287,-22.27927 3.2287,-22.27927l-9.74933,-8.55698l-3.3999,-5.31713l14.41024,8.90993l3.11689,-12.43688l-0.03509,25.33691l15.86383,-2.75462l-0.57905,2.28127l-15.08477,5.95728c0,0 -0.64072,9.30689 -0.65258,11.51904c-0.01981,3.69549 0.08976,7.0608 0.43163,7.0608c0.39022,0 5.55655,-6.4824 5.55655,-6.4824l-3.53362,-3.96828l0.90236,-2.21047l4.96896,4.04317l19.77758,-22.60605l-10.73422,16.31863l14.41222,5.19277l-4.89664,1.86672l-11.28707,-4.41755c0,0 -7.90131,12.11866 -10.03897,15.40307c-3.42817,5.26721 -5.0021,9.22517 -5.42705,9.97981c-5.64771,10.02946 -0.85707,17.20069 8.49811,28.64785c9.5,11.62437 30.16666,18.68567 30.16666,26.33334c0,10.70071 0,25.65142 0,37.5c0,6.0265 1.33657,11.25048 2.52513,14.70452c0.95154,2.76525 0.89379,4.77149 -0.61478,5.34843c-5.00563,1.91438 -16.55293,6.04764 -22.94188,6.04764c-6.68299,0 -18.37647,-4.34648 -23.03438,-6.18949c-1.25322,-0.49587 -0.7815,-2.45863 0.45096,-5.20711z" fill="url(#color-3)"/><path d="M262.99308,269.89487c-4.65791,1.84301 -16.35139,6.18949 -23.03438,6.18949c-6.38895,0 -17.93625,-4.13327 -22.94188,-6.04764c-1.50857,-0.57694 -1.56632,-2.58319 -0.61478,-5.34843c1.18856,-3.45404 2.52513,-8.67802 2.52513,-14.70452c0,-11.84858 0,-26.79929 0,-37.5c0,-7.64767 20.66666,-14.70897 30.16666,-26.33334c9.35518,-11.44716 14.14582,-18.61838 8.49811,-28.64785c-0.42495,-0.75464 -1.99889,-4.71259 -5.42705,-9.97981c-2.13766,-3.28441 -10.03897,-15.40306 -10.03897,-15.40306l-11.28707,4.41755l-4.89664,-1.86672l14.41222,-5.19278l-10.73422,-16.31863l19.77758,22.60605l4.96897,-4.04317l0.90235,2.21047l-3.53362,3.96828c0,0 5.16633,6.48241 5.55654,6.48241c0.34187,0 0.45144,-3.36531 0.43163,-7.0608c-0.01186,-2.21215 -0.65258,-11.51904 -0.65258,-11.51904l-15.08477,-5.95728l-0.57905,-2.28127l15.86383,2.75462l-0.03509,-25.3369l3.11689,12.43688l14.41024,-8.90993l-3.3999,5.31713l-9.74933,8.55698c0,0 1.8904,16.9758 3.2287,22.27927c1.86223,7.37973 4.64764,7.887 4.64764,7.887c0,0 1.49814,-2.27928 3.76232,-4.90482c1.53271,-1.77733 3.56589,-4.36544 5.75689,-7.1397c0.55773,-0.7062 -4.2097,-24.43408 -4.2097,-24.43408l1.51495,-3.47217l7.78633,21.56521l5.16153,-5.77565l5.28902,-1.51556c0,0 -6.16925,9.70904 -12.17821,18.45315c-0.9126,1.32799 23.11568,-8.59933 23.11568,-8.59933l2.03548,2.70813c0,0 -19.14245,7.45331 -26.46447,10.42917c-1.70336,0.69229 -4.08719,2.97287 -4.83912,4.04626c-1.03689,1.48017 -2.14205,3.2605 -2.56594,4.92381c-0.80415,3.15544 0.47738,5.94205 0.80789,6.67651c4.22217,9.38238 0.85826,19.06288 0.52736,31.47301c-0.39074,14.6543 -15,27.97717 -15,37c0,8.88562 0,20.24021 0,29.33333c0,4.55644 1.28483,8.54505 2.55188,11.37066c1.23247,2.74848 1.70419,4.71124 0.45096,5.20711z" data-paper-data="{&quot;index&quot;:null}" fill="url(#color-4)"/></g></g></g></svg>