<svg version="1.1" xmlns="http://www.w3.org/2000/svg" xmlns:xlink="http://www.w3.org/1999/xlink" width="10.04686" height="10.45314" viewBox="0,0,10.04686,10.45314"><g transform="translate(-234.97657,-176.27343)"><g data-paper-data="{&quot;isPaintingLayer&quot;:true}" fill="#ff0000" fill-rule="nonzero" stroke="none" stroke-width="1" stroke-linecap="square" stroke-linejoin="miter" stroke-miterlimit="10" stroke-dasharray="" stroke-dashoffset="0" style="mix-blend-mode: normal"><path d="M239.86717,176.27343c1.67709,0 2.95313,0.38542 3.82813,1.15625c0.88541,0.76042 1.32813,1.93229 1.32813,3.51563v5.60938h-3.29687v-1.3125c-0.51041,0.98958 -1.50521,1.48438 -2.98437,1.48438c-0.78125,0 -1.45834,-0.13542 -2.03125,-0.40625c-0.57291,-0.28125 -1.00521,-0.65104 -1.29687,-1.10937c-0.29166,-0.46875 -0.4375,-1.00521 -0.4375,-1.60937c0,-0.95833 0.36459,-1.69792 1.09375,-2.21875c0.73959,-0.53125 1.875,-0.79687 3.40625,-0.79687h2.01563c-0.0625,-1.07292 -0.78125,-1.60937 -2.15625,-1.60937c-0.47916,0 -0.96875,0.07813 -1.46875,0.23438c-0.5,0.15625 -0.92187,0.36979 -1.26562,0.64063l-1.20312,-2.40625c0.5625,-0.36458 1.24479,-0.65104 2.04688,-0.85937c0.80209,-0.20833 1.60938,-0.3125 2.42188,-0.3125zM239.72655,184.47656c0.41666,0 0.77604,-0.09896 1.07813,-0.29687c0.3125,-0.19792 0.54166,-0.48958 0.6875,-0.875v-0.875h-1.53125c-1.03125,0 -1.54687,0.34375 -1.54687,1.03125c0,0.3125 0.11459,0.5625 0.34375,0.75c0.23959,0.17708 0.5625,0.26563 0.96875,0.26563z"/></g></g></svg>