<svg version="1.1" xmlns="http://www.w3.org/2000/svg" xmlns:xlink="http://www.w3.org/1999/xlink" width="11.17184" height="13.59377" viewBox="0,0,11.17184,13.59377"><g transform="translate(-234.41408,-173.20312)"><g data-paper-data="{&quot;isPaintingLayer&quot;:true}" fill="#ff0000" fill-rule="nonzero" stroke="none" stroke-width="1" stroke-linecap="square" stroke-linejoin="miter" stroke-miterlimit="10" stroke-dasharray="" stroke-dashoffset="0" style="mix-blend-mode: normal"><path d="M239.52342,173.20313c1.88541,0 3.36459,0.55729 4.4375,1.67188c1.08334,1.10416 1.625,2.69271 1.625,4.76563c0,1.5 -0.29166,2.78646 -0.875,3.85938c-0.57291,1.07291 -1.38541,1.89063 -2.4375,2.45313c-1.05209,0.5625 -2.26562,0.84375 -3.64062,0.84375c-0.72916,0 -1.43229,-0.08854 -2.10937,-0.26562c-0.66666,-0.16667 -1.23959,-0.39584 -1.71875,-0.6875l1.34375,-2.65625c0.63541,0.44791 1.4375,0.67188 2.40625,0.67188c0.9375,0 1.69271,-0.25521 2.26563,-0.76562c0.58334,-0.52084 0.92188,-1.27084 1.01563,-2.25c-0.73959,0.63541 -1.71354,0.95313 -2.92187,0.95313c-0.82291,0 -1.57812,-0.17187 -2.26562,-0.51562c-0.67709,-0.34375 -1.21875,-0.82812 -1.625,-1.45312c-0.40625,-0.63542 -0.60937,-1.35417 -0.60937,-2.15625c0,-0.88542 0.22396,-1.66667 0.67188,-2.34375c0.45834,-0.67709 1.07813,-1.19792 1.85938,-1.5625c0.78125,-0.375 1.64063,-0.5625 2.57813,-0.5625zM239.78905,179.14063c0.53125,0 0.96354,-0.15104 1.29688,-0.45312c0.34375,-0.30209 0.51563,-0.70312 0.51563,-1.20312c0,-0.48959 -0.16666,-0.88542 -0.5,-1.1875c-0.32291,-0.30209 -0.76562,-0.45312 -1.32812,-0.45312c-0.52084,0 -0.94791,0.15104 -1.28125,0.45313c-0.33334,0.29166 -0.5,0.69271 -0.5,1.20313c0,0.5 0.16666,0.90104 0.5,1.20313c0.33334,0.29166 0.76563,0.4375 1.29688,0.4375z"/></g></g></svg>