<svg version="1.1" xmlns="http://www.w3.org/2000/svg" xmlns:xlink="http://www.w3.org/1999/xlink" width="71.1223" height="94.446" viewBox="0,0,71.1223,94.446"><defs><linearGradient x1="235.82216" y1="243.38066" x2="233.04858" y2="200.63736" gradientUnits="userSpaceOnUse" id="color-1"><stop offset="0" stop-color="#1a1a1a"/><stop offset="1" stop-color="#1a1a1a" stop-opacity="0"/></linearGradient><linearGradient x1="225.88055" y1="190.88121" x2="197.34189" y2="192.73306" gradientUnits="userSpaceOnUse" id="color-2"><stop offset="0" stop-color="#1a1a1a" stop-opacity="0"/><stop offset="1" stop-color="#1a1a1a"/></linearGradient><linearGradient x1="227.85277" y1="150.12623" x2="228.2397" y2="156.29795" gradientUnits="userSpaceOnUse" id="color-3"><stop offset="0" stop-color="#000000"/><stop offset="1" stop-color="#151515"/></linearGradient><linearGradient x1="226.8224" y1="150.63341" x2="227.01403" y2="153.68987" gradientUnits="userSpaceOnUse" id="color-4"><stop offset="0" stop-color="#292929"/><stop offset="1" stop-color="#313131"/></linearGradient><linearGradient x1="217.99032" y1="150.94127" x2="218.37726" y2="157.11299" gradientUnits="userSpaceOnUse" id="color-5"><stop offset="0" stop-color="#000000"/><stop offset="1" stop-color="#151515"/></linearGradient><linearGradient x1="219.07596" y1="151.31578" x2="219.26759" y2="154.37223" gradientUnits="userSpaceOnUse" id="color-6"><stop offset="0" stop-color="#292929"/><stop offset="1" stop-color="#313131"/></linearGradient><linearGradient x1="158.81239" y1="160.52883" x2="214.3627" y2="157.04612" gradientUnits="userSpaceOnUse" id="color-7"><stop offset="0" stop-color="#1a1a1a"/><stop offset="1" stop-color="#1a1a1a" stop-opacity="0"/></linearGradient><linearGradient x1="158.81239" y1="160.52883" x2="214.3627" y2="157.04612" gradientUnits="userSpaceOnUse" id="color-8"><stop offset="0" stop-color="#1a1a1a"/><stop offset="1" stop-color="#1a1a1a" stop-opacity="0"/></linearGradient><linearGradient x1="228.12108" y1="164.67417" x2="230.4464" y2="201.76372" gradientUnits="userSpaceOnUse" id="color-9"><stop offset="0" stop-color="#1a1a1a" stop-opacity="0"/><stop offset="1" stop-color="#1a1a1a"/></linearGradient><linearGradient x1="228.12108" y1="164.67417" x2="230.4464" y2="201.76372" gradientUnits="userSpaceOnUse" id="color-10"><stop offset="0" stop-color="#1a1a1a" stop-opacity="0"/><stop offset="1" stop-color="#1a1a1a"/></linearGradient><linearGradient x1="236.04239" y1="149.38392" x2="236.48128" y2="156.38447" gradientUnits="userSpaceOnUse" id="color-11"><stop offset="0" stop-color="#000000"/><stop offset="1" stop-color="#151515"/></linearGradient><linearGradient x1="237.27384" y1="149.80871" x2="237.49119" y2="153.27566" gradientUnits="userSpaceOnUse" id="color-12"><stop offset="0" stop-color="#292929"/><stop offset="1" stop-color="#313131"/></linearGradient></defs><g transform="translate(-204.81385,-133.152)"><g data-paper-data="{&quot;isPaintingLayer&quot;:true}" fill-rule="nonzero" stroke-linejoin="miter" stroke-miterlimit="10" stroke-dasharray="" stroke-dashoffset="0" style="mix-blend-mode: normal"><g><g fill="none" stroke="#000000" stroke-width="1.5" stroke-linecap="round"><path d="M229.01047,207.57637c0,0 1.37685,2.31678 2.7398,4.84934c0.28191,0.52383 0.7937,0.99248 1.03726,1.52312c0.51075,1.11283 0.58624,2.2903 0.8295,3.16067"/><path d="M233.44872,216.43735c0,0 2.06582,6.94799 2.16152,10.3648"/></g><g fill="none" stroke="#000000" stroke-width="1.5" stroke-linecap="round"><path d="M241.65728,206.93743c0,0 0.00064,7.2486 -0.88111,10.55107"/><path d="M240.97305,216.82413c0,0 0.56414,3.46533 -1.64207,5.25473c-0.71234,0.57777 -0.35361,1.45374 -0.6072,2.13235c-0.3761,1.00646 -0.77082,1.93342 -1.16006,2.63679"/></g><g fill="none" stroke="#000000" stroke-width="1.5" stroke-linecap="round"><path d="M260.7543,183.94513c-1.41223,-0.37839 -3.0589,-1.19387 -4.96443,-2.00515c-0.89247,-0.37997 -1.94331,-0.45064 -2.81935,-0.83537c-3.12419,-1.37205 -5.68326,-2.94155 -5.68326,-2.94155"/><path d="M275.18615,183.30296c-4.50821,0.85626 -14.64169,0.64363 -14.64169,0.64363"/></g><g stroke="none" stroke-width="1" stroke-linecap="butt"><g><path d="M249.64645,203.83955c0.10153,1.5647 -1.07968,2.90984 -2.63918,3.01103c-5.14633,0.33394 -17.747,1.15159 -22.8881,1.48519c-1.55948,0.10119 -2.90984,-1.07969 -3.01137,-2.64437c-0.3336,-5.14111 -2.07298,-31.94645 -2.40692,-37.09276c-0.10119,-1.55949 1.08522,-2.90499 2.64471,-3.00618c5.14111,-0.3336 17.7418,-1.15125 22.8881,-1.48519c1.55948,-0.10119 2.90464,1.08002 3.00584,2.63952c0.11338,1.74729 0.876,13.49993 0.876,13.49993l-1.41591,1.34451l1.58589,1.27498c0,0 1.18069,18.19544 1.36094,20.97334z" fill="#ffffff"/><path d="M249.64646,203.83955c0.10153,1.5647 -1.07968,2.90984 -2.63918,3.01103c-5.14633,0.33394 -17.747,1.15159 -22.8881,1.48519c-1.55948,0.10119 -2.90984,-1.07969 -3.01137,-2.64437c-0.03917,-0.60366 -0.10635,-1.639 -0.10635,-1.639l1.424,-1.21977l-1.57779,-1.15025c0,0 -1.90456,-29.35089 -2.14678,-33.08374c-0.10119,-1.55949 1.08522,-2.90499 2.64471,-3.00618c5.14111,-0.3336 17.7418,-1.15125 22.8881,-1.48519c1.55948,-0.10119 2.90464,1.08002 3.00584,2.63952c0.09622,1.48278 0.86791,13.37519 0.86791,13.37519l-1.53255,1.47734l1.71063,1.26689c0,0 1.1693,18.01987 1.36094,20.97334z" fill="url(#color-1)"/><path d="M249.64646,203.83955c0.10153,1.5647 -1.07968,2.90984 -2.63918,3.01103c-5.14633,0.33394 -17.747,1.15159 -22.8881,1.48519c-1.55948,0.10119 -2.90984,-1.07969 -3.01137,-2.64437c-0.01779,-0.27417 -0.09017,-1.38953 -0.09017,-1.38953l1.28308,-1.46115l-1.46115,-1.28308c0,0 -1.85999,-28.66401 -2.13869,-32.959c-0.10119,-1.55949 1.08522,-2.90499 2.64471,-3.00618c5.14111,-0.3336 17.7418,-1.15125 22.8881,-1.48519c1.55948,-0.10119 2.90464,1.08002 3.00584,2.63952c0.10706,1.64992 0.86791,13.37519 0.86791,13.37519l-1.40782,1.46924l1.60208,1.52446c0,0 1.16276,17.91906 1.34476,20.72387z" fill="url(#color-2)"/></g><g fill="none" font-family="sans-serif" font-weight="normal" font-size="12" text-anchor="start"><g/><g data-paper-data="{&quot;index&quot;:null}"/></g></g><g fill="none" stroke="#000000" stroke-width="1.5" stroke-linecap="round"><path d="M230.75482,185.43326c-4.01541,-2.22118 -11.67579,-8.85828 -11.67579,-8.85828"/><path d="M244.93226,188.26554c-1.66447,-0.09296 -3.98033,-0.89553 -6.29935,-1.3785c-1.6021,-0.33366 -3.22407,-0.30896 -4.55875,-0.63364c-2.05125,-0.49898 -3.50688,-0.89317 -3.50688,-0.89317"/></g><g><g data-paper-data="{&quot;index&quot;:null}" fill="#d6c3c8" stroke-width="0"><g stroke="none" stroke-linecap="butt"><path d="M208.87053,138.09933c4.62672,-0.29007 24.53245,-1.53805 35.73651,-2.24049c0.00109,0.0591 0.00349,0.11844 0.00722,0.17801c0.12508,1.99518 1.7043,3.55316 3.64095,3.70667c-0.33002,0.62398 -0.49765,1.34386 -0.45024,2.09994c0.12778,2.0382 1.77309,3.62015 3.76672,3.71463c0.1618,2.05874 1.87402,3.63641 3.9145,3.65508c0.36455,5.81468 0.75689,12.07273 0.97031,15.47668c0.11202,1.78679 -1.24417,3.33078 -3.03691,3.44318c-5.89043,0.3693 -36.60266,2.2948 -42.49905,2.66447c-1.78679,0.11202 -3.32519,-1.25049 -3.43721,-3.03728c-0.3693,-5.89043 -1.27443,-20.32767 -1.64411,-26.22407c-0.11202,-1.78679 1.24452,-3.3248 3.03133,-3.43683z"/><path d=""/><path d="M244.60703,135.85883c0.00109,0.0591 0.00349,0.11844 0.00722,0.17802c0.12508,1.99518 1.7043,3.55316 3.64095,3.70667c-0.33002,0.62398 -0.49765,1.34386 -0.45024,2.09994c0.12778,2.0382 1.77309,3.62015 3.76672,3.71463c0.1618,2.05874 1.87402,3.63641 3.9145,3.65508c0.36455,5.81468 0.75689,12.07273 0.97031,15.47668c0.11202,1.78679 -1.24417,3.33078 -3.03691,3.44318c-5.89044,0.3693 -36.60266,2.2948 -42.49905,2.66447c-1.7868,0.11202 -3.3252,-1.25049 -3.43722,-3.03727c-0.3693,-5.89044 -1.27443,-20.32767 -1.64411,-26.22407c-0.11202,-1.78679 1.24453,-3.32481 3.03133,-3.43684c4.6267,-0.29007 24.53245,-1.53805 35.73652,-2.24049z"/><path d=""/><path d="M244.60703,135.85883c0.00109,0.0591 0.00349,0.11844 0.00722,0.17802c0.12508,1.99518 1.7043,3.55316 3.64095,3.70667c-0.33002,0.62398 -0.49765,1.34386 -0.45024,2.09994c0.12778,2.0382 1.77309,3.62015 3.76672,3.71463c0.1618,2.05874 1.87402,3.63641 3.9145,3.65508c0.36455,5.81468 0.75689,12.07273 0.97031,15.47668c0.11202,1.78679 -1.24417,3.33078 -3.03691,3.44318c-5.89044,0.3693 -36.60266,2.2948 -42.49905,2.66447c-1.7868,0.11202 -3.3252,-1.25049 -3.43722,-3.03727c-0.3693,-5.89044 -1.27443,-20.32767 -1.64411,-26.22407c-0.11202,-1.78679 1.24453,-3.32481 3.03133,-3.43684c4.6267,-0.29007 24.53245,-1.53805 35.73652,-2.24049z"/><path d=""/></g><g stroke-linecap="round"><g><path d="M227.85277,150.12623l0.38693,6.1717" stroke="url(#color-3)"/><path d="M227.01403,153.68987l-0.19163,-3.05646" stroke="url(#color-4)"/></g><g data-paper-data="{&quot;index&quot;:null}"><path d="M217.99033,150.94128l0.38693,6.1717" stroke="url(#color-5)"/><path d="M219.07596,151.31578l0.19163,3.05646" stroke="url(#color-6)"/></g></g></g><g><g stroke="none" stroke-width="1" stroke-linecap="butt"><path d="M259.59987,136.59776c0.41932,6.68828 1.44602,23.06445 1.86491,29.74597c0.12707,2.02676 -1.41125,3.77809 -3.43802,3.90516c-6.68828,0.41932 -41.52517,2.60341 -48.20669,3.02231c-2.03349,0.12748 -3.77853,-1.418 -3.90559,-3.44476c-0.24207,-3.86109 -0.68711,-10.95961 -1.10062,-17.5552c2.29375,-0.3101 3.9972,-2.32821 3.88762,-4.66808c2.23029,-0.38878 3.85783,-2.40223 3.71287,-4.71416c-0.05377,-0.85764 -0.34441,-1.64404 -0.80421,-2.29952c2.15779,-0.44713 3.71434,-2.42425 3.57245,-4.68738c-0.00424,-0.06757 -0.00995,-0.13471 -0.01709,-0.20136c2.83739,-0.17789 9.28623,-0.5822 9.28623,-0.5822l2.30832,1.65882l1.88346,-1.92162c0,0 24.01126,-1.50538 27.05794,-1.69639c2.02677,-0.12707 3.77135,1.41167 3.89842,3.43842z" fill="#ffffff"/><path d="" fill="#ffffff"/><path d="M255.70146,133.15934c2.02677,-0.12707 3.77135,1.41168 3.89841,3.43843c0.41932,6.68828 1.44602,23.06444 1.86491,29.74597c0.12707,2.02676 -1.41124,3.77809 -3.43802,3.90516c-6.68828,0.41932 -41.52517,2.60341 -48.2067,3.02231c-2.03349,0.12748 -3.77853,-1.418 -3.90559,-3.44476c-0.24207,-3.86109 -0.68711,-10.95961 -1.10062,-17.5552c2.29375,-0.3101 3.9972,-2.32821 3.88762,-4.66808c2.23029,-0.38878 3.85783,-2.40223 3.71287,-4.71416c-0.05377,-0.85764 -0.34441,-1.64404 -0.80421,-2.29952c2.15779,-0.44713 3.71434,-2.42425 3.57245,-4.68738c-0.00424,-0.06757 -0.00995,-0.13471 -0.01709,-0.20137c3.21051,-0.20129 8.88701,-0.55717 8.88701,-0.55717l2.54547,2.24513l2.04551,-2.53296c0,0 24.18775,-1.51645 27.05795,-1.69639z" fill="url(#color-7)"/><path d="" fill="url(#color-8)"/><path d="M255.70146,133.15934c2.02677,-0.12707 3.77135,1.41168 3.89841,3.43843c0.41932,6.68828 1.44602,23.06444 1.86491,29.74597c0.12707,2.02676 -1.41124,3.77809 -3.43802,3.90516c-6.68828,0.41932 -41.52517,2.60341 -48.2067,3.02231c-2.03349,0.12748 -3.77853,-1.418 -3.90559,-3.44476c-0.24207,-3.86109 -0.68711,-10.95961 -1.10062,-17.5552c2.29375,-0.3101 3.9972,-2.32821 3.88762,-4.66808c2.23029,-0.38878 3.85783,-2.40223 3.71287,-4.71416c-0.05377,-0.85764 -0.34441,-1.64404 -0.80421,-2.29952c2.15779,-0.44713 3.71434,-2.42425 3.57245,-4.68738c-0.00424,-0.06757 -0.00995,-0.13471 -0.01709,-0.20137c2.03263,-0.12744 8.6874,-0.54465 8.6874,-0.54465l2.74507,2.23261l2.44473,-2.55798c0,0 23.04003,-1.44449 26.65874,-1.67136z" fill="url(#color-9)"/><path d="" fill="url(#color-10)"/></g><g fill="none" stroke-linecap="round"><g><path d="M236.04239,149.38392l0.4389,7.00056" stroke="url(#color-11)" stroke-width="5"/><path d="M237.49119,153.27566l-0.21736,-3.46695" stroke="url(#color-12)" stroke-width="2.5"/></g><g data-paper-data="{&quot;index&quot;:null}"><path d="M247.25722,148.90393l0.4389,7.00056" stroke="#adadad" stroke-width="5"/><path d="M246.08847,149.4792l0.21736,3.46695" stroke="#c5c5c5" stroke-width="2.5"/></g></g></g><path d="M228.85888,151.07608l-0.38795,-6.18785l24.35219,-1.52676l0.52561,8.38354l-10.57986,-2.54298l-6.11566,-2.59805l-6.25969,0.70759z" fill="#ffffff" stroke="none" stroke-width="0" stroke-linecap="butt"/></g></g></g></g></svg>