<svg version="1.1" xmlns="http://www.w3.org/2000/svg" xmlns:xlink="http://www.w3.org/1999/xlink" width="71.1223" height="94.446" viewBox="0,0,71.1223,94.446"><defs><linearGradient x1="235.82215" y1="116.61934" x2="233.04857" y2="159.36264" gradientUnits="userSpaceOnUse" id="color-1"><stop offset="0" stop-color="#1a1a1a"/><stop offset="1" stop-color="#1a1a1a" stop-opacity="0"/></linearGradient><linearGradient x1="225.88054" y1="169.11879" x2="197.34188" y2="167.26694" gradientUnits="userSpaceOnUse" id="color-2"><stop offset="0" stop-color="#1a1a1a" stop-opacity="0"/><stop offset="1" stop-color="#1a1a1a"/></linearGradient><linearGradient x1="227.85276" y1="209.87376" x2="228.23969" y2="203.70205" gradientUnits="userSpaceOnUse" id="color-3"><stop offset="0" stop-color="#000000"/><stop offset="1" stop-color="#151515"/></linearGradient><linearGradient x1="226.82239" y1="209.36659" x2="227.01402" y2="206.31013" gradientUnits="userSpaceOnUse" id="color-4"><stop offset="0" stop-color="#292929"/><stop offset="1" stop-color="#313131"/></linearGradient><linearGradient x1="217.99031" y1="209.05873" x2="218.37725" y2="202.88701" gradientUnits="userSpaceOnUse" id="color-5"><stop offset="0" stop-color="#000000"/><stop offset="1" stop-color="#151515"/></linearGradient><linearGradient x1="219.07595" y1="208.68422" x2="219.26758" y2="205.62777" gradientUnits="userSpaceOnUse" id="color-6"><stop offset="0" stop-color="#292929"/><stop offset="1" stop-color="#313131"/></linearGradient><linearGradient x1="158.81238" y1="199.47117" x2="214.36269" y2="202.95388" gradientUnits="userSpaceOnUse" id="color-7"><stop offset="0" stop-color="#1a1a1a"/><stop offset="1" stop-color="#1a1a1a" stop-opacity="0"/></linearGradient><linearGradient x1="158.81238" y1="199.47117" x2="214.36269" y2="202.95388" gradientUnits="userSpaceOnUse" id="color-8"><stop offset="0" stop-color="#1a1a1a"/><stop offset="1" stop-color="#1a1a1a" stop-opacity="0"/></linearGradient><linearGradient x1="228.12107" y1="195.32583" x2="230.44639" y2="158.23628" gradientUnits="userSpaceOnUse" id="color-9"><stop offset="0" stop-color="#1a1a1a" stop-opacity="0"/><stop offset="1" stop-color="#1a1a1a"/></linearGradient><linearGradient x1="228.12107" y1="195.32583" x2="230.44639" y2="158.23628" gradientUnits="userSpaceOnUse" id="color-10"><stop offset="0" stop-color="#1a1a1a" stop-opacity="0"/><stop offset="1" stop-color="#1a1a1a"/></linearGradient><linearGradient x1="236.04238" y1="210.61608" x2="236.48127" y2="203.61552" gradientUnits="userSpaceOnUse" id="color-11"><stop offset="0" stop-color="#000000"/><stop offset="1" stop-color="#151515"/></linearGradient><linearGradient x1="237.27383" y1="210.19129" x2="237.49118" y2="206.72434" gradientUnits="userSpaceOnUse" id="color-12"><stop offset="0" stop-color="#292929"/><stop offset="1" stop-color="#313131"/></linearGradient></defs><g transform="translate(-204.81385,-132.402)"><g data-paper-data="{&quot;isPaintingLayer&quot;:true}" fill-rule="nonzero" stroke-linejoin="miter" stroke-miterlimit="10" stroke-dasharray="" stroke-dashoffset="0" style="mix-blend-mode: normal"><g><g data-paper-data="{&quot;index&quot;:null}" fill="none" stroke="#000000" stroke-width="1.5" stroke-linecap="round"><path d="M233.61702,142.8905c-0.24326,0.87037 -0.31875,2.04784 -0.8295,3.16067c-0.24356,0.53064 -0.75535,0.99929 -1.03726,1.52312c-1.36295,2.53256 -2.7398,4.84934 -2.7398,4.84934"/><path d="M235.61023,133.19785c-0.0957,3.41681 -2.16152,10.3648 -2.16152,10.3648"/></g><g data-paper-data="{&quot;index&quot;:null}" fill="none" stroke="#000000" stroke-width="1.5" stroke-linecap="round"><path d="M240.77616,142.5115c0.88175,3.30247 0.88111,10.55107 0.88111,10.55107"/><path d="M237.56371,133.152c0.38924,0.70337 0.78396,1.63033 1.16006,2.63679c0.25359,0.67861 -0.10514,1.55458 0.6072,2.13235c2.20621,1.7894 1.64207,5.25473 1.64207,5.25473"/></g><g data-paper-data="{&quot;index&quot;:null}" fill="none" stroke="#000000" stroke-width="1.5" stroke-linecap="round"><path d="M247.28725,181.83694c0,0 2.55907,-1.5695 5.68326,-2.94155c0.87604,-0.38473 1.92688,-0.4554 2.81935,-0.83537c1.90553,-0.81128 3.5522,-1.62676 4.96443,-2.00515"/><path d="M260.54446,176.05341c0,0 10.13348,-0.21263 14.64169,0.64363"/></g><g data-paper-data="{&quot;index&quot;:null}" stroke="none" stroke-width="1" stroke-linecap="butt"><g><path d="M248.2855,177.13379l-1.58589,1.27498l1.41591,1.34451c0,0 -0.76262,11.75264 -0.876,13.49993c-0.1012,1.5595 -1.44636,2.74071 -3.00584,2.63952c-5.1463,-0.33394 -17.74699,-1.15159 -22.8881,-1.48519c-1.55949,-0.10119 -2.7459,-1.44669 -2.64471,-3.00618c0.33394,-5.14631 2.07332,-31.95165 2.40692,-37.09276c0.10153,-1.56468 1.45189,-2.74556 3.01137,-2.64437c5.1411,0.3336 17.74177,1.15125 22.8881,1.48519c1.5595,0.10119 2.74071,1.44633 2.63918,3.01103c-0.18025,2.7779 -1.36094,20.97334 -1.36094,20.97334z" fill="#ffffff"/><path d="M249.64646,156.16045c-0.19164,2.95347 -1.36094,20.97334 -1.36094,20.97334l-1.71063,1.26689l1.53255,1.47734c0,0 -0.77169,11.89241 -0.86791,13.37519c-0.1012,1.5595 -1.44636,2.74071 -3.00584,2.63952c-5.1463,-0.33394 -17.74699,-1.15159 -22.8881,-1.48519c-1.55949,-0.10119 -2.7459,-1.44669 -2.64471,-3.00618c0.24222,-3.73285 2.14678,-33.08374 2.14678,-33.08374l1.57779,-1.15025l-1.424,-1.21977c0,0 0.06718,-1.03534 0.10635,-1.639c0.10153,-1.56468 1.45189,-2.74556 3.01137,-2.64437c5.1411,0.3336 17.74177,1.15125 22.8881,1.48519c1.5595,0.10119 2.74071,1.44633 2.63918,3.01103z" fill="url(#color-1)"/><path d="M248.30169,176.88432l-1.60208,1.52446l1.40782,1.46924c0,0 -0.76085,11.72527 -0.86791,13.37519c-0.1012,1.5595 -1.44636,2.74071 -3.00584,2.63952c-5.1463,-0.33394 -17.74699,-1.15159 -22.8881,-1.48519c-1.55949,-0.10119 -2.7459,-1.44669 -2.64471,-3.00618c0.2787,-4.29499 2.13869,-32.959 2.13869,-32.959l1.46115,-1.28308l-1.28308,-1.46115c0,0 0.07238,-1.11536 0.09017,-1.38953c0.10153,-1.56468 1.45189,-2.74556 3.01137,-2.64437c5.1411,0.3336 17.74177,1.15125 22.8881,1.48519c1.5595,0.10119 2.74071,1.44633 2.63918,3.01103c-0.182,2.80481 -1.34476,20.72387 -1.34476,20.72387z" fill="url(#color-2)"/></g><g fill="none" font-family="sans-serif" font-weight="normal" font-size="12" text-anchor="start"><g/><g data-paper-data="{&quot;index&quot;:null}"/></g></g><g data-paper-data="{&quot;index&quot;:null}" fill="none" stroke="#000000" stroke-width="1.5" stroke-linecap="round"><path d="M219.07902,183.42502c0,0 7.66038,-6.6371 11.67579,-8.85828"/><path d="M230.56727,174.63977c0,0 1.45563,-0.39419 3.50688,-0.89317c1.33468,-0.32468 2.95665,-0.29998 4.55875,-0.63364c2.31902,-0.48297 4.63488,-1.28554 6.29935,-1.3785"/></g><g data-paper-data="{&quot;index&quot;:null}"><g data-paper-data="{&quot;index&quot;:null}" fill="#d6c3c8" stroke-width="0"><g stroke="none" stroke-linecap="butt"><path d="M208.87054,221.90068c-1.78681,-0.11203 -3.14335,-1.65004 -3.03133,-3.43683c0.36968,-5.8964 1.27481,-20.33364 1.64411,-26.22407c0.11202,-1.78679 1.65042,-3.1493 3.43721,-3.03728c5.89639,0.36967 36.60862,2.29517 42.49905,2.66447c1.79274,0.1124 3.14893,1.65639 3.03691,3.44318c-0.21342,3.40395 -0.60576,9.662 -0.97031,15.47668c-2.04048,0.01867 -3.7527,1.59634 -3.9145,3.65508c-1.99363,0.09448 -3.63894,1.67643 -3.76672,3.71463c-0.04741,0.75608 0.12022,1.47596 0.45024,2.09994c-1.93665,0.15351 -3.51587,1.71149 -3.64095,3.70667c-0.00373,0.05957 -0.00613,0.11891 -0.00722,0.17801c-11.20406,-0.70244 -31.10979,-1.95042 -35.73651,-2.24049z"/><path d=""/><path d="M244.60704,224.14117c-11.20407,-0.70244 -31.10982,-1.95042 -35.73652,-2.24049c-1.7868,-0.11203 -3.14335,-1.65005 -3.03133,-3.43684c0.36968,-5.8964 1.27481,-20.33363 1.64411,-26.22407c0.11202,-1.78678 1.65042,-3.14929 3.43722,-3.03727c5.89639,0.36967 36.60861,2.29517 42.49905,2.66447c1.79274,0.1124 3.14893,1.65639 3.03691,3.44318c-0.21342,3.40395 -0.60576,9.662 -0.97031,15.47668c-2.04048,0.01867 -3.7527,1.59634 -3.9145,3.65508c-1.99363,0.09448 -3.63894,1.67643 -3.76672,3.71463c-0.04741,0.75608 0.12022,1.47596 0.45024,2.09994c-1.93665,0.15351 -3.51587,1.71149 -3.64095,3.70667c-0.00373,0.05958 -0.00613,0.11892 -0.00722,0.17802z"/><path d=""/><path d="M244.60704,224.14117c-11.20407,-0.70244 -31.10982,-1.95042 -35.73652,-2.24049c-1.7868,-0.11203 -3.14335,-1.65005 -3.03133,-3.43684c0.36968,-5.8964 1.27481,-20.33363 1.64411,-26.22407c0.11202,-1.78678 1.65042,-3.14929 3.43722,-3.03727c5.89639,0.36967 36.60861,2.29517 42.49905,2.66447c1.79274,0.1124 3.14893,1.65639 3.03691,3.44318c-0.21342,3.40395 -0.60576,9.662 -0.97031,15.47668c-2.04048,0.01867 -3.7527,1.59634 -3.9145,3.65508c-1.99363,0.09448 -3.63894,1.67643 -3.76672,3.71463c-0.04741,0.75608 0.12022,1.47596 0.45024,2.09994c-1.93665,0.15351 -3.51587,1.71149 -3.64095,3.70667c-0.00373,0.05958 -0.00613,0.11892 -0.00722,0.17802z"/><path d=""/></g><g stroke-linecap="round"><g><path d="M227.85276,209.87376l0.38693,-6.1717" stroke="url(#color-3)"/><path d="M226.82239,209.36659l0.19163,-3.05646" stroke="url(#color-4)"/></g><g data-paper-data="{&quot;index&quot;:null}"><path d="M217.99032,209.05872l0.38693,-6.1717" stroke="url(#color-5)"/><path d="M219.07595,208.68422l0.19163,-3.05646" stroke="url(#color-6)"/></g></g></g><g><g stroke="none" stroke-width="1" stroke-linecap="butt"><path d="M259.59986,223.40222c-0.12707,2.02675 -1.87165,3.56549 -3.89842,3.43842c-3.04668,-0.19101 -27.05794,-1.69639 -27.05794,-1.69639l-1.88346,-1.92162l-2.30832,1.65882c0,0 -6.44884,-0.40431 -9.28623,-0.5822c0.00714,-0.06665 0.01285,-0.13379 0.01709,-0.20136c0.14189,-2.26313 -1.41466,-4.24025 -3.57245,-4.68738c0.4598,-0.65548 0.75044,-1.44188 0.80421,-2.29952c0.14496,-2.31193 -1.48258,-4.32538 -3.71287,-4.71416c0.10958,-2.33987 -1.59387,-4.35798 -3.88762,-4.66808c0.41351,-6.59559 0.85855,-13.69411 1.10062,-17.5552c0.12706,-2.02676 1.8721,-3.57224 3.90559,-3.44476c6.68152,0.4189 41.51841,2.60299 48.20669,3.02231c2.02677,0.12707 3.56509,1.8784 3.43802,3.90516c-0.41889,6.68152 -1.44559,23.05769 -1.86491,29.74597z" fill="#ffffff"/><path d="" fill="#ffffff"/><path d="M255.70143,226.84065c-2.8702,-0.17994 -27.05795,-1.69639 -27.05795,-1.69639l-2.04551,-2.53296l-2.54547,2.24513c0,0 -5.6765,-0.35588 -8.88701,-0.55717c0.00714,-0.06666 0.01285,-0.1338 0.01709,-0.20137c0.14189,-2.26313 -1.41466,-4.24025 -3.57245,-4.68738c0.4598,-0.65548 0.75044,-1.44188 0.80421,-2.29952c0.14496,-2.31193 -1.48258,-4.32538 -3.71287,-4.71416c0.10958,-2.33987 -1.59387,-4.35798 -3.88762,-4.66808c0.41351,-6.59559 0.85855,-13.69411 1.10062,-17.5552c0.12706,-2.02676 1.8721,-3.57224 3.90559,-3.44476c6.68153,0.4189 41.51842,2.60299 48.2067,3.02231c2.02678,0.12707 3.56509,1.8784 3.43802,3.90516c-0.41889,6.68153 -1.44559,23.05769 -1.86491,29.74597c-0.12706,2.02675 -1.87164,3.5655 -3.89841,3.43843z" fill="url(#color-7)"/><path d="" fill="url(#color-8)"/><path d="M255.70143,226.84064c-3.61871,-0.22687 -26.65874,-1.67136 -26.65874,-1.67136l-2.44473,-2.55798l-2.74507,2.23261c0,0 -6.65477,-0.41721 -8.6874,-0.54465c0.00714,-0.06666 0.01285,-0.1338 0.01709,-0.20137c0.14189,-2.26313 -1.41466,-4.24025 -3.57245,-4.68738c0.4598,-0.65548 0.75044,-1.44188 0.80421,-2.29952c0.14496,-2.31193 -1.48258,-4.32538 -3.71287,-4.71416c0.10958,-2.33987 -1.59387,-4.35798 -3.88762,-4.66808c0.41351,-6.59559 0.85855,-13.69411 1.10062,-17.5552c0.12706,-2.02676 1.8721,-3.57224 3.90559,-3.44476c6.68153,0.4189 41.51842,2.60299 48.2067,3.02231c2.02678,0.12707 3.56509,1.8784 3.43802,3.90516c-0.41889,6.68153 -1.44559,23.05769 -1.86491,29.74597c-0.12706,2.02675 -1.87164,3.5655 -3.89841,3.43843z" fill="url(#color-9)"/><path d="" fill="url(#color-10)"/></g><g fill="none" stroke-linecap="round"><g><path d="M236.48128,203.61552l-0.4389,7.00056" stroke="url(#color-11)" stroke-width="5"/><path d="M237.49118,206.72434l-0.21736,3.46695" stroke="url(#color-12)" stroke-width="2.5"/></g><g data-paper-data="{&quot;index&quot;:null}"><path d="M247.25721,211.09607l0.4389,-7.00056" stroke="#adadad" stroke-width="5"/><path d="M246.08846,210.5208l0.21736,-3.46695" stroke="#c5c5c5" stroke-width="2.5"/></g></g></g><path d="M230.39351,212.68842l6.25969,0.70759l6.11566,-2.59805l10.57986,-2.54298l-0.52561,8.38354l-24.35219,-1.52676l0.38795,-6.18785z" fill="#ffffff" stroke="none" stroke-width="0" stroke-linecap="butt"/></g></g></g></g></svg>