<svg version="1.1" xmlns="http://www.w3.org/2000/svg" xmlns:xlink="http://www.w3.org/1999/xlink" width="95.23452" height="24.6976" viewBox="0,0,95.23452,24.6976"><defs><linearGradient x1="277.36213" y1="179.75181" x2="279.20828" y2="179.75181" gradientUnits="userSpaceOnUse" id="color-1"><stop offset="0" stop-color="#000000"/><stop offset="1" stop-color="#000000" stop-opacity="0"/></linearGradient><linearGradient x1="269.50881" y1="176.18111" x2="269.50881" y2="178.42296" gradientUnits="userSpaceOnUse" id="color-2"><stop offset="0" stop-color="#ffffff"/><stop offset="1" stop-color="#ffffff" stop-opacity="0"/></linearGradient><linearGradient x1="298.11757" y1="177.7719" x2="298.11757" y2="179.58225" gradientUnits="userSpaceOnUse" id="color-3"><stop offset="0" stop-color="#000000" stop-opacity="0"/><stop offset="1" stop-color="#000000"/></linearGradient><linearGradient x1="258.75783" y1="179.75181" x2="260.69171" y2="179.75181" gradientUnits="userSpaceOnUse" id="color-4"><stop offset="0" stop-color="#000000"/><stop offset="1" stop-color="#000000" stop-opacity="0"/></linearGradient><linearGradient x1="244.36346" y1="186.9334" x2="244.36346" y2="187.79054" gradientUnits="userSpaceOnUse" id="color-5"><stop offset="0" stop-color="#000000"/><stop offset="1" stop-color="#000000" stop-opacity="0"/></linearGradient><linearGradient x1="230.61237" y1="176.8725" x2="230.61237" y2="179.11435" gradientUnits="userSpaceOnUse" id="color-6"><stop offset="0" stop-color="#ffffff"/><stop offset="1" stop-color="#ffffff" stop-opacity="0"/></linearGradient><linearGradient x1="247.43365" y1="182.51741" x2="247.43365" y2="184.73492" gradientUnits="userSpaceOnUse" id="color-7"><stop offset="0" stop-color="#000000"/><stop offset="1" stop-color="#000000" stop-opacity="0"/></linearGradient><linearGradient x1="236.27999" y1="179.84897" x2="234.34608" y2="179.84897" gradientUnits="userSpaceOnUse" id="color-8"><stop offset="0" stop-color="#000000"/><stop offset="1" stop-color="#000000" stop-opacity="0"/></linearGradient><linearGradient x1="247.51841" y1="175.54392" x2="247.51841" y2="177.78577" gradientUnits="userSpaceOnUse" id="color-9"><stop offset="0" stop-color="#ffffff"/><stop offset="1" stop-color="#ffffff" stop-opacity="0"/></linearGradient><linearGradient x1="261.4245" y1="179.75181" x2="263.35839" y2="179.75181" gradientUnits="userSpaceOnUse" id="color-10"><stop offset="0" stop-color="#000000"/><stop offset="1" stop-color="#000000" stop-opacity="0"/></linearGradient><linearGradient x1="262.45362" y1="179.75181" x2="260.51972" y2="179.75181" gradientUnits="userSpaceOnUse" id="color-11"><stop offset="0" stop-color="#000000"/><stop offset="1" stop-color="#000000" stop-opacity="0"/></linearGradient><linearGradient x1="261.94187" y1="175.61577" x2="261.94187" y2="177.85762" gradientUnits="userSpaceOnUse" id="color-12"><stop offset="0" stop-color="#ffffff"/><stop offset="1" stop-color="#ffffff" stop-opacity="0"/></linearGradient><linearGradient x1="264.31589" y1="179.7518" x2="266.24978" y2="179.7518" gradientUnits="userSpaceOnUse" id="color-13"><stop offset="0" stop-color="#000000"/><stop offset="1" stop-color="#000000" stop-opacity="0"/></linearGradient><linearGradient x1="265.34501" y1="179.7518" x2="263.41112" y2="179.7518" gradientUnits="userSpaceOnUse" id="color-14"><stop offset="0" stop-color="#000000"/><stop offset="1" stop-color="#000000" stop-opacity="0"/></linearGradient><linearGradient x1="264.83326" y1="175.61577" x2="264.83326" y2="177.85762" gradientUnits="userSpaceOnUse" id="color-15"><stop offset="0" stop-color="#ffffff"/><stop offset="1" stop-color="#ffffff" stop-opacity="0"/></linearGradient><linearGradient x1="267.08104" y1="179.7518" x2="269.01494" y2="179.7518" gradientUnits="userSpaceOnUse" id="color-16"><stop offset="0" stop-color="#000000"/><stop offset="1" stop-color="#000000" stop-opacity="0"/></linearGradient><linearGradient x1="268.11018" y1="179.7518" x2="266.17628" y2="179.7518" gradientUnits="userSpaceOnUse" id="color-17"><stop offset="0" stop-color="#000000"/><stop offset="1" stop-color="#000000" stop-opacity="0"/></linearGradient><linearGradient x1="267.59841" y1="175.61577" x2="267.59841" y2="177.85762" gradientUnits="userSpaceOnUse" id="color-18"><stop offset="0" stop-color="#ffffff"/><stop offset="1" stop-color="#ffffff" stop-opacity="0"/></linearGradient><linearGradient x1="269.84622" y1="179.7518" x2="271.7801" y2="179.7518" gradientUnits="userSpaceOnUse" id="color-19"><stop offset="0" stop-color="#000000"/><stop offset="1" stop-color="#000000" stop-opacity="0"/></linearGradient><linearGradient x1="270.87535" y1="179.7518" x2="268.94144" y2="179.7518" gradientUnits="userSpaceOnUse" id="color-20"><stop offset="0" stop-color="#000000"/><stop offset="1" stop-color="#000000" stop-opacity="0"/></linearGradient><linearGradient x1="270.36359" y1="175.61577" x2="270.36359" y2="177.85762" gradientUnits="userSpaceOnUse" id="color-21"><stop offset="0" stop-color="#ffffff"/><stop offset="1" stop-color="#ffffff" stop-opacity="0"/></linearGradient><linearGradient x1="272.61138" y1="179.7518" x2="274.54526" y2="179.7518" gradientUnits="userSpaceOnUse" id="color-22"><stop offset="0" stop-color="#000000"/><stop offset="1" stop-color="#000000" stop-opacity="0"/></linearGradient><linearGradient x1="273.6405" y1="179.7518" x2="271.70661" y2="179.7518" gradientUnits="userSpaceOnUse" id="color-23"><stop offset="0" stop-color="#000000"/><stop offset="1" stop-color="#000000" stop-opacity="0"/></linearGradient><linearGradient x1="273.12874" y1="175.61577" x2="273.12874" y2="177.85762" gradientUnits="userSpaceOnUse" id="color-24"><stop offset="0" stop-color="#ffffff"/><stop offset="1" stop-color="#ffffff" stop-opacity="0"/></linearGradient><linearGradient x1="275.37654" y1="179.7518" x2="277.31043" y2="179.7518" gradientUnits="userSpaceOnUse" id="color-25"><stop offset="0" stop-color="#000000"/><stop offset="1" stop-color="#000000" stop-opacity="0"/></linearGradient><linearGradient x1="276.40567" y1="179.7518" x2="274.47177" y2="179.7518" gradientUnits="userSpaceOnUse" id="color-26"><stop offset="0" stop-color="#000000"/><stop offset="1" stop-color="#000000" stop-opacity="0"/></linearGradient><linearGradient x1="275.89391" y1="175.61577" x2="275.89391" y2="177.85762" gradientUnits="userSpaceOnUse" id="color-27"><stop offset="0" stop-color="#ffffff"/><stop offset="1" stop-color="#ffffff" stop-opacity="0"/></linearGradient><linearGradient x1="291.62209" y1="176.6954" x2="291.62209" y2="178.93725" gradientUnits="userSpaceOnUse" id="color-28"><stop offset="0" stop-color="#ffffff"/><stop offset="1" stop-color="#ffffff" stop-opacity="0"/></linearGradient><linearGradient x1="252.51877" y1="174.3406" x2="252.37497" y2="176.57783" gradientUnits="userSpaceOnUse" id="color-29"><stop offset="0" stop-color="#ffffff"/><stop offset="1" stop-color="#ffffff" stop-opacity="0"/></linearGradient><linearGradient x1="227.50661" y1="179.57828" x2="228.53773" y2="181.56894" gradientUnits="userSpaceOnUse" id="color-30"><stop offset="0" stop-color="#ffffff"/><stop offset="1" stop-color="#ffffff" stop-opacity="0"/></linearGradient><linearGradient x1="227.01817" y1="179.89363" x2="228.95207" y2="179.89363" gradientUnits="userSpaceOnUse" id="color-31"><stop offset="0" stop-color="#000000"/><stop offset="1" stop-color="#000000" stop-opacity="0"/></linearGradient><linearGradient x1="218.90918" y1="175.04718" x2="218.90918" y2="177.42054" gradientUnits="userSpaceOnUse" id="color-32"><stop offset="0" stop-color="#ffffff"/><stop offset="1" stop-color="#ffffff" stop-opacity="0"/></linearGradient></defs><g transform="translate(-209.23459,-173.94807)"><g data-paper-data="{&quot;isPaintingLayer&quot;:true}" fill-rule="nonzero" stroke-linejoin="miter" stroke-miterlimit="10" stroke-dasharray="" stroke-dashoffset="0" style="mix-blend-mode: normal"><path d="M237.85401,178.37382l0.0887,-2.30621l1.60114,-0.8724l18.62256,1.1385l-0.2661,2.04011z" fill="#777777" stroke="none" stroke-width="NaN" stroke-linecap="butt"/><path d="M226.18871,181.19033v-2.68863h10.10274v2.68863z" fill="#cfcfcf" stroke="none" stroke-width="NaN" stroke-linecap="butt"/><path d="M243.87886,188.03704l-0.17927,-1.47899h1.70588c0,0 -0.6001,0.81794 -0.56862,1.35294c0.03147,0.53501 0.39216,1.29412 0.39216,1.29412c0,0 -0.38873,0.14657 -0.67886,-0.03806c-0.34678,-0.22067 -0.67128,-1.13001 -0.67128,-1.13001z" fill="#303030" stroke="none" stroke-width="0" stroke-linecap="butt"/><path d="M270.13136,181.09797v-2.69231l26.02277,-0.05745c0,0 2.23696,-3.03511 2.95229,-3.96725c0.20038,-0.26112 0.64461,-0.42759 0.8193,-0.42959c0.07257,-0.00083 0.17702,-0.00203 0.28009,-0.00321c0.17726,-0.00204 0.34722,0.02682 0.34216,0.32009c-0.01468,0.85122 -0.03533,4.10332 -0.03533,4.10332c0,0 2.51607,0.0341 2.96833,0.0341c0.4764,0 0.95806,0.35693 0.95806,0.90875c0,0.2385 0,0.73929 0,0.88889c0,0.34973 -0.35981,0.89467 -0.84695,0.89467c-3.06187,0 -33.46074,0 -33.46074,0z" fill="#3a3a3a" stroke="none" stroke-width="0" stroke-linecap="butt"/><path d="M277.36213,181.09797v-2.69231h1.84615v2.69231z" fill="url(#color-1)" stroke="none" stroke-width="0" stroke-linecap="butt"/><path d="M260.15069,181.65707v-3.81052h18.57675v3.81052z" fill="#3a3a3a" stroke="none" stroke-width="0" stroke-linecap="butt"/><path d="M260.2565,180.07334v-2.24185h18.50462v2.24185z" fill="url(#color-2)" stroke="none" stroke-width="0" stroke-linecap="butt"/><path d="M296.13482,178.37535l1.29311,-1.81034h3.01724v1.81034z" fill="url(#color-3)" stroke="none" stroke-width="0" stroke-linecap="butt"/><path d="M258.75783,181.65707v-3.81052h1.93389v3.81052z" fill="url(#color-4)" stroke="none" stroke-width="0" stroke-linecap="butt"/><path d="M243.55394,187.79054v-0.85714h1.61905v0.85714z" fill="url(#color-5)" stroke="none" stroke-width="0" stroke-linecap="butt"/><path d="M236.40692,187.4834l-0.33333,-3.64524c0,0 -0.44772,-0.5472 -0.66567,-0.81359c-0.21035,-0.25709 -0.62006,-1.7571 -0.62006,-2.40455c0,-0.93078 0,-3.40329 0,-3.40329h25.48453v5.0619l-1.50548,1.91556l0.00548,3.2892c0,0 -4.75958,1.71687 -6.01123,2.16837c-0.56848,0.20506 -1.59897,-0.22816 -1.80694,-0.61947c-0.25442,-0.47871 -0.8485,-1.59651 -0.8485,-1.59651l-1.44286,0.04762h-5.30536c0,0 -2.30705,6.0916 -3.60077,10.05314c-0.29018,0.88856 -1.69219,0.71644 -1.69219,0.71644l-2.48638,-0.03037c0,0 -1.37245,-0.29155 -0.81628,-2.02776c0.26024,-0.81241 2.53175,-7.65598 2.53175,-7.65598z" fill="#303030" stroke="none" stroke-width="0" stroke-linecap="butt"/><path d="M226.24619,180.76473v-2.24186h8.73236v2.24186z" fill="url(#color-6)" stroke="none" stroke-width="0" stroke-linecap="butt"/><path d="M236.1687,184.73492v-2.21751h22.52991v2.21751z" fill="url(#color-7)" stroke="none" stroke-width="0" stroke-linecap="butt"/><path d="M234.34608,181.17047v-2.64301h1.9339v2.64301z" data-paper-data="{&quot;index&quot;:null}" fill="url(#color-8)" stroke="none" stroke-width="0" stroke-linecap="butt"/><g fill="none" stroke="#303030" stroke-width="0.5"><g><path d="M244.14323,190.07625c-0.78241,0 -1.41666,-0.63426 -1.41666,-1.41667c0,-0.78241 0.63426,-1.41666 1.41666,-1.41666" stroke-linecap="butt"/><path d="M247.68489,190.07625h-3.6007" stroke-linecap="round"/></g><g data-paper-data="{&quot;index&quot;:null}"><path d="M247.6849,187.24292c0.78241,0 1.41666,0.63426 1.41666,1.41666c0,0.78241 -0.63426,1.41667 -1.41666,1.41667" stroke-linecap="butt"/><path d="M247.74391,187.24292h-3.6007" stroke-linecap="round"/></g></g><path d="M236.37357,184.13815c0,0 -0.63214,-0.74603 -0.91331,-1.07787c-0.24126,-0.28473 -0.6724,-1.29271 -0.6724,-1.707c0,-0.88161 0,-4.13655 0,-4.13655h25.48452v5.0619l-1.50548,1.91556z" fill="#3a3a3a" stroke="none" stroke-width="0" stroke-linecap="butt"/><g fill="none" stroke-width="3" stroke-linecap="round"><path d="M255.2223,180.87014h0.01673h-6.02906h0.0187" stroke="#242424"/><path d="M249.22867,180.22843h-0.0187h6.02906h-0.01673" stroke="#303030"/></g><path d="M234.73283,179.43615v-2.24186h25.57115v2.24186z" fill="url(#color-9)" stroke="none" stroke-width="0" stroke-linecap="butt"/><g stroke="none" stroke-width="0" stroke-linecap="butt"><g><path d="M261.4245,181.65707v-3.81052h1.93389v3.81052z" fill="url(#color-10)"/><path d="M260.51972,181.65707v-3.81052h1.9339v3.81052z" data-paper-data="{&quot;index&quot;:null}" fill="url(#color-11)"/><path d="M260.9483,182.26422v-5.02481h1.9339v5.02481z" fill="#3a3a3a"/></g><path d="M260.92609,179.508v-2.24185h1.9701v2.24185z" fill="url(#color-12)"/></g><g stroke="none" stroke-width="0" stroke-linecap="butt"><g><path d="M264.31589,181.65706v-3.81052h1.93389v3.81052z" fill="url(#color-13)"/><path d="M263.41112,181.65706v-3.81052h1.9339v3.81052z" data-paper-data="{&quot;index&quot;:null}" fill="url(#color-14)"/><path d="M263.83969,182.26421v-5.02481h1.9339v5.02481z" fill="#3a3a3a"/></g><path d="M263.81749,179.508v-2.24186h1.9701v2.24186z" fill="url(#color-15)"/></g><g stroke="none" stroke-width="0" stroke-linecap="butt"><g><path d="M267.08104,181.65706v-3.81052h1.93389v3.81052z" fill="url(#color-16)"/><path d="M266.17628,181.65706v-3.81052h1.9339v3.81052z" data-paper-data="{&quot;index&quot;:null}" fill="url(#color-17)"/><path d="M266.60485,182.26421v-5.02481h1.9339v5.02481z" fill="#3a3a3a"/></g><path d="M266.58265,179.508v-2.24186h1.9701v2.24186z" fill="url(#color-18)"/></g><g stroke="none" stroke-width="0" stroke-linecap="butt"><g><path d="M269.84622,181.65706v-3.81052h1.93389v3.81052z" fill="url(#color-19)"/><path d="M268.94144,181.65706v-3.81052h1.9339v3.81052z" data-paper-data="{&quot;index&quot;:null}" fill="url(#color-20)"/><path d="M269.37002,182.26421v-5.02481h1.9339v5.02481z" fill="#3a3a3a"/></g><path d="M269.3478,179.508v-2.24186h1.9701v2.24186z" fill="url(#color-21)"/></g><g stroke="none" stroke-width="0" stroke-linecap="butt"><g><path d="M272.61138,181.65706v-3.81052h1.93389v3.81052z" fill="url(#color-22)"/><path d="M271.70661,181.65706v-3.81052h1.9339v3.81052z" data-paper-data="{&quot;index&quot;:null}" fill="url(#color-23)"/><path d="M272.13518,182.26421v-5.02481h1.9339v5.02481z" fill="#3a3a3a"/></g><path d="M272.11298,179.508v-2.24186h1.9701v2.24186z" fill="url(#color-24)"/></g><g stroke="none" stroke-width="0" stroke-linecap="butt"><g><path d="M275.37654,181.65706v-3.81052h1.93389v3.81052z" fill="url(#color-25)"/><path d="M274.47177,181.65706v-3.81052h1.9339v3.81052z" data-paper-data="{&quot;index&quot;:null}" fill="url(#color-26)"/><path d="M274.90035,182.26421v-5.02481h1.9339v5.02481z" fill="#3a3a3a"/></g><path d="M274.87813,179.508v-2.24186h1.9701v2.24186z" fill="url(#color-27)"/></g><path d="M278.71362,180.58763v-2.24186c0,0 21.27454,0 24.38768,0c0.30642,0 0.65585,0.07935 0.88779,0.27164c0.32614,0.27036 0.48002,0.70396 0.48002,0.92956c0,0.35933 0,1.04066 0,1.04066z" fill="url(#color-28)" stroke="none" stroke-width="0" stroke-linecap="butt"/><path d="M233.99697,196.47272c0.22461,-0.64097 1.19854,-3.42024 1.63898,-4.6771c0.1333,-0.3804 0.46565,-0.55342 0.72432,-0.48253c0.66972,0.18352 3.6754,1.00714 4.90141,1.3431c0.32356,0.08866 0.44054,0.37911 0.31053,0.75014c-0.40752,1.16294 -1.28075,3.65484 -1.53539,4.38148c-0.136,0.38811 -0.59372,0.82077 -1.04677,0.82502c-1.05421,0.00988 -2.89857,0.02716 -3.50223,0.03282c-0.3765,0.00353 -1.05661,-0.47123 -1.19036,-0.7321c-0.06134,-0.11964 -0.15235,-0.29716 -0.23858,-0.46534c-0.12494,-0.24369 -0.15249,-0.71702 -0.06192,-0.97548z" fill="#1e1e1e" stroke="none" stroke-width="0" stroke-linecap="butt"/><path d="M239.77597,177.40474l-0.12231,-2.23724l18.51088,1.19544l-0.33695,2.20848z" fill="url(#color-29)" stroke="none" stroke-width="0" stroke-linecap="butt"/><path d="M237.85687,175.98443l1.85046,-0.82128l-0.01083,2.27504l-1.75572,0.84331z" data-paper-data="{&quot;index&quot;:null}" fill="url(#color-30)" stroke="none" stroke-width="0" stroke-linecap="butt"/><path d="M227.01817,181.21513v-2.643h1.9339v2.643z" data-paper-data="{&quot;index&quot;:null}" fill="url(#color-31)" stroke="none" stroke-width="0" stroke-linecap="butt"/><g stroke="none" stroke-width="0" stroke-linecap="butt"><path d="M209.2346,186.9729c0,-1.17139 0,-6.29787 0,-8.78993c0,-0.83161 0.61424,-1.36986 1.29494,-1.36986c2.08208,0 12.86278,0 16.66661,0c0.83234,0 1.33062,0.41951 1.33062,0.79908c0,0.67374 0,2.90002 0,4.10958c0,0.4794 -0.27745,0.87624 -0.76424,1.01162c-3.16556,0.88036 -15.18378,4.22271 -17.32597,4.81846c-0.63709,0.17718 -1.20197,-0.11057 -1.20197,-0.57896z" fill="#3a3a3a"/><path d="M209.34902,179.16773c0,0 0,-0.86841 0,-1.27799c0,-0.37919 0.36645,-1.09537 1.08794,-1.09537c2.15429,0 13.35542,0 16.91021,0c0.70606,0 1.12218,0.52498 1.12218,0.87287c0,0.42694 0,1.5005 0,1.5005z" fill="url(#color-32)"/></g></g></g></svg>