<svg version="1.1" xmlns="http://www.w3.org/2000/svg" xmlns:xlink="http://www.w3.org/1999/xlink" width="66" height="66" viewBox="0,0,66,66"><g transform="translate(-207,-147)"><g data-paper-data="{&quot;isPaintingLayer&quot;:true}" fill-rule="nonzero" stroke="none" stroke-width="0" stroke-linecap="butt" stroke-linejoin="miter" stroke-miterlimit="10" stroke-dasharray="" stroke-dashoffset="0" style="mix-blend-mode: normal"><g><path d="M207,205.25c0,-7.62792 0,-36.25686 0,-50.5c0,-5.13679 3.43259,-7.75 7.875,-7.75c8.05103,0 36.17783,0 50,0c4.92183,0 8.125,3.36321 8.125,8.5c0,14.24314 0,42.12209 0,49.75c0,3.78578 -3.30708,7.75 -8.375,7.75c-14.31837,0 -42.69225,0 -50.25,0c-3.62939,0 -7.375,-3.96422 -7.375,-7.75z" fill="#464646"/><g fill="#ffffff"><path d="M214.22223,178.31156c0,-1.41578 0,-6.72949 0,-9.37311c0,-0.95342 0.6371,-1.43845 1.46165,-1.43845c1.49432,0 6.71482,0 9.2803,0c0.91352,0 1.50805,0.62423 1.50805,1.57765c0,2.64361 0,7.81812 0,9.23391c0,0.70267 -0.61382,1.43845 -1.55445,1.43845c-2.65758,0 -7.92394,0 -9.32671,0c-0.67363,0 -1.36884,-0.73578 -1.36884,-1.43845z"/><path d="M227.36112,178.31156c0,-1.41578 0,-6.72949 0,-9.37311c0,-0.95342 0.63711,-1.43845 1.46165,-1.43845c1.49432,0 6.71482,0 9.2803,0c0.91352,0 1.50805,0.62423 1.50805,1.57765c0,2.64362 0,7.81812 0,9.23391c0,0.70267 -0.61381,1.43845 -1.55445,1.43845c-2.65758,0 -7.92394,0 -9.32671,0c-0.67363,0 -1.36884,-0.73578 -1.36884,-1.43845z"/><path d="M240.38889,178.31156c0,-1.41578 0,-6.72949 0,-9.37311c0,-0.95342 0.6371,-1.43845 1.46165,-1.43845c1.49432,0 6.71482,0 9.2803,0c0.91352,0 1.50805,0.62423 1.50805,1.57765c0,2.64362 0,7.81812 0,9.23391c0,0.70267 -0.61381,1.43845 -1.55445,1.43845c-2.65758,0 -7.92393,0 -9.32671,0c-0.67363,0 -1.36885,-0.73578 -1.36885,-1.43845z"/><path d="M253.52778,178.06156c0,-1.41578 0,-6.72949 0,-9.37311c0,-0.95342 0.6371,-1.43845 1.46165,-1.43845c1.49432,0 6.71482,0 9.2803,0c0.91352,0 1.50805,0.62423 1.50805,1.57765c0,2.64362 0,7.81812 0,9.23391c0,0.70267 -0.61381,1.43845 -1.55445,1.43845c-2.65758,0 -7.92394,0 -9.32671,0c-0.67363,0 -1.36885,-0.73578 -1.36885,-1.43845z"/><path d="M214.22223,165.06156c0,-1.41578 0,-6.72949 0,-9.37311c0,-0.95342 0.6371,-1.43845 1.46165,-1.43845c1.49432,0 6.71482,0 9.2803,0c0.91352,0 1.50805,0.62423 1.50805,1.57765c0,2.64362 0,7.81812 0,9.23391c0,0.70267 -0.61382,1.43845 -1.55445,1.43845c-2.65758,0 -7.92394,0 -9.32671,0c-0.67363,0 -1.36884,-0.73578 -1.36884,-1.43845z"/><path d="M227.36112,165.06156c0,-1.41578 0,-6.72949 0,-9.37311c0,-0.95342 0.63711,-1.43845 1.46165,-1.43845c1.49432,0 6.71482,0 9.2803,0c0.91352,0 1.50805,0.62423 1.50805,1.57765c0,2.64362 0,7.81812 0,9.23391c0,0.70267 -0.61381,1.43845 -1.55445,1.43845c-2.65758,0 -7.92394,0 -9.32671,0c-0.67363,0 -1.36884,-0.73578 -1.36884,-1.43845z"/><path d="M240.38889,165.06156c0,-1.41578 0,-6.72949 0,-9.37311c0,-0.95342 0.6371,-1.43845 1.46165,-1.43845c1.49432,0 6.71482,0 9.2803,0c0.91352,0 1.50805,0.62423 1.50805,1.57765c0,2.64362 0,7.81812 0,9.23391c0,0.70267 -0.61381,1.43845 -1.55445,1.43845c-2.65758,0 -7.92393,0 -9.32671,0c-0.67363,0 -1.36885,-0.73578 -1.36885,-1.43845z"/><path d="M253.52778,164.81156c0,-1.41578 0,-6.72949 0,-9.37311c0,-0.95342 0.6371,-1.43845 1.46165,-1.43845c1.49432,0 6.71482,0 9.2803,0c0.91352,0 1.50805,0.62423 1.50805,1.57765c0,2.64362 0,7.81812 0,9.23391c0,0.70267 -0.61381,1.43845 -1.55445,1.43845c-2.65758,0 -7.92394,0 -9.32671,0c-0.67363,0 -1.36885,-0.73578 -1.36885,-1.43845z"/><path d="M214.22222,204.56155c0,-1.41578 0,-6.72949 0,-9.37311c0,-0.95342 0.6371,-1.43845 1.46165,-1.43845c1.49432,0 6.71482,0 9.2803,0c0.91352,0 1.50805,0.62423 1.50805,1.57765c0,2.64361 0,7.81812 0,9.23391c0,0.70267 -0.61382,1.43845 -1.55445,1.43845c-2.65758,0 -7.92394,0 -9.32671,0c-0.67363,0 -1.36884,-0.73578 -1.36884,-1.43845z"/><path d="M227.36111,204.56155c0,-1.41578 0,-6.72949 0,-9.37311c0,-0.95342 0.63711,-1.43845 1.46165,-1.43845c1.49432,0 6.71482,0 9.2803,0c0.91352,0 1.50805,0.62423 1.50805,1.57765c0,2.64362 0,7.81812 0,9.23391c0,0.70267 -0.61381,1.43845 -1.55445,1.43845c-2.65758,0 -7.92394,0 -9.32671,0c-0.67363,0 -1.36884,-0.73578 -1.36884,-1.43845z"/><path d="M240.38888,204.56155c0,-1.41578 0,-6.72949 0,-9.37311c0,-0.95342 0.6371,-1.43845 1.46165,-1.43845c1.49432,0 6.71482,0 9.2803,0c0.91352,0 1.50805,0.62423 1.50805,1.57765c0,2.64362 0,7.81812 0,9.23391c0,0.70267 -0.61381,1.43845 -1.55445,1.43845c-2.65758,0 -7.92393,0 -9.32671,0c-0.67363,0 -1.36885,-0.73578 -1.36885,-1.43845z"/><path d="M253.52777,204.31155c0,-1.41578 0,-6.72949 0,-9.37311c0,-0.95342 0.6371,-1.43845 1.46165,-1.43845c1.49432,0 6.71482,0 9.2803,0c0.91352,0 1.50805,0.62423 1.50805,1.57765c0,2.64362 0,7.81812 0,9.23391c0,0.70267 -0.61381,1.43845 -1.55445,1.43845c-2.65758,0 -7.92394,0 -9.32671,0c-0.67363,0 -1.36885,-0.73578 -1.36885,-1.43845z"/><path d="M214.22222,191.31155c0,-1.41578 0,-6.72949 0,-9.37311c0,-0.95342 0.6371,-1.43845 1.46165,-1.43845c1.49432,0 6.71482,0 9.2803,0c0.91352,0 1.50805,0.62423 1.50805,1.57765c0,2.64362 0,7.81812 0,9.23391c0,0.70267 -0.61382,1.43845 -1.55445,1.43845c-2.65758,0 -7.92394,0 -9.32671,0c-0.67363,0 -1.36884,-0.73578 -1.36884,-1.43845z"/><path d="M227.36111,191.31155c0,-1.41578 0,-6.72949 0,-9.37311c0,-0.95342 0.63711,-1.43845 1.46165,-1.43845c1.49432,0 6.71482,0 9.2803,0c0.91352,0 1.50805,0.62423 1.50805,1.57765c0,2.64362 0,7.81812 0,9.23391c0,0.70267 -0.61381,1.43845 -1.55445,1.43845c-2.65758,0 -7.92394,0 -9.32671,0c-0.67363,0 -1.36884,-0.73578 -1.36884,-1.43845z"/><path d="M240.38888,191.31155c0,-1.41578 0,-6.72949 0,-9.37311c0,-0.95342 0.6371,-1.43845 1.46165,-1.43845c1.49432,0 6.71482,0 9.2803,0c0.91352,0 1.50805,0.62423 1.50805,1.57765c0,2.64362 0,7.81812 0,9.23391c0,0.70267 -0.61381,1.43845 -1.55445,1.43845c-2.65758,0 -7.92393,0 -9.32671,0c-0.67363,0 -1.36885,-0.73578 -1.36885,-1.43845z"/><path d="M253.52777,191.06155c0,-1.41578 0,-6.72949 0,-9.37311c0,-0.95342 0.6371,-1.43845 1.46165,-1.43845c1.49432,0 6.71482,0 9.2803,0c0.91352,0 1.50805,0.62423 1.50805,1.57765c0,2.64362 0,7.81812 0,9.23391c0,0.70267 -0.61381,1.43845 -1.55445,1.43845c-2.65758,0 -7.92394,0 -9.32671,0c-0.67363,0 -1.36885,-0.73578 -1.36885,-1.43845z"/></g></g></g></g></svg>