<svg version="1.1" xmlns="http://www.w3.org/2000/svg" xmlns:xlink="http://www.w3.org/1999/xlink" width="62.80255" height="94.64988" viewBox="0,0,62.80255,94.64988"><defs><linearGradient x1="226.3707" y1="243.86034" x2="229.05539" y2="201.11136" gradientUnits="userSpaceOnUse" id="color-1"><stop offset="0" stop-color="#1a1a1a"/><stop offset="1" stop-color="#1a1a1a" stop-opacity="0"/></linearGradient><linearGradient x1="223.18627" y1="190.52285" x2="194.64382" y2="188.73034" gradientUnits="userSpaceOnUse" id="color-2"><stop offset="0" stop-color="#1a1a1a" stop-opacity="0"/><stop offset="1" stop-color="#1a1a1a"/></linearGradient><linearGradient x1="236.58996" y1="151.42227" x2="234.6603" y2="157.29731" gradientUnits="userSpaceOnUse" id="color-3"><stop offset="0" stop-color="#000000"/><stop offset="1" stop-color="#151515"/></linearGradient><linearGradient x1="235.44498" y1="151.51112" x2="234.48934" y2="154.42066" gradientUnits="userSpaceOnUse" id="color-4"><stop offset="0" stop-color="#292929"/><stop offset="1" stop-color="#313131"/></linearGradient><linearGradient x1="227.12864" y1="148.52134" x2="225.19897" y2="154.39638" gradientUnits="userSpaceOnUse" id="color-5"><stop offset="0" stop-color="#000000"/><stop offset="1" stop-color="#151515"/></linearGradient><linearGradient x1="227.99795" y1="149.27178" x2="227.04232" y2="152.18131" gradientUnits="userSpaceOnUse" id="color-6"><stop offset="0" stop-color="#292929"/><stop offset="1" stop-color="#313131"/></linearGradient><linearGradient x1="168.61547" y1="135.47686" x2="221.49554" y2="152.84534" gradientUnits="userSpaceOnUse" id="color-7"><stop offset="0" stop-color="#1a1a1a"/><stop offset="1" stop-color="#1a1a1a" stop-opacity="0"/></linearGradient><linearGradient x1="168.61547" y1="135.47686" x2="221.49554" y2="152.84534" gradientUnits="userSpaceOnUse" id="color-8"><stop offset="0" stop-color="#1a1a1a"/><stop offset="1" stop-color="#1a1a1a" stop-opacity="0"/></linearGradient><linearGradient x1="231.44352" y1="165.03213" x2="219.84702" y2="200.33883" gradientUnits="userSpaceOnUse" id="color-9"><stop offset="0" stop-color="#1a1a1a" stop-opacity="0"/><stop offset="1" stop-color="#1a1a1a"/></linearGradient><linearGradient x1="231.44352" y1="165.03213" x2="219.84702" y2="200.33883" gradientUnits="userSpaceOnUse" id="color-10"><stop offset="0" stop-color="#1a1a1a" stop-opacity="0"/><stop offset="1" stop-color="#1a1a1a"/></linearGradient><linearGradient x1="244.47081" y1="153.77031" x2="242.28199" y2="160.43436" gradientUnits="userSpaceOnUse" id="color-11"><stop offset="0" stop-color="#000000"/><stop offset="1" stop-color="#151515"/></linearGradient><linearGradient x1="245.45687" y1="154.62153" x2="244.37289" y2="157.92182" gradientUnits="userSpaceOnUse" id="color-12"><stop offset="0" stop-color="#292929"/><stop offset="1" stop-color="#313131"/></linearGradient></defs><g transform="translate(-208.72497,-133.05006)"><g data-paper-data="{&quot;isPaintingLayer&quot;:true}" fill-rule="nonzero" stroke-linejoin="miter" stroke-miterlimit="10" stroke-dasharray="" stroke-dashoffset="0" style="mix-blend-mode: normal"><g><g fill="none" stroke="#000000" stroke-width="1.5" stroke-linecap="round"><path d="M224.8578,207.44795c0,0 -0.42357,2.66153 -0.99584,5.48005c-0.11837,0.58298 -0.02474,1.27058 -0.17695,1.83426c-0.31921,1.1821 -1.01435,2.13547 -1.3841,2.9601"/><path d="M222.60149,217.09802c0,0 -2.85631,6.66211 -4.96829,9.34973"/></g><g fill="none" stroke="#000000" stroke-width="1.5" stroke-linecap="round"><path d="M238.25885,208.57099c0,0 4.35345,5.79567 5.63159,8.96586"/><path d="M243.6489,216.88739c0,0 2.53209,2.43213 1.84256,5.18782c-0.22263,0.88977 0.59025,1.37478 0.795,2.06969c0.30367,1.03063 0.5447,2.00888 0.65585,2.80504"/></g><g fill="none" stroke="#000000" stroke-width="1.5" stroke-linecap="round"><path d="M256.63716,188.12601c-1.2743,-0.71675 -2.66732,-1.91508 -4.31218,-3.17354c-0.77038,-0.5894 -1.77087,-0.91844 -2.52416,-1.50839c-2.68639,-2.10389 -4.77636,-4.25894 -4.77636,-4.25894"/><path d="M270.77752,191.0825c-4.57974,-0.28836 -14.34401,-3.00712 -14.34401,-3.00712"/></g><g stroke="none" stroke-width="1" stroke-linecap="butt"><g><path d="M245.11127,206.39834c-0.09828,1.56491 -1.44097,2.7489 -3.00066,2.65095c-5.14701,-0.32324 -17.74935,-1.11469 -22.89114,-1.4376c-1.55969,-0.09795 -2.74891,-1.44098 -2.65063,-3.00586c0.32291,-5.14179 2.00655,-31.95069 2.32979,-37.09768c0.09795,-1.5597 1.44584,-2.74339 3.00554,-2.64544c5.14179,0.32291 17.74416,1.11436 22.89114,1.4376c1.55969,0.09795 2.74371,1.44064 2.64575,3.00035c-0.10975,1.74751 -0.84793,13.50172 -0.84793,13.50172l-1.57539,1.15353l1.41087,1.46631c0,0 -1.14285,18.19787 -1.31733,20.97613z" fill="#ffffff"/><path d="M245.11128,206.39834c-0.09828,1.56491 -1.44097,2.7489 -3.00066,2.65095c-5.14701,-0.32324 -17.74936,-1.11469 -22.89114,-1.4376c-1.55969,-0.09795 -2.74891,-1.44098 -2.65063,-3.00586c0.03791,-0.60374 0.10295,-1.63922 0.10295,-1.63922l1.56757,-1.02877l-1.41871,-1.34156c0,0 1.84352,-29.35479 2.07799,-33.08813c0.09795,-1.5597 1.44584,-2.74339 3.00554,-2.64544c5.14179,0.32291 17.74416,1.11436 22.89114,1.4376c1.55969,0.09795 2.74371,1.44064 2.64576,3.00035c-0.09314,1.48298 -0.8401,13.37697 -0.8401,13.37697l-1.70798,1.27044l1.53562,1.47415c0,0 -1.13182,18.02227 -1.31733,20.97613z" fill="url(#color-1)"/><path d="M245.11128,206.39834c-0.09828,1.56491 -1.44097,2.7489 -3.00066,2.65095c-5.14701,-0.32324 -17.74936,-1.11469 -22.89114,-1.4376c-1.55969,-0.09795 -2.74891,-1.44098 -2.65063,-3.00586c0.01722,-0.27421 0.08728,-1.38971 0.08728,-1.38971l1.45848,-1.28612l-1.28611,-1.45848c0,0 1.80038,-28.66781 2.07015,-32.96338c0.09795,-1.5597 1.44584,-2.74339 3.00554,-2.64544c5.14179,0.32291 17.74416,1.11436 22.89114,1.4376c1.55969,0.09795 2.74371,1.44064 2.64576,3.00035c-0.10363,1.65014 -0.8401,13.37697 -0.8401,13.37697l-1.58323,1.27828l1.3952,1.71582c0,0 -1.12549,17.92145 -1.30166,20.72662z" fill="url(#color-2)"/></g><g fill="none" font-family="sans-serif" font-weight="normal" font-size="12" text-anchor="start"><g/><g data-paper-data="{&quot;index&quot;:null}"/></g></g><g fill="none" stroke="#000000" stroke-width="1.5" stroke-linecap="round"><path d="M228.89083,188.27469c-3.62961,-2.80768 -10.18798,-10.53559 -10.18798,-10.53559"/><path d="M242.47034,193.23637c-1.63082,-0.34576 -3.79716,-1.49219 -6.01537,-2.32324c-1.53246,-0.57412 -3.13921,-0.79713 -4.40875,-1.32158c-1.95113,-0.80603 -3.3296,-1.41765 -3.3296,-1.41765"/></g><g><g data-paper-data="{&quot;index&quot;:null}" fill="#d6c3c8" stroke-width="0"><g stroke="none" stroke-linecap="butt"><path d="M223.42217,133.2129c4.40432,1.44659 23.3532,7.67037 34.01869,11.17346c-0.0209,0.05529 -0.04069,0.11128 -0.05931,0.16799c-0.62382,1.89927 0.26493,3.93185 2.00651,4.79268c-0.53791,0.45707 -0.96057,1.06345 -1.19697,1.78319c-0.63727,1.94023 0.30396,4.01957 2.12036,4.84672c-0.6133,1.97191 0.39167,4.07211 2.27969,4.84623c-1.81803,5.53518 -3.77469,11.4924 -4.83897,14.73273c-0.55867,1.7009 -2.39077,2.63178 -4.09733,2.07125c-5.60728,-1.84172 -34.84322,-11.44426 -40.45617,-13.28784c-1.7009,-0.55867 -2.62425,-2.39457 -2.06559,-4.09547c1.84172,-5.60728 6.3557,-19.35053 8.19928,-24.96351c0.55867,-1.7009 2.38888,-2.62611 4.08981,-2.06744z"/><path d=""/><path d="M257.44087,144.38635c-0.0209,0.05529 -0.04069,0.11128 -0.05931,0.168c-0.62382,1.89927 0.26493,3.93185 2.00651,4.79268c-0.53791,0.45707 -0.96057,1.06345 -1.19697,1.78319c-0.63727,1.94023 0.30396,4.01957 2.12036,4.84672c-0.6133,1.97191 0.39167,4.07211 2.27969,4.84623c-1.81803,5.53518 -3.77469,11.4924 -4.83897,14.73273c-0.55867,1.7009 -2.39077,2.63178 -4.09733,2.07125c-5.60729,-1.84172 -34.84322,-11.44426 -40.45617,-13.28784c-1.70091,-0.55867 -2.62426,-2.39457 -2.0656,-4.09547c1.84172,-5.60729 6.3557,-19.35053 8.19928,-24.96351c0.55867,-1.7009 2.38889,-2.62611 4.08981,-2.06745c4.4043,1.44659 23.3532,7.67037 34.0187,11.17346z"/><path d=""/><path d="M257.44087,144.38635c-0.0209,0.05529 -0.04069,0.11128 -0.05931,0.168c-0.62382,1.89927 0.26493,3.93185 2.00651,4.79268c-0.53791,0.45707 -0.96057,1.06345 -1.19697,1.78319c-0.63727,1.94023 0.30396,4.01957 2.12036,4.84672c-0.6133,1.97191 0.39167,4.07211 2.27969,4.84623c-1.81803,5.53518 -3.77469,11.4924 -4.83897,14.73273c-0.55867,1.7009 -2.39077,2.63178 -4.09733,2.07125c-5.60729,-1.84172 -34.84322,-11.44426 -40.45617,-13.28784c-1.70091,-0.55867 -2.62426,-2.39457 -2.0656,-4.09547c1.84172,-5.60729 6.3557,-19.35053 8.19928,-24.96351c0.55867,-1.7009 2.38889,-2.62611 4.08981,-2.06745c4.4043,1.44659 23.3532,7.67037 34.0187,11.17346z"/><path d=""/></g><g stroke-linecap="round"><g><path d="M236.58996,151.42227l-1.92966,5.87503" stroke="url(#color-3)"/><path d="M235.44498,151.51112l-0.95564,2.90954" stroke="url(#color-4)"/></g><g data-paper-data="{&quot;index&quot;:null}"><path d="M227.12863,148.52134l-1.92966,5.87503" stroke="url(#color-5)"/><path d="M227.04231,152.18132l0.95564,-2.90954" stroke="url(#color-6)"/></g></g></g><g><g stroke="none" stroke-width="1" stroke-linecap="butt"><path d="M271.09033,150.63321c-2.09118,6.36678 -7.21138,21.95578 -9.30045,28.31612c-0.63369,1.92934 -2.71183,2.98522 -4.64118,2.35153c-6.36678,-2.09118 -39.52911,-12.98336 -45.88946,-15.07241c-1.93575,-0.6358 -2.98311,-2.71827 -2.34942,-4.6476c1.20722,-3.67549 3.42666,-10.43279 5.48885,-16.71134c2.24518,0.56274 4.57562,-0.67965 5.34167,-2.89328c2.21541,0.46613 4.47363,-0.80009 5.19648,-3.00089c0.26816,-0.81642 0.2899,-1.65452 0.10601,-2.43378c2.16973,0.38505 4.34854,-0.87376 5.05613,-3.0281c0.02113,-0.06433 0.04072,-0.1288 0.05881,-0.19334c2.70101,0.88715 8.83985,2.90346 8.83985,2.90346l1.52845,2.39664l2.46182,-1.08602c0,0 22.85707,7.50742 25.7573,8.46c1.92935,0.63369 2.9788,2.70972 2.34512,4.63905z" fill="#ffffff"/><path d="" fill="#ffffff"/><path d="M268.74523,145.99416c1.92935,0.63369 2.9788,2.70973 2.34511,4.63906c-2.09118,6.36678 -7.21138,21.95576 -9.30045,28.31612c-0.63369,1.92934 -2.71182,2.98522 -4.64118,2.35153c-6.36678,-2.09118 -39.52911,-12.98336 -45.88946,-15.07241c-1.93575,-0.6358 -2.98311,-2.71827 -2.34942,-4.6476c1.20722,-3.67549 3.42666,-10.43279 5.48885,-16.71134c2.24518,0.56274 4.57562,-0.67965 5.34167,-2.89328c2.21541,0.46613 4.47363,-0.80009 5.19648,-3.00089c0.26816,-0.81642 0.2899,-1.65452 0.10601,-2.43378c2.16973,0.38505 4.34854,-0.87376 5.05613,-3.0281c0.02113,-0.06433 0.04072,-0.1288 0.05881,-0.19335c3.05619,1.00381 8.45982,2.77863 8.45982,2.77863l1.53124,3.02909l2.83906,-1.59366c0,0 23.02507,7.56259 25.7573,8.46z" fill="url(#color-7)"/><path d="" fill="url(#color-8)"/><path d="M268.74523,145.99416c1.92935,0.63369 2.9788,2.70973 2.34511,4.63906c-2.09118,6.36678 -7.21138,21.95576 -9.30045,28.31612c-0.63369,1.92934 -2.71182,2.98522 -4.64118,2.35153c-6.36678,-2.09118 -39.52911,-12.98336 -45.88946,-15.07241c-1.93575,-0.6358 -2.98311,-2.71827 -2.34942,-4.6476c1.20722,-3.67549 3.42666,-10.43279 5.48885,-16.71134c2.24518,0.56274 4.57562,-0.67965 5.34167,-2.89328c2.21541,0.46613 4.47363,-0.80009 5.19648,-3.00089c0.26816,-0.81642 0.2899,-1.65452 0.10601,-2.43378c2.16973,0.38505 4.34854,-0.87376 5.05613,-3.0281c0.02113,-0.06433 0.04072,-0.1288 0.05881,-0.19335c1.93492,0.63553 8.26981,2.71623 8.26981,2.71623l1.72125,3.09149l3.21909,-1.46883c0,0 21.93252,7.20375 25.37729,8.33518z" fill="url(#color-9)"/><path d="" fill="url(#color-10)"/></g><g fill="none" stroke-linecap="round"><g><path d="M242.28199,160.43436l2.18882,-6.66405" stroke="url(#color-11)" stroke-width="5"/><path d="M245.45687,154.62153l-1.08398,3.30029" stroke="url(#color-12)" stroke-width="2.5"/></g><g data-paper-data="{&quot;index&quot;:null}"><path d="M252.87498,164.14802l2.18882,-6.66405" stroke="#adadad" stroke-width="5"/><path d="M253.76504,157.58475l-1.08398,3.30029" stroke="#c5c5c5" stroke-width="2.5"/></g></g></g><path d="M237.17203,152.67752l1.9347,-5.8904l23.18162,7.61401l-2.62121,7.98055l-8.88213,-6.28553l-4.71591,-4.68097l-6.07567,-1.6645z" fill="#ffffff" stroke="none" stroke-width="0" stroke-linecap="butt"/></g></g></g></g></svg>